<svg xmlns="http://www.w3.org/2000/svg" width="202.511" height="148.484" viewBox="0 0 202.511 148.484"><g transform="translate(0 -0.1)"><g transform="translate(65.549 27.451)"><path d="M165.951,132.1A39.651,39.651,0,1,1,205.6,92.451,39.714,39.714,0,0,1,165.951,132.1Zm0-74.631a34.98,34.98,0,1,0,34.98,34.98A35,35,0,0,0,165.951,57.471Z" transform="translate(-126.3 -52.8)" fill="#211d1d"/></g><g transform="translate(78.212 92.896)"><path d="M150.7,178.9" transform="translate(-150.7 -178.9)" fill="none" stroke="#24292b" stroke-miterlimit="10" stroke-width="9"/></g><g transform="translate(132.187 92.896)"><path d="M254.7,178.9" transform="translate(-254.7 -178.9)" fill="none" stroke="#24292b" stroke-miterlimit="10" stroke-width="9"/></g><g transform="translate(49.097 90.924)"><path d="M206.079,232.76H95.327l-.259-2.024a55.123,55.123,0,0,1-.467-7.11A56.224,56.224,0,0,1,122.574,175.1l2.335,4.048a51.624,51.624,0,0,0-25.638,44.478,43.816,43.816,0,0,0,.208,4.515H201.928a43.814,43.814,0,0,0,.208-4.515A51.561,51.561,0,0,0,176.5,179.148l2.335-4.048a56.335,56.335,0,0,1,27.974,48.526,55.123,55.123,0,0,1-.467,7.11Z" transform="translate(-94.6 -175.1)" fill="#211d1d"/></g><g transform="translate(77.745 50.494)"><path d="M200.246,128.859H154.263l-.675-1.142a27.439,27.439,0,0,1,1.09-29.531l.675-.986H199.1l.675.986a27.439,27.439,0,0,1,1.09,29.531Zm-43.284-4.671H197.5a22.835,22.835,0,0,0-.882-22.317H157.844a22.44,22.44,0,0,0-3.373,11.937A23.01,23.01,0,0,0,156.962,124.188Z" transform="translate(-149.8 -97.2)" fill="#211d1d"/></g><g transform="translate(111.428 120.558)"><path d="M236.705,248.289H214.7V232.2h22.005Zm-17.334-4.671h12.663v-6.747H219.371Z" transform="translate(-214.7 -232.2)" fill="#211d1d"/></g><g transform="translate(89.993 61.756)"><circle cx="4.567" cy="4.567" r="4.567" fill="#211d1d"/></g><g transform="translate(111.376 61.756)"><circle cx="4.567" cy="4.567" r="4.567" fill="#211d1d"/></g><g transform="translate(75.877 128.602)"><rect width="4.671" height="17.646" fill="#211d1d"/></g><g transform="translate(135.509 128.602)"><rect width="4.671" height="17.646" fill="#211d1d"/></g><g transform="translate(142.048 59.525)"><path d="M284.7,175.685c-.363-.778-3.373-8.3,6.8-33.319,2.491-6.072,2.491-11.055.156-14.791-4.775-7.525-17.853-8.3-17.957-8.3l.259-4.671c.623.052,15.57.934,21.642,10.484,3.218,5.086,3.322,11.522.26,19.1-9.238,22.784-6.9,29.583-6.851,29.686a.181.181,0,0,0-.052-.1Z" transform="translate(-273.7 -114.6)" fill="#211d1d"/></g><g transform="translate(0 143.913)"><rect width="202.511" height="4.671" fill="#211d1d"/></g><g transform="translate(131.149 0.1)"><path d="M259.706,20.7a12.317,12.317,0,0,0,.052-1.609c0-2.387.415-3.789,1.557-5.138.83-.986,1.09-1.194,3.581-2.7,1.713-.986,2.284-1.765,2.284-2.906,0-1.661-1.194-2.595-3.322-2.595a3.691,3.691,0,0,0-3.373,1.661,4.711,4.711,0,0,0-.623,2.128L252.7,8.871c.363-2.491.882-3.841,2.232-5.294C256.956,1.294,260.07.1,264.066.1c6.384,0,10.38,3.01,10.38,7.837a6.533,6.533,0,0,1-2.18,5.138c-.83.778-1.194.986-4.2,2.906a3.608,3.608,0,0,0-1.972,3.425c0,.415.052.778.1,1.349h-6.487Zm6.8,2.335v6.591H259.5V23.039Z" transform="translate(-252.7 -0.1)" fill="#211d1d"/></g></g></svg>