<svg xmlns="http://www.w3.org/2000/svg" width="74.545" height="56.857" viewBox="0 0 74.545 56.857"><path d="M256.264,409.434c.558-1.775-.112-4.637.9-6.09,1.07-1.531,3.692-1.834,5.109-2.82,2.446-1.7,2.458-5.106,2.788-7.81,1.329-10.958-2.735-20.978-19.613-28.154-8.772-3.719-27.387-7.668-43.907,4.221-9.86,7.091-11.779,14.7-10.389,23.713.523,3.413,3.628,10.326,7.548,11.768,1.913.707,3.322.134,5.139,1.571a11.647,11.647,0,0,1,3.175,4.108c2.086,4.026,4.611,4.657,9.1,4.44,2.468-.119,3.577-.456,5.573,1.135a8.43,8.43,0,0,0,4.955,2.151c4.226.239,6.142-5.421,10.674-2.184,1.649,1.174,3.166,2.508,5.242,1.488s1.43-3.41,3.092-4.651C249.087,409.754,254.291,415.694,256.264,409.434Z" transform="translate(-190.755 -360.817)" fill="#804000"/></svg>