<svg xmlns="http://www.w3.org/2000/svg" width="93.35" height="92.536" viewBox="0 0 93.35 92.536"><g transform="translate(0.15)"><path d="M69.534,30.46c-.654-1.742-2.944-3.584-3.038-5.354-.1-1.865,1.779-3.718,2.288-5.367.879-2.847-1.208-5.536-2.613-7.869-5.7-9.45-15.072-14.84-32.785-10.1C24.187,4.242,7.093,12.594,1.4,32.131-2,43.788,1.173,50.962,7.819,57.206c2.513,2.367,9.216,5.9,13.191,4.622,1.942-.621,2.7-1.94,5.016-1.927a11.658,11.658,0,0,1,5.03,1.281c4.122,1.887,6.5.829,9.9-2.105,1.871-1.613,2.537-2.562,5.089-2.537a8.436,8.436,0,0,0,5.228-1.357c3.475-2.414,1.5-8.052,7.062-8.293,2.022-.09,4.038.026,5.046-2.056s-.974-3.566-.428-5.567C64.077,35.131,71.834,36.606,69.534,30.46Z" transform="matrix(0.788, 0.616, -0.616, 0.788, 38.086, 0.257)" fill="#804000"/></g></svg>