<svg xmlns="http://www.w3.org/2000/svg" width="74.597" height="56.784" viewBox="0 0 74.597 56.784"><path d="M256.289,208.411c.558-1.773-.113-4.633.9-6.083,1.069-1.531,3.694-1.832,5.112-2.816,2.447-1.7,2.462-5.1,2.79-7.8,1.33-10.94-2.737-20.951-19.624-28.113-8.775-3.716-27.4-7.659-43.941,4.21-9.867,7.078-11.787,14.681-10.4,23.685.522,3.408,3.633,10.31,7.552,11.753,1.914.707,3.323.134,5.143,1.571a11.647,11.647,0,0,1,3.177,4.1c2.087,4.021,4.615,4.652,9.1,4.433,2.47-.119,3.58-.455,5.577,1.133a8.447,8.447,0,0,0,4.959,2.149c4.228.238,6.146-5.414,10.683-2.186,1.65,1.173,3.169,2.505,5.246,1.487s1.431-3.4,3.094-4.645C249.106,208.732,254.314,214.664,256.289,208.411Z" transform="translate(-190.733 -159.857)" fill="#45322e"/></svg>