<svg xmlns="http://www.w3.org/2000/svg" width="77.807" height="58.022" viewBox="0 0 77.807 58.022"><path d="M440.479,209.86c.582-1.812-.117-4.732.944-6.214,1.116-1.562,3.853-1.871,5.332-2.876,2.553-1.737,2.566-5.21,2.91-7.969,1.388-11.181-2.854-21.409-20.474-28.726-9.152-3.8-28.583-7.827-45.827,4.3-10.292,7.235-12.292,15-10.842,24.2.545,3.482,3.79,10.533,7.879,12.009,2,.721,3.468.137,5.364,1.6a11.937,11.937,0,0,1,3.313,4.192c2.174,4.112,4.81,4.751,9.5,4.531,2.575-.121,3.733-.464,5.82,1.162a8.907,8.907,0,0,0,5.172,2.2c4.41.243,6.408-5.528,11.138-2.23,1.721,1.2,3.3,2.559,5.473,1.519s1.492-3.479,3.226-4.745C432.986,210.188,438.419,216.248,440.479,209.86Z" transform="translate(-372.102 -160.253)" fill="#e2d7cf"/></svg>