<svg xmlns="http://www.w3.org/2000/svg" width="97.012" height="95.203" viewBox="0 0 97.012 95.203"><g transform="translate(0 0.342)"><path d="M71.831,30.8c-.657-1.786-3.006-3.655-3.083-5.476-.083-1.918,1.883-3.847,2.429-5.549.942-2.94-1.187-5.684-2.615-8.069C62.771,2.045,53.132-3.4,34.747,1.686,25.2,4.331,7.413,13.121,1.3,33.294-2.353,45.33.853,52.678,7.659,59.029c2.573,2.408,9.471,5.963,13.6,4.608,2.017-.661,2.817-2.027,5.213-2.04a11.935,11.935,0,0,1,5.191,1.262c4.244,1.9,6.714.78,10.271-2.279,1.954-1.681,2.655-2.665,5.3-2.669a8.9,8.9,0,0,0,5.426-1.455c3.623-2.524,1.644-8.3,7.4-8.615,2.094-.115,4.179-.019,5.246-2.173s-.967-3.659-.38-5.724C66.131,35.672,74.142,37.1,71.831,30.8Z" transform="matrix(0.788, 0.616, -0.616, 0.788, 39.7, 0)" fill="#e2d7cf"/></g></svg>