<svg xmlns="http://www.w3.org/2000/svg" width="93.343" height="92.535" viewBox="0 0 93.343 92.535"><g transform="translate(0.142)"><path d="M69.715,30.615c-.652-1.741-2.941-3.58-3.033-5.349-.1-1.864,1.782-3.718,2.293-5.366.881-2.846-1.2-5.532-2.606-7.863C60.68,2.6,51.312-2.781,33.6,1.976c-9.2,2.476-26.3,10.84-32.019,30.373C-1.833,44,1.337,51.171,7.977,57.406c2.51,2.363,9.21,5.884,13.186,4.608,1.943-.622,2.7-1.941,5.018-1.93a11.647,11.647,0,0,1,5.029,1.276c4.12,1.882,6.5.822,9.9-2.114,1.872-1.614,2.54-2.563,5.091-2.541a8.45,8.45,0,0,0,5.229-1.361c3.477-2.416,1.508-8.049,7.069-8.3,2.022-.092,4.038.022,5.048-2.059s-.97-3.563-.423-5.564C64.255,35.29,72.01,36.756,69.715,30.615Z" transform="matrix(0.788, 0.616, -0.616, 0.788, 38.063, 0)" fill="#45322e"/></g></svg>