<svg xmlns="http://www.w3.org/2000/svg" width="84.223" height="62.93" viewBox="0 0 84.223 62.93"><path d="M436.855,411.659c.63-1.964-.127-5.132,1.022-6.74,1.208-1.7,4.172-2.03,5.773-3.12,2.763-1.883,2.778-5.651,3.15-8.643,1.5-12.128-3.092-23.218-22.162-31.158-9.91-4.12-30.941-8.489-49.609,4.665-11.139,7.85-13.3,16.271-11.734,26.248.59,3.777,4.1,11.425,8.527,13.024,2.161.783,3.755.15,5.807,1.74a12.938,12.938,0,0,1,3.586,4.547c2.357,4.456,5.208,5.152,10.282,4.915,2.787-.131,4.041-.5,6.3,1.257a9.628,9.628,0,0,0,5.6,2.38c4.773.264,6.94-6,12.059-2.418,1.863,1.3,3.92,1.13,6.268,0s1.271-2.128,3.151-3.5C428.746,412.014,434.625,418.588,436.855,411.659Z" transform="translate(-362.84 -357.852)" fill="#edeef4"/></svg>