<svg xmlns="http://www.w3.org/2000/svg" width="105.012" height="103.129" viewBox="0 0 105.012 103.129"><g transform="translate(0 0.304)"><path d="M77.845,33.458c-.713-1.936-3.26-3.965-3.345-5.939-.092-2.079,2.036-4.168,2.626-6.012,1.017-3.185-1.292-6.162-2.841-8.748C68,2.282,57.553-3.625,37.643,1.863,27.3,4.72,8.044,14.228,1.439,36.085c-3.94,13.042-.46,21.008,6.92,27.9,2.79,2.612,10.266,6.473,14.736,5.008,2.184-.714,3.05-2.194,5.645-2.205a12.941,12.941,0,0,1,5.625,1.373c4.6,2.059,7.274.852,11.125-2.459,2.115-1.82,2.873-2.886,5.734-2.887A9.63,9.63,0,0,0,57.1,61.242c3.922-2.731,1.772-9,8.01-9.33,2.268-.123,3.784-1.524,4.938-3.858s-.309-2.459.325-4.7C71.676,38.73,80.355,40.289,77.845,33.458Z" transform="matrix(0.788, 0.616, -0.616, 0.788, 42.973, 0)" fill="#edeef4"/><path d="M318.476,231.817c2.214.076,1.726-2.329-.013-2.381C316.9,229.387,315.879,231.729,318.476,231.817Z" transform="translate(-237.931 -157.605)" fill="#fff"/><path d="M287.9,224.682c1.028-2.026-1.419-2.613-2.225-1.014C284.968,225.1,286.692,227.061,287.9,224.682Z" transform="translate(-242.437 -164.099)" fill="#fff"/><path d="M278.078,218.185c-2.078.206-1.317,2.4.316,2.219C279.854,220.251,280.519,217.938,278.078,218.185Z" transform="translate(-244.057 -168.189)" fill="#fff"/><path d="M275.069,219.319c-.261,2.9,2.937,2.436,3.132.162C278.371,217.434,275.377,215.919,275.069,219.319Z" transform="translate(-242.757 -169.21)" fill="#fff"/><path d="M311.465,219.208c-.553,1.257.944,1.526,1.372.532C313.217,218.851,312.106,217.729,311.465,219.208Z" transform="translate(-240.875 -167.841)" fill="#fff"/><path d="M304.044,220.646c1.14,2.206,3.229.409,2.321-1.32C305.554,217.777,302.711,218.056,304.044,220.646Z" transform="translate(-239.221 -168.138)" fill="#fff"/><path d="M267.231,220.443c-.9.915.323,1.648,1.028.926C268.885,220.717,268.285,219.368,267.231,220.443Z" transform="translate(-245.738 -166.384)" fill="#fff"/><path d="M277.275,228.593c-.43,2.065,1.914,2,2.24.368C279.813,227.505,277.784,226.162,277.275,228.593Z" transform="translate(-243.895 -159.036)" fill="#fff"/><path d="M286.471,228.092c.3-2.665-2.652-2.3-2.879-.2C283.393,229.766,286.118,231.224,286.471,228.092Z" transform="translate(-242.844 -159.864)" fill="#fff"/><path d="M290,224.86c1.536,1.7,2.978-.4,1.758-1.729C290.661,221.939,288.188,222.862,290,224.86Z" transform="translate(-241.792 -164.214)" fill="#fff"/><path d="M301.431,218.6c-1.163,2.548,1.886,3.14,2.788,1.134C305.022,217.933,302.8,215.61,301.431,218.6Z" transform="translate(-239.785 -169.311)" fill="#fff"/><path d="M311.1,226.76c-.782,2.225,1.818,2.488,2.42.735C314.057,225.923,312.007,224.147,311.1,226.76Z" transform="translate(-239.534 -161.671)" fill="#fff"/><path d="M314.1,215.826c-.78-.952-1.609.136-.991.881C313.657,217.378,315.01,216.945,314.1,215.826Z" transform="translate(-239.916 -170.592)" fill="#fff"/><path d="M306.622,231.851c1.792.876,2.279-1.281.858-1.961C306.22,229.282,304.52,230.826,306.622,231.851Z" transform="translate(-238.792 -157.396)" fill="#fff"/><path d="M307.075,224.566c-1.539-.628-1.823,1.2-.608,1.685C307.552,226.687,308.882,225.307,307.075,224.566Z" transform="translate(-238.62 -162.387)" fill="#fff"/><path d="M321.016,228.547c1.7-.5.722-2.2-.608-1.794C319.216,227.11,319.023,229.137,321.016,228.547Z" transform="translate(-248.14 -159.117)" fill="#fff"/><path d="M303.817,218c.84,1.361,2.086.1,1.419-.96C304.639,216.087,302.831,216.405,303.817,218Z" transform="translate(-238.898 -169.694)" fill="#fff"/><path d="M297.421,224.279c-.13,2.655,2.767,2.11,2.861.021C300.362,222.432,297.577,221.162,297.421,224.279Z" transform="translate(-240.342 -164.52)" fill="#fff"/><path d="M285.429,224.553c-1.244,1.93,1.158,2.772,2.128,1.252C288.425,224.438,286.886,222.287,285.429,224.553Z" transform="translate(-242.535 -163.351)" fill="#fff"/><path d="M283.88,220.963c1.46,1.273,2.457-.631,1.3-1.627C284.148,218.452,282.169,219.471,283.88,220.963Z" transform="translate(-242.823 -167.436)" fill="#fff"/><path d="M271.539,229.926c2.006-1.221.175-3.07-1.4-2.1C268.731,228.689,269.182,231.36,271.539,229.926Z" transform="translate(-244.394 -158.827)" fill="#fff"/><path d="M293.934,233c2.762.141,2.209-2.879.039-2.973C292.03,229.934,290.693,232.831,293.934,233Z" transform="translate(-241.583 -157.425)" fill="#fff"/><path d="M270.938,228.623c1.677.363,1.635-1.533.318-1.815C270.075,226.563,268.98,228.2,270.938,228.623Z" transform="translate(-244.009 -159.043)" fill="#fff"/><path d="M281.966,206.442c-1.453.063-1.012,1.617.133,1.562C283.126,207.955,283.674,206.369,281.966,206.442Z" transform="translate(-243.134 -178.875)" fill="#fff"/><path d="M300.289,228.621c-.8,1.325.832,1.852,1.46.808C302.313,228.493,301.236,227.069,300.289,228.621Z" transform="translate(-239.524 -158.404)" fill="#fff"/><path d="M296.45,209.716c1.385,1.124,2.243-.662,1.145-1.544C296.612,207.385,294.815,208.389,296.45,209.716Z" transform="translate(-240.469 -178.078)" fill="#fff"/><path d="M273.172,227.518c1.166.48,1.385-.908.464-1.278C272.812,225.9,271.8,226.955,273.172,227.518Z" transform="translate(-242.339 -162.042)" fill="#fff"/><path d="M274.362,219.577c.177-1.674-1.677-1.437-1.81-.117C272.435,220.641,274.151,221.543,274.362,219.577Z" transform="translate(-242.322 -167.992)" fill="#fff"/><path d="M285.528,226.556c-1.573-.451-1.659,1.367-.415,1.711C286.227,228.577,287.377,227.086,285.528,226.556Z" transform="translate(-242.583 -159.204)" fill="#fff"/><path d="M276.974,225.765c1.072-1.307-.615-2.131-1.458-1.1C274.763,225.593,275.709,227.3,276.974,225.765Z" transform="translate(-240.707 -162.643)" fill="#fff"/><path d="M300.533,230.808c1.325.866,1.914-.785.868-1.46C300.471,228.748,298.982,229.791,300.533,230.808Z" transform="translate(-239.644 -157.623)" fill="#fff"/><path d="M318.476,231.817c2.214.076,1.726-2.329-.013-2.381C316.9,229.387,315.879,231.729,318.476,231.817Z" transform="translate(-236.702 -165.537)" fill="#fff"/><path d="M287.9,224.682c1.028-2.026-1.419-2.613-2.225-1.014C284.968,225.1,286.692,227.061,287.9,224.682Z" transform="translate(-241.206 -172.01)" fill="#fff"/><path d="M283.226,218.926c-.211,2.423,2.454,2.026,2.608.12C285.97,217.346,283.469,216.086,283.226,218.926Z" transform="translate(-241.621 -177.082)" fill="#fff"/><path d="M291.759,213.872c1.849-.05,1.322-2.032-.138-1.979C290.319,211.929,289.589,213.937,291.759,213.872Z" transform="translate(-240.302 -181.858)" fill="#fff"/><path d="M278.078,218.185c-2.078.206-1.317,2.4.316,2.219C279.854,220.251,280.519,217.938,278.078,218.185Z" transform="translate(-242.827 -176.125)" fill="#fff"/><path d="M275.069,219.319c-.261,2.9,2.937,2.436,3.132.162C278.371,217.434,275.377,215.919,275.069,219.319Z" transform="translate(-241.529 -177.09)" fill="#fff"/><path d="M267.231,220.443c-.9.915.323,1.648,1.028.926C268.885,220.717,268.285,219.368,267.231,220.443Z" transform="translate(-244.502 -174.339)" fill="#fff"/><path d="M277.275,228.593c-.43,2.065,1.914,2,2.24.368C279.813,227.505,277.784,226.162,277.275,228.593Z" transform="translate(-242.663 -166.952)" fill="#fff"/><path d="M286.471,228.092c.3-2.665-2.652-2.3-2.879-.2C283.393,229.766,286.118,231.224,286.471,228.092Z" transform="translate(-241.615 -167.754)" fill="#fff"/><path d="M290,224.86c1.536,1.7,2.978-.4,1.758-1.729C290.661,221.939,288.188,222.862,290,224.86Z" transform="translate(-240.563 -172.13)" fill="#fff"/><path d="M311.1,226.76c-.782,2.225,1.818,2.488,2.42.735C314.057,225.923,312.007,224.147,311.1,226.76Z" transform="translate(-238.303 -169.576)" fill="#fff"/><path d="M314.1,215.826c-.78-.952-1.609.136-.991.881C313.657,217.378,315.01,216.945,314.1,215.826Z" transform="translate(-238.681 -178.549)" fill="#fff"/><path d="M306.622,231.851c1.792.876,2.279-1.281.858-1.961C306.22,229.282,304.52,230.826,306.622,231.851Z" transform="translate(-237.562 -165.33)" fill="#fff"/><path d="M307.075,224.566c-1.539-.628-1.823,1.2-.608,1.685C307.552,226.687,308.882,225.307,307.075,224.566Z" transform="translate(-237.388 -170.333)" fill="#fff"/><path d="M321.016,228.547c1.7-.5.722-2.2-.608-1.794C319.216,227.11,319.023,229.137,321.016,228.547Z" transform="translate(-246.14 -167.062)" fill="#fff"/><path d="M297.421,224.279c-.13,2.655,2.767,2.11,2.861.021C300.362,222.432,297.577,221.162,297.421,224.279Z" transform="translate(-239.113 -172.411)" fill="#fff"/><path d="M285.429,224.553c-1.244,1.93,1.158,2.772,2.128,1.252C288.425,224.438,286.886,222.287,285.429,224.553Z" transform="translate(-241.305 -171.263)" fill="#fff"/><path d="M283.88,220.963c1.46,1.273,2.457-.631,1.3-1.627C284.148,218.452,282.169,219.471,283.88,220.963Z" transform="translate(-241.592 -175.368)" fill="#fff"/><path d="M271.539,229.926c2.006-1.221.175-3.07-1.4-2.1C268.731,228.689,269.182,231.36,271.539,229.926Z" transform="translate(-243.165 -166.746)" fill="#fff"/><path d="M293.934,233c2.762.141,2.209-2.879.039-2.973C292.03,229.934,290.693,232.831,293.934,233Z" transform="translate(-240.358 -165.338)" fill="#fff"/><path d="M270.938,228.623c1.677.363,1.635-1.533.318-1.815C270.075,226.563,268.98,228.2,270.938,228.623Z" transform="translate(-242.777 -166.99)" fill="#fff"/><path d="M300.289,228.621c-.8,1.325.832,1.852,1.46.808C302.313,228.493,301.236,227.069,300.289,228.621Z" transform="translate(-238.29 -166.346)" fill="#fff"/><path d="M296.45,209.716c1.385,1.124,2.243-.662,1.145-1.544C296.612,207.385,294.815,208.389,296.45,209.716Z" transform="translate(-239.236 -186.016)" fill="#fff"/><path d="M273.172,227.518c1.166.48,1.385-.908.464-1.278C272.812,225.9,271.8,226.955,273.172,227.518Z" transform="translate(-241.105 -170.003)" fill="#fff"/><path d="M274.362,219.577c.177-1.674-1.677-1.437-1.81-.117C272.435,220.641,274.151,221.543,274.362,219.577Z" transform="translate(-241.088 -175.925)" fill="#fff"/><path d="M285.528,226.556c-1.573-.451-1.659,1.367-.415,1.711C286.227,228.577,287.377,227.086,285.528,226.556Z" transform="translate(-241.351 -167.153)" fill="#fff"/><path d="M276.974,225.765c1.072-1.307-.615-2.131-1.458-1.1C274.763,225.593,275.709,227.3,276.974,225.765Z" transform="translate(-239.474 -170.581)" fill="#fff"/><path d="M300.533,230.808c1.325.866,1.914-.785.868-1.46C300.471,228.748,298.982,229.791,300.533,230.808Z" transform="translate(-238.411 -165.57)" fill="#fff"/><path d="M287.9,224.682c1.028-2.026-1.419-2.613-2.225-1.014C284.968,225.1,286.692,227.061,287.9,224.682Z" transform="translate(-226.439 -168.967)" fill="#fff"/><path d="M291.759,213.872c1.849-.05,1.322-2.032-.138-1.979C290.319,211.929,289.589,213.937,291.759,213.872Z" transform="translate(-225.53 -178.803)" fill="#fff"/><path d="M311.465,219.208c-.553,1.257.944,1.526,1.372.532C313.217,218.851,312.106,217.729,311.465,219.208Z" transform="translate(-235.275 -172.732)" fill="#fff"/><path d="M304.044,220.646c1.14,2.206,3.229.409,2.321-1.32C305.554,217.777,302.711,218.056,304.044,220.646Z" transform="translate(-223.238 -173.001)" fill="#fff"/><path d="M277.275,228.593c-.43,2.065,1.914,2,2.24.368C279.813,227.505,277.784,226.162,277.275,228.593Z" transform="translate(-227.878 -163.907)" fill="#fff"/><path d="M286.471,228.092c.3-2.665-2.652-2.3-2.879-.2C283.393,229.766,286.118,231.224,286.471,228.092Z" transform="translate(-226.862 -164.72)" fill="#fff"/><path d="M290,224.86c1.536,1.7,2.978-.4,1.758-1.729C290.661,221.939,288.188,222.862,290,224.86Z" transform="translate(-225.807 -169.085)" fill="#fff"/><path d="M301.431,218.6c-1.163,2.548,1.886,3.14,2.788,1.134C305.022,217.933,302.8,215.61,301.431,218.6Z" transform="translate(-223.822 -174.165)" fill="#fff"/><path d="M311.1,226.76c-.782,2.225,1.818,2.488,2.42.735C314.057,225.923,312.007,224.147,311.1,226.76Z" transform="translate(-232.878 -166.536)" fill="#fff"/><path d="M314.1,215.826c-.78-.952-1.609.136-.991.881C313.657,217.378,315.01,216.945,314.1,215.826Z" transform="translate(-232.792 -175.488)" fill="#fff"/><path d="M306.622,231.851c1.792.876,2.279-1.281.858-1.961C306.22,229.282,304.52,230.826,306.622,231.851Z" transform="translate(-222.796 -162.279)" fill="#fff"/><path d="M307.075,224.566c-1.539-.628-1.823,1.2-.608,1.685C307.552,226.687,308.882,225.307,307.075,224.566Z" transform="translate(-222.599 -167.277)" fill="#fff"/><path d="M303.817,218c.84,1.361,2.086.1,1.419-.96C304.639,216.087,302.831,216.405,303.817,218Z" transform="translate(-222.855 -174.581)" fill="#fff"/><path d="M297.421,224.279c-.13,2.655,2.767,2.11,2.861.021C300.362,222.432,297.577,221.162,297.421,224.279Z" transform="translate(-224.358 -169.376)" fill="#fff"/><path d="M285.429,224.553c-1.244,1.93,1.158,2.772,2.128,1.252C288.425,224.438,286.886,222.287,285.429,224.553Z" transform="translate(-226.542 -168.22)" fill="#fff"/><path d="M271.539,229.926c2.006-1.221.175-3.07-1.4-2.1C268.731,228.689,269.182,231.36,271.539,229.926Z" transform="translate(-228.422 -163.7)" fill="#fff"/><path d="M293.934,233c2.762.141,2.209-2.879.039-2.973C292.03,229.934,290.693,232.831,293.934,233Z" transform="translate(-225.657 -162.294)" fill="#fff"/><path d="M270.938,228.623c1.677.363,1.635-1.533.318-1.815C270.075,226.563,268.98,228.2,270.938,228.623Z" transform="translate(-227.994 -163.933)" fill="#fff"/><path d="M281.966,206.442c-1.453.063-1.012,1.617.133,1.562C283.126,207.955,283.674,206.369,281.966,206.442Z" transform="translate(-227.099 -183.771)" fill="#fff"/><path d="M300.289,228.621c-.8,1.325.832,1.852,1.46.808C302.313,228.493,301.236,227.069,300.289,228.621Z" transform="translate(-223.478 -163.292)" fill="#fff"/><path d="M296.45,209.716c1.385,1.124,2.243-.662,1.145-1.544C296.612,207.385,294.815,208.389,296.45,209.716Z" transform="translate(-224.45 -182.963)" fill="#fff"/><path d="M273.172,227.518c1.166.48,1.385-.908.464-1.278C272.812,225.9,271.8,226.955,273.172,227.518Z" transform="translate(-226.286 -166.941)" fill="#fff"/><path d="M285.528,226.556c-1.573-.451-1.659,1.367-.415,1.711C286.227,228.577,287.377,227.086,285.528,226.556Z" transform="translate(-226.562 -164.096)" fill="#fff"/><path d="M276.974,225.765c1.072-1.307-.615-2.131-1.458-1.1C274.763,225.593,275.709,227.3,276.974,225.765Z" transform="translate(-224.675 -167.528)" fill="#fff"/><path d="M300.533,230.808c1.325.866,1.914-.785.868-1.46C300.471,228.748,298.982,229.791,300.533,230.808Z" transform="translate(-223.612 -162.513)" fill="#fff"/><path d="M318.476,231.817c2.214.076,1.726-2.329-.013-2.381C316.9,229.387,315.879,231.729,318.476,231.817Z" transform="translate(-237.931 -157.605)" fill="#fff"/><path d="M287.9,224.682c1.028-2.026-1.419-2.613-2.225-1.014C284.968,225.1,286.692,227.061,287.9,224.682Z" transform="translate(-242.437 -164.099)" fill="#fff"/><path d="M278.078,218.185c-2.078.206-1.317,2.4.316,2.219C279.854,220.251,280.519,217.938,278.078,218.185Z" transform="translate(-244.057 -168.189)" fill="#fff"/><path d="M275.069,219.319c-.261,2.9,2.937,2.436,3.132.162C278.371,217.434,275.377,215.919,275.069,219.319Z" transform="translate(-242.757 -169.21)" fill="#fff"/><path d="M311.465,219.208c-.553,1.257.944,1.526,1.372.532C313.217,218.851,312.106,217.729,311.465,219.208Z" transform="translate(-240.875 -167.841)" fill="#fff"/><path d="M304.044,220.646c1.14,2.206,3.229.409,2.321-1.32C305.554,217.777,302.711,218.056,304.044,220.646Z" transform="translate(-239.221 -168.138)" fill="#fff"/><path d="M267.231,220.443c-.9.915.323,1.648,1.028.926C268.885,220.717,268.285,219.368,267.231,220.443Z" transform="translate(-245.738 -166.384)" fill="#fff"/><path d="M277.275,228.593c-.43,2.065,1.914,2,2.24.368C279.813,227.505,277.784,226.162,277.275,228.593Z" transform="translate(-243.895 -159.036)" fill="#fff"/><path d="M286.471,228.092c.3-2.665-2.652-2.3-2.879-.2C283.393,229.766,286.118,231.224,286.471,228.092Z" transform="translate(-242.844 -159.864)" fill="#fff"/><path d="M290,224.86c1.536,1.7,2.978-.4,1.758-1.729C290.661,221.939,288.188,222.862,290,224.86Z" transform="translate(-241.792 -164.214)" fill="#fff"/><path d="M301.431,218.6c-1.163,2.548,1.886,3.14,2.788,1.134C305.022,217.933,302.8,215.61,301.431,218.6Z" transform="translate(-239.785 -169.311)" fill="#fff"/><path d="M311.1,226.76c-.782,2.225,1.818,2.488,2.42.735C314.057,225.923,312.007,224.147,311.1,226.76Z" transform="translate(-239.534 -161.671)" fill="#fff"/><path d="M314.1,215.826c-.78-.952-1.609.136-.991.881C313.657,217.378,315.01,216.945,314.1,215.826Z" transform="translate(-239.916 -170.592)" fill="#fff"/><path d="M306.622,231.851c1.792.876,2.279-1.281.858-1.961C306.22,229.282,304.52,230.826,306.622,231.851Z" transform="translate(-238.792 -157.396)" fill="#fff"/><path d="M307.075,224.566c-1.539-.628-1.823,1.2-.608,1.685C307.552,226.687,308.882,225.307,307.075,224.566Z" transform="translate(-238.62 -162.387)" fill="#fff"/><path d="M321.016,228.547c1.7-.5.722-2.2-.608-1.794C319.216,227.11,319.023,229.137,321.016,228.547Z" transform="translate(-248.14 -159.117)" fill="#fff"/><path d="M303.817,218c.84,1.361,2.086.1,1.419-.96C304.639,216.087,302.831,216.405,303.817,218Z" transform="translate(-238.898 -169.694)" fill="#fff"/><path d="M297.421,224.279c-.13,2.655,2.767,2.11,2.861.021C300.362,222.432,297.577,221.162,297.421,224.279Z" transform="translate(-240.342 -164.52)" fill="#fff"/><path d="M285.429,224.553c-1.244,1.93,1.158,2.772,2.128,1.252C288.425,224.438,286.886,222.287,285.429,224.553Z" transform="translate(-242.535 -163.351)" fill="#fff"/><path d="M283.88,220.963c1.46,1.273,2.457-.631,1.3-1.627C284.148,218.452,282.169,219.471,283.88,220.963Z" transform="translate(-242.823 -167.436)" fill="#fff"/><path d="M271.539,229.926c2.006-1.221.175-3.07-1.4-2.1C268.731,228.689,269.182,231.36,271.539,229.926Z" transform="translate(-244.394 -158.827)" fill="#fff"/><path d="M293.934,233c2.762.141,2.209-2.879.039-2.973C292.03,229.934,290.693,232.831,293.934,233Z" transform="translate(-241.583 -157.425)" fill="#fff"/><path d="M270.938,228.623c1.677.363,1.635-1.533.318-1.815C270.075,226.563,268.98,228.2,270.938,228.623Z" transform="translate(-244.009 -159.043)" fill="#fff"/><path d="M281.966,206.442c-1.453.063-1.012,1.617.133,1.562C283.126,207.955,283.674,206.369,281.966,206.442Z" transform="translate(-243.134 -178.875)" fill="#fff"/><path d="M300.289,228.621c-.8,1.325.832,1.852,1.46.808C302.313,228.493,301.236,227.069,300.289,228.621Z" transform="translate(-239.524 -158.404)" fill="#fff"/><path d="M296.45,209.716c1.385,1.124,2.243-.662,1.145-1.544C296.612,207.385,294.815,208.389,296.45,209.716Z" transform="translate(-240.469 -178.078)" fill="#fff"/><path d="M273.172,227.518c1.166.48,1.385-.908.464-1.278C272.812,225.9,271.8,226.955,273.172,227.518Z" transform="translate(-242.339 -162.042)" fill="#fff"/><path d="M274.362,219.577c.177-1.674-1.677-1.437-1.81-.117C272.435,220.641,274.151,221.543,274.362,219.577Z" transform="translate(-242.322 -167.992)" fill="#fff"/><path d="M285.528,226.556c-1.573-.451-1.659,1.367-.415,1.711C286.227,228.577,287.377,227.086,285.528,226.556Z" transform="translate(-242.583 -159.204)" fill="#fff"/><path d="M276.974,225.765c1.072-1.307-.615-2.131-1.458-1.1C274.763,225.593,275.709,227.3,276.974,225.765Z" transform="translate(-240.707 -162.643)" fill="#fff"/><path d="M300.533,230.808c1.325.866,1.914-.785.868-1.46C300.471,228.748,298.982,229.791,300.533,230.808Z" transform="translate(-239.644 -157.623)" fill="#fff"/><path d="M318.476,231.817c2.214.076,1.726-2.329-.013-2.381C316.9,229.387,315.879,231.729,318.476,231.817Z" transform="translate(-241.616 -183.23)" fill="#fff"/><path d="M287.9,224.682c1.028-2.026-1.419-2.613-2.225-1.014C284.968,225.1,286.692,227.061,287.9,224.682Z" transform="translate(-246.129 -189.658)" fill="#fff"/><path d="M283.226,218.926c-.211,2.423,2.454,2.026,2.608.12C285.97,217.346,283.469,216.086,283.226,218.926Z" transform="translate(-246.544 -194.707)" fill="#fff"/><path d="M278.078,218.185c-2.078.206-1.317,2.4.316,2.219C279.854,220.251,280.519,217.938,278.078,218.185Z" transform="translate(-247.745 -193.828)" fill="#fff"/><path d="M311.465,219.208c-.553,1.257.944,1.526,1.372.532C313.217,218.851,312.106,217.729,311.465,219.208Z" transform="translate(-244.582 -193.518)" fill="#fff"/><path d="M304.044,220.646c1.14,2.206,3.229.409,2.321-1.32C305.554,217.777,302.711,218.056,304.044,220.646Z" transform="translate(-242.909 -193.671)" fill="#fff"/><path d="M277.275,228.593c-.43,2.065,1.914,2,2.24.368C279.813,227.505,277.784,226.162,277.275,228.593Z" transform="translate(-247.591 -184.609)" fill="#fff"/><path d="M290,224.86c1.536,1.7,2.978-.4,1.758-1.729C290.661,221.939,288.188,222.862,290,224.86Z" transform="translate(-245.481 -189.788)" fill="#fff"/><path d="M301.431,218.6c-1.163,2.548,1.886,3.14,2.788,1.134C305.022,217.933,302.8,215.61,301.431,218.6Z" transform="translate(-243.469 -194.796)" fill="#fff"/><path d="M311.1,226.76c-.782,2.225,1.818,2.488,2.42.735C314.057,225.923,312.007,224.147,311.1,226.76Z" transform="translate(-243.225 -187.212)" fill="#fff"/><path d="M306.622,231.851c1.792.876,2.279-1.281.858-1.961C306.22,229.282,304.52,230.826,306.622,231.851Z" transform="translate(-242.484 -183.029)" fill="#fff"/><path d="M307.075,224.566c-1.539-.628-1.823,1.2-.608,1.685C307.552,226.687,308.882,225.307,307.075,224.566Z" transform="translate(-242.317 -188.06)" fill="#fff"/><path d="M321.016,228.547c1.7-.5.722-2.2-.608-1.794C319.216,227.11,319.023,229.137,321.016,228.547Z" transform="translate(-239.838 -184.784)" fill="#fff"/><path d="M303.817,218c.84,1.361,2.086.1,1.419-.96C304.639,216.087,302.831,216.405,303.817,218Z" transform="translate(-242.6 -195.349)" fill="#fff"/><path d="M297.421,224.279c-.13,2.655,2.767,2.11,2.861.021C300.362,222.432,297.577,221.162,297.421,224.279Z" transform="translate(-244.031 -190.015)" fill="#fff"/><path d="M285.429,224.553c-1.244,1.93,1.158,2.772,2.128,1.252C288.425,224.438,286.886,222.287,285.429,224.553Z" transform="translate(-246.226 -188.912)" fill="#fff"/><path d="M283.88,220.963c1.46,1.273,2.457-.631,1.3-1.627C284.148,218.452,282.169,219.471,283.88,220.963Z" transform="translate(-246.518 -193.062)" fill="#fff"/><path d="M271.539,229.926c2.006-1.221.175-3.07-1.4-2.1C268.731,228.689,269.182,231.36,271.539,229.926Z" transform="translate(-248.08 -184.411)" fill="#fff"/><path d="M270.938,228.623c1.677.363,1.635-1.533.318-1.815C270.075,226.563,268.98,228.2,270.938,228.623Z" transform="translate(-247.705 -184.717)" fill="#fff"/><path d="M273.172,227.518c1.166.48,1.385-.908.464-1.278C272.812,225.9,271.8,226.955,273.172,227.518Z" transform="translate(-246.044 -187.761)" fill="#fff"/><path d="M276.974,225.765c1.072-1.307-.615-2.131-1.458-1.1C274.763,225.593,275.709,227.3,276.974,225.765Z" transform="translate(-244.407 -188.289)" fill="#fff"/><path d="M318.476,231.817c2.214.076,1.726-2.329-.013-2.381C316.9,229.387,315.879,231.729,318.476,231.817Z" transform="translate(-241.616 -173.468)" fill="#fff"/><path d="M283.226,218.926c-.211,2.423,2.454,2.026,2.608.12C285.97,217.346,283.469,216.086,283.226,218.926Z" transform="translate(-246.544 -184.983)" fill="#fff"/><path d="M291.759,213.872c1.849-.05,1.322-2.032-.138-1.979C290.319,211.929,289.589,213.937,291.759,213.872Z" transform="translate(-245.226 -189.802)" fill="#fff"/><path d="M278.078,218.185c-2.078.206-1.317,2.4.316,2.219C279.854,220.251,280.519,217.938,278.078,218.185Z" transform="translate(-247.745 -184.061)" fill="#fff"/><path d="M275.069,219.319c-.261,2.9,2.937,2.436,3.132.162C278.371,217.434,275.377,215.919,275.069,219.319Z" transform="translate(-246.442 -184.97)" fill="#fff"/><path d="M311.465,219.208c-.553,1.257.944,1.526,1.372.532C313.217,218.851,312.106,217.729,311.465,219.208Z" transform="translate(-244.582 -183.737)" fill="#fff"/><path d="M304.044,220.646c1.14,2.206,3.229.409,2.321-1.32C305.554,217.777,302.711,218.056,304.044,220.646Z" transform="translate(-242.909 -183.944)" fill="#fff"/><path d="M267.231,220.443c-.9.915.323,1.648,1.028.926C268.885,220.717,268.285,219.368,267.231,220.443Z" transform="translate(-238.632 -182.294)" fill="#fff"/><path d="M277.275,228.593c-.43,2.065,1.914,2,2.24.368C279.813,227.505,277.784,226.162,277.275,228.593Z" transform="translate(-247.591 -174.867)" fill="#fff"/><path d="M286.471,228.092c.3-2.665-2.652-2.3-2.879-.2C283.393,229.766,286.118,231.224,286.471,228.092Z" transform="translate(-246.532 -175.644)" fill="#fff"/><path d="M301.431,218.6c-1.163,2.548,1.886,3.14,2.788,1.134C305.022,217.933,302.8,215.61,301.431,218.6Z" transform="translate(-243.469 -185.088)" fill="#fff"/><path d="M311.1,226.76c-.782,2.225,1.818,2.488,2.42.735C314.057,225.923,312.007,224.147,311.1,226.76Z" transform="translate(-243.225 -177.482)" fill="#fff"/><path d="M314.1,215.826c-.78-.952-1.609.136-.991.881C313.657,217.378,315.01,216.945,314.1,215.826Z" transform="translate(-243.624 -186.505)" fill="#fff"/><path d="M306.622,231.851c1.792.876,2.279-1.281.858-1.961C306.22,229.282,304.52,230.826,306.622,231.851Z" transform="translate(-242.484 -173.264)" fill="#fff"/><path d="M307.075,224.566c-1.539-.628-1.823,1.2-.608,1.685C307.552,226.687,308.882,225.307,307.075,224.566Z" transform="translate(-242.317 -178.28)" fill="#fff"/><path d="M321.016,228.547c1.7-.5.722-2.2-.608-1.794C319.216,227.11,319.023,229.137,321.016,228.547Z" transform="translate(-239.838 -175.006)" fill="#fff"/><path d="M303.817,218c.84,1.361,2.086.1,1.419-.96C304.639,216.087,302.831,216.405,303.817,218Z" transform="translate(-242.6 -185.576)" fill="#fff"/><path d="M283.88,220.963c1.46,1.273,2.457-.631,1.3-1.627C284.148,218.452,282.169,219.471,283.88,220.963Z" transform="translate(-246.518 -183.3)" fill="#fff"/><path d="M271.539,229.926c2.006-1.221.175-3.07-1.4-2.1C268.731,228.689,269.182,231.36,271.539,229.926Z" transform="translate(-248.08 -174.665)" fill="#fff"/><path d="M293.934,233c2.762.141,2.209-2.879.039-2.973C292.03,229.934,290.693,232.831,293.934,233Z" transform="translate(-245.258 -173.251)" fill="#fff"/><path d="M270.938,228.623c1.677.363,1.635-1.533.318-1.815C270.075,226.563,268.98,228.2,270.938,228.623Z" transform="translate(-247.705 -174.936)" fill="#fff"/><path d="M300.289,228.621c-.8,1.325.832,1.852,1.46.808C302.313,228.493,301.236,227.069,300.289,228.621Z" transform="translate(-243.227 -174.288)" fill="#fff"/><path d="M273.172,227.518c1.166.48,1.385-.908.464-1.278C272.812,225.9,271.8,226.955,273.172,227.518Z" transform="translate(-246.044 -177.963)" fill="#fff"/><path d="M274.362,219.577c.177-1.674-1.677-1.437-1.81-.117C272.435,220.641,274.151,221.543,274.362,219.577Z" transform="translate(-246.025 -183.858)" fill="#fff"/><path d="M285.528,226.556c-1.573-.451-1.659,1.367-.415,1.711C286.227,228.577,287.377,227.086,285.528,226.556Z" transform="translate(-246.281 -175.102)" fill="#fff"/><path d="M276.974,225.765c1.072-1.307-.615-2.131-1.458-1.1C274.763,225.593,275.709,227.3,276.974,225.765Z" transform="translate(-244.407 -178.519)" fill="#fff"/><path d="M300.533,230.808c1.325.866,1.914-.785.868-1.46C300.471,228.748,298.982,229.791,300.533,230.808Z" transform="translate(-243.344 -173.517)" fill="#fff"/></g></svg>