<svg xmlns="http://www.w3.org/2000/svg" width="75.705" height="79.836" viewBox="0 0 75.705 79.836"><g transform="translate(-647 -257)"><path d="M41.878.674c-3.536-2.533-23.22,2.252-31.34,11.417-2.771,3.132-3.973,7.119-5.968,10.322C-5.456,38.5,2.481,48.128,14.245,51.591c6.66,1.958,18.928-.126,28.28-8.38C68.942,19.91,41.878.674,41.878.674Zm-10.1,15.594c.106.011.2.042.3.059C34.619,16.153,30.865,16.186,31.781,16.268Z" transform="matrix(0.788, 0.616, -0.616, 0.788, 680.073, 262.335)" fill="#bf8320"/><path d="M33.184,0C32.429.071,29.665,15.789,0,28.3a2.425,2.425,0,0,0,.129.319c1.094.967,2.266,1.41,3.383,2.269,6.184.7,19.608-7.131,32.83-24.774C35.9,4.036,33.94-.069,33.184,0Z" transform="matrix(0.788, 0.616, -0.616, 0.788, 679.412, 283.282)" fill="#b9640f"/><g transform="translate(647 257)"><path d="M56,24.322c-.518-1.4-2.353-2.863-2.421-4.284-.073-1.5,1.449-2.992,1.866-4.318.72-2.289-.947-4.438-2.068-6.3C48.829,1.858,41.31-2.426,27.032,1.46c-7.416,2.023-21.212,8.8-25.885,24.509C-1.64,35.341.884,41.085,6.2,46.066c2.012,1.888,7.391,4.69,10.6,3.651,1.566-.507,2.182-1.569,4.046-1.569a9.331,9.331,0,0,1,4.043,1.006c3.309,1.5,5.225.636,7.979-1.734,1.513-1.3,2.054-2.068,4.107-2.059a6.859,6.859,0,0,0,4.214-1.112C44,42.295,42.433,37.779,46.91,37.56c1.628-.081,3.25,0,4.071-1.673s-.768-2.858-.319-4.466C51.583,28.1,57.82,29.245,56,24.322Z" transform="matrix(0.788, 0.616, -0.616, 0.788, 30.747, 0)" fill="#45322e"/></g><g transform="translate(657.669 272.115)"><path d="M3.214,0A1.942,1.942,0,0,0,2.155.5L0,2.135c.311.361.628.726.939,1.087A8.322,8.322,0,0,1,4.642,1C4.278.516,3.819-.011,3.214,0Z" transform="matrix(0.788, 0.616, -0.616, 0.788, 43.703, 7.934)" fill="#cc3131"/><path d="M3.216,0A1.907,1.907,0,0,0,2.154.5Q1.079,1.314,0,2.13L.941,3.22A8.354,8.354,0,0,1,4.645.995C4.281.513,3.821-.016,3.216,0Z" transform="matrix(0.788, 0.616, -0.616, 0.788, 51.073, 23.452)" fill="#cc3131"/><path d="M5.839.3Q4.4.146,2.961,0A44.257,44.257,0,0,1,0,4.595a6.1,6.1,0,0,1,3.454.86A22.569,22.569,0,0,1,5.839.3Z" transform="matrix(0.788, 0.616, -0.616, 0.788, 46.778, 25.373)" fill="#ead4af"/><path d="M5.839.3,2.964,0A45.086,45.086,0,0,1,0,4.6a6.075,6.075,0,0,1,3.454.857A22.743,22.743,0,0,1,5.839.3Z" transform="matrix(0.788, 0.616, -0.616, 0.788, 3.358, 12.942)" fill="#ead4af"/><path d="M3.844.089a2.377,2.377,0,0,0-1.283,0C1.743.243.925.4.106.554.07,1.462.034,2.373,0,3.28A13.185,13.185,0,0,1,5,1.734C4.78,1.075,4.491.336,3.844.089Z" transform="matrix(0.788, 0.616, -0.616, 0.788, 40.055, 19.765)" fill="#fc0"/><path d="M0,1.726c.213.72.42,1.44.63,2.157Q3.022,2.8,5.416,1.709A3.063,3.063,0,0,1,4.757,0,22.421,22.421,0,0,1,0,1.726Z" transform="matrix(0.788, 0.616, -0.616, 0.788, 12.791, 9.51)" fill="#5cb45f"/><path d="M3.68,0Q1.844,1.286,0,2.575A5.8,5.8,0,0,0,.36,4.715,17.549,17.549,0,0,1,4.644,1.723,3.523,3.523,0,0,1,3.68,0Z" transform="matrix(0.788, 0.616, -0.616, 0.788, 21.175, 2.767)" fill="#cc3131"/><path d="M2.648,4.522C3.256,4.1,3.861,3.67,4.466,3.244a2.722,2.722,0,0,1-1.605-1.5A4.03,4.03,0,0,0,1.451,0L0,.656Z" transform="matrix(0.788, 0.616, -0.616, 0.788, 13.074, 14.318)" fill="#fc0"/><path d="M3.863.4Q3.12.2,2.381,0,1.188,1.437,0,2.869c.787.171,1.577.342,2.365.51Z" transform="matrix(0.788, 0.616, -0.616, 0.788, 36.425, 10.027)" fill="#ead4af"/><path d="M3.861.4C3.37.266,2.875.132,2.381,0Q1.192,1.437,0,2.869q1.185.256,2.365.51C2.863,2.387,3.362,1.39,3.861.4Z" transform="matrix(0.788, 0.616, -0.616, 0.788, 11.718, 29.833)" fill="#ead4af"/><path d="M1.932.656A1.092,1.092,0,0,0,1.007,0,.952.952,0,0,0,.08.62a1.459,1.459,0,0,0-.064.4A7.828,7.828,0,0,0,.724,4.794a3.4,3.4,0,0,1,1.93-.706,3.592,3.592,0,0,1-.63-2.037A3.421,3.421,0,0,0,1.932.656Z" transform="matrix(0.788, 0.616, -0.616, 0.788, 45.326, 14.919)" fill="#5cb45f"/><path d="M1.932.659A1.1,1.1,0,0,0,1.008,0,.955.955,0,0,0,.078.62a1.591,1.591,0,0,0-.062.4A7.843,7.843,0,0,0,.722,4.8a3.419,3.419,0,0,1,1.933-.706,3.6,3.6,0,0,1-.63-2.037A3.422,3.422,0,0,0,1.932.659Z" transform="matrix(0.788, 0.616, -0.616, 0.788, 24.991, 34.411)" fill="#5cb45f"/><path d="M0,4.071q1.017-.059,2.04-.115L1.863,0q-.7.441-1.4.885Z" transform="matrix(0.788, 0.616, -0.616, 0.788, 15.164, 24.612)" fill="#cc3131"/><path d="M.145,5.312a.475.475,0,0,0,.381,0l2.446-.72A11.511,11.511,0,0,1,2.482,0,5.9,5.9,0,0,1,.314,1.135Q.162,2.984.005,4.83C-.009,5.009-.006,5.222.145,5.312Z" transform="matrix(0.788, 0.616, -0.616, 0.788, 6.949, 17.247)" fill="#fc0"/><path d="M.146,5.315a.5.5,0,0,0,.381,0q1.223-.361,2.443-.717A11.6,11.6,0,0,1,2.482,0,5.887,5.887,0,0,1,.316,1.135C.213,2.37.109,3.6.005,4.833-.009,5.009-.006,5.222.146,5.315Z" transform="matrix(0.788, 0.616, -0.616, 0.788, 44.565, 31.782)" fill="#fc0"/><path d="M2.583,4.032A9.319,9.319,0,0,1,2.611,0C1.942.137,1.275.275.605.409Q.3,2.351,0,4.289C.863,4.2,1.723,4.119,2.583,4.032Z" transform="matrix(0.788, 0.616, -0.616, 0.788, 38.17, 32.282)" fill="#5cb45f"/><path d="M0,4.682l2.269-.367A25.386,25.386,0,0,1,2.236.084a.87.87,0,0,0-.869.07Q.682,2.42,0,4.682Z" transform="matrix(0.788, 0.616, -0.616, 0.788, 18.598, 32.858)" fill="#6bc3c3"/><path d="M.275.51Q.14,2.372,0,4.231L2.026,3.97Q1.95,1.982,1.871,0C1.339.168.807.342.275.51Z" transform="matrix(0.788, 0.616, -0.616, 0.788, 5.933, 8.923)" fill="#cc3131"/><path d="M2.748.041a2.528,2.528,0,0,0-1.1.765C1.1,1.361.549,1.91,0,2.462c.558.437,1.118.88,1.675,1.32A8.206,8.206,0,0,1,4.57.537,2.54,2.54,0,0,0,2.748.041Z" transform="matrix(0.788, 0.616, -0.616, 0.788, 12.226, 4.117)" fill="#6bc3c3"/><path d="M3.648,2.555a1.952,1.952,0,0,0,.7.011.979.979,0,0,0,.709-.681.978.978,0,0,0-.261-.95A17.7,17.7,0,0,1,1.221,0L0,2.059Z" transform="matrix(0.788, 0.616, -0.616, 0.788, 49.904, 17.458)" fill="#6bc3c3"/><path d="M3.651,2.558a1.948,1.948,0,0,0,.7.008.989.989,0,0,0,.709-.681A.991.991,0,0,0,4.8.936,17.519,17.519,0,0,1,1.224,0L0,2.059Q1.824,2.307,3.651,2.558Z" transform="matrix(0.788, 0.616, -0.616, 0.788, 32.946, 28.542)" fill="#6bc3c3"/><path d="M3.648,2.561a2.015,2.015,0,0,0,.7.006.979.979,0,0,0,.709-.681.978.978,0,0,0-.261-.95A17.155,17.155,0,0,1,1.222,0L0,2.062Q1.824,2.31,3.648,2.561Z" transform="matrix(0.788, 0.616, -0.616, 0.788, 37.369, 6.694)" fill="#6bc3c3"/><path d="M3.648,2.558a2.085,2.085,0,0,0,.7.011A.967.967,0,0,0,4.794.933,17.259,17.259,0,0,1,1.224,0C.815.686.409,1.373,0,2.062,1.216,2.225,2.432,2.393,3.648,2.558Z" transform="matrix(0.788, 0.616, -0.616, 0.788, 20.6, 7.807)" fill="#6bc3c3"/><path d="M2.908,0A8.56,8.56,0,0,1,0,1.832C.193,2.4.389,2.953.58,3.513A14.863,14.863,0,0,1,4.309,1.177,2.812,2.812,0,0,1,2.908,0Z" transform="matrix(0.788, 0.616, -0.616, 0.788, 38.041, 2.967)" fill="#5cb45f"/><path d="M4.679,1.017A4.456,4.456,0,0,1,1.171,0Q.587.95,0,1.894A15.867,15.867,0,0,1,4.329,3.152C4.446,2.443,4.564,1.729,4.679,1.017Z" transform="matrix(0.788, 0.616, -0.616, 0.788, 17.393, 21.905)" fill="#ead4af"/><path d="M4.679,1.014A4.437,4.437,0,0,1,1.171,0Q.583.945,0,1.894A15.775,15.775,0,0,1,4.326,3.152Z" transform="matrix(0.788, 0.616, -0.616, 0.788, 24.897, 0)" fill="#ead4af"/><path d="M4.679,1.014A4.455,4.455,0,0,1,1.171,0C.782.628.389,1.261,0,1.894A15.715,15.715,0,0,1,4.326,3.152Q4.5,2.08,4.679,1.014Z" transform="matrix(0.788, 0.616, -0.616, 0.788, 32.297, 35.999)" fill="#ead4af"/><path d="M.85,3.76a.953.953,0,0,0,.916.176.958.958,0,0,0,.614-.7L1.464,0A7.765,7.765,0,0,0,.024.972,3.84,3.84,0,0,0,.567,3.4,1.453,1.453,0,0,0,.85,3.76Z" transform="matrix(0.788, 0.616, -0.616, 0.788, 35.896, 25.037)" fill="#cc3131"/><path d="M2,.062c-.16-.129-.4-.034-.58.067L.112.866Q.057,2.778,0,4.691c.619-.143,1.244-.283,1.866-.426q.122-1.874.249-3.749A.542.542,0,0,0,2,.062Z" transform="matrix(0.788, 0.616, -0.616, 0.788, 24.935, 25.18)" fill="#5cb45f"/><path d="M0,2.925a12.589,12.589,0,0,1,4.48-.4C4.463,1.684,4.443.843,4.427,0a22.183,22.183,0,0,1-3.9.883C.35,1.566.177,2.244,0,2.925Z" transform="matrix(0.788, 0.616, -0.616, 0.788, 5.365, 25.158)" fill="#5cb45f"/><path d="M3.651,2.558a1.948,1.948,0,0,0,.7.008.989.989,0,0,0,.709-.681A.991.991,0,0,0,4.8.936,17.519,17.519,0,0,1,1.224,0L0,2.059Q1.824,2.307,3.651,2.558Z" transform="matrix(0.788, 0.616, -0.616, 0.788, 23.61, 17.428)" fill="#6bc3c3"/><path d="M.85,3.76a.953.953,0,0,0,.916.176.958.958,0,0,0,.614-.7L1.464,0A7.765,7.765,0,0,0,.024.972,3.84,3.84,0,0,0,.567,3.4,1.453,1.453,0,0,0,.85,3.76Z" transform="matrix(0.788, 0.616, -0.616, 0.788, 34.118, 17.924)" fill="#cc3131"/><path d="M3.863.4Q3.12.2,2.381,0,1.188,1.437,0,2.869c.787.171,1.577.342,2.365.51Z" transform="matrix(0.788, 0.616, -0.616, 0.788, 28.423, 13.139)" fill="#ead4af"/><path d="M.145,5.312a.475.475,0,0,0,.381,0l2.446-.72A11.511,11.511,0,0,1,2.482,0,5.9,5.9,0,0,1,.314,1.135Q.162,2.984.005,4.83C-.009,5.009-.006,5.222.145,5.312Z" transform="matrix(0.788, 0.616, -0.616, 0.788, 30.955, 7.023)" fill="#fc0"/></g></g></svg>