<svg xmlns="http://www.w3.org/2000/svg" viewBox="0 0 32 20.22"><title>EmptyBagel</title><g id="Capa_2" data-name="Capa 2"><g id="Capa_1-2" data-name="Capa 1"><g id="Rosquilla"><path id="Trazado_1849" data-name="Trazado 1849" d="M32,10.11c0,5.59-4.92,10.11-16,10.11S0,15.7,0,10.11,4.79,0,16,0,32,4.53,32,10.11Z" fill="#ff980a"/><path id="Trazado_1850" data-name="Trazado 1850" d="M15.32,16C7,16,2,13.53,0,10c1.19,4.5,6.16,7.87,15.71,7.87,11.08,0,16.09-4,16.09-9.57a3,3,0,0,0-.11-.54C31.16,12.91,26,16,15.32,16Z" fill="#e86500"/><path id="Trazado_1851" data-name="Trazado 1851" d="M22.55,4.68c0,1.52-3.36,2.76-7.51,2.76S7.54,6.2,7.54,4.68,10.9,1.92,15,1.92,22.55,3.16,22.55,4.68Z" fill="#d06400"/><path id="Trazado_1852" data-name="Trazado 1852" d="M22.55,4.65c0,1.24-2.92,2.24-6.52,2.24s-6.51-1-6.51-2.24S12.44,2.42,16,2.42,22.55,3.42,22.55,4.65Z" fill="#e86500"/><path id="Trazado_1853" data-name="Trazado 1853" d="M17.33,5.51c-.64.14-.5-.6-2.42-.6A7.32,7.32,0,0,0,11.34,6.2a14.67,14.67,0,0,0,4.7.69,13,13,0,0,0,5.41-1c-.1-.26-.31-.17-.89-.27-.83-.13-.86-.37-1.59-.72S18,5.37,17.33,5.51Z" fill="#ff980a"/></g></g></g></svg>