<svg xmlns="http://www.w3.org/2000/svg" width="61.471" height="39.995" viewBox="0 0 61.471 39.995"><g transform="translate(0)"><path d="M181.566,761.814c0,11.044-9.447,20-30.733,20s-30.732-8.953-30.732-20,9.2-20,30.732-20S181.566,750.769,181.566,761.814Z" transform="translate(-120.095 -741.816)" fill="#ff980a"/><path d="M149.515,808.533c-16.09,0-25.568-4.88-29.433-11.875,2.287,8.91,11.831,15.565,30.178,15.565,21.286,0,30.911-7.881,30.911-18.926a6.522,6.522,0,0,0-.209-1.066C179.941,802.424,170.107,808.533,149.515,808.533Z" transform="translate(-120.082 -776.887)" fill="#e86500"/></g></svg>