<svg xmlns="http://www.w3.org/2000/svg" xmlns:xlink="http://www.w3.org/1999/xlink" width="378.794" height="518.862" viewBox="0 0 378.794 518.862"><defs><filter id="a" x="301.931" y="29" width="18.862" height="18.862" filterUnits="userSpaceOnUse"><feOffset input="SourceAlpha"/><feGaussianBlur stdDeviation="1.5" result="b"/><feFlood flood-color="#fff"/><feComposite operator="in" in2="b"/><feComposite in="SourceGraphic"/></filter><filter id="c" x="359.931" y="186" width="18.862" height="18.862" filterUnits="userSpaceOnUse"><feOffset input="SourceAlpha"/><feGaussianBlur stdDeviation="1.5" result="d"/><feFlood flood-color="#fff"/><feComposite operator="in" in2="d"/><feComposite in="SourceGraphic"/></filter><filter id="e" x="74.931" y="493" width="18.862" height="18.862" filterUnits="userSpaceOnUse"><feOffset input="SourceAlpha"/><feGaussianBlur stdDeviation="1.5" result="f"/><feFlood flood-color="#fff"/><feComposite operator="in" in2="f"/><feComposite in="SourceGraphic"/></filter><filter id="g" x="35.931" y="387" width="18.862" height="18.862" filterUnits="userSpaceOnUse"><feOffset input="SourceAlpha"/><feGaussianBlur stdDeviation="1.5" result="h"/><feFlood flood-color="#fff"/><feComposite operator="in" in2="h"/><feComposite in="SourceGraphic"/></filter><filter id="i" x="209.931" y="0" width="18.862" height="18.862" filterUnits="userSpaceOnUse"><feOffset input="SourceAlpha"/><feGaussianBlur stdDeviation="1.5" result="j"/><feFlood flood-color="#fff"/><feComposite operator="in" in2="j"/><feComposite in="SourceGraphic"/></filter><filter id="k" x="109.931" y="68" width="18.862" height="18.862" filterUnits="userSpaceOnUse"><feOffset input="SourceAlpha"/><feGaussianBlur stdDeviation="1.5" result="l"/><feFlood flood-color="#fff"/><feComposite operator="in" in2="l"/><feComposite in="SourceGraphic"/></filter><filter id="m" x="145.931" y="344" width="18.862" height="18.862" filterUnits="userSpaceOnUse"><feOffset input="SourceAlpha"/><feGaussianBlur stdDeviation="1.5" result="n"/><feFlood flood-color="#fff"/><feComposite operator="in" in2="n"/><feComposite in="SourceGraphic"/></filter><filter id="o" x="281.931" y="500" width="18.862" height="18.862" filterUnits="userSpaceOnUse"><feOffset input="SourceAlpha"/><feGaussianBlur stdDeviation="1.5" result="p"/><feFlood flood-color="#fff"/><feComposite operator="in" in2="p"/><feComposite in="SourceGraphic"/></filter><filter id="q" x="314.931" y="411" width="18.862" height="18.862" filterUnits="userSpaceOnUse"><feOffset input="SourceAlpha"/><feGaussianBlur stdDeviation="1.5" result="r"/><feFlood flood-color="#fff"/><feComposite operator="in" in2="r"/><feComposite in="SourceGraphic"/></filter><filter id="s" x="216.931" y="441" width="18.862" height="18.862" filterUnits="userSpaceOnUse"><feOffset input="SourceAlpha"/><feGaussianBlur stdDeviation="1.5" result="t"/><feFlood flood-color="#fff"/><feComposite operator="in" in2="t"/><feComposite in="SourceGraphic"/></filter><filter id="u" x="49.931" y="237" width="18.862" height="18.862" filterUnits="userSpaceOnUse"><feOffset input="SourceAlpha"/><feGaussianBlur stdDeviation="1.5" result="v"/><feFlood flood-color="#fff"/><feComposite operator="in" in2="v"/><feComposite in="SourceGraphic"/></filter><filter id="w" x="261.931" y="259" width="18.862" height="18.862" filterUnits="userSpaceOnUse"><feOffset input="SourceAlpha"/><feGaussianBlur stdDeviation="1.5" result="x"/><feFlood flood-color="#fff"/><feComposite operator="in" in2="x"/><feComposite in="SourceGraphic"/></filter><filter id="y" x="27.931" y="374" width="18.862" height="18.862" filterUnits="userSpaceOnUse"><feOffset input="SourceAlpha"/><feGaussianBlur stdDeviation="1.5" result="z"/><feFlood flood-color="#fff"/><feComposite operator="in" in2="z"/><feComposite in="SourceGraphic"/></filter><filter id="aa" x="166.931" y="232" width="18.862" height="18.862" filterUnits="userSpaceOnUse"><feOffset input="SourceAlpha"/><feGaussianBlur stdDeviation="1.5" result="ab"/><feFlood flood-color="#fff"/><feComposite operator="in" in2="ab"/><feComposite in="SourceGraphic"/></filter><filter id="ac" x="286.931" y="313" width="18.862" height="18.862" filterUnits="userSpaceOnUse"><feOffset input="SourceAlpha"/><feGaussianBlur stdDeviation="1.5" result="ad"/><feFlood flood-color="#fff"/><feComposite operator="in" in2="ad"/><feComposite in="SourceGraphic"/></filter><filter id="ae" x="184.931" y="390" width="18.862" height="18.862" filterUnits="userSpaceOnUse"><feOffset input="SourceAlpha"/><feGaussianBlur stdDeviation="1.5" result="af"/><feFlood flood-color="#fff"/><feComposite operator="in" in2="af"/><feComposite in="SourceGraphic"/></filter><filter id="ag" x="9.862" y="483" width="18.862" height="18.862" filterUnits="userSpaceOnUse"><feOffset input="SourceAlpha"/><feGaussianBlur stdDeviation="1.5" result="ah"/><feFlood flood-color="#fff"/><feComposite operator="in" in2="ah"/><feComposite in="SourceGraphic"/></filter><filter id="ai" x="0" y="140" width="18.862" height="18.862" filterUnits="userSpaceOnUse"><feOffset input="SourceAlpha"/><feGaussianBlur stdDeviation="1.5" result="aj"/><feFlood flood-color="#fff"/><feComposite operator="in" in2="aj"/><feComposite in="SourceGraphic"/></filter></defs><g transform="translate(-18.638 -172.569)" opacity="0.329"><g transform="matrix(1, 0, 0, 1, 18.64, 172.57)" filter="url(#a)"><path d="M4.931,0l.92,3.857L9.862,4.931,5.852,6.005l-.92,3.857-.92-3.857L0,4.931,4.011,3.857Z" transform="translate(306.43 33.5)" fill="#313045"/></g><g transform="matrix(1, 0, 0, 1, 18.64, 172.57)" filter="url(#c)"><path d="M4.931,0l.92,3.857L9.862,4.931,5.852,6.005l-.92,3.857-.92-3.857L0,4.931,4.011,3.857Z" transform="translate(364.43 190.5)" fill="#313045"/></g><g transform="matrix(1, 0, 0, 1, 18.64, 172.57)" filter="url(#e)"><path d="M4.931,0l.92,3.857L9.862,4.931,5.852,6.005l-.92,3.857-.92-3.857L0,4.931,4.011,3.857Z" transform="translate(79.43 497.5)" fill="#313045"/></g><g transform="matrix(1, 0, 0, 1, 18.64, 172.57)" filter="url(#g)"><path d="M4.931,0l.92,3.857L9.862,4.931,5.852,6.005l-.92,3.857-.92-3.857L0,4.931,4.011,3.857Z" transform="translate(40.43 391.5)" fill="#313045"/></g><g transform="matrix(1, 0, 0, 1, 18.64, 172.57)" filter="url(#i)"><path d="M4.931,0l.92,3.857L9.862,4.931,5.852,6.005l-.92,3.857-.92-3.857L0,4.931,4.011,3.857Z" transform="translate(214.43 4.5)" fill="#313045"/></g><g transform="matrix(1, 0, 0, 1, 18.64, 172.57)" filter="url(#k)"><path d="M4.931,0l.92,3.857L9.862,4.931,5.852,6.005l-.92,3.857-.92-3.857L0,4.931,4.011,3.857Z" transform="translate(114.43 72.5)" fill="#313045"/></g><g transform="matrix(1, 0, 0, 1, 18.64, 172.57)" filter="url(#m)"><path d="M4.931,0l.92,3.857L9.862,4.931,5.852,6.005l-.92,3.857-.92-3.857L0,4.931,4.011,3.857Z" transform="translate(150.43 348.5)" fill="#313045"/></g><g transform="matrix(1, 0, 0, 1, 18.64, 172.57)" filter="url(#o)"><path d="M4.931,0l.92,3.857L9.862,4.931,5.852,6.005l-.92,3.857-.92-3.857L0,4.931,4.011,3.857Z" transform="translate(286.43 504.5)" fill="#313045"/></g><g transform="matrix(1, 0, 0, 1, 18.64, 172.57)" filter="url(#q)"><path d="M4.931,0l.92,3.857L9.862,4.931,5.852,6.005l-.92,3.857-.92-3.857L0,4.931,4.011,3.857Z" transform="translate(319.43 415.5)" fill="#313045"/></g><g transform="matrix(1, 0, 0, 1, 18.64, 172.57)" filter="url(#s)"><path d="M4.931,0l.92,3.857L9.862,4.931,5.852,6.005l-.92,3.857-.92-3.857L0,4.931,4.011,3.857Z" transform="translate(221.43 445.5)" fill="#313045"/></g><g transform="matrix(1, 0, 0, 1, 18.64, 172.57)" filter="url(#u)"><path d="M4.931,0l.92,3.857L9.862,4.931,5.852,6.005l-.92,3.857-.92-3.857L0,4.931,4.011,3.857Z" transform="translate(54.43 241.5)" fill="#313045"/></g><g transform="matrix(1, 0, 0, 1, 18.64, 172.57)" filter="url(#w)"><path d="M4.931,0l.92,3.857L9.862,4.931,5.852,6.005l-.92,3.857-.92-3.857L0,4.931,4.011,3.857Z" transform="translate(266.43 263.5)" fill="#313045"/></g><g transform="matrix(1, 0, 0, 1, 18.64, 172.57)" filter="url(#y)"><path d="M4.931,0l.92,3.857L9.862,4.931,5.852,6.005l-.92,3.857-.92-3.857L0,4.931,4.011,3.857Z" transform="translate(32.43 378.5)" fill="#313045"/></g><g transform="matrix(1, 0, 0, 1, 18.64, 172.57)" filter="url(#aa)"><path d="M4.931,0l.92,3.857L9.862,4.931,5.852,6.005l-.92,3.857-.92-3.857L0,4.931,4.011,3.857Z" transform="translate(171.43 236.5)" fill="#313045"/></g><g transform="matrix(1, 0, 0, 1, 18.64, 172.57)" filter="url(#ac)"><path d="M4.931,0l.92,3.857L9.862,4.931,5.852,6.005l-.92,3.857-.92-3.857L0,4.931,4.011,3.857Z" transform="translate(291.43 317.5)" fill="#313045"/></g><g transform="matrix(1, 0, 0, 1, 18.64, 172.57)" filter="url(#ae)"><path d="M4.931,0l.92,3.857L9.862,4.931,5.852,6.005l-.92,3.857-.92-3.857L0,4.931,4.011,3.857Z" transform="translate(189.43 394.5)" fill="#313045"/></g><g transform="matrix(1, 0, 0, 1, 18.64, 172.57)" filter="url(#ag)"><path d="M4.931,0l.92,3.857L9.862,4.931,5.852,6.005l-.92,3.857-.92-3.857L0,4.931,4.011,3.857Z" transform="translate(14.36 487.5)" fill="#313045"/></g><g transform="matrix(1, 0, 0, 1, 18.64, 172.57)" filter="url(#ai)"><path d="M4.931,0l.92,3.857L9.862,4.931,5.852,6.005l-.92,3.857-.92-3.857L0,4.931,4.011,3.857Z" transform="translate(4.5 144.5)" fill="#313045"/></g></g></svg>