<svg xmlns="http://www.w3.org/2000/svg" xmlns:xlink="http://www.w3.org/1999/xlink" width="398.971" height="540.523" viewBox="0 0 398.971 540.523"><defs><filter id="a" x="10" y="204" width="17.971" height="18.523" filterUnits="userSpaceOnUse"><feOffset input="SourceAlpha"/><feGaussianBlur stdDeviation="2" result="b"/><feFlood flood-color="#fff"/><feComposite operator="in" in2="b"/><feComposite in="SourceGraphic"/></filter><filter id="c" x="20" y="319" width="17.971" height="18.523" filterUnits="userSpaceOnUse"><feOffset input="SourceAlpha"/><feGaussianBlur stdDeviation="2" result="d"/><feFlood flood-color="#fff"/><feComposite operator="in" in2="d"/><feComposite in="SourceGraphic"/></filter><filter id="e" x="62" y="207" width="17.972" height="18.523" filterUnits="userSpaceOnUse"><feOffset input="SourceAlpha"/><feGaussianBlur stdDeviation="2" result="f"/><feFlood flood-color="#fff"/><feComposite operator="in" in2="f"/><feComposite in="SourceGraphic"/></filter><filter id="g" x="122" y="214" width="17.972" height="18.523" filterUnits="userSpaceOnUse"><feOffset input="SourceAlpha"/><feGaussianBlur stdDeviation="2" result="h"/><feFlood flood-color="#fff"/><feComposite operator="in" in2="h"/><feComposite in="SourceGraphic"/></filter><filter id="i" x="253" y="193" width="17.972" height="18.523" filterUnits="userSpaceOnUse"><feOffset input="SourceAlpha"/><feGaussianBlur stdDeviation="2" result="j"/><feFlood flood-color="#fff"/><feComposite operator="in" in2="j"/><feComposite in="SourceGraphic"/></filter><filter id="k" x="322" y="329" width="17.972" height="18.523" filterUnits="userSpaceOnUse"><feOffset input="SourceAlpha"/><feGaussianBlur stdDeviation="2" result="l"/><feFlood flood-color="#fff"/><feComposite operator="in" in2="l"/><feComposite in="SourceGraphic"/></filter><filter id="m" x="341" y="234" width="17.972" height="18.523" filterUnits="userSpaceOnUse"><feOffset input="SourceAlpha"/><feGaussianBlur stdDeviation="2" result="n"/><feFlood flood-color="#fff"/><feComposite operator="in" in2="n"/><feComposite in="SourceGraphic"/></filter><filter id="o" x="335" y="389" width="17.972" height="18.523" filterUnits="userSpaceOnUse"><feOffset input="SourceAlpha"/><feGaussianBlur stdDeviation="2" result="p"/><feFlood flood-color="#fff"/><feComposite operator="in" in2="p"/><feComposite in="SourceGraphic"/></filter><filter id="q" x="79" y="379" width="17.972" height="18.523" filterUnits="userSpaceOnUse"><feOffset input="SourceAlpha"/><feGaussianBlur stdDeviation="2" result="r"/><feFlood flood-color="#fff"/><feComposite operator="in" in2="r"/><feComposite in="SourceGraphic"/></filter><filter id="s" x="0" y="330" width="17.971" height="18.523" filterUnits="userSpaceOnUse"><feOffset input="SourceAlpha"/><feGaussianBlur stdDeviation="2" result="t"/><feFlood flood-color="#fff"/><feComposite operator="in" in2="t"/><feComposite in="SourceGraphic"/></filter><filter id="u" x="10" y="445" width="17.971" height="18.523" filterUnits="userSpaceOnUse"><feOffset input="SourceAlpha"/><feGaussianBlur stdDeviation="2" result="v"/><feFlood flood-color="#fff"/><feComposite operator="in" in2="v"/><feComposite in="SourceGraphic"/></filter><filter id="w" x="58" y="498" width="17.972" height="18.523" filterUnits="userSpaceOnUse"><feOffset input="SourceAlpha"/><feGaussianBlur stdDeviation="2" result="x"/><feFlood flood-color="#fff"/><feComposite operator="in" in2="x"/><feComposite in="SourceGraphic"/></filter><filter id="y" x="52" y="333" width="17.972" height="18.523" filterUnits="userSpaceOnUse"><feOffset input="SourceAlpha"/><feGaussianBlur stdDeviation="2" result="z"/><feFlood flood-color="#fff"/><feComposite operator="in" in2="z"/><feComposite in="SourceGraphic"/></filter><filter id="aa" x="112" y="340" width="17.972" height="18.523" filterUnits="userSpaceOnUse"><feOffset input="SourceAlpha"/><feGaussianBlur stdDeviation="2" result="ab"/><feFlood flood-color="#fff"/><feComposite operator="in" in2="ab"/><feComposite in="SourceGraphic"/></filter><filter id="ac" x="181" y="476" width="17.972" height="18.523" filterUnits="userSpaceOnUse"><feOffset input="SourceAlpha"/><feGaussianBlur stdDeviation="2" result="ad"/><feFlood flood-color="#fff"/><feComposite operator="in" in2="ad"/><feComposite in="SourceGraphic"/></filter><filter id="ae" x="243" y="319" width="17.972" height="18.523" filterUnits="userSpaceOnUse"><feOffset input="SourceAlpha"/><feGaussianBlur stdDeviation="2" result="af"/><feFlood flood-color="#fff"/><feComposite operator="in" in2="af"/><feComposite in="SourceGraphic"/></filter><filter id="ag" x="312" y="455" width="17.972" height="18.523" filterUnits="userSpaceOnUse"><feOffset input="SourceAlpha"/><feGaussianBlur stdDeviation="2" result="ah"/><feFlood flood-color="#fff"/><feComposite operator="in" in2="ah"/><feComposite in="SourceGraphic"/></filter><filter id="ai" x="165" y="386" width="17.972" height="18.523" filterUnits="userSpaceOnUse"><feOffset input="SourceAlpha"/><feGaussianBlur stdDeviation="2" result="aj"/><feFlood flood-color="#fff"/><feComposite operator="in" in2="aj"/><feComposite in="SourceGraphic"/></filter><filter id="ak" x="331" y="360" width="17.972" height="18.523" filterUnits="userSpaceOnUse"><feOffset input="SourceAlpha"/><feGaussianBlur stdDeviation="2" result="al"/><feFlood flood-color="#fff"/><feComposite operator="in" in2="al"/><feComposite in="SourceGraphic"/></filter><filter id="am" x="234" y="522" width="17.972" height="18.523" filterUnits="userSpaceOnUse"><feOffset input="SourceAlpha"/><feGaussianBlur stdDeviation="2" result="an"/><feFlood flood-color="#fff"/><feComposite operator="in" in2="an"/><feComposite in="SourceGraphic"/></filter><filter id="ao" x="253" y="478" width="17.972" height="18.523" filterUnits="userSpaceOnUse"><feOffset input="SourceAlpha"/><feGaussianBlur stdDeviation="2" result="ap"/><feFlood flood-color="#fff"/><feComposite operator="in" in2="ap"/><feComposite in="SourceGraphic"/></filter><filter id="aq" x="202" y="431" width="17.972" height="18.523" filterUnits="userSpaceOnUse"><feOffset input="SourceAlpha"/><feGaussianBlur stdDeviation="2" result="ar"/><feFlood flood-color="#fff"/><feComposite operator="in" in2="ar"/><feComposite in="SourceGraphic"/></filter><filter id="as" x="122" y="452" width="17.972" height="18.523" filterUnits="userSpaceOnUse"><feOffset input="SourceAlpha"/><feGaussianBlur stdDeviation="2" result="at"/><feFlood flood-color="#fff"/><feComposite operator="in" in2="at"/><feComposite in="SourceGraphic"/></filter><filter id="au" x="256" y="379" width="17.972" height="18.523" filterUnits="userSpaceOnUse"><feOffset input="SourceAlpha"/><feGaussianBlur stdDeviation="2" result="av"/><feFlood flood-color="#fff"/><feComposite operator="in" in2="av"/><feComposite in="SourceGraphic"/></filter><filter id="aw" x="325" y="515" width="17.972" height="18.523" filterUnits="userSpaceOnUse"><feOffset input="SourceAlpha"/><feGaussianBlur stdDeviation="2" result="ax"/><feFlood flood-color="#fff"/><feComposite operator="in" in2="ax"/><feComposite in="SourceGraphic"/></filter><filter id="ay" x="50" y="11" width="17.972" height="18.523" filterUnits="userSpaceOnUse"><feOffset input="SourceAlpha"/><feGaussianBlur stdDeviation="2" result="az"/><feFlood flood-color="#fff"/><feComposite operator="in" in2="az"/><feComposite in="SourceGraphic"/></filter><filter id="ba" x="60" y="126" width="17.972" height="18.523" filterUnits="userSpaceOnUse"><feOffset input="SourceAlpha"/><feGaussianBlur stdDeviation="2" result="bb"/><feFlood flood-color="#fff"/><feComposite operator="in" in2="bb"/><feComposite in="SourceGraphic"/></filter><filter id="bc" x="102" y="14" width="17.972" height="18.523" filterUnits="userSpaceOnUse"><feOffset input="SourceAlpha"/><feGaussianBlur stdDeviation="2" result="bd"/><feFlood flood-color="#fff"/><feComposite operator="in" in2="bd"/><feComposite in="SourceGraphic"/></filter><filter id="be" x="162" y="21" width="17.972" height="18.523" filterUnits="userSpaceOnUse"><feOffset input="SourceAlpha"/><feGaussianBlur stdDeviation="2" result="bf"/><feFlood flood-color="#fff"/><feComposite operator="in" in2="bf"/><feComposite in="SourceGraphic"/></filter><filter id="bg" x="293" y="0" width="17.972" height="18.523" filterUnits="userSpaceOnUse"><feOffset input="SourceAlpha"/><feGaussianBlur stdDeviation="2" result="bh"/><feFlood flood-color="#fff"/><feComposite operator="in" in2="bh"/><feComposite in="SourceGraphic"/></filter><filter id="bi" x="362" y="136" width="17.972" height="18.523" filterUnits="userSpaceOnUse"><feOffset input="SourceAlpha"/><feGaussianBlur stdDeviation="2" result="bj"/><feFlood flood-color="#fff"/><feComposite operator="in" in2="bj"/><feComposite in="SourceGraphic"/></filter><filter id="bk" x="381" y="41" width="17.972" height="18.523" filterUnits="userSpaceOnUse"><feOffset input="SourceAlpha"/><feGaussianBlur stdDeviation="2" result="bl"/><feFlood flood-color="#fff"/><feComposite operator="in" in2="bl"/><feComposite in="SourceGraphic"/></filter><filter id="bm" x="375" y="196" width="17.972" height="18.523" filterUnits="userSpaceOnUse"><feOffset input="SourceAlpha"/><feGaussianBlur stdDeviation="2" result="bn"/><feFlood flood-color="#fff"/><feComposite operator="in" in2="bn"/><feComposite in="SourceGraphic"/></filter><filter id="bo" x="10" y="204" width="17.971" height="18.523" filterUnits="userSpaceOnUse"><feOffset input="SourceAlpha"/><feGaussianBlur stdDeviation="2" result="bp"/><feFlood flood-color="#fff"/><feComposite operator="in" in2="bp"/><feComposite in="SourceGraphic"/></filter><filter id="bq" x="20" y="319" width="17.971" height="18.523" filterUnits="userSpaceOnUse"><feOffset input="SourceAlpha"/><feGaussianBlur stdDeviation="2" result="br"/><feFlood flood-color="#fff"/><feComposite operator="in" in2="br"/><feComposite in="SourceGraphic"/></filter><filter id="bs" x="62" y="207" width="17.972" height="18.523" filterUnits="userSpaceOnUse"><feOffset input="SourceAlpha"/><feGaussianBlur stdDeviation="2" result="bt"/><feFlood flood-color="#fff"/><feComposite operator="in" in2="bt"/><feComposite in="SourceGraphic"/></filter><filter id="bu" x="122" y="214" width="17.972" height="18.523" filterUnits="userSpaceOnUse"><feOffset input="SourceAlpha"/><feGaussianBlur stdDeviation="2" result="bv"/><feFlood flood-color="#fff"/><feComposite operator="in" in2="bv"/><feComposite in="SourceGraphic"/></filter><filter id="bw" x="253" y="193" width="17.972" height="18.523" filterUnits="userSpaceOnUse"><feOffset input="SourceAlpha"/><feGaussianBlur stdDeviation="2" result="bx"/><feFlood flood-color="#fff"/><feComposite operator="in" in2="bx"/><feComposite in="SourceGraphic"/></filter><filter id="by" x="322" y="329" width="17.972" height="18.523" filterUnits="userSpaceOnUse"><feOffset input="SourceAlpha"/><feGaussianBlur stdDeviation="2" result="bz"/><feFlood flood-color="#fff"/><feComposite operator="in" in2="bz"/><feComposite in="SourceGraphic"/></filter><filter id="ca" x="341" y="234" width="17.972" height="18.523" filterUnits="userSpaceOnUse"><feOffset input="SourceAlpha"/><feGaussianBlur stdDeviation="2" result="cb"/><feFlood flood-color="#fff"/><feComposite operator="in" in2="cb"/><feComposite in="SourceGraphic"/></filter><filter id="cc" x="335" y="389" width="17.972" height="18.523" filterUnits="userSpaceOnUse"><feOffset input="SourceAlpha"/><feGaussianBlur stdDeviation="2" result="cd"/><feFlood flood-color="#fff"/><feComposite operator="in" in2="cd"/><feComposite in="SourceGraphic"/></filter></defs><g transform="translate(-35.586 -43.193)"><g transform="translate(10 186)" opacity="0.147"><g transform="matrix(1, 0, 0, 1, 25.59, -142.81)" filter="url(#a)"><path d="M526.784,365.193l-1.024,2.565-2.174.7,2.174.568.737,2.69.983-2.69,2.078-.568-2.078-.7Z" transform="translate(-507.59 -155.19)" fill="#fff"/></g><g transform="matrix(1, 0, 0, 1, 25.59, -142.81)" filter="url(#c)"><path d="M526.784,365.193l-1.024,2.565-2.174.7,2.174.568.737,2.69.983-2.69,2.078-.568-2.078-.7Z" transform="translate(-497.59 -40.19)" fill="#fff"/></g><g transform="matrix(1, 0, 0, 1, 25.59, -142.81)" filter="url(#e)"><path d="M526.784,365.193l-1.024,2.565-2.174.7,2.174.568.737,2.69.983-2.69,2.078-.568-2.078-.7Z" transform="translate(-455.59 -152.19)" fill="#fff"/></g><g transform="matrix(1, 0, 0, 1, 25.59, -142.81)" filter="url(#g)"><path d="M526.784,365.193l-1.024,2.565-2.174.7,2.174.568.737,2.69.983-2.69,2.078-.568-2.078-.7Z" transform="translate(-395.59 -145.19)" fill="#fff"/></g><g transform="matrix(1, 0, 0, 1, 25.59, -142.81)" filter="url(#i)"><path d="M526.784,365.193l-1.024,2.565-2.174.7,2.174.568.737,2.69.983-2.69,2.078-.568-2.078-.7Z" transform="translate(-264.59 -166.19)" fill="#fff"/></g><g transform="matrix(1, 0, 0, 1, 25.59, -142.81)" filter="url(#k)"><path d="M526.784,365.193l-1.024,2.565-2.174.7,2.174.568.737,2.69.983-2.69,2.078-.568-2.078-.7Z" transform="translate(-195.59 -30.19)" fill="#fff"/></g><g transform="matrix(1, 0, 0, 1, 25.59, -142.81)" filter="url(#m)"><path d="M526.784,365.193l-1.024,2.565-2.174.7,2.174.568.737,2.69.983-2.69,2.078-.568-2.078-.7Z" transform="translate(-176.59 -125.19)" fill="#fff"/></g><g transform="matrix(1, 0, 0, 1, 25.59, -142.81)" filter="url(#o)"><path d="M526.784,365.193l-1.024,2.565-2.174.7,2.174.568.737,2.69.983-2.69,2.078-.568-2.078-.7Z" transform="translate(-182.59 29.81)" fill="#fff"/></g></g><g transform="translate(0 312)" opacity="0.132"><g transform="matrix(1, 0, 0, 1, 35.59, -268.81)" filter="url(#q)"><path d="M526.784,365.193l-1.024,2.565-2.174.7,2.174.568.737,2.69.983-2.69,2.078-.568-2.078-.7Z" transform="translate(-438.59 19.81)" fill="#fff"/></g><g transform="matrix(1, 0, 0, 1, 35.59, -268.81)" filter="url(#s)"><path d="M526.784,365.193l-1.024,2.565-2.174.7,2.174.568.737,2.69.983-2.69,2.078-.568-2.078-.7Z" transform="translate(-517.59 -29.19)" fill="#fff"/></g><g transform="matrix(1, 0, 0, 1, 35.59, -268.81)" filter="url(#u)"><path d="M526.784,365.193l-1.024,2.565-2.174.7,2.174.568.737,2.69.983-2.69,2.078-.568-2.078-.7Z" transform="translate(-507.59 85.81)" fill="#fff"/></g><g transform="matrix(1, 0, 0, 1, 35.59, -268.81)" filter="url(#w)"><path d="M526.784,365.193l-1.024,2.565-2.174.7,2.174.568.737,2.69.983-2.69,2.078-.568-2.078-.7Z" transform="translate(-459.59 138.81)" fill="#fff"/></g><g transform="matrix(1, 0, 0, 1, 35.59, -268.81)" filter="url(#y)"><path d="M526.784,365.193l-1.024,2.565-2.174.7,2.174.568.737,2.69.983-2.69,2.078-.568-2.078-.7Z" transform="translate(-465.59 -26.19)" fill="#fff"/></g><g transform="matrix(1, 0, 0, 1, 35.59, -268.81)" filter="url(#aa)"><path d="M526.784,365.193l-1.024,2.565-2.174.7,2.174.568.737,2.69.983-2.69,2.078-.568-2.078-.7Z" transform="translate(-405.59 -19.19)" fill="#fff"/></g><g transform="matrix(1, 0, 0, 1, 35.59, -268.81)" filter="url(#ac)"><path d="M526.784,365.193l-1.024,2.565-2.174.7,2.174.568.737,2.69.983-2.69,2.078-.568-2.078-.7Z" transform="translate(-336.59 116.81)" fill="#fff"/></g><g transform="matrix(1, 0, 0, 1, 35.59, -268.81)" filter="url(#ae)"><path d="M526.784,365.193l-1.024,2.565-2.174.7,2.174.568.737,2.69.983-2.69,2.078-.568-2.078-.7Z" transform="translate(-274.59 -40.19)" fill="#fff"/></g><g transform="matrix(1, 0, 0, 1, 35.59, -268.81)" filter="url(#ag)"><path d="M526.784,365.193l-1.024,2.565-2.174.7,2.174.568.737,2.69.983-2.69,2.078-.568-2.078-.7Z" transform="translate(-205.59 95.81)" fill="#fff"/></g><g transform="matrix(1, 0, 0, 1, 35.59, -268.81)" filter="url(#ai)"><path d="M526.784,365.193l-1.024,2.565-2.174.7,2.174.568.737,2.69.983-2.69,2.078-.568-2.078-.7Z" transform="translate(-352.59 26.81)" fill="#fff"/></g><g transform="matrix(1, 0, 0, 1, 35.59, -268.81)" filter="url(#ak)"><path d="M526.784,365.193l-1.024,2.565-2.174.7,2.174.568.737,2.69.983-2.69,2.078-.568-2.078-.7Z" transform="translate(-186.59 0.81)" fill="#fff"/></g><g transform="matrix(1, 0, 0, 1, 35.59, -268.81)" filter="url(#am)"><path d="M526.784,365.193l-1.024,2.565-2.174.7,2.174.568.737,2.69.983-2.69,2.078-.568-2.078-.7Z" transform="translate(-283.59 162.81)" fill="#fff"/></g><g transform="matrix(1, 0, 0, 1, 35.59, -268.81)" filter="url(#ao)"><path d="M526.784,365.193l-1.024,2.565-2.174.7,2.174.568.737,2.69.983-2.69,2.078-.568-2.078-.7Z" transform="translate(-264.59 118.81)" fill="#fff"/></g><g transform="matrix(1, 0, 0, 1, 35.59, -268.81)" filter="url(#aq)"><path d="M526.784,365.193l-1.024,2.565-2.174.7,2.174.568.737,2.69.983-2.69,2.078-.568-2.078-.7Z" transform="translate(-315.59 71.81)" fill="#fff"/></g><g transform="matrix(1, 0, 0, 1, 35.59, -268.81)" filter="url(#as)"><path d="M526.784,365.193l-1.024,2.565-2.174.7,2.174.568.737,2.69.983-2.69,2.078-.568-2.078-.7Z" transform="translate(-395.59 92.81)" fill="#fff"/></g><g transform="matrix(1, 0, 0, 1, 35.59, -268.81)" filter="url(#au)"><path d="M526.784,365.193l-1.024,2.565-2.174.7,2.174.568.737,2.69.983-2.69,2.078-.568-2.078-.7Z" transform="translate(-261.59 19.81)" fill="#fff"/></g><g transform="matrix(1, 0, 0, 1, 35.59, -268.81)" filter="url(#aw)"><path d="M526.784,365.193l-1.024,2.565-2.174.7,2.174.568.737,2.69.983-2.69,2.078-.568-2.078-.7Z" transform="translate(-192.59 155.81)" fill="#fff"/></g></g><g transform="translate(50 -7)" opacity="0.147"><g transform="matrix(1, 0, 0, 1, -14.41, 50.19)" filter="url(#ay)"><path d="M526.784,365.193l-1.024,2.565-2.174.7,2.174.568.737,2.69.983-2.69,2.078-.568-2.078-.7Z" transform="translate(-467.59 -348.19)" fill="#fff"/></g><g transform="matrix(1, 0, 0, 1, -14.41, 50.19)" filter="url(#ba)"><path d="M526.784,365.193l-1.024,2.565-2.174.7,2.174.568.737,2.69.983-2.69,2.078-.568-2.078-.7Z" transform="translate(-457.59 -233.19)" fill="#fff"/></g><g transform="matrix(1, 0, 0, 1, -14.41, 50.19)" filter="url(#bc)"><path d="M526.784,365.193l-1.024,2.565-2.174.7,2.174.568.737,2.69.983-2.69,2.078-.568-2.078-.7Z" transform="translate(-415.59 -345.19)" fill="#fff"/></g><g transform="matrix(1, 0, 0, 1, -14.41, 50.19)" filter="url(#be)"><path d="M526.784,365.193l-1.024,2.565-2.174.7,2.174.568.737,2.69.983-2.69,2.078-.568-2.078-.7Z" transform="translate(-355.59 -338.19)" fill="#fff"/></g><g transform="matrix(1, 0, 0, 1, -14.41, 50.19)" filter="url(#bg)"><path d="M526.784,365.193l-1.024,2.565-2.174.7,2.174.568.737,2.69.983-2.69,2.078-.568-2.078-.7Z" transform="translate(-224.59 -359.19)" fill="#fff"/></g><g transform="matrix(1, 0, 0, 1, -14.41, 50.19)" filter="url(#bi)"><path d="M526.784,365.193l-1.024,2.565-2.174.7,2.174.568.737,2.69.983-2.69,2.078-.568-2.078-.7Z" transform="translate(-155.59 -223.19)" fill="#fff"/></g><g transform="matrix(1, 0, 0, 1, -14.41, 50.19)" filter="url(#bk)"><path d="M526.784,365.193l-1.024,2.565-2.174.7,2.174.568.737,2.69.983-2.69,2.078-.568-2.078-.7Z" transform="translate(-136.59 -318.19)" fill="#fff"/></g><g transform="matrix(1, 0, 0, 1, -14.41, 50.19)" filter="url(#bm)"><path d="M526.784,365.193l-1.024,2.565-2.174.7,2.174.568.737,2.69.983-2.69,2.078-.568-2.078-.7Z" transform="translate(-142.59 -163.19)" fill="#fff"/></g></g><g transform="translate(10 186)" opacity="0.147"><g transform="matrix(1, 0, 0, 1, 25.59, -142.81)" filter="url(#bo)"><path d="M526.784,365.193l-1.024,2.565-2.174.7,2.174.568.737,2.69.983-2.69,2.078-.568-2.078-.7Z" transform="translate(-507.59 -155.19)" fill="#fff"/></g><g transform="matrix(1, 0, 0, 1, 25.59, -142.81)" filter="url(#bq)"><path d="M526.784,365.193l-1.024,2.565-2.174.7,2.174.568.737,2.69.983-2.69,2.078-.568-2.078-.7Z" transform="translate(-497.59 -40.19)" fill="#fff"/></g><g transform="matrix(1, 0, 0, 1, 25.59, -142.81)" filter="url(#bs)"><path d="M526.784,365.193l-1.024,2.565-2.174.7,2.174.568.737,2.69.983-2.69,2.078-.568-2.078-.7Z" transform="translate(-455.59 -152.19)" fill="#fff"/></g><g transform="matrix(1, 0, 0, 1, 25.59, -142.81)" filter="url(#bu)"><path d="M526.784,365.193l-1.024,2.565-2.174.7,2.174.568.737,2.69.983-2.69,2.078-.568-2.078-.7Z" transform="translate(-395.59 -145.19)" fill="#fff"/></g><g transform="matrix(1, 0, 0, 1, 25.59, -142.81)" filter="url(#bw)"><path d="M526.784,365.193l-1.024,2.565-2.174.7,2.174.568.737,2.69.983-2.69,2.078-.568-2.078-.7Z" transform="translate(-264.59 -166.19)" fill="#fff"/></g><g transform="matrix(1, 0, 0, 1, 25.59, -142.81)" filter="url(#by)"><path d="M526.784,365.193l-1.024,2.565-2.174.7,2.174.568.737,2.69.983-2.69,2.078-.568-2.078-.7Z" transform="translate(-195.59 -30.19)" fill="#fff"/></g><g transform="matrix(1, 0, 0, 1, 25.59, -142.81)" filter="url(#ca)"><path d="M526.784,365.193l-1.024,2.565-2.174.7,2.174.568.737,2.69.983-2.69,2.078-.568-2.078-.7Z" transform="translate(-176.59 -125.19)" fill="#fff"/></g><g transform="matrix(1, 0, 0, 1, 25.59, -142.81)" filter="url(#cc)"><path d="M526.784,365.193l-1.024,2.565-2.174.7,2.174.568.737,2.69.983-2.69,2.078-.568-2.078-.7Z" transform="translate(-182.59 29.81)" fill="#fff"/></g></g></g></svg>