<svg xmlns="http://www.w3.org/2000/svg" width="12.282" height="22.718" viewBox="0 0 12.282 22.718"><g transform="translate(-22.077)"><path d="M33.9,0,30.951,0C27.641,0,25.5,2.194,25.5,5.591V8.169H22.54a.463.463,0,0,0-.463.463v3.735a.463.463,0,0,0,.463.463H25.5v9.424a.463.463,0,0,0,.463.463H29.83a.463.463,0,0,0,.463-.463V12.83h3.463a.463.463,0,0,0,.463-.463V8.632a.464.464,0,0,0-.463-.463H30.293V5.983c0-1.05.25-1.583,1.618-1.583H33.9a.463.463,0,0,0,.463-.463V.468A.463.463,0,0,0,33.9,0Z" fill="#fff"/></g></svg>