<svg id="Layer_1" data-name="Layer 1" xmlns="http://www.w3.org/2000/svg" xmlns:xlink="http://www.w3.org/1999/xlink" viewBox="0 0 546.69 553.81"><defs><clipPath id="clip-path" transform="translate(17.35 20.91)"><path d="M430.45,260.05a204.06,204.06,0,0,0-3.24-36.42H259.56v68.86h95.8a81.88,81.88,0,0,1-35.52,53.73v44.66h57.53c33.66-31,53.08-76.62,53.08-130.83Zm0,0" fill="none" clip-rule="evenodd"/></clipPath><clipPath id="clip-path-2" transform="translate(17.35 20.91)"><path d="M259.56,434c48.06,0,88.36-15.94,117.81-43.13l-57.53-44.66c-15.94,10.68-36.33,17-60.28,17-46.36,0-85.61-31.31-99.61-73.39H100.48v46.12A177.94,177.94,0,0,0,259.56,434Zm0,0" fill="none" clip-rule="evenodd"/></clipPath><clipPath id="clip-path-3" transform="translate(17.35 20.91)"><path d="M160,289.82a105.28,105.28,0,0,1,0-67.64V176.06H100.48a178.26,178.26,0,0,0,0,159.88L160,289.82Zm0,0" fill="none" clip-rule="evenodd"/></clipPath><clipPath id="clip-path-4" transform="translate(17.35 20.91)"><path d="M259.56,148.79c26.14,0,49.6,9,68.05,26.62l51.06-51.06C347.84,95.63,307.54,78,259.56,78a177.94,177.94,0,0,0-159.08,98.07L160,222.18c14-42.08,53.25-73.39,99.61-73.39Zm0,0" fill="none" clip-rule="evenodd"/></clipPath></defs><title>google-logo</title><g clip-path="url(#clip-path)"><path d="M529.35,143.36V124.74h-3.56C527.21,130.89,528.37,137.11,529.35,143.36Z" transform="translate(17.35 20.91)" fill="#3e82f1"/><path d="M526.84,367.75q1.08,6,2.51,12V365.69A4,4,0,0,1,526.84,367.75Z" transform="translate(17.35 20.91)" fill="#3e82f1"/><path d="M517.22,371.35A254,254,0,0,1,513,324c0-6.45,10-6.43,10,0,0,6.15.23,12.25.67,18.32a473.38,473.38,0,0,0,5.3-58.87c1.23-41.65-2.38-83.44-7.51-124.76a297.62,297.62,0,0,0-5.92-33.95H160.67v365h281.9c-1.51-4.23-3.09-8.36-4.89-12.26-2.68-5.81,5.94-10.88,8.64-5a179.45,179.45,0,0,1,6.55,17.3h29c2.08-15,4.08-30,5.32-45.17,1.37-16.69,1.37-33.47,1.21-50.21-.15-16.49-.64-33-1.17-49.46-.2-6.3.11-12.55.07-18.85,0-5.47-.2-12.07-3.8-16.55q-.19-.26-.36-.51a4,4,0,0,1-2.62-.71c-2.84-2.08-5.25-3.27-8.48-3.32-6.44-.09-6.44-10.09,0-10a22.84,22.84,0,0,1,13.52,4.68,6.68,6.68,0,0,1,1.19,1.12,4,4,0,0,1,3.83,1.66c9.22,11.49,6.15,26.85,6.59,40.5,1.1,34.41,2.82,69.22-.14,103.58-1.08,12.57-2.66,25.08-4.35,37.57,5.29-9.35,11.94-17.2,19.47-25.36,4.69-5.06,9.28-10.35,12.16-16.69,3.22-7.07,3.84-15,3.26-22.62C526.29,403.12,520.32,387.36,517.22,371.35Z" transform="translate(17.35 20.91)" fill="#3e82f1"/><path d="M517.59,467.53c-4.83,5.17-9.74,10.24-13.48,16.28-1.2,1.95-2.31,3.94-3.35,6h28.59v-37A101.93,101.93,0,0,1,517.59,467.53Z" transform="translate(17.35 20.91)" fill="#3e82f1"/></g><g clip-path="url(#clip-path-2)"><path d="M472,305c-6.44-.09-6.44-10.09,0-10a22.88,22.88,0,0,1,4.27.47V190.93H1.59v342H463.41c-13.9-14.76-17.49-37.55-25.73-55.39-2.68-5.81,5.94-10.88,8.64-5,8,17.31,11.39,40.32,25.24,54.41a58.73,58.73,0,0,0,4.71-7v-214A11.65,11.65,0,0,0,472,305Z" transform="translate(17.35 20.91)" fill="#32a753"/></g><g clip-path="url(#clip-path-3)"><rect y="98.07" width="276.2" height="357.68" fill="#f9bb00"/></g><g clip-path="url(#clip-path-4)"><path d="M472,295a22.47,22.47,0,0,1,5.56.77V64.5c-.71-.65-1.41-1.3-2.1-2-3-3-1-7.09,2.1-8.22V-20.91H1.59v342h476V306.46A11.77,11.77,0,0,0,472,305C465.56,304.91,465.56,294.91,472,295Z" transform="translate(17.35 20.91)" fill="#e74133"/></g></svg>