<svg xmlns="http://www.w3.org/2000/svg" width="19.366" height="12.26" viewBox="0 0 19.366 12.26"><g transform="translate(-135.619 -75.58)"><path d="M141.742,80.479c0,.038-.006.068-.006.1,0,.748,0,2.366,0,2.366h3.283a2.786,2.786,0,0,1-1.206,1.845,3.517,3.517,0,0,1-1.782.572,3.584,3.584,0,0,1-1.329-.154,3.691,3.691,0,0,1-2.528-3.187,3.529,3.529,0,0,1,.074-1.112,3.622,3.622,0,0,1,4.033-2.822,3.306,3.306,0,0,1,1.8.869l1.783-1.785a7.438,7.438,0,0,0-1.086-.8,5.839,5.839,0,0,0-2.908-.791c-.2,0-.392.009-.586.018a4.784,4.784,0,0,0-1.011.157,6.145,6.145,0,0,0-4.645,5.6,5.8,5.8,0,0,0,.129,1.65,6.066,6.066,0,0,0,2.4,3.664,5.982,5.982,0,0,0,3.273,1.16,6.489,6.489,0,0,0,2.009-.2,5.335,5.335,0,0,0,3.016-1.983,6.576,6.576,0,0,0,1.052-5.169Z" fill="#fff"/><path d="M154.923,80.56h-2.077V78.42h-1.674V80.56h-2.138v1.674h2.138v2.139h1.674V82.233h2.139V80.56Z" fill="#fff"/></g></svg>