<svg xmlns="http://www.w3.org/2000/svg" viewBox="0 0 414 185"><title>Header_Banner_With_Title_Order</title><g id="Capa_2" data-name="Capa 2"><g id="Header"><path d="M207,160.93a960.19,960.19,0,0,1,207,22.46V-.5H0V183.39A960.19,960.19,0,0,1,207,160.93Z" fill="#313045"/><g id="Grupo_24" data-name="Grupo 24"><path id="Trazado_81" data-name="Trazado 81" d="M210.83,157.81c-2.37.35-4.66.17-7,.92a15.76,15.76,0,0,0-5.89,3.5,2,2,0,0,1-.44.33,25.7,25.7,0,0,0,9.83,2A25.15,25.15,0,0,0,231.05,148c-2.87.75-5.85,1.21-8.51,2.71C218.68,152.88,215.37,157.09,210.83,157.81Z" fill="#2866e5"/><path id="Trazado_82" data-name="Trazado 82" d="M195.33,159.7A19.64,19.64,0,0,1,207,154.45a17.15,17.15,0,0,0,4-.39,12.14,12.14,0,0,0,3.31-2c1.71-1.32,3.42-2.68,5.28-3.86,3.89-2.43,8.18-2.82,12.44-4.28a26.6,26.6,0,0,0,.36-4.18,25.49,25.49,0,0,0-.32-4,.59.59,0,0,1-.26.07c-2.66.86-5.42,1.21-8.15,1.86a21.92,21.92,0,0,0-7.75,3.46c-2.22,1.57-4.25,3.36-6.47,4.86-1.75,1.14-4.22,2.5-5.75.28a6.78,6.78,0,0,1-.58-1.25c-.08-.17-.11-.39-.19-.57,0,0,0-.07,0-.1-1,0-2.48,1.78-3.17,2.35q-3.7,3.17-7.2,6.54c-1.67,1.61-4.25-.93-2.58-2.54,2.18-2.07,4.4-4.1,6.69-6.07,1.71-1.46,3.79-3.78,6.26-3.89a3.37,3.37,0,0,1,2.84,1.32,14.67,14.67,0,0,1,.76,1.54s0,0,.08,0c.25-.14.51-.32.76-.46.58-.4,1.16-.79,1.71-1.22,1-.75,2-1.53,3-2.28a28.64,28.64,0,0,1,6.52-4,40.42,40.42,0,0,1,8-2.1,35.46,35.46,0,0,0,4.66-1.22,24.38,24.38,0,0,0-5.75-9.5,50.07,50.07,0,0,1-4.26,3.71,53.06,53.06,0,0,1-5.93,5.07,3,3,0,0,1-2.51.57c-.84-.21-1.35-1-2.22-1.14-2.07-.29-4.58,1.93-6.15,3-2.11,1.4-4.14,2.89-6.14,4.43a110.49,110.49,0,0,0-11,9.93c-1.6,1.68-4.18-.85-2.58-2.53a109.54,109.54,0,0,1,20-16.32,11.61,11.61,0,0,1,5.31-2,5.24,5.24,0,0,1,2.44.43c.33.14.58.36.91.5.54.25.07.25.76-.43,1.53-1.57,3.42-2.89,5.06-4.36.84-.75,1.67-1.46,2.47-2.21.34-.35.69-.68,1.06-1a24.65,24.65,0,0,0-6.11-3.43,1.67,1.67,0,0,1,0,.86,2,2,0,0,1-.65,2.46c-3.2,2.22-7.06,2.86-10.7,4.07a43.52,43.52,0,0,0-9.9,5,88.61,88.61,0,0,0-13.2,11.1,24.59,24.59,0,0,0,12.7,20.93A1.6,1.6,0,0,1,195.33,159.7Z" fill="#2866e5"/><path id="Trazado_83" data-name="Trazado 83" d="M203.11,121.24c2.26-.86,4.66-1.36,6.92-2.14a1.56,1.56,0,0,1,.58-1.36,1.49,1.49,0,0,1,.91-1.65,8,8,0,0,1,1.09-.43,24.38,24.38,0,0,0-5.31-.56,25,25,0,0,0-24.67,19.82A89.19,89.19,0,0,1,193,126.49,48.29,48.29,0,0,1,203.11,121.24Z" fill="#2866e5"/><path id="Trazado_84" data-name="Trazado 84" d="M195.33,129.24a43.52,43.52,0,0,1,9.9-5c3.63-1.25,7.49-1.85,10.69-4.07a2,2,0,0,0,.66-2.46,1.79,1.79,0,0,0,0-.86,29.26,29.26,0,0,0-4-1.21,6.33,6.33,0,0,0-1.09.43,1.46,1.46,0,0,0-.91,1.64,1.57,1.57,0,0,0-.59,1.36c-2.25.78-4.65,1.32-6.91,2.14A48.64,48.64,0,0,0,193,126.52a79.66,79.66,0,0,0-10.37,8.4,23.53,23.53,0,0,0-.51,4.89v.53A88.19,88.19,0,0,1,195.33,129.24Z" fill="#eaeef4"/><path id="Trazado_85" data-name="Trazado 85" d="M221.67,121.31c-.84.75-1.64,1.5-2.48,2.21-1.63,1.47-3.56,2.79-5.05,4.36-.66.71-.19.68-.77.43-.32-.15-.58-.36-.91-.5a5.63,5.63,0,0,0-2.43-.43,11.35,11.35,0,0,0-5.31,2,107.21,107.21,0,0,0-20,16.32,1.79,1.79,0,0,0,.11,2.55,1.82,1.82,0,0,0,2.47,0,105.2,105.2,0,0,1,11-9.89c2-1.57,4-3,6.14-4.43,1.57-1,4.11-3.25,6.15-3,.87.11,1.38.93,2.22,1.14a2.91,2.91,0,0,0,2.51-.57,61,61,0,0,0,6-5,49.72,49.72,0,0,0,4.25-3.71,26.58,26.58,0,0,0-2.8-2.5A12.4,12.4,0,0,0,221.67,121.31Z" fill="#eaeef4"/><path id="Trazado_86" data-name="Trazado 86" d="M218.65,135.63a28.79,28.79,0,0,0-6.51,4c-1,.75-2,1.53-3,2.28-.54.43-1.13.82-1.71,1.21a7.39,7.39,0,0,1-.76.47s0,0-.07,0c-.23-.52-.49-1-.77-1.53a3.37,3.37,0,0,0-2.84-1.32c-2.47.11-4.55,2.43-6.26,3.89-2.29,2-4.51,4-6.69,6.07-1.67,1.61.91,4.14,2.58,2.54,2.33-2.25,4.77-4.43,7.2-6.54.69-.57,2.15-2.36,3.17-2.36,0,0,0,.08,0,.11s.11.4.19.57a4.07,4.07,0,0,0,.58,1.25c1.53,2.22,4,.86,5.75-.28,2.25-1.5,4.29-3.29,6.47-4.86a21.92,21.92,0,0,1,7.75-3.46c2.69-.65,5.49-1,8.15-1.86a.48.48,0,0,1,.26-.07,18.31,18.31,0,0,0-.88-3.5,41.23,41.23,0,0,1-4.65,1.21A40.64,40.64,0,0,0,218.65,135.63Z" fill="#eaeef4"/><path id="Trazado_87" data-name="Trazado 87" d="M219.67,148.24c-1.86,1.14-3.53,2.53-5.28,3.85a11.31,11.31,0,0,1-3.31,2,17.15,17.15,0,0,1-4,.39,19.64,19.64,0,0,0-11.71,5.25,1.57,1.57,0,0,0-.51,1.54,25.45,25.45,0,0,0,2.62,1.29,2,2,0,0,0,.44-.33,15.89,15.89,0,0,1,5.89-3.5c2.33-.75,4.62-.57,7-.93,4.55-.71,7.86-4.92,11.71-7.1,2.66-1.5,5.6-2,8.52-2.71a21.62,21.62,0,0,0,1-4C227.82,145.41,223.56,145.81,219.67,148.24Z" fill="#eaeef4"/></g><g id="Grupo_22" data-name="Grupo 22"><path id="Trazado_71" data-name="Trazado 71" d="M76.31,118a12.76,12.76,0,0,0-2.64-7.76c-.22.7-.43,1.41-.72,2.1a16.29,16.29,0,0,0-.74,2,3.83,3.83,0,0,0-.1.59c0,.21,0,.19.09.32a2.35,2.35,0,0,1,.48.6,3.24,3.24,0,0,1,0,1.85c-.14.6-.78,2.52-1.66,2.53l-1.11,2.18a.48.48,0,0,1-.67.15.43.43,0,0,1-.2-.26,11.58,11.58,0,0,1,0-5.7,4.81,4.81,0,0,0,.12-.76c0-.28-.17-.35-.3-.57a1.26,1.26,0,0,1-.07-1.09c.2-.67.42-1.33.64-2a7.27,7.27,0,0,1-.79.14.47.47,0,0,1-.48-.47.25.25,0,0,1,0-.12c.1-.28.19-.55.28-.83l-.2.1c-.28.14-.76,0-.72-.41s.08-.51.13-.78l-.91.49a.47.47,0,0,1-.65-.18.46.46,0,0,1,0-.34A11.15,11.15,0,0,1,68,106a13.28,13.28,0,0,0-4.87-.91,12.94,12.94,0,0,0-12.67,16.51,24.16,24.16,0,0,1,6.73-3.33c.56-.17,1.61-.63,2,.11s-.34,1.39-.57,1.94-.35.89-.5,1.35l-.18.67a2.09,2.09,0,0,0,0,.21c.13-.07.25-.16.27-.17l.6-.42,1.17-.85a.49.49,0,0,1,.65.17,1.31,1.31,0,0,1,.2,1c0,.17-.19.72,0,.85s1.13-.38,1.36-.48l1.44-.67a.49.49,0,0,1,.65.17,4.26,4.26,0,0,1,.28,2.12,10.56,10.56,0,0,0,0,1.13c0,.47.28.34.62.15s.61-.42.94-.33a.71.71,0,0,1,.47.58,4.9,4.9,0,0,1-.34,2A14.6,14.6,0,0,1,65,130.8,13,13,0,0,0,76.31,118Z" fill="#6722ea"/><path id="Trazado_72" data-name="Trazado 72" d="M66.45,125.73a.71.71,0,0,0-.48-.57c-.33-.09-.68.18-.94.33s-.58.32-.61-.16a7.16,7.16,0,0,1,0-1.13,4.37,4.37,0,0,0-.27-2.12.5.5,0,0,0-.65-.17l-1.45.67c-.23.1-1.13.68-1.36.48s0-.68.05-.85a1.38,1.38,0,0,0-.2-.95.49.49,0,0,0-.65-.17l-1.18.84-.6.43-.26.16a1.91,1.91,0,0,0,0-.21c.06-.23.12-.45.19-.67a12.84,12.84,0,0,1,.5-1.35c.24-.55.86-1.31.56-1.94s-1.4-.29-2-.11a24.05,24.05,0,0,0-6.73,3.34,13.15,13.15,0,0,0,12.67,9.35A14.56,14.56,0,0,0,65,130.8a14.69,14.69,0,0,0,1.1-3.08A5.62,5.62,0,0,0,66.45,125.73Z" fill="#ed0c8d"/><path id="Trazado_73" data-name="Trazado 73" d="M66.71,110.33l.91-.49a7,7,0,0,0-.13.78c0,.39.43.55.72.41l.2-.1c-.1.27-.19.54-.29.82a.47.47,0,0,0,.33.58l.13,0a7.45,7.45,0,0,0,.8-.14c-.22.65-.44,1.31-.65,2a1.23,1.23,0,0,0,.07,1.09c.15.22.31.3.31.57a4.52,4.52,0,0,1-.13.75,11.58,11.58,0,0,0,0,5.7.48.48,0,0,0,.61.32.52.52,0,0,0,.26-.2L71,120.23c.87,0,1.52-1.93,1.65-2.52a3.27,3.27,0,0,0,0-1.86,1.84,1.84,0,0,0-.48-.59c-.1-.14-.1-.1-.08-.32a4.17,4.17,0,0,1,.1-.6,12.31,12.31,0,0,1,.73-2c.29-.69.5-1.4.72-2.11A13.18,13.18,0,0,0,68,106a11.15,11.15,0,0,0-2,3.84.48.48,0,0,0,.35.58A.48.48,0,0,0,66.71,110.33Z" fill="#ed0c8d"/></g><path id="Trazado_26-2" data-name="Trazado 26-2" d="M54.68,15.16l.9,3.72,4,1-4,1-.9,3.72L53.77,21l-3.94-1,3.94-1Z" fill="#f2f3f4"/><path id="Trazado_27-2" data-name="Trazado 27-2" d="M216,15.16l.9,3.72,3.95,1-3.95,1-.9,3.72L215.05,21l-3.94-1,3.94-1Z" fill="#f2f3f4"/><path id="Trazado_40-2" data-name="Trazado 40-2" d="M327.08,77.9l.9,3.72,3.95,1-3.95,1-.9,3.72-.91-3.72-3.94-1,3.94-1Z" fill="#f2f3f4"/><path id="Trazado_30-2" data-name="Trazado 30-2" d="M50.87,54.56l.9,3.72,3.95,1-3.95,1-.9,3.73L50,60.35l-3.94-1,3.94-1Z" fill="#f2f3f4"/><g id="Grupo_23" data-name="Grupo 23"><path id="Trazado_74" data-name="Trazado 74" d="M353.83,105.31a5.44,5.44,0,0,0-.39-2l-.3.17a10.92,10.92,0,0,0-2.86,1.84.62.62,0,0,1-.58.16c-.1.22-.21.42-.31.63a.62.62,0,0,1-.84.22.41.41,0,0,1-.11-.07,6.79,6.79,0,0,1-1.12.7c-.74.39-1.36,1.16-2.25,1a4.58,4.58,0,0,1-.42.46.64.64,0,0,1-.8.07l-.18.21a5.69,5.69,0,0,0,1.7,1.46q4.11-2.43,8.45-4.44C353.83,105.57,353.83,105.43,353.83,105.31Z" fill="#1ed5f4"/><path id="Trazado_75" data-name="Trazado 75" d="M345.64,104.63c.06.3.09.75.19,1.13.36-.27,1-.93,1.16-1l1.5-1.29a.65.65,0,0,1,.92,0l.06.08c.92-.7,1.81-1.44,2.68-2.2a5.7,5.7,0,0,0-1.49-1A6.73,6.73,0,0,1,348,102q-2.53,1.11-5.18,2a.43.43,0,0,1-.19,0,5.81,5.81,0,0,0-.15,1.32,4.84,4.84,0,0,0,.19,1.41l1.87-2.36a.65.65,0,0,1,1.07.27Z" fill="#1ed5f4"/><path id="Trazado_76" data-name="Trazado 76" d="M348.43,100.39a8.48,8.48,0,0,0,.93-.52,5.94,5.94,0,0,0-1.19-.13,5.71,5.71,0,0,0-4.89,2.74c1.09-.37,2.18-.76,3.24-1.2C347.17,101,347.81,100.72,348.43,100.39Z" fill="#1ed5f4"/><path id="Trazado_77" data-name="Trazado 77" d="M348.18,110.86a5.69,5.69,0,0,0,5.31-3.63c-2.26,1.08-4.46,2.23-6.61,3.48A5.64,5.64,0,0,0,348.18,110.86Z" fill="#1ed5f4"/><path id="Trazado_78" data-name="Trazado 78" d="M344.65,108.41a4.69,4.69,0,0,0,.42-.47c.89.14,1.51-.62,2.25-1a6.79,6.79,0,0,0,1.12-.7.62.62,0,0,0,.87,0,1,1,0,0,0,.08-.11c.1-.21.21-.41.31-.62a.66.66,0,0,0,.58-.17,11.15,11.15,0,0,1,2.86-1.83l.3-.18a5.63,5.63,0,0,0-1.3-1.92c-.87.76-1.76,1.48-2.68,2.2a.66.66,0,0,0-.92-.16l-.06.06c-.5.41-1,.85-1.5,1.27-.13.11-.79.78-1.16,1-.1-.36-.13-.83-.19-1.13a.65.65,0,0,0-.81-.43.63.63,0,0,0-.26.16l-1.88,2.36a5.72,5.72,0,0,0,1,2l.17-.22A.66.66,0,0,0,344.65,108.41Z" fill="#d7f1f4"/><path id="Trazado_79" data-name="Trazado 79" d="M345.37,110.13a5.83,5.83,0,0,0,1.5.58c2.15-1.25,4.36-2.41,6.61-3.48a5.36,5.36,0,0,0,.33-1.54C350.93,107,348.11,108.52,345.37,110.13Z" fill="#d7f1f4"/><path id="Trazado_80" data-name="Trazado 80" d="M348,102a6.62,6.62,0,0,0,2.63-1.69,6.08,6.08,0,0,0-1.29-.42,8.48,8.48,0,0,1-.93.52,19.46,19.46,0,0,1-1.91.89c-1.06.45-2.14.82-3.24,1.2a5.53,5.53,0,0,0-.62,1.51.35.35,0,0,0,.17,0A50.77,50.77,0,0,0,348,102Z" fill="#d7f1f4"/></g><g id="Componente_2" data-name="Componente 2"><g id="Grupo_17" data-name="Grupo 17"><g id="Grupo_11" data-name="Grupo 11"><path id="Trazado_46" data-name="Trazado 46" d="M207.85,55a62.75,62.75,0,0,0-3.34-5.86c-8.34-13-20.69-20.65-30.94-20.52-4.39,9.16-2.41,23.45,5.93,36.34a46.19,46.19,0,0,0,4,5.44Z" fill="#c4c5ce"/></g><g id="Grupo_12" data-name="Grupo 12"><path id="Trazado_47" data-name="Trazado 47" d="M173.81,28.62h-.31c-4.57,9.1-2.78,23.45,5.38,36.46a51.93,51.93,0,0,0,3.94,5.5l12.11-7.39Z" fill="#b3b3ba"/></g><g id="Grupo_13" data-name="Grupo 13"><path id="Trazado_48" data-name="Trazado 48" d="M189.25,33.62a39.51,39.51,0,0,0-5.93-3l-6.61,29.62A48.22,48.22,0,0,0,179.49,65c.68,1,1.42,2.08,2.1,3.05Z" fill="#c1c4c9"/><path id="Trazado_49" data-name="Trazado 49" d="M198.77,41.63a51.12,51.12,0,0,0-5.69-5.32l-7.22,32.62,8-5.07Z" fill="#c1c4c9"/><path id="Trazado_50" data-name="Trazado 50" d="M194.32,63.55l13.53-8.61a60.57,60.57,0,0,0-3.34-5.86A57.38,57.38,0,0,0,199.08,42Z" fill="#c1c4c9"/></g><g id="Grupo_14" data-name="Grupo 14" opacity="0.18"><path id="Trazado_51" data-name="Trazado 51" d="M204.08,56.53c-.92-1.77-1.91-3.54-3-5.31-8.35-12.89-16.63-21.38-27.31-22.3-2.29,10.63.37,20.16,8.71,33.05a59.64,59.64,0,0,0,4.26,5.49" fill="none" stroke="#000" stroke-linecap="round" stroke-linejoin="round" stroke-dasharray="0.2 5"/></g><path id="Trazado_54" data-name="Trazado 54" d="M180.3,61.29c-.62-1-1.42-.85-1.73.25L174.3,77.6c-.3,1.16.25,1.47,1.18.8l9-6.84a2.43,2.43,0,0,0,.55-3.12Z" fill="#ff980a"/><path id="Trazado_55" data-name="Trazado 55" d="M199.51,48.9c-.62-1-.19-1.65,1-1.47l16.55,2.81c1.18.18,1.3.8.25,1.34l-10,5.19A2.44,2.44,0,0,1,204.2,56Z" fill="#ff980a"/><g id="Grupo_15" data-name="Grupo 15" opacity="0.18"><line id="Línea_4" data-name="Línea 4" x1="174.24" y1="29.72" x2="174.3" y2="29.72" fill="none" stroke="#000" stroke-linecap="round" stroke-linejoin="round"/><line id="Línea_5" data-name="Línea 5" x1="175.48" y1="31.55" x2="194.38" y2="60.68" stroke-dasharray="0.2 5.02" stroke="#000" stroke-linecap="round" stroke-linejoin="round" fill="none"/><line id="Línea_6" data-name="Línea 6" x1="194.94" y1="61.6" x2="195" y2="61.6" fill="none" stroke="#000" stroke-linecap="round" stroke-linejoin="round"/></g><ellipse id="Elipse_18" data-name="Elipse 18" cx="181.47" cy="40.83" rx="6.61" ry="6.54" fill="#60636d"/><ellipse id="Elipse_19" data-name="Elipse 19" cx="181.47" cy="40.83" rx="6.18" ry="6.11" fill="#191d2d"/><path id="Trazado_56" data-name="Trazado 56" d="M211.37,71.92h.43a3.52,3.52,0,0,0-.18-3.72A3.17,3.17,0,0,0,210.38,67a6.86,6.86,0,0,0,1.3-6.41,3.49,3.49,0,1,0-3.89-5.8h0A3.15,3.15,0,0,0,206.61,56a7,7,0,0,0-6.17,1.71,7.9,7.9,0,0,0-9.39,6h0a1.57,1.57,0,0,0-.31.18,8.16,8.16,0,0,0-3.09,3.54,5.75,5.75,0,0,0-2.23.8,5.44,5.44,0,0,0,5.44,9.41,8.44,8.44,0,0,0,5.81,1.09,7,7,0,0,0,1.17,2.81A8.43,8.43,0,0,0,203,85.18L209.33,95h2V71.92Z" fill="#e7eaf7"/><path id="Trazado_57" data-name="Trazado 57" d="M211.37,85.79l-17.3-26.63a7.77,7.77,0,0,0-3,4.58h0a1.57,1.57,0,0,0-.31.18,8.18,8.18,0,0,0-3.09,3.55,5.63,5.63,0,0,0-2.22.79,5.44,5.44,0,0,0,5.43,9.41,8.51,8.51,0,0,0,5.81,1.1,7,7,0,0,0,1.17,2.81,8.45,8.45,0,0,0,5.13,3.6L209.4,95h2Z" fill="#d6d9e5"/><g id="Grupo_658" data-name="Grupo 658"><g id="Dona"><path id="Trazado_357" data-name="Trazado 357" d="M185,40c-.14-.49-2.3-1.45-3.72-1.2a8.6,8.6,0,0,0-1.3.52c-2.08.75-2.05,2.2-1.21,3.35A3.91,3.91,0,0,0,182,43.94C186.09,43.7,185,40,185,40Zm-2.06.7s0,0,0,0C183.19,40.9,182.84,40.64,182.92,40.71Z" fill="#bf8320"/><path id="Trazado_1814" data-name="Trazado 1814" d="M185.08,41.11c-.1-.06-2,1.67-6.86.3a.13.13,0,0,0,0,.06c0,.23.14.4.19.62.7.71,3.13,1,6.48.12C185,41.9,185.18,41.18,185.08,41.11Z" fill="#b9640f"/></g><g id="Cubierta_de_chocolate" data-name="Cubierta de chocolate"><path id="Trazado_1776" data-name="Trazado 1776" d="M184.3,42.56c.06-.17,0-.43.09-.57s.35-.17.48-.26.23-.47.27-.72c.12-1-.26-1.94-1.86-2.61a4.4,4.4,0,0,0-4.16.39,2,2,0,0,0-1,2.2,1.67,1.67,0,0,0,.72,1.09c.18.06.31,0,.49.14a1.2,1.2,0,0,1,.3.38.74.74,0,0,0,.86.41c.23,0,.34,0,.53.11a.87.87,0,0,0,.47.2c.4,0,.58-.5,1-.2.16.1.3.23.5.13s.13-.31.29-.43C183.62,42.59,184.12,43.13,184.3,42.56Z" fill="#45322e"/></g><g id="Chispas_de_colores" data-name="Chispas de colores"><path id="Trazado_1744" data-name="Trazado 1744" d="M184,39.24a.19.19,0,0,0-.13,0h-.32v.17a1.06,1.06,0,0,1,.5.06C184,39.36,184,39.28,184,39.24Z" fill="#cc3131"/><path id="Trazado_1745" data-name="Trazado 1745" d="M184.82,41a.17.17,0,0,0-.14,0h-.31v.17a1.06,1.06,0,0,1,.5.06A.24.24,0,0,0,184.82,41Z" fill="#cc3131"/><path id="Trazado_1746" data-name="Trazado 1746" d="M184.54,41.47l-.25-.23-.6.21a.72.72,0,0,1,.25.32A3.36,3.36,0,0,1,184.54,41.47Z" fill="#ead4af"/><path id="Trazado_1747" data-name="Trazado 1747" d="M179.45,40l-.25-.23q-.3.12-.6.21a.72.72,0,0,1,.25.32A3.06,3.06,0,0,1,179.45,40Z" fill="#ead4af"/><path id="Trazado_1748" data-name="Trazado 1748" d="M183.58,40.66a.27.27,0,0,0-.12-.09l-.26-.13-.21.24a1.68,1.68,0,0,1,.58.21A.31.31,0,0,0,183.58,40.66Z" fill="#fc0"/><path id="Trazado_1749" data-name="Trazado 1749" d="M179.91,39.35l-.1.24.6.14a.36.36,0,0,1,.06-.2A2.81,2.81,0,0,1,179.91,39.35Z" fill="#5cb45f"/><path id="Trazado_1750" data-name="Trazado 1750" d="M181.36,38.67l-.53,0a.84.84,0,0,0-.12.23,2.09,2.09,0,0,1,.61,0A.37.37,0,0,1,181.36,38.67Z" fill="#cc3131"/><path id="Trazado_1751" data-name="Trazado 1751" d="M180,40.35h.26a.28.28,0,0,1,0-.25.46.46,0,0,0,0-.26l-.18,0Z" fill="#fc0"/><path id="Trazado_1752" data-name="Trazado 1752" d="M183.13,39.56l-.11-.14-.42.09.18.22Z" fill="#ead4af"/><path id="Trazado_1753" data-name="Trazado 1753" d="M180.24,41.86l-.11-.14-.43.09.18.21Z" fill="#ead4af"/><path id="Trazado_1754" data-name="Trazado 1754" d="M184,40a.12.12,0,0,0,0-.13.12.12,0,0,0-.13,0l0,0a.84.84,0,0,0-.2.4.39.39,0,0,1,.23.07.35.35,0,0,1,.09-.23A.38.38,0,0,0,184,40Z" fill="#5cb45f"/><path id="Trazado_1755" data-name="Trazado 1755" d="M181.59,42.27a.11.11,0,0,0,0-.12.11.11,0,0,0-.13,0l0,0a1,1,0,0,0-.21.4.35.35,0,0,1,.23.07.46.46,0,0,1,.09-.23A.34.34,0,0,0,181.59,42.27Z" fill="#5cb45f"/><path id="Trazado_1756" data-name="Trazado 1756" d="M180,41.31l.19.14.27-.37-.19,0Z" fill="#cc3131"/><path id="Trazado_1757" data-name="Trazado 1757" d="M179,40.58l0,0,.28.11a1.34,1.34,0,0,1,.29-.45.67.67,0,0,1-.28-.06l-.3.32S179,40.57,179,40.58Z" fill="#fc0"/><path id="Trazado_1758" data-name="Trazado 1758" d="M183.39,42.27l0,0,.28.1A1.2,1.2,0,0,1,184,42a.87.87,0,0,1-.28-.05l-.3.31S183.38,42.25,183.39,42.27Z" fill="#fc0"/><path id="Trazado_1759" data-name="Trazado 1759" d="M183,42.38a1.12,1.12,0,0,1,.29-.36l-.22-.11-.33.31Z" fill="#5cb45f"/><path id="Trazado_1760" data-name="Trazado 1760" d="M180.38,42.33l.23.12a3,3,0,0,1,.31-.39.11.11,0,0,0-.09-.05Z" fill="#6bc3c3"/><path id="Trazado_1761" data-name="Trazado 1761" d="M179.22,39.19l-.3.32.21.12.27-.37Z" fill="#cc3131"/><path id="Trazado_1762" data-name="Trazado 1762" d="M180.22,38.76a.42.42,0,0,0-.16,0l-.27,0,.06.24a1.08,1.08,0,0,1,.5-.09A.26.26,0,0,0,180.22,38.76Z" fill="#6bc3c3"/><path id="Trazado_1763" data-name="Trazado 1763" d="M184.54,40.61a.15.15,0,0,0,.06,0,.13.13,0,0,0,.12,0,.12.12,0,0,0,0-.11,1.7,1.7,0,0,1-.26-.34l-.26.1Z" fill="#6bc3c3"/><path id="Trazado_1764" data-name="Trazado 1764" d="M182.55,41.89l.06,0a.11.11,0,0,0,.12,0,.1.1,0,0,0,0-.1,1.77,1.77,0,0,1-.26-.35l-.26.11Z" fill="#6bc3c3"/><path id="Trazado_1765" data-name="Trazado 1765" d="M183.07,39.36a.15.15,0,0,0,.06,0,.13.13,0,0,0,.12,0,.12.12,0,0,0,0-.11A1.46,1.46,0,0,1,183,39l-.26.1Z" fill="#6bc3c3"/><path id="Trazado_1766" data-name="Trazado 1766" d="M181.1,39.49l.06,0a.13.13,0,0,0,.12,0,.12.12,0,0,0,0-.11,2.18,2.18,0,0,1-.26-.34l-.26.1Z" fill="#6bc3c3"/><path id="Trazado_1767" data-name="Trazado 1767" d="M183.26,38.64a1.09,1.09,0,0,1-.4,0l-.07.2a1.73,1.73,0,0,1,.51.05A.39.39,0,0,1,183.26,38.64Z" fill="#5cb45f"/><path id="Trazado_1768" data-name="Trazado 1768" d="M180.93,41.05a.49.49,0,0,1-.25-.34l-.24.09a2,2,0,0,1,.3.42A1.54,1.54,0,0,0,180.93,41.05Z" fill="#ead4af"/><path id="Trazado_1769" data-name="Trazado 1769" d="M181.81,38.52a.53.53,0,0,1-.25-.35l-.24.09a1.84,1.84,0,0,1,.3.43Z" fill="#ead4af"/><path id="Trazado_1770" data-name="Trazado 1770" d="M182.68,42.69a.53.53,0,0,1-.25-.34l-.25.08a1.62,1.62,0,0,1,.31.43Z" fill="#ead4af"/><path id="Trazado_1771" data-name="Trazado 1771" d="M182.55,41.4a.18.18,0,0,0,.07.08.14.14,0,0,0,.11,0l.15-.36a.75.75,0,0,0-.21,0,.42.42,0,0,0-.12.26Z" fill="#cc3131"/><path id="Trazado_1772" data-name="Trazado 1772" d="M181.64,41.16a.05.05,0,0,0-.06,0l-.17,0c-.1.12-.2.23-.29.35l.2.09.3-.32S181.64,41.18,181.64,41.16Z" fill="#5cb45f"/><path id="Trazado_1773" data-name="Trazado 1773" d="M179,41.27a1.51,1.51,0,0,1,.45.29l.17-.24a2.3,2.3,0,0,1-.42-.2Z" fill="#5cb45f"/><path id="Trazado_1819" data-name="Trazado 1819" d="M181.45,40.61l.07,0a.11.11,0,0,0,.11,0,.12.12,0,0,0,.05-.1,2.88,2.88,0,0,1-.27-.34l-.26.1Z" fill="#6bc3c3"/><path id="Trazado_1820" data-name="Trazado 1820" d="M182.34,40.57a.11.11,0,0,0,.07.08.11.11,0,0,0,.11,0l.15-.36a.74.74,0,0,0-.21,0,.42.42,0,0,0-.12.26Z" fill="#cc3131"/><path id="Trazado_1821" data-name="Trazado 1821" d="M182.2,39.92l-.11-.14-.43.09.18.22Z" fill="#ead4af"/><path id="Trazado_1822" data-name="Trazado 1822" d="M181.79,39.4l0,0,.28.11a1.36,1.36,0,0,1,.28-.46.69.69,0,0,1-.28,0l-.3.31A.14.14,0,0,0,181.79,39.4Z" fill="#fc0"/></g></g></g><g id="Rocket" style="isolation:isolate"><text transform="translate(89.78 97.37)" font-size="37.87" fill="#fff" font-family="Rockwell" style="isolation:isolate">Roc<tspan x="64.31" y="0" letter-spacing="-0.03em">k</tspan><tspan x="84.89" y="0">et</tspan></text></g><g id="Donuts" style="isolation:isolate"><text transform="translate(228.56 99.37)" font-size="29.89" fill="#ff980a" font-family="Rockwell" style="isolation:isolate">Do<tspan x="38.93" y="0" letter-spacing="-0.01em">n</tspan><tspan x="55.78" y="0">uts</tspan></text></g></g><path id="Trazado_2140-2" data-name="Trazado 2140-2" d="M371.07,10.14l.91,3.73,3.95,1-3.95,1-.91,3.72-.9-3.72-3.94-1,3.94-1Z" fill="#f2f3f4"/><path id="Trazado_2141-2" data-name="Trazado 2141-2" d="M374.07,58.92l.35,1.42,1.5.4-1.5.4-.35,1.41-.34-1.42-1.5-.39,1.5-.4Z" fill="#f2f3f4"/><path id="Trazado_2142-2" data-name="Trazado 2142-2" d="M311.07,47l.35,1.42,1.5.4-1.5.4-.35,1.41-.34-1.42-1.5-.39,1.5-.4Z" fill="#f2f3f4"/><path id="Trazado_2143-2" data-name="Trazado 2143-2" d="M111.07,107.75l.35,1.42,1.5.4-1.5.4-.35,1.41-.34-1.42-1.5-.39,1.5-.4Z" fill="#f2f3f4"/><path id="Trazado_2144-2" data-name="Trazado 2144-2" d="M28.07,105.76l.35,1.42,1.5.4-1.5.39-.35,1.42L27.73,108l-1.5-.4,1.5-.4Z" fill="#f2f3f4"/><path id="Trazado_2145-2" data-name="Trazado 2145-2" d="M135.86,115.53l.91,3.73,3.95,1-3.95,1-.91,3.72-.9-3.72-3.94-1,3.94-1Z" fill="#f2f3f4"/></g><g id="Box"><g id="Rectángulo_2-2" data-name="Rectángulo 2-2"><path d="M77.84,131h257a3,3,0,0,1,3,3v49.82h-263V134A3,3,0,0,1,77.84,131Z" fill="#fff"/><path d="M77.84,131.28h257a2.74,2.74,0,0,1,2.75,2.74v49.32a.25.25,0,0,1-.25.25h-262a.25.25,0,0,1-.25-.25V134A2.74,2.74,0,0,1,77.84,131.28Z" fill="none" stroke="#c7c8d6" stroke-width="0.5"/></g><g id="_Qué_deseas_ordenar_" data-name=" Qué deseas ordenar " style="isolation:isolate"><text transform="translate(167.08 162.23)" font-size="16.94" fill="#211d1d" font-family="Rockwell" style="isolation:isolate">Tu <tspan x="23.48" y="0" letter-spacing="-0.03em">P</tspan><tspan x="32.69" y="0">edido</tspan></text></g><line id="Línea_7" data-name="Línea 7" x1="60.97" y1="184.5" x2="353.03" y2="184.5" fill="none" stroke="#211d1d"/></g></g></svg>