<svg xmlns="http://www.w3.org/2000/svg" xmlns:xlink="http://www.w3.org/1999/xlink" width="432.407" height="188.711" viewBox="0 0 432.407 188.711"><defs><filter id="a" x="0" y="0" width="432.407" height="184.065" filterUnits="userSpaceOnUse"><feOffset input="SourceAlpha"/><feGaussianBlur stdDeviation="3" result="b"/><feFlood flood-color="#313045"/><feComposite operator="in" in2="b"/><feComposite in="SourceGraphic"/></filter><filter id="c" x="51.569" y="20.569" width="18.862" height="18.862" filterUnits="userSpaceOnUse"><feOffset input="SourceAlpha"/><feGaussianBlur stdDeviation="1.5" result="d"/><feFlood flood-color="#fff"/><feComposite operator="in" in2="d"/><feComposite in="SourceGraphic"/></filter><filter id="e" x="215.569" y="20.569" width="18.862" height="18.862" filterUnits="userSpaceOnUse"><feOffset input="SourceAlpha"/><feGaussianBlur stdDeviation="1.5" result="f"/><feFlood flood-color="#fff"/><feComposite operator="in" in2="f"/><feComposite in="SourceGraphic"/></filter><filter id="g" x="328.569" y="85.569" width="18.862" height="18.862" filterUnits="userSpaceOnUse"><feOffset input="SourceAlpha"/><feGaussianBlur stdDeviation="1.5" result="h"/><feFlood flood-color="#fff"/><feComposite operator="in" in2="h"/><feComposite in="SourceGraphic"/></filter><filter id="i" x="160.569" y="95.569" width="18.862" height="18.862" filterUnits="userSpaceOnUse"><feOffset input="SourceAlpha"/><feGaussianBlur stdDeviation="1.5" result="j"/><feFlood flood-color="#fff"/><feComposite operator="in" in2="j"/><feComposite in="SourceGraphic"/></filter></defs><g transform="translate(972 -15)"><g transform="matrix(1, 0, 0, 1, -972, 15)" filter="url(#a)"><path d="M0,0H413.793l.615,166.065S310.474,139.89,207.026,139.89.615,166.065.615,166.065Z" transform="translate(9 9)" fill="#313045"/></g><g transform="matrix(0.848, 0.53, -0.53, 0.848, -763.944, 133.924)"><path d="M55.777,102.336c-2.4.37-4.735.185-7.14.962a15.817,15.817,0,0,0-5.993,3.625,1.739,1.739,0,0,1-.444.333A25.6,25.6,0,0,0,76.346,92.2c-2.923.777-5.956,1.258-8.657,2.812C63.768,97.231,60.4,101.6,55.777,102.336Z" transform="translate(-26.588 -58.091)" fill="#2866e5"/><path d="M13.429,49.356a19.842,19.842,0,0,1,11.912-5.438,17.007,17.007,0,0,0,4.106-.407,12.154,12.154,0,0,0,3.366-2.072c1.739-1.369,3.477-2.775,5.364-4C42.136,34.928,46.5,34.521,50.83,33a27.7,27.7,0,0,0,.37-4.328,25.729,25.729,0,0,0-.333-4.143.535.535,0,0,1-.259.074c-2.7.888-5.512,1.258-8.287,1.924a22.1,22.1,0,0,0-7.88,3.588c-2.257,1.628-4.328,3.477-6.585,5.031-1.776,1.184-4.291,2.59-5.845.3a8.188,8.188,0,0,1-.592-1.295c-.074-.185-.111-.407-.185-.592,0-.037-.037-.074-.037-.111-1.036,0-2.516,1.85-3.219,2.442q-3.773,3.274-7.325,6.77c-1.7,1.665-4.328-.962-2.627-2.627,2.22-2.146,4.476-4.254,6.807-6.289,1.739-1.517,3.847-3.921,6.363-4.032a3.408,3.408,0,0,1,2.886,1.369,16.2,16.2,0,0,1,.777,1.591c.037,0,.037,0,.074-.037.259-.148.518-.333.777-.481.592-.407,1.184-.814,1.739-1.258,1.036-.777,2-1.591,3.034-2.368a29.417,29.417,0,0,1,6.622-4.18,40.97,40.97,0,0,1,8.1-2.183,34.624,34.624,0,0,0,4.735-1.258,25.271,25.271,0,0,0-5.845-9.84,52.015,52.015,0,0,1-4.328,3.847,54.286,54.286,0,0,1-6.03,5.253,3.016,3.016,0,0,1-2.553.592c-.851-.222-1.369-1.073-2.257-1.184-2.109-.3-4.661,2-6.252,3.071-2.146,1.443-4.217,3-6.252,4.587A113.651,113.651,0,0,0,5.216,37.518C3.588,39.257.962,36.63,2.59,34.891A111.551,111.551,0,0,1,22.973,17.985a11.589,11.589,0,0,1,5.4-2.109,5.188,5.188,0,0,1,2.479.444c.333.148.592.37.925.518.555.259.074.259.777-.444,1.554-1.628,3.477-3,5.142-4.513.851-.777,1.7-1.517,2.516-2.294a14.426,14.426,0,0,1,1.073-1.036A24.619,24.619,0,0,0,35.071,5a1.808,1.808,0,0,1-.037.888,2.094,2.094,0,0,1-.666,2.553c-3.255,2.294-7.177,2.96-10.876,4.217A43.772,43.772,0,0,0,13.429,17.8,90.415,90.415,0,0,0,0,29.305,25.526,25.526,0,0,0,12.911,50.984,1.7,1.7,0,0,1,13.429,49.356Z" transform="translate(0 -3.15)" fill="#2866e5"/><path d="M22.228,6.363c2.294-.888,4.735-1.406,7.029-2.22a1.642,1.642,0,0,1,.592-1.406,1.547,1.547,0,0,1,.925-1.7,6.944,6.944,0,0,1,1.11-.444A23.7,23.7,0,0,0,26.482,0,25.566,25.566,0,0,0,1.4,20.532,91.709,91.709,0,0,1,11.943,11.8,48.841,48.841,0,0,1,22.228,6.363Z" transform="translate(-0.882)" fill="#2866e5"/><path d="M13.429,15.658a43.771,43.771,0,0,1,10.062-5.142c3.7-1.295,7.621-1.924,10.876-4.217a2.094,2.094,0,0,0,.666-2.553,1.808,1.808,0,0,0,.037-.888A28.9,28.9,0,0,0,31,1.6a6.944,6.944,0,0,0-1.11.444,1.526,1.526,0,0,0-.925,1.7,1.642,1.642,0,0,0-.592,1.406c-2.294.814-4.735,1.369-7.029,2.22a48.984,48.984,0,0,0-10.284,5.475A81.764,81.764,0,0,0,.518,21.54,25.321,25.321,0,0,0,0,26.608v.555A90.414,90.414,0,0,1,13.429,15.658Z" transform="translate(0 -1.008)" fill="#eaeef4"/><path d="M43.806,15.636c-.851.777-1.665,1.554-2.516,2.294-1.665,1.517-3.625,2.886-5.142,4.513-.666.74-.185.7-.777.444-.333-.148-.592-.37-.925-.518a5.674,5.674,0,0,0-2.479-.444,11.589,11.589,0,0,0-5.4,2.109A110.085,110.085,0,0,0,6.22,40.94c-1.628,1.739.962,4.328,2.627,2.627A108.528,108.528,0,0,1,20.019,33.319c2.035-1.628,4.106-3.145,6.252-4.587,1.591-1.073,4.18-3.366,6.252-3.071.888.111,1.406.962,2.257,1.184a2.9,2.9,0,0,0,2.553-.592A62.63,62.63,0,0,0,43.4,21.037a52.015,52.015,0,0,0,4.328-3.847,27.228,27.228,0,0,0-2.849-2.59A13.927,13.927,0,0,0,43.806,15.636Z" transform="translate(-3.593 -9.199)" fill="#eaeef4"/><path d="M49.939,51.64a29.417,29.417,0,0,0-6.622,4.18c-1,.777-2,1.591-3.034,2.368-.555.444-1.147.851-1.739,1.258a8.854,8.854,0,0,1-.777.481c-.037,0-.037,0-.074.037a16.2,16.2,0,0,0-.777-1.591A3.408,3.408,0,0,0,34.031,57c-2.516.111-4.624,2.516-6.363,4.032-2.331,2.035-4.587,4.143-6.807,6.289-1.7,1.665.925,4.291,2.627,2.627,2.368-2.331,4.846-4.587,7.325-6.77.7-.592,2.183-2.442,3.219-2.442,0,.037.037.074.037.111.074.185.111.407.185.592a4.533,4.533,0,0,0,.592,1.295c1.554,2.294,4.069.888,5.845-.3,2.294-1.554,4.365-3.4,6.585-5.031a22.1,22.1,0,0,1,7.88-3.588c2.738-.666,5.586-1.036,8.287-1.924a.535.535,0,0,1,.259-.074,19.233,19.233,0,0,0-.888-3.625,40.946,40.946,0,0,1-4.735,1.258A40.643,40.643,0,0,0,49.939,51.64Z" transform="translate(-12.796 -30.369)" fill="#eaeef4"/><path d="M60.1,85.239c-1.887,1.184-3.588,2.627-5.364,4a11.638,11.638,0,0,1-3.366,2.072,17.007,17.007,0,0,1-4.106.407,19.745,19.745,0,0,0-11.912,5.438,1.638,1.638,0,0,0-.518,1.591,25.546,25.546,0,0,0,2.664,1.332,1.739,1.739,0,0,0,.444-.333,16.1,16.1,0,0,1,5.993-3.625c2.368-.777,4.7-.592,7.14-.962,4.624-.74,7.991-5.105,11.912-7.362,2.7-1.554,5.7-2.035,8.657-2.812a22.351,22.351,0,0,0,1.073-4.18C68.387,82.317,64.059,82.724,60.1,85.239Z" transform="translate(-21.922 -50.909)" fill="#eaeef4"/></g><g transform="translate(-915.8 133.2)"><path d="M26.8,13.4a13.338,13.338,0,0,0-2.688-8.044c-.224.73-.438,1.461-.73,2.181a15.619,15.619,0,0,0-.75,2.084,3.351,3.351,0,0,0-.1.614c-.019.224-.029.195.088.331a2.2,2.2,0,0,1,.487.623,3.386,3.386,0,0,1-.029,1.918c-.136.614-.789,2.61-1.685,2.62l-1.13,2.259a.489.489,0,0,1-.886-.117,12.261,12.261,0,0,1-.019-5.911,5.2,5.2,0,0,0,.127-.779c0-.292-.175-.37-.312-.594a1.345,1.345,0,0,1-.068-1.13c.2-.691.428-1.373.652-2.055a5.388,5.388,0,0,1-.808.146.485.485,0,0,1-.467-.614c.1-.282.195-.565.292-.857l-.2.107c-.292.146-.779-.019-.73-.419.029-.273.078-.536.127-.808-.312.166-.623.341-.925.506a.49.49,0,0,1-.711-.545A11.793,11.793,0,0,1,18.347.945,13.4,13.4,0,0,0,0,13.4a13.711,13.711,0,0,0,.516,3.71,24.431,24.431,0,0,1,6.836-3.457C7.927,13.478,9,13,9.359,13.77c.3.652-.341,1.441-.575,2.006a14.148,14.148,0,0,0-.506,1.4c-.068.234-.127.458-.185.691-.019.078-.039.156-.049.224.127-.078.253-.166.273-.175.2-.146.4-.292.6-.438l1.2-.876a.491.491,0,0,1,.662.175,1.368,1.368,0,0,1,.2.993c-.019.175-.195.74-.049.876.234.2,1.149-.39,1.383-.5.487-.234.984-.458,1.47-.691a.5.5,0,0,1,.662.175,4.528,4.528,0,0,1,.282,2.191,9.539,9.539,0,0,0-.049,1.178c.039.487.282.351.623.156.263-.156.623-.438.954-.341a.731.731,0,0,1,.487.594,5.318,5.318,0,0,1-.351,2.074,15.3,15.3,0,0,1-1.12,3.184A13.415,13.415,0,0,0,26.8,13.4Z" fill="#6722ea"/><path d="M21.734,145.083a.731.731,0,0,0-.487-.594c-.331-.088-.691.195-.954.341-.351.195-.594.331-.623-.156a7.952,7.952,0,0,1,.049-1.178,4.528,4.528,0,0,0-.282-2.191.5.5,0,0,0-.662-.175c-.487.234-.984.458-1.47.691-.234.107-1.149.7-1.383.5-.156-.136.029-.7.049-.876a1.417,1.417,0,0,0-.2-.993.491.491,0,0,0-.662-.175l-1.2.876c-.2.146-.4.292-.6.438-.019.01-.146.1-.273.175.019-.078.029-.156.049-.224.058-.234.117-.467.185-.691a14.146,14.146,0,0,1,.506-1.4c.243-.565.876-1.354.575-2.006-.351-.769-1.422-.3-2.006-.117A24.431,24.431,0,0,0,5.5,140.779a13.4,13.4,0,0,0,12.884,9.69,13.62,13.62,0,0,0,1.9-.136,15.3,15.3,0,0,0,1.12-3.184A5.771,5.771,0,0,0,21.734,145.083Z" transform="translate(-4.964 -123.668)" fill="#ed0c8d"/><path d="M168.159,14.128c.312-.166.623-.341.925-.506a7.351,7.351,0,0,0-.127.808c-.049.4.438.565.73.419l.2-.107c-.1.282-.195.565-.292.857a.483.483,0,0,0,.467.614,5.388,5.388,0,0,0,.808-.146c-.224.682-.448,1.363-.652,2.055a1.28,1.28,0,0,0,.068,1.13c.146.224.312.312.312.594a5.2,5.2,0,0,1-.127.779,12.142,12.142,0,0,0,.019,5.911.49.49,0,0,0,.886.117l1.13-2.259c.886-.01,1.548-2.006,1.685-2.62a3.387,3.387,0,0,0,.029-1.918,1.927,1.927,0,0,0-.487-.623c-.107-.136-.1-.107-.088-.331a4.462,4.462,0,0,1,.1-.614,13.3,13.3,0,0,1,.75-2.084c.292-.711.506-1.441.73-2.181A13.358,13.358,0,0,0,169.464,9.6a11.793,11.793,0,0,0-2.016,3.973A.491.491,0,0,0,168.159,14.128Z" transform="translate(-151.126 -8.665)" fill="#ed0c8d"/></g><g transform="matrix(1, 0, 0, 1, -972, 15)" filter="url(#c)"><path d="M4.931,0l.92,3.857L9.862,4.931,5.852,6.005l-.92,3.857-.92-3.857L0,4.931,4.011,3.857Z" transform="translate(56.07 25.07)" fill="#f2f3f4"/></g><g transform="matrix(1, 0, 0, 1, -972, 15)" filter="url(#e)"><path d="M4.931,0l.92,3.857L9.862,4.931,5.852,6.005l-.92,3.857-.92-3.857L0,4.931,4.011,3.857Z" transform="translate(220.07 25.07)" fill="#f2f3f4"/></g><g transform="matrix(1, 0, 0, 1, -972, 15)" filter="url(#g)"><path d="M4.931,0l.92,3.857L9.862,4.931,5.852,6.005l-.92,3.857-.92-3.857L0,4.931,4.011,3.857Z" transform="translate(333.07 90.07)" fill="#f2f3f4"/></g><g transform="matrix(1, 0, 0, 1, -972, 15)" filter="url(#i)"><path d="M4.931,0l.92,3.857L9.862,4.931,5.852,6.005l-.92,3.857-.92-3.857L0,4.931,4.011,3.857Z" transform="translate(165.07 100.07)" fill="#f2f3f4"/></g><g transform="translate(-618.307 127.693)"><path d="M19.436,30.311a5.671,5.671,0,0,0-.4-2.111,2.281,2.281,0,0,1-.3.181,10.992,10.992,0,0,0-2.914,1.9.606.606,0,0,1-.583.168c-.1.22-.22.427-.324.648a.618.618,0,0,1-.958.155,6.821,6.821,0,0,1-1.14.725c-.751.414-1.386,1.2-2.293,1.062a4.922,4.922,0,0,1-.427.479.633.633,0,0,1-.816.065l-.181.22a5.913,5.913,0,0,0,1.736,1.515,94.2,94.2,0,0,1,8.588-4.6C19.436,30.583,19.436,30.441,19.436,30.311Z" transform="translate(-7.921 -24.547)" fill="#1ed5f4"/><path d="M3.186,8.895c.065.311.091.777.194,1.166.363-.272,1.036-.958,1.179-1.075L6.088,7.651a.653.653,0,0,1,1,.1c.933-.725,1.839-1.49,2.72-2.28A5.658,5.658,0,0,0,8.29,4.4,6.844,6.844,0,0,1,5.621,6.149,55.416,55.416,0,0,1,.35,8.2a.574.574,0,0,1-.194.039A5.918,5.918,0,0,0,0,9.594a5.467,5.467,0,0,0,.194,1.464L2.1,8.61A.659.659,0,0,1,3.186,8.895Z" transform="translate(0 -3.83)" fill="#1ed5f4"/><path d="M11.333.674A7.726,7.726,0,0,0,12.278.13a6.127,6.127,0,0,0-1.2-.13A5.773,5.773,0,0,0,6.1,2.837c1.1-.389,2.215-.79,3.29-1.243C10.051,1.308,10.7,1.01,11.333.674Z" transform="translate(-5.31)" fill="#1ed5f4"/><path d="M35.621,63.656a5.772,5.772,0,0,0,5.4-3.756c-2.293,1.114-4.533,2.306-6.722,3.6A5.588,5.588,0,0,0,35.621,63.656Z" transform="translate(-29.857 -52.141)" fill="#1ed5f4"/><path d="M3.395,20.118a4.922,4.922,0,0,0,.427-.479c.907.142,1.541-.648,2.293-1.062a7.394,7.394,0,0,0,1.14-.725.617.617,0,0,0,.958-.155c.1-.22.22-.427.324-.648a.638.638,0,0,0,.583-.168,11.545,11.545,0,0,1,2.914-1.9c.1-.065.194-.117.3-.181A5.774,5.774,0,0,0,11.011,12.8c-.881.79-1.787,1.541-2.72,2.28a.662.662,0,0,0-1-.1c-.505.427-1.023.881-1.528,1.321-.13.117-.8.8-1.179,1.075-.1-.376-.13-.855-.194-1.166A.654.654,0,0,0,3.3,15.922L1.4,18.37a5.962,5.962,0,0,0,1,2.034l.181-.22A.649.649,0,0,0,3.395,20.118Z" transform="translate(-1.219 -11.142)" fill="#d7f1f4"/><path d="M22.5,52.2a5.6,5.6,0,0,0,1.528.6q3.283-1.943,6.722-3.6a5.916,5.916,0,0,0,.337-1.593C28.147,48.986,25.285,50.527,22.5,52.2Z" transform="translate(-19.586 -41.435)" fill="#d7f1f4"/><path d="M6.653,3.189A6.7,6.7,0,0,0,9.321,1.44,5.763,5.763,0,0,0,8.013,1a7.726,7.726,0,0,1-.946.544c-.635.337-1.282.648-1.943.92-1.075.466-2.176.855-3.29,1.243A6.124,6.124,0,0,0,1.2,5.274a.447.447,0,0,0,.168-.039A51.2,51.2,0,0,0,6.653,3.189Z" transform="translate(-1.045 -0.87)" fill="#d7f1f4"/></g><g transform="translate(-878 34)"><g transform="translate(85.205)"><g transform="translate(0.264)"><path d="M175.671,27.335a64.394,64.394,0,0,0-3.417-6.075C163.712,7.846,151.056-.127,140.552,0c-4.493,9.492-2.468,24.3,6.075,37.65a47.743,47.743,0,0,0,4.113,5.632Z" transform="translate(-138.229 0.002)" fill="#c4c5ce"/></g><g transform="translate(0 0.001)"><path d="M140.652,0h-.316c-4.683,9.428-2.848,24.3,5.505,37.777a54.058,54.058,0,0,0,4.05,5.7l12.4-7.657Z" transform="translate(-137.813)" fill="#b3b3ba"/></g><g transform="translate(5.814 2.026)"><path d="M159.845,6.364A39.858,39.858,0,0,0,153.771,3.2L147,33.89a49.393,49.393,0,0,0,2.848,4.936c.7,1.076,1.455,2.151,2.151,3.164Z" transform="translate(-147 -3.2)" fill="#c1c4c9"/><path d="M175.025,18.105A52.738,52.738,0,0,0,169.2,12.6l-7.4,33.79,8.163-5.252Z" transform="translate(-152.435 -6.652)" fill="#c1c4c9"/><path d="M175.5,44.237l13.858-8.922a64.394,64.394,0,0,0-3.417-6.075,60.356,60.356,0,0,0-5.568-7.34Z" transform="translate(-157.466 -10.067)" fill="#c1c4c9"/></g><g transform="translate(1.973 0.318)" opacity="0.18"><path d="M172.8,29.1c-.949-1.835-1.962-3.67-3.1-5.505C161.16,10.245,152.681,1.449,141.734.5c-2.341,11.01.38,20.882,8.922,34.233a61.825,61.825,0,0,0,4.366,5.7" transform="translate(-140.931 -0.5)" fill="none" stroke="#000" stroke-linecap="round" stroke-linejoin="round" stroke-miterlimit="10" stroke-width="1" stroke-dasharray="0.2 5"/><path d="M191.3,45.7" transform="translate(-159.428 -17.098)" fill="none" stroke="#000" stroke-linecap="round" stroke-linejoin="round" stroke-miterlimit="10" stroke-width="1" stroke-dasharray="0.2 5"/><path d="M163.3,63.7" transform="translate(-149.145 -23.708)" fill="none" stroke="#000" stroke-linecap="round" stroke-linejoin="round" stroke-miterlimit="10" stroke-width="1" stroke-dasharray="0.2 5"/></g><path d="M149.187,53.1c-.633-1.012-1.455-.886-1.772.253L143.049,70c-.316,1.2.253,1.519,1.2.823l9.175-7.087A2.535,2.535,0,0,0,154,60.505Z" transform="translate(-139.703 -19.246)" fill="#ff980a"/><path d="M183.733,32.3c-.633-1.012-.19-1.709,1.012-1.519L201.7,33.693c1.2.19,1.329.823.253,1.392l-10.251,5.379a2.477,2.477,0,0,1-3.164-.823Z" transform="translate(-154.57 -11.291)" fill="#ff980a"/><g transform="translate(3.282 1.14)" opacity="0.18"><line x2="0.063" fill="none" stroke="#000" stroke-linecap="round" stroke-linejoin="round" stroke-width="1"/><line x2="19.363" y2="30.184" transform="translate(1.266 1.898)" fill="none" stroke-dasharray="0.201 5.018" stroke-linecap="round" stroke-linejoin="round" stroke-width="1" stroke="#000"/><line x2="0.063" transform="translate(21.198 33.031)" stroke-width="1" stroke="#000" stroke-linecap="round" stroke-linejoin="round" fill="none"/></g><circle cx="6.771" cy="6.771" r="6.771" transform="translate(3.915 5.886)" fill="#60636d"/><circle cx="6.328" cy="6.328" r="6.328" transform="translate(4.358 6.329)" fill="#191d2d"/><path d="M186.181,60.279h.443a3.7,3.7,0,0,0-.19-3.86,3.29,3.29,0,0,0-1.266-1.2,7.164,7.164,0,0,0,1.329-6.644,3.684,3.684,0,0,0,1.012-4.936,3.6,3.6,0,0,0-5-1.076,3.29,3.29,0,0,0-1.2,1.266,7.078,7.078,0,0,0-5.252.949,6.908,6.908,0,0,0-1.076.823,8.093,8.093,0,0,0-9.618,6.2h0a1.384,1.384,0,0,0-.316.19,8.382,8.382,0,0,0-3.164,3.67,5.805,5.805,0,0,0-2.278.823,5.674,5.674,0,0,0-1.708,7.783,5.572,5.572,0,0,0,7.277,1.962,8.554,8.554,0,0,0,5.948,1.139,7.308,7.308,0,0,0,1.2,2.911,8.632,8.632,0,0,0,5.252,3.733L184.093,84.2h2.025V60.279Z" transform="translate(-144.869 -15.414)" fill="#e7eaf7"/><path d="M186.218,77.589,168.5,50a8.093,8.093,0,0,0-3.037,4.746h0a1.384,1.384,0,0,0-.316.19,8.382,8.382,0,0,0-3.164,3.67,5.805,5.805,0,0,0-2.278.823A5.674,5.674,0,0,0,158,67.212a5.572,5.572,0,0,0,7.277,1.962,8.554,8.554,0,0,0,5.948,1.139,7.308,7.308,0,0,0,1.2,2.911,8.632,8.632,0,0,0,5.252,3.733l6.518,10.188h2.025Z" transform="translate(-144.905 -18.36)" fill="#d6d9e5"/><g transform="translate(-640.602 -248.999)"><g transform="translate(647.107 257.641)"><path d="M5.028.081C4.6-.223,2.24.351,1.265,1.452A8.06,8.06,0,0,0,.549,2.691C-.655,4.623.3,5.779,1.71,6.194a3.993,3.993,0,0,0,3.4-1.006A3.047,3.047,0,0,0,5.028.081ZM3.816,1.953c.013,0,.024.005.036.007C4.157,1.939,3.706,1.943,3.816,1.953Z" transform="matrix(0.788, 0.616, -0.616, 0.788, 3.864, 0)" fill="#bf8320"/><path d="M5.345,0C5.221.009,4.817,2.6,0,4.574a.419.419,0,0,0,.022.053c.182.163.375.24.56.385C1.6,5.145,3.77,3.893,5.88,1.02,5.8.675,5.468-.009,5.345,0Z" transform="matrix(0.788, 0.616, -0.616, 0.788, 3.671, 1.016)" fill="#b9640f"/></g><g transform="translate(647 257)"><path d="M6.723,2.92c-.062-.168-.283-.344-.291-.514s.174-.359.224-.518c.086-.275-.114-.533-.248-.757C5.863.223,4.96-.291,3.246.175A4.476,4.476,0,0,0,.138,3.118,2.114,2.114,0,0,0,.745,5.531a1.663,1.663,0,0,0,1.272.438c.188-.061.262-.188.486-.188a1.12,1.12,0,0,1,.485.121.772.772,0,0,0,.958-.208c.182-.156.247-.248.493-.247a.823.823,0,0,0,.506-.134c.337-.234.149-.777.687-.8.2-.01.39,0,.489-.2s-.092-.343-.038-.536C6.193,3.373,6.942,3.511,6.723,2.92Z" transform="matrix(0.788, 0.616, -0.616, 0.788, 3.692, 0)" fill="#45322e"/></g><g transform="translate(648.281 258.815)"><path d="M.386,0A.233.233,0,0,0,.259.06L0,.256.113.387A1,1,0,0,1,.557.12C.514.062.458,0,.386,0Z" transform="matrix(0.788, 0.616, -0.616, 0.788, 5.247, 0.953)" fill="#cc3131"/><path d="M.386,0A.229.229,0,0,0,.259.06L0,.256.113.387A1,1,0,0,1,.558.119C.514.062.459,0,.386,0Z" transform="matrix(0.788, 0.616, -0.616, 0.788, 6.132, 2.816)" fill="#cc3131"/><path d="M.7.036.356,0A5.314,5.314,0,0,1,0,.552a.733.733,0,0,1,.415.1A2.71,2.71,0,0,1,.7.036Z" transform="matrix(0.788, 0.616, -0.616, 0.788, 5.616, 3.047)" fill="#ead4af"/><path d="M.7.036.356,0A5.413,5.413,0,0,1,0,.552a.729.729,0,0,1,.415.1A2.731,2.731,0,0,1,.7.036Z" transform="matrix(0.788, 0.616, -0.616, 0.788, 0.403, 1.554)" fill="#ead4af"/><path d="M.462.011a.285.285,0,0,0-.154,0L.013.067C.008.176,0,.285,0,.394A1.583,1.583,0,0,1,.6.208C.574.129.539.04.462.011Z" transform="matrix(0.788, 0.616, -0.616, 0.788, 4.809, 2.373)" fill="#fc0"/><path d="M0,.207C.026.294.05.38.076.466L.65.205A.368.368,0,0,1,.571,0,2.692,2.692,0,0,1,0,.207Z" transform="matrix(0.788, 0.616, -0.616, 0.788, 1.536, 1.142)" fill="#5cb45f"/><path d="M.442,0,0,.309A.7.7,0,0,0,.043.566,2.107,2.107,0,0,1,.558.207.423.423,0,0,1,.442,0Z" transform="matrix(0.788, 0.616, -0.616, 0.788, 2.542, 0.332)" fill="#cc3131"/><path d="M.318.543.536.39A.327.327,0,0,1,.343.209.484.484,0,0,0,.174,0L0,.079Z" transform="matrix(0.788, 0.616, -0.616, 0.788, 1.57, 1.719)" fill="#fc0"/><path d="M.464.047.286,0,0,.344.284.406Z" transform="matrix(0.788, 0.616, -0.616, 0.788, 4.373, 1.204)" fill="#ead4af"/><path d="M.464.047.286,0,0,.344.284.406Z" transform="matrix(0.788, 0.616, -0.616, 0.788, 1.407, 3.582)" fill="#ead4af"/><path d="M.232.079A.131.131,0,0,0,.121,0,.114.114,0,0,0,.01.074.175.175,0,0,0,0,.122.94.94,0,0,0,.087.576.409.409,0,0,1,.319.491.431.431,0,0,1,.243.246.411.411,0,0,0,.232.079Z" transform="matrix(0.788, 0.616, -0.616, 0.788, 5.442, 1.791)" fill="#5cb45f"/><path d="M.232.079A.133.133,0,0,0,.121,0,.115.115,0,0,0,.009.074.191.191,0,0,0,0,.122.942.942,0,0,0,.087.576.411.411,0,0,1,.319.491.432.432,0,0,1,.243.247.411.411,0,0,0,.232.079Z" transform="matrix(0.788, 0.616, -0.616, 0.788, 3.001, 4.132)" fill="#5cb45f"/><path d="M0,.489.245.475.224,0,.055.106Z" transform="matrix(0.788, 0.616, -0.616, 0.788, 1.821, 2.955)" fill="#cc3131"/><path d="M.017.638a.057.057,0,0,0,.046,0L.357.551A1.382,1.382,0,0,1,.3,0a.708.708,0,0,1-.26.136Q.019.358,0,.58C0,.6,0,.627.017.638Z" transform="matrix(0.788, 0.616, -0.616, 0.788, 0.834, 2.071)" fill="#fc0"/><path d="M.017.638a.06.06,0,0,0,.046,0L.357.552A1.393,1.393,0,0,1,.3,0a.707.707,0,0,1-.26.136L0,.58C0,.6,0,.627.017.638Z" transform="matrix(0.788, 0.616, -0.616, 0.788, 5.351, 3.816)" fill="#fc0"/><path d="M.31.484A1.119,1.119,0,0,1,.314,0L.073.049,0,.515Z" transform="matrix(0.788, 0.616, -0.616, 0.788, 4.583, 3.876)" fill="#5cb45f"/><path d="M0,.562.272.518a3.048,3.048,0,0,1,0-.508.1.1,0,0,0-.1.008Z" transform="matrix(0.788, 0.616, -0.616, 0.788, 2.233, 3.945)" fill="#6bc3c3"/><path d="M.033.061Q.017.285,0,.508L.243.477Q.234.238.225,0Z" transform="matrix(0.788, 0.616, -0.616, 0.788, 0.712, 1.071)" fill="#cc3131"/><path d="M.33,0A.3.3,0,0,0,.2.1L0,.3.2.454A.985.985,0,0,1,.549.065.3.3,0,0,0,.33,0Z" transform="matrix(0.788, 0.616, -0.616, 0.788, 1.468, 0.494)" fill="#6bc3c3"/><path d="M.438.307a.234.234,0,0,0,.084,0A.118.118,0,0,0,.607.226.117.117,0,0,0,.576.112,2.125,2.125,0,0,1,.147,0L0,.247Z" transform="matrix(0.788, 0.616, -0.616, 0.788, 5.992, 2.096)" fill="#6bc3c3"/><path d="M.438.307a.234.234,0,0,0,.084,0A.119.119,0,0,0,.607.226.119.119,0,0,0,.576.112,2.1,2.1,0,0,1,.147,0L0,.247Z" transform="matrix(0.788, 0.616, -0.616, 0.788, 3.956, 3.427)" fill="#6bc3c3"/><path d="M.438.307a.242.242,0,0,0,.084,0A.118.118,0,0,0,.607.226.117.117,0,0,0,.576.112,2.06,2.06,0,0,1,.147,0L0,.248Z" transform="matrix(0.788, 0.616, -0.616, 0.788, 4.487, 0.804)" fill="#6bc3c3"/><path d="M.438.307a.25.25,0,0,0,.084,0,.116.116,0,0,0,.054-.2A2.072,2.072,0,0,1,.147,0L0,.248Z" transform="matrix(0.788, 0.616, -0.616, 0.788, 2.473, 0.937)" fill="#6bc3c3"/><path d="M.349,0A1.028,1.028,0,0,1,0,.22l.07.2A1.785,1.785,0,0,1,.517.141.338.338,0,0,1,.349,0Z" transform="matrix(0.788, 0.616, -0.616, 0.788, 4.567, 0.356)" fill="#5cb45f"/><path d="M.562.122A.535.535,0,0,1,.141,0L0,.227A1.905,1.905,0,0,1,.52.378C.534.293.548.208.562.122Z" transform="matrix(0.788, 0.616, -0.616, 0.788, 2.088, 2.63)" fill="#ead4af"/><path d="M.562.122A.533.533,0,0,1,.141,0L0,.227A1.894,1.894,0,0,1,.519.378Z" transform="matrix(0.788, 0.616, -0.616, 0.788, 2.989, 0)" fill="#ead4af"/><path d="M.562.122A.535.535,0,0,1,.141,0L0,.227A1.887,1.887,0,0,1,.519.378Z" transform="matrix(0.788, 0.616, -0.616, 0.788, 3.878, 4.322)" fill="#ead4af"/><path d="M.1.451a.114.114,0,0,0,.11.021A.115.115,0,0,0,.286.388L.176,0A.932.932,0,0,0,0,.117.461.461,0,0,0,.068.409.174.174,0,0,0,.1.451Z" transform="matrix(0.788, 0.616, -0.616, 0.788, 4.31, 3.006)" fill="#cc3131"/><path d="M.241.007C.221-.008.193,0,.171.016L.013.1Q.007.334,0,.563L.224.512Q.239.287.254.062A.065.065,0,0,0,.241.007Z" transform="matrix(0.788, 0.616, -0.616, 0.788, 2.994, 3.023)" fill="#5cb45f"/><path d="M0,.351A1.512,1.512,0,0,1,.538.3c0-.1,0-.2-.006-.3A2.664,2.664,0,0,1,.063.106Z" transform="matrix(0.788, 0.616, -0.616, 0.788, 0.644, 3.021)" fill="#5cb45f"/><path d="M.438.307a.234.234,0,0,0,.084,0A.119.119,0,0,0,.607.226.119.119,0,0,0,.576.112,2.1,2.1,0,0,1,.147,0L0,.247Z" transform="matrix(0.788, 0.616, -0.616, 0.788, 2.835, 2.093)" fill="#6bc3c3"/><path d="M.1.451a.114.114,0,0,0,.11.021A.115.115,0,0,0,.286.388L.176,0A.932.932,0,0,0,0,.117.461.461,0,0,0,.068.409.174.174,0,0,0,.1.451Z" transform="matrix(0.788, 0.616, -0.616, 0.788, 4.096, 2.152)" fill="#cc3131"/><path d="M.464.047.286,0,0,.344.284.406Z" transform="matrix(0.788, 0.616, -0.616, 0.788, 3.413, 1.578)" fill="#ead4af"/><path d="M.017.638a.057.057,0,0,0,.046,0L.357.551A1.382,1.382,0,0,1,.3,0a.708.708,0,0,1-.26.136Q.019.358,0,.58C0,.6,0,.627.017.638Z" transform="matrix(0.788, 0.616, -0.616, 0.788, 3.717, 0.843)" fill="#fc0"/></g></g></g><text transform="translate(66 74)" fill="#fff" font-size="42" font-family="Rockwell"><tspan x="-66.076" y="0">Rocket</tspan></text><text transform="translate(142 74)" fill="#ff980a" font-size="32" font-family="Rockwell"><tspan x="0" y="0">Donuts</tspan></text></g></g></svg>