<svg xmlns="http://www.w3.org/2000/svg" width="246" height="84.182" viewBox="0 0 246 84.182"><g transform="translate(1 0.182)"><g transform="translate(85.205)"><g transform="translate(0.264)"><path d="M175.671,27.335a64.394,64.394,0,0,0-3.417-6.075C163.712,7.846,151.056-.127,140.552,0c-4.493,9.492-2.468,24.3,6.075,37.65a47.743,47.743,0,0,0,4.113,5.632Z" transform="translate(-138.229 0.002)" fill="#c4c5ce"/></g><g transform="translate(0 0.001)"><path d="M140.652,0h-.316c-4.683,9.428-2.848,24.3,5.505,37.777a54.058,54.058,0,0,0,4.05,5.7l12.4-7.657Z" transform="translate(-137.813)" fill="#b3b3ba"/></g><g transform="translate(5.814 2.026)"><path d="M159.845,6.364A39.858,39.858,0,0,0,153.771,3.2L147,33.89a49.393,49.393,0,0,0,2.848,4.936c.7,1.076,1.455,2.151,2.151,3.164Z" transform="translate(-147 -3.2)" fill="#c1c4c9"/><path d="M175.025,18.105A52.738,52.738,0,0,0,169.2,12.6l-7.4,33.79,8.163-5.252Z" transform="translate(-152.435 -6.652)" fill="#c1c4c9"/><path d="M175.5,44.237l13.858-8.922a64.394,64.394,0,0,0-3.417-6.075,60.356,60.356,0,0,0-5.568-7.34Z" transform="translate(-157.466 -10.067)" fill="#c1c4c9"/></g><g transform="translate(1.973 0.318)" opacity="0.18"><path d="M172.8,29.1c-.949-1.835-1.962-3.67-3.1-5.505C161.16,10.245,152.681,1.449,141.734.5c-2.341,11.01.38,20.882,8.922,34.233a61.825,61.825,0,0,0,4.366,5.7" transform="translate(-140.931 -0.5)" fill="none" stroke="#000" stroke-linecap="round" stroke-linejoin="round" stroke-miterlimit="10" stroke-width="1" stroke-dasharray="0.2 5"/><path d="M191.3,45.7" transform="translate(-159.428 -17.098)" fill="none" stroke="#000" stroke-linecap="round" stroke-linejoin="round" stroke-miterlimit="10" stroke-width="1" stroke-dasharray="0.2 5"/><path d="M163.3,63.7" transform="translate(-149.145 -23.708)" fill="none" stroke="#000" stroke-linecap="round" stroke-linejoin="round" stroke-miterlimit="10" stroke-width="1" stroke-dasharray="0.2 5"/></g><path d="M149.187,53.1c-.633-1.012-1.455-.886-1.772.253L143.049,70c-.316,1.2.253,1.519,1.2.823l9.175-7.087A2.535,2.535,0,0,0,154,60.505Z" transform="translate(-139.703 -19.246)" fill="#ff980a"/><path d="M183.733,32.3c-.633-1.012-.19-1.709,1.012-1.519L201.7,33.693c1.2.19,1.329.823.253,1.392l-10.251,5.379a2.477,2.477,0,0,1-3.164-.823Z" transform="translate(-154.57 -11.291)" fill="#ff980a"/><g transform="translate(3.282 1.14)" opacity="0.18"><line x2="0.063" fill="none" stroke="#000" stroke-linecap="round" stroke-linejoin="round" stroke-width="1"/><line x2="19.363" y2="30.184" transform="translate(1.266 1.898)" fill="none" stroke-dasharray="0.201 5.018" stroke-linecap="round" stroke-linejoin="round" stroke-width="1" stroke="#000"/><line x2="0.063" transform="translate(21.198 33.031)" stroke-width="1" stroke="#000" stroke-linecap="round" stroke-linejoin="round" fill="none"/></g><circle cx="6.771" cy="6.771" r="6.771" transform="translate(3.915 5.886)" fill="#60636d"/><circle cx="6.328" cy="6.328" r="6.328" transform="translate(4.358 6.329)" fill="#191d2d"/><path d="M186.181,60.279h.443a3.7,3.7,0,0,0-.19-3.86,3.29,3.29,0,0,0-1.266-1.2,7.164,7.164,0,0,0,1.329-6.644,3.684,3.684,0,0,0,1.012-4.936,3.6,3.6,0,0,0-5-1.076,3.29,3.29,0,0,0-1.2,1.266,7.078,7.078,0,0,0-5.252.949,6.908,6.908,0,0,0-1.076.823,8.093,8.093,0,0,0-9.618,6.2h0a1.384,1.384,0,0,0-.316.19,8.382,8.382,0,0,0-3.164,3.67,5.805,5.805,0,0,0-2.278.823,5.674,5.674,0,0,0-1.708,7.783,5.572,5.572,0,0,0,7.277,1.962,8.554,8.554,0,0,0,5.948,1.139,7.308,7.308,0,0,0,1.2,2.911,8.632,8.632,0,0,0,5.252,3.733L184.093,84.2h2.025V60.279Z" transform="translate(-144.869 -15.414)" fill="#e7eaf7"/><path d="M186.218,77.589,168.5,50a8.093,8.093,0,0,0-3.037,4.746h0a1.384,1.384,0,0,0-.316.19,8.382,8.382,0,0,0-3.164,3.67,5.805,5.805,0,0,0-2.278.823A5.674,5.674,0,0,0,158,67.212a5.572,5.572,0,0,0,7.277,1.962,8.554,8.554,0,0,0,5.948,1.139,7.308,7.308,0,0,0,1.2,2.911,8.632,8.632,0,0,0,5.252,3.733l6.518,10.188h2.025Z" transform="translate(-144.905 -18.36)" fill="#d6d9e5"/><g transform="translate(-640.602 -248.999)"><g transform="translate(647.107 257.641)"><path d="M5.028.081C4.6-.223,2.24.351,1.265,1.452A8.06,8.06,0,0,0,.549,2.691C-.655,4.623.3,5.779,1.71,6.194a3.993,3.993,0,0,0,3.4-1.006A3.047,3.047,0,0,0,5.028.081ZM3.816,1.953c.013,0,.024.005.036.007C4.157,1.939,3.706,1.943,3.816,1.953Z" transform="matrix(0.788, 0.616, -0.616, 0.788, 3.864, 0)" fill="#bf8320"/><path d="M5.345,0C5.221.009,4.817,2.6,0,4.574a.419.419,0,0,0,.022.053c.182.163.375.24.56.385C1.6,5.145,3.77,3.893,5.88,1.02,5.8.675,5.468-.009,5.345,0Z" transform="matrix(0.788, 0.616, -0.616, 0.788, 3.671, 1.016)" fill="#b9640f"/></g><g transform="translate(647 257)"><path d="M6.723,2.92c-.062-.168-.283-.344-.291-.514s.174-.359.224-.518c.086-.275-.114-.533-.248-.757C5.863.223,4.96-.291,3.246.175A4.476,4.476,0,0,0,.138,3.118,2.114,2.114,0,0,0,.745,5.531a1.663,1.663,0,0,0,1.272.438c.188-.061.262-.188.486-.188a1.12,1.12,0,0,1,.485.121.772.772,0,0,0,.958-.208c.182-.156.247-.248.493-.247a.823.823,0,0,0,.506-.134c.337-.234.149-.777.687-.8.2-.01.39,0,.489-.2s-.092-.343-.038-.536C6.193,3.373,6.942,3.511,6.723,2.92Z" transform="matrix(0.788, 0.616, -0.616, 0.788, 3.692, 0)" fill="#45322e"/></g><g transform="translate(648.281 258.815)"><path d="M.386,0A.233.233,0,0,0,.259.06L0,.256.113.387A1,1,0,0,1,.557.12C.514.062.458,0,.386,0Z" transform="matrix(0.788, 0.616, -0.616, 0.788, 5.247, 0.953)" fill="#cc3131"/><path d="M.386,0A.229.229,0,0,0,.259.06L0,.256.113.387A1,1,0,0,1,.558.119C.514.062.459,0,.386,0Z" transform="matrix(0.788, 0.616, -0.616, 0.788, 6.132, 2.816)" fill="#cc3131"/><path d="M.7.036.356,0A5.314,5.314,0,0,1,0,.552a.733.733,0,0,1,.415.1A2.71,2.71,0,0,1,.7.036Z" transform="matrix(0.788, 0.616, -0.616, 0.788, 5.616, 3.047)" fill="#ead4af"/><path d="M.7.036.356,0A5.413,5.413,0,0,1,0,.552a.729.729,0,0,1,.415.1A2.731,2.731,0,0,1,.7.036Z" transform="matrix(0.788, 0.616, -0.616, 0.788, 0.403, 1.554)" fill="#ead4af"/><path d="M.462.011a.285.285,0,0,0-.154,0L.013.067C.008.176,0,.285,0,.394A1.583,1.583,0,0,1,.6.208C.574.129.539.04.462.011Z" transform="matrix(0.788, 0.616, -0.616, 0.788, 4.809, 2.373)" fill="#fc0"/><path d="M0,.207C.026.294.05.38.076.466L.65.205A.368.368,0,0,1,.571,0,2.692,2.692,0,0,1,0,.207Z" transform="matrix(0.788, 0.616, -0.616, 0.788, 1.536, 1.142)" fill="#5cb45f"/><path d="M.442,0,0,.309A.7.7,0,0,0,.043.566,2.107,2.107,0,0,1,.558.207.423.423,0,0,1,.442,0Z" transform="matrix(0.788, 0.616, -0.616, 0.788, 2.542, 0.332)" fill="#cc3131"/><path d="M.318.543.536.39A.327.327,0,0,1,.343.209.484.484,0,0,0,.174,0L0,.079Z" transform="matrix(0.788, 0.616, -0.616, 0.788, 1.57, 1.719)" fill="#fc0"/><path d="M.464.047.286,0,0,.344.284.406Z" transform="matrix(0.788, 0.616, -0.616, 0.788, 4.373, 1.204)" fill="#ead4af"/><path d="M.464.047.286,0,0,.344.284.406Z" transform="matrix(0.788, 0.616, -0.616, 0.788, 1.407, 3.582)" fill="#ead4af"/><path d="M.232.079A.131.131,0,0,0,.121,0,.114.114,0,0,0,.01.074.175.175,0,0,0,0,.122.94.94,0,0,0,.087.576.409.409,0,0,1,.319.491.431.431,0,0,1,.243.246.411.411,0,0,0,.232.079Z" transform="matrix(0.788, 0.616, -0.616, 0.788, 5.442, 1.791)" fill="#5cb45f"/><path d="M.232.079A.133.133,0,0,0,.121,0,.115.115,0,0,0,.009.074.191.191,0,0,0,0,.122.942.942,0,0,0,.087.576.411.411,0,0,1,.319.491.432.432,0,0,1,.243.247.411.411,0,0,0,.232.079Z" transform="matrix(0.788, 0.616, -0.616, 0.788, 3.001, 4.132)" fill="#5cb45f"/><path d="M0,.489.245.475.224,0,.055.106Z" transform="matrix(0.788, 0.616, -0.616, 0.788, 1.821, 2.955)" fill="#cc3131"/><path d="M.017.638a.057.057,0,0,0,.046,0L.357.551A1.382,1.382,0,0,1,.3,0a.708.708,0,0,1-.26.136Q.019.358,0,.58C0,.6,0,.627.017.638Z" transform="matrix(0.788, 0.616, -0.616, 0.788, 0.834, 2.071)" fill="#fc0"/><path d="M.017.638a.06.06,0,0,0,.046,0L.357.552A1.393,1.393,0,0,1,.3,0a.707.707,0,0,1-.26.136L0,.58C0,.6,0,.627.017.638Z" transform="matrix(0.788, 0.616, -0.616, 0.788, 5.351, 3.816)" fill="#fc0"/><path d="M.31.484A1.119,1.119,0,0,1,.314,0L.073.049,0,.515Z" transform="matrix(0.788, 0.616, -0.616, 0.788, 4.583, 3.876)" fill="#5cb45f"/><path d="M0,.562.272.518a3.048,3.048,0,0,1,0-.508.1.1,0,0,0-.1.008Z" transform="matrix(0.788, 0.616, -0.616, 0.788, 2.233, 3.945)" fill="#6bc3c3"/><path d="M.033.061Q.017.285,0,.508L.243.477Q.234.238.225,0Z" transform="matrix(0.788, 0.616, -0.616, 0.788, 0.712, 1.071)" fill="#cc3131"/><path d="M.33,0A.3.3,0,0,0,.2.1L0,.3.2.454A.985.985,0,0,1,.549.065.3.3,0,0,0,.33,0Z" transform="matrix(0.788, 0.616, -0.616, 0.788, 1.468, 0.494)" fill="#6bc3c3"/><path d="M.438.307a.234.234,0,0,0,.084,0A.118.118,0,0,0,.607.226.117.117,0,0,0,.576.112,2.125,2.125,0,0,1,.147,0L0,.247Z" transform="matrix(0.788, 0.616, -0.616, 0.788, 5.992, 2.096)" fill="#6bc3c3"/><path d="M.438.307a.234.234,0,0,0,.084,0A.119.119,0,0,0,.607.226.119.119,0,0,0,.576.112,2.1,2.1,0,0,1,.147,0L0,.247Z" transform="matrix(0.788, 0.616, -0.616, 0.788, 3.956, 3.427)" fill="#6bc3c3"/><path d="M.438.307a.242.242,0,0,0,.084,0A.118.118,0,0,0,.607.226.117.117,0,0,0,.576.112,2.06,2.06,0,0,1,.147,0L0,.248Z" transform="matrix(0.788, 0.616, -0.616, 0.788, 4.487, 0.804)" fill="#6bc3c3"/><path d="M.438.307a.25.25,0,0,0,.084,0,.116.116,0,0,0,.054-.2A2.072,2.072,0,0,1,.147,0L0,.248Z" transform="matrix(0.788, 0.616, -0.616, 0.788, 2.473, 0.937)" fill="#6bc3c3"/><path d="M.349,0A1.028,1.028,0,0,1,0,.22l.07.2A1.785,1.785,0,0,1,.517.141.338.338,0,0,1,.349,0Z" transform="matrix(0.788, 0.616, -0.616, 0.788, 4.567, 0.356)" fill="#5cb45f"/><path d="M.562.122A.535.535,0,0,1,.141,0L0,.227A1.905,1.905,0,0,1,.52.378C.534.293.548.208.562.122Z" transform="matrix(0.788, 0.616, -0.616, 0.788, 2.088, 2.63)" fill="#ead4af"/><path d="M.562.122A.533.533,0,0,1,.141,0L0,.227A1.894,1.894,0,0,1,.519.378Z" transform="matrix(0.788, 0.616, -0.616, 0.788, 2.989, 0)" fill="#ead4af"/><path d="M.562.122A.535.535,0,0,1,.141,0L0,.227A1.887,1.887,0,0,1,.519.378Z" transform="matrix(0.788, 0.616, -0.616, 0.788, 3.878, 4.322)" fill="#ead4af"/><path d="M.1.451a.114.114,0,0,0,.11.021A.115.115,0,0,0,.286.388L.176,0A.932.932,0,0,0,0,.117.461.461,0,0,0,.068.409.174.174,0,0,0,.1.451Z" transform="matrix(0.788, 0.616, -0.616, 0.788, 4.31, 3.006)" fill="#cc3131"/><path d="M.241.007C.221-.008.193,0,.171.016L.013.1Q.007.334,0,.563L.224.512Q.239.287.254.062A.065.065,0,0,0,.241.007Z" transform="matrix(0.788, 0.616, -0.616, 0.788, 2.994, 3.023)" fill="#5cb45f"/><path d="M0,.351A1.512,1.512,0,0,1,.538.3c0-.1,0-.2-.006-.3A2.664,2.664,0,0,1,.063.106Z" transform="matrix(0.788, 0.616, -0.616, 0.788, 0.644, 3.021)" fill="#5cb45f"/><path d="M.438.307a.234.234,0,0,0,.084,0A.119.119,0,0,0,.607.226.119.119,0,0,0,.576.112,2.1,2.1,0,0,1,.147,0L0,.247Z" transform="matrix(0.788, 0.616, -0.616, 0.788, 2.835, 2.093)" fill="#6bc3c3"/><path d="M.1.451a.114.114,0,0,0,.11.021A.115.115,0,0,0,.286.388L.176,0A.932.932,0,0,0,0,.117.461.461,0,0,0,.068.409.174.174,0,0,0,.1.451Z" transform="matrix(0.788, 0.616, -0.616, 0.788, 4.096, 2.152)" fill="#cc3131"/><path d="M.464.047.286,0,0,.344.284.406Z" transform="matrix(0.788, 0.616, -0.616, 0.788, 3.413, 1.578)" fill="#ead4af"/><path d="M.017.638a.057.057,0,0,0,.046,0L.357.551A1.382,1.382,0,0,1,.3,0a.708.708,0,0,1-.26.136Q.019.358,0,.58C0,.6,0,.627.017.638Z" transform="matrix(0.788, 0.616, -0.616, 0.788, 3.717, 0.843)" fill="#fc0"/></g></g></g><text transform="translate(66 74)" fill="#fff" font-size="42" font-family="Rockwell"><tspan x="-66.076" y="0">Rocket</tspan></text><text transform="translate(142 74)" fill="#ff980a" font-size="32" font-family="Rockwell"><tspan x="0" y="0">Donuts</tspan></text></g></svg>