<svg xmlns="http://www.w3.org/2000/svg" width="194.995" height="82" viewBox="0 0 194.995 82"><g transform="translate(0 0.39)"><g transform="translate(0.225 1.208)"><path d="M42.512,32.445a72.427,72.427,0,0,0-3.843-6.832C28.99,10.524,14.827,1.557,2.942,1.7-2.111,12.375.166,29.029,9.774,44.045A53.7,53.7,0,0,0,14.4,50.379Z" transform="translate(-0.329 -1.698)" fill="#c4c5ce"/></g><g transform="translate(0 1.21)"><path d="M3.206,1.7H2.85c-5.267,10.6-3.2,27.329,6.192,42.488A60.8,60.8,0,0,0,13.6,50.594l13.949-8.612Z" transform="translate(-0.013 -1.7)" fill="#b3b3ba"/></g><g transform="translate(6.539 3.487)"><path d="M23.576,8.458A44.829,44.829,0,0,0,16.744,4.9L9.2,39.417a55.554,55.554,0,0,0,3.2,5.551c.783,1.21,1.637,2.42,2.42,3.558Z" transform="translate(-9.2 -4.9)" fill="#c1c4c9"/><path d="M38.8,20.492A59.317,59.317,0,0,0,32.256,14.3L24,52.3,33.181,46.4Z" transform="translate(-13.467 -7.61)" fill="#c1c4c9"/><path d="M37.7,48.723,53.286,38.688a72.427,72.427,0,0,0-3.843-6.832A67.886,67.886,0,0,0,43.18,23.6Z" transform="translate(-17.417 -10.291)" fill="#c1c4c9"/></g><g transform="translate(2.22 1.637)" opacity="0.18"><path d="M38.979,34.4c-1.068-2.064-2.206-4.128-3.487-6.192C25.884,13.26,16.347,3.368,4.034,2.3,1.4,14.684,4.462,25.786,14.141,40.8a69.536,69.536,0,0,0,4.911,6.405" transform="translate(-3.132 -2.3)" fill="none" stroke="#000" stroke-linecap="round" stroke-linejoin="round" stroke-miterlimit="10" stroke-width="1" stroke-dasharray="0.2 5"/><path d="M53.5,47.4" transform="translate(-17.653 -15.302)" fill="none" stroke="#000" stroke-linecap="round" stroke-linejoin="round" stroke-miterlimit="10" stroke-width="1" stroke-dasharray="0.2 5"/><path d="M25.5,65.4" transform="translate(-9.581 -20.492)" fill="none" stroke="#000" stroke-linecap="round" stroke-linejoin="round" stroke-miterlimit="10" stroke-width="1" stroke-dasharray="0.2 5"/></g><path d="M12.135,54.887c-.712-1.139-1.637-1-1.993.285L5.16,73.89c-.356,1.352.285,1.708,1.352.925l10.32-7.971a2.851,2.851,0,0,0,.641-3.63Z" transform="translate(-1.468 -15.601)" fill="#ff700f"/><path d="M45.969,34.194c-.712-1.139-.214-1.922,1.139-1.708L66.181,35.76c1.352.214,1.495.925.285,1.566l-11.53,6.049a2.786,2.786,0,0,1-3.558-.925Z" transform="translate(-13.169 -9.356)" fill="#ff700f"/><g transform="translate(3.692 2.491)" opacity="0.18"><line transform="translate(0 0)" stroke-width="1" stroke="#000" stroke-linecap="round" stroke-linejoin="round" fill="none"/><line x2="21.778" y2="33.948" transform="translate(1.352 2.135)" fill="none" stroke-dasharray="0.201 5.018" stroke-linecap="round" stroke-linejoin="round" stroke-width="1" stroke="#000"/><line transform="translate(23.842 37.151)" stroke-width="1" stroke="#000" stroke-linecap="round" stroke-linejoin="round" fill="none"/></g><circle cx="7.615" cy="7.615" r="7.615" transform="translate(4.404 7.829)" fill="#60636d"/><circle cx="7.117" cy="7.117" r="7.117" transform="translate(4.902 8.327)" fill="#191d2d"/><path d="M54.181,91.164V70.027h.356a10.245,10.245,0,0,0-1.566-5.053l-.427-.641A4.449,4.449,0,0,0,52.4,59.92a3.7,3.7,0,0,0-1.423-1.352A8.058,8.058,0,0,0,52.473,51.1a4.143,4.143,0,0,0,1.139-5.551,4.049,4.049,0,0,0-5.622-1.21,3.7,3.7,0,0,0-1.352,1.423,7.961,7.961,0,0,0-5.907,1.068,7.769,7.769,0,0,0-1.21.925A9.1,9.1,0,0,0,28.7,54.725h0a1.555,1.555,0,0,0-.356.214,9.427,9.427,0,0,0-3.558,4.128,6.529,6.529,0,0,0-2.562.925A6.381,6.381,0,0,0,20.3,68.746a6.267,6.267,0,0,0,8.185,2.206,9.621,9.621,0,0,0,6.69,1.281,8.219,8.219,0,0,0,1.352,3.274,9.709,9.709,0,0,0,5.907,4.2L49.7,91.164Z" transform="translate(-5.581 -12.593)" fill="#e7eaf7"/><path d="M54.893,87.114,32.118,51.6A9.1,9.1,0,0,0,28.7,56.938h0a1.556,1.556,0,0,0-.356.214,9.427,9.427,0,0,0-3.558,4.128,6.529,6.529,0,0,0-2.562.925A6.381,6.381,0,0,0,20.3,70.958a6.267,6.267,0,0,0,8.185,2.206,9.621,9.621,0,0,0,6.69,1.281,8.219,8.219,0,0,0,1.352,3.274,9.709,9.709,0,0,0,5.907,4.2L49.7,93.448h5.124V87.114Z" transform="translate(-5.581 -14.876)" fill="#d6d9e5"/><g transform="translate(-639.403 -246.389)"><g transform="translate(647.107 257.641)"><path d="M5.028.081C4.6-.223,2.24.351,1.265,1.452A8.06,8.06,0,0,0,.549,2.691C-.655,4.623.3,5.779,1.71,6.194a3.993,3.993,0,0,0,3.4-1.006A3.047,3.047,0,0,0,5.028.081ZM3.816,1.953c.013,0,.024.005.036.007C4.157,1.939,3.706,1.943,3.816,1.953Z" transform="matrix(0.788, 0.616, -0.616, 0.788, 3.864, 0)" fill="#bf8320"/><path d="M5.345,0C5.221.009,4.817,2.6,0,4.574a.419.419,0,0,0,.022.053c.182.163.375.24.56.385C1.6,5.145,3.77,3.893,5.88,1.02,5.8.675,5.468-.009,5.345,0Z" transform="matrix(0.788, 0.616, -0.616, 0.788, 3.671, 1.016)" fill="#b9640f"/></g><g transform="translate(647 257)"><path d="M6.723,2.92c-.062-.168-.283-.344-.291-.514s.174-.359.224-.518c.086-.275-.114-.533-.248-.757C5.863.223,4.96-.291,3.246.175A4.476,4.476,0,0,0,.138,3.118,2.114,2.114,0,0,0,.745,5.531a1.663,1.663,0,0,0,1.272.438c.188-.061.262-.188.486-.188a1.12,1.12,0,0,1,.485.121.772.772,0,0,0,.958-.208c.182-.156.247-.248.493-.247a.823.823,0,0,0,.506-.134c.337-.234.149-.777.687-.8.2-.01.39,0,.489-.2s-.092-.343-.038-.536C6.193,3.373,6.942,3.511,6.723,2.92Z" transform="matrix(0.788, 0.616, -0.616, 0.788, 3.692, 0)" fill="#45322e"/></g><g transform="translate(648.281 258.815)"><path d="M.386,0A.233.233,0,0,0,.259.06L0,.256.113.387A1,1,0,0,1,.557.12C.514.062.458,0,.386,0Z" transform="matrix(0.788, 0.616, -0.616, 0.788, 5.247, 0.953)" fill="#cc3131"/><path d="M.386,0A.229.229,0,0,0,.259.06L0,.256.113.387A1,1,0,0,1,.558.119C.514.062.459,0,.386,0Z" transform="matrix(0.788, 0.616, -0.616, 0.788, 6.132, 2.816)" fill="#cc3131"/><path d="M.7.036.356,0A5.314,5.314,0,0,1,0,.552a.733.733,0,0,1,.415.1A2.71,2.71,0,0,1,.7.036Z" transform="matrix(0.788, 0.616, -0.616, 0.788, 5.616, 3.047)" fill="#ead4af"/><path d="M.7.036.356,0A5.413,5.413,0,0,1,0,.552a.729.729,0,0,1,.415.1A2.731,2.731,0,0,1,.7.036Z" transform="matrix(0.788, 0.616, -0.616, 0.788, 0.403, 1.554)" fill="#ead4af"/><path d="M.462.011a.285.285,0,0,0-.154,0L.013.067C.008.176,0,.285,0,.394A1.583,1.583,0,0,1,.6.208C.574.129.539.04.462.011Z" transform="matrix(0.788, 0.616, -0.616, 0.788, 4.809, 2.373)" fill="#fc0"/><path d="M0,.207C.026.294.05.38.076.466L.65.205A.368.368,0,0,1,.571,0,2.692,2.692,0,0,1,0,.207Z" transform="matrix(0.788, 0.616, -0.616, 0.788, 1.536, 1.142)" fill="#5cb45f"/><path d="M.442,0,0,.309A.7.7,0,0,0,.043.566,2.107,2.107,0,0,1,.558.207.423.423,0,0,1,.442,0Z" transform="matrix(0.788, 0.616, -0.616, 0.788, 2.542, 0.332)" fill="#cc3131"/><path d="M.318.543.536.39A.327.327,0,0,1,.343.209.484.484,0,0,0,.174,0L0,.079Z" transform="matrix(0.788, 0.616, -0.616, 0.788, 1.57, 1.719)" fill="#fc0"/><path d="M.464.047.286,0,0,.344.284.406Z" transform="matrix(0.788, 0.616, -0.616, 0.788, 4.373, 1.204)" fill="#ead4af"/><path d="M.464.047.286,0,0,.344.284.406Z" transform="matrix(0.788, 0.616, -0.616, 0.788, 1.407, 3.582)" fill="#ead4af"/><path d="M.232.079A.131.131,0,0,0,.121,0,.114.114,0,0,0,.01.074.175.175,0,0,0,0,.122.94.94,0,0,0,.087.576.409.409,0,0,1,.319.491.431.431,0,0,1,.243.246.411.411,0,0,0,.232.079Z" transform="matrix(0.788, 0.616, -0.616, 0.788, 5.442, 1.791)" fill="#5cb45f"/><path d="M.232.079A.133.133,0,0,0,.121,0,.115.115,0,0,0,.009.074.191.191,0,0,0,0,.122.942.942,0,0,0,.087.576.411.411,0,0,1,.319.491.432.432,0,0,1,.243.247.411.411,0,0,0,.232.079Z" transform="matrix(0.788, 0.616, -0.616, 0.788, 3.001, 4.132)" fill="#5cb45f"/><path d="M0,.489.245.475.224,0,.055.106Z" transform="matrix(0.788, 0.616, -0.616, 0.788, 1.821, 2.955)" fill="#cc3131"/><path d="M.017.638a.057.057,0,0,0,.046,0L.357.551A1.382,1.382,0,0,1,.3,0a.708.708,0,0,1-.26.136Q.019.358,0,.58C0,.6,0,.627.017.638Z" transform="matrix(0.788, 0.616, -0.616, 0.788, 0.834, 2.071)" fill="#fc0"/><path d="M.017.638a.06.06,0,0,0,.046,0L.357.552A1.393,1.393,0,0,1,.3,0a.707.707,0,0,1-.26.136L0,.58C0,.6,0,.627.017.638Z" transform="matrix(0.788, 0.616, -0.616, 0.788, 5.351, 3.816)" fill="#fc0"/><path d="M.31.484A1.119,1.119,0,0,1,.314,0L.073.049,0,.515Z" transform="matrix(0.788, 0.616, -0.616, 0.788, 4.583, 3.876)" fill="#5cb45f"/><path d="M0,.562.272.518a3.048,3.048,0,0,1,0-.508.1.1,0,0,0-.1.008Z" transform="matrix(0.788, 0.616, -0.616, 0.788, 2.233, 3.945)" fill="#6bc3c3"/><path d="M.033.061Q.017.285,0,.508L.243.477Q.234.238.225,0Z" transform="matrix(0.788, 0.616, -0.616, 0.788, 0.712, 1.071)" fill="#cc3131"/><path d="M.33,0A.3.3,0,0,0,.2.1L0,.3.2.454A.985.985,0,0,1,.549.065.3.3,0,0,0,.33,0Z" transform="matrix(0.788, 0.616, -0.616, 0.788, 1.468, 0.494)" fill="#6bc3c3"/><path d="M.438.307a.234.234,0,0,0,.084,0A.118.118,0,0,0,.607.226.117.117,0,0,0,.576.112,2.125,2.125,0,0,1,.147,0L0,.247Z" transform="matrix(0.788, 0.616, -0.616, 0.788, 5.992, 2.096)" fill="#6bc3c3"/><path d="M.438.307a.234.234,0,0,0,.084,0A.119.119,0,0,0,.607.226.119.119,0,0,0,.576.112,2.1,2.1,0,0,1,.147,0L0,.247Z" transform="matrix(0.788, 0.616, -0.616, 0.788, 3.956, 3.427)" fill="#6bc3c3"/><path d="M.438.307a.242.242,0,0,0,.084,0A.118.118,0,0,0,.607.226.117.117,0,0,0,.576.112,2.06,2.06,0,0,1,.147,0L0,.248Z" transform="matrix(0.788, 0.616, -0.616, 0.788, 4.487, 0.804)" fill="#6bc3c3"/><path d="M.438.307a.25.25,0,0,0,.084,0,.116.116,0,0,0,.054-.2A2.072,2.072,0,0,1,.147,0L0,.248Z" transform="matrix(0.788, 0.616, -0.616, 0.788, 2.473, 0.937)" fill="#6bc3c3"/><path d="M.349,0A1.028,1.028,0,0,1,0,.22l.07.2A1.785,1.785,0,0,1,.517.141.338.338,0,0,1,.349,0Z" transform="matrix(0.788, 0.616, -0.616, 0.788, 4.567, 0.356)" fill="#5cb45f"/><path d="M.562.122A.535.535,0,0,1,.141,0L0,.227A1.905,1.905,0,0,1,.52.378C.534.293.548.208.562.122Z" transform="matrix(0.788, 0.616, -0.616, 0.788, 2.088, 2.63)" fill="#ead4af"/><path d="M.562.122A.533.533,0,0,1,.141,0L0,.227A1.894,1.894,0,0,1,.519.378Z" transform="matrix(0.788, 0.616, -0.616, 0.788, 2.989, 0)" fill="#ead4af"/><path d="M.562.122A.535.535,0,0,1,.141,0L0,.227A1.887,1.887,0,0,1,.519.378Z" transform="matrix(0.788, 0.616, -0.616, 0.788, 3.878, 4.322)" fill="#ead4af"/><path d="M.1.451a.114.114,0,0,0,.11.021A.115.115,0,0,0,.286.388L.176,0A.932.932,0,0,0,0,.117.461.461,0,0,0,.068.409.174.174,0,0,0,.1.451Z" transform="matrix(0.788, 0.616, -0.616, 0.788, 4.31, 3.006)" fill="#cc3131"/><path d="M.241.007C.221-.008.193,0,.171.016L.013.1Q.007.334,0,.563L.224.512Q.239.287.254.062A.065.065,0,0,0,.241.007Z" transform="matrix(0.788, 0.616, -0.616, 0.788, 2.994, 3.023)" fill="#5cb45f"/><path d="M0,.351A1.512,1.512,0,0,1,.538.3c0-.1,0-.2-.006-.3A2.664,2.664,0,0,1,.063.106Z" transform="matrix(0.788, 0.616, -0.616, 0.788, 0.644, 3.021)" fill="#5cb45f"/><path d="M.438.307a.234.234,0,0,0,.084,0A.119.119,0,0,0,.607.226.119.119,0,0,0,.576.112,2.1,2.1,0,0,1,.147,0L0,.247Z" transform="matrix(0.788, 0.616, -0.616, 0.788, 2.835, 2.093)" fill="#6bc3c3"/><path d="M.1.451a.114.114,0,0,0,.11.021A.115.115,0,0,0,.286.388L.176,0A.932.932,0,0,0,0,.117.461.461,0,0,0,.068.409.174.174,0,0,0,.1.451Z" transform="matrix(0.788, 0.616, -0.616, 0.788, 4.096, 2.152)" fill="#cc3131"/><path d="M.464.047.286,0,0,.344.284.406Z" transform="matrix(0.788, 0.616, -0.616, 0.788, 3.413, 1.578)" fill="#ead4af"/><path d="M.017.638a.057.057,0,0,0,.046,0L.357.551A1.382,1.382,0,0,1,.3,0a.708.708,0,0,1-.26.136Q.019.358,0,.58C0,.6,0,.627.017.638Z" transform="matrix(0.788, 0.616, -0.616, 0.788, 3.717, 0.843)" fill="#fc0"/></g></g></g><text transform="translate(61.995 40)" fill="#fff" font-size="42" font-family="Rockwell"><tspan x="0" y="0">Rocket</tspan></text><text transform="translate(61.995 75)" fill="#ff700f" font-size="32" font-family="Rockwell"><tspan x="0" y="0">Donuts</tspan></text></svg>