<svg xmlns="http://www.w3.org/2000/svg" viewBox="0 0 326.12 185"><title>Logo_With_Planets</title><g id="Capa_2" data-name="Capa 2"><g id="Grupo_798" data-name="Grupo 798"><g id="Grupo_756" data-name="Grupo 756"><path id="Trazado_81" data-name="Trazado 81" d="M172.14,165.94c-2.4.37-4.73.19-7.14,1a15.9,15.9,0,0,0-6,3.63,1.75,1.75,0,0,1-.44.33,25.59,25.59,0,0,0,33.56-13.56c.21-.49.41-1,.58-1.49-2.92.77-6,1.25-8.65,2.81C180.13,160.84,176.77,165.21,172.14,165.94Z" fill="#2866e5"/><path id="Trazado_82" data-name="Trazado 82" d="M156.38,167.9a19.88,19.88,0,0,1,11.92-5.44,16.64,16.64,0,0,0,4.1-.4,12,12,0,0,0,3.37-2.07c1.74-1.37,3.47-2.78,5.36-4,4-2.52,8.32-2.92,12.65-4.44a27.31,27.31,0,0,0,.37-4.33,25,25,0,0,0-.33-4.14.59.59,0,0,1-.26.07c-2.7.89-5.51,1.26-8.28,1.92a22.21,22.21,0,0,0-7.88,3.59c-2.26,1.63-4.33,3.48-6.59,5-1.78,1.19-4.29,2.59-5.84.3a7.56,7.56,0,0,1-.6-1.29c-.07-.19-.11-.41-.18-.59s0-.08,0-.12c-1,0-2.51,1.85-3.22,2.45q-3.77,3.27-7.32,6.77c-1.7,1.66-4.33-1-2.63-2.63,2.22-2.15,4.48-4.25,6.81-6.29,1.74-1.52,3.84-3.92,6.36-4a3.41,3.41,0,0,1,2.89,1.37,16.67,16.67,0,0,1,.77,1.59s0,0,.08,0c.26-.15.52-.33.77-.48.6-.41,1.19-.81,1.74-1.26,1-.77,2-1.59,3-2.37a29.83,29.83,0,0,1,6.62-4.18,41.25,41.25,0,0,1,8.1-2.18,34.68,34.68,0,0,0,4.73-1.26,25.23,25.23,0,0,0-5.84-9.84,50.89,50.89,0,0,1-4.33,3.85,53.75,53.75,0,0,1-6,5.25,3,3,0,0,1-2.55.6c-.85-.23-1.37-1.08-2.26-1.19-2.11-.3-4.66,2-6.25,3.07-2.15,1.45-4.22,3-6.25,4.59a113.63,113.63,0,0,0-11.21,10.28c-1.63,1.74-4.25-.88-2.63-2.62a111.65,111.65,0,0,1,20.39-16.91,11.63,11.63,0,0,1,5.4-2.11,5.17,5.17,0,0,1,2.48.45c.33.14.59.37.92.51.56.26.08.26.78-.44,1.55-1.63,3.48-3,5.14-4.51.85-.78,1.7-1.52,2.52-2.3a13,13,0,0,1,1.07-1,24.55,24.55,0,0,0-6.21-3.55,1.87,1.87,0,0,1,0,.88,2.1,2.1,0,0,1-.67,2.56c-3.25,2.29-7.17,3-10.87,4.21a44.12,44.12,0,0,0-10.07,5.15A90.34,90.34,0,0,0,143,147.85a25.53,25.53,0,0,0,12.92,21.68A1.68,1.68,0,0,1,156.38,167.9Z" fill="#2866e5"/><path id="Trazado_83" data-name="Trazado 83" d="M164.3,128.06c2.29-.89,4.74-1.41,7-2.22a1.66,1.66,0,0,1,.59-1.41,1.55,1.55,0,0,1,.93-1.7,6.75,6.75,0,0,1,1.11-.44,24,24,0,0,0-5.41-.59,25.56,25.56,0,0,0-25.08,20.53A90.87,90.87,0,0,1,154,133.5,48.87,48.87,0,0,1,164.3,128.06Z" fill="#2866e5"/><path id="Trazado_84" data-name="Trazado 84" d="M156.38,136.35a44.12,44.12,0,0,1,10.07-5.15c3.7-1.29,7.62-1.92,10.87-4.21a2.1,2.1,0,0,0,.67-2.56,1.75,1.75,0,0,0,0-.88,28.61,28.61,0,0,0-4.07-1.26,6.57,6.57,0,0,0-1.11.44,1.53,1.53,0,0,0-.92,1.7,1.63,1.63,0,0,0-.59,1.41c-2.3.81-4.74,1.37-7,2.22A49.53,49.53,0,0,0,154,133.53a82,82,0,0,0-10.54,8.7,26.11,26.11,0,0,0-.52,5.07v.55A90.34,90.34,0,0,1,156.38,136.35Z" fill="#eaeef4"/><path id="Trazado_85" data-name="Trazado 85" d="M183.17,128.13c-.85.78-1.67,1.56-2.52,2.3-1.66,1.51-3.62,2.88-5.14,4.51-.67.74-.19.7-.78.44-.33-.14-.59-.37-.92-.51a5.55,5.55,0,0,0-2.48-.45,11.63,11.63,0,0,0-5.4,2.11,109.93,109.93,0,0,0-20.35,16.91c-1.63,1.74,1,4.33,2.63,2.62a108.29,108.29,0,0,1,11.17-10.24c2-1.63,4.11-3.15,6.25-4.59,1.59-1.07,4.18-3.37,6.25-3.07.89.11,1.41,1,2.26,1.18a2.89,2.89,0,0,0,2.55-.59,61.62,61.62,0,0,0,6.07-5.22,52.56,52.56,0,0,0,4.33-3.84,26.86,26.86,0,0,0-2.85-2.59A13,13,0,0,0,183.17,128.13Z" fill="#eaeef4"/><path id="Trazado_86" data-name="Trazado 86" d="M180.1,143a29.25,29.25,0,0,0-6.62,4.18c-1,.77-2,1.59-3,2.37-.55.44-1.15.85-1.74,1.25a7,7,0,0,1-.77.48s0,0-.08,0a16.69,16.69,0,0,0-.78-1.59,3.38,3.38,0,0,0-2.88-1.37c-2.52.11-4.62,2.51-6.36,4-2.33,2-4.59,4.14-6.81,6.29-1.7,1.66.92,4.29,2.63,2.63,2.36-2.34,4.84-4.59,7.32-6.77.7-.6,2.18-2.45,3.22-2.45,0,0,0,.08,0,.11.07.19.11.41.18.6a4.71,4.71,0,0,0,.59,1.29c1.56,2.3,4.07.89,5.85-.3,2.29-1.55,4.36-3.4,6.58-5a22.37,22.37,0,0,1,7.88-3.59c2.74-.66,5.59-1,8.29-1.92a.61.61,0,0,1,.26-.08,19,19,0,0,0-.89-3.62,42.79,42.79,0,0,1-4.73,1.26A40.3,40.3,0,0,0,180.1,143Z" fill="#eaeef4"/><path id="Trazado_87" data-name="Trazado 87" d="M181.13,156a66,66,0,0,0-5.36,4,12,12,0,0,1-3.37,2.07,17.09,17.09,0,0,1-4.1.41,19.75,19.75,0,0,0-11.92,5.43,1.64,1.64,0,0,0-.51,1.59,26.47,26.47,0,0,0,2.66,1.34,1.48,1.48,0,0,0,.44-.34,16.13,16.13,0,0,1,6-3.62c2.37-.78,4.7-.59,7.14-1,4.62-.74,8-5.11,11.91-7.37,2.7-1.55,5.7-2,8.66-2.81a22.11,22.11,0,0,0,1.07-4.18C189.42,153.1,185.09,153.51,181.13,156Z" fill="#eaeef4"/></g><g id="Grupo_757" data-name="Grupo 757"><path id="Trazado_71" data-name="Trazado 71" d="M35.35,124.7a13.34,13.34,0,0,0-2.68-8c-.23.73-.44,1.46-.73,2.18a15.78,15.78,0,0,0-.75,2.09,2.51,2.51,0,0,0-.1.61c0,.23,0,.2.08.33a2.14,2.14,0,0,1,.49.63,3.27,3.27,0,0,1,0,1.91C31.5,125,30.84,127,30,127l-1.13,2.26a.48.48,0,0,1-.67.16.49.49,0,0,1-.22-.27,12.35,12.35,0,0,1,0-5.92,5,5,0,0,0,.13-.77c0-.3-.18-.37-.31-.6a1.35,1.35,0,0,1-.07-1.13c.2-.69.43-1.37.65-2a5.27,5.27,0,0,1-.81.14.49.49,0,0,1-.48-.48.51.51,0,0,1,0-.13c.1-.28.19-.57.29-.86l-.2.11c-.29.14-.78,0-.73-.42s.08-.54.13-.81l-.93.51a.48.48,0,0,1-.66-.2.47.47,0,0,1-.05-.35,11.91,11.91,0,0,1,2-4A13.41,13.41,0,0,0,8.55,124.7a14.14,14.14,0,0,0,.52,3.71A24.35,24.35,0,0,1,15.91,125c.57-.18,1.64-.65,2,.12s-.34,1.44-.57,2-.36.93-.51,1.4c-.07.24-.12.46-.18.69s0,.16,0,.23l.27-.18.6-.44,1.2-.87a.49.49,0,0,1,.66.17,1.31,1.31,0,0,1,.2,1c0,.17-.19.74-.05.87s1.15-.39,1.39-.5l1.47-.69a.5.5,0,0,1,.66.18,4.54,4.54,0,0,1,.28,2.19,9.24,9.24,0,0,0-.05,1.18c0,.48.28.35.63.15s.62-.44.95-.34a.74.74,0,0,1,.49.59,5.45,5.45,0,0,1-.35,2.08A15.4,15.4,0,0,1,23.83,138,13.41,13.41,0,0,0,35.35,124.7Z" fill="#6722ea"/><path id="Trazado_72" data-name="Trazado 72" d="M25.32,132.71a.72.72,0,0,0-.48-.59c-.33-.09-.69.19-1,.34s-.59.33-.62-.16a7.82,7.82,0,0,1,0-1.18,4.55,4.55,0,0,0-.28-2.19.5.5,0,0,0-.66-.17l-1.47.69c-.24.11-1.15.7-1.39.5s0-.7,0-.88a1.39,1.39,0,0,0-.2-1,.49.49,0,0,0-.66-.17l-1.2.87-.6.44-.27.17c0-.07,0-.15.05-.22.05-.23.11-.47.18-.69a11.72,11.72,0,0,1,.51-1.4c.24-.57.87-1.35.57-2s-1.42-.3-2-.11a24.24,24.24,0,0,0-6.85,3.45A13.37,13.37,0,0,0,23.87,138,15,15,0,0,0,25,134.78,5.65,5.65,0,0,0,25.32,132.71Z" fill="#ed0c8d"/><path id="Trazado_73" data-name="Trazado 73" d="M25.59,116.76l.92-.51a7.54,7.54,0,0,0-.12.81c-.05.4.43.57.73.42l.2-.11-.3.86a.49.49,0,0,0,.34.6h.13a4.58,4.58,0,0,0,.81-.14c-.23.68-.45,1.36-.65,2a1.28,1.28,0,0,0,.06,1.13c.15.23.32.32.32.6a7,7,0,0,1-.13.78,12.18,12.18,0,0,0,0,5.91.5.5,0,0,0,.61.33.49.49,0,0,0,.27-.22L29.93,127c.89,0,1.55-2,1.69-2.62a3.48,3.48,0,0,0,0-1.92,2,2,0,0,0-.49-.63c-.11-.13-.1-.1-.09-.33s.06-.41.1-.61a15.16,15.16,0,0,1,.75-2.08,21.62,21.62,0,0,0,.73-2.19,13.44,13.44,0,0,0-5.76-4.42,11.73,11.73,0,0,0-2,4,.48.48,0,0,0,.35.6A.45.45,0,0,0,25.59,116.76Z" fill="#ed0c8d"/></g><g id="Grupo_758" data-name="Grupo 758"><path id="Trazado_74" data-name="Trazado 74" d="M317.56,111.55a5.46,5.46,0,0,0-.4-2.11,1.49,1.49,0,0,1-.3.18,11.23,11.23,0,0,0-2.91,1.9.6.6,0,0,1-.58.17c-.1.22-.22.43-.33.65a.61.61,0,0,1-.84.24l-.12-.09a6.14,6.14,0,0,1-1.14.73c-.75.41-1.38,1.2-2.29,1.06a3.89,3.89,0,0,1-.43.48.62.62,0,0,1-.81.07l-.18.22a6,6,0,0,0,1.73,1.51,93.15,93.15,0,0,1,8.59-4.6C317.56,111.83,317.56,111.68,317.56,111.55Z" fill="#1ed5f4"/><path id="Trazado_75" data-name="Trazado 75" d="M309.23,110.85c.07.32.09.78.2,1.17.36-.27,1-1,1.18-1.07l1.53-1.34a.65.65,0,0,1,.92,0l.08.09c.93-.72,1.83-1.49,2.72-2.28a5.73,5.73,0,0,0-1.52-1.07,7,7,0,0,1-2.67,1.75,55.22,55.22,0,0,1-5.27,2,.65.65,0,0,1-.2,0,6.14,6.14,0,0,0-.15,1.35,5.59,5.59,0,0,0,.19,1.47l1.91-2.45a.66.66,0,0,1,.93,0A.76.76,0,0,1,309.23,110.85Z" fill="#1ed5f4"/><path id="Trazado_76" data-name="Trazado 76" d="M312.07,106.46a8.92,8.92,0,0,0,.95-.54,6.12,6.12,0,0,0-1.2-.13,5.78,5.78,0,0,0-5,2.84c1.1-.39,2.21-.79,3.29-1.25C310.79,107.1,311.44,106.8,312.07,106.46Z" fill="#1ed5f4"/><path id="Trazado_77" data-name="Trazado 77" d="M311.81,117.3a5.77,5.77,0,0,0,5.4-3.75c-2.29,1.11-4.53,2.3-6.72,3.6A5.35,5.35,0,0,0,311.81,117.3Z" fill="#1ed5f4"/><path id="Trazado_78" data-name="Trazado 78" d="M308.22,114.77a3.89,3.89,0,0,0,.43-.48c.91.14,1.54-.65,2.29-1.07a6.1,6.1,0,0,0,1.14-.72.63.63,0,0,0,.88,0,.36.36,0,0,0,.08-.12c.1-.22.22-.42.33-.64a.65.65,0,0,0,.58-.17,11.41,11.41,0,0,1,2.91-1.9c.1-.07.2-.12.3-.18a5.59,5.59,0,0,0-1.32-2c-.88.79-1.79,1.54-2.72,2.28a.66.66,0,0,0-.92-.17.27.27,0,0,0-.08.07c-.51.42-1,.88-1.53,1.32a14.63,14.63,0,0,1-1.18,1.07c-.1-.37-.13-.85-.19-1.16a.67.67,0,0,0-.81-.46.68.68,0,0,0-.28.17l-1.9,2.45a6,6,0,0,0,1,2l.18-.22A.65.65,0,0,0,308.22,114.77Z" fill="#d7f1f4"/><path id="Trazado_79" data-name="Trazado 79" d="M309,116.55a5.3,5.3,0,0,0,1.53.6q3.28-1.94,6.72-3.6a5.71,5.71,0,0,0,.34-1.59A96.91,96.91,0,0,0,309,116.55Z" fill="#d7f1f4"/><path id="Trazado_80" data-name="Trazado 80" d="M311.66,108.11a6.68,6.68,0,0,0,2.66-1.75,5.39,5.39,0,0,0-1.3-.44,8.92,8.92,0,0,1-.95.54,21.41,21.41,0,0,1-1.94.92c-1.08.47-2.18.86-3.29,1.25a5.9,5.9,0,0,0-.64,1.56.33.33,0,0,0,.17,0A50.63,50.63,0,0,0,311.66,108.11Z" fill="#d7f1f4"/></g><g id="Logo_Horizontal_10" data-name="Logo Horizontal 10"><g id="Grupo_17" data-name="Grupo 17"><g id="Grupo_11" data-name="Grupo 11"><path id="Trazado_46" data-name="Trazado 46" d="M169.27,39.43a64.62,64.62,0,0,0-3.42-6.07c-8.54-13.42-21.2-21.39-31.7-21.26-4.5,9.49-2.47,24.3,6.07,37.65a48.27,48.27,0,0,0,4.11,5.63Z" fill="#c4c5ce"/></g><g id="Grupo_12" data-name="Grupo 12"><path id="Trazado_47" data-name="Trazado 47" d="M134.4,12.1h-.32c-4.68,9.43-2.85,24.3,5.51,37.77a53,53,0,0,0,4,5.7L156,47.92Z" fill="#b3b3ba"/></g><g id="Grupo_13" data-name="Grupo 13"><path id="Trazado_48" data-name="Trazado 48" d="M150.22,17.29a39.43,39.43,0,0,0-6.08-3.17l-6.77,30.69a51.45,51.45,0,0,0,2.85,4.94c.7,1.07,1.46,2.15,2.15,3.16Z" fill="#c1c4c9"/><path id="Trazado_49" data-name="Trazado 49" d="M160,25.58a53.19,53.19,0,0,0-5.82-5.51l-7.4,33.79,8.16-5.25Z" fill="#c1c4c9"/><path id="Trazado_50" data-name="Trazado 50" d="M155.41,48.29l13.86-8.92a64.62,64.62,0,0,0-3.42-6.07A60.29,60.29,0,0,0,160.28,26Z" fill="#c1c4c9"/></g><g id="Grupo_14" data-name="Grupo 14" opacity="0.18"><path id="Trazado_51" data-name="Trazado 51" d="M165.4,41c-1-1.83-2-3.67-3.1-5.5-8.54-13.35-17-22.15-28-23.1-2.35,11,.38,20.89,8.92,34.24a63.17,63.17,0,0,0,4.36,5.7" fill="none" stroke="#000" stroke-linecap="round" stroke-linejoin="round" stroke-dasharray="0.2 5"/></g><path id="Trazado_54" data-name="Trazado 54" d="M141,46c-.63-1-1.45-.89-1.77.25l-4.36,16.65c-.32,1.2.25,1.52,1.2.82l9.17-7.08a2.54,2.54,0,0,0,.58-3.23Z" fill="#ff980a"/><path id="Trazado_55" data-name="Trazado 55" d="M160.72,33.11c-.63-1-.19-1.71,1-1.52l17,2.91c1.2.19,1.33.82.25,1.39l-10.25,5.38a2.47,2.47,0,0,1-3.16-.82Z" fill="#ff980a"/><g id="Grupo_15" data-name="Grupo 15" opacity="0.18"><line id="Línea_4" data-name="Línea 4" x1="134.84" y1="13.24" x2="134.9" y2="13.24" fill="none" stroke="#000" stroke-linecap="round" stroke-linejoin="round"/><line id="Línea_5" data-name="Línea 5" x1="136.11" y1="15.13" x2="155.47" y2="45.32" stroke-dasharray="0.2 5.02" stroke="#000" stroke-linecap="round" stroke-linejoin="round" fill="none"/><line id="Línea_6" data-name="Línea 6" x1="156.04" y1="46.27" x2="156.1" y2="46.27" fill="none" stroke="#000" stroke-linecap="round" stroke-linejoin="round"/></g><circle id="Elipse_18" data-name="Elipse 18" cx="142.25" cy="24.75" r="6.77" fill="#60636d"/><circle id="Elipse_19" data-name="Elipse 19" cx="142.25" cy="24.75" r="6.33" fill="#191d2d"/><path id="Trazado_56" data-name="Trazado 56" d="M172.87,57h.44a3.68,3.68,0,0,0-.19-3.86,3.3,3.3,0,0,0-1.26-1.2,7.15,7.15,0,0,0,1.33-6.64,3.69,3.69,0,0,0,1-4.94,3.6,3.6,0,0,0-5-1.09l0,0a3.23,3.23,0,0,0-1.2,1.26,7.07,7.07,0,0,0-5.25,1,6.68,6.68,0,0,0-1.08.82,8.1,8.1,0,0,0-9.62,6.2h0a1.61,1.61,0,0,0-.31.19,8.42,8.42,0,0,0-3.17,3.67,5.82,5.82,0,0,0-2.27.83A5.66,5.66,0,0,0,144.59,61a5.56,5.56,0,0,0,7.27,2,8.57,8.57,0,0,0,5.95,1.14A7.46,7.46,0,0,0,159,67a8.64,8.64,0,0,0,5.25,3.73l6.52,10.19h2V57Z" fill="#e7eaf7"/><path id="Trazado_57" data-name="Trazado 57" d="M172.87,71.33,155.15,43.74a8.09,8.09,0,0,0-3,4.74h0a1.69,1.69,0,0,0-.32.19,8.41,8.41,0,0,0-3.16,3.67,5.62,5.62,0,0,0-4,8.61,5.57,5.57,0,0,0,7.28,2,8.56,8.56,0,0,0,5.95,1.14,7.17,7.17,0,0,0,1.2,2.91,8.59,8.59,0,0,0,5.25,3.73l6.52,10.19h2Z" fill="#d6d9e5"/><g id="Grupo_658" data-name="Grupo 658"><g id="Dona"><path id="Trazado_357" data-name="Trazado 357" d="M145.84,23.9c-.15-.5-2.36-1.5-3.81-1.24a8.06,8.06,0,0,0-1.33.54c-2.14.78-2.09,2.28-1.24,3.47a4,4,0,0,0,3.3,1.3A3,3,0,0,0,146,25.15,3,3,0,0,0,145.84,23.9Zm-2.11.73,0,0C144,24.83,143.65,24.55,143.73,24.63Z" fill="#bf8320"/><path id="Trazado_1814" data-name="Trazado 1814" d="M146,25.05c-.11-.07-2,1.72-7,.31,0,0,0,0,0,.05,0,.24.15.42.21.65.72.73,3.2,1.08,6.63.12C145.89,25.86,146.05,25.12,146,25.05Z" fill="#b9640f"/></g><g id="Cubierta_de_chocolate" data-name="Cubierta de chocolate"><path id="Trazado_1776" data-name="Trazado 1776" d="M145.15,26.54c0-.17,0-.45.09-.58s.35-.18.49-.27.24-.49.27-.75c.13-1.06-.26-2-1.9-2.7a4.46,4.46,0,0,0-4.26.4,2.11,2.11,0,0,0-1,2.27,1.63,1.63,0,0,0,.73,1.13c.19.07.32,0,.5.15a1.2,1.2,0,0,1,.31.4.78.78,0,0,0,.88.43c.24,0,.35-.05.54.1a.83.83,0,0,0,.48.21c.41,0,.6-.52,1-.21.16.12.31.24.51.15s.14-.33.3-.45C144.45,26.57,145,27.14,145.15,26.54Z" fill="#45322e"/></g><g id="Chispas_de_colores" data-name="Chispas de colores"><path id="Trazado_1744" data-name="Trazado 1744" d="M144.79,23.1a.32.32,0,0,0-.14,0h-.32v.17a1.11,1.11,0,0,1,.51.06A.24.24,0,0,0,144.79,23.1Z" fill="#cc3131"/><path id="Trazado_1745" data-name="Trazado 1745" d="M145.67,25a.15.15,0,0,0-.13,0h-.33v.17a1,1,0,0,1,.52.07A.23.23,0,0,0,145.67,25Z" fill="#cc3131"/><path id="Trazado_1746" data-name="Trazado 1746" d="M145.38,25.42l-.24-.24a4.65,4.65,0,0,1-.63.21.75.75,0,0,1,.27.34A2.85,2.85,0,0,1,145.38,25.42Z" fill="#ead4af"/><path id="Trazado_1747" data-name="Trazado 1747" d="M140.17,23.93l-.25-.24a6.45,6.45,0,0,1-.62.21.76.76,0,0,1,.27.34A2.28,2.28,0,0,1,140.17,23.93Z" fill="#ead4af"/><path id="Trazado_1748" data-name="Trazado 1748" d="M144.41,24.58a.41.41,0,0,0-.13-.1l-.26-.13a2.52,2.52,0,0,0-.21.25,1.58,1.58,0,0,1,.58.22A.29.29,0,0,0,144.41,24.58Z" fill="#fc0"/><path id="Trazado_1749" data-name="Trazado 1749" d="M140.65,23.22a1.86,1.86,0,0,0-.1.25l.61.15a.37.37,0,0,1,.06-.21A2.93,2.93,0,0,1,140.65,23.22Z" fill="#5cb45f"/><path id="Trazado_1750" data-name="Trazado 1750" d="M142.13,22.52l-.54,0a.63.63,0,0,0-.12.23,2.14,2.14,0,0,1,.62,0A.37.37,0,0,1,142.13,22.52Z" fill="#cc3131"/><path id="Trazado_1751" data-name="Trazado 1751" d="M140.72,24.26H141a.34.34,0,0,1,0-.26.62.62,0,0,0,0-.27l-.19,0Z" fill="#fc0"/><path id="Trazado_1752" data-name="Trazado 1752" d="M144,23.44l-.11-.15-.44.1.19.22Z" fill="#ead4af"/><path id="Trazado_1753" data-name="Trazado 1753" d="M141,25.82l-.11-.15-.44.1.19.22Z" fill="#ead4af"/><path id="Trazado_1754" data-name="Trazado 1754" d="M144.81,23.91a.12.12,0,0,0,0-.13.12.12,0,0,0-.14,0l0,0a1,1,0,0,0-.22.41.41.41,0,0,1,.24.08.5.5,0,0,1,.09-.24A.42.42,0,0,0,144.81,23.91Z" fill="#5cb45f"/><path id="Trazado_1755" data-name="Trazado 1755" d="M142.37,26.25a.12.12,0,0,0-.17-.14l0,0a1.07,1.07,0,0,0-.21.41.41.41,0,0,1,.24.08.42.42,0,0,1,.09-.24A.42.42,0,0,0,142.37,26.25Z" fill="#5cb45f"/><path id="Trazado_1756" data-name="Trazado 1756" d="M140.76,25.25l.2.14.28-.38-.2,0Z" fill="#cc3131"/><path id="Trazado_1757" data-name="Trazado 1757" d="M139.69,24.5l0,0,.28.11a1.35,1.35,0,0,1,.3-.47.93.93,0,0,1-.29-.05l-.3.32A.09.09,0,0,0,139.69,24.5Z" fill="#fc0"/><path id="Trazado_1758" data-name="Trazado 1758" d="M144.21,26.24s0,0,0,0l.28.11a1.57,1.57,0,0,1,.3-.47.58.58,0,0,1-.29-.05l-.31.33S144.2,26.22,144.21,26.24Z" fill="#fc0"/><path id="Trazado_1759" data-name="Trazado 1759" d="M143.77,26.36a1,1,0,0,1,.3-.38l-.22-.11-.35.32Z" fill="#5cb45f"/><path id="Trazado_1760" data-name="Trazado 1760" d="M141.13,26.3l.24.13a2.87,2.87,0,0,1,.31-.4.1.1,0,0,0-.08-.05Z" fill="#6bc3c3"/><path id="Trazado_1761" data-name="Trazado 1761" d="M139.94,23.05l-.3.33.21.13.28-.39Z" fill="#cc3131"/><path id="Trazado_1762" data-name="Trazado 1762" d="M141,22.61a.25.25,0,0,0-.17,0l-.28,0,.06.25a.93.93,0,0,1,.52-.09A.33.33,0,0,0,141,22.61Z" fill="#6bc3c3"/><path id="Trazado_1763" data-name="Trazado 1763" d="M145.39,24.52l.06.05a.13.13,0,0,0,.12,0,.14.14,0,0,0,.05-.11,1.49,1.49,0,0,1-.27-.35l-.27.1Z" fill="#6bc3c3"/><path id="Trazado_1764" data-name="Trazado 1764" d="M143.35,25.85a.18.18,0,0,0,.07,0,.09.09,0,0,0,.11,0,.12.12,0,0,0,.05-.11,1.91,1.91,0,0,1-.27-.35l-.27.1Z" fill="#6bc3c3"/><path id="Trazado_1765" data-name="Trazado 1765" d="M143.88,23.23a.18.18,0,0,0,.07.05.12.12,0,0,0,.16-.12,3,3,0,0,1-.27-.35l-.27.1Z" fill="#6bc3c3"/><path id="Trazado_1766" data-name="Trazado 1766" d="M141.87,23.36l.06.05a.12.12,0,0,0,.16-.05.17.17,0,0,0,0-.07,2.33,2.33,0,0,1-.27-.35l-.27.11Z" fill="#6bc3c3"/><path id="Trazado_1767" data-name="Trazado 1767" d="M144.08,22.48a.94.94,0,0,1-.41,0l-.07.2a1.88,1.88,0,0,1,.53.06A.34.34,0,0,1,144.08,22.48Z" fill="#5cb45f"/><path id="Trazado_1768" data-name="Trazado 1768" d="M141.69,25a.51.51,0,0,1-.25-.35l-.25.09a1.94,1.94,0,0,1,.31.44Z" fill="#ead4af"/><path id="Trazado_1769" data-name="Trazado 1769" d="M142.6,22.35a.49.49,0,0,1-.26-.35l-.25.09a1.94,1.94,0,0,1,.31.44Z" fill="#ead4af"/><path id="Trazado_1770" data-name="Trazado 1770" d="M143.48,26.68a.55.55,0,0,1-.25-.36l-.25.09a1.94,1.94,0,0,1,.31.44Z" fill="#ead4af"/><path id="Trazado_1771" data-name="Trazado 1771" d="M143.35,25.34a.14.14,0,0,0,.07.08.13.13,0,0,0,.12,0l.15-.37a.75.75,0,0,0-.21,0,.46.46,0,0,0-.13.27Z" fill="#cc3131"/><path id="Trazado_1772" data-name="Trazado 1772" d="M142.42,25.09a.08.08,0,0,0-.06,0l-.18,0-.29.36.2.1.3-.34A.05.05,0,0,0,142.42,25.09Z" fill="#5cb45f"/><path id="Trazado_1773" data-name="Trazado 1773" d="M139.67,25.21a1.65,1.65,0,0,1,.45.29c.06-.08.13-.16.18-.24a2.39,2.39,0,0,1-.43-.2Z" fill="#5cb45f"/><path id="Trazado_1819" data-name="Trazado 1819" d="M142.23,24.52a.18.18,0,0,0,.07.05.11.11,0,0,0,.11,0,.13.13,0,0,0,.05-.11,3,3,0,0,1-.27-.35l-.27.1Z" fill="#6bc3c3"/><path id="Trazado_1820" data-name="Trazado 1820" d="M143.14,24.48a.11.11,0,0,0,.07.09.14.14,0,0,0,.11,0l.15-.38a.74.74,0,0,0-.21,0,.45.45,0,0,0-.12.27A0,0,0,0,0,143.14,24.48Z" fill="#cc3131"/><path id="Trazado_1821" data-name="Trazado 1821" d="M143,23.81l-.11-.14-.44.09.19.23Z" fill="#ead4af"/><path id="Trazado_1822" data-name="Trazado 1822" d="M142.58,23.27s0,0,0,0l.29.11a1.36,1.36,0,0,1,.29-.47.74.74,0,0,1-.29-.05l-.3.32S142.57,23.25,142.58,23.27Z" fill="#fc0"/></g></g></g><g id="Rocket" style="isolation:isolate"><text transform="translate(46.28 86.1)" font-size="42" fill="#fff" font-family="Rockwell" style="isolation:isolate">Roc<tspan x="71.33" y="0" letter-spacing="-0.03em">k</tspan><tspan x="94.15" y="0">et</tspan></text></g><g id="Donuts" style="isolation:isolate"><text transform="translate(188.35 86.1)" font-size="32" fill="#ff980a" font-family="Rockwell" style="isolation:isolate">Do<tspan x="41.67" y="0" letter-spacing="-0.01em">n</tspan><tspan x="59.7" y="0">uts</tspan></text></g></g></g></g></svg>