<svg id="Capa_1" data-name="Capa 1" xmlns="http://www.w3.org/2000/svg" viewBox="0 0 124 99.65"><title>MenuIcon</title><path d="M112,10.41H12c-6.6,0-12,4.81-12,10.68S5.4,31.76,12,31.76H112c6.6,0,12-4.8,12-10.67S118.6,10.41,112,10.41Z" transform="translate(0 -10.41)" fill="#eaeaef"/><path d="M112,49.56H12c-6.6,0-12,4.8-12,10.68S5.4,70.91,12,70.91H112c6.6,0,12-4.8,12-10.67S118.6,49.56,112,49.56Z" transform="translate(0 -10.41)" fill="#eaeaef"/><path d="M112,88.71H12c-6.6,0-12,4.8-12,10.67s5.4,10.68,12,10.68H112c6.6,0,12-4.81,12-10.68S118.6,88.71,112,88.71Z" transform="translate(0 -10.41)" fill="#eaeaef"/></svg>