<svg xmlns="http://www.w3.org/2000/svg" width="35.049" height="30.376" viewBox="0 0 35.049 30.376"><g transform="translate(0 0)"><path d="M33.68,42.583a4.5,4.5,0,0,0-3.3-1.369H26.287l-.931-2.482a3.391,3.391,0,0,0-1.269-1.543A3.251,3.251,0,0,0,22.2,36.54H12.851a3.251,3.251,0,0,0-1.89.648,3.391,3.391,0,0,0-1.269,1.543l-.931,2.482H4.673a4.5,4.5,0,0,0-3.3,1.369A4.5,4.5,0,0,0,0,45.887V62.243a4.5,4.5,0,0,0,1.369,3.3,4.5,4.5,0,0,0,3.3,1.369h25.7a4.675,4.675,0,0,0,4.673-4.673V45.887A4.5,4.5,0,0,0,33.68,42.583ZM23.3,59.843a7.876,7.876,0,0,1-5.778,2.4,7.876,7.876,0,0,1-5.778-2.4,8.153,8.153,0,0,1,0-11.555,7.875,7.875,0,0,1,5.778-2.4,7.876,7.876,0,0,1,5.778,2.4,8.153,8.153,0,0,1,0,11.555Z" transform="translate(0 -36.54)" fill="#f9faff"/><path d="M197.114,228.4a5.267,5.267,0,1,0,3.715,1.543A5.064,5.064,0,0,0,197.114,228.4Z" transform="translate(-179.589 -216.136)" fill="#f9faff"/></g></svg>