<svg id="Capa_1" data-name="Capa 1" xmlns="http://www.w3.org/2000/svg" viewBox="0 0 104 128"><title>Profile_Image_men</title><rect id="Rectángulo_16" data-name="Rectángulo 16" width="104" height="128" fill="#ecedf2"/><g id="Grupo_53" data-name="Grupo 53"><g id="Grupo_41" data-name="Grupo 41"><path id="Trazado_102" data-name="Trazado 102" d="M53,77.16A24.52,24.52,0,1,1,77.47,52.65,24.51,24.51,0,0,1,53,77.16ZM53,31A21.63,21.63,0,1,0,74.58,52.65,21.63,21.63,0,0,0,53,31Z" fill="#313045"/></g><g id="Grupo_42" data-name="Grupo 42"><path id="Trazado_103" data-name="Trazado 103" d="M36.26,68.6" fill="none" stroke="#24292b" stroke-miterlimit="10" stroke-width="9"/></g><g id="Grupo_43" data-name="Grupo 43"><path id="Trazado_104" data-name="Trazado 104" d="M69.64,68.6" fill="none" stroke="#24292b" stroke-miterlimit="10" stroke-width="9"/></g><g id="Grupo_44" data-name="Grupo 44"><path id="Trazado_105" data-name="Trazado 105" d="M87.19,103H18.71l-.16-1.25a34.1,34.1,0,0,1-.29-4.4,34.76,34.76,0,0,1,17.3-30L37,69.88a31.9,31.9,0,0,0-15.85,27.5,26,26,0,0,0,.12,2.79H84.62a26.05,26.05,0,0,0,.13-2.79A31.85,31.85,0,0,0,68.9,69.88l1.44-2.5a34.82,34.82,0,0,1,17.3,30,32.41,32.41,0,0,1-.29,4.4Z" fill="#313045"/></g><g id="Grupo_45" data-name="Grupo 45"><path id="Trazado_106" data-name="Trazado 106" d="M67.17,62H38.74l-.42-.7A17,17,0,0,1,39,43l.42-.61H66.46l.42.61a17,17,0,0,1,.67,18.26ZM40.4,59.06H65.47a14.14,14.14,0,0,0-.55-13.8H41a14,14,0,0,0-2.09,7.38A14.26,14.26,0,0,0,40.4,59.06Z" fill="#313045"/></g><g id="Grupo_46" data-name="Grupo 46"><path id="Trazado_107" data-name="Trazado 107" d="M70.41,95.65H56.8v-10H70.41ZM59.69,92.76h7.83V88.59H59.69Z" fill="#313045"/></g><g id="Grupo_47" data-name="Grupo 47"><circle id="Elipse_25" data-name="Elipse 25" cx="46.37" cy="52.17" r="2.82" fill="#313045"/></g><g id="Grupo_48" data-name="Grupo 48"><circle id="Elipse_26" data-name="Elipse 26" cx="59.62" cy="52.17" r="2.82" fill="#313045"/></g><g id="Grupo_49" data-name="Grupo 49"><rect id="Rectángulo_17" data-name="Rectángulo 17" x="34.82" y="90.67" width="2.89" height="10.91" fill="#313045"/></g><g id="Grupo_50" data-name="Grupo 50"><rect id="Rectángulo_18" data-name="Rectángulo 18" x="71.69" y="90.67" width="2.89" height="10.91" fill="#313045"/></g><g id="Grupo_51" data-name="Grupo 51"><path id="Trazado_108" data-name="Trazado 108" d="M82.53,85.73c-.22-.48-2.08-5.13,4.2-20.6,1.54-3.75,1.54-6.83.1-9.14-3-4.66-11-5.14-11.1-5.14L75.89,48c.39,0,9.63.58,13.39,6.49,2,3.14,2,7.12.16,11.8-5.72,14.09-4.27,18.3-4.24,18.36a.11.11,0,0,0,0-.06Z" fill="#313045"/></g><g id="Grupo_52" data-name="Grupo 52"><rect id="Rectángulo_19" data-name="Rectángulo 19" x="13" y="100.14" width="78.3" height="2.89" fill="#313045"/></g></g></svg>