<svg xmlns="http://www.w3.org/2000/svg" width="77.307" height="80.374" viewBox="0 0 77.307 80.374"><g transform="translate(-68 -1133.538)"><path d="M42.765.688c-3.611-2.586-23.712,2.3-32,11.658-2.829,3.2-4.057,7.27-6.094,10.54-10.24,16.433-2.134,26.261,9.879,29.8,6.8,2,19.329-.129,28.879-8.557C70.4,20.331,42.765.688,42.765.688Zm-9,24.852c-.08.023-4.027,3.14-4.462,3.486-1.2.958-4.99,3.356-5.336,3.754-.4,1.07-1.6.832-2.429,1.733-2.165.554-3.319-.122-5.865-1.413-1.574-1.685,4.563-15.483,11.689-15.755a35.1,35.1,0,0,1,5.1-.733c.109.011.206.043.309.06,2.589-.177-2.589-.02,0,0C38.264,16.721,36.252,25.479,33.76,25.539Z" transform="matrix(0.788, 0.616, -0.616, 0.788, 101.773, 1137.833)" fill="#b9640f"/><path d="M4.151,40.656c.395.272.787.526,1.176.781.306-.212.618-.423.936-.644,2.609-1.768,4.786-4.08,7.39-5.854l2.375-1.619a3.654,3.654,0,0,0-.366-.22c-1.574-1.685,4.474-15.184,11.6-15.456.9-.166,4.249-1.115,5.184-1.032.109.011.206.043.309.06,1.482-.1,2.978-.109,4.472-.1C38.113,14.8,38.966,13,39.95,11.242a55.419,55.419,0,0,1,5.27-8.5A28.628,28.628,0,0,0,42.757.688c-3.611-2.586-23.712,2.3-32,11.658-2.829,3.2-4.057,7.27-6.094,10.54C.32,29.85-.716,35.626.437,40.241A3.534,3.534,0,0,1,4.151,40.656Z" transform="matrix(0.788, 0.616, -0.616, 0.788, 101.779, 1137.838)" fill="#9d4a00"/><g transform="translate(68 1133.538)"><path d="M57.182,24.837c-.529-1.425-2.4-2.924-2.472-4.374-.074-1.528,1.479-3.056,1.905-4.409.735-2.337-.967-4.532-2.111-6.437C49.863,1.9,42.184-2.477,27.6,1.491,20.031,3.557,5.944,10.481,1.172,26.519-1.675,36.089.9,41.954,6.336,47.041c2.054,1.928,7.547,4.789,10.82,3.728,1.6-.518,2.229-1.6,4.131-1.6a9.529,9.529,0,0,1,4.128,1.027c3.379,1.528,5.336.65,8.148-1.771,1.545-1.33,2.1-2.111,4.194-2.1a7,7,0,0,0,4.3-1.136c2.867-1.994,1.27-6.606,5.842-6.829,1.662-.083,3.319,0,4.157-1.708s-.784-2.918-.326-4.56C52.675,28.691,59.044,29.864,57.182,24.837ZM17.076,26.519c3.127-13.052,15.083-9.925,16.568-7.977C39.446,26.142,13.969,39.5,17.076,26.519Z" transform="matrix(0.788, 0.616, -0.616, 0.788, 31.398, 0)" fill="#45322e"/></g><g transform="translate(78.895 1149.445)"><path d="M3.282,0A1.983,1.983,0,0,0,2.2.512L0,2.18c.318.369.641.741.958,1.11A8.5,8.5,0,0,1,4.741,1.022C4.369.527,3.9-.011,3.282,0Z" transform="matrix(0.788, 0.616, -0.616, 0.788, 44.628, 8.102)" fill="#cc3131"/><path d="M3.284,0A1.948,1.948,0,0,0,2.2.51Q1.1,1.342,0,2.175L.961,3.288A8.531,8.531,0,0,1,4.744,1.016C4.372.524,3.9-.017,3.284,0Z" transform="matrix(0.788, 0.616, -0.616, 0.788, 52.154, 23.948)" fill="#cc3131"/><path d="M5.962.3Q4.49.149,3.024,0A45.193,45.193,0,0,1,0,4.692a6.233,6.233,0,0,1,3.528.878A23.046,23.046,0,0,1,5.962.3Z" transform="matrix(0.788, 0.616, -0.616, 0.788, 47.768, 25.911)" fill="#ead4af"/><path d="M5.962.3,3.027,0A46.04,46.04,0,0,1,0,4.695a6.2,6.2,0,0,1,3.528.875A23.224,23.224,0,0,1,5.962.3Z" transform="matrix(0.788, 0.616, -0.616, 0.788, 3.429, 13.216)" fill="#ead4af"/><path d="M3.925.091a2.427,2.427,0,0,0-1.31,0C1.78.248.944.409.109.566.072,1.493.034,2.423,0,3.35A13.464,13.464,0,0,1,5.1,1.77C4.881,1.1,4.586.343,3.925.091Z" transform="matrix(0.788, 0.616, -0.616, 0.788, 40.903, 20.184)" fill="#fc0"/><path d="M0,1.762c.217.735.429,1.47.644,2.2Q3.086,2.858,5.53,1.745A3.128,3.128,0,0,1,4.858,0,22.9,22.9,0,0,1,0,1.762Z" transform="matrix(0.788, 0.616, -0.616, 0.788, 13.062, 9.711)" fill="#5cb45f"/><path d="M3.758,0Q1.883,1.313,0,2.629A5.924,5.924,0,0,0,.368,4.815,17.92,17.92,0,0,1,4.742,1.759,3.6,3.6,0,0,1,3.758,0Z" transform="matrix(0.788, 0.616, -0.616, 0.788, 21.624, 2.826)" fill="#cc3131"/><path d="M2.7,4.618c.621-.432,1.239-.87,1.857-1.3A2.779,2.779,0,0,1,2.921,1.777,4.115,4.115,0,0,0,1.482,0L0,.669Z" transform="matrix(0.788, 0.616, -0.616, 0.788, 13.351, 14.621)" fill="#fc0"/><path d="M3.945.4q-.76-.2-1.513-.4Q1.213,1.468,0,2.93c.8.175,1.611.349,2.415.521Z" transform="matrix(0.788, 0.616, -0.616, 0.788, 37.196, 10.24)" fill="#ead4af"/><path d="M3.942.4C3.442.272,2.935.134,2.432,0Q1.217,1.468,0,2.93q1.21.262,2.415.521C2.924,2.438,3.433,1.419,3.942.4Z" transform="matrix(0.788, 0.616, -0.616, 0.788, 11.966, 30.465)" fill="#ead4af"/><path d="M1.973.67A1.115,1.115,0,0,0,1.028,0,.972.972,0,0,0,.081.633a1.49,1.49,0,0,0-.066.406A7.994,7.994,0,0,0,.739,4.9a3.476,3.476,0,0,1,1.971-.721A3.668,3.668,0,0,1,2.067,2.1,3.493,3.493,0,0,0,1.973.67Z" transform="matrix(0.788, 0.616, -0.616, 0.788, 46.286, 15.235)" fill="#5cb45f"/><path d="M1.973.673A1.127,1.127,0,0,0,1.029,0a.976.976,0,0,0-.95.632,1.625,1.625,0,0,0-.063.406A8.009,8.009,0,0,0,.737,4.9a3.492,3.492,0,0,1,1.974-.721A3.675,3.675,0,0,1,2.068,2.1,3.494,3.494,0,0,0,1.973.673Z" transform="matrix(0.788, 0.616, -0.616, 0.788, 25.52, 35.139)" fill="#5cb45f"/><path d="M0,4.157Q1.039,4.1,2.083,4.04L1.9,0Q1.186.451.469.9Z" transform="matrix(0.788, 0.616, -0.616, 0.788, 15.485, 25.133)" fill="#cc3131"/><path d="M.149,5.424a.485.485,0,0,0,.389,0l2.5-.735A11.755,11.755,0,0,1,2.535,0,6.025,6.025,0,0,1,.32,1.159Q.166,3.047.006,4.932C-.009,5.115-.006,5.333.149,5.424Z" transform="matrix(0.788, 0.616, -0.616, 0.788, 7.096, 17.612)" fill="#fc0"/><path d="M.149,5.427a.509.509,0,0,0,.389,0q1.249-.369,2.495-.732A11.845,11.845,0,0,1,2.535,0,6.011,6.011,0,0,1,.323,1.159C.217,2.42.111,3.676.006,4.935-.009,5.115-.006,5.333.149,5.427Z" transform="matrix(0.788, 0.616, -0.616, 0.788, 45.509, 32.455)" fill="#fc0"/><path d="M2.638,4.117A9.516,9.516,0,0,1,2.666,0C1.983.14,1.3.28.618.418Q.309,2.4,0,4.38C.881,4.292,1.759,4.206,2.638,4.117Z" transform="matrix(0.788, 0.616, -0.616, 0.788, 38.978, 32.965)" fill="#5cb45f"/><path d="M0,4.781c.772-.126,1.545-.249,2.317-.375A25.924,25.924,0,0,1,2.283.086.888.888,0,0,0,1.4.158Q.7,2.471,0,4.781Z" transform="matrix(0.788, 0.616, -0.616, 0.788, 18.992, 33.554)" fill="#6bc3c3"/><path d="M.28.521Q.143,2.422,0,4.32l2.069-.266Q1.991,2.024,1.911,0C1.368.172.824.349.28.521Z" transform="matrix(0.788, 0.616, -0.616, 0.788, 6.058, 9.112)" fill="#cc3131"/><path d="M2.807.042A2.581,2.581,0,0,0,1.682.823C1.122,1.39.561,1.951,0,2.514c.569.446,1.142.9,1.711,1.348A8.379,8.379,0,0,1,4.666.549,2.594,2.594,0,0,0,2.807.042Z" transform="matrix(0.788, 0.616, -0.616, 0.788, 12.485, 4.204)" fill="#6bc3c3"/><path d="M3.725,2.609a1.994,1.994,0,0,0,.712.011,1,1,0,0,0,.724-.7A1,1,0,0,0,4.9.956,18.076,18.076,0,0,1,1.247,0L0,2.1Z" transform="matrix(0.788, 0.616, -0.616, 0.788, 50.96, 17.828)" fill="#6bc3c3"/><path d="M3.728,2.612a1.989,1.989,0,0,0,.712.009,1.01,1.01,0,0,0,.724-.7A1.012,1.012,0,0,0,4.9.956,17.891,17.891,0,0,1,1.25,0L0,2.1Q1.862,2.356,3.728,2.612Z" transform="matrix(0.788, 0.616, -0.616, 0.788, 33.643, 29.146)" fill="#6bc3c3"/><path d="M3.725,2.615a2.057,2.057,0,0,0,.712.006,1,1,0,0,0,.724-.7A1,1,0,0,0,4.9.956,17.518,17.518,0,0,1,1.247,0L0,2.106Q1.863,2.359,3.725,2.615Z" transform="matrix(0.788, 0.616, -0.616, 0.788, 38.16, 6.836)" fill="#6bc3c3"/><path d="M3.725,2.612a2.129,2.129,0,0,0,.712.011A.988.988,0,0,0,4.9.953,17.623,17.623,0,0,1,1.25,0C.833.7.418,1.4,0,2.106,1.242,2.272,2.483,2.443,3.725,2.612Z" transform="matrix(0.788, 0.616, -0.616, 0.788, 21.036, 7.972)" fill="#6bc3c3"/><path d="M2.97,0A8.742,8.742,0,0,1,0,1.871c.2.575.4,1.144.592,1.717A15.178,15.178,0,0,1,4.4,1.2,2.871,2.871,0,0,1,2.97,0Z" transform="matrix(0.788, 0.616, -0.616, 0.788, 38.846, 3.03)" fill="#5cb45f"/><path d="M4.778,1.039A4.55,4.55,0,0,1,1.2,0Q.6.97,0,1.934A16.2,16.2,0,0,1,4.42,3.219C4.54,2.495,4.661,1.765,4.778,1.039Z" transform="matrix(0.788, 0.616, -0.616, 0.788, 17.761, 22.369)" fill="#ead4af"/><path d="M4.778,1.036A4.531,4.531,0,0,1,1.2,0Q.6.965,0,1.934A16.109,16.109,0,0,1,4.417,3.219Z" transform="matrix(0.788, 0.616, -0.616, 0.788, 25.424, 0)" fill="#ead4af"/><path d="M4.778,1.036A4.549,4.549,0,0,1,1.2,0C.8.641.4,1.287,0,1.934A16.048,16.048,0,0,1,4.417,3.219Q4.6,2.124,4.778,1.036Z" transform="matrix(0.788, 0.616, -0.616, 0.788, 32.98, 36.761)" fill="#ead4af"/><path d="M.868,3.839a.973.973,0,0,0,.936.18A.978.978,0,0,0,2.43,3.3L1.495,0A7.93,7.93,0,0,0,.024.993,3.921,3.921,0,0,0,.579,3.476,1.484,1.484,0,0,0,.868,3.839Z" transform="matrix(0.788, 0.616, -0.616, 0.788, 36.656, 25.567)" fill="#cc3131"/><path d="M2.046.064c-.163-.132-.406-.034-.592.069C1.007.384.561.633.114.885Q.059,2.837,0,4.79c.632-.146,1.27-.289,1.905-.435Q2.03,2.441,2.16.527A.553.553,0,0,0,2.046.064Z" transform="matrix(0.788, 0.616, -0.616, 0.788, 25.463, 25.713)" fill="#5cb45f"/><path d="M0,2.987a12.856,12.856,0,0,1,4.575-.412C4.558,1.719,4.538.861,4.52,0A22.653,22.653,0,0,1,.538.9C.358,1.6.18,2.292,0,2.987Z" transform="matrix(0.788, 0.616, -0.616, 0.788, 5.479, 25.691)" fill="#5cb45f"/></g></g></svg>