<svg xmlns="http://www.w3.org/2000/svg" xmlns:xlink="http://www.w3.org/1999/xlink" width="348.971" height="635.523" viewBox="0 0 348.971 635.523"><defs><filter id="a" x="79" y="60" width="17.971" height="18.523" filterUnits="userSpaceOnUse"><feOffset input="SourceAlpha"/><feGaussianBlur stdDeviation="2" result="b"/><feFlood flood-color="#fff"/><feComposite operator="in" in2="b"/><feComposite in="SourceGraphic"/></filter><filter id="c" x="0" y="11" width="17.971" height="18.523" filterUnits="userSpaceOnUse"><feOffset input="SourceAlpha"/><feGaussianBlur stdDeviation="2" result="d"/><feFlood flood-color="#fff"/><feComposite operator="in" in2="d"/><feComposite in="SourceGraphic"/></filter><filter id="e" x="10" y="126" width="17.971" height="18.523" filterUnits="userSpaceOnUse"><feOffset input="SourceAlpha"/><feGaussianBlur stdDeviation="2" result="f"/><feFlood flood-color="#fff"/><feComposite operator="in" in2="f"/><feComposite in="SourceGraphic"/></filter><filter id="g" x="58" y="179" width="17.971" height="18.523" filterUnits="userSpaceOnUse"><feOffset input="SourceAlpha"/><feGaussianBlur stdDeviation="2" result="h"/><feFlood flood-color="#fff"/><feComposite operator="in" in2="h"/><feComposite in="SourceGraphic"/></filter><filter id="i" x="52" y="14" width="17.971" height="18.523" filterUnits="userSpaceOnUse"><feOffset input="SourceAlpha"/><feGaussianBlur stdDeviation="2" result="j"/><feFlood flood-color="#fff"/><feComposite operator="in" in2="j"/><feComposite in="SourceGraphic"/></filter><filter id="k" x="112" y="21" width="17.971" height="18.523" filterUnits="userSpaceOnUse"><feOffset input="SourceAlpha"/><feGaussianBlur stdDeviation="2" result="l"/><feFlood flood-color="#fff"/><feComposite operator="in" in2="l"/><feComposite in="SourceGraphic"/></filter><filter id="m" x="181" y="157" width="17.971" height="18.523" filterUnits="userSpaceOnUse"><feOffset input="SourceAlpha"/><feGaussianBlur stdDeviation="2" result="n"/><feFlood flood-color="#fff"/><feComposite operator="in" in2="n"/><feComposite in="SourceGraphic"/></filter><filter id="o" x="243" y="0" width="17.971" height="18.523" filterUnits="userSpaceOnUse"><feOffset input="SourceAlpha"/><feGaussianBlur stdDeviation="2" result="p"/><feFlood flood-color="#fff"/><feComposite operator="in" in2="p"/><feComposite in="SourceGraphic"/></filter><filter id="q" x="312" y="136" width="17.971" height="18.523" filterUnits="userSpaceOnUse"><feOffset input="SourceAlpha"/><feGaussianBlur stdDeviation="2" result="r"/><feFlood flood-color="#fff"/><feComposite operator="in" in2="r"/><feComposite in="SourceGraphic"/></filter><filter id="s" x="165" y="67" width="17.971" height="18.523" filterUnits="userSpaceOnUse"><feOffset input="SourceAlpha"/><feGaussianBlur stdDeviation="2" result="t"/><feFlood flood-color="#fff"/><feComposite operator="in" in2="t"/><feComposite in="SourceGraphic"/></filter><filter id="u" x="331" y="41" width="17.971" height="18.523" filterUnits="userSpaceOnUse"><feOffset input="SourceAlpha"/><feGaussianBlur stdDeviation="2" result="v"/><feFlood flood-color="#fff"/><feComposite operator="in" in2="v"/><feComposite in="SourceGraphic"/></filter><filter id="w" x="234" y="203" width="17.971" height="18.523" filterUnits="userSpaceOnUse"><feOffset input="SourceAlpha"/><feGaussianBlur stdDeviation="2" result="x"/><feFlood flood-color="#fff"/><feComposite operator="in" in2="x"/><feComposite in="SourceGraphic"/></filter><filter id="y" x="306" y="291" width="17.971" height="18.523" filterUnits="userSpaceOnUse"><feOffset input="SourceAlpha"/><feGaussianBlur stdDeviation="2" result="z"/><feFlood flood-color="#fff"/><feComposite operator="in" in2="z"/><feComposite in="SourceGraphic"/></filter><filter id="aa" x="300" y="342" width="17.971" height="18.523" filterUnits="userSpaceOnUse"><feOffset input="SourceAlpha"/><feGaussianBlur stdDeviation="2" result="ab"/><feFlood flood-color="#fff"/><feComposite operator="in" in2="ab"/><feComposite in="SourceGraphic"/></filter><filter id="ac" x="253" y="159" width="17.971" height="18.523" filterUnits="userSpaceOnUse"><feOffset input="SourceAlpha"/><feGaussianBlur stdDeviation="2" result="ad"/><feFlood flood-color="#fff"/><feComposite operator="in" in2="ad"/><feComposite in="SourceGraphic"/></filter><filter id="ae" x="202" y="112" width="17.971" height="18.523" filterUnits="userSpaceOnUse"><feOffset input="SourceAlpha"/><feGaussianBlur stdDeviation="2" result="af"/><feFlood flood-color="#fff"/><feComposite operator="in" in2="af"/><feComposite in="SourceGraphic"/></filter><filter id="ag" x="122" y="133" width="17.971" height="18.523" filterUnits="userSpaceOnUse"><feOffset input="SourceAlpha"/><feGaussianBlur stdDeviation="2" result="ah"/><feFlood flood-color="#fff"/><feComposite operator="in" in2="ah"/><feComposite in="SourceGraphic"/></filter><filter id="ai" x="256" y="60" width="17.971" height="18.523" filterUnits="userSpaceOnUse"><feOffset input="SourceAlpha"/><feGaussianBlur stdDeviation="2" result="aj"/><feFlood flood-color="#fff"/><feComposite operator="in" in2="aj"/><feComposite in="SourceGraphic"/></filter><filter id="ak" x="325" y="196" width="17.971" height="18.523" filterUnits="userSpaceOnUse"><feOffset input="SourceAlpha"/><feGaussianBlur stdDeviation="2" result="al"/><feFlood flood-color="#fff"/><feComposite operator="in" in2="al"/><feComposite in="SourceGraphic"/></filter><filter id="am" x="252" y="557" width="17.971" height="18.523" filterUnits="userSpaceOnUse"><feOffset input="SourceAlpha"/><feGaussianBlur stdDeviation="2" result="an"/><feFlood flood-color="#fff"/><feComposite operator="in" in2="an"/><feComposite in="SourceGraphic"/></filter><filter id="ao" x="331" y="606" width="17.971" height="18.523" filterUnits="userSpaceOnUse"><feOffset input="SourceAlpha"/><feGaussianBlur stdDeviation="2" result="ap"/><feFlood flood-color="#fff"/><feComposite operator="in" in2="ap"/><feComposite in="SourceGraphic"/></filter><filter id="aq" x="321" y="491" width="17.971" height="18.523" filterUnits="userSpaceOnUse"><feOffset input="SourceAlpha"/><feGaussianBlur stdDeviation="2" result="ar"/><feFlood flood-color="#fff"/><feComposite operator="in" in2="ar"/><feComposite in="SourceGraphic"/></filter><filter id="as" x="273" y="438" width="17.971" height="18.523" filterUnits="userSpaceOnUse"><feOffset input="SourceAlpha"/><feGaussianBlur stdDeviation="2" result="at"/><feFlood flood-color="#fff"/><feComposite operator="in" in2="at"/><feComposite in="SourceGraphic"/></filter><filter id="au" x="279" y="603" width="17.971" height="18.523" filterUnits="userSpaceOnUse"><feOffset input="SourceAlpha"/><feGaussianBlur stdDeviation="2" result="av"/><feFlood flood-color="#fff"/><feComposite operator="in" in2="av"/><feComposite in="SourceGraphic"/></filter><filter id="aw" x="219" y="596" width="17.971" height="18.523" filterUnits="userSpaceOnUse"><feOffset input="SourceAlpha"/><feGaussianBlur stdDeviation="2" result="ax"/><feFlood flood-color="#fff"/><feComposite operator="in" in2="ax"/><feComposite in="SourceGraphic"/></filter><filter id="ay" x="150" y="460" width="17.971" height="18.523" filterUnits="userSpaceOnUse"><feOffset input="SourceAlpha"/><feGaussianBlur stdDeviation="2" result="az"/><feFlood flood-color="#fff"/><feComposite operator="in" in2="az"/><feComposite in="SourceGraphic"/></filter><filter id="ba" x="216" y="407" width="17.971" height="18.523" filterUnits="userSpaceOnUse"><feOffset input="SourceAlpha"/><feGaussianBlur stdDeviation="2" result="bb"/><feFlood flood-color="#fff"/><feComposite operator="in" in2="bb"/><feComposite in="SourceGraphic"/></filter><filter id="bc" x="88" y="617" width="17.971" height="18.523" filterUnits="userSpaceOnUse"><feOffset input="SourceAlpha"/><feGaussianBlur stdDeviation="2" result="bd"/><feFlood flood-color="#fff"/><feComposite operator="in" in2="bd"/><feComposite in="SourceGraphic"/></filter><filter id="be" x="19" y="481" width="17.971" height="18.523" filterUnits="userSpaceOnUse"><feOffset input="SourceAlpha"/><feGaussianBlur stdDeviation="2" result="bf"/><feFlood flood-color="#fff"/><feComposite operator="in" in2="bf"/><feComposite in="SourceGraphic"/></filter><filter id="bg" x="166" y="550" width="17.971" height="18.523" filterUnits="userSpaceOnUse"><feOffset input="SourceAlpha"/><feGaussianBlur stdDeviation="2" result="bh"/><feFlood flood-color="#fff"/><feComposite operator="in" in2="bh"/><feComposite in="SourceGraphic"/></filter><filter id="bi" x="0" y="576" width="17.971" height="18.523" filterUnits="userSpaceOnUse"><feOffset input="SourceAlpha"/><feGaussianBlur stdDeviation="2" result="bj"/><feFlood flood-color="#fff"/><feComposite operator="in" in2="bj"/><feComposite in="SourceGraphic"/></filter><filter id="bk" x="97" y="414" width="17.971" height="18.523" filterUnits="userSpaceOnUse"><feOffset input="SourceAlpha"/><feGaussianBlur stdDeviation="2" result="bl"/><feFlood flood-color="#fff"/><feComposite operator="in" in2="bl"/><feComposite in="SourceGraphic"/></filter><filter id="bm" x="78" y="458" width="17.971" height="18.523" filterUnits="userSpaceOnUse"><feOffset input="SourceAlpha"/><feGaussianBlur stdDeviation="2" result="bn"/><feFlood flood-color="#fff"/><feComposite operator="in" in2="bn"/><feComposite in="SourceGraphic"/></filter><filter id="bo" x="129" y="505" width="17.971" height="18.523" filterUnits="userSpaceOnUse"><feOffset input="SourceAlpha"/><feGaussianBlur stdDeviation="2" result="bp"/><feFlood flood-color="#fff"/><feComposite operator="in" in2="bp"/><feComposite in="SourceGraphic"/></filter><filter id="bq" x="209" y="484" width="17.971" height="18.523" filterUnits="userSpaceOnUse"><feOffset input="SourceAlpha"/><feGaussianBlur stdDeviation="2" result="br"/><feFlood flood-color="#fff"/><feComposite operator="in" in2="br"/><feComposite in="SourceGraphic"/></filter><filter id="bs" x="75" y="557" width="17.971" height="18.523" filterUnits="userSpaceOnUse"><feOffset input="SourceAlpha"/><feGaussianBlur stdDeviation="2" result="bt"/><feFlood flood-color="#fff"/><feComposite operator="in" in2="bt"/><feComposite in="SourceGraphic"/></filter><filter id="bu" x="6" y="421" width="17.971" height="18.523" filterUnits="userSpaceOnUse"><feOffset input="SourceAlpha"/><feGaussianBlur stdDeviation="2" result="bv"/><feFlood flood-color="#fff"/><feComposite operator="in" in2="bv"/><feComposite in="SourceGraphic"/></filter><filter id="bw" x="9" y="305" width="17.971" height="18.523" filterUnits="userSpaceOnUse"><feOffset input="SourceAlpha"/><feGaussianBlur stdDeviation="2" result="bx"/><feFlood flood-color="#fff"/><feComposite operator="in" in2="bx"/><feComposite in="SourceGraphic"/></filter><filter id="by" x="69" y="367" width="17.971" height="18.523" filterUnits="userSpaceOnUse"><feOffset input="SourceAlpha"/><feGaussianBlur stdDeviation="2" result="bz"/><feFlood flood-color="#fff"/><feComposite operator="in" in2="bz"/><feComposite in="SourceGraphic"/></filter></defs><g transform="translate(-35.586 -50.193)"><g transform="matrix(1, 0, 0, 1, 35.59, 50.19)" filter="url(#a)"><path d="M526.784,365.193l-1.024,2.565-2.174.7,2.174.568.737,2.69.983-2.69,2.078-.568-2.078-.7Z" transform="translate(-438.59 -299.19)" fill="#fff"/></g><g transform="matrix(1, 0, 0, 1, 35.59, 50.19)" filter="url(#c)"><path d="M526.784,365.193l-1.024,2.565-2.174.7,2.174.568.737,2.69.983-2.69,2.078-.568-2.078-.7Z" transform="translate(-517.59 -348.19)" fill="#fff"/></g><g transform="matrix(1, 0, 0, 1, 35.59, 50.19)" filter="url(#e)"><path d="M526.784,365.193l-1.024,2.565-2.174.7,2.174.568.737,2.69.983-2.69,2.078-.568-2.078-.7Z" transform="translate(-507.59 -233.19)" fill="#fff"/></g><g transform="matrix(1, 0, 0, 1, 35.59, 50.19)" filter="url(#g)"><path d="M526.784,365.193l-1.024,2.565-2.174.7,2.174.568.737,2.69.983-2.69,2.078-.568-2.078-.7Z" transform="translate(-459.59 -180.19)" fill="#fff"/></g><g transform="matrix(1, 0, 0, 1, 35.59, 50.19)" filter="url(#i)"><path d="M526.784,365.193l-1.024,2.565-2.174.7,2.174.568.737,2.69.983-2.69,2.078-.568-2.078-.7Z" transform="translate(-465.59 -345.19)" fill="#fff"/></g><g transform="matrix(1, 0, 0, 1, 35.59, 50.19)" filter="url(#k)"><path d="M526.784,365.193l-1.024,2.565-2.174.7,2.174.568.737,2.69.983-2.69,2.078-.568-2.078-.7Z" transform="translate(-405.59 -338.19)" fill="#fff"/></g><g transform="matrix(1, 0, 0, 1, 35.59, 50.19)" filter="url(#m)"><path d="M526.784,365.193l-1.024,2.565-2.174.7,2.174.568.737,2.69.983-2.69,2.078-.568-2.078-.7Z" transform="translate(-336.59 -202.19)" fill="#fff"/></g><g transform="matrix(1, 0, 0, 1, 35.59, 50.19)" filter="url(#o)"><path d="M526.784,365.193l-1.024,2.565-2.174.7,2.174.568.737,2.69.983-2.69,2.078-.568-2.078-.7Z" transform="translate(-274.59 -359.19)" fill="#fff"/></g><g transform="matrix(1, 0, 0, 1, 35.59, 50.19)" filter="url(#q)"><path d="M526.784,365.193l-1.024,2.565-2.174.7,2.174.568.737,2.69.983-2.69,2.078-.568-2.078-.7Z" transform="translate(-205.59 -223.19)" fill="#fff"/></g><g transform="matrix(1, 0, 0, 1, 35.59, 50.19)" filter="url(#s)"><path d="M526.784,365.193l-1.024,2.565-2.174.7,2.174.568.737,2.69.983-2.69,2.078-.568-2.078-.7Z" transform="translate(-352.59 -292.19)" fill="#fff"/></g><g transform="matrix(1, 0, 0, 1, 35.59, 50.19)" filter="url(#u)"><path d="M526.784,365.193l-1.024,2.565-2.174.7,2.174.568.737,2.69.983-2.69,2.078-.568-2.078-.7Z" transform="translate(-186.59 -318.19)" fill="#fff"/></g><g transform="matrix(1, 0, 0, 1, 35.59, 50.19)" filter="url(#w)"><path d="M526.784,365.193l-1.024,2.565-2.174.7,2.174.568.737,2.69.983-2.69,2.078-.568-2.078-.7Z" transform="translate(-283.59 -156.19)" fill="#fff"/></g><g transform="matrix(1, 0, 0, 1, 35.59, 50.19)" filter="url(#y)"><path d="M526.784,365.193l-1.024,2.565-2.174.7,2.174.568.737,2.69.983-2.69,2.078-.568-2.078-.7Z" transform="translate(-211.59 -68.19)" fill="#fff"/></g><g transform="matrix(1, 0, 0, 1, 35.59, 50.19)" filter="url(#aa)"><path d="M526.784,365.193l-1.024,2.565-2.174.7,2.174.568.737,2.69.983-2.69,2.078-.568-2.078-.7Z" transform="translate(-217.59 -17.19)" fill="#fff"/></g><g transform="matrix(1, 0, 0, 1, 35.59, 50.19)" filter="url(#ac)"><path d="M526.784,365.193l-1.024,2.565-2.174.7,2.174.568.737,2.69.983-2.69,2.078-.568-2.078-.7Z" transform="translate(-264.59 -200.19)" fill="#fff"/></g><g transform="matrix(1, 0, 0, 1, 35.59, 50.19)" filter="url(#ae)"><path d="M526.784,365.193l-1.024,2.565-2.174.7,2.174.568.737,2.69.983-2.69,2.078-.568-2.078-.7Z" transform="translate(-315.59 -247.19)" fill="#fff"/></g><g transform="matrix(1, 0, 0, 1, 35.59, 50.19)" filter="url(#ag)"><path d="M526.784,365.193l-1.024,2.565-2.174.7,2.174.568.737,2.69.983-2.69,2.078-.568-2.078-.7Z" transform="translate(-395.59 -226.19)" fill="#fff"/></g><g transform="matrix(1, 0, 0, 1, 35.59, 50.19)" filter="url(#ai)"><path d="M526.784,365.193l-1.024,2.565-2.174.7,2.174.568.737,2.69.983-2.69,2.078-.568-2.078-.7Z" transform="translate(-261.59 -299.19)" fill="#fff"/></g><g transform="matrix(1, 0, 0, 1, 35.59, 50.19)" filter="url(#ak)"><path d="M526.784,365.193l-1.024,2.565-2.174.7,2.174.568.737,2.69.983-2.69,2.078-.568-2.078-.7Z" transform="translate(-192.59 -163.19)" fill="#fff"/></g><g transform="matrix(1, 0, 0, 1, 35.59, 50.19)" filter="url(#am)"><path d="M526.784,365.193l-1.024,2.565-2.174.7,2.174.568.737,2.69.983-2.69,2.078-.568-2.078-.7Z" transform="translate(787.56 934.72) rotate(180)" fill="#fff"/></g><g transform="matrix(1, 0, 0, 1, 35.59, 50.19)" filter="url(#ao)"><path d="M526.784,365.193l-1.024,2.565-2.174.7,2.174.568.737,2.69.983-2.69,2.078-.568-2.078-.7Z" transform="translate(866.56 983.72) rotate(180)" fill="#fff"/></g><g transform="matrix(1, 0, 0, 1, 35.59, 50.19)" filter="url(#aq)"><path d="M526.784,365.193l-1.024,2.565-2.174.7,2.174.568.737,2.69.983-2.69,2.078-.568-2.078-.7Z" transform="translate(856.56 868.72) rotate(180)" fill="#fff"/></g><g transform="matrix(1, 0, 0, 1, 35.59, 50.19)" filter="url(#as)"><path d="M526.784,365.193l-1.024,2.565-2.174.7,2.174.568.737,2.69.983-2.69,2.078-.568-2.078-.7Z" transform="translate(808.56 815.72) rotate(180)" fill="#fff"/></g><g transform="matrix(1, 0, 0, 1, 35.59, 50.19)" filter="url(#au)"><path d="M526.784,365.193l-1.024,2.565-2.174.7,2.174.568.737,2.69.983-2.69,2.078-.568-2.078-.7Z" transform="translate(814.56 980.72) rotate(180)" fill="#fff"/></g><g transform="matrix(1, 0, 0, 1, 35.59, 50.19)" filter="url(#aw)"><path d="M526.784,365.193l-1.024,2.565-2.174.7,2.174.568.737,2.69.983-2.69,2.078-.568-2.078-.7Z" transform="translate(754.56 973.72) rotate(180)" fill="#fff"/></g><g transform="matrix(1, 0, 0, 1, 35.59, 50.19)" filter="url(#ay)"><path d="M526.784,365.193l-1.024,2.565-2.174.7,2.174.568.737,2.69.983-2.69,2.078-.568-2.078-.7Z" transform="translate(685.56 837.72) rotate(180)" fill="#fff"/></g><g transform="matrix(1, 0, 0, 1, 35.59, 50.19)" filter="url(#ba)"><path d="M526.784,365.193l-1.024,2.565-2.174.7,2.174.568.737,2.69.983-2.69,2.078-.568-2.078-.7Z" transform="translate(751.56 784.72) rotate(180)" fill="#fff"/></g><g transform="matrix(1, 0, 0, 1, 35.59, 50.19)" filter="url(#bc)"><path d="M526.784,365.193l-1.024,2.565-2.174.7,2.174.568.737,2.69.983-2.69,2.078-.568-2.078-.7Z" transform="translate(623.56 994.72) rotate(180)" fill="#fff"/></g><g transform="matrix(1, 0, 0, 1, 35.59, 50.19)" filter="url(#be)"><path d="M526.784,365.193l-1.024,2.565-2.174.7,2.174.568.737,2.69.983-2.69,2.078-.568-2.078-.7Z" transform="translate(554.56 858.72) rotate(180)" fill="#fff"/></g><g transform="matrix(1, 0, 0, 1, 35.59, 50.19)" filter="url(#bg)"><path d="M526.784,365.193l-1.024,2.565-2.174.7,2.174.568.737,2.69.983-2.69,2.078-.568-2.078-.7Z" transform="translate(701.56 927.72) rotate(180)" fill="#fff"/></g><g transform="matrix(1, 0, 0, 1, 35.59, 50.19)" filter="url(#bi)"><path d="M526.784,365.193l-1.024,2.565-2.174.7,2.174.568.737,2.69.983-2.69,2.078-.568-2.078-.7Z" transform="translate(535.56 953.72) rotate(180)" fill="#fff"/></g><g transform="matrix(1, 0, 0, 1, 35.59, 50.19)" filter="url(#bk)"><path d="M526.784,365.193l-1.024,2.565-2.174.7,2.174.568.737,2.69.983-2.69,2.078-.568-2.078-.7Z" transform="translate(632.56 791.72) rotate(180)" fill="#fff"/></g><g transform="matrix(1, 0, 0, 1, 35.59, 50.19)" filter="url(#bm)"><path d="M526.784,365.193l-1.024,2.565-2.174.7,2.174.568.737,2.69.983-2.69,2.078-.568-2.078-.7Z" transform="translate(613.56 835.72) rotate(180)" fill="#fff"/></g><g transform="matrix(1, 0, 0, 1, 35.59, 50.19)" filter="url(#bo)"><path d="M526.784,365.193l-1.024,2.565-2.174.7,2.174.568.737,2.69.983-2.69,2.078-.568-2.078-.7Z" transform="translate(664.56 882.72) rotate(180)" fill="#fff"/></g><g transform="matrix(1, 0, 0, 1, 35.59, 50.19)" filter="url(#bq)"><path d="M526.784,365.193l-1.024,2.565-2.174.7,2.174.568.737,2.69.983-2.69,2.078-.568-2.078-.7Z" transform="translate(744.56 861.72) rotate(180)" fill="#fff"/></g><g transform="matrix(1, 0, 0, 1, 35.59, 50.19)" filter="url(#bs)"><path d="M526.784,365.193l-1.024,2.565-2.174.7,2.174.568.737,2.69.983-2.69,2.078-.568-2.078-.7Z" transform="translate(610.56 934.72) rotate(180)" fill="#fff"/></g><g transform="matrix(1, 0, 0, 1, 35.59, 50.19)" filter="url(#bu)"><path d="M526.784,365.193l-1.024,2.565-2.174.7,2.174.568.737,2.69.983-2.69,2.078-.568-2.078-.7Z" transform="translate(541.56 798.72) rotate(180)" fill="#fff"/></g><g transform="matrix(1, 0, 0, 1, 35.59, 50.19)" filter="url(#bw)"><path d="M526.784,365.193l-1.024,2.565-2.174.7,2.174.568.737,2.69.983-2.69,2.078-.568-2.078-.7Z" transform="translate(544.56 682.72) rotate(180)" fill="#fff"/></g><g transform="matrix(1, 0, 0, 1, 35.59, 50.19)" filter="url(#by)"><path d="M526.784,365.193l-1.024,2.565-2.174.7,2.174.568.737,2.69.983-2.69,2.078-.568-2.078-.7Z" transform="translate(604.56 744.72) rotate(180)" fill="#fff"/></g></g></svg>