<svg xmlns="http://www.w3.org/2000/svg" xmlns:xlink="http://www.w3.org/1999/xlink" width="381.971" height="734.523" viewBox="0 0 381.971 734.523"><defs><filter id="a" x="252" y="557" width="17.971" height="18.523" filterUnits="userSpaceOnUse"><feOffset input="SourceAlpha"/><feGaussianBlur stdDeviation="2" result="b"/><feFlood flood-color="#fff"/><feComposite operator="in" in2="b"/><feComposite in="SourceGraphic"/></filter><filter id="c" x="331" y="606" width="17.971" height="18.523" filterUnits="userSpaceOnUse"><feOffset input="SourceAlpha"/><feGaussianBlur stdDeviation="2" result="d"/><feFlood flood-color="#fff"/><feComposite operator="in" in2="d"/><feComposite in="SourceGraphic"/></filter><filter id="e" x="321" y="491" width="17.971" height="18.523" filterUnits="userSpaceOnUse"><feOffset input="SourceAlpha"/><feGaussianBlur stdDeviation="2" result="f"/><feFlood flood-color="#fff"/><feComposite operator="in" in2="f"/><feComposite in="SourceGraphic"/></filter><filter id="g" x="273" y="438" width="17.971" height="18.523" filterUnits="userSpaceOnUse"><feOffset input="SourceAlpha"/><feGaussianBlur stdDeviation="2" result="h"/><feFlood flood-color="#fff"/><feComposite operator="in" in2="h"/><feComposite in="SourceGraphic"/></filter><filter id="i" x="279" y="603" width="17.971" height="18.523" filterUnits="userSpaceOnUse"><feOffset input="SourceAlpha"/><feGaussianBlur stdDeviation="2" result="j"/><feFlood flood-color="#fff"/><feComposite operator="in" in2="j"/><feComposite in="SourceGraphic"/></filter><filter id="k" x="219" y="596" width="17.971" height="18.523" filterUnits="userSpaceOnUse"><feOffset input="SourceAlpha"/><feGaussianBlur stdDeviation="2" result="l"/><feFlood flood-color="#fff"/><feComposite operator="in" in2="l"/><feComposite in="SourceGraphic"/></filter><filter id="m" x="150" y="460" width="17.971" height="18.523" filterUnits="userSpaceOnUse"><feOffset input="SourceAlpha"/><feGaussianBlur stdDeviation="2" result="n"/><feFlood flood-color="#fff"/><feComposite operator="in" in2="n"/><feComposite in="SourceGraphic"/></filter><filter id="o" x="88" y="617" width="17.971" height="18.523" filterUnits="userSpaceOnUse"><feOffset input="SourceAlpha"/><feGaussianBlur stdDeviation="2" result="p"/><feFlood flood-color="#fff"/><feComposite operator="in" in2="p"/><feComposite in="SourceGraphic"/></filter><filter id="q" x="19" y="481" width="17.971" height="18.523" filterUnits="userSpaceOnUse"><feOffset input="SourceAlpha"/><feGaussianBlur stdDeviation="2" result="r"/><feFlood flood-color="#fff"/><feComposite operator="in" in2="r"/><feComposite in="SourceGraphic"/></filter><filter id="s" x="166" y="550" width="17.971" height="18.523" filterUnits="userSpaceOnUse"><feOffset input="SourceAlpha"/><feGaussianBlur stdDeviation="2" result="t"/><feFlood flood-color="#fff"/><feComposite operator="in" in2="t"/><feComposite in="SourceGraphic"/></filter><filter id="u" x="0" y="576" width="17.971" height="18.523" filterUnits="userSpaceOnUse"><feOffset input="SourceAlpha"/><feGaussianBlur stdDeviation="2" result="v"/><feFlood flood-color="#fff"/><feComposite operator="in" in2="v"/><feComposite in="SourceGraphic"/></filter><filter id="w" x="97" y="414" width="17.971" height="18.523" filterUnits="userSpaceOnUse"><feOffset input="SourceAlpha"/><feGaussianBlur stdDeviation="2" result="x"/><feFlood flood-color="#fff"/><feComposite operator="in" in2="x"/><feComposite in="SourceGraphic"/></filter><filter id="y" x="25" y="326" width="17.971" height="18.523" filterUnits="userSpaceOnUse"><feOffset input="SourceAlpha"/><feGaussianBlur stdDeviation="2" result="z"/><feFlood flood-color="#fff"/><feComposite operator="in" in2="z"/><feComposite in="SourceGraphic"/></filter><filter id="aa" x="31" y="275" width="17.971" height="18.523" filterUnits="userSpaceOnUse"><feOffset input="SourceAlpha"/><feGaussianBlur stdDeviation="2" result="ab"/><feFlood flood-color="#fff"/><feComposite operator="in" in2="ab"/><feComposite in="SourceGraphic"/></filter><filter id="ac" x="78" y="458" width="17.971" height="18.523" filterUnits="userSpaceOnUse"><feOffset input="SourceAlpha"/><feGaussianBlur stdDeviation="2" result="ad"/><feFlood flood-color="#fff"/><feComposite operator="in" in2="ad"/><feComposite in="SourceGraphic"/></filter><filter id="ae" x="129" y="505" width="17.971" height="18.523" filterUnits="userSpaceOnUse"><feOffset input="SourceAlpha"/><feGaussianBlur stdDeviation="2" result="af"/><feFlood flood-color="#fff"/><feComposite operator="in" in2="af"/><feComposite in="SourceGraphic"/></filter><filter id="ag" x="209" y="484" width="17.971" height="18.523" filterUnits="userSpaceOnUse"><feOffset input="SourceAlpha"/><feGaussianBlur stdDeviation="2" result="ah"/><feFlood flood-color="#fff"/><feComposite operator="in" in2="ah"/><feComposite in="SourceGraphic"/></filter><filter id="ai" x="75" y="557" width="17.971" height="18.523" filterUnits="userSpaceOnUse"><feOffset input="SourceAlpha"/><feGaussianBlur stdDeviation="2" result="aj"/><feFlood flood-color="#fff"/><feComposite operator="in" in2="aj"/><feComposite in="SourceGraphic"/></filter><filter id="ak" x="6" y="421" width="17.971" height="18.523" filterUnits="userSpaceOnUse"><feOffset input="SourceAlpha"/><feGaussianBlur stdDeviation="2" result="al"/><feFlood flood-color="#fff"/><feComposite operator="in" in2="al"/><feComposite in="SourceGraphic"/></filter><filter id="am" x="79" y="60" width="17.971" height="18.523" filterUnits="userSpaceOnUse"><feOffset input="SourceAlpha"/><feGaussianBlur stdDeviation="2" result="an"/><feFlood flood-color="#fff"/><feComposite operator="in" in2="an"/><feComposite in="SourceGraphic"/></filter><filter id="ao" x="0" y="11" width="17.971" height="18.523" filterUnits="userSpaceOnUse"><feOffset input="SourceAlpha"/><feGaussianBlur stdDeviation="2" result="ap"/><feFlood flood-color="#fff"/><feComposite operator="in" in2="ap"/><feComposite in="SourceGraphic"/></filter><filter id="aq" x="10" y="126" width="17.971" height="18.523" filterUnits="userSpaceOnUse"><feOffset input="SourceAlpha"/><feGaussianBlur stdDeviation="2" result="ar"/><feFlood flood-color="#fff"/><feComposite operator="in" in2="ar"/><feComposite in="SourceGraphic"/></filter><filter id="as" x="58" y="179" width="17.971" height="18.523" filterUnits="userSpaceOnUse"><feOffset input="SourceAlpha"/><feGaussianBlur stdDeviation="2" result="at"/><feFlood flood-color="#fff"/><feComposite operator="in" in2="at"/><feComposite in="SourceGraphic"/></filter><filter id="au" x="52" y="14" width="17.971" height="18.523" filterUnits="userSpaceOnUse"><feOffset input="SourceAlpha"/><feGaussianBlur stdDeviation="2" result="av"/><feFlood flood-color="#fff"/><feComposite operator="in" in2="av"/><feComposite in="SourceGraphic"/></filter><filter id="aw" x="112" y="21" width="17.971" height="18.523" filterUnits="userSpaceOnUse"><feOffset input="SourceAlpha"/><feGaussianBlur stdDeviation="2" result="ax"/><feFlood flood-color="#fff"/><feComposite operator="in" in2="ax"/><feComposite in="SourceGraphic"/></filter><filter id="ay" x="181" y="157" width="17.971" height="18.523" filterUnits="userSpaceOnUse"><feOffset input="SourceAlpha"/><feGaussianBlur stdDeviation="2" result="az"/><feFlood flood-color="#fff"/><feComposite operator="in" in2="az"/><feComposite in="SourceGraphic"/></filter><filter id="ba" x="115" y="210" width="17.971" height="18.523" filterUnits="userSpaceOnUse"><feOffset input="SourceAlpha"/><feGaussianBlur stdDeviation="2" result="bb"/><feFlood flood-color="#fff"/><feComposite operator="in" in2="bb"/><feComposite in="SourceGraphic"/></filter><filter id="bc" x="243" y="0" width="17.971" height="18.523" filterUnits="userSpaceOnUse"><feOffset input="SourceAlpha"/><feGaussianBlur stdDeviation="2" result="bd"/><feFlood flood-color="#fff"/><feComposite operator="in" in2="bd"/><feComposite in="SourceGraphic"/></filter><filter id="be" x="312" y="136" width="17.971" height="18.523" filterUnits="userSpaceOnUse"><feOffset input="SourceAlpha"/><feGaussianBlur stdDeviation="2" result="bf"/><feFlood flood-color="#fff"/><feComposite operator="in" in2="bf"/><feComposite in="SourceGraphic"/></filter><filter id="bg" x="165" y="67" width="17.971" height="18.523" filterUnits="userSpaceOnUse"><feOffset input="SourceAlpha"/><feGaussianBlur stdDeviation="2" result="bh"/><feFlood flood-color="#fff"/><feComposite operator="in" in2="bh"/><feComposite in="SourceGraphic"/></filter><filter id="bi" x="331" y="41" width="17.971" height="18.523" filterUnits="userSpaceOnUse"><feOffset input="SourceAlpha"/><feGaussianBlur stdDeviation="2" result="bj"/><feFlood flood-color="#fff"/><feComposite operator="in" in2="bj"/><feComposite in="SourceGraphic"/></filter><filter id="bk" x="234" y="203" width="17.971" height="18.523" filterUnits="userSpaceOnUse"><feOffset input="SourceAlpha"/><feGaussianBlur stdDeviation="2" result="bl"/><feFlood flood-color="#fff"/><feComposite operator="in" in2="bl"/><feComposite in="SourceGraphic"/></filter><filter id="bm" x="253" y="159" width="17.971" height="18.523" filterUnits="userSpaceOnUse"><feOffset input="SourceAlpha"/><feGaussianBlur stdDeviation="2" result="bn"/><feFlood flood-color="#fff"/><feComposite operator="in" in2="bn"/><feComposite in="SourceGraphic"/></filter><filter id="bo" x="202" y="112" width="17.971" height="18.523" filterUnits="userSpaceOnUse"><feOffset input="SourceAlpha"/><feGaussianBlur stdDeviation="2" result="bp"/><feFlood flood-color="#fff"/><feComposite operator="in" in2="bp"/><feComposite in="SourceGraphic"/></filter><filter id="bq" x="122" y="133" width="17.971" height="18.523" filterUnits="userSpaceOnUse"><feOffset input="SourceAlpha"/><feGaussianBlur stdDeviation="2" result="br"/><feFlood flood-color="#fff"/><feComposite operator="in" in2="br"/><feComposite in="SourceGraphic"/></filter><filter id="bs" x="256" y="60" width="17.971" height="18.523" filterUnits="userSpaceOnUse"><feOffset input="SourceAlpha"/><feGaussianBlur stdDeviation="2" result="bt"/><feFlood flood-color="#fff"/><feComposite operator="in" in2="bt"/><feComposite in="SourceGraphic"/></filter><filter id="bu" x="325" y="196" width="17.971" height="18.523" filterUnits="userSpaceOnUse"><feOffset input="SourceAlpha"/><feGaussianBlur stdDeviation="2" result="bv"/><feFlood flood-color="#fff"/><feComposite operator="in" in2="bv"/><feComposite in="SourceGraphic"/></filter><filter id="bw" x="322" y="312" width="17.971" height="18.523" filterUnits="userSpaceOnUse"><feOffset input="SourceAlpha"/><feGaussianBlur stdDeviation="2" result="bx"/><feFlood flood-color="#fff"/><feComposite operator="in" in2="bx"/><feComposite in="SourceGraphic"/></filter><filter id="by" x="262" y="250" width="17.971" height="18.523" filterUnits="userSpaceOnUse"><feOffset input="SourceAlpha"/><feGaussianBlur stdDeviation="2" result="bz"/><feFlood flood-color="#fff"/><feComposite operator="in" in2="bz"/><feComposite in="SourceGraphic"/></filter><filter id="ca" x="112" y="159" width="17.971" height="18.523" filterUnits="userSpaceOnUse"><feOffset input="SourceAlpha"/><feGaussianBlur stdDeviation="2" result="cb"/><feFlood flood-color="#fff"/><feComposite operator="in" in2="cb"/><feComposite in="SourceGraphic"/></filter><filter id="cc" x="33" y="110" width="17.971" height="18.523" filterUnits="userSpaceOnUse"><feOffset input="SourceAlpha"/><feGaussianBlur stdDeviation="2" result="cd"/><feFlood flood-color="#fff"/><feComposite operator="in" in2="cd"/><feComposite in="SourceGraphic"/></filter><filter id="ce" x="43" y="225" width="17.971" height="18.523" filterUnits="userSpaceOnUse"><feOffset input="SourceAlpha"/><feGaussianBlur stdDeviation="2" result="cf"/><feFlood flood-color="#fff"/><feComposite operator="in" in2="cf"/><feComposite in="SourceGraphic"/></filter><filter id="cg" x="91" y="278" width="17.971" height="18.523" filterUnits="userSpaceOnUse"><feOffset input="SourceAlpha"/><feGaussianBlur stdDeviation="2" result="ch"/><feFlood flood-color="#fff"/><feComposite operator="in" in2="ch"/><feComposite in="SourceGraphic"/></filter><filter id="ci" x="85" y="113" width="17.971" height="18.523" filterUnits="userSpaceOnUse"><feOffset input="SourceAlpha"/><feGaussianBlur stdDeviation="2" result="cj"/><feFlood flood-color="#fff"/><feComposite operator="in" in2="cj"/><feComposite in="SourceGraphic"/></filter><filter id="ck" x="145" y="120" width="17.971" height="18.523" filterUnits="userSpaceOnUse"><feOffset input="SourceAlpha"/><feGaussianBlur stdDeviation="2" result="cl"/><feFlood flood-color="#fff"/><feComposite operator="in" in2="cl"/><feComposite in="SourceGraphic"/></filter><filter id="cm" x="214" y="256" width="17.971" height="18.523" filterUnits="userSpaceOnUse"><feOffset input="SourceAlpha"/><feGaussianBlur stdDeviation="2" result="cn"/><feFlood flood-color="#fff"/><feComposite operator="in" in2="cn"/><feComposite in="SourceGraphic"/></filter><filter id="co" x="276" y="99" width="17.971" height="18.523" filterUnits="userSpaceOnUse"><feOffset input="SourceAlpha"/><feGaussianBlur stdDeviation="2" result="cp"/><feFlood flood-color="#fff"/><feComposite operator="in" in2="cp"/><feComposite in="SourceGraphic"/></filter><filter id="cq" x="345" y="235" width="17.971" height="18.523" filterUnits="userSpaceOnUse"><feOffset input="SourceAlpha"/><feGaussianBlur stdDeviation="2" result="cr"/><feFlood flood-color="#fff"/><feComposite operator="in" in2="cr"/><feComposite in="SourceGraphic"/></filter><filter id="cs" x="217" y="173" width="17.971" height="18.523" filterUnits="userSpaceOnUse"><feOffset input="SourceAlpha"/><feGaussianBlur stdDeviation="2" result="ct"/><feFlood flood-color="#fff"/><feComposite operator="in" in2="ct"/><feComposite in="SourceGraphic"/></filter><filter id="cu" x="364" y="140" width="17.971" height="18.523" filterUnits="userSpaceOnUse"><feOffset input="SourceAlpha"/><feGaussianBlur stdDeviation="2" result="cv"/><feFlood flood-color="#fff"/><feComposite operator="in" in2="cv"/><feComposite in="SourceGraphic"/></filter><filter id="cw" x="267" y="302" width="17.971" height="18.523" filterUnits="userSpaceOnUse"><feOffset input="SourceAlpha"/><feGaussianBlur stdDeviation="2" result="cx"/><feFlood flood-color="#fff"/><feComposite operator="in" in2="cx"/><feComposite in="SourceGraphic"/></filter><filter id="cy" x="339" y="390" width="17.971" height="18.523" filterUnits="userSpaceOnUse"><feOffset input="SourceAlpha"/><feGaussianBlur stdDeviation="2" result="cz"/><feFlood flood-color="#fff"/><feComposite operator="in" in2="cz"/><feComposite in="SourceGraphic"/></filter><filter id="da" x="333" y="441" width="17.971" height="18.523" filterUnits="userSpaceOnUse"><feOffset input="SourceAlpha"/><feGaussianBlur stdDeviation="2" result="db"/><feFlood flood-color="#fff"/><feComposite operator="in" in2="db"/><feComposite in="SourceGraphic"/></filter><filter id="dc" x="286" y="258" width="17.971" height="18.523" filterUnits="userSpaceOnUse"><feOffset input="SourceAlpha"/><feGaussianBlur stdDeviation="2" result="dd"/><feFlood flood-color="#fff"/><feComposite operator="in" in2="dd"/><feComposite in="SourceGraphic"/></filter><filter id="de" x="235" y="223" width="17.971" height="18.523" filterUnits="userSpaceOnUse"><feOffset input="SourceAlpha"/><feGaussianBlur stdDeviation="2" result="df"/><feFlood flood-color="#fff"/><feComposite operator="in" in2="df"/><feComposite in="SourceGraphic"/></filter><filter id="dg" x="155" y="232" width="17.971" height="18.523" filterUnits="userSpaceOnUse"><feOffset input="SourceAlpha"/><feGaussianBlur stdDeviation="2" result="dh"/><feFlood flood-color="#fff"/><feComposite operator="in" in2="dh"/><feComposite in="SourceGraphic"/></filter><filter id="di" x="289" y="159" width="17.971" height="18.523" filterUnits="userSpaceOnUse"><feOffset input="SourceAlpha"/><feGaussianBlur stdDeviation="2" result="dj"/><feFlood flood-color="#fff"/><feComposite operator="in" in2="dj"/><feComposite in="SourceGraphic"/></filter><filter id="dk" x="358" y="295" width="17.971" height="18.523" filterUnits="userSpaceOnUse"><feOffset input="SourceAlpha"/><feGaussianBlur stdDeviation="2" result="dl"/><feFlood flood-color="#fff"/><feComposite operator="in" in2="dl"/><feComposite in="SourceGraphic"/></filter><filter id="dm" x="285" y="656" width="17.971" height="18.523" filterUnits="userSpaceOnUse"><feOffset input="SourceAlpha"/><feGaussianBlur stdDeviation="2" result="dn"/><feFlood flood-color="#fff"/><feComposite operator="in" in2="dn"/><feComposite in="SourceGraphic"/></filter><filter id="do" x="364" y="705" width="17.971" height="18.523" filterUnits="userSpaceOnUse"><feOffset input="SourceAlpha"/><feGaussianBlur stdDeviation="2" result="dp"/><feFlood flood-color="#fff"/><feComposite operator="in" in2="dp"/><feComposite in="SourceGraphic"/></filter><filter id="dq" x="354" y="590" width="17.971" height="18.523" filterUnits="userSpaceOnUse"><feOffset input="SourceAlpha"/><feGaussianBlur stdDeviation="2" result="dr"/><feFlood flood-color="#fff"/><feComposite operator="in" in2="dr"/><feComposite in="SourceGraphic"/></filter><filter id="ds" x="306" y="537" width="17.971" height="18.523" filterUnits="userSpaceOnUse"><feOffset input="SourceAlpha"/><feGaussianBlur stdDeviation="2" result="dt"/><feFlood flood-color="#fff"/><feComposite operator="in" in2="dt"/><feComposite in="SourceGraphic"/></filter><filter id="du" x="312" y="702" width="17.971" height="18.523" filterUnits="userSpaceOnUse"><feOffset input="SourceAlpha"/><feGaussianBlur stdDeviation="2" result="dv"/><feFlood flood-color="#fff"/><feComposite operator="in" in2="dv"/><feComposite in="SourceGraphic"/></filter><filter id="dw" x="252" y="695" width="17.971" height="18.523" filterUnits="userSpaceOnUse"><feOffset input="SourceAlpha"/><feGaussianBlur stdDeviation="2" result="dx"/><feFlood flood-color="#fff"/><feComposite operator="in" in2="dx"/><feComposite in="SourceGraphic"/></filter><filter id="dy" x="183" y="559" width="17.971" height="18.523" filterUnits="userSpaceOnUse"><feOffset input="SourceAlpha"/><feGaussianBlur stdDeviation="2" result="dz"/><feFlood flood-color="#fff"/><feComposite operator="in" in2="dz"/><feComposite in="SourceGraphic"/></filter><filter id="ea" x="249" y="506" width="17.971" height="18.523" filterUnits="userSpaceOnUse"><feOffset input="SourceAlpha"/><feGaussianBlur stdDeviation="2" result="eb"/><feFlood flood-color="#fff"/><feComposite operator="in" in2="eb"/><feComposite in="SourceGraphic"/></filter><filter id="ec" x="121" y="716" width="17.971" height="18.523" filterUnits="userSpaceOnUse"><feOffset input="SourceAlpha"/><feGaussianBlur stdDeviation="2" result="ed"/><feFlood flood-color="#fff"/><feComposite operator="in" in2="ed"/><feComposite in="SourceGraphic"/></filter><filter id="ee" x="52" y="580" width="17.971" height="18.523" filterUnits="userSpaceOnUse"><feOffset input="SourceAlpha"/><feGaussianBlur stdDeviation="2" result="ef"/><feFlood flood-color="#fff"/><feComposite operator="in" in2="ef"/><feComposite in="SourceGraphic"/></filter><filter id="eg" x="199" y="649" width="17.971" height="18.523" filterUnits="userSpaceOnUse"><feOffset input="SourceAlpha"/><feGaussianBlur stdDeviation="2" result="eh"/><feFlood flood-color="#fff"/><feComposite operator="in" in2="eh"/><feComposite in="SourceGraphic"/></filter><filter id="ei" x="33" y="675" width="17.971" height="18.523" filterUnits="userSpaceOnUse"><feOffset input="SourceAlpha"/><feGaussianBlur stdDeviation="2" result="ej"/><feFlood flood-color="#fff"/><feComposite operator="in" in2="ej"/><feComposite in="SourceGraphic"/></filter><filter id="ek" x="130" y="513" width="17.971" height="18.523" filterUnits="userSpaceOnUse"><feOffset input="SourceAlpha"/><feGaussianBlur stdDeviation="2" result="el"/><feFlood flood-color="#fff"/><feComposite operator="in" in2="el"/><feComposite in="SourceGraphic"/></filter><filter id="em" x="111" y="557" width="17.971" height="18.523" filterUnits="userSpaceOnUse"><feOffset input="SourceAlpha"/><feGaussianBlur stdDeviation="2" result="en"/><feFlood flood-color="#fff"/><feComposite operator="in" in2="en"/><feComposite in="SourceGraphic"/></filter><filter id="eo" x="162" y="604" width="17.971" height="18.523" filterUnits="userSpaceOnUse"><feOffset input="SourceAlpha"/><feGaussianBlur stdDeviation="2" result="ep"/><feFlood flood-color="#fff"/><feComposite operator="in" in2="ep"/><feComposite in="SourceGraphic"/></filter><filter id="eq" x="242" y="583" width="17.971" height="18.523" filterUnits="userSpaceOnUse"><feOffset input="SourceAlpha"/><feGaussianBlur stdDeviation="2" result="er"/><feFlood flood-color="#fff"/><feComposite operator="in" in2="er"/><feComposite in="SourceGraphic"/></filter><filter id="es" x="108" y="656" width="17.971" height="18.523" filterUnits="userSpaceOnUse"><feOffset input="SourceAlpha"/><feGaussianBlur stdDeviation="2" result="et"/><feFlood flood-color="#fff"/><feComposite operator="in" in2="et"/><feComposite in="SourceGraphic"/></filter><filter id="eu" x="39" y="520" width="17.971" height="18.523" filterUnits="userSpaceOnUse"><feOffset input="SourceAlpha"/><feGaussianBlur stdDeviation="2" result="ev"/><feFlood flood-color="#fff"/><feComposite operator="in" in2="ev"/><feComposite in="SourceGraphic"/></filter><filter id="ew" x="42" y="404" width="17.971" height="18.523" filterUnits="userSpaceOnUse"><feOffset input="SourceAlpha"/><feGaussianBlur stdDeviation="2" result="ex"/><feFlood flood-color="#fff"/><feComposite operator="in" in2="ex"/><feComposite in="SourceGraphic"/></filter><filter id="ey" x="102" y="466" width="17.971" height="18.523" filterUnits="userSpaceOnUse"><feOffset input="SourceAlpha"/><feGaussianBlur stdDeviation="2" result="ez"/><feFlood flood-color="#fff"/><feComposite operator="in" in2="ez"/><feComposite in="SourceGraphic"/></filter></defs><g transform="translate(-8.586 -5.193)"><g transform="translate(393.143 690.909) rotate(180)"><g transform="matrix(-1, 0, 0, -1, 384.56, 685.72)" filter="url(#a)"><path d="M526.784,365.193l-1.024,2.565-2.174.7,2.174.568.737,2.69.983-2.69,2.078-.568-2.078-.7Z" transform="translate(787.56 934.72) rotate(180)" fill="#fff"/></g><g transform="matrix(-1, 0, 0, -1, 384.56, 685.72)" filter="url(#c)"><path d="M526.784,365.193l-1.024,2.565-2.174.7,2.174.568.737,2.69.983-2.69,2.078-.568-2.078-.7Z" transform="translate(866.56 983.72) rotate(180)" fill="#fff"/></g><g transform="matrix(-1, 0, 0, -1, 384.56, 685.72)" filter="url(#e)"><path d="M526.784,365.193l-1.024,2.565-2.174.7,2.174.568.737,2.69.983-2.69,2.078-.568-2.078-.7Z" transform="translate(856.56 868.72) rotate(180)" fill="#fff"/></g><g transform="matrix(-1, 0, 0, -1, 384.56, 685.72)" filter="url(#g)"><path d="M526.784,365.193l-1.024,2.565-2.174.7,2.174.568.737,2.69.983-2.69,2.078-.568-2.078-.7Z" transform="translate(808.56 815.72) rotate(180)" fill="#fff"/></g><g transform="matrix(-1, 0, 0, -1, 384.56, 685.72)" filter="url(#i)"><path d="M526.784,365.193l-1.024,2.565-2.174.7,2.174.568.737,2.69.983-2.69,2.078-.568-2.078-.7Z" transform="translate(814.56 980.72) rotate(180)" fill="#fff"/></g><g transform="matrix(-1, 0, 0, -1, 384.56, 685.72)" filter="url(#k)"><path d="M526.784,365.193l-1.024,2.565-2.174.7,2.174.568.737,2.69.983-2.69,2.078-.568-2.078-.7Z" transform="translate(754.56 973.72) rotate(180)" fill="#fff"/></g><g transform="matrix(-1, 0, 0, -1, 384.56, 685.72)" filter="url(#m)"><path d="M526.784,365.193l-1.024,2.565-2.174.7,2.174.568.737,2.69.983-2.69,2.078-.568-2.078-.7Z" transform="translate(685.56 837.72) rotate(180)" fill="#fff"/></g><g transform="matrix(-1, 0, 0, -1, 384.56, 685.72)" filter="url(#o)"><path d="M526.784,365.193l-1.024,2.565-2.174.7,2.174.568.737,2.69.983-2.69,2.078-.568-2.078-.7Z" transform="translate(623.56 994.72) rotate(180)" fill="#fff"/></g><g transform="matrix(-1, 0, 0, -1, 384.56, 685.72)" filter="url(#q)"><path d="M526.784,365.193l-1.024,2.565-2.174.7,2.174.568.737,2.69.983-2.69,2.078-.568-2.078-.7Z" transform="translate(554.56 858.72) rotate(180)" fill="#fff"/></g><g transform="matrix(-1, 0, 0, -1, 384.56, 685.72)" filter="url(#s)"><path d="M526.784,365.193l-1.024,2.565-2.174.7,2.174.568.737,2.69.983-2.69,2.078-.568-2.078-.7Z" transform="translate(701.56 927.72) rotate(180)" fill="#fff"/></g><g transform="matrix(-1, 0, 0, -1, 384.56, 685.72)" filter="url(#u)"><path d="M526.784,365.193l-1.024,2.565-2.174.7,2.174.568.737,2.69.983-2.69,2.078-.568-2.078-.7Z" transform="translate(535.56 953.72) rotate(180)" fill="#fff"/></g><g transform="matrix(-1, 0, 0, -1, 384.56, 685.72)" filter="url(#w)"><path d="M526.784,365.193l-1.024,2.565-2.174.7,2.174.568.737,2.69.983-2.69,2.078-.568-2.078-.7Z" transform="translate(632.56 791.72) rotate(180)" fill="#fff"/></g><g transform="matrix(-1, 0, 0, -1, 384.56, 685.72)" filter="url(#y)"><path d="M526.784,365.193l-1.024,2.565-2.174.7,2.174.568.737,2.69.983-2.69,2.078-.568-2.078-.7Z" transform="translate(560.56 703.72) rotate(180)" fill="#fff"/></g><g transform="matrix(-1, 0, 0, -1, 384.56, 685.72)" filter="url(#aa)"><path d="M526.784,365.193l-1.024,2.565-2.174.7,2.174.568.737,2.69.983-2.69,2.078-.568-2.078-.7Z" transform="translate(566.56 652.72) rotate(180)" fill="#fff"/></g><g transform="matrix(-1, 0, 0, -1, 384.56, 685.72)" filter="url(#ac)"><path d="M526.784,365.193l-1.024,2.565-2.174.7,2.174.568.737,2.69.983-2.69,2.078-.568-2.078-.7Z" transform="translate(613.56 835.72) rotate(180)" fill="#fff"/></g><g transform="matrix(-1, 0, 0, -1, 384.56, 685.72)" filter="url(#ae)"><path d="M526.784,365.193l-1.024,2.565-2.174.7,2.174.568.737,2.69.983-2.69,2.078-.568-2.078-.7Z" transform="translate(664.56 882.72) rotate(180)" fill="#fff"/></g><g transform="matrix(-1, 0, 0, -1, 384.56, 685.72)" filter="url(#ag)"><path d="M526.784,365.193l-1.024,2.565-2.174.7,2.174.568.737,2.69.983-2.69,2.078-.568-2.078-.7Z" transform="translate(744.56 861.72) rotate(180)" fill="#fff"/></g><g transform="matrix(-1, 0, 0, -1, 384.56, 685.72)" filter="url(#ai)"><path d="M526.784,365.193l-1.024,2.565-2.174.7,2.174.568.737,2.69.983-2.69,2.078-.568-2.078-.7Z" transform="translate(610.56 934.72) rotate(180)" fill="#fff"/></g><g transform="matrix(-1, 0, 0, -1, 384.56, 685.72)" filter="url(#ak)"><path d="M526.784,365.193l-1.024,2.565-2.174.7,2.174.568.737,2.69.983-2.69,2.078-.568-2.078-.7Z" transform="translate(541.56 798.72) rotate(180)" fill="#fff"/></g><g transform="matrix(-1, 0, 0, -1, 384.56, 685.72)" filter="url(#am)"><path d="M526.784,365.193l-1.024,2.565-2.174.7,2.174.568.737,2.69.983-2.69,2.078-.568-2.078-.7Z" transform="translate(-438.59 -299.19)" fill="#fff"/></g><g transform="matrix(-1, 0, 0, -1, 384.56, 685.72)" filter="url(#ao)"><path d="M526.784,365.193l-1.024,2.565-2.174.7,2.174.568.737,2.69.983-2.69,2.078-.568-2.078-.7Z" transform="translate(-517.59 -348.19)" fill="#fff"/></g><g transform="matrix(-1, 0, 0, -1, 384.56, 685.72)" filter="url(#aq)"><path d="M526.784,365.193l-1.024,2.565-2.174.7,2.174.568.737,2.69.983-2.69,2.078-.568-2.078-.7Z" transform="translate(-507.59 -233.19)" fill="#fff"/></g><g transform="matrix(-1, 0, 0, -1, 384.56, 685.72)" filter="url(#as)"><path d="M526.784,365.193l-1.024,2.565-2.174.7,2.174.568.737,2.69.983-2.69,2.078-.568-2.078-.7Z" transform="translate(-459.59 -180.19)" fill="#fff"/></g><g transform="matrix(-1, 0, 0, -1, 384.56, 685.72)" filter="url(#au)"><path d="M526.784,365.193l-1.024,2.565-2.174.7,2.174.568.737,2.69.983-2.69,2.078-.568-2.078-.7Z" transform="translate(-465.59 -345.19)" fill="#fff"/></g><g transform="matrix(-1, 0, 0, -1, 384.56, 685.72)" filter="url(#aw)"><path d="M526.784,365.193l-1.024,2.565-2.174.7,2.174.568.737,2.69.983-2.69,2.078-.568-2.078-.7Z" transform="translate(-405.59 -338.19)" fill="#fff"/></g><g transform="matrix(-1, 0, 0, -1, 384.56, 685.72)" filter="url(#ay)"><path d="M526.784,365.193l-1.024,2.565-2.174.7,2.174.568.737,2.69.983-2.69,2.078-.568-2.078-.7Z" transform="translate(-336.59 -202.19)" fill="#fff"/></g><g transform="matrix(-1, 0, 0, -1, 384.56, 685.72)" filter="url(#ba)"><path d="M526.784,365.193l-1.024,2.565-2.174.7,2.174.568.737,2.69.983-2.69,2.078-.568-2.078-.7Z" transform="translate(-402.59 -149.19)" fill="#fff"/></g><g transform="matrix(-1, 0, 0, -1, 384.56, 685.72)" filter="url(#bc)"><path d="M526.784,365.193l-1.024,2.565-2.174.7,2.174.568.737,2.69.983-2.69,2.078-.568-2.078-.7Z" transform="translate(-274.59 -359.19)" fill="#fff"/></g><g transform="matrix(-1, 0, 0, -1, 384.56, 685.72)" filter="url(#be)"><path d="M526.784,365.193l-1.024,2.565-2.174.7,2.174.568.737,2.69.983-2.69,2.078-.568-2.078-.7Z" transform="translate(-205.59 -223.19)" fill="#fff"/></g><g transform="matrix(-1, 0, 0, -1, 384.56, 685.72)" filter="url(#bg)"><path d="M526.784,365.193l-1.024,2.565-2.174.7,2.174.568.737,2.69.983-2.69,2.078-.568-2.078-.7Z" transform="translate(-352.59 -292.19)" fill="#fff"/></g><g transform="matrix(-1, 0, 0, -1, 384.56, 685.72)" filter="url(#bi)"><path d="M526.784,365.193l-1.024,2.565-2.174.7,2.174.568.737,2.69.983-2.69,2.078-.568-2.078-.7Z" transform="translate(-186.59 -318.19)" fill="#fff"/></g><g transform="matrix(-1, 0, 0, -1, 384.56, 685.72)" filter="url(#bk)"><path d="M526.784,365.193l-1.024,2.565-2.174.7,2.174.568.737,2.69.983-2.69,2.078-.568-2.078-.7Z" transform="translate(-283.59 -156.19)" fill="#fff"/></g><g transform="matrix(-1, 0, 0, -1, 384.56, 685.72)" filter="url(#bm)"><path d="M526.784,365.193l-1.024,2.565-2.174.7,2.174.568.737,2.69.983-2.69,2.078-.568-2.078-.7Z" transform="translate(-264.59 -200.19)" fill="#fff"/></g><g transform="matrix(-1, 0, 0, -1, 384.56, 685.72)" filter="url(#bo)"><path d="M526.784,365.193l-1.024,2.565-2.174.7,2.174.568.737,2.69.983-2.69,2.078-.568-2.078-.7Z" transform="translate(-315.59 -247.19)" fill="#fff"/></g><g transform="matrix(-1, 0, 0, -1, 384.56, 685.72)" filter="url(#bq)"><path d="M526.784,365.193l-1.024,2.565-2.174.7,2.174.568.737,2.69.983-2.69,2.078-.568-2.078-.7Z" transform="translate(-395.59 -226.19)" fill="#fff"/></g><g transform="matrix(-1, 0, 0, -1, 384.56, 685.72)" filter="url(#bs)"><path d="M526.784,365.193l-1.024,2.565-2.174.7,2.174.568.737,2.69.983-2.69,2.078-.568-2.078-.7Z" transform="translate(-261.59 -299.19)" fill="#fff"/></g><g transform="matrix(-1, 0, 0, -1, 384.56, 685.72)" filter="url(#bu)"><path d="M526.784,365.193l-1.024,2.565-2.174.7,2.174.568.737,2.69.983-2.69,2.078-.568-2.078-.7Z" transform="translate(-192.59 -163.19)" fill="#fff"/></g><g transform="matrix(-1, 0, 0, -1, 384.56, 685.72)" filter="url(#bw)"><path d="M526.784,365.193l-1.024,2.565-2.174.7,2.174.568.737,2.69.983-2.69,2.078-.568-2.078-.7Z" transform="translate(-195.59 -47.19)" fill="#fff"/></g><g transform="matrix(-1, 0, 0, -1, 384.56, 685.72)" filter="url(#by)"><path d="M526.784,365.193l-1.024,2.565-2.174.7,2.174.568.737,2.69.983-2.69,2.078-.568-2.078-.7Z" transform="translate(-255.59 -109.19)" fill="#fff"/></g></g><g transform="translate(6 54)" opacity="0.2"><g transform="matrix(1, 0, 0, 1, 2.59, -48.81)" filter="url(#ca)"><path d="M526.784,365.193l-1.024,2.565-2.174.7,2.174.568.737,2.69.983-2.69,2.078-.568-2.078-.7Z" transform="translate(-405.59 -200.19)" fill="#fff"/></g><g transform="matrix(1, 0, 0, 1, 2.59, -48.81)" filter="url(#cc)"><path d="M526.784,365.193l-1.024,2.565-2.174.7,2.174.568.737,2.69.983-2.69,2.078-.568-2.078-.7Z" transform="translate(-484.59 -249.19)" fill="#fff"/></g><g transform="matrix(1, 0, 0, 1, 2.59, -48.81)" filter="url(#ce)"><path d="M526.784,365.193l-1.024,2.565-2.174.7,2.174.568.737,2.69.983-2.69,2.078-.568-2.078-.7Z" transform="translate(-474.59 -134.19)" fill="#fff"/></g><g transform="matrix(1, 0, 0, 1, 2.59, -48.81)" filter="url(#cg)"><path d="M526.784,365.193l-1.024,2.565-2.174.7,2.174.568.737,2.69.983-2.69,2.078-.568-2.078-.7Z" transform="translate(-426.59 -81.19)" fill="#fff"/></g><g transform="matrix(1, 0, 0, 1, 2.59, -48.81)" filter="url(#ci)"><path d="M526.784,365.193l-1.024,2.565-2.174.7,2.174.568.737,2.69.983-2.69,2.078-.568-2.078-.7Z" transform="translate(-432.59 -246.19)" fill="#fff"/></g><g transform="matrix(1, 0, 0, 1, 2.59, -48.81)" filter="url(#ck)"><path d="M526.784,365.193l-1.024,2.565-2.174.7,2.174.568.737,2.69.983-2.69,2.078-.568-2.078-.7Z" transform="translate(-372.59 -239.19)" fill="#fff"/></g><g transform="matrix(1, 0, 0, 1, 2.59, -48.81)" filter="url(#cm)"><path d="M526.784,365.193l-1.024,2.565-2.174.7,2.174.568.737,2.69.983-2.69,2.078-.568-2.078-.7Z" transform="translate(-303.59 -103.19)" fill="#fff"/></g><g transform="matrix(1, 0, 0, 1, 2.59, -48.81)" filter="url(#co)"><path d="M526.784,365.193l-1.024,2.565-2.174.7,2.174.568.737,2.69.983-2.69,2.078-.568-2.078-.7Z" transform="translate(-241.59 -260.19)" fill="#fff"/></g><g transform="matrix(1, 0, 0, 1, 2.59, -48.81)" filter="url(#cq)"><path d="M526.784,365.193l-1.024,2.565-2.174.7,2.174.568.737,2.69.983-2.69,2.078-.568-2.078-.7Z" transform="translate(-172.59 -124.19)" fill="#fff"/></g><g transform="matrix(1, 0, 0, 1, 2.59, -48.81)" filter="url(#cs)"><path d="M526.784,365.193l-1.024,2.565-2.174.7,2.174.568.737,2.69.983-2.69,2.078-.568-2.078-.7Z" transform="translate(-300.59 -186.19)" fill="#fff"/></g><g transform="matrix(1, 0, 0, 1, 2.59, -48.81)" filter="url(#cu)"><path d="M526.784,365.193l-1.024,2.565-2.174.7,2.174.568.737,2.69.983-2.69,2.078-.568-2.078-.7Z" transform="translate(-153.59 -219.19)" fill="#fff"/></g><g transform="matrix(1, 0, 0, 1, 2.59, -48.81)" filter="url(#cw)"><path d="M526.784,365.193l-1.024,2.565-2.174.7,2.174.568.737,2.69.983-2.69,2.078-.568-2.078-.7Z" transform="translate(-250.59 -57.19)" fill="#fff"/></g><g transform="matrix(1, 0, 0, 1, 2.59, -48.81)" filter="url(#cy)"><path d="M526.784,365.193l-1.024,2.565-2.174.7,2.174.568.737,2.69.983-2.69,2.078-.568-2.078-.7Z" transform="translate(-178.59 30.81)" fill="#fff"/></g><g transform="matrix(1, 0, 0, 1, 2.59, -48.81)" filter="url(#da)"><path d="M526.784,365.193l-1.024,2.565-2.174.7,2.174.568.737,2.69.983-2.69,2.078-.568-2.078-.7Z" transform="translate(-184.59 81.81)" fill="#fff"/></g><g transform="matrix(1, 0, 0, 1, 2.59, -48.81)" filter="url(#dc)"><path d="M526.784,365.193l-1.024,2.565-2.174.7,2.174.568.737,2.69.983-2.69,2.078-.568-2.078-.7Z" transform="translate(-231.59 -101.19)" fill="#fff"/></g><g transform="matrix(1, 0, 0, 1, 2.59, -48.81)" filter="url(#de)"><path d="M526.784,365.193l-1.024,2.565-2.174.7,2.174.568.737,2.69.983-2.69,2.078-.568-2.078-.7Z" transform="translate(-282.59 -136.19)" fill="#fff"/></g><g transform="matrix(1, 0, 0, 1, 2.59, -48.81)" filter="url(#dg)"><path d="M526.784,365.193l-1.024,2.565-2.174.7,2.174.568.737,2.69.983-2.69,2.078-.568-2.078-.7Z" transform="translate(-362.59 -127.19)" fill="#fff"/></g><g transform="matrix(1, 0, 0, 1, 2.59, -48.81)" filter="url(#di)"><path d="M526.784,365.193l-1.024,2.565-2.174.7,2.174.568.737,2.69.983-2.69,2.078-.568-2.078-.7Z" transform="translate(-228.59 -200.19)" fill="#fff"/></g><g transform="matrix(1, 0, 0, 1, 2.59, -48.81)" filter="url(#dk)"><path d="M526.784,365.193l-1.024,2.565-2.174.7,2.174.568.737,2.69.983-2.69,2.078-.568-2.078-.7Z" transform="translate(-159.59 -64.19)" fill="#fff"/></g><g transform="matrix(1, 0, 0, 1, 2.59, -48.81)" filter="url(#dm)"><path d="M526.784,365.193l-1.024,2.565-2.174.7,2.174.568.737,2.69.983-2.69,2.078-.568-2.078-.7Z" transform="translate(820.56 1033.72) rotate(180)" fill="#fff"/></g><g transform="matrix(1, 0, 0, 1, 2.59, -48.81)" filter="url(#do)"><path d="M526.784,365.193l-1.024,2.565-2.174.7,2.174.568.737,2.69.983-2.69,2.078-.568-2.078-.7Z" transform="translate(899.56 1082.72) rotate(180)" fill="#fff"/></g><g transform="matrix(1, 0, 0, 1, 2.59, -48.81)" filter="url(#dq)"><path d="M526.784,365.193l-1.024,2.565-2.174.7,2.174.568.737,2.69.983-2.69,2.078-.568-2.078-.7Z" transform="translate(889.56 967.72) rotate(180)" fill="#fff"/></g><g transform="matrix(1, 0, 0, 1, 2.59, -48.81)" filter="url(#ds)"><path d="M526.784,365.193l-1.024,2.565-2.174.7,2.174.568.737,2.69.983-2.69,2.078-.568-2.078-.7Z" transform="translate(841.56 914.72) rotate(180)" fill="#fff"/></g><g transform="matrix(1, 0, 0, 1, 2.59, -48.81)" filter="url(#du)"><path d="M526.784,365.193l-1.024,2.565-2.174.7,2.174.568.737,2.69.983-2.69,2.078-.568-2.078-.7Z" transform="translate(847.56 1079.72) rotate(180)" fill="#fff"/></g><g transform="matrix(1, 0, 0, 1, 2.59, -48.81)" filter="url(#dw)"><path d="M526.784,365.193l-1.024,2.565-2.174.7,2.174.568.737,2.69.983-2.69,2.078-.568-2.078-.7Z" transform="translate(787.56 1072.72) rotate(180)" fill="#fff"/></g><g transform="matrix(1, 0, 0, 1, 2.59, -48.81)" filter="url(#dy)"><path d="M526.784,365.193l-1.024,2.565-2.174.7,2.174.568.737,2.69.983-2.69,2.078-.568-2.078-.7Z" transform="translate(718.56 936.72) rotate(180)" fill="#fff"/></g><g transform="matrix(1, 0, 0, 1, 2.59, -48.81)" filter="url(#ea)"><path d="M526.784,365.193l-1.024,2.565-2.174.7,2.174.568.737,2.69.983-2.69,2.078-.568-2.078-.7Z" transform="translate(784.56 883.72) rotate(180)" fill="#fff"/></g><g transform="matrix(1, 0, 0, 1, 2.59, -48.81)" filter="url(#ec)"><path d="M526.784,365.193l-1.024,2.565-2.174.7,2.174.568.737,2.69.983-2.69,2.078-.568-2.078-.7Z" transform="translate(656.56 1093.72) rotate(180)" fill="#fff"/></g><g transform="matrix(1, 0, 0, 1, 2.59, -48.81)" filter="url(#ee)"><path d="M526.784,365.193l-1.024,2.565-2.174.7,2.174.568.737,2.69.983-2.69,2.078-.568-2.078-.7Z" transform="translate(587.56 957.72) rotate(180)" fill="#fff"/></g><g transform="matrix(1, 0, 0, 1, 2.59, -48.81)" filter="url(#eg)"><path d="M526.784,365.193l-1.024,2.565-2.174.7,2.174.568.737,2.69.983-2.69,2.078-.568-2.078-.7Z" transform="translate(734.56 1026.72) rotate(180)" fill="#fff"/></g><g transform="matrix(1, 0, 0, 1, 2.59, -48.81)" filter="url(#ei)"><path d="M526.784,365.193l-1.024,2.565-2.174.7,2.174.568.737,2.69.983-2.69,2.078-.568-2.078-.7Z" transform="translate(568.56 1052.72) rotate(180)" fill="#fff"/></g><g transform="matrix(1, 0, 0, 1, 2.59, -48.81)" filter="url(#ek)"><path d="M526.784,365.193l-1.024,2.565-2.174.7,2.174.568.737,2.69.983-2.69,2.078-.568-2.078-.7Z" transform="translate(665.56 890.72) rotate(180)" fill="#fff"/></g><g transform="matrix(1, 0, 0, 1, 2.59, -48.81)" filter="url(#em)"><path d="M526.784,365.193l-1.024,2.565-2.174.7,2.174.568.737,2.69.983-2.69,2.078-.568-2.078-.7Z" transform="translate(646.56 934.72) rotate(180)" fill="#fff"/></g><g transform="matrix(1, 0, 0, 1, 2.59, -48.81)" filter="url(#eo)"><path d="M526.784,365.193l-1.024,2.565-2.174.7,2.174.568.737,2.69.983-2.69,2.078-.568-2.078-.7Z" transform="translate(697.56 981.72) rotate(180)" fill="#fff"/></g><g transform="matrix(1, 0, 0, 1, 2.59, -48.81)" filter="url(#eq)"><path d="M526.784,365.193l-1.024,2.565-2.174.7,2.174.568.737,2.69.983-2.69,2.078-.568-2.078-.7Z" transform="translate(777.56 960.72) rotate(180)" fill="#fff"/></g><g transform="matrix(1, 0, 0, 1, 2.59, -48.81)" filter="url(#es)"><path d="M526.784,365.193l-1.024,2.565-2.174.7,2.174.568.737,2.69.983-2.69,2.078-.568-2.078-.7Z" transform="translate(643.56 1033.72) rotate(180)" fill="#fff"/></g><g transform="matrix(1, 0, 0, 1, 2.59, -48.81)" filter="url(#eu)"><path d="M526.784,365.193l-1.024,2.565-2.174.7,2.174.568.737,2.69.983-2.69,2.078-.568-2.078-.7Z" transform="translate(574.56 897.72) rotate(180)" fill="#fff"/></g><g transform="matrix(1, 0, 0, 1, 2.59, -48.81)" filter="url(#ew)"><path d="M526.784,365.193l-1.024,2.565-2.174.7,2.174.568.737,2.69.983-2.69,2.078-.568-2.078-.7Z" transform="translate(577.56 781.72) rotate(180)" fill="#fff"/></g><g transform="matrix(1, 0, 0, 1, 2.59, -48.81)" filter="url(#ey)"><path d="M526.784,365.193l-1.024,2.565-2.174.7,2.174.568.737,2.69.983-2.69,2.078-.568-2.078-.7Z" transform="translate(637.56 843.72) rotate(180)" fill="#fff"/></g></g></g></svg>