<svg xmlns="http://www.w3.org/2000/svg" width="120.473" height="93.045" viewBox="0 0 120.473 93.045"><path d="M160.852,328.356a4.369,4.369,0,0,0-2.382,1.128l-4.846,3.674c.7.813,1.412,1.632,2.111,2.445a18.72,18.72,0,0,1,8.332-5C163.247,329.516,162.213,328.331,160.852,328.356Z" transform="matrix(0.788, 0.616, -0.616, 0.788, 176.759, -335.48)" fill="#45322e"/><path d="M166.341,331.1a4.291,4.291,0,0,0-2.389,1.122q-2.42,1.834-4.846,3.668c.706.819,1.412,1.632,2.118,2.452a18.793,18.793,0,0,1,8.332-5C168.736,332.255,167.7,331.064,166.341,331.1Z" transform="matrix(0.788, 0.616, -0.616, 0.788, 190.708, -306.112)" fill="#45322e"/><path d="M167.083,333.351q-2.194-.34-4.38-.668c-1.356,3.573-2.862,7.033-4.508,10.336a7.078,7.078,0,0,1,5.258,1.935A64.416,64.416,0,0,1,167.083,333.351Z" transform="matrix(0.788, 0.616, -0.616, 0.788, 182.737, -302.476)" fill="#45322e"/><path d="M156.51,339.3c-2.155-.221-2.23-.556-4.385-.777-2.01,3.573-2.955,6.4-5.388,9.705,2.71-.151,2.09,1.275,4.409,2.674A51.159,51.159,0,0,1,156.51,339.3Z" transform="matrix(0.788, 0.616, -0.616, 0.788, 100.405, -326.003)" fill="#45322e"/><path d="M163.844,332.686a5.346,5.346,0,0,0-2.886.006c-1.84.34-3.681.693-5.521,1.04-.082,2.042-.164,4.09-.239,6.132a29.659,29.659,0,0,1,11.237-3.479C165.949,334.9,165.3,333.24,163.844,332.686Z" transform="matrix(0.788, 0.616, -0.616, 0.788, 169.856, -313.089)" fill="#45322e"/><path d="M145.275,339.474c.479,1.62.945,3.239,1.418,4.853q5.379-2.439,10.764-4.891a6.89,6.89,0,0,1-1.481-3.844A50.437,50.437,0,0,1,145.275,339.474Z" transform="matrix(0.788, 0.616, -0.616, 0.788, 118.257, -332.498)" fill="#45322e"/><path d="M154.43,331.853q-4.131,2.893-8.275,5.792a13.049,13.049,0,0,0,.807,4.815,39.475,39.475,0,0,1,9.636-6.731A7.924,7.924,0,0,1,154.43,331.853Z" transform="matrix(0.788, 0.616, -0.616, 0.788, 134.125, -345.259)" fill="#45322e"/><path d="M152.367,347.054c1.368-.952,2.729-1.916,4.09-2.874-1.664-.353-2.779-1.9-3.611-3.384s-1.664-3.119-3.17-3.914q-1.636.738-3.265,1.475Z" transform="matrix(0.788, 0.616, -0.616, 0.788, 118.793, -323.399)" fill="#45322e"/><path d="M160.727,331.432q-1.673-.435-3.334-.889-2.685,3.233-5.357,6.453c1.771.385,3.548.769,5.319,1.147Q159.038,334.8,160.727,331.432Z" transform="matrix(0.788, 0.616, -0.616, 0.788, 162.985, -331.519)" fill="#45322e"/><path d="M158.124,342.433c-1.1-.29-2.219-.592-3.328-.889q-2.675,3.233-5.357,6.453,2.666.576,5.319,1.147C155.88,346.914,157,344.67,158.124,342.433Z" transform="matrix(0.788, 0.616, -0.616, 0.788, 116.226, -294.036)" fill="#45322e"/><path d="M159.96,331.44a2.456,2.456,0,0,0-2.08-1.475,2.141,2.141,0,0,0-2.086,1.393,3.282,3.282,0,0,0-.145.895,17.609,17.609,0,0,0,1.595,8.5,7.657,7.657,0,0,1,4.342-1.588,8.081,8.081,0,0,1-1.418-4.582A7.7,7.7,0,0,0,159.96,331.44Z" transform="matrix(0.788, 0.616, -0.616, 0.788, 179.832, -322.261)" fill="#45322e"/><path d="M158.525,341.4a2.483,2.483,0,0,0-2.08-1.481,2.149,2.149,0,0,0-2.092,1.392,3.579,3.579,0,0,0-.139.9,17.642,17.642,0,0,0,1.588,8.5,7.692,7.692,0,0,1,4.349-1.588,8.1,8.1,0,0,1-1.418-4.582A7.7,7.7,0,0,0,158.525,341.4Z" transform="matrix(0.788, 0.616, -0.616, 0.788, 141.346, -285.372)" fill="#45322e"/><path d="M149.261,348.475q2.288-.132,4.588-.258l-.4-8.9q-1.579.993-3.157,1.991Z" transform="matrix(0.788, 0.616, -0.616, 0.788, 122.749, -303.917)" fill="#45322e"/><path d="M145.659,351a1.068,1.068,0,0,0,.857-.006c1.834-.542,3.668-1.078,5.5-1.62a25.894,25.894,0,0,1-1.1-10.323,13.272,13.272,0,0,1-4.878,2.553q-.34,4.159-.693,8.313C145.313,350.32,145.319,350.8,145.659,351Z" transform="matrix(0.788, 0.616, -0.616, 0.788, 107.201, -317.854)" fill="#45322e"/><path d="M159.433,346.829a1.121,1.121,0,0,0,.857-.006q2.751-.813,5.5-1.613a26.092,26.092,0,0,1-1.1-10.336,13.242,13.242,0,0,1-4.872,2.552c-.233,2.779-.466,5.546-.7,8.319C159.087,346.142,159.093,346.622,159.433,346.829Z" transform="matrix(0.788, 0.616, -0.616, 0.788, 178.391, -290.347)" fill="#45322e"/><path d="M163.228,345.489a20.963,20.963,0,0,1,.063-9.069c-1.506.309-3.006.618-4.512.92q-.681,4.367-1.361,8.729C159.358,345.874,161.293,345.684,163.228,345.489Z" transform="matrix(0.788, 0.616, -0.616, 0.788, 166.287, -289.401)" fill="#45322e"/><path d="M152.039,351.415c1.7-.277,3.4-.548,5.1-.826a57.105,57.105,0,0,1-.076-9.516,1.957,1.957,0,0,0-1.954.158Q153.574,346.326,152.039,351.415Z" transform="matrix(0.788, 0.616, -0.616, 0.788, 129.248, -288.31)" fill="#45322e"/><path d="M143.835,338.081q-.3,4.188-.618,8.37l4.557-.586q-.17-4.471-.347-8.93C146.229,337.312,145.032,337.7,143.835,338.081Z" transform="matrix(0.788, 0.616, -0.616, 0.788, 105.278, -333.608)" fill="#45322e"/><path d="M150.114,334.292a5.686,5.686,0,0,0-2.477,1.721c-1.235,1.248-2.471,2.483-3.706,3.725,1.254.983,2.515,1.979,3.769,2.969a18.458,18.458,0,0,1,6.51-7.3C152.95,334.677,151.519,333.933,150.114,334.292Z" transform="matrix(0.788, 0.616, -0.616, 0.788, 117.189, -342.704)" fill="#45322e"/><path d="M165.666,335.42a4.391,4.391,0,0,0,1.569.025,2.164,2.164,0,0,0,1.008-3.668,39.817,39.817,0,0,1-8.036-2.1L157.46,334.3Z" transform="matrix(0.788, 0.616, -0.616, 0.788, 188.495, -317.456)" fill="#45322e"/><path d="M163.338,342.27a4.381,4.381,0,0,0,1.569.019,2.164,2.164,0,0,0,1.008-3.668,39.411,39.411,0,0,1-8.035-2.1l-2.754,4.632Q159.229,341.706,163.338,342.27Z" transform="matrix(0.788, 0.616, -0.616, 0.788, 156.401, -296.479)" fill="#45322e"/><path d="M159.775,335.159a4.532,4.532,0,0,0,1.569.013,2.164,2.164,0,0,0,1.008-3.668,38.589,38.589,0,0,1-8.035-2.105l-2.748,4.639Q155.672,334.6,159.775,335.159Z" transform="matrix(0.788, 0.616, -0.616, 0.788, 164.772, -337.827)" fill="#45322e"/><path d="M155.3,339.151a4.69,4.69,0,0,0,1.569.025,2.176,2.176,0,0,0,1.008-3.681,38.821,38.821,0,0,1-8.029-2.1c-.92,1.544-1.834,3.088-2.754,4.638C149.832,338.4,152.567,338.779,155.3,339.151Z" transform="matrix(0.788, 0.616, -0.616, 0.788, 133.035, -335.721)" fill="#45322e"/><path d="M157.481,328.2a19.256,19.256,0,0,1-6.542,4.122c.435,1.267.876,2.521,1.3,3.781a33.434,33.434,0,0,1,8.388-5.256A6.325,6.325,0,0,1,157.481,328.2Z" transform="matrix(0.788, 0.616, -0.616, 0.788, 166.044, -344.881)" fill="#45322e"/><path d="M159.818,340.355a10.023,10.023,0,0,1-7.891-2.288q-1.314,2.137-2.634,4.26a35.692,35.692,0,0,1,9.737,2.83C159.295,343.562,159.559,341.955,159.818,340.355Z" transform="matrix(0.788, 0.616, -0.616, 0.788, 126.966, -309.04)" fill="#45322e"/><path d="M157.115,332.538a9.982,9.982,0,0,1-7.891-2.281q-1.323,2.127-2.634,4.26a35.486,35.486,0,0,1,9.731,2.83C156.585,335.746,156.85,334.139,157.115,332.538Z" transform="matrix(0.788, 0.616, -0.616, 0.788, 141.168, -350.496)" fill="#45322e"/><path d="M167.107,341.038a10.021,10.021,0,0,1-7.891-2.281c-.876,1.412-1.758,2.836-2.634,4.26a35.35,35.35,0,0,1,9.731,2.83Q166.71,343.436,167.107,341.038Z" transform="matrix(0.788, 0.616, -0.616, 0.788, 155.172, -282.367)" fill="#45322e"/><path d="M157.1,343.34a2.106,2.106,0,0,0,3.441-1.185q-1.031-3.64-2.061-7.273a17.467,17.467,0,0,0-3.239,2.187,8.638,8.638,0,0,0,1.223,5.47A3.268,3.268,0,0,0,157.1,343.34Z" transform="matrix(0.788, 0.616, -0.616, 0.788, 161.984, -303.112)" fill="#45322e"/><path d="M156.64,337.471c-.359-.29-.895-.076-1.3.151-.983.554-1.966,1.1-2.949,1.657q-.123,4.3-.252,8.6c1.393-.321,2.8-.637,4.2-.958q.274-4.216.561-8.432A1.219,1.219,0,0,0,156.64,337.471Z" transform="matrix(0.788, 0.616, -0.616, 0.788, 141.24, -302.842)" fill="#45322e"/><path d="M146.625,348.2A28.319,28.319,0,0,1,156.7,347.3c-.038-1.884-.082-3.775-.12-5.672a49.9,49.9,0,0,1-8.773,1.985C147.413,345.148,147.022,346.673,146.625,348.2Z" transform="matrix(0.788, 0.616, -0.616, 0.788, 104.204, -302.883)" fill="#45322e"/><path d="M158.124,342.433c-1.1-.29-2.219-.592-3.328-.889q-2.675,3.233-5.357,6.453,2.666.576,5.319,1.147C155.88,346.914,157,344.67,158.124,342.433Z" transform="matrix(0.788, 0.616, -0.616, 0.788, 155.226, -323.036)" fill="#45322e"/><path d="M157.1,343.34a2.106,2.106,0,0,0,3.441-1.185q-1.031-3.64-2.061-7.273a17.467,17.467,0,0,0-3.239,2.187,8.638,8.638,0,0,0,1.223,5.47A3.268,3.268,0,0,0,157.1,343.34Z" transform="matrix(0.788, 0.616, -0.616, 0.788, 134.984, -312.112)" fill="#45322e"/><path d="M163.338,342.27a4.381,4.381,0,0,0,1.569.019,2.164,2.164,0,0,0,1.008-3.668,39.411,39.411,0,0,1-8.035-2.1l-2.754,4.632Q159.229,341.706,163.338,342.27Z" transform="matrix(0.788, 0.616, -0.616, 0.788, 154.401, -330.479)" fill="#45322e"/><path d="M163.844,332.686a5.346,5.346,0,0,0-2.886.006c-1.84.34-3.681.693-5.521,1.04-.082,2.042-.164,4.09-.239,6.132a29.659,29.659,0,0,1,11.237-3.479C165.949,334.9,165.3,333.24,163.844,332.686Z" transform="matrix(0.788, 0.616, -0.616, 0.788, 126.856, -324.089)" fill="#45322e"/><path d="M157.1,343.34a2.106,2.106,0,0,0,3.441-1.185q-1.031-3.64-2.061-7.273a17.467,17.467,0,0,0-3.239,2.187,8.638,8.638,0,0,0,1.223,5.47A3.268,3.268,0,0,0,157.1,343.34Z" transform="matrix(0.788, 0.616, -0.616, 0.788, 147.984, -341.112)" fill="#45322e"/><path d="M157.481,328.2a19.256,19.256,0,0,1-6.542,4.122c.435,1.267.876,2.521,1.3,3.781a33.434,33.434,0,0,1,8.388-5.256A6.325,6.325,0,0,1,157.481,328.2Z" transform="matrix(0.788, 0.616, -0.616, 0.788, 123.044, -287.881)" fill="#45322e"/></svg>