<svg xmlns="http://www.w3.org/2000/svg" xmlns:xlink="http://www.w3.org/1999/xlink" viewBox="0 0 32 25"><defs><linearGradient id="Degradado_sin_nombre_34" x1="-91.28" y1="-6.52" x2="-91.13" y2="-6.59" gradientTransform="matrix(13.62, 0, 0, -13.85, 1564.27, 63.73)" gradientUnits="userSpaceOnUse"><stop offset="0" stop-color="#f4dfba"/><stop offset="1" stop-color="#f0d19c"/></linearGradient><linearGradient id="Degradado_sin_nombre_35" x1="-104.42" y1="-0.61" x2="-104.23" y2="-0.61" gradientTransform="matrix(11.27, 0, 0, -11.53, 1230.51, -4.76)" gradientUnits="userSpaceOnUse"><stop offset="0" stop-color="#f4dfba"/><stop offset="1" stop-color="#deb878"/></linearGradient><linearGradient id="Degradado_sin_nombre_34-2" x1="-104.17" y1="3.98" x2="-104" y2="3.92" gradientTransform="matrix(12.21, 0, 0, -14.54, 1429.69, 135.97)" xlink:href="#Degradado_sin_nombre_34"/><linearGradient id="Degradado_sin_nombre_35-2" x1="-117.78" y1="6" x2="-117.54" y2="6" gradientTransform="matrix(9.17, 0, 0, -13.06, 997.61, 92.45)" xlink:href="#Degradado_sin_nombre_35"/><linearGradient id="Degradado_sin_nombre_34-3" x1="-137.78" y1="16.77" x2="-137.64" y2="16.69" gradientTransform="matrix(15.1, 0, 0, -11.66, 1811.9, 72.54)" xlink:href="#Degradado_sin_nombre_34"/><linearGradient id="Degradado_sin_nombre_35-3" x1="-158.78" y1="-5.42" x2="-158.64" y2="-5.42" gradientTransform="matrix(14.53, 0, 0, -8.22, 1730.14, -25.48)" xlink:href="#Degradado_sin_nombre_35"/><linearGradient id="Degradado_sin_nombre_34-4" x1="-89.13" y1="29.38" x2="-88.98" y2="29.31" gradientTransform="matrix(6.18, 12.13, 12.34, -6.29, 221.72, 1591)" xlink:href="#Degradado_sin_nombre_34"/><linearGradient id="Degradado_sin_nombre_35-4" x1="-100.78" y1="41.46" x2="-100.6" y2="41.46" gradientTransform="matrix(5.12, 10.04, 10.27, -5.23, 131.13, 1262.42)" xlink:href="#Degradado_sin_nombre_35"/><linearGradient id="Degradado_sin_nombre_34-5" x1="-89.6" y1="-4.12" x2="-89.45" y2="-4.2" gradientTransform="matrix(13.62, 0, 0, -13.85, 1528.54, 103.1)" xlink:href="#Degradado_sin_nombre_34"/><linearGradient id="Degradado_sin_nombre_35-5" x1="-101.94" y1="2.04" x2="-101.75" y2="2.04" gradientTransform="matrix(11.27, 0, 0, -11.53, 1194.72, 34.64)" xlink:href="#Degradado_sin_nombre_35"/><linearGradient id="Degradado_sin_nombre_34-6" x1="-106.62" y1="4.38" x2="-106.45" y2="4.31" gradientTransform="matrix(11.21, 0, 0, -13.55, 1200.74, 62.86)" xlink:href="#Degradado_sin_nombre_34"/><linearGradient id="Degradado_sin_nombre_35-6" x1="-94.47" y1="2.82" x2="-94.23" y2="2.82" gradientTransform="matrix(8.31, 0, 0, -12.79, 791.57, 40.25)" xlink:href="#Degradado_sin_nombre_35"/><linearGradient id="Degradado_sin_nombre_34-7" x1="-128.56" y1="11.53" x2="-128.43" y2="11.44" gradientTransform="matrix(16.05, 0, 0, -11.66, 1899.68, 66.6)" xlink:href="#Degradado_sin_nombre_34"/><linearGradient id="Degradado_sin_nombre_35-7" x1="-150.46" y1="-6.88" x2="-150.3" y2="-6.88" gradientTransform="matrix(15.37, 0, 0, -8.01, 1801.88, -37.35)" xlink:href="#Degradado_sin_nombre_35"/><linearGradient id="Degradado_sin_nombre_34-8" x1="-117.63" y1="-10.37" x2="-117.5" y2="-10.46" gradientTransform="matrix(8.68, 0, 0, -6.74, 898.87, -135.6)" xlink:href="#Degradado_sin_nombre_34"/><linearGradient id="Degradado_sin_nombre_35-8" x1="-134.64" y1="-41.02" x2="-134.49" y2="-41.02" gradientTransform="matrix(8.34, 0, 0, -4.78, 850.96, -191.65)" xlink:href="#Degradado_sin_nombre_35"/><linearGradient id="Degradado_sin_nombre_34-9" x1="-82.73" y1="-11.62" x2="-82.58" y2="-11.69" gradientTransform="matrix(9.91, 0, 0, -10.08, 998.81, -23.84)" xlink:href="#Degradado_sin_nombre_34"/><linearGradient id="Degradado_sin_nombre_35-9" x1="-89.53" y1="-9.64" x2="-89.34" y2="-9.64" gradientTransform="matrix(8.2, 0, 0, -8.39, 755.67, -73.74)" xlink:href="#Degradado_sin_nombre_35"/><linearGradient id="Degradado_sin_nombre_34-10" x1="-90.15" y1="-4.97" x2="-90" y2="-5.04" gradientTransform="matrix(10.91, 0, 0, -11.1, 1192.69, 58.7)" xlink:href="#Degradado_sin_nombre_34"/><linearGradient id="Degradado_sin_nombre_35-10" x1="-98.51" y1="-1.64" x2="-98.31" y2="-1.64" gradientTransform="matrix(9.03, 0, 0, -9.24, 925.17, 3.84)" xlink:href="#Degradado_sin_nombre_35"/><linearGradient id="Degradado_sin_nombre_34-11" x1="-114.71" y1="-35.08" x2="-114.56" y2="-35.15" gradientTransform="matrix(6.31, -5.88, -5.98, -6.41, 682.74, -935.2)" xlink:href="#Degradado_sin_nombre_34"/><linearGradient id="Degradado_sin_nombre_35-11" x1="-128.11" y1="-37.91" x2="-127.92" y2="-37.91" gradientTransform="matrix(5.23, -4.88, -4.98, -5.34, 500.87, -824.88)" xlink:href="#Degradado_sin_nombre_35"/><linearGradient id="Degradado_sin_nombre_34-12" x1="-184.13" y1="71.03" x2="-183.99" y2="70.95" gradientTransform="matrix(-15.09, 0.53, 0.41, 11.65, -2495.64, -594.32)" xlink:href="#Degradado_sin_nombre_34"/><linearGradient id="Degradado_sin_nombre_35-12" x1="-206.94" y1="71.48" x2="-206.79" y2="71.48" gradientTransform="matrix(-14.51, 0.51, 0.29, 8.22, -2410.01, -499.45)" xlink:href="#Degradado_sin_nombre_35"/><linearGradient id="Degradado_sin_nombre_34-13" x1="-172.88" y1="65.5" x2="-172.74" y2="65.41" gradientTransform="matrix(-16.04, 0.56, 0.41, 11.65, -2598.13, -580.49)" xlink:href="#Degradado_sin_nombre_34"/><linearGradient id="Degradado_sin_nombre_35-13" x1="-196.75" y1="71.63" x2="-196.6" y2="71.63" gradientTransform="matrix(-15.35, 0.54, 0.28, 8, -2496.7, -480.09)" xlink:href="#Degradado_sin_nombre_35"/><linearGradient id="Degradado_sin_nombre_34-14" x1="-154.04" y1="49.34" x2="-153.89" y2="49.27" gradientTransform="matrix(-10.9, 0.38, 0.39, 11.09, -1872.54, -564.28)" xlink:href="#Degradado_sin_nombre_34"/><linearGradient id="Degradado_sin_nombre_35-14" x1="-175.74" y1="63.59" x2="-175.54" y2="63.59" gradientTransform="matrix(-9.02, 0.32, 0.32, 9.23, -1603.11, -518.9)" xlink:href="#Degradado_sin_nombre_35"/><linearGradient id="Degradado_sin_nombre_34-15" x1="-117.9" y1="-5.3" x2="-117.76" y2="-5.39" gradientTransform="matrix(8.68, 0, 0, -6.74, 901.87, -91.6)" xlink:href="#Degradado_sin_nombre_34"/><linearGradient id="Degradado_sin_nombre_35-15" x1="-134.92" y1="-33.87" x2="-134.77" y2="-33.87" gradientTransform="matrix(8.34, 0, 0, -4.78, 853.96, -147.65)" xlink:href="#Degradado_sin_nombre_35"/><linearGradient id="Degradado_sin_nombre_35-16" x1="-132.35" y1="-33.38" x2="-132.2" y2="-33.38" gradientTransform="matrix(8.34, 0, 0, -4.78, 825.96, -144.65)" xlink:href="#Degradado_sin_nombre_35"/><linearGradient id="Degradado_sin_nombre_34-16" x1="-158.97" y1="50.63" x2="-158.82" y2="50.56" gradientTransform="matrix(-10.9, 0.38, 0.39, 11.09, -1943.54, -580.28)" xlink:href="#Degradado_sin_nombre_34"/><linearGradient id="Degradado_sin_nombre_35-17" x1="-181.69" y1="65.14" x2="-181.5" y2="65.14" gradientTransform="matrix(-9.02, 0.32, 0.32, 9.23, -1674.11, -534.9)" xlink:href="#Degradado_sin_nombre_35"/><linearGradient id="Degradado_sin_nombre_34-17" x1="-182.23" y1="66.48" x2="-182.09" y2="66.39" gradientTransform="matrix(-15.09, 0.53, 0.41, 11.65, -2455.64, -527.32)" xlink:href="#Degradado_sin_nombre_34"/><linearGradient id="Degradado_sin_nombre_35-18" x1="-204.97" y1="65.03" x2="-204.82" y2="65.03" gradientTransform="matrix(-14.51, 0.51, 0.29, 8.22, -2370.01, -432.45)" xlink:href="#Degradado_sin_nombre_35"/></defs><title>Rosquilla_CChoc_TMani</title><g id="Capa_2" data-name="Capa 2"><g id="Capa_1-2" data-name="Capa 1"><g id="Grupo_628" data-name="Grupo 628"><g id="Grupo_616" data-name="Grupo 616"><g id="Componente_6" data-name="Componente 6"><g id="Grupo_552" data-name="Grupo 552"><path id="Trazado_357" data-name="Trazado 357" d="M31.18,7.91c-.65-2.1-10.45-6.3-16.85-5.19-2.18.39-4,1.59-5.87,2.25C-1,8.24-.83,14.51,3,19.53c2.15,2.84,8,5.81,14.58,5.44C36.22,23.92,31.18,7.91,31.18,7.91ZM19.53,14.82H16.59c-.8,0-3.12-.21-3.39-.16-.51.29-.92-.16-1.55-.06-1.07-.45-1.32-1.06-2-2.33-.11-1.13,6.83-4.63,9.83-2.57A18.69,18.69,0,0,1,21.86,11l.1.12c1.12.71-1.05-.79,0,0C24.2,12.77,20.57,15.55,19.53,14.82Z" fill="#b9640f"/><path id="Trazado_358" data-name="Trazado 358" d="M2.56,11.71c.07.22.15.44.23.66l.59,0c1.64.11,3.27-.13,4.9,0l1.5.09c0-.06,0-.13-.08-.19-.11-1.13,6.69-4.54,9.7-2.48A21.33,21.33,0,0,1,21.86,11l.1.12c.64.41,1.26.86,1.87,1.32.93-.42,1.86-.86,2.82-1.25a30.83,30.83,0,0,1,4.89-1.7,13.75,13.75,0,0,0-.36-1.54c-.65-2.1-10.45-6.3-16.85-5.19-2.18.39-4,1.59-5.87,2.25-4,1.38-6.28,3.31-7.29,5.45A1.78,1.78,0,0,1,2.56,11.71Z" fill="#9d4a00"/></g></g><g id="Componente_5" data-name="Componente 5"><path id="Trazado_359" data-name="Trazado 359" d="M28.12,19.54c.24-.71-.05-1.86.39-2.45s1.58-.74,2.19-1.13c1.05-.68,1.06-2.05,1.2-3.14.57-4.4-1.17-8.43-8.42-11.31C19.72,0,11.72-1.58,4.63,3.2.4,6.05-.42,9.11.17,12.73c.23,1.37,1.56,4.15,3.24,4.73.82.28,1.43.05,2.21.63A4.8,4.8,0,0,1,7,19.74c.9,1.62,2,1.87,3.91,1.79,1.06-.05,1.53-.18,2.39.45a3.7,3.7,0,0,0,2.13.87C17.22,23,18,20.67,20,22c.71.47,1.36,1,2.25.6s.61-1.37,1.33-1.87C25,19.67,27.27,22.06,28.12,19.54ZM11.15,8c5.46-4.11,9.36.73,9.34,1.94C20.44,14.66,5.72,12.12,11.15,8Z" fill="#45322e"/></g></g><g id="Componente_2" data-name="Componente 2"><g id="Grupo_536" data-name="Grupo 536"><path id="Trazado_1784" data-name="Trazado 1784" d="M10.84,3.6a1.94,1.94,0,0,0,2.36.13,1.6,1.6,0,0,0-.08-2.65c-.88-.38-1.21.32-1.09.75s-.38.69-.73.74S10.34,3.08,10.84,3.6Z" fill="url(#Degradado_sin_nombre_34)"/><path id="Trazado_1785" data-name="Trazado 1785" d="M12,1.83c.13.43-.38.69-.73.74s-.76.36-.63.76a1.77,1.77,0,0,0,2.26-.42,1.8,1.8,0,0,0,.25-1.8l-.06,0C12.24.7,11.91,1.4,12,1.83Z" fill="url(#Degradado_sin_nombre_35)"/><path id="Trazado_1786" data-name="Trazado 1786" d="M12,2.42A.41.41,0,0,0,12,2a.64.64,0,0,1-.42.43A.35.35,0,0,0,12,2.42Z" fill="#bd896e"/></g><g id="Grupo_537" data-name="Grupo 537"><path id="Trazado_1787" data-name="Trazado 1787" d="M26.53,15.72a1.94,1.94,0,0,0,2.27-.65,1.63,1.63,0,0,0-1-2.46c-1-.07-1,.69-.75,1.06s-.11.77-.42.93S25.87,15.39,26.53,15.72Z" fill="url(#Degradado_sin_nombre_34-2)"/><path id="Trazado_1788" data-name="Trazado 1788" d="M27,13.67c.27.36-.11.77-.42.93s-.58.58-.31.92a1.73,1.73,0,0,0,2-1.14,1.8,1.8,0,0,0-.43-1.76h-.06C26.8,12.54,26.74,13.3,27,13.67Z" fill="url(#Degradado_sin_nombre_35-2)"/><path id="Trazado_1789" data-name="Trazado 1789" d="M27.15,14.25a.42.42,0,0,0,0-.39.63.63,0,0,1-.24.54A.35.35,0,0,0,27.15,14.25Z" fill="#bd896e"/></g><g id="Grupo_538" data-name="Grupo 538"><path id="Trazado_1790" data-name="Trazado 1790" d="M22.83,18.9a1.86,1.86,0,0,0-1.74-1.53c-1.14-.08-2.17,1.24-1.72,2.11a.73.73,0,0,0,1.35.07c.19-.4.76-.3,1.06-.13S22.86,19.6,22.83,18.9Z" fill="url(#Degradado_sin_nombre_34-3)"/><path id="Trazado_1791" data-name="Trazado 1791" d="M20.72,19.55c.19-.41.76-.3,1.06-.13s.82.17,1-.21a1.74,1.74,0,0,0-2-1,1.92,1.92,0,0,0-1.39,1.24s0,0,0,.06A.73.73,0,0,0,20.72,19.55Z" fill="url(#Degradado_sin_nombre_35-3)"/><path id="Trazado_1792" data-name="Trazado 1792" d="M21.18,19.15a.43.43,0,0,0-.33.23.7.7,0,0,1,.61-.08A.3.3,0,0,0,21.18,19.15Z" fill="#bd896e"/></g><g id="Grupo_539" data-name="Grupo 539"><path id="Trazado_1793" data-name="Trazado 1793" d="M26.76,8.05a1.75,1.75,0,0,0,.95,2.06c1,.5,2.5-.31,2.46-1.28A.71.71,0,0,0,29,8.25c-.35.3-.83,0-1-.28S27,7.39,26.76,8.05Z" fill="url(#Degradado_sin_nombre_34-4)"/><path id="Trazado_1794" data-name="Trazado 1794" d="M29,8.25c-.34.3-.82,0-1-.28a.75.75,0,0,0-1-.18A1.65,1.65,0,0,0,28.36,9.5a2,2,0,0,0,1.8-.61.13.13,0,0,0,0-.06A.72.72,0,0,0,29,8.25Z" fill="url(#Degradado_sin_nombre_35-4)"/><path id="Trazado_1795" data-name="Trazado 1795" d="M28.37,8.45a.47.47,0,0,0,.4-.09.73.73,0,0,1-.6-.16A.32.32,0,0,0,28.37,8.45Z" fill="#bd896e"/></g><g id="Grupo_540" data-name="Grupo 540"><path id="Trazado_1796" data-name="Trazado 1796" d="M2.41,12.41a2,2,0,0,0,2.37.13,1.6,1.6,0,0,0-.09-2.65c-.88-.38-1.21.32-1.08.75s-.39.69-.74.74S1.91,11.89,2.41,12.41Z" fill="url(#Degradado_sin_nombre_34-5)"/><path id="Trazado_1797" data-name="Trazado 1797" d="M3.61,10.64c.12.43-.39.69-.74.74s-.75.36-.63.76a1.79,1.79,0,0,0,2.27-.42,1.8,1.8,0,0,0,.24-1.8l-.06,0C3.81,9.51,3.48,10.21,3.61,10.64Z" fill="url(#Degradado_sin_nombre_35-5)"/><path id="Trazado_1798" data-name="Trazado 1798" d="M3.52,11.23a.39.39,0,0,0,.09-.38.64.64,0,0,1-.42.43A.35.35,0,0,0,3.52,11.23Z" fill="#bd896e"/></g><g id="Grupo_541" data-name="Grupo 541"><path id="Trazado_1799" data-name="Trazado 1799" d="M6.7,2.75A1.62,1.62,0,0,0,5.56,4.48,1.61,1.61,0,0,0,7.83,5.57c.7-.5.25-1.05-.16-1.15s-.41-.59-.3-.88A.57.57,0,0,0,6.7,2.75Z" fill="url(#Degradado_sin_nombre_34-6)"/><path id="Trazado_1800" data-name="Trazado 1800" d="M7.67,4.42c-.41-.09-.41-.59-.3-.88A.6.6,0,0,0,7,2.74a1.44,1.44,0,0,0-.62,1.89,1.79,1.79,0,0,0,1.4,1l0,0C8.53,5.07,8.09,4.52,7.67,4.42Z" fill="url(#Degradado_sin_nombre_35-6)"/><path id="Trazado_1801" data-name="Trazado 1801" d="M7.22,4.1a.37.37,0,0,0,.27.24.57.57,0,0,1-.18-.51A.26.26,0,0,0,7.22,4.1Z" fill="#bd896e"/></g><g id="Grupo_542" data-name="Grupo 542"><path id="Trazado_1802" data-name="Trazado 1802" d="M11.86,18.16a1.91,1.91,0,0,0-1.39-2c-1.16-.37-2.59.74-2.36,1.76a.76.76,0,0,0,1.37.41c.32-.37.88-.13,1.15.13S11.7,18.9,11.86,18.16Z" fill="url(#Degradado_sin_nombre_34-7)"/><path id="Trazado_1803" data-name="Trazado 1803" d="M9.48,18.31c.32-.37.88-.13,1.15.13s.8.39,1.09,0a1.8,1.8,0,0,0-1.83-1.57,2.13,2.13,0,0,0-1.79.95.13.13,0,0,0,0,.06A.76.76,0,0,0,9.48,18.31Z" fill="url(#Degradado_sin_nombre_35-7)"/><path id="Trazado_1804" data-name="Trazado 1804" d="M10.07,18a.48.48,0,0,0-.4.17.77.77,0,0,1,.66.06A.34.34,0,0,0,10.07,18Z" fill="#bd896e"/></g><g id="Grupo_543" data-name="Grupo 543"><path id="Trazado_1805" data-name="Trazado 1805" d="M21.28,4.14a1.06,1.06,0,0,0-1-.86c-.65,0-1.23.73-1,1.23a.41.41,0,0,0,.77,0c.11-.24.44-.18.61-.09S21.31,4.55,21.28,4.14Z" fill="url(#Degradado_sin_nombre_34-8)"/><path id="Trazado_1806" data-name="Trazado 1806" d="M20.07,4.54c.11-.24.44-.18.61-.09s.48.1.58-.13a1,1,0,0,0-1.19-.57,1.1,1.1,0,0,0-.78.73v0A.41.41,0,0,0,20.07,4.54Z" fill="url(#Degradado_sin_nombre_35-8)"/><path id="Trazado_1807" data-name="Trazado 1807" d="M20.33,4.3a.24.24,0,0,0-.18.14.39.39,0,0,1,.35-.05A.19.19,0,0,0,20.33,4.3Z" fill="#bd896e"/></g><g id="Grupo_544" data-name="Grupo 544"><path id="Trazado_1808" data-name="Trazado 1808" d="M1.62,8.16a1.44,1.44,0,0,0,1.72.1,1.18,1.18,0,0,0,0-1.94c-.64-.27-.89.24-.8.55s-.28.5-.53.54S1.26,7.78,1.62,8.16Z" fill="url(#Degradado_sin_nombre_34-9)"/><path id="Trazado_1809" data-name="Trazado 1809" d="M2.49,6.87c.09.31-.28.5-.53.54s-.55.26-.46.55A1.28,1.28,0,0,0,3.32,6.34l0,0C2.65,6.05,2.4,6.56,2.49,6.87Z" fill="url(#Degradado_sin_nombre_35-9)"/><path id="Trazado_1810" data-name="Trazado 1810" d="M2.43,7.3A.29.29,0,0,0,2.5,7a.49.49,0,0,1-.31.32A.26.26,0,0,0,2.43,7.3Z" fill="#bd896e"/></g><g id="Grupo_545" data-name="Grupo 545"><path id="Trazado_1808-2" data-name="Trazado 1808-2" d="M13.8,20.09a1.59,1.59,0,0,0,1.9.11,1.29,1.29,0,0,0-.07-2.13c-.7-.31-1,.26-.87.6s-.31.55-.59.59S13.4,19.67,13.8,20.09Z" fill="url(#Degradado_sin_nombre_34-10)"/><path id="Trazado_1809-2" data-name="Trazado 1809-2" d="M14.76,18.67c.1.34-.31.55-.59.59s-.6.29-.5.61a1.41,1.41,0,0,0,2-1.78l0,0C14.93,17.76,14.66,18.33,14.76,18.67Z" fill="url(#Degradado_sin_nombre_35-10)"/><path id="Trazado_1810-2" data-name="Trazado 1810-2" d="M14.69,19.14a.31.31,0,0,0,.08-.3.54.54,0,0,1-.34.35A.27.27,0,0,0,14.69,19.14Z" fill="#bd896e"/></g><g id="Grupo_546" data-name="Grupo 546"><path id="Trazado_1808-3" data-name="Trazado 1808-3" d="M7.53,14.71a1.17,1.17,0,0,0,1.16-.9,1.08,1.08,0,0,0-1.25-1.2c-.58.19-.41.65-.16.79s.14.48,0,.65S7.06,14.68,7.53,14.71Z" fill="url(#Degradado_sin_nombre_34-11)"/><path id="Trazado_1809-3" data-name="Trazado 1809-3" d="M7.28,13.4c.25.15.14.48,0,.65a.42.42,0,0,0,.06.61c.57-.22.88-.48.86-1.13a1.21,1.21,0,0,0-.71-.93h0C6.86,12.8,7,13.26,7.28,13.4Z" fill="url(#Degradado_sin_nombre_35-11)"/><path id="Trazado_1810-3" data-name="Trazado 1810-3" d="M7.51,13.71a.23.23,0,0,0-.13-.21.4.4,0,0,1,0,.37A.21.21,0,0,0,7.51,13.71Z" fill="#bd896e"/></g><g id="Grupo_547" data-name="Grupo 547"><path id="Trazado_1790-2" data-name="Trazado 1790-2" d="M14.77,3.8a1.85,1.85,0,0,0,1.8,1.46c1.13,0,2.11-1.3,1.63-2.15a.72.72,0,0,0-1.34,0c-.18.41-.75.33-1.06.16S14.71,3.1,14.77,3.8Z" fill="url(#Degradado_sin_nombre_34-12)"/><path id="Trazado_1791-2" data-name="Trazado 1791-2" d="M16.86,3.08c-.18.41-.75.33-1.06.16s-.83-.14-1,.25a1.74,1.74,0,0,0,2.07,1,1.93,1.93,0,0,0,1.35-1.29l0-.05A.72.72,0,0,0,16.86,3.08Z" fill="url(#Degradado_sin_nombre_35-12)"/><path id="Trazado_1792-2" data-name="Trazado 1792-2" d="M16.41,3.5a.42.42,0,0,0,.32-.25.77.77,0,0,1-.61.11A.34.34,0,0,0,16.41,3.5Z" fill="#bd896e"/></g><g id="Grupo_548" data-name="Grupo 548"><path id="Trazado_1802-2" data-name="Trazado 1802-2" d="M22.21,5.28a1.94,1.94,0,0,0,1.46,2c1.17.33,2.57-.83,2.3-1.84a.77.77,0,0,0-1.39-.36c-.3.38-.87.15-1.15-.1S22.34,4.53,22.21,5.28Z" fill="url(#Degradado_sin_nombre_34-13)"/><path id="Trazado_1803-2" data-name="Trazado 1803-2" d="M24.58,5.05c-.3.38-.87.15-1.15-.1s-.82-.35-1.09,0a1.81,1.81,0,0,0,1.89,1.51,2.12,2.12,0,0,0,1.75-1,.13.13,0,0,0,0-.06A.77.77,0,0,0,24.58,5.05Z" fill="url(#Degradado_sin_nombre_35-13)"/><path id="Trazado_1804-2" data-name="Trazado 1804-2" d="M24,5.37a.46.46,0,0,0,.4-.18.79.79,0,0,1-.67,0A.38.38,0,0,0,24,5.37Z" fill="#bd896e"/></g><g id="Grupo_549" data-name="Grupo 549"><path id="Trazado_1808-4" data-name="Trazado 1808-4" d="M24.7,10.8a1.58,1.58,0,0,0-1.9-.05,1.3,1.3,0,0,0,.14,2.13c.72.28,1-.29.85-.63s.29-.57.57-.61S25.11,11.2,24.7,10.8Z" fill="url(#Degradado_sin_nombre_34-14)"/><path id="Trazado_1809-4" data-name="Trazado 1809-4" d="M23.79,12.25c-.11-.34.29-.57.57-.61s.59-.31.48-.63a1.41,1.41,0,0,0-1.94,1.85.05.05,0,0,1,0,0C23.66,13.16,23.9,12.59,23.79,12.25Z" fill="url(#Degradado_sin_nombre_35-14)"/><path id="Trazado_1810-4" data-name="Trazado 1810-4" d="M23.84,11.77a.35.35,0,0,0-.06.31.55.55,0,0,1,.32-.36A.27.27,0,0,0,23.84,11.77Z" fill="#bd896e"/></g><g id="Grupo_551" data-name="Grupo 551"><path id="Trazado_1805-2" data-name="Trazado 1805-2" d="M22,14a1.06,1.06,0,0,0-1-.86c-.65,0-1.23.73-1,1.22a.41.41,0,0,0,.77,0c.11-.23.44-.18.61-.08S22,14.39,22,14Z" fill="url(#Degradado_sin_nombre_34-15)"/><path id="Trazado_1806-2" data-name="Trazado 1806-2" d="M20.78,14.37c.11-.23.44-.18.61-.08s.48.09.57-.13a1,1,0,0,0-1.18-.58,1.14,1.14,0,0,0-.79.73l0,0A.41.41,0,0,0,20.78,14.37Z" fill="url(#Degradado_sin_nombre_35-15)"/><path id="Trazado_1807-2" data-name="Trazado 1807-2" d="M21,14.14a.22.22,0,0,0-.18.14.43.43,0,0,1,.35-.06A.21.21,0,0,0,21,14.14Z" fill="#bd896e"/><path id="Trazado_1835" data-name="Trazado 1835" d="M14.17,15c.11-.23.44-.18.61-.08s.48.09.57-.13a1,1,0,0,0-1.18-.57,1.1,1.1,0,0,0-.79.73l0,0A.41.41,0,0,0,14.17,15Z" fill="url(#Degradado_sin_nombre_35-16)"/></g><g id="Grupo_617" data-name="Grupo 617"><path id="Trazado_1808-5" data-name="Trazado 1808-5" d="M7.94,7.22a1.56,1.56,0,0,0-1.9,0A1.29,1.29,0,0,0,6.18,9.3c.72.28,1-.29.85-.63s.29-.56.57-.61S8.35,7.62,7.94,7.22Z" fill="url(#Degradado_sin_nombre_34-16)"/><path id="Trazado_1809-5" data-name="Trazado 1809-5" d="M7,8.67c-.11-.34.29-.56.57-.61s.59-.31.48-.63A1.41,1.41,0,0,0,6.14,9.28l0,0C6.9,9.58,7.14,9,7,8.67Z" fill="url(#Degradado_sin_nombre_35-17)"/><path id="Trazado_1810-5" data-name="Trazado 1810-5" d="M7.08,8.2A.3.3,0,0,0,7,8.5a.55.55,0,0,1,.32-.36A.3.3,0,0,0,7.08,8.2Z" fill="#bd896e"/></g><g id="Grupo_618" data-name="Grupo 618"><path id="Trazado_1790-3" data-name="Trazado 1790-3" d="M24.21,18.78A1.85,1.85,0,0,0,26,20.24c1.14.05,2.12-1.3,1.64-2.15a.72.72,0,0,0-1.35,0c-.18.41-.75.33-1.06.16S24.15,18.08,24.21,18.78Z" fill="url(#Degradado_sin_nombre_34-17)"/><path id="Trazado_1791-3" data-name="Trazado 1791-3" d="M26.3,18.06c-.18.41-.75.33-1.06.16s-.83-.14-1,.25a1.74,1.74,0,0,0,2.08,1,1.91,1.91,0,0,0,1.34-1.29s0,0,0-.05A.72.72,0,0,0,26.3,18.06Z" fill="url(#Degradado_sin_nombre_35-18)"/><path id="Trazado_1792-3" data-name="Trazado 1792-3" d="M25.86,18.48a.42.42,0,0,0,.31-.25.73.73,0,0,1-.61.11A.37.37,0,0,0,25.86,18.48Z" fill="#bd896e"/></g></g></g></g></g></svg>