<svg xmlns="http://www.w3.org/2000/svg" viewBox="0 0 32 25"><title>Rosquilla_CChocB_TChoc</title><g id="Capa_2" data-name="Capa 2"><g id="Capa_1-2" data-name="Capa 1"><g id="Grupo_623" data-name="Grupo 623"><g id="Componente_14" data-name="Componente 14"><g id="Grupo_552-2" data-name="Grupo 552-2"><path id="Trazado_357-2" data-name="Trazado 357-2" d="M31.18,7.91c-.65-2.1-10.45-6.3-16.85-5.19-2.18.39-4,1.59-5.87,2.25C-1,8.24-.83,14.51,3,19.53c2.15,2.84,8,5.81,14.58,5.44C36.22,23.92,31.18,7.91,31.18,7.91ZM19.53,14.82H16.59c-.8,0-3.12-.21-3.39-.16-.51.29-.92-.16-1.55-.06-1.07-.45-1.32-1.06-2-2.33-.11-1.13,6.83-4.63,9.83-2.57A18.69,18.69,0,0,1,21.86,11l.1.12c1.12.71-1.05-.79,0,0C24.2,12.77,20.57,15.55,19.53,14.82Z" fill="#b9640f"/><path id="Trazado_358-2" data-name="Trazado 358-2" d="M2.56,11.71c.07.22.15.44.23.66l.59,0c1.64.11,3.27-.13,4.9,0l1.5.09c0-.06,0-.13-.08-.19-.11-1.13,6.69-4.54,9.7-2.48A21.33,21.33,0,0,1,21.86,11l.1.12c.64.41,1.26.86,1.87,1.32.93-.42,1.86-.86,2.82-1.25a30.83,30.83,0,0,1,4.89-1.7,13.75,13.75,0,0,0-.36-1.54c-.65-2.1-10.45-6.3-16.85-5.19-2.18.39-4,1.59-5.87,2.25-4,1.38-6.28,3.31-7.29,5.45A1.78,1.78,0,0,1,2.56,11.71Z" fill="#9d4a00"/></g></g><g id="Componente_3" data-name="Componente 3"><path id="Trazado_1811-2" data-name="Trazado 1811-2" d="M28.12,19.54c.24-.71-.05-1.86.39-2.45s1.58-.74,2.19-1.13c1.05-.68,1.06-2.05,1.2-3.14.57-4.4-1.17-8.43-8.42-11.31C19.72,0,11.72-1.58,4.63,3.2.4,6.05-.42,9.11.17,12.73c.23,1.37,1.56,4.15,3.24,4.73.82.28,1.43.05,2.21.63A4.8,4.8,0,0,1,7,19.74c.9,1.62,2,1.87,3.91,1.79,1.06-.05,1.53-.18,2.39.45a3.7,3.7,0,0,0,2.13.87C17.22,23,18,20.67,20,22c.71.47,1.36,1,2.25.6s.61-1.37,1.33-1.87C25,19.67,27.27,22.06,28.12,19.54ZM11.15,8c5.46-4.11,9.36.73,9.34,1.94C20.44,14.66,5.72,12.12,11.15,8Z" fill="#e2d7cf"/></g><g id="Componente_4-2" data-name="Componente 4-2"><path id="Trazado_1744-2" data-name="Trazado 1744-2" d="M26.62,5.82A1.07,1.07,0,0,0,26,5.69l-1.43,0,0,.72a4.66,4.66,0,0,1,2.28.27A.93.93,0,0,0,26.62,5.82Z" fill="#392723"/><path id="Trazado_1745-2" data-name="Trazado 1745-2" d="M30.53,13.62a1.12,1.12,0,0,0-.6-.13l-1.44,0c0,.24,0,.48,0,.73a4.67,4.67,0,0,1,2.28.26A1,1,0,0,0,30.53,13.62Z" fill="#392723"/><path id="Trazado_1746-2" data-name="Trazado 1746-2" d="M28.46,14.94l-.71-.72c-.78.44-1.56.84-2.35,1.2a1.55,1.55,0,0,1,.7,1.06A15.94,15.94,0,0,1,28.46,14.94Z" fill="#392723"/><path id="Trazado_1747-2" data-name="Trazado 1747-2" d="M6.2,9.27c-.37-.34-.34-.41-.71-.74a20.91,20.91,0,0,1-2.41,1c.53.34.2.51.43,1.07A12.38,12.38,0,0,1,6.2,9.27Z" fill="#392723"/><path id="Trazado_1748-2" data-name="Trazado 1748-2" d="M24.92,12a1.34,1.34,0,0,0-.54-.4L23.2,11l-.94,1a7.38,7.38,0,0,1,2.6.94A1.13,1.13,0,0,0,24.92,12Z" fill="#392723"/><path id="Trazado_1749-2" data-name="Trazado 1749-2" d="M8.29,6.3c-.14.35-.29.7-.44,1L10.57,8a1.42,1.42,0,0,1,.28-.88A12.65,12.65,0,0,1,8.29,6.3Z" fill="#392723"/><path id="Trazado_1750-2" data-name="Trazado 1750-2" d="M14.85,3.37l-2.38-.12a2.79,2.79,0,0,0-.55,1,9.52,9.52,0,0,1,2.77.14A1.65,1.65,0,0,1,14.85,3.37Z" fill="#392723"/><path id="Trazado_1751-2" data-name="Trazado 1751-2" d="M8.64,10.65l1.18,0a1.29,1.29,0,0,1-.18-1.09,2,2,0,0,0,0-1.13l-.83-.19Z" fill="#392723"/><path id="Trazado_1752-2" data-name="Trazado 1752-2" d="M22.9,7.23c-.17-.2-.33-.41-.49-.62L20.47,7c.27.32.55.63.82.94Z" fill="#392723"/><path id="Trazado_1753-2" data-name="Trazado 1753-2" d="M9.77,17.19l-.48-.61L7.35,17c.27.32.55.63.82.94Z" fill="#392723"/><path id="Trazado_1754-2" data-name="Trazado 1754-2" d="M26.73,9.2a.55.55,0,0,0-.17-.55.53.53,0,0,0-.59,0l-.16.13a3.88,3.88,0,0,0-.94,1.72,1.82,1.82,0,0,1,1,.32,1.67,1.67,0,0,1,.4-1A2,2,0,0,0,26.73,9.2Z" fill="#392723"/><path id="Trazado_1755-2" data-name="Trazado 1755-2" d="M15.93,19a.55.55,0,0,0-.17-.55.53.53,0,0,0-.59,0,1.07,1.07,0,0,0-.16.14,3.88,3.88,0,0,0-.94,1.72,1.89,1.89,0,0,1,1,.31,1.72,1.72,0,0,1,.4-1A1.73,1.73,0,0,0,15.93,19Z" fill="#392723"/><path id="Trazado_1756-2" data-name="Trazado 1756-2" d="M8.79,14.82l.89.59,1.22-1.62L10,13.7Z" fill="#392723"/><path id="Trazado_1757-2" data-name="Trazado 1757-2" d="M4.08,11.66a.21.21,0,0,0,.16.11l1.26.48a5.76,5.76,0,0,1,1.29-2,3.25,3.25,0,0,1-1.27-.23L4.18,11.42C4.11,11.49,4.05,11.58,4.08,11.66Z" fill="#392723"/><path id="Trazado_1758-2" data-name="Trazado 1758-2" d="M24.05,19a.31.31,0,0,0,.16.12l1.26.47a5.83,5.83,0,0,1,1.3-2,3.48,3.48,0,0,1-1.28-.22l-1.34,1.37C24.09,18.8,24,18.89,24.05,19Z" fill="#392723"/><path id="Trazado_1759-2" data-name="Trazado 1759-2" d="M22.1,19.47a4.63,4.63,0,0,1,1.33-1.59l-1-.46-1.52,1.35Z" fill="#392723"/><path id="Trazado_1760-2" data-name="Trazado 1760-2" d="M10.41,19.21l1.07.56a12.26,12.26,0,0,1,1.37-1.68.45.45,0,0,0-.39-.25Z" fill="#392723"/><path id="Trazado_1761-2" data-name="Trazado 1761-2" d="M5.16,5.61c-.44.46-.88.93-1.33,1.39l.94.52L6,5.9Z" fill="#392723"/><path id="Trazado_1762-2" data-name="Trazado 1762-2" d="M9.7,3.77a1.59,1.59,0,0,0-.72,0l-1.23.15.27,1a4.67,4.67,0,0,1,2.28-.39A1.31,1.31,0,0,0,9.7,3.77Z" fill="#392723"/><path id="Trazado_1763-2" data-name="Trazado 1763-2" d="M29.26,11.76a1.06,1.06,0,0,0,.29.22.57.57,0,0,0,.52-.05.5.5,0,0,0,.2-.46A8.87,8.87,0,0,1,29.08,10l-1.19.44Z" fill="#392723"/><path id="Trazado_1764-2" data-name="Trazado 1764-2" d="M20.25,17.33a.89.89,0,0,0,.29.22.54.54,0,0,0,.52-.05.47.47,0,0,0,.2-.46,8.8,8.8,0,0,1-1.19-1.47L18.89,16Z" fill="#392723"/><path id="Trazado_1765-2" data-name="Trazado 1765-2" d="M22.6,6.34a.89.89,0,0,0,.29.22.51.51,0,0,0,.52,0,.46.46,0,0,0,.2-.45,8.87,8.87,0,0,1-1.19-1.48L21.24,5Z" fill="#392723"/><path id="Trazado_1766-2" data-name="Trazado 1766-2" d="M13.7,6.9a.85.85,0,0,0,.28.22.51.51,0,0,0,.68-.24.49.49,0,0,0,.05-.27,8.8,8.8,0,0,1-1.19-1.47l-1.19.44Z" fill="#392723"/><path id="Trazado_1767-2" data-name="Trazado 1767-2" d="M23.48,3.23a4.61,4.61,0,0,1-1.81-.18c-.11.28-.21.57-.31.85a8,8,0,0,1,2.33.23A1.32,1.32,0,0,1,23.48,3.23Z" fill="#392723"/><path id="Trazado_1768-2" data-name="Trazado 1768-2" d="M12.93,13.7a2.25,2.25,0,0,1-1.14-1.49l-1.11.39a8,8,0,0,1,1.4,1.84Z" fill="#392723"/><path id="Trazado_1769-2" data-name="Trazado 1769-2" d="M16.91,2.68A2.22,2.22,0,0,1,15.78,1.2l-1.11.38a8.29,8.29,0,0,1,1.4,1.84Z" fill="#392723"/><path id="Trazado_1770-2" data-name="Trazado 1770-2" d="M20.84,20.79a2.24,2.24,0,0,1-1.13-1.49l-1.11.39A8.07,8.07,0,0,1,20,21.53Z" fill="#392723"/><path id="Trazado_1771-2" data-name="Trazado 1771-2" d="M20.25,15.18a.49.49,0,0,0,.33.35.51.51,0,0,0,.49-.09l.67-1.56a4.69,4.69,0,0,0-.92-.06A1.86,1.86,0,0,0,20.25,15,.89.89,0,0,0,20.25,15.18Z" fill="#392723"/><path id="Trazado_1772-2" data-name="Trazado 1772-2" d="M16.13,14.14c0-.1-.16-.13-.27-.15l-.79-.11-1.3,1.48.92.41L16,14.36A.28.28,0,0,0,16.13,14.14Z" fill="#392723"/><path id="Trazado_1773-2" data-name="Trazado 1773-2" d="M4,14.65a6.59,6.59,0,0,1,2,1.22l.81-1A11.83,11.83,0,0,1,4.85,14Z" fill="#392723"/></g></g></g></g></svg>