<svg xmlns="http://www.w3.org/2000/svg" xmlns:xlink="http://www.w3.org/1999/xlink" viewBox="0 0 32 25"><defs><linearGradient id="Degradado_sin_nombre_34" x1="-148.24" y1="-80.23" x2="-148.09" y2="-80.3" gradientTransform="matrix(13.62, 0, 0, -13.85, 2340.37, -956.68)" gradientUnits="userSpaceOnUse"><stop offset="0" stop-color="#f4dfba"/><stop offset="1" stop-color="#f0d19c"/></linearGradient><linearGradient id="Degradado_sin_nombre_35" x1="-173.28" y1="-75.3" x2="-173.09" y2="-75.3" gradientTransform="matrix(11.27, 0, 0, -11.53, 2006.97, -865.32)" gradientUnits="userSpaceOnUse"><stop offset="0" stop-color="#f4dfba"/><stop offset="1" stop-color="#deb878"/></linearGradient><linearGradient id="Degradado_sin_nombre_34-2" x1="-167.72" y1="-69.5" x2="-167.55" y2="-69.56" gradientTransform="matrix(12.21, 0, 0, -14.54, 2206.01, -931.62)" xlink:href="#Degradado_sin_nombre_34"/><linearGradient id="Degradado_sin_nombre_35-2" x1="-202.45" y1="-68" x2="-202.22" y2="-68" gradientTransform="matrix(9.17, 0, 0, -13.06, 1774.39, -873.56)" xlink:href="#Degradado_sin_nombre_35"/><linearGradient id="Degradado_sin_nombre_34-3" x1="-189.12" y1="-57.85" x2="-188.98" y2="-57.93" gradientTransform="matrix(15.1, 0, 0, -11.66, 2587.78, -797.26)" xlink:href="#Degradado_sin_nombre_34"/><linearGradient id="Degradado_sin_nombre_35-3" x1="-212.17" y1="-82.45" x2="-212.03" y2="-82.45" gradientTransform="matrix(14.53, 0, 0, -8.22, 2506.11, -658.49)" xlink:href="#Degradado_sin_nombre_35"/><linearGradient id="Degradado_sin_nombre_34-4" x1="-110.5" y1="-91.7" x2="-110.36" y2="-91.77" gradientTransform="matrix(6.18, 12.13, 12.34, -6.29, 1848.53, 1089.44)" xlink:href="#Degradado_sin_nombre_34"/><linearGradient id="Degradado_sin_nombre_35-4" x1="-126.64" y1="-90.15" x2="-126.46" y2="-90.15" gradientTransform="matrix(5.12, 10.04, 10.27, -5.23, 1615.72, 833.71)" xlink:href="#Degradado_sin_nombre_35"/><linearGradient id="Degradado_sin_nombre_34-5" x1="-146.56" y1="-77.83" x2="-146.41" y2="-77.91" gradientTransform="matrix(13.62, 0, 0, -13.85, 2304.65, -917.24)" xlink:href="#Degradado_sin_nombre_34"/><linearGradient id="Degradado_sin_nombre_35-5" x1="-170.81" y1="-72.64" x2="-170.61" y2="-72.64" gradientTransform="matrix(11.27, 0, 0, -11.53, 1971.18, -825.92)" xlink:href="#Degradado_sin_nombre_35"/><linearGradient id="Degradado_sin_nombre_34-6" x1="-175.83" y1="-69.43" x2="-175.66" y2="-69.5" gradientTransform="matrix(11.21, 0, 0, -13.55, 1977.21, -937.21)" xlink:href="#Degradado_sin_nombre_34"/><linearGradient id="Degradado_sin_nombre_35-6" x1="-187.87" y1="-71.29" x2="-187.63" y2="-71.29" gradientTransform="matrix(8.31, 0, 0, -12.79, 1568.47, -906.91)" xlink:href="#Degradado_sin_nombre_35"/><linearGradient id="Degradado_sin_nombre_34-7" x1="-176.86" y1="-63.09" x2="-176.72" y2="-63.18" gradientTransform="matrix(16.05, 0, 0, -11.66, 2675.42, -802.93)" xlink:href="#Degradado_sin_nombre_34"/><linearGradient id="Degradado_sin_nombre_35-7" x1="-200.92" y1="-84.13" x2="-200.77" y2="-84.13" gradientTransform="matrix(15.37, 0, 0, -8.01, 2577.73, -655.77)" xlink:href="#Degradado_sin_nombre_35"/><linearGradient id="Degradado_sin_nombre_34-8" x1="-207.07" y1="-89.2" x2="-206.94" y2="-89.29" gradientTransform="matrix(8.68, 0, 0, -6.74, 1675.72, -666.69)" xlink:href="#Degradado_sin_nombre_34"/><linearGradient id="Degradado_sin_nombre_35-8" x1="-227.72" y1="-123.96" x2="-227.57" y2="-123.96" gradientTransform="matrix(8.34, 0, 0, -4.78, 1627.86, -587.33)" xlink:href="#Degradado_sin_nombre_35"/><linearGradient id="Degradado_sin_nombre_34-9" x1="-161.04" y1="-87.14" x2="-160.89" y2="-87.22" gradientTransform="matrix(9.91, 0, 0, -10.08, 1775.47, -784.82)" xlink:href="#Degradado_sin_nombre_34"/><linearGradient id="Degradado_sin_nombre_35-9" x1="-184.2" y1="-86.51" x2="-184.01" y2="-86.51" gradientTransform="matrix(8.2, 0, 0, -8.39, 1532.59, -718.27)" xlink:href="#Degradado_sin_nombre_35"/><linearGradient id="Degradado_sin_nombre_34-10" x1="-161.26" y1="-79.88" x2="-161.11" y2="-79.95" gradientTransform="matrix(10.91, 0, 0, -11.1, 1969.2, -772.42)" xlink:href="#Degradado_sin_nombre_34"/><linearGradient id="Degradado_sin_nombre_35-10" x1="-184.46" y1="-77.78" x2="-184.27" y2="-77.78" gradientTransform="matrix(9.03, 0, 0, -9.24, 1701.97, -699.23)" xlink:href="#Degradado_sin_nombre_35"/><linearGradient id="Degradado_sin_nombre_34-11" x1="-185.84" y1="-49.06" x2="-185.69" y2="-49.13" gradientTransform="matrix(6.31, -5.88, -5.98, -6.41, 1048.19, -1442.72)" xlink:href="#Degradado_sin_nombre_34"/><linearGradient id="Degradado_sin_nombre_35-11" x1="-213.83" y1="-40.85" x2="-213.65" y2="-40.85" gradientTransform="matrix(5.23, -4.88, -4.98, -5.34, 935.48, -1258.55)" xlink:href="#Degradado_sin_nombre_35"/><linearGradient id="Degradado_sin_nombre_34-12" x1="-132.35" y1="5.62" x2="-132.21" y2="5.53" gradientTransform="matrix(-15.09, 0.53, 0.41, 11.65, -1687.13, 140.62)" xlink:href="#Degradado_sin_nombre_34"/><linearGradient id="Degradado_sin_nombre_35-12" x1="-153.1" y1="7.5" x2="-152.95" y2="7.5" gradientTransform="matrix(-14.51, 0.51, 0.29, 8.22, -1609.86, -0.66)" xlink:href="#Degradado_sin_nombre_35"/><linearGradient id="Degradado_sin_nombre_34-13" x1="-124.16" y1="0.08" x2="-124.02" y2="-0.01" gradientTransform="matrix(-16.04, 0.56, 0.41, 11.65, -1789.48, 154.42)" xlink:href="#Degradado_sin_nombre_34"/><linearGradient id="Degradado_sin_nombre_35-13" x1="-145.85" y1="7.78" x2="-145.7" y2="7.78" gradientTransform="matrix(-15.35, 0.54, 0.28, 8, -1696.94, 4.01)" xlink:href="#Degradado_sin_nombre_35"/><linearGradient id="Degradado_sin_nombre_34-14" x1="-82.45" y1="-15.9" x2="-82.3" y2="-15.98" gradientTransform="matrix(-10.9, 0.38, 0.39, 11.09, -1066, 132.2)" xlink:href="#Degradado_sin_nombre_34"/><linearGradient id="Degradado_sin_nombre_35-14" x1="-89.24" y1="-0.92" x2="-89.05" y2="-0.92" gradientTransform="matrix(-9.02, 0.32, 0.32, 9.23, -801.33, 49.81)" xlink:href="#Degradado_sin_nombre_35"/><linearGradient id="Degradado_sin_nombre_34-15" x1="-207.34" y1="-84.14" x2="-207.2" y2="-84.22" gradientTransform="matrix(8.68, 0, 0, -6.74, 1678.72, -622.69)" xlink:href="#Degradado_sin_nombre_34"/><linearGradient id="Degradado_sin_nombre_35-15" x1="-227.99" y1="-116.81" x2="-227.84" y2="-116.81" gradientTransform="matrix(8.34, 0, 0, -4.78, 1630.86, -543.33)" xlink:href="#Degradado_sin_nombre_35"/><linearGradient id="Degradado_sin_nombre_35-16" x1="-225.43" y1="-116.32" x2="-225.28" y2="-116.32" gradientTransform="matrix(8.34, 0, 0, -4.78, 1602.86, -540.33)" xlink:href="#Degradado_sin_nombre_35"/><linearGradient id="Degradado_sin_nombre_34-16" x1="-87.38" y1="-14.61" x2="-87.22" y2="-14.69" gradientTransform="matrix(-10.9, 0.38, 0.39, 11.09, -1137, 116.2)" xlink:href="#Degradado_sin_nombre_34"/><linearGradient id="Degradado_sin_nombre_35-17" x1="-95.2" y1="0.63" x2="-95" y2="0.63" gradientTransform="matrix(-9.02, 0.32, 0.32, 9.23, -872.33, 33.81)" xlink:href="#Degradado_sin_nombre_35"/><linearGradient id="Degradado_sin_nombre_34-17" x1="-130.44" y1="1.06" x2="-130.31" y2="0.98" gradientTransform="matrix(-15.09, 0.53, 0.41, 11.65, -1647.13, 207.62)" xlink:href="#Degradado_sin_nombre_34"/><linearGradient id="Degradado_sin_nombre_35-18" x1="-151.12" y1="1.04" x2="-150.97" y2="1.04" gradientTransform="matrix(-14.51, 0.51, 0.29, 8.22, -1569.86, 66.34)" xlink:href="#Degradado_sin_nombre_35"/></defs><title>Rosquilla_CChocB_TMani</title><g id="Capa_2" data-name="Capa 2"><g id="Capa_1-2" data-name="Capa 1"><g id="Grupo_626" data-name="Grupo 626"><g id="Componente_16" data-name="Componente 16"><g id="Grupo_552-4" data-name="Grupo 552-4"><path id="Trazado_357-4" data-name="Trazado 357-4" d="M31.18,7.91c-.65-2.1-10.45-6.3-16.85-5.19-2.18.39-4,1.59-5.87,2.25C-1,8.24-.83,14.51,3,19.53c2.15,2.84,8,5.81,14.58,5.44C36.22,23.92,31.18,7.91,31.18,7.91ZM19.53,14.82H16.59c-.8,0-3.12-.21-3.39-.16-.51.29-.92-.16-1.55-.06-1.07-.45-1.32-1.06-2-2.33-.11-1.13,6.83-4.63,9.83-2.57A18.69,18.69,0,0,1,21.86,11l.1.12c1.12.71-1.05-.79,0,0C24.2,12.77,20.57,15.55,19.53,14.82Z" fill="#b9640f"/><path id="Trazado_358-4" data-name="Trazado 358-4" d="M2.56,11.71c.07.22.15.44.23.66l.59,0c1.64.11,3.27-.13,4.9,0l1.5.09c0-.06,0-.13-.08-.19-.11-1.13,6.69-4.54,9.7-2.48A21.33,21.33,0,0,1,21.86,11l.1.12c.64.41,1.26.86,1.87,1.32.93-.42,1.86-.86,2.82-1.25a30.83,30.83,0,0,1,4.89-1.7,13.75,13.75,0,0,0-.36-1.54c-.65-2.1-10.45-6.3-16.85-5.19-2.18.39-4,1.59-5.87,2.25-4,1.38-6.28,3.31-7.29,5.45A1.78,1.78,0,0,1,2.56,11.71Z" fill="#9d4a00"/></g></g><g id="Componente_5" data-name="Componente 5"><path id="Trazado_1811-4" data-name="Trazado 1811-4" d="M28.12,19.54c.24-.71-.05-1.86.39-2.45s1.58-.74,2.19-1.13c1.05-.68,1.06-2.05,1.2-3.14.57-4.4-1.17-8.43-8.42-11.31C19.72,0,11.72-1.58,4.63,3.2.4,6.05-.42,9.11.17,12.73c.23,1.37,1.56,4.15,3.24,4.73.82.28,1.43.05,2.21.63A4.8,4.8,0,0,1,7,19.74c.9,1.62,2,1.87,3.91,1.79,1.06-.05,1.53-.18,2.39.45a3.7,3.7,0,0,0,2.13.87C17.22,23,18,20.67,20,22c.71.47,1.36,1,2.25.6s.61-1.37,1.33-1.87C25,19.67,27.27,22.06,28.12,19.54ZM11.15,8c5.46-4.11,9.36.73,9.34,1.94C20.44,14.66,5.72,12.12,11.15,8Z" fill="#e2d7cf"/></g><g id="Componente_4-5" data-name="Componente 4-5"><g id="Grupo_536" data-name="Grupo 536"><path id="Trazado_1784" data-name="Trazado 1784" d="M11.31,4.05a2,2,0,0,0,2.37.13,1.6,1.6,0,0,0-.09-2.65c-.88-.38-1.21.32-1.08.75s-.39.69-.74.74S10.81,3.53,11.31,4.05Z" fill="url(#Degradado_sin_nombre_34)"/><path id="Trazado_1785" data-name="Trazado 1785" d="M12.51,2.28c.12.43-.39.69-.74.74s-.75.36-.63.76a1.79,1.79,0,0,0,2.27-.43,1.79,1.79,0,0,0,.24-1.8l-.06,0C12.71,1.15,12.38,1.85,12.51,2.28Z" fill="url(#Degradado_sin_nombre_35)"/><path id="Trazado_1786" data-name="Trazado 1786" d="M12.42,2.87a.39.39,0,0,0,.09-.38.67.67,0,0,1-.42.43A.35.35,0,0,0,12.42,2.87Z" fill="#bd896e"/></g><g id="Grupo_537" data-name="Grupo 537"><path id="Trazado_1787" data-name="Trazado 1787" d="M27,16.17a2,2,0,0,0,2.28-.65,1.64,1.64,0,0,0-1.05-2.47c-1-.06-1,.7-.75,1.06s-.11.78-.42.94S26.35,15.84,27,16.17Z" fill="url(#Degradado_sin_nombre_34-2)"/><path id="Trazado_1788" data-name="Trazado 1788" d="M27.48,14.11c.27.37-.11.78-.42.94s-.58.58-.31.92a1.73,1.73,0,0,0,2-1.14,1.8,1.8,0,0,0-.43-1.77h-.06C27.27,13,27.21,13.75,27.48,14.11Z" fill="url(#Degradado_sin_nombre_35-2)"/><path id="Trazado_1789" data-name="Trazado 1789" d="M27.62,14.69a.4.4,0,0,0-.05-.38.61.61,0,0,1-.24.54A.34.34,0,0,0,27.62,14.69Z" fill="#bd896e"/></g><g id="Grupo_538" data-name="Grupo 538"><path id="Trazado_1790" data-name="Trazado 1790" d="M23.3,19.34a1.85,1.85,0,0,0-1.74-1.52c-1.14-.08-2.17,1.23-1.72,2.1a.73.73,0,0,0,1.35.08c.19-.41.76-.31,1.06-.13S23.34,20.05,23.3,19.34Z" fill="url(#Degradado_sin_nombre_34-3)"/><path id="Trazado_1791" data-name="Trazado 1791" d="M21.19,20c.19-.41.76-.31,1.06-.13s.83.17,1-.22a1.75,1.75,0,0,0-2-1,2,2,0,0,0-1.39,1.25.17.17,0,0,1,0,.05A.73.73,0,0,0,21.19,20Z" fill="url(#Degradado_sin_nombre_35-3)"/><path id="Trazado_1792" data-name="Trazado 1792" d="M21.65,19.59a.42.42,0,0,0-.33.24.71.71,0,0,1,.62-.08A.34.34,0,0,0,21.65,19.59Z" fill="#bd896e"/></g><g id="Grupo_539" data-name="Grupo 539"><path id="Trazado_1793" data-name="Trazado 1793" d="M27.23,8.49a1.74,1.74,0,0,0,.95,2.06c1,.51,2.5-.3,2.46-1.27a.71.71,0,0,0-1.2-.58c-.35.3-.83,0-1-.29S27.49,7.84,27.23,8.49Z" fill="url(#Degradado_sin_nombre_34-4)"/><path id="Trazado_1794" data-name="Trazado 1794" d="M29.44,8.7c-.35.3-.83,0-1-.29a.76.76,0,0,0-1-.18A1.66,1.66,0,0,0,28.84,10a2,2,0,0,0,1.8-.61V9.28A.71.71,0,0,0,29.44,8.7Z" fill="url(#Degradado_sin_nombre_35-4)"/><path id="Trazado_1795" data-name="Trazado 1795" d="M28.85,8.9a.45.45,0,0,0,.4-.1.71.71,0,0,1-.6-.15A.32.32,0,0,0,28.85,8.9Z" fill="#bd896e"/></g><g id="Grupo_540" data-name="Grupo 540"><path id="Trazado_1796" data-name="Trazado 1796" d="M2.88,12.86A2,2,0,0,0,5.25,13a1.6,1.6,0,0,0-.08-2.65c-.88-.38-1.21.32-1.09.75s-.39.69-.74.74S2.38,12.34,2.88,12.86Z" fill="url(#Degradado_sin_nombre_34-5)"/><path id="Trazado_1797" data-name="Trazado 1797" d="M4.08,11.09c.12.43-.39.69-.74.74s-.75.36-.63.76a1.77,1.77,0,0,0,2.51-2.23l0,0C4.29,10,4,10.66,4.08,11.09Z" fill="url(#Degradado_sin_nombre_35-5)"/><path id="Trazado_1798" data-name="Trazado 1798" d="M4,11.67a.4.4,0,0,0,.1-.38.68.68,0,0,1-.42.44A.31.31,0,0,0,4,11.67Z" fill="#bd896e"/></g><g id="Grupo_541" data-name="Grupo 541"><path id="Trazado_1799" data-name="Trazado 1799" d="M7.18,3.2A1.61,1.61,0,0,0,6,4.92,1.62,1.62,0,0,0,8.3,6c.7-.5.26-1.06-.16-1.15s-.41-.59-.3-.88A.57.57,0,0,0,7.18,3.2Z" fill="url(#Degradado_sin_nombre_34-6)"/><path id="Trazado_1800" data-name="Trazado 1800" d="M8.14,4.87c-.41-.1-.41-.59-.3-.88a.6.6,0,0,0-.37-.8,1.44,1.44,0,0,0-.62,1.89,1.79,1.79,0,0,0,1.41,1l0,0C9,5.52,8.56,5,8.14,4.87Z" fill="url(#Degradado_sin_nombre_35-6)"/><path id="Trazado_1801" data-name="Trazado 1801" d="M7.69,4.55A.38.38,0,0,0,8,4.79a.61.61,0,0,1-.18-.51A.28.28,0,0,0,7.69,4.55Z" fill="#bd896e"/></g><g id="Grupo_542" data-name="Grupo 542"><path id="Trazado_1802" data-name="Trazado 1802" d="M12.33,18.6a1.9,1.9,0,0,0-1.39-2c-1.15-.37-2.59.74-2.36,1.76a.77.77,0,0,0,1.38.41c.31-.38.87-.13,1.14.13S12.18,19.34,12.33,18.6Z" fill="url(#Degradado_sin_nombre_34-7)"/><path id="Trazado_1803" data-name="Trazado 1803" d="M10,18.76c.31-.38.87-.13,1.14.13a.81.81,0,0,0,1.1,0,1.84,1.84,0,0,0-1.84-1.58,2.16,2.16,0,0,0-1.79,1,.13.13,0,0,0,0,.06A.77.77,0,0,0,10,18.76Z" fill="url(#Degradado_sin_nombre_35-7)"/><path id="Trazado_1804" data-name="Trazado 1804" d="M10.55,18.45a.49.49,0,0,0-.41.17.76.76,0,0,1,.66.06A.34.34,0,0,0,10.55,18.45Z" fill="#bd896e"/></g><g id="Grupo_543" data-name="Grupo 543"><path id="Trazado_1805" data-name="Trazado 1805" d="M21.75,4.59a1.05,1.05,0,0,0-1-.86c-.66,0-1.23.73-1,1.22a.42.42,0,0,0,.78,0c.1-.23.43-.18.61-.08S21.78,5,21.75,4.59Z" fill="url(#Degradado_sin_nombre_34-8)"/><path id="Trazado_1806" data-name="Trazado 1806" d="M20.55,5c.1-.23.43-.18.61-.08s.47.09.57-.13a1,1,0,0,0-1.18-.58,1.12,1.12,0,0,0-.79.73V5A.42.42,0,0,0,20.55,5Z" fill="url(#Degradado_sin_nombre_35-8)"/><path id="Trazado_1807" data-name="Trazado 1807" d="M20.81,4.75a.22.22,0,0,0-.19.14A.43.43,0,0,1,21,4.83.19.19,0,0,0,20.81,4.75Z" fill="#bd896e"/></g><g id="Grupo_544" data-name="Grupo 544"><path id="Trazado_1808" data-name="Trazado 1808" d="M2.09,8.61a1.44,1.44,0,0,0,1.73.09,1.17,1.17,0,0,0-.06-1.93C3.12,6.5,2.88,7,3,7.32s-.29.5-.54.53S1.73,8.23,2.09,8.61Z" fill="url(#Degradado_sin_nombre_34-9)"/><path id="Trazado_1809" data-name="Trazado 1809" d="M3,7.32c.08.31-.29.5-.54.53s-.55.27-.46.56A1.31,1.31,0,0,0,3.62,8.1,1.29,1.29,0,0,0,3.8,6.79l0,0C3.12,6.5,2.88,7,3,7.32Z" fill="url(#Degradado_sin_nombre_35-9)"/><path id="Trazado_1810" data-name="Trazado 1810" d="M2.9,7.75A.29.29,0,0,0,3,7.47a.53.53,0,0,1-.3.32A.26.26,0,0,0,2.9,7.75Z" fill="#bd896e"/></g><g id="Grupo_545" data-name="Grupo 545"><path id="Trazado_1808-2" data-name="Trazado 1808-2" d="M14.27,20.54a1.58,1.58,0,0,0,1.9.1,1.28,1.28,0,0,0-.06-2.12c-.71-.31-1,.25-.88.6s-.31.55-.59.59S13.88,20.12,14.27,20.54Z" fill="url(#Degradado_sin_nombre_34-10)"/><path id="Trazado_1809-2" data-name="Trazado 1809-2" d="M15.23,19.12c.1.34-.31.55-.59.59s-.6.29-.5.61a1.41,1.41,0,0,0,2-1.78l0,0C15.4,18.21,15.14,18.77,15.23,19.12Z" fill="url(#Degradado_sin_nombre_35-10)"/><path id="Trazado_1810-2" data-name="Trazado 1810-2" d="M15.17,19.59a.35.35,0,0,0,.07-.31.55.55,0,0,1-.33.35A.28.28,0,0,0,15.17,19.59Z" fill="#bd896e"/></g><g id="Grupo_546" data-name="Grupo 546"><path id="Trazado_1808-3" data-name="Trazado 1808-3" d="M8,15.16a1.16,1.16,0,0,0,1.15-.91,1.08,1.08,0,0,0-1.25-1.19c-.58.18-.41.64-.16.79s.14.48,0,.64S7.54,15.12,8,15.16Z" fill="url(#Degradado_sin_nombre_34-11)"/><path id="Trazado_1809-3" data-name="Trazado 1809-3" d="M7.75,13.85c.25.15.14.48,0,.64a.42.42,0,0,0,.06.62c.57-.22.87-.48.85-1.13A1.18,1.18,0,0,0,8,13.05h0C7.33,13.24,7.5,13.7,7.75,13.85Z" fill="url(#Degradado_sin_nombre_35-11)"/><path id="Trazado_1810-3" data-name="Trazado 1810-3" d="M8,14.16a.26.26,0,0,0-.13-.22.42.42,0,0,1,0,.38A.22.22,0,0,0,8,14.16Z" fill="#bd896e"/></g><g id="Grupo_547" data-name="Grupo 547"><path id="Trazado_1790-2" data-name="Trazado 1790-2" d="M15.24,4.25A1.85,1.85,0,0,0,17,5.71c1.14,0,2.12-1.3,1.63-2.15a.72.72,0,0,0-1.34,0c-.18.41-.75.32-1.06.16S15.18,3.55,15.24,4.25Z" fill="url(#Degradado_sin_nombre_34-12)"/><path id="Trazado_1791-2" data-name="Trazado 1791-2" d="M17.33,3.53c-.18.41-.75.32-1.06.16s-.83-.15-1,.25a1.77,1.77,0,0,0,2.08,1A1.93,1.93,0,0,0,18.7,3.61l0,0A.72.72,0,0,0,17.33,3.53Z" fill="url(#Degradado_sin_nombre_35-12)"/><path id="Trazado_1792-2" data-name="Trazado 1792-2" d="M16.89,3.94a.39.39,0,0,0,.31-.24.73.73,0,0,1-.61.1A.32.32,0,0,0,16.89,3.94Z" fill="#bd896e"/></g><g id="Grupo_548" data-name="Grupo 548"><path id="Trazado_1802-2" data-name="Trazado 1802-2" d="M22.68,5.73a1.92,1.92,0,0,0,1.47,2c1.17.33,2.56-.83,2.29-1.83a.77.77,0,0,0-1.39-.37c-.3.39-.87.16-1.14-.09S22.81,5,22.68,5.73Z" fill="url(#Degradado_sin_nombre_34-13)"/><path id="Trazado_1803-2" data-name="Trazado 1803-2" d="M25.05,5.49c-.3.39-.87.16-1.15-.09s-.82-.36-1.09,0A1.82,1.82,0,0,0,24.7,6.93a2.15,2.15,0,0,0,1.76-1s0,0,0-.06A.77.77,0,0,0,25.05,5.49Z" fill="url(#Degradado_sin_nombre_35-13)"/><path id="Trazado_1804-2" data-name="Trazado 1804-2" d="M24.47,5.82a.46.46,0,0,0,.4-.18.77.77,0,0,1-.66,0A.34.34,0,0,0,24.47,5.82Z" fill="#bd896e"/></g><g id="Grupo_549" data-name="Grupo 549"><path id="Trazado_1808-4" data-name="Trazado 1808-4" d="M25.17,11.24a1.59,1.59,0,0,0-1.9,0,1.28,1.28,0,0,0,.15,2.12c.71.28,1-.29.85-.63s.29-.56.57-.61S25.59,11.65,25.17,11.24Z" fill="url(#Degradado_sin_nombre_34-14)"/><path id="Trazado_1809-4" data-name="Trazado 1809-4" d="M24.27,12.69c-.11-.34.29-.56.56-.61s.6-.3.48-.63a1.41,1.41,0,0,0-1.94,1.85l.05,0C24.13,13.6,24.38,13,24.27,12.69Z" fill="url(#Degradado_sin_nombre_35-14)"/><path id="Trazado_1810-4" data-name="Trazado 1810-4" d="M24.32,12.22a.32.32,0,0,0-.07.31.52.52,0,0,1,.33-.36A.27.27,0,0,0,24.32,12.22Z" fill="#bd896e"/></g><g id="Grupo_551" data-name="Grupo 551"><path id="Trazado_1805-2" data-name="Trazado 1805-2" d="M22.46,14.43a1.05,1.05,0,0,0-1-.86c-.66,0-1.24.73-1,1.22a.41.41,0,0,0,.77,0c.11-.23.44-.18.62-.08S22.49,14.83,22.46,14.43Z" fill="url(#Degradado_sin_nombre_34-15)"/><path id="Trazado_1806-2" data-name="Trazado 1806-2" d="M21.25,14.82c.11-.23.44-.18.61-.08s.48.09.58-.13A1,1,0,0,0,21.25,14a1.12,1.12,0,0,0-.78.73v0A.41.41,0,0,0,21.25,14.82Z" fill="url(#Degradado_sin_nombre_35-15)"/><path id="Trazado_1807-2" data-name="Trazado 1807-2" d="M21.51,14.59a.23.23,0,0,0-.18.13.39.39,0,0,1,.35-.05A.18.18,0,0,0,21.51,14.59Z" fill="#bd896e"/><path id="Trazado_1835" data-name="Trazado 1835" d="M14.64,15.49c.11-.23.44-.18.61-.08s.48.09.58-.13a1,1,0,0,0-1.19-.58,1.12,1.12,0,0,0-.78.73v0A.41.41,0,0,0,14.64,15.49Z" fill="url(#Degradado_sin_nombre_35-16)"/></g><g id="Grupo_617" data-name="Grupo 617"><path id="Trazado_1808-5" data-name="Trazado 1808-5" d="M8.41,7.67a1.58,1.58,0,0,0-1.9,0,1.29,1.29,0,0,0,.15,2.13c.71.28,1-.29.84-.63s.29-.57.57-.61S8.83,8.07,8.41,7.67Z" fill="url(#Degradado_sin_nombre_34-16)"/><path id="Trazado_1809-5" data-name="Trazado 1809-5" d="M7.51,9.12c-.12-.34.28-.57.56-.61s.59-.31.48-.63a1.43,1.43,0,0,0-1.8.4,1.45,1.45,0,0,0-.14,1.45l0,0C7.37,10,7.61,9.46,7.51,9.12Z" fill="url(#Degradado_sin_nombre_35-17)"/><path id="Trazado_1810-5" data-name="Trazado 1810-5" d="M7.56,8.64A.32.32,0,0,0,7.49,9a.55.55,0,0,1,.32-.36A.25.25,0,0,0,7.56,8.64Z" fill="#bd896e"/></g><g id="Grupo_618" data-name="Grupo 618"><path id="Trazado_1790-3" data-name="Trazado 1790-3" d="M24.69,19.23a1.83,1.83,0,0,0,1.79,1.46c1.14,0,2.12-1.3,1.64-2.15a.72.72,0,0,0-1.35,0c-.18.41-.75.32-1.06.16S24.62,18.53,24.69,19.23Z" fill="url(#Degradado_sin_nombre_34-17)"/><path id="Trazado_1791-3" data-name="Trazado 1791-3" d="M26.77,18.51c-.18.41-.75.32-1.06.16s-.82-.15-1,.25a1.75,1.75,0,0,0,2.07,1,1.91,1.91,0,0,0,1.34-1.29s0,0,0-.05A.72.72,0,0,0,26.77,18.51Z" fill="url(#Degradado_sin_nombre_35-18)"/><path id="Trazado_1792-3" data-name="Trazado 1792-3" d="M26.33,18.93a.45.45,0,0,0,.32-.25.75.75,0,0,1-.62.1A.36.36,0,0,0,26.33,18.93Z" fill="#bd896e"/></g></g></g></g></g></svg>