<svg xmlns="http://www.w3.org/2000/svg" xmlns:xlink="http://www.w3.org/1999/xlink" viewBox="0 0 32 25"><defs><linearGradient id="Degradado_sin_nombre_34" x1="-148.08" y1="-42.73" x2="-147.93" y2="-42.8" gradientTransform="matrix(13.62, 0, 0, -13.85, 2337.37, -437.39)" gradientUnits="userSpaceOnUse"><stop offset="0" stop-color="#f4dfba"/><stop offset="1" stop-color="#f0d19c"/></linearGradient><linearGradient id="Degradado_sin_nombre_35" x1="-173.08" y1="-37.29" x2="-172.88" y2="-37.29" gradientTransform="matrix(11.27, 0, 0, -11.53, 2003.97, -427.21)" gradientUnits="userSpaceOnUse"><stop offset="0" stop-color="#f4dfba"/><stop offset="1" stop-color="#deb878"/></linearGradient><linearGradient id="Degradado_sin_nombre_34-2" x1="-167.54" y1="-32.11" x2="-167.37" y2="-32.18" gradientTransform="matrix(12.21, 0, 0, -14.54, 2203.01, -388.36)" xlink:href="#Degradado_sin_nombre_34"/><linearGradient id="Degradado_sin_nombre_35-2" x1="-202.2" y1="-30.34" x2="-201.97" y2="-30.34" gradientTransform="matrix(9.17, 0, 0, -13.06, 1771.39, -381.9)" xlink:href="#Degradado_sin_nombre_35"/><linearGradient id="Degradado_sin_nombre_34-3" x1="-188.92" y1="-19.89" x2="-188.79" y2="-19.98" gradientTransform="matrix(15.1, 0, 0, -11.66, 2584.78, -354.46)" xlink:href="#Degradado_sin_nombre_34"/><linearGradient id="Degradado_sin_nombre_35-3" x1="-212.02" y1="-43.21" x2="-211.87" y2="-43.21" gradientTransform="matrix(14.53, 0, 0, -8.22, 2503.11, -335.96)" xlink:href="#Degradado_sin_nombre_35"/><linearGradient id="Degradado_sin_nombre_34-4" x1="-112.9" y1="-55.35" x2="-112.76" y2="-55.42" gradientTransform="matrix(6.18, 12.13, 12.34, -6.29, 1414.01, 1344.28)" xlink:href="#Degradado_sin_nombre_34"/><linearGradient id="Degradado_sin_nombre_35-4" x1="-129.34" y1="-53.62" x2="-129.15" y2="-53.62" gradientTransform="matrix(5.12, 10.04, 10.27, -5.23, 1253.52, 1051.71)" xlink:href="#Degradado_sin_nombre_35"/><linearGradient id="Degradado_sin_nombre_34-5" x1="-146.4" y1="-40.33" x2="-146.25" y2="-40.4" gradientTransform="matrix(13.62, 0, 0, -13.85, 2301.65, -397.98)" xlink:href="#Degradado_sin_nombre_34"/><linearGradient id="Degradado_sin_nombre_35-5" x1="-170.6" y1="-34.63" x2="-170.41" y2="-34.63" gradientTransform="matrix(11.27, 0, 0, -11.53, 1968.18, -387.81)" xlink:href="#Degradado_sin_nombre_35"/><linearGradient id="Degradado_sin_nombre_34-6" x1="-175.62" y1="-31.88" x2="-175.46" y2="-31.95" gradientTransform="matrix(11.21, 0, 0, -13.55, 1974.21, -428.24)" xlink:href="#Degradado_sin_nombre_34"/><linearGradient id="Degradado_sin_nombre_35-6" x1="-187.59" y1="-33.58" x2="-187.36" y2="-33.58" gradientTransform="matrix(8.31, 0, 0, -12.79, 1565.47, -424.82)" xlink:href="#Degradado_sin_nombre_35"/><linearGradient id="Degradado_sin_nombre_34-7" x1="-176.68" y1="-25.13" x2="-176.54" y2="-25.22" gradientTransform="matrix(16.05, 0, 0, -11.66, 2672.42, -360.27)" xlink:href="#Degradado_sin_nombre_34"/><linearGradient id="Degradado_sin_nombre_35-7" x1="-200.77" y1="-44.78" x2="-200.62" y2="-44.78" gradientTransform="matrix(15.37, 0, 0, -8.01, 2574.73, -340.65)" xlink:href="#Degradado_sin_nombre_35"/><linearGradient id="Degradado_sin_nombre_34-8" x1="-206.77" y1="-49.06" x2="-206.64" y2="-49.15" gradientTransform="matrix(8.68, 0, 0, -6.74, 1672.72, -395.93)" xlink:href="#Degradado_sin_nombre_34"/><linearGradient id="Degradado_sin_nombre_35-8" x1="-227.44" y1="-81.66" x2="-227.29" y2="-81.66" gradientTransform="matrix(8.34, 0, 0, -4.78, 1624.86, -385.35)" xlink:href="#Degradado_sin_nombre_35"/><linearGradient id="Degradado_sin_nombre_34-9" x1="-160.81" y1="-48.7" x2="-160.66" y2="-48.77" gradientTransform="matrix(9.91, 0, 0, -10.08, 1772.47, -397.3)" xlink:href="#Degradado_sin_nombre_34"/><linearGradient id="Degradado_sin_nombre_35-9" x1="-183.92" y1="-47.37" x2="-183.73" y2="-47.37" gradientTransform="matrix(8.2, 0, 0, -8.39, 1529.59, -389.89)" xlink:href="#Degradado_sin_nombre_35"/><linearGradient id="Degradado_sin_nombre_34-10" x1="-161.05" y1="-41.74" x2="-160.9" y2="-41.81" gradientTransform="matrix(10.91, 0, 0, -11.1, 1966.2, -349.27)" xlink:href="#Degradado_sin_nombre_34"/><linearGradient id="Degradado_sin_nombre_35-10" x1="-184.2" y1="-39" x2="-184.01" y2="-39" gradientTransform="matrix(9.03, 0, 0, -9.24, 1698.97, -341.12)" xlink:href="#Degradado_sin_nombre_35"/><linearGradient id="Degradado_sin_nombre_34-11" x1="-182.9" y1="-11.32" x2="-182.75" y2="-11.4" gradientTransform="matrix(6.31, -5.88, -5.98, -6.41, 1254.32, -1183.48)" xlink:href="#Degradado_sin_nombre_34"/><linearGradient id="Degradado_sin_nombre_35-11" x1="-210.27" y1="-2.57" x2="-210.08" y2="-2.57" gradientTransform="matrix(5.23, -4.88, -4.98, -5.34, 1106.57, -1036.9)" xlink:href="#Degradado_sin_nombre_35"/><linearGradient id="Degradado_sin_nombre_34-12" x1="-132.54" y1="37.57" x2="-132.41" y2="37.48" gradientTransform="matrix(-15.09, 0.53, 0.41, 11.65, -1704.4, -231.69)" xlink:href="#Degradado_sin_nombre_34"/><linearGradient id="Degradado_sin_nombre_35-12" x1="-153.34" y1="38.22" x2="-153.19" y2="38.22" gradientTransform="matrix(-14.51, 0.51, 0.29, 8.22, -1622.93, -253.02)" xlink:href="#Degradado_sin_nombre_35"/><linearGradient id="Degradado_sin_nombre_34-13" x1="-124.35" y1="32.04" x2="-124.21" y2="31.94" gradientTransform="matrix(-16.04, 0.56, 0.41, 11.65, -1806.75, -217.88)" xlink:href="#Degradado_sin_nombre_34"/><linearGradient id="Degradado_sin_nombre_35-13" x1="-146.08" y1="38.39" x2="-145.93" y2="38.39" gradientTransform="matrix(-15.35, 0.54, 0.28, 8, -1709.75, -240.9)" xlink:href="#Degradado_sin_nombre_35"/><linearGradient id="Degradado_sin_nombre_34-14" x1="-82.77" y1="15.91" x2="-82.62" y2="15.84" gradientTransform="matrix(-10.9, 0.38, 0.39, 11.09, -1082.59, -220.56)" xlink:href="#Degradado_sin_nombre_34"/><linearGradient id="Degradado_sin_nombre_35-14" x1="-89.63" y1="30.26" x2="-89.44" y2="30.26" gradientTransform="matrix(-9.02, 0.32, 0.32, 9.23, -815.65, -238.05)" xlink:href="#Degradado_sin_nombre_35"/><linearGradient id="Degradado_sin_nombre_34-15" x1="-207.04" y1="-43.98" x2="-206.9" y2="-44.07" gradientTransform="matrix(8.68, 0, 0, -6.74, 1675.72, -351.93)" xlink:href="#Degradado_sin_nombre_34"/><linearGradient id="Degradado_sin_nombre_35-15" x1="-227.72" y1="-74.49" x2="-227.57" y2="-74.49" gradientTransform="matrix(8.34, 0, 0, -4.78, 1627.86, -341.35)" xlink:href="#Degradado_sin_nombre_35"/><linearGradient id="Degradado_sin_nombre_35-16" x1="-225.15" y1="-74" x2="-225" y2="-74" gradientTransform="matrix(8.34, 0, 0, -4.78, 1599.86, -338.35)" xlink:href="#Degradado_sin_nombre_35"/><linearGradient id="Degradado_sin_nombre_34-16" x1="-87.7" y1="17.21" x2="-87.55" y2="17.13" gradientTransform="matrix(-10.9, 0.38, 0.39, 11.09, -1153.59, -236.56)" xlink:href="#Degradado_sin_nombre_34"/><linearGradient id="Degradado_sin_nombre_35-17" x1="-95.59" y1="31.81" x2="-95.39" y2="31.81" gradientTransform="matrix(-9.02, 0.32, 0.32, 9.23, -886.65, -254.05)" xlink:href="#Degradado_sin_nombre_35"/><linearGradient id="Degradado_sin_nombre_34-17" x1="-130.64" y1="33" x2="-130.51" y2="32.92" gradientTransform="matrix(-15.09, 0.53, 0.41, 11.65, -1664.4, -164.69)" xlink:href="#Degradado_sin_nombre_34"/><linearGradient id="Degradado_sin_nombre_35-18" x1="-151.36" y1="31.75" x2="-151.21" y2="31.75" gradientTransform="matrix(-14.51, 0.51, 0.29, 8.22, -1582.93, -186.02)" xlink:href="#Degradado_sin_nombre_35"/></defs><title>Rosquilla_CAreq_TMani</title><g id="Capa_2" data-name="Capa 2"><g id="Capa_1-2" data-name="Capa 1"><g id="Grupo_627" data-name="Grupo 627"><g id="Componente_11" data-name="Componente 11"><g id="Grupo_552-4" data-name="Grupo 552-4"><path id="Trazado_357-4" data-name="Trazado 357-4" d="M31.18,8.06C30.53,6,20.73,1.82,14.33,2.92c-2.18.38-4,1.58-5.87,2.22C-1,8.39-.83,14.6,3,19.58c2.15,2.81,8,5.76,14.58,5.39C36.22,23.93,31.18,8.06,31.18,8.06ZM19.53,14.91H16.59c-.8,0-3.12-.21-3.39-.16-.51.29-.92-.16-1.55-.06-1.07-.44-1.32-1-2-2.31-.11-1.12,6.83-4.58,9.83-2.54a17.4,17.4,0,0,1,2.33,1.25.52.52,0,0,1,.1.11c1.12.71-1.05-.78,0,0C24.2,12.87,20.57,15.64,19.53,14.91Z" fill="#b9640f"/><path id="Trazado_358-4" data-name="Trazado 358-4" d="M2.56,11.83c.07.22.15.44.23.65l.59,0c1.64.11,3.27-.13,4.9,0l1.5.1c0-.07,0-.14-.08-.2-.11-1.12,6.69-4.49,9.7-2.46a19.79,19.79,0,0,1,2.46,1.17.52.52,0,0,1,.1.11c.64.41,1.26.86,1.87,1.31.93-.42,1.86-.85,2.82-1.23a29.89,29.89,0,0,1,4.89-1.69,13.58,13.58,0,0,0-.36-1.53C30.53,6,20.73,1.82,14.33,2.92c-2.18.38-4,1.58-5.87,2.22-4,1.38-6.28,3.29-7.29,5.41A1.79,1.79,0,0,1,2.56,11.83Z" fill="#9d4a00"/></g></g><g id="Componente_7" data-name="Componente 7"><path id="Trazado_359-4" data-name="Trazado 359-4" d="M28.12,19.37c.24-.71-.05-1.85.39-2.43s1.58-.73,2.19-1.12c1.05-.68,1.06-2,1.2-3.11.57-4.37-1.17-8.36-8.42-11.22C19.72,0,11.72-1.56,4.63,3.17.4,6-.42,9,.17,12.62.4,14,1.73,16.73,3.41,17.31c.82.28,1.43.05,2.21.62A4.68,4.68,0,0,1,7,19.57c.9,1.6,2,1.85,3.91,1.77,1.06-.05,1.53-.18,2.39.45a3.83,3.83,0,0,0,2.13.86c1.81.09,2.63-2.16,4.58-.87.71.46,1.36,1,2.25.59s.61-1.36,1.33-1.85C25,19.49,27.27,21.86,28.12,19.37ZM11.15,8c5.46-4.08,9.36.72,9.34,1.92C20.44,14.53,5.72,12,11.15,8Z" fill="#804000"/></g><g id="Componente_3-4" data-name="Componente 3-4"><g id="Grupo_536" data-name="Grupo 536"><path id="Trazado_1784" data-name="Trazado 1784" d="M10.6,4A2,2,0,0,0,13,4.14a1.59,1.59,0,0,0-.08-2.63c-.88-.37-1.21.32-1.09.75s-.39.68-.74.73S10.1,3.5,10.6,4Z" fill="url(#Degradado_sin_nombre_34)"/><path id="Trazado_1785" data-name="Trazado 1785" d="M11.8,2.26c.12.42-.39.68-.74.73s-.75.36-.63.76a1.8,1.8,0,0,0,2.27-.43,1.76,1.76,0,0,0,.24-1.78l0,0C12,1.14,11.68,1.83,11.8,2.26Z" fill="url(#Degradado_sin_nombre_35)"/><path id="Trazado_1786" data-name="Trazado 1786" d="M11.71,2.84a.4.4,0,0,0,.1-.38.67.67,0,0,1-.42.43A.33.33,0,0,0,11.71,2.84Z" fill="#bd896e"/></g><g id="Grupo_537" data-name="Grupo 537"><path id="Trazado_1787" data-name="Trazado 1787" d="M26.3,16a2,2,0,0,0,2.27-.64,1.62,1.62,0,0,0-1-2.44c-1-.07-1,.69-.75,1.05s-.12.77-.43.92S25.64,15.7,26.3,16Z" fill="url(#Degradado_sin_nombre_34-2)"/><path id="Trazado_1788" data-name="Trazado 1788" d="M26.78,14c.27.36-.12.77-.43.92s-.57.58-.31.92c1,0,1.58-.18,2-1.13A1.74,1.74,0,0,0,27.58,13h-.06C26.56,12.87,26.51,13.63,26.78,14Z" fill="url(#Degradado_sin_nombre_35-2)"/><path id="Trazado_1789" data-name="Trazado 1789" d="M26.91,14.56a.4.4,0,0,0-.05-.38.62.62,0,0,1-.24.54A.34.34,0,0,0,26.91,14.56Z" fill="#bd896e"/></g><g id="Grupo_538" data-name="Grupo 538"><path id="Trazado_1790" data-name="Trazado 1790" d="M22.59,19.17a1.85,1.85,0,0,0-1.74-1.51c-1.13-.08-2.16,1.23-1.71,2.09a.72.72,0,0,0,1.34.07c.19-.4.76-.3,1.06-.13S22.63,19.87,22.59,19.17Z" fill="url(#Degradado_sin_nombre_34-3)"/><path id="Trazado_1791" data-name="Trazado 1791" d="M20.48,19.82c.19-.4.76-.3,1.06-.13s.83.17,1-.21a1.74,1.74,0,0,0-2-1,1.92,1.92,0,0,0-1.39,1.24l0,.05A.72.72,0,0,0,20.48,19.82Z" fill="url(#Degradado_sin_nombre_35-3)"/><path id="Trazado_1792" data-name="Trazado 1792" d="M20.94,19.42a.45.45,0,0,0-.33.23.79.79,0,0,1,.62-.08A.35.35,0,0,0,20.94,19.42Z" fill="#bd896e"/></g><g id="Grupo_539" data-name="Grupo 539"><path id="Trazado_1793" data-name="Trazado 1793" d="M26.52,8.42a1.73,1.73,0,0,0,.95,2c1,.5,2.5-.31,2.46-1.26a.71.71,0,0,0-1.2-.58c-.35.3-.83,0-1-.28S26.78,7.77,26.52,8.42Z" fill="url(#Degradado_sin_nombre_34-4)"/><path id="Trazado_1794" data-name="Trazado 1794" d="M28.73,8.62c-.35.3-.83,0-1-.28s-.68-.47-1-.18a1.63,1.63,0,0,0,1.43,1.7,2,2,0,0,0,1.8-.61V9.2A.71.71,0,0,0,28.73,8.62Z" fill="url(#Degradado_sin_nombre_35-4)"/><path id="Trazado_1795" data-name="Trazado 1795" d="M28.14,8.82a.48.48,0,0,0,.4-.09.75.75,0,0,1-.6-.16A.32.32,0,0,0,28.14,8.82Z" fill="#bd896e"/></g><g id="Grupo_540" data-name="Grupo 540"><path id="Trazado_1796" data-name="Trazado 1796" d="M2.17,12.74a2,2,0,0,0,2.37.14,1.58,1.58,0,0,0-.08-2.63c-.88-.38-1.21.31-1.09.74s-.39.69-.74.73S1.67,12.23,2.17,12.74Z" fill="url(#Degradado_sin_nombre_34-5)"/><path id="Trazado_1797" data-name="Trazado 1797" d="M3.37,11c.12.42-.39.69-.74.73s-.75.36-.63.76a1.8,1.8,0,0,0,2.27-.43,1.74,1.74,0,0,0,.24-1.78l0,0C3.58,9.87,3.25,10.56,3.37,11Z" fill="url(#Degradado_sin_nombre_35-5)"/><path id="Trazado_1798" data-name="Trazado 1798" d="M3.28,11.57a.38.38,0,0,0,.1-.38.7.7,0,0,1-.42.44A.37.37,0,0,0,3.28,11.57Z" fill="#bd896e"/></g><g id="Grupo_541" data-name="Grupo 541"><path id="Trazado_1799" data-name="Trazado 1799" d="M6.47,3.17A1.59,1.59,0,0,0,5.33,4.88,1.6,1.6,0,0,0,7.59,6c.7-.49.26-1-.15-1.13S7,4.24,7.14,4,7.12,3,6.47,3.17Z" fill="url(#Degradado_sin_nombre_34-6)"/><path id="Trazado_1800" data-name="Trazado 1800" d="M7.44,4.83C7,4.73,7,4.24,7.14,4a.61.61,0,0,0-.37-.8A1.42,1.42,0,0,0,6.14,5,1.79,1.79,0,0,0,7.55,6l0,0C8.29,5.47,7.85,4.92,7.44,4.83Z" fill="url(#Degradado_sin_nombre_35-6)"/><path id="Trazado_1801" data-name="Trazado 1801" d="M7,4.51a.39.39,0,0,0,.28.23.56.56,0,0,1-.19-.5A.28.28,0,0,0,7,4.51Z" fill="#bd896e"/></g><g id="Grupo_542" data-name="Grupo 542"><path id="Trazado_1802" data-name="Trazado 1802" d="M11.63,18.44a1.91,1.91,0,0,0-1.4-2c-1.15-.37-2.59.74-2.36,1.74a.77.77,0,0,0,1.38.41c.31-.37.88-.12,1.14.13S11.47,19.17,11.63,18.44Z" fill="url(#Degradado_sin_nombre_34-7)"/><path id="Trazado_1803" data-name="Trazado 1803" d="M9.25,18.59c.31-.37.88-.12,1.14.13a.81.81,0,0,0,1.1,0,1.82,1.82,0,0,0-1.84-1.56,2.14,2.14,0,0,0-1.79.94s0,0,0,.06A.77.77,0,0,0,9.25,18.59Z" fill="url(#Degradado_sin_nombre_35-7)"/><path id="Trazado_1804" data-name="Trazado 1804" d="M9.84,18.29a.48.48,0,0,0-.41.16.79.79,0,0,1,.67.07A.34.34,0,0,0,9.84,18.29Z" fill="#bd896e"/></g><g id="Grupo_543" data-name="Grupo 543"><path id="Trazado_1805" data-name="Trazado 1805" d="M21.05,4.55a1.07,1.07,0,0,0-1-.85c-.65,0-1.23.72-1,1.21a.42.42,0,0,0,.78,0c.1-.23.43-.18.61-.08S21.07,5,21.05,4.55Z" fill="url(#Degradado_sin_nombre_34-8)"/><path id="Trazado_1806" data-name="Trazado 1806" d="M19.84,4.94c.1-.23.43-.18.61-.08s.47.09.57-.13a1,1,0,0,0-1.18-.57,1.09,1.09,0,0,0-.79.72v0A.42.42,0,0,0,19.84,4.94Z" fill="url(#Degradado_sin_nombre_35-8)"/><path id="Trazado_1807" data-name="Trazado 1807" d="M20.1,4.71a.24.24,0,0,0-.19.13.42.42,0,0,1,.36,0A.19.19,0,0,0,20.1,4.71Z" fill="#bd896e"/></g><g id="Grupo_544" data-name="Grupo 544"><path id="Trazado_1808" data-name="Trazado 1808" d="M1.39,8.53a1.44,1.44,0,0,0,1.72.1,1.16,1.16,0,0,0-.06-1.92c-.64-.27-.88.23-.79.54s-.29.5-.54.53S1,8.15,1.39,8.53Z" fill="url(#Degradado_sin_nombre_34-9)"/><path id="Trazado_1809" data-name="Trazado 1809" d="M2.26,7.25c.09.31-.29.5-.54.53s-.55.26-.46.56A1.31,1.31,0,0,0,2.91,8a1.27,1.27,0,0,0,.18-1.3l0,0C2.41,6.44,2.17,6.94,2.26,7.25Z" fill="url(#Degradado_sin_nombre_35-9)"/><path id="Trazado_1810" data-name="Trazado 1810" d="M2.19,7.68a.27.27,0,0,0,.07-.28.48.48,0,0,1-.3.32A.26.26,0,0,0,2.19,7.68Z" fill="#bd896e"/></g><g id="Grupo_545" data-name="Grupo 545"><path id="Trazado_1808-2" data-name="Trazado 1808-2" d="M13.57,20.35a1.56,1.56,0,0,0,1.89.11,1.27,1.27,0,0,0-.06-2.11c-.71-.3-1,.26-.88.6s-.31.55-.59.58S13.17,19.94,13.57,20.35Z" fill="url(#Degradado_sin_nombre_34-10)"/><path id="Trazado_1809-2" data-name="Trazado 1809-2" d="M14.53,19c.09.34-.31.55-.59.58s-.61.29-.51.61a1.44,1.44,0,0,0,1.82-.34,1.39,1.39,0,0,0,.19-1.43l0,0C14.69,18.05,14.43,18.61,14.53,19Z" fill="url(#Degradado_sin_nombre_35-10)"/><path id="Trazado_1810-2" data-name="Trazado 1810-2" d="M14.46,19.41a.3.3,0,0,0,.07-.3.52.52,0,0,1-.33.35A.27.27,0,0,0,14.46,19.41Z" fill="#bd896e"/></g><g id="Grupo_546" data-name="Grupo 546"><path id="Trazado_1808-3" data-name="Trazado 1808-3" d="M7.3,15a1.17,1.17,0,0,0,1.15-.9,1.08,1.08,0,0,0-1.24-1.19c-.58.19-.42.64-.17.79s.14.47,0,.64A.39.39,0,0,0,7.3,15Z" fill="url(#Degradado_sin_nombre_34-11)"/><path id="Trazado_1809-3" data-name="Trazado 1809-3" d="M7,13.73c.26.15.14.47,0,.64s-.19.47.06.6c.57-.21.87-.47.85-1.11a1.19,1.19,0,0,0-.71-.93h0C6.63,13.13,6.79,13.58,7,13.73Z" fill="url(#Degradado_sin_nombre_35-11)"/><path id="Trazado_1810-3" data-name="Trazado 1810-3" d="M7.27,14a.26.26,0,0,0-.13-.21.38.38,0,0,1,0,.37A.2.2,0,0,0,7.27,14Z" fill="#bd896e"/></g><g id="Grupo_547" data-name="Grupo 547"><path id="Trazado_1790-2" data-name="Trazado 1790-2" d="M14.53,4.21a1.85,1.85,0,0,0,1.8,1.45c1.14,0,2.12-1.29,1.64-2.14a.73.73,0,0,0-1.35,0c-.18.4-.75.32-1.06.16S14.47,3.51,14.53,4.21Z" fill="url(#Degradado_sin_nombre_34-12)"/><path id="Trazado_1791-2" data-name="Trazado 1791-2" d="M16.62,3.5c-.18.4-.75.32-1.06.16s-.83-.15-1,.24a1.77,1.77,0,0,0,2.08,1A1.91,1.91,0,0,0,18,3.57s0,0,0,0A.73.73,0,0,0,16.62,3.5Z" fill="url(#Degradado_sin_nombre_35-12)"/><path id="Trazado_1792-2" data-name="Trazado 1792-2" d="M16.18,3.91a.45.45,0,0,0,.32-.25.72.72,0,0,1-.62.11A.35.35,0,0,0,16.18,3.91Z" fill="#bd896e"/></g><g id="Grupo_548" data-name="Grupo 548"><path id="Trazado_1802-2" data-name="Trazado 1802-2" d="M22,5.67a1.92,1.92,0,0,0,1.47,2C24.61,8,26,6.8,25.74,5.81a.78.78,0,0,0-1.4-.36c-.29.38-.87.15-1.14-.1S22.1,4.94,22,5.67Z" fill="url(#Degradado_sin_nombre_34-13)"/><path id="Trazado_1803-2" data-name="Trazado 1803-2" d="M24.34,5.45c-.29.38-.87.15-1.14-.1a.81.81,0,0,0-1.1,0A1.83,1.83,0,0,0,24,6.87a2.17,2.17,0,0,0,1.76-1s0,0,0-.06A.77.77,0,0,0,24.34,5.45Z" fill="url(#Degradado_sin_nombre_35-13)"/><path id="Trazado_1804-2" data-name="Trazado 1804-2" d="M23.77,5.77a.52.52,0,0,0,.4-.18.79.79,0,0,1-.67,0A.36.36,0,0,0,23.77,5.77Z" fill="#bd896e"/></g><g id="Grupo_549" data-name="Grupo 549"><path id="Trazado_1808-4" data-name="Trazado 1808-4" d="M24.46,11.14a1.59,1.59,0,0,0-1.9,0,1.28,1.28,0,0,0,.15,2.11c.71.27,1-.29.85-.63s.29-.56.57-.6S24.88,11.55,24.46,11.14Z" fill="url(#Degradado_sin_nombre_34-14)"/><path id="Trazado_1809-4" data-name="Trazado 1809-4" d="M23.56,12.58c-.11-.34.29-.56.57-.6s.59-.31.48-.63a1.46,1.46,0,0,0-1.81.4,1.41,1.41,0,0,0-.13,1.44l0,0C23.42,13.48,23.67,12.92,23.56,12.58Z" fill="url(#Degradado_sin_nombre_35-14)"/><path id="Trazado_1810-4" data-name="Trazado 1810-4" d="M23.61,12.11a.32.32,0,0,0-.07.31.56.56,0,0,1,.33-.36A.27.27,0,0,0,23.61,12.11Z" fill="#bd896e"/></g><g id="Grupo_551" data-name="Grupo 551"><path id="Trazado_1805-2" data-name="Trazado 1805-2" d="M21.75,14.3a1.05,1.05,0,0,0-1-.85c-.66,0-1.23.72-1,1.21a.42.42,0,0,0,.78,0c.1-.23.43-.18.61-.08S21.78,14.7,21.75,14.3Z" fill="url(#Degradado_sin_nombre_34-15)"/><path id="Trazado_1806-2" data-name="Trazado 1806-2" d="M20.55,14.69c.1-.23.43-.18.61-.08s.47.09.57-.13a1,1,0,0,0-1.18-.57,1.09,1.09,0,0,0-.79.72v0A.42.42,0,0,0,20.55,14.69Z" fill="url(#Degradado_sin_nombre_35-15)"/><path id="Trazado_1807-2" data-name="Trazado 1807-2" d="M20.81,14.46a.23.23,0,0,0-.19.13.39.39,0,0,1,.35-.05A.17.17,0,0,0,20.81,14.46Z" fill="#bd896e"/><path id="Trazado_1835" data-name="Trazado 1835" d="M13.94,15.35c.1-.23.43-.17.61-.08s.47.09.57-.13a1,1,0,0,0-1.18-.57,1.1,1.1,0,0,0-.79.73v0A.42.42,0,0,0,13.94,15.35Z" fill="url(#Degradado_sin_nombre_35-16)"/></g><g id="Grupo_617" data-name="Grupo 617"><path id="Trazado_1808-5" data-name="Trazado 1808-5" d="M7.7,7.6a1.59,1.59,0,0,0-1.9,0A1.26,1.26,0,0,0,6,9.66c.71.28,1-.29.85-.62s.29-.56.57-.61S8.12,8,7.7,7.6Z" fill="url(#Degradado_sin_nombre_34-16)"/><path id="Trazado_1809-5" data-name="Trazado 1809-5" d="M6.8,9c-.11-.34.29-.56.56-.61s.6-.3.48-.62a1.43,1.43,0,0,0-1.8.4A1.41,1.41,0,0,0,5.9,9.64l0,0C6.66,9.94,6.91,9.37,6.8,9Z" fill="url(#Degradado_sin_nombre_35-17)"/><path id="Trazado_1810-5" data-name="Trazado 1810-5" d="M6.85,8.57a.3.3,0,0,0-.07.3.54.54,0,0,1,.33-.36A.3.3,0,0,0,6.85,8.57Z" fill="#bd896e"/></g><g id="Grupo_618" data-name="Grupo 618"><path id="Trazado_1790-3" data-name="Trazado 1790-3" d="M24,19.06a1.86,1.86,0,0,0,1.79,1.45c1.14,0,2.12-1.29,1.64-2.14a.73.73,0,0,0-1.35,0c-.17.41-.75.33-1.06.16S23.92,18.36,24,19.06Z" fill="url(#Degradado_sin_nombre_34-17)"/><path id="Trazado_1791-3" data-name="Trazado 1791-3" d="M26.06,18.34c-.17.41-.75.33-1,.16s-.83-.14-1,.25a1.75,1.75,0,0,0,2.07.95,1.86,1.86,0,0,0,1.34-1.28.17.17,0,0,0,0-.05A.73.73,0,0,0,26.06,18.34Z" fill="url(#Degradado_sin_nombre_35-18)"/><path id="Trazado_1792-3" data-name="Trazado 1792-3" d="M25.62,18.76a.45.45,0,0,0,.32-.25.74.74,0,0,1-.61.11A.34.34,0,0,0,25.62,18.76Z" fill="#bd896e"/></g></g></g></g></g></svg>