<svg xmlns="http://www.w3.org/2000/svg" viewBox="0 0 32 25"><title>Rosquilla_CChoc_TColores</title><g id="Capa_2" data-name="Capa 2"><g id="Capa_1-2" data-name="Capa 1"><g id="Grupo_632" data-name="Grupo 632"><g id="Grupo_612" data-name="Grupo 612"><g id="Componente_3" data-name="Componente 3"><g id="Grupo_552" data-name="Grupo 552"><path id="Trazado_357" data-name="Trazado 357" d="M31.18,7.91c-.65-2.1-10.45-6.3-16.85-5.19-2.18.39-4,1.59-5.87,2.25C-1,8.24-.83,14.51,3,19.53c2.15,2.84,8,5.81,14.58,5.44C36.22,23.92,31.18,7.91,31.18,7.91ZM19.53,14.82H16.59c-.8,0-3.12-.21-3.39-.16-.51.29-.92-.16-1.55-.06-1.07-.45-1.32-1.06-2-2.33-.11-1.13,6.83-4.63,9.83-2.57A18.69,18.69,0,0,1,21.86,11l.1.12c1.12.71-1.05-.79,0,0C24.2,12.77,20.57,15.55,19.53,14.82Z" fill="#b9640f"/><path id="Trazado_358" data-name="Trazado 358" d="M2.56,11.71c.07.22.15.44.23.66l.59,0c1.64.11,3.27-.13,4.9,0l1.5.09c0-.06,0-.13-.08-.19-.11-1.13,6.69-4.54,9.7-2.48A21.33,21.33,0,0,1,21.86,11l.1.12c.64.41,1.26.86,1.87,1.32.93-.42,1.86-.86,2.82-1.25a30.83,30.83,0,0,1,4.89-1.7,13.75,13.75,0,0,0-.36-1.54c-.65-2.1-10.45-6.3-16.85-5.19-2.18.39-4,1.59-5.87,2.25-4,1.38-6.28,3.31-7.29,5.45A1.78,1.78,0,0,1,2.56,11.71Z" fill="#9d4a00"/></g></g><g id="Componente_2" data-name="Componente 2"><path id="Trazado_359" data-name="Trazado 359" d="M28.12,19.54c.24-.71-.05-1.86.39-2.45s1.58-.74,2.19-1.13c1.05-.68,1.06-2.05,1.2-3.14.57-4.4-1.17-8.43-8.42-11.31C19.72,0,11.72-1.58,4.63,3.2.4,6.05-.42,9.11.17,12.73c.23,1.37,1.56,4.15,3.24,4.73.82.28,1.43.05,2.21.63A4.8,4.8,0,0,1,7,19.74c.9,1.62,2,1.87,3.91,1.79,1.06-.05,1.53-.18,2.39.45a3.7,3.7,0,0,0,2.13.87C17.22,23,18,20.67,20,22c.71.47,1.36,1,2.25.6s.61-1.37,1.33-1.87C25,19.67,27.27,22.06,28.12,19.54ZM11.15,8c5.46-4.11,9.36.73,9.34,1.94C20.44,14.66,5.72,12.12,11.15,8Z" fill="#45322e"/></g></g><g id="Componente_2-2" data-name="Componente 2-2"><path id="Trazado_1744" data-name="Trazado 1744" d="M26.54,5.37a1.18,1.18,0,0,0-.61-.13l-1.44,0c0,.24,0,.48,0,.72a4.66,4.66,0,0,1,2.28.27A1,1,0,0,0,26.54,5.37Z" fill="#cc3131"/><path id="Trazado_1745" data-name="Trazado 1745" d="M30.45,13.18a1,1,0,0,0-.61-.13l-1.43,0c0,.24,0,.48,0,.72a4.62,4.62,0,0,1,2.27.27A.93.93,0,0,0,30.45,13.18Z" fill="#cc3131"/><path id="Trazado_1746" data-name="Trazado 1746" d="M29.17,15.07l-1.11-1a23.77,23.77,0,0,1-2.74.91,3.15,3.15,0,0,1,1.17,1.41A12.33,12.33,0,0,1,29.17,15.07Z" fill="#ead4af"/><path id="Trazado_1747" data-name="Trazado 1747" d="M6.11,8.82,5,7.81a23.93,23.93,0,0,1-2.75.91,3.08,3.08,0,0,1,1.17,1.41A12.33,12.33,0,0,1,6.11,8.82Z" fill="#ead4af"/><path id="Trazado_1748" data-name="Trazado 1748" d="M24.83,11.55a1.23,1.23,0,0,0-.53-.39l-1.18-.58-.94,1.05a7.24,7.24,0,0,1,2.6.93A1.16,1.16,0,0,0,24.83,11.55Z" fill="#fc0"/><path id="Trazado_1749" data-name="Trazado 1749" d="M8.21,5.85,7.77,6.9l2.71.62a1.5,1.5,0,0,1,.29-.88A12,12,0,0,1,8.21,5.85Z" fill="#5cb45f"/><path id="Trazado_1750" data-name="Trazado 1750" d="M14.77,2.92,12.39,2.8a2.64,2.64,0,0,0-.55,1,9.54,9.54,0,0,1,2.77.14A1.65,1.65,0,0,1,14.77,2.92Z" fill="#cc3131"/><path id="Trazado_1751" data-name="Trazado 1751" d="M8.55,10.2l1.18.06a1.31,1.31,0,0,1-.18-1.1A1.86,1.86,0,0,0,9.53,8l-.82-.19Z" fill="#fc0"/><path id="Trazado_1752" data-name="Trazado 1752" d="M22.81,6.78l-.49-.61-1.93.4.82.93Z" fill="#ead4af"/><path id="Trazado_1753" data-name="Trazado 1753" d="M9.69,16.74l-.49-.61-1.93.4.82.93Z" fill="#ead4af"/><path id="Trazado_1754" data-name="Trazado 1754" d="M26.65,8.75a.52.52,0,0,0-.77-.59.5.5,0,0,0-.15.14A3.81,3.81,0,0,0,24.79,10a2,2,0,0,1,1,.32,1.72,1.72,0,0,1,.4-1A1.83,1.83,0,0,0,26.65,8.75Z" fill="#5cb45f"/><path id="Trazado_1755" data-name="Trazado 1755" d="M15.85,18.55a.52.52,0,0,0-.77-.59,1,1,0,0,0-.15.14A3.88,3.88,0,0,0,14,19.82a1.85,1.85,0,0,1,1,.32,1.72,1.72,0,0,1,.4-1A1.73,1.73,0,0,0,15.85,18.55Z" fill="#5cb45f"/><path id="Trazado_1756" data-name="Trazado 1756" d="M8.7,14.38l.9.58,1.22-1.62-.88-.08Z" fill="#cc3131"/><path id="Trazado_1757" data-name="Trazado 1757" d="M4,11.21a.25.25,0,0,0,.16.12l1.26.47a5.66,5.66,0,0,1,1.29-2,3.29,3.29,0,0,1-1.28-.22L4.1,11C4,11,4,11.13,4,11.21Z" fill="#fc0"/><path id="Trazado_1758" data-name="Trazado 1758" d="M24,18.52a.28.28,0,0,0,.16.12l1.26.47a5.83,5.83,0,0,1,1.3-2,3.29,3.29,0,0,1-1.28-.22l-1.34,1.37C24,18.35,23.94,18.44,24,18.52Z" fill="#fc0"/><path id="Trazado_1759" data-name="Trazado 1759" d="M22,19a4.65,4.65,0,0,1,1.34-1.59l-1-.46-1.52,1.35Z" fill="#5cb45f"/><path id="Trazado_1760" data-name="Trazado 1760" d="M10.33,18.77l1.07.55a12.12,12.12,0,0,1,1.37-1.68.47.47,0,0,0-.39-.24Z" fill="#6bc3c3"/><path id="Trazado_1761" data-name="Trazado 1761" d="M5.08,5.16c-.44.47-.89.93-1.33,1.39l.93.52L5.92,5.45Z" fill="#cc3131"/><path id="Trazado_1762" data-name="Trazado 1762" d="M9.61,3.32a1.42,1.42,0,0,0-.71,0l-1.23.14.27,1a4.53,4.53,0,0,1,2.27-.38A1.27,1.27,0,0,0,9.61,3.32Z" fill="#6bc3c3"/><path id="Trazado_1763" data-name="Trazado 1763" d="M29.17,11.31a1.23,1.23,0,0,0,.29.22.56.56,0,0,0,.52,0,.47.47,0,0,0,.2-.46A8.43,8.43,0,0,1,29,9.54L27.81,10Z" fill="#6bc3c3"/><path id="Trazado_1764" data-name="Trazado 1764" d="M20.17,16.89a1.3,1.3,0,0,0,.29.22.56.56,0,0,0,.52-.05.5.5,0,0,0,.2-.46A8.87,8.87,0,0,1,20,15.12l-1.18.44Z" fill="#6bc3c3"/><path id="Trazado_1765" data-name="Trazado 1765" d="M22.52,5.9a1.06,1.06,0,0,0,.29.22.57.57,0,0,0,.52,0,.5.5,0,0,0,.2-.46,8.87,8.87,0,0,1-1.19-1.48l-1.19.44Z" fill="#6bc3c3"/><path id="Trazado_1766" data-name="Trazado 1766" d="M13.61,6.46a1.3,1.3,0,0,0,.29.22.53.53,0,0,0,.68-.24.43.43,0,0,0,0-.27,8.87,8.87,0,0,1-1.19-1.48l-1.18.44Z" fill="#6bc3c3"/><path id="Trazado_1767" data-name="Trazado 1767" d="M23.4,2.78a4.68,4.68,0,0,1-1.82-.18l-.3.85a8.24,8.24,0,0,1,2.32.23A1.37,1.37,0,0,1,23.4,2.78Z" fill="#5cb45f"/><path id="Trazado_1768" data-name="Trazado 1768" d="M12.84,13.26a2.29,2.29,0,0,1-1.13-1.49l-1.11.38A8,8,0,0,1,12,14Z" fill="#ead4af"/><path id="Trazado_1769" data-name="Trazado 1769" d="M16.83,2.24A2.25,2.25,0,0,1,15.69.75l-1.11.39A7.6,7.6,0,0,1,16,3Z" fill="#ead4af"/><path id="Trazado_1770" data-name="Trazado 1770" d="M20.76,20.34a2.25,2.25,0,0,1-1.14-1.49l-1.11.39a8,8,0,0,1,1.4,1.84Z" fill="#ead4af"/><path id="Trazado_1771" data-name="Trazado 1771" d="M20.17,14.73a.5.5,0,0,0,.33.36A.52.52,0,0,0,21,15c.23-.52.45-1.05.68-1.57a4.74,4.74,0,0,0-.92-.06,1.89,1.89,0,0,0-.57,1.13A.88.88,0,0,0,20.17,14.73Z" fill="#cc3131"/><path id="Trazado_1772" data-name="Trazado 1772" d="M16,13.7c0-.11-.15-.14-.26-.16L15,13.43l-1.3,1.48.92.41,1.33-1.41A.25.25,0,0,0,16,13.7Z" fill="#5cb45f"/><path id="Trazado_1773" data-name="Trazado 1773" d="M3.88,14.2a6.62,6.62,0,0,1,2,1.23l.8-1a12.66,12.66,0,0,1-1.92-.86Z" fill="#5cb45f"/></g></g></g></g></svg>