<svg xmlns="http://www.w3.org/2000/svg" viewBox="0 0 32 25"><title>Rosquilla_CAreq_TChoc</title><g id="Capa_2" data-name="Capa 2"><g id="Capa_1-2" data-name="Capa 1"><g id="Grupo_638" data-name="Grupo 638"><g id="Componente_9" data-name="Componente 9"><g id="Grupo_552-2" data-name="Grupo 552-2"><path id="Trazado_357-2" data-name="Trazado 357-2" d="M31.18,8.06C30.53,6,20.73,1.82,14.33,2.92c-2.18.38-4,1.58-5.87,2.22C-1,8.39-.83,14.6,3,19.58c2.15,2.81,8,5.76,14.58,5.39C36.22,23.93,31.18,8.06,31.18,8.06ZM19.53,14.91H16.59c-.8,0-3.12-.21-3.39-.16-.51.29-.92-.16-1.55-.06-1.07-.44-1.32-1-2-2.31-.11-1.12,6.83-4.58,9.83-2.54a17.4,17.4,0,0,1,2.33,1.25.52.52,0,0,1,.1.11c1.12.71-1.05-.78,0,0C24.2,12.87,20.57,15.64,19.53,14.91Z" fill="#b9640f"/><path id="Trazado_358-2" data-name="Trazado 358-2" d="M2.56,11.83c.07.22.15.44.23.65l.59,0c1.64.11,3.27-.13,4.9,0l1.5.1c0-.07,0-.14-.08-.2-.11-1.12,6.69-4.49,9.7-2.46a19.79,19.79,0,0,1,2.46,1.17.52.52,0,0,1,.1.11c.64.41,1.26.86,1.87,1.31.93-.42,1.86-.85,2.82-1.23a29.89,29.89,0,0,1,4.89-1.69,13.58,13.58,0,0,0-.36-1.53C30.53,6,20.73,1.82,14.33,2.92c-2.18.38-4,1.58-5.87,2.22-4,1.38-6.28,3.29-7.29,5.41A1.79,1.79,0,0,1,2.56,11.83Z" fill="#9d4a00"/></g></g><g id="Componente_5" data-name="Componente 5"><path id="Trazado_359-2" data-name="Trazado 359-2" d="M28.12,19.37c.24-.71-.05-1.85.39-2.43s1.58-.73,2.19-1.12c1.05-.68,1.06-2,1.2-3.11.57-4.37-1.17-8.36-8.42-11.22C19.72,0,11.72-1.56,4.63,3.17.4,6-.42,9,.17,12.62.4,14,1.73,16.73,3.41,17.31c.82.28,1.43.05,2.21.62A4.68,4.68,0,0,1,7,19.57c.9,1.6,2,1.85,3.91,1.77,1.06-.05,1.53-.18,2.39.45a3.83,3.83,0,0,0,2.13.86c1.81.09,2.63-2.16,4.58-.87.71.46,1.36,1,2.25.59s.61-1.36,1.33-1.85C25,19.49,27.27,21.86,28.12,19.37ZM11.15,8c5.46-4.08,9.36.72,9.34,1.92C20.44,14.53,5.72,12,11.15,8Z" fill="#804000"/></g><g id="Componente_3-2" data-name="Componente 3-2"><path id="Trazado_1744-2" data-name="Trazado 1744-2" d="M25.91,5.77a1.07,1.07,0,0,0-.61-.13l-1.43,0c0,.24,0,.48,0,.71a4.62,4.62,0,0,1,2.27.27A.92.92,0,0,0,25.91,5.77Z" fill="#392723"/><path id="Trazado_1745-2" data-name="Trazado 1745-2" d="M29.83,13.5a1.18,1.18,0,0,0-.61-.13l-1.44,0c0,.24,0,.48,0,.72a4.77,4.77,0,0,1,2.28.26A1,1,0,0,0,29.83,13.5Z" fill="#392723"/><path id="Trazado_1746-2" data-name="Trazado 1746-2" d="M27.75,14.8,27,14.09c-.77.44-1.56.84-2.34,1.19a1.59,1.59,0,0,1,.69,1A16.71,16.71,0,0,1,27.75,14.8Z" fill="#392723"/><path id="Trazado_1747-2" data-name="Trazado 1747-2" d="M5.49,9.19c-.37-.34-.34-.4-.71-.74a19.2,19.2,0,0,1-2.41,1c.53.35.2.51.43,1.07A12.57,12.57,0,0,1,5.49,9.19Z" fill="#392723"/><path id="Trazado_1748-2" data-name="Trazado 1748-2" d="M24.21,11.89a1.32,1.32,0,0,0-.54-.39l-1.18-.57-.93,1a7.36,7.36,0,0,1,2.59.92A1.11,1.11,0,0,0,24.21,11.89Z" fill="#392723"/><path id="Trazado_1749-2" data-name="Trazado 1749-2" d="M7.59,6.24l-.45,1,2.72.61A1.37,1.37,0,0,1,10.14,7,11.79,11.79,0,0,1,7.59,6.24Z" fill="#392723"/><path id="Trazado_1750-2" data-name="Trazado 1750-2" d="M14.14,3.34l-2.38-.12a2.92,2.92,0,0,0-.55.95A9.52,9.52,0,0,1,14,4.31,1.71,1.71,0,0,1,14.14,3.34Z" fill="#392723"/><path id="Trazado_1751-2" data-name="Trazado 1751-2" d="M7.93,10.55l1.18.06a1.28,1.28,0,0,1-.18-1.08,1.94,1.94,0,0,0,0-1.12l-.82-.19Z" fill="#392723"/><path id="Trazado_1752-2" data-name="Trazado 1752-2" d="M22.19,7.17l-.49-.61L19.76,7l.83.93Z" fill="#392723"/><path id="Trazado_1753-2" data-name="Trazado 1753-2" d="M9.07,17c-.17-.2-.33-.41-.49-.61l-1.94.39.82.93Z" fill="#392723"/><path id="Trazado_1754-2" data-name="Trazado 1754-2" d="M26,9.11a.52.52,0,0,0-.17-.54.53.53,0,0,0-.59,0,.7.7,0,0,0-.16.14,3.82,3.82,0,0,0-.94,1.7,1.89,1.89,0,0,1,1,.31,1.76,1.76,0,0,1,.4-1A1.6,1.6,0,0,0,26,9.11Z" fill="#392723"/><path id="Trazado_1755-2" data-name="Trazado 1755-2" d="M15.22,18.83a.51.51,0,0,0-.17-.54.53.53,0,0,0-.59,0l-.16.13a3.85,3.85,0,0,0-.94,1.71,1.89,1.89,0,0,1,1,.31,1.8,1.8,0,0,1,.4-1A1.69,1.69,0,0,0,15.22,18.83Z" fill="#392723"/><path id="Trazado_1756-2" data-name="Trazado 1756-2" d="M8.08,14.69l.89.58,1.22-1.6-.88-.09Z" fill="#392723"/><path id="Trazado_1757-2" data-name="Trazado 1757-2" d="M3.37,11.55a.25.25,0,0,0,.16.12l1.26.47a5.66,5.66,0,0,1,1.3-2A3.45,3.45,0,0,1,4.81,10L3.47,11.32C3.41,11.39,3.34,11.47,3.37,11.55Z" fill="#392723"/><path id="Trazado_1758-2" data-name="Trazado 1758-2" d="M23.35,18.8a.25.25,0,0,0,.16.12l1.25.47a5.69,5.69,0,0,1,1.3-2,3.21,3.21,0,0,1-1.27-.22l-1.35,1.36C23.38,18.63,23.31,18.72,23.35,18.8Z" fill="#392723"/><path id="Trazado_1759-2" data-name="Trazado 1759-2" d="M21.39,19.29a4.77,4.77,0,0,1,1.33-1.57l-1-.46L20.22,18.6Z" fill="#392723"/><path id="Trazado_1760-2" data-name="Trazado 1760-2" d="M9.7,19l1.07.56a13.76,13.76,0,0,1,1.37-1.68.45.45,0,0,0-.38-.23Z" fill="#392723"/><path id="Trazado_1761-2" data-name="Trazado 1761-2" d="M4.46,5.56,3.12,6.94l.94.52L5.29,5.85Z" fill="#392723"/><path id="Trazado_1762-2" data-name="Trazado 1762-2" d="M9,3.74a1.43,1.43,0,0,0-.71,0l-1.23.15c.09.34.18.68.26,1a4.69,4.69,0,0,1,2.28-.39A1.29,1.29,0,0,0,9,3.74Z" fill="#392723"/><path id="Trazado_1763-2" data-name="Trazado 1763-2" d="M28.55,11.65a1.06,1.06,0,0,0,.29.22.56.56,0,0,0,.52,0,.47.47,0,0,0,.2-.45A8.8,8.8,0,0,1,28.37,9.9l-1.18.44Z" fill="#392723"/><path id="Trazado_1764-2" data-name="Trazado 1764-2" d="M19.54,17.18a1.23,1.23,0,0,0,.29.22.56.56,0,0,0,.52,0,.5.5,0,0,0,.21-.46,7.92,7.92,0,0,1-1.19-1.46l-1.19.43Z" fill="#392723"/><path id="Trazado_1765-2" data-name="Trazado 1765-2" d="M21.89,6.29a1.06,1.06,0,0,0,.29.22.56.56,0,0,0,.52,0A.47.47,0,0,0,22.9,6a8.73,8.73,0,0,1-1.19-1.46L20.53,5Z" fill="#392723"/><path id="Trazado_1766-2" data-name="Trazado 1766-2" d="M13,6.84a1.06,1.06,0,0,0,.29.22A.53.53,0,0,0,14,6.82a.46.46,0,0,0,0-.26,8.8,8.8,0,0,1-1.19-1.47l-1.19.44Z" fill="#392723"/><path id="Trazado_1767-2" data-name="Trazado 1767-2" d="M22.78,3.2A4.66,4.66,0,0,1,21,3c-.1.29-.2.56-.31.84A8.7,8.7,0,0,1,23,4.09,1.34,1.34,0,0,1,22.78,3.2Z" fill="#392723"/><path id="Trazado_1768-2" data-name="Trazado 1768-2" d="M12.22,13.58a2.23,2.23,0,0,1-1.14-1.48L10,12.49a7.9,7.9,0,0,1,1.4,1.82Z" fill="#392723"/><path id="Trazado_1769-2" data-name="Trazado 1769-2" d="M16.21,2.66a2.21,2.21,0,0,1-1.14-1.47L14,1.57a7.9,7.9,0,0,1,1.4,1.82Z" fill="#392723"/><path id="Trazado_1770-2" data-name="Trazado 1770-2" d="M20.13,20.61A2.27,2.27,0,0,1,19,19.13l-1.11.38a8,8,0,0,1,1.4,1.83Z" fill="#392723"/><path id="Trazado_1771-2" data-name="Trazado 1771-2" d="M19.55,15a.47.47,0,0,0,.32.36.57.57,0,0,0,.49-.09c.22-.52.45-1,.67-1.55a3.54,3.54,0,0,0-.92-.06,1.87,1.87,0,0,0-.57,1.12A.55.55,0,0,0,19.55,15Z" fill="#392723"/><path id="Trazado_1772-2" data-name="Trazado 1772-2" d="M15.42,14c0-.1-.16-.14-.27-.15l-.79-.12-1.3,1.47.93.41,1.33-1.4A.28.28,0,0,0,15.42,14Z" fill="#392723"/><path id="Trazado_1773-2" data-name="Trazado 1773-2" d="M3.25,14.52a7,7,0,0,1,2,1.21l.8-1a12.72,12.72,0,0,1-1.92-.85Z" fill="#392723"/></g></g></g></g></svg>