<svg xmlns="http://www.w3.org/2000/svg" viewBox="0 0 32 25"><title>Rosquilla_CAreq_TCoco</title><g id="Capa_2" data-name="Capa 2"><g id="Capa_1-2" data-name="Capa 1"><g id="Grupo_639" data-name="Grupo 639"><g id="Componente_10" data-name="Componente 10"><g id="Grupo_552-3" data-name="Grupo 552-3"><path id="Trazado_357-3" data-name="Trazado 357-3" d="M31.18,8.06C30.53,6,20.73,1.82,14.33,2.92c-2.18.38-4,1.58-5.87,2.22C-1,8.39-.83,14.6,3,19.58c2.15,2.81,8,5.76,14.58,5.39C36.22,23.93,31.18,8.06,31.18,8.06ZM19.53,14.91H16.59c-.8,0-3.12-.21-3.39-.16-.51.29-.92-.16-1.55-.06-1.07-.44-1.32-1-2-2.31-.11-1.12,6.83-4.58,9.83-2.54a17.4,17.4,0,0,1,2.33,1.25.52.52,0,0,1,.1.11c1.12.71-1.05-.78,0,0C24.2,12.87,20.57,15.64,19.53,14.91Z" fill="#b9640f"/><path id="Trazado_358-3" data-name="Trazado 358-3" d="M2.56,11.83c.07.22.15.44.23.65l.59,0c1.64.11,3.27-.13,4.9,0l1.5.1c0-.07,0-.14-.08-.2-.11-1.12,6.69-4.49,9.7-2.46a19.79,19.79,0,0,1,2.46,1.17.52.52,0,0,1,.1.11c.64.41,1.26.86,1.87,1.31.93-.42,1.86-.85,2.82-1.23a29.89,29.89,0,0,1,4.89-1.69,13.58,13.58,0,0,0-.36-1.53C30.53,6,20.73,1.82,14.33,2.92c-2.18.38-4,1.58-5.87,2.22-4,1.38-6.28,3.29-7.29,5.41A1.79,1.79,0,0,1,2.56,11.83Z" fill="#9d4a00"/></g></g><g id="Componente_6" data-name="Componente 6"><path id="Trazado_359-3" data-name="Trazado 359-3" d="M28.12,19.37c.24-.71-.05-1.85.39-2.43s1.58-.73,2.19-1.12c1.05-.68,1.06-2,1.2-3.11.57-4.37-1.17-8.36-8.42-11.22C19.72,0,11.72-1.56,4.63,3.17.4,6-.42,9,.17,12.62.4,14,1.73,16.73,3.41,17.31c.82.28,1.43.05,2.21.62A4.68,4.68,0,0,1,7,19.57c.9,1.6,2,1.85,3.91,1.77,1.06-.05,1.53-.18,2.39.45a3.83,3.83,0,0,0,2.13.86c1.81.09,2.63-2.16,4.58-.87.71.46,1.36,1,2.25.59s.61-1.36,1.33-1.85C25,19.49,27.27,21.86,28.12,19.37ZM11.15,8c5.46-4.08,9.36.72,9.34,1.92C20.44,14.53,5.72,12,11.15,8Z" fill="#804000"/></g><g id="Componente_3-3" data-name="Componente 3-3"><g id="Grupo_530" data-name="Grupo 530"><path id="Trazado_1744-3" data-name="Trazado 1744-3" d="M25.44,5.77a1.09,1.09,0,0,0-.61-.13l-1.43,0,0,.71a4.66,4.66,0,0,1,2.28.27A.92.92,0,0,0,25.44,5.77Z" fill="#edeef4"/><path id="Trazado_1745-3" data-name="Trazado 1745-3" d="M29.35,13.5a1.12,1.12,0,0,0-.6-.13l-1.44,0c0,.24,0,.48,0,.72a4.79,4.79,0,0,1,2.28.26A1,1,0,0,0,29.35,13.5Z" fill="#edeef4"/><path id="Trazado_1746-3" data-name="Trazado 1746-3" d="M27.28,14.8l-.71-.71c-.78.44-1.56.84-2.35,1.19a1.57,1.57,0,0,1,.7,1A16.16,16.16,0,0,1,27.28,14.8Z" fill="#edeef4"/><path id="Trazado_1747-3" data-name="Trazado 1747-3" d="M5,9.19c-.37-.34-.34-.4-.71-.74a19.2,19.2,0,0,1-2.41,1c.52.35.2.51.43,1.07A12.34,12.34,0,0,1,5,9.19Z" fill="#edeef4"/><path id="Trazado_1748-3" data-name="Trazado 1748-3" d="M23.74,11.89a1.32,1.32,0,0,0-.54-.39L22,10.93l-.94,1a7.34,7.34,0,0,1,2.6.92A1.11,1.11,0,0,0,23.74,11.89Z" fill="#edeef4"/><path id="Trazado_1749-3" data-name="Trazado 1749-3" d="M7.11,6.24c-.14.35-.29.7-.44,1l2.72.61A1.37,1.37,0,0,1,9.67,7,12,12,0,0,1,7.11,6.24Z" fill="#edeef4"/><path id="Trazado_1750-3" data-name="Trazado 1750-3" d="M13.67,3.34l-2.38-.12a2.75,2.75,0,0,0-.55.95,9.54,9.54,0,0,1,2.77.14A1.63,1.63,0,0,1,13.67,3.34Z" fill="#edeef4"/><path id="Trazado_1751-3" data-name="Trazado 1751-3" d="M7.46,10.55l1.18.06a1.28,1.28,0,0,1-.18-1.08,1.94,1.94,0,0,0,0-1.12l-.83-.19Z" fill="#edeef4"/><path id="Trazado_1752-3" data-name="Trazado 1752-3" d="M21.72,7.17l-.49-.61L19.29,7l.82.93Z" fill="#edeef4"/><path id="Trazado_1753-3" data-name="Trazado 1753-3" d="M8.59,17c-.16-.2-.32-.41-.49-.61l-1.93.39.82.93Z" fill="#edeef4"/><path id="Trazado_1754-3" data-name="Trazado 1754-3" d="M25.55,9.11a.54.54,0,0,0-.17-.54.53.53,0,0,0-.59,0,.54.54,0,0,0-.16.14,3.82,3.82,0,0,0-.94,1.7,1.89,1.89,0,0,1,1,.31,1.69,1.69,0,0,1,.4-1A1.73,1.73,0,0,0,25.55,9.11Z" fill="#edeef4"/><path id="Trazado_1755-3" data-name="Trazado 1755-3" d="M14.75,18.83a.51.51,0,0,0-.76-.58l-.16.13a3.85,3.85,0,0,0-.94,1.71,1.89,1.89,0,0,1,1,.31,1.67,1.67,0,0,1,.4-1A1.83,1.83,0,0,0,14.75,18.83Z" fill="#edeef4"/><path id="Trazado_1756-3" data-name="Trazado 1756-3" d="M7.61,14.69c.29.2.59.39.89.58l1.22-1.6-.88-.09Z" fill="#edeef4"/><path id="Trazado_1757-3" data-name="Trazado 1757-3" d="M2.9,11.55a.25.25,0,0,0,.16.12l1.26.47a5.77,5.77,0,0,1,1.29-2A3.43,3.43,0,0,1,4.34,10L3,11.32C2.93,11.39,2.86,11.47,2.9,11.55Z" fill="#edeef4"/><path id="Trazado_1758-3" data-name="Trazado 1758-3" d="M22.87,18.8a.31.31,0,0,0,.16.12l1.26.47a5.69,5.69,0,0,1,1.3-2,3.29,3.29,0,0,1-1.28-.22c-.44.46-.89.91-1.34,1.36C22.91,18.63,22.84,18.72,22.87,18.8Z" fill="#edeef4"/><path id="Trazado_1759-3" data-name="Trazado 1759-3" d="M20.92,19.29a4.65,4.65,0,0,1,1.33-1.57l-1-.46L19.75,18.6Z" fill="#edeef4"/><path id="Trazado_1760-3" data-name="Trazado 1760-3" d="M9.23,19l1.07.56a12.89,12.89,0,0,1,1.37-1.68.45.45,0,0,0-.39-.23Z" fill="#edeef4"/><path id="Trazado_1761-3" data-name="Trazado 1761-3" d="M4,5.56,2.65,6.94l.94.52L4.82,5.85Z" fill="#edeef4"/><path id="Trazado_1762-3" data-name="Trazado 1762-3" d="M8.51,3.74a1.42,1.42,0,0,0-.71,0l-1.23.15.27,1a4.65,4.65,0,0,1,2.27-.39A1.22,1.22,0,0,0,8.51,3.74Z" fill="#edeef4"/><path id="Trazado_1763-3" data-name="Trazado 1763-3" d="M28.08,11.65a1.06,1.06,0,0,0,.29.22.57.57,0,0,0,.52,0,.5.5,0,0,0,.2-.45A8.8,8.8,0,0,1,27.9,9.9l-1.19.44Z" fill="#edeef4"/><path id="Trazado_1764-3" data-name="Trazado 1764-3" d="M19.07,17.18a1.06,1.06,0,0,0,.29.22.56.56,0,0,0,.52,0,.47.47,0,0,0,.2-.46,8.35,8.35,0,0,1-1.19-1.46l-1.18.43Z" fill="#edeef4"/><path id="Trazado_1765-3" data-name="Trazado 1765-3" d="M21.42,6.29a1.06,1.06,0,0,0,.29.22.56.56,0,0,0,.52,0,.49.49,0,0,0,.2-.46,8.73,8.73,0,0,1-1.19-1.46L20.06,5Z" fill="#edeef4"/><path id="Trazado_1766-3" data-name="Trazado 1766-3" d="M12.51,6.84a1.23,1.23,0,0,0,.29.22.53.53,0,0,0,.68-.24.47.47,0,0,0,0-.26,8.33,8.33,0,0,1-1.19-1.47l-1.19.44C11.61,6,12.06,6.4,12.51,6.84Z" fill="#edeef4"/><path id="Trazado_1767-3" data-name="Trazado 1767-3" d="M22.3,3.2A4.61,4.61,0,0,1,20.49,3l-.31.84a8.7,8.7,0,0,1,2.33.23A1.29,1.29,0,0,1,22.3,3.2Z" fill="#edeef4"/><path id="Trazado_1768-3" data-name="Trazado 1768-3" d="M11.75,13.58a2.23,2.23,0,0,1-1.14-1.48l-1.11.39a7.9,7.9,0,0,1,1.4,1.82Z" fill="#edeef4"/><path id="Trazado_1769-3" data-name="Trazado 1769-3" d="M15.73,2.66A2.22,2.22,0,0,1,14.6,1.19l-1.11.38a8.49,8.49,0,0,1,1.4,1.82Z" fill="#edeef4"/><path id="Trazado_1770-3" data-name="Trazado 1770-3" d="M19.66,20.61a2.24,2.24,0,0,1-1.13-1.48l-1.11.38a8.24,8.24,0,0,1,1.4,1.83Z" fill="#edeef4"/><path id="Trazado_1771-3" data-name="Trazado 1771-3" d="M19.07,15a.5.5,0,0,0,.33.36.57.57,0,0,0,.49-.09c.22-.52.45-1,.67-1.55a3.54,3.54,0,0,0-.92-.06,1.81,1.81,0,0,0-.57,1.12A.81.81,0,0,0,19.07,15Z" fill="#edeef4"/><path id="Trazado_1772-3" data-name="Trazado 1772-3" d="M15,14c0-.1-.16-.14-.27-.15l-.79-.12-1.3,1.47.92.41,1.33-1.4A.26.26,0,0,0,15,14Z" fill="#edeef4"/><path id="Trazado_1773-3" data-name="Trazado 1773-3" d="M2.78,14.52a6.77,6.77,0,0,1,2,1.21l.81-1a12.72,12.72,0,0,1-1.92-.85C3.37,14.09,3.07,14.3,2.78,14.52Z" fill="#edeef4"/></g><g id="Grupo_535" data-name="Grupo 535"><path id="Trazado_1744-4" data-name="Trazado 1744-4" d="M25.44,5.77a1.09,1.09,0,0,0-.61-.13l-1.43,0,0,.71a4.66,4.66,0,0,1,2.28.27A.92.92,0,0,0,25.44,5.77Z" fill="none"/><path id="Trazado_1745-4" data-name="Trazado 1745-4" d="M29.35,13.5a1.12,1.12,0,0,0-.6-.13l-1.44,0c0,.24,0,.48,0,.72a4.79,4.79,0,0,1,2.28.26A1,1,0,0,0,29.35,13.5Z" fill="none"/><path id="Trazado_1746-4" data-name="Trazado 1746-4" d="M27.28,14.8l-.71-.71c-.78.44-1.56.84-2.35,1.19a1.57,1.57,0,0,1,.7,1A16.16,16.16,0,0,1,27.28,14.8Z" fill="none"/><path id="Trazado_1747-4" data-name="Trazado 1747-4" d="M5,9.19c-.37-.34-.34-.4-.71-.74a19.2,19.2,0,0,1-2.41,1c.52.35.2.51.43,1.07A12.34,12.34,0,0,1,5,9.19Z" fill="none"/><path id="Trazado_1748-4" data-name="Trazado 1748-4" d="M23.74,11.89a1.32,1.32,0,0,0-.54-.39L22,10.93l-.94,1a7.34,7.34,0,0,1,2.6.92A1.11,1.11,0,0,0,23.74,11.89Z" fill="none"/><path id="Trazado_1749-4" data-name="Trazado 1749-4" d="M7.11,6.24c-.14.35-.29.7-.44,1l2.72.61A1.37,1.37,0,0,1,9.67,7,12,12,0,0,1,7.11,6.24Z" fill="none"/><path id="Trazado_1750-4" data-name="Trazado 1750-4" d="M13.67,3.34l-2.38-.12a2.75,2.75,0,0,0-.55.95,9.54,9.54,0,0,1,2.77.14A1.63,1.63,0,0,1,13.67,3.34Z" fill="none"/><path id="Trazado_1751-4" data-name="Trazado 1751-4" d="M7.46,10.55l1.18.06a1.28,1.28,0,0,1-.18-1.08,1.94,1.94,0,0,0,0-1.12l-.83-.19Z" fill="none"/><path id="Trazado_1752-4" data-name="Trazado 1752-4" d="M21.72,7.17l-.49-.61L19.29,7l.82.93Z" fill="none"/><path id="Trazado_1753-4" data-name="Trazado 1753-4" d="M8.59,17c-.16-.2-.32-.41-.49-.61l-1.93.39.82.93Z" fill="none"/><path id="Trazado_1754-4" data-name="Trazado 1754-4" d="M25.55,9.11a.54.54,0,0,0-.17-.54.53.53,0,0,0-.59,0,.54.54,0,0,0-.16.14,3.82,3.82,0,0,0-.94,1.7,1.89,1.89,0,0,1,1,.31,1.69,1.69,0,0,1,.4-1A1.73,1.73,0,0,0,25.55,9.11Z" fill="none"/><path id="Trazado_1755-4" data-name="Trazado 1755-4" d="M14.75,18.83a.51.51,0,0,0-.76-.58l-.16.13a3.85,3.85,0,0,0-.94,1.71,1.89,1.89,0,0,1,1,.31,1.67,1.67,0,0,1,.4-1A1.83,1.83,0,0,0,14.75,18.83Z" fill="none"/><path id="Trazado_1756-4" data-name="Trazado 1756-4" d="M7.61,14.69c.29.2.59.39.89.58l1.22-1.6-.88-.09Z" fill="none"/><path id="Trazado_1757-4" data-name="Trazado 1757-4" d="M2.9,11.55a.25.25,0,0,0,.16.12l1.26.47a5.77,5.77,0,0,1,1.29-2A3.43,3.43,0,0,1,4.34,10L3,11.32C2.93,11.39,2.86,11.47,2.9,11.55Z" fill="none"/><path id="Trazado_1758-4" data-name="Trazado 1758-4" d="M22.87,18.8a.31.31,0,0,0,.16.12l1.26.47a5.69,5.69,0,0,1,1.3-2,3.29,3.29,0,0,1-1.28-.22c-.44.46-.89.91-1.34,1.36C22.91,18.63,22.84,18.72,22.87,18.8Z" fill="none"/><path id="Trazado_1759-4" data-name="Trazado 1759-4" d="M20.92,19.29a4.65,4.65,0,0,1,1.33-1.57l-1-.46L19.75,18.6Z" fill="none"/><path id="Trazado_1760-4" data-name="Trazado 1760-4" d="M9.23,19l1.07.56a12.89,12.89,0,0,1,1.37-1.68.45.45,0,0,0-.39-.23Z" fill="none"/><path id="Trazado_1761-4" data-name="Trazado 1761-4" d="M4,5.56,2.65,6.94l.94.52L4.82,5.85Z" fill="none"/><path id="Trazado_1762-4" data-name="Trazado 1762-4" d="M8.51,3.74a1.42,1.42,0,0,0-.71,0l-1.23.15.27,1a4.65,4.65,0,0,1,2.27-.39A1.22,1.22,0,0,0,8.51,3.74Z" fill="none"/><path id="Trazado_1763-4" data-name="Trazado 1763-4" d="M28.08,11.65a1.06,1.06,0,0,0,.29.22.57.57,0,0,0,.52,0,.5.5,0,0,0,.2-.45A8.8,8.8,0,0,1,27.9,9.9l-1.19.44Z" fill="none"/><path id="Trazado_1764-4" data-name="Trazado 1764-4" d="M19.07,17.18a1.06,1.06,0,0,0,.29.22.56.56,0,0,0,.52,0,.47.47,0,0,0,.2-.46,8.35,8.35,0,0,1-1.19-1.46l-1.18.43Z" fill="none"/><path id="Trazado_1765-4" data-name="Trazado 1765-4" d="M21.42,6.29a1.06,1.06,0,0,0,.29.22.56.56,0,0,0,.52,0,.49.49,0,0,0,.2-.46,8.73,8.73,0,0,1-1.19-1.46L20.06,5Z" fill="none"/><path id="Trazado_1766-4" data-name="Trazado 1766-4" d="M12.51,6.84a1.23,1.23,0,0,0,.29.22.53.53,0,0,0,.68-.24.47.47,0,0,0,0-.26,8.33,8.33,0,0,1-1.19-1.47l-1.19.44C11.61,6,12.06,6.4,12.51,6.84Z" fill="none"/><path id="Trazado_1767-4" data-name="Trazado 1767-4" d="M22.3,3.2A4.61,4.61,0,0,1,20.49,3l-.31.84a8.7,8.7,0,0,1,2.33.23A1.29,1.29,0,0,1,22.3,3.2Z" fill="none"/><path id="Trazado_1768-4" data-name="Trazado 1768-4" d="M11.75,13.58a2.23,2.23,0,0,1-1.14-1.48l-1.11.39a7.9,7.9,0,0,1,1.4,1.82Z" fill="none"/><path id="Trazado_1769-4" data-name="Trazado 1769-4" d="M15.73,2.66A2.22,2.22,0,0,1,14.6,1.19l-1.11.38a8.49,8.49,0,0,1,1.4,1.82Z" fill="none"/><path id="Trazado_1770-4" data-name="Trazado 1770-4" d="M19.66,20.61a2.24,2.24,0,0,1-1.13-1.48l-1.11.38a8.24,8.24,0,0,1,1.4,1.83Z" fill="none"/><path id="Trazado_1771-4" data-name="Trazado 1771-4" d="M19.07,15a.5.5,0,0,0,.33.36.57.57,0,0,0,.49-.09c.22-.52.45-1,.67-1.55a3.54,3.54,0,0,0-.92-.06,1.81,1.81,0,0,0-.57,1.12A.81.81,0,0,0,19.07,15Z" fill="none"/><path id="Trazado_1772-4" data-name="Trazado 1772-4" d="M15,14c0-.1-.16-.14-.27-.15l-.79-.12-1.3,1.47.92.41,1.33-1.4A.26.26,0,0,0,15,14Z" fill="none"/><path id="Trazado_1773-4" data-name="Trazado 1773-4" d="M2.78,14.52a6.77,6.77,0,0,1,2,1.21l.81-1a12.72,12.72,0,0,1-1.92-.85C3.37,14.09,3.07,14.3,2.78,14.52Z" fill="none"/><path id="Trazado_1778" data-name="Trazado 1778" d="M12.17,16.33a1.34,1.34,0,0,0-.54-.4l-1.18-.57-.93,1a7.19,7.19,0,0,1,2.59.93A1.11,1.11,0,0,0,12.17,16.33Z" fill="none"/><path id="Trazado_1779" data-name="Trazado 1779" d="M19,2.14a1.23,1.23,0,0,0-.53-.39L17.3,1.18l-.94,1a7.22,7.22,0,0,1,2.6.92A1.14,1.14,0,0,0,19,2.14Z" fill="none"/><path id="Trazado_1780" data-name="Trazado 1780" d="M12.17,16.33a1.34,1.34,0,0,0-.54-.4l-1.18-.57-.93,1a7.19,7.19,0,0,1,2.59.93A1.11,1.11,0,0,0,12.17,16.33Z" fill="none"/><path id="Trazado_1781" data-name="Trazado 1781" d="M5.48,13.36l.89.59,1.22-1.61-.87-.09Z" fill="none"/><path id="Trazado_1782" data-name="Trazado 1782" d="M21.91,15.71a.49.49,0,0,0,.32.35.54.54,0,0,0,.49-.09c.22-.52.45-1,.67-1.55a4.69,4.69,0,0,0-.92-.06,2,2,0,0,0-.57,1.12A.6.6,0,0,0,21.91,15.71Z" fill="none"/><path id="Trazado_1783" data-name="Trazado 1783" d="M16,18.07a1,1,0,0,0,.29.21.54.54,0,0,0,.52-.05.46.46,0,0,0,.2-.45,9.74,9.74,0,0,1-1.19-1.46l-1.18.43Z" fill="none"/></g></g></g></g></g></svg>