<svg xmlns="http://www.w3.org/2000/svg" viewBox="0 0 32 25"><title>Rosquilla_CAreq_TColores</title><g id="Capa_2" data-name="Capa 2"><g id="Capa_1-2" data-name="Capa 1"><g id="Grupo_637" data-name="Grupo 637"><g id="Componente_8" data-name="Componente 8"><g id="Grupo_552" data-name="Grupo 552"><path id="Trazado_357" data-name="Trazado 357" d="M31.18,8.06C30.53,6,20.73,1.82,14.33,2.92c-2.18.38-4,1.58-5.87,2.22C-1,8.39-.83,14.6,3,19.58c2.15,2.81,8,5.76,14.58,5.39C36.22,23.93,31.18,8.06,31.18,8.06ZM19.53,14.91H16.59c-.8,0-3.12-.21-3.39-.16-.51.29-.92-.16-1.55-.06-1.07-.44-1.32-1-2-2.31-.11-1.12,6.83-4.58,9.83-2.54a17.4,17.4,0,0,1,2.33,1.25.52.52,0,0,1,.1.11c1.12.71-1.05-.78,0,0C24.2,12.87,20.57,15.64,19.53,14.91Z" fill="#b9640f"/><path id="Trazado_358" data-name="Trazado 358" d="M2.56,11.83c.07.22.15.44.23.65l.59,0c1.64.11,3.27-.13,4.9,0l1.5.1c0-.07,0-.14-.08-.2-.11-1.12,6.69-4.49,9.7-2.46a19.79,19.79,0,0,1,2.46,1.17.52.52,0,0,1,.1.11c.64.41,1.26.86,1.87,1.31.93-.42,1.86-.85,2.82-1.23a29.89,29.89,0,0,1,4.89-1.69,13.58,13.58,0,0,0-.36-1.53C30.53,6,20.73,1.82,14.33,2.92c-2.18.38-4,1.58-5.87,2.22-4,1.38-6.28,3.29-7.29,5.41A1.79,1.79,0,0,1,2.56,11.83Z" fill="#9d4a00"/></g></g><g id="Componente_4" data-name="Componente 4"><path id="Trazado_359" data-name="Trazado 359" d="M28.12,19.37c.24-.71-.05-1.85.39-2.43s1.58-.73,2.19-1.12c1.05-.68,1.06-2,1.2-3.11.57-4.37-1.17-8.36-8.42-11.22C19.72,0,11.72-1.56,4.63,3.17.4,6-.42,9,.17,12.62.4,14,1.73,16.73,3.41,17.31c.82.28,1.43.05,2.21.62A4.68,4.68,0,0,1,7,19.57c.9,1.6,2,1.85,3.91,1.77,1.06-.05,1.53-.18,2.39.45a3.83,3.83,0,0,0,2.13.86c1.81.09,2.63-2.16,4.58-.87.71.46,1.36,1,2.25.59s.61-1.36,1.33-1.85C25,19.49,27.27,21.86,28.12,19.37ZM11.15,8c5.46-4.08,9.36.72,9.34,1.92C20.44,14.53,5.72,12,11.15,8Z" fill="#804000"/></g><g id="Componente_3" data-name="Componente 3"><path id="Trazado_1744" data-name="Trazado 1744" d="M26.3,5.77a1.07,1.07,0,0,0-.61-.13l-1.43,0,0,.71a4.66,4.66,0,0,1,2.28.27A.92.92,0,0,0,26.3,5.77Z" fill="#cc3131"/><path id="Trazado_1745" data-name="Trazado 1745" d="M30.22,13.5a1.18,1.18,0,0,0-.61-.13l-1.44,0c0,.24,0,.48,0,.72a4.77,4.77,0,0,1,2.28.26A1,1,0,0,0,30.22,13.5Z" fill="#cc3131"/><path id="Trazado_1746" data-name="Trazado 1746" d="M28.93,15.38l-1.1-1a26,26,0,0,1-2.75.9,3.06,3.06,0,0,1,1.17,1.4A12.3,12.3,0,0,1,28.93,15.38Z" fill="#ead4af"/><path id="Trazado_1747" data-name="Trazado 1747" d="M5.88,9.19l-1.11-1A23.67,23.67,0,0,1,2,9.08a3.15,3.15,0,0,1,1.16,1.4A12.57,12.57,0,0,1,5.88,9.19Z" fill="#ead4af"/><path id="Trazado_1748" data-name="Trazado 1748" d="M24.6,11.89a1.32,1.32,0,0,0-.54-.39l-1.18-.57-.94,1a7.34,7.34,0,0,1,2.6.92A1.11,1.11,0,0,0,24.6,11.89Z" fill="#fc0"/><path id="Trazado_1749" data-name="Trazado 1749" d="M8,6.24c-.14.35-.29.7-.44,1l2.72.61A1.37,1.37,0,0,1,10.53,7,12,12,0,0,1,8,6.24Z" fill="#5cb45f"/><path id="Trazado_1750" data-name="Trazado 1750" d="M14.53,3.34l-2.38-.12a2.75,2.75,0,0,0-.55.95,9.52,9.52,0,0,1,2.77.14A1.71,1.71,0,0,1,14.53,3.34Z" fill="#cc3131"/><path id="Trazado_1751" data-name="Trazado 1751" d="M8.32,10.55l1.18.06a1.28,1.28,0,0,1-.18-1.08,1.94,1.94,0,0,0,0-1.12l-.82-.19Z" fill="#fc0"/><path id="Trazado_1752" data-name="Trazado 1752" d="M22.58,7.17l-.49-.61L20.15,7l.82.93Z" fill="#ead4af"/><path id="Trazado_1753" data-name="Trazado 1753" d="M9.46,17c-.17-.2-.33-.41-.49-.61L7,16.82l.82.93Z" fill="#ead4af"/><path id="Trazado_1754" data-name="Trazado 1754" d="M26.41,9.11a.52.52,0,0,0-.17-.54.53.53,0,0,0-.59,0,.7.7,0,0,0-.16.14,3.82,3.82,0,0,0-.94,1.7,1.89,1.89,0,0,1,1,.31,1.69,1.69,0,0,1,.4-1A1.6,1.6,0,0,0,26.41,9.11Z" fill="#5cb45f"/><path id="Trazado_1755" data-name="Trazado 1755" d="M15.61,18.83a.51.51,0,0,0-.17-.54.53.53,0,0,0-.59,0l-.16.13a3.85,3.85,0,0,0-.94,1.71,1.89,1.89,0,0,1,1,.31,1.8,1.8,0,0,1,.4-1A1.69,1.69,0,0,0,15.61,18.83Z" fill="#5cb45f"/><path id="Trazado_1756" data-name="Trazado 1756" d="M8.47,14.69c.29.2.59.39.89.58l1.22-1.6-.88-.09Z" fill="#cc3131"/><path id="Trazado_1757" data-name="Trazado 1757" d="M3.76,11.55a.25.25,0,0,0,.16.12l1.26.47a5.66,5.66,0,0,1,1.3-2A3.45,3.45,0,0,1,5.2,10L3.86,11.32C3.79,11.39,3.73,11.47,3.76,11.55Z" fill="#fc0"/><path id="Trazado_1758" data-name="Trazado 1758" d="M23.74,18.8a.25.25,0,0,0,.16.12l1.25.47a5.69,5.69,0,0,1,1.3-2,3.29,3.29,0,0,1-1.28-.22c-.44.46-.89.91-1.34,1.36C23.77,18.63,23.7,18.72,23.74,18.8Z" fill="#fc0"/><path id="Trazado_1759" data-name="Trazado 1759" d="M21.78,19.29a4.65,4.65,0,0,1,1.33-1.57l-1-.46L20.61,18.6Z" fill="#5cb45f"/><path id="Trazado_1760" data-name="Trazado 1760" d="M10.09,19l1.07.56a13.76,13.76,0,0,1,1.37-1.68.45.45,0,0,0-.39-.23Z" fill="#6bc3c3"/><path id="Trazado_1761" data-name="Trazado 1761" d="M4.85,5.56,3.51,6.94l.94.52L5.68,5.85Z" fill="#cc3131"/><path id="Trazado_1762" data-name="Trazado 1762" d="M9.38,3.74a1.43,1.43,0,0,0-.71,0l-1.24.15.27,1A4.69,4.69,0,0,1,10,4.49,1.29,1.29,0,0,0,9.38,3.74Z" fill="#6bc3c3"/><path id="Trazado_1763" data-name="Trazado 1763" d="M28.94,11.65a1.06,1.06,0,0,0,.29.22.56.56,0,0,0,.52,0,.47.47,0,0,0,.2-.45A8.8,8.8,0,0,1,28.76,9.9l-1.19.44Z" fill="#6bc3c3"/><path id="Trazado_1764" data-name="Trazado 1764" d="M19.93,17.18a1.23,1.23,0,0,0,.29.22.56.56,0,0,0,.52,0,.47.47,0,0,0,.2-.46,8.29,8.29,0,0,1-1.18-1.46l-1.19.43Z" fill="#6bc3c3"/><path id="Trazado_1765" data-name="Trazado 1765" d="M22.28,6.29a1.06,1.06,0,0,0,.29.22.56.56,0,0,0,.52,0,.47.47,0,0,0,.2-.46A8.73,8.73,0,0,1,22.1,4.54L20.92,5Z" fill="#6bc3c3"/><path id="Trazado_1766" data-name="Trazado 1766" d="M13.38,6.84a1.18,1.18,0,0,0,.28.22.54.54,0,0,0,.69-.24.46.46,0,0,0,0-.26A8.8,8.8,0,0,1,13.2,5.09L12,5.53Z" fill="#6bc3c3"/><path id="Trazado_1767" data-name="Trazado 1767" d="M23.17,3.2A4.66,4.66,0,0,1,21.35,3c-.1.29-.2.56-.31.84a8.7,8.7,0,0,1,2.33.23A1.28,1.28,0,0,1,23.17,3.2Z" fill="#5cb45f"/><path id="Trazado_1768" data-name="Trazado 1768" d="M12.61,13.58a2.23,2.23,0,0,1-1.14-1.48l-1.11.39a7.9,7.9,0,0,1,1.4,1.82Z" fill="#ead4af"/><path id="Trazado_1769" data-name="Trazado 1769" d="M16.59,2.66a2.22,2.22,0,0,1-1.13-1.47l-1.11.38a7.9,7.9,0,0,1,1.4,1.82Z" fill="#ead4af"/><path id="Trazado_1770" data-name="Trazado 1770" d="M20.52,20.61a2.24,2.24,0,0,1-1.13-1.48l-1.11.38a8,8,0,0,1,1.4,1.83Z" fill="#ead4af"/><path id="Trazado_1771" data-name="Trazado 1771" d="M19.94,15a.47.47,0,0,0,.32.36.57.57,0,0,0,.49-.09c.22-.52.45-1,.67-1.55a3.54,3.54,0,0,0-.92-.06,1.81,1.81,0,0,0-.57,1.12A.55.55,0,0,0,19.94,15Z" fill="#cc3131"/><path id="Trazado_1772" data-name="Trazado 1772" d="M15.81,14c0-.1-.16-.14-.27-.15l-.79-.12-1.3,1.47.92.41,1.34-1.4A.28.28,0,0,0,15.81,14Z" fill="#5cb45f"/><path id="Trazado_1773" data-name="Trazado 1773" d="M3.64,14.52a7,7,0,0,1,2,1.21l.8-1a12.72,12.72,0,0,1-1.92-.85Z" fill="#5cb45f"/></g></g></g></g></svg>