<svg xmlns="http://www.w3.org/2000/svg" viewBox="0 0 32 25"><title>Rosquilla_Glaseado</title><g id="Capa_2" data-name="Capa 2"><g id="Capa_1-2" data-name="Capa 1"><g id="Grupo_635" data-name="Grupo 635"><g id="Componente_2" data-name="Componente 2"><g id="Grupo_552" data-name="Grupo 552"><path id="Trazado_357" data-name="Trazado 357" d="M31.18,8.64c-.65-2-10.45-6-16.85-5-2.18.36-4,1.52-5.87,2.14C-1,9-.83,15,3,19.76c2.15,2.72,8,5.57,14.58,5.21C36.22,24,31.18,8.64,31.18,8.64ZM19.53,15.26s-2.65,0-2.94,0c-.8,0-3.12-.21-3.39-.16-.51.28-.92-.15-1.55-.06-1.07-.42-1.32-1-2-2.23-.11-1.08,6.83-4.42,9.83-2.46a19.76,19.76,0,0,1,2.33,1.21l.1.11c1.12.69-1.05-.75,0,0C24.2,13.29,20.57,16,19.53,15.26Z" fill="#b9640f"/><path id="Trazado_358" data-name="Trazado 358" d="M2.56,12.28c.07.21.15.42.23.63l.59,0c1.64.1,3.27-.12,4.9,0l1.5.09c0-.06,0-.13-.08-.19-.11-1.08,6.69-4.34,9.7-2.37a21,21,0,0,1,2.46,1.12l.1.11c.64.4,1.26.83,1.87,1.27.93-.4,1.86-.83,2.82-1.19a30.08,30.08,0,0,1,4.89-1.63,12.76,12.76,0,0,0-.36-1.48c-.65-2-10.45-6-16.85-5-2.18.36-4,1.52-5.87,2.14C4.45,7.15,2.18,9,1.17,11A1.77,1.77,0,0,1,2.56,12.28Z" fill="#9d4a00"/></g></g><g id="Componente_3" data-name="Componente 3"><path id="Trazado_1775" data-name="Trazado 1775" d="M28.12,18.7c.24-.68-.05-1.78.39-2.34s1.58-.71,2.19-1.08c1.05-.66,1.06-2,1.2-3,.57-4.21-1.17-8.07-8.42-10.83C19.72,0,11.72-1.51,4.63,3.06.4,5.79-.42,8.72.17,12.19c.23,1.31,1.56,4,3.24,4.52.82.28,1.43.06,2.21.61A4.57,4.57,0,0,1,7,18.9c.9,1.55,2,1.79,3.91,1.71,1.06-.05,1.53-.18,2.39.43a3.8,3.8,0,0,0,2.13.83C17.22,22,18,19.79,20,21a2.4,2.4,0,0,0,2.38,0c.89-.39.48-.74,1.2-1.22C25,18.83,27.27,21.11,28.12,18.7Zm-17-11c5.46-3.94,9.36.69,9.34,1.85C20.44,14,5.72,11.6,11.15,7.68Z" fill="#edeef4"/><path id="Trazado_1710" data-name="Trazado 1710" d="M27,18.58c.53,0,.41-.5,0-.51S26.42,18.56,27,18.58Z" fill="#fff"/><path id="Trazado_1711" data-name="Trazado 1711" d="M13.41,13.91c.24-.43-.34-.56-.53-.22S13.12,14.42,13.41,13.91Z" fill="#fff"/><path id="Trazado_1714" data-name="Trazado 1714" d="M9.2,10.4c-.5,0-.32.51.07.47S9.77,10.34,9.2,10.4Z" fill="#fff"/><path id="Trazado_1715" data-name="Trazado 1715" d="M8.74,10.28c-.07.62.69.52.74,0S8.81,9.56,8.74,10.28Z" fill="#fff"/><path id="Trazado_1716" data-name="Trazado 1716" d="M23.27,10.75c-.13.27.23.33.33.12S23.43,10.44,23.27,10.75Z" fill="#fff"/><path id="Trazado_1717" data-name="Trazado 1717" d="M21.16,11c.27.47.76.09.55-.28S20.84,10.49,21.16,11Z" fill="#fff"/><path id="Trazado_1718" data-name="Trazado 1718" d="M4.49,11.72c-.22.2.07.36.24.2S4.73,11.49,4.49,11.72Z" fill="#fff"/><path id="Trazado_1719" data-name="Trazado 1719" d="M9.1,17.14c-.1.44.45.42.53.07S9.22,16.62,9.1,17.14Z" fill="#fff"/><path id="Trazado_1720" data-name="Trazado 1720" d="M12.64,16.67c.08-.57-.62-.5-.68-.05S12.56,17.34,12.64,16.67Z" fill="#fff"/><path id="Trazado_1721" data-name="Trazado 1721" d="M14.73,13.88c.36.36.71-.09.42-.37S14.3,13.45,14.73,13.88Z" fill="#fff"/><path id="Trazado_1723" data-name="Trazado 1723" d="M23.75,15.59c-.18.48.43.54.58.16S24,15,23.75,15.59Z" fill="#fff"/><path id="Trazado_1724" data-name="Trazado 1724" d="M24.48,8.64c-.18-.21-.38,0-.23.19S24.7,8.88,24.48,8.64Z" fill="#fff"/><path id="Trazado_1725" data-name="Trazado 1725" d="M22.2,18.69c.42.19.54-.27.2-.42S21.7,18.47,22.2,18.69Z" fill="#fff"/><path id="Trazado_1726" data-name="Trazado 1726" d="M22.34,14.62c-.36-.13-.43.26-.14.36S22.77,14.78,22.34,14.62Z" fill="#fff"/><path id="Trazado_1728" data-name="Trazado 1728" d="M21.11,9.59c.2.29.5,0,.34-.2S20.88,9.25,21.11,9.59Z" fill="#fff"/><path id="Trazado_1729" data-name="Trazado 1729" d="M18.23,13.68c0,.57.66.45.68,0S18.27,13,18.23,13.68Z" fill="#fff"/><path id="Trazado_1730" data-name="Trazado 1730" d="M12.73,14.26c-.3.41.27.59.5.26S13.07,13.77,12.73,14.26Z" fill="#fff"/><path id="Trazado_1732" data-name="Trazado 1732" d="M6.42,17.52c.48-.26,0-.65-.33-.45S5.87,17.83,6.42,17.52Z" fill="#fff"/><path id="Trazado_1733" data-name="Trazado 1733" d="M16.2,19c.65,0,.52-.61,0-.63S15.44,19,16.2,19Z" fill="#fff"/><path id="Trazado_1734" data-name="Trazado 1734" d="M6.48,17c.4.08.39-.33.08-.39S6,16.89,6.48,17Z" fill="#fff"/><path id="Trazado_1735" data-name="Trazado 1735" d="M11.05,2.51c-.35,0-.24.35,0,.33S11.45,2.49,11.05,2.51Z" fill="#fff"/><path id="Trazado_1736" data-name="Trazado 1736" d="M19.53,17.37c-.19.29.19.4.34.18S19.75,17,19.53,17.37Z" fill="#fff"/><path id="Trazado_1737" data-name="Trazado 1737" d="M17.67,3.71c.33.24.53-.14.27-.33S17.29,3.43,17.67,3.71Z" fill="#fff"/><path id="Trazado_1738" data-name="Trazado 1738" d="M8,15.57c.27.11.32-.19.11-.27S7.68,15.45,8,15.57Z" fill="#fff"/><path id="Trazado_1739" data-name="Trazado 1739" d="M8.31,10.8c0-.36-.4-.31-.43,0S8.26,11.22,8.31,10.8Z" fill="#fff"/><path id="Trazado_1740" data-name="Trazado 1740" d="M12.58,16.43c-.37-.09-.39.3-.1.37S13,16.55,12.58,16.43Z" fill="#fff"/><path id="Trazado_1741" data-name="Trazado 1741" d="M10,14.78c.25-.28-.15-.46-.35-.23S9.65,15.11,10,14.78Z" fill="#fff"/><path id="Trazado_1742" data-name="Trazado 1742" d="M19.53,18.27c.31.18.45-.17.2-.31S19.16,18.05,19.53,18.27Z" fill="#fff"/><path id="Trazado_1710-2" data-name="Trazado 1710-2" d="M21.6,15.79c.53,0,.41-.49,0-.51S21,15.78,21.6,15.79Z" fill="#fff"/><path id="Trazado_1711-2" data-name="Trazado 1711-2" d="M8,11.13c.24-.44-.34-.56-.53-.22S7.69,11.64,8,11.13Z" fill="#fff"/><path id="Trazado_1712" data-name="Trazado 1712" d="M6.37,7.37c0,.52.58.44.62,0S6.43,6.77,6.37,7.37Z" fill="#fff"/><path id="Trazado_1713" data-name="Trazado 1713" d="M10,3.81c.43,0,.31-.43,0-.42S9.44,3.83,10,3.81Z" fill="#fff"/><path id="Trazado_1714-2" data-name="Trazado 1714-2" d="M3.77,7.61c-.49,0-.32.52.07.48S4.34,7.56,3.77,7.61Z" fill="#fff"/><path id="Trazado_1715-2" data-name="Trazado 1715-2" d="M3.31,7.5c-.07.62.69.52.74,0S3.38,6.77,3.31,7.5Z" fill="#fff"/><path id="Trazado_1719-2" data-name="Trazado 1719-2" d="M3.67,14.35c-.1.45.45.43.53.08S3.79,13.83,3.67,14.35Z" fill="#fff"/><path id="Trazado_1720-2" data-name="Trazado 1720-2" d="M7.21,13.88c.08-.57-.62-.49-.67,0S7.13,14.56,7.21,13.88Z" fill="#fff"/><path id="Trazado_1721-2" data-name="Trazado 1721-2" d="M9.3,11.09c.37.37.71-.08.42-.37S8.87,10.67,9.3,11.09Z" fill="#fff"/><path id="Trazado_1723-2" data-name="Trazado 1723-2" d="M18.32,12.81c-.18.48.43.53.58.16S18.54,12.25,18.32,12.81Z" fill="#fff"/><path id="Trazado_1724-2" data-name="Trazado 1724-2" d="M19.05,5.86c-.18-.21-.38,0-.23.18S19.27,6.09,19.05,5.86Z" fill="#fff"/><path id="Trazado_1725-2" data-name="Trazado 1725-2" d="M16.77,15.91c.42.19.54-.27.2-.42S16.27,15.69,16.77,15.91Z" fill="#fff"/><path id="Trazado_1726-2" data-name="Trazado 1726-2" d="M16.91,11.84c-.36-.13-.43.26-.14.36S17.34,12,16.91,11.84Z" fill="#fff"/><path id="Trazado_1727-2" data-name="Trazado 1727-2" d="M23.2,14.15c.4-.11.17-.47-.14-.38S22.73,14.28,23.2,14.15Z" fill="#fff"/><path id="Trazado_1730-2" data-name="Trazado 1730-2" d="M7.3,11.47c-.3.42.27.6.5.27S7.64,11,7.3,11.47Z" fill="#fff"/><path id="Trazado_1731-2" data-name="Trazado 1731-2" d="M6.53,8.6c.35.27.58-.14.31-.35S6.13,8.28,6.53,8.6Z" fill="#fff"/><path id="Trazado_1733-2" data-name="Trazado 1733-2" d="M10.77,16.25c.65,0,.52-.61,0-.63S10,16.22,10.77,16.25Z" fill="#fff"/><path id="Trazado_1734-2" data-name="Trazado 1734-2" d="M1.05,14.2c.4.08.39-.33.08-.39S.59,14.11,1.05,14.2Z" fill="#fff"/><path id="Trazado_1736-2" data-name="Trazado 1736-2" d="M14.1,14.59c-.19.29.2.4.34.18S14.32,14.26,14.1,14.59Z" fill="#fff"/><path id="Trazado_1737-2" data-name="Trazado 1737-2" d="M12.24.93c.33.24.53-.14.27-.33S11.86.64,12.24.93Z" fill="#fff"/><path id="Trazado_1738-2" data-name="Trazado 1738-2" d="M2.58,12.79c.27.1.32-.19.11-.27S2.25,12.67,2.58,12.79Z" fill="#fff"/><path id="Trazado_1739-2" data-name="Trazado 1739-2" d="M2.88,8c0-.36-.4-.31-.43,0S2.83,8.44,2.88,8Z" fill="#fff"/><path id="Trazado_1740-2" data-name="Trazado 1740-2" d="M7.15,13.65c-.37-.09-.39.3-.1.37S7.59,13.77,7.15,13.65Z" fill="#fff"/><path id="Trazado_1741-2" data-name="Trazado 1741-2" d="M4.52,12c.25-.28-.15-.46-.35-.24S4.22,12.33,4.52,12Z" fill="#fff"/><path id="Trazado_1742-2" data-name="Trazado 1742-2" d="M14.1,15.49c.31.18.45-.17.21-.32S13.73,15.27,14.1,15.49Z" fill="#fff"/><path id="Trazado_1711-3" data-name="Trazado 1711-3" d="M19.55,12.2c.24-.44-.34-.56-.53-.22S19.26,12.71,19.55,12.2Z" fill="#fff"/><path id="Trazado_1713-2" data-name="Trazado 1713-2" d="M21.52,4.88c.43,0,.31-.43,0-.42S21,4.9,21.52,4.88Z" fill="#fff"/><path id="Trazado_1716-2" data-name="Trazado 1716-2" d="M29.41,9c-.13.27.23.33.33.12S29.56,8.73,29.41,9Z" fill="#fff"/><path id="Trazado_1717-2" data-name="Trazado 1717-2" d="M27.3,9.33c.27.47.76.09.55-.28S27,8.78,27.3,9.33Z" fill="#fff"/><path id="Trazado_1719-3" data-name="Trazado 1719-3" d="M15.24,15.42c-.1.45.45.43.53.08S15.36,14.9,15.24,15.42Z" fill="#fff"/><path id="Trazado_1720-3" data-name="Trazado 1720-3" d="M18.78,15c.07-.57-.62-.49-.68,0S18.7,15.63,18.78,15Z" fill="#fff"/><path id="Trazado_1721-3" data-name="Trazado 1721-3" d="M20.87,12.16c.36.37.7-.08.42-.37S20.44,11.74,20.87,12.16Z" fill="#fff"/><path id="Trazado_1722-2" data-name="Trazado 1722-2" d="M26.12,8.34c-.28.55.44.68.66.25S26.44,7.7,26.12,8.34Z" fill="#fff"/><path id="Trazado_1723-3" data-name="Trazado 1723-3" d="M29.89,13.88c-.18.48.43.53.57.16S30.11,13.32,29.89,13.88Z" fill="#fff"/><path id="Trazado_1724-3" data-name="Trazado 1724-3" d="M30.62,6.93c-.18-.21-.38,0-.23.18S30.84,7.16,30.62,6.93Z" fill="#fff"/><path id="Trazado_1726-3" data-name="Trazado 1726-3" d="M28.48,12.91c-.36-.13-.43.26-.14.36S28.91,13.07,28.48,12.91Z" fill="#fff"/><path id="Trazado_1728-2" data-name="Trazado 1728-2" d="M27.25,7.88c.2.29.49,0,.34-.21S27,7.54,27.25,7.88Z" fill="#fff"/><path id="Trazado_1729-3" data-name="Trazado 1729-3" d="M24.37,12c0,.56.66.45.68,0S24.41,11.3,24.37,12Z" fill="#fff"/><path id="Trazado_1730-3" data-name="Trazado 1730-3" d="M18.87,12.54c-.3.42.27.6.5.27S19.21,12.06,18.87,12.54Z" fill="#fff"/><path id="Trazado_1732-3" data-name="Trazado 1732-3" d="M12.56,15.81c.47-.26,0-.66-.33-.45S12,16.12,12.56,15.81Z" fill="#fff"/><path id="Trazado_1733-3" data-name="Trazado 1733-3" d="M22.34,17.32c.65,0,.52-.61,0-.63S21.57,17.29,22.34,17.32Z" fill="#fff"/><path id="Trazado_1734-3" data-name="Trazado 1734-3" d="M12.62,15.27c.39.08.38-.33.07-.39S12.16,15.18,12.62,15.27Z" fill="#fff"/><path id="Trazado_1735-3" data-name="Trazado 1735-3" d="M17.18.8c-.34,0-.24.34,0,.33S17.59.78,17.18.8Z" fill="#fff"/><path id="Trazado_1736-3" data-name="Trazado 1736-3" d="M25.67,15.66c-.19.29.19.4.34.18S25.89,15.33,25.67,15.66Z" fill="#fff"/><path id="Trazado_1737-3" data-name="Trazado 1737-3" d="M23.81,2c.33.24.53-.14.27-.33S23.42,1.71,23.81,2Z" fill="#fff"/><path id="Trazado_1738-3" data-name="Trazado 1738-3" d="M14.14,13.86c.28.1.33-.19.11-.27S13.82,13.74,14.14,13.86Z" fill="#fff"/><path id="Trazado_1740-3" data-name="Trazado 1740-3" d="M18.72,14.72c-.37-.09-.39.3-.1.37S19.16,14.84,18.72,14.72Z" fill="#fff"/><path id="Trazado_1741-3" data-name="Trazado 1741-3" d="M16.09,13.07c.25-.28-.15-.46-.35-.24S15.79,13.4,16.09,13.07Z" fill="#fff"/><path id="Trazado_1742-3" data-name="Trazado 1742-3" d="M25.67,16.56c.31.18.45-.17.2-.32S25.3,16.34,25.67,16.56Z" fill="#fff"/><path id="Trazado_1710-4" data-name="Trazado 1710-4" d="M27,18.58c.53,0,.41-.5,0-.51S26.42,18.56,27,18.58Z" fill="#fff"/><path id="Trazado_1711-4" data-name="Trazado 1711-4" d="M13.41,13.91c.24-.43-.34-.56-.53-.22S13.12,14.42,13.41,13.91Z" fill="#fff"/><path id="Trazado_1714-3" data-name="Trazado 1714-3" d="M9.2,10.4c-.5,0-.32.51.07.47S9.77,10.34,9.2,10.4Z" fill="#fff"/><path id="Trazado_1715-3" data-name="Trazado 1715-3" d="M8.74,10.28c-.07.62.69.52.74,0S8.81,9.56,8.74,10.28Z" fill="#fff"/><path id="Trazado_1716-3" data-name="Trazado 1716-3" d="M23.27,10.75c-.13.27.23.33.33.12S23.43,10.44,23.27,10.75Z" fill="#fff"/><path id="Trazado_1717-3" data-name="Trazado 1717-3" d="M21.16,11c.27.47.76.09.55-.28S20.84,10.49,21.16,11Z" fill="#fff"/><path id="Trazado_1718-3" data-name="Trazado 1718-3" d="M4.49,11.72c-.22.2.07.36.24.2S4.73,11.49,4.49,11.72Z" fill="#fff"/><path id="Trazado_1719-4" data-name="Trazado 1719-4" d="M9.1,17.14c-.1.44.45.42.53.07S9.22,16.62,9.1,17.14Z" fill="#fff"/><path id="Trazado_1720-4" data-name="Trazado 1720-4" d="M12.64,16.67c.08-.57-.62-.5-.68-.05S12.56,17.34,12.64,16.67Z" fill="#fff"/><path id="Trazado_1721-4" data-name="Trazado 1721-4" d="M14.73,13.88c.36.36.71-.09.42-.37S14.3,13.45,14.73,13.88Z" fill="#fff"/><path id="Trazado_1723-4" data-name="Trazado 1723-4" d="M23.75,15.59c-.18.48.43.54.58.16S24,15,23.75,15.59Z" fill="#fff"/><path id="Trazado_1724-4" data-name="Trazado 1724-4" d="M24.48,8.64c-.18-.21-.38,0-.23.19S24.7,8.88,24.48,8.64Z" fill="#fff"/><path id="Trazado_1725-4" data-name="Trazado 1725-4" d="M22.2,18.69c.42.19.54-.27.2-.42S21.7,18.47,22.2,18.69Z" fill="#fff"/><path id="Trazado_1726-4" data-name="Trazado 1726-4" d="M22.34,14.62c-.36-.13-.43.26-.14.36S22.77,14.78,22.34,14.62Z" fill="#fff"/><path id="Trazado_1728-3" data-name="Trazado 1728-3" d="M21.11,9.59c.2.29.5,0,.34-.2S20.88,9.25,21.11,9.59Z" fill="#fff"/><path id="Trazado_1729-4" data-name="Trazado 1729-4" d="M18.23,13.68c0,.57.66.45.68,0S18.27,13,18.23,13.68Z" fill="#fff"/><path id="Trazado_1730-4" data-name="Trazado 1730-4" d="M12.73,14.26c-.3.41.27.59.5.26S13.07,13.77,12.73,14.26Z" fill="#fff"/><path id="Trazado_1732-4" data-name="Trazado 1732-4" d="M6.42,17.52c.48-.26,0-.65-.33-.45S5.87,17.83,6.42,17.52Z" fill="#fff"/><path id="Trazado_1733-4" data-name="Trazado 1733-4" d="M16.2,19c.65,0,.52-.61,0-.63S15.44,19,16.2,19Z" fill="#fff"/><path id="Trazado_1734-4" data-name="Trazado 1734-4" d="M6.48,17c.4.08.39-.33.08-.39S6,16.89,6.48,17Z" fill="#fff"/><path id="Trazado_1735-4" data-name="Trazado 1735-4" d="M11.05,2.51c-.35,0-.24.35,0,.33S11.45,2.49,11.05,2.51Z" fill="#fff"/><path id="Trazado_1736-4" data-name="Trazado 1736-4" d="M19.53,17.37c-.19.29.19.4.34.18S19.75,17,19.53,17.37Z" fill="#fff"/><path id="Trazado_1737-4" data-name="Trazado 1737-4" d="M17.67,3.71c.33.24.53-.14.27-.33S17.29,3.43,17.67,3.71Z" fill="#fff"/><path id="Trazado_1738-4" data-name="Trazado 1738-4" d="M8,15.57c.27.11.32-.19.11-.27S7.68,15.45,8,15.57Z" fill="#fff"/><path id="Trazado_1739-3" data-name="Trazado 1739-3" d="M8.31,10.8c0-.36-.4-.31-.43,0S8.26,11.22,8.31,10.8Z" fill="#fff"/><path id="Trazado_1740-4" data-name="Trazado 1740-4" d="M12.58,16.43c-.37-.09-.39.3-.1.37S13,16.55,12.58,16.43Z" fill="#fff"/><path id="Trazado_1741-4" data-name="Trazado 1741-4" d="M10,14.78c.25-.28-.15-.46-.35-.23S9.65,15.11,10,14.78Z" fill="#fff"/><path id="Trazado_1742-4" data-name="Trazado 1742-4" d="M19.53,18.27c.31.18.45-.17.2-.31S19.16,18.05,19.53,18.27Z" fill="#fff"/><path id="Trazado_1710-5" data-name="Trazado 1710-5" d="M25.62,9.59c.52,0,.41-.5,0-.51S25,9.57,25.62,9.59Z" fill="#fff"/><path id="Trazado_1711-5" data-name="Trazado 1711-5" d="M12,4.92c.24-.43-.33-.56-.52-.21S11.71,5.43,12,4.92Z" fill="#fff"/><path id="Trazado_1712-2" data-name="Trazado 1712-2" d="M10.39,1.17c-.05.52.58.43.61,0S10.45.56,10.39,1.17Z" fill="#fff"/><path id="Trazado_1714-4" data-name="Trazado 1714-4" d="M7.78,1.41c-.49,0-.31.51.07.47S8.36,1.35,7.78,1.41Z" fill="#fff"/><path id="Trazado_1715-4" data-name="Trazado 1715-4" d="M7.32,2.36c-.06.63.69.53.74,0" fill="#fff"/><path id="Trazado_1716-4" data-name="Trazado 1716-4" d="M21.86,1.77c-.13.26.22.32.32.11S22,1.45,21.86,1.77Z" fill="#fff"/><path id="Trazado_1717-4" data-name="Trazado 1717-4" d="M19.74,2.05c.27.48.77.09.55-.28S19.43,1.5,19.74,2.05Z" fill="#fff"/><path id="Trazado_1719-5" data-name="Trazado 1719-5" d="M7.68,8.15c-.1.44.46.42.53.08S7.8,7.63,7.68,8.15Z" fill="#fff"/><path id="Trazado_1721-5" data-name="Trazado 1721-5" d="M13.32,4.89c.36.36.7-.09.41-.37S12.89,4.46,13.32,4.89Z" fill="#fff"/><path id="Trazado_1722-4" data-name="Trazado 1722-4" d="M18.56,1.07c-.27.54.45.67.66.24S18.89.43,18.56,1.07Z" fill="#fff"/><path id="Trazado_1723-5" data-name="Trazado 1723-5" d="M22.34,6.6c-.19.48.43.54.57.16S22.55,6.05,22.34,6.6Z" fill="#fff"/><path id="Trazado_1725-5" data-name="Trazado 1725-5" d="M20.78,9.7c.42.19.54-.27.2-.42S20.29,9.48,20.78,9.7Z" fill="#fff"/><path id="Trazado_1726-5" data-name="Trazado 1726-5" d="M20.93,5.63c-.37-.13-.43.26-.15.36S21.35,5.79,20.93,5.63Z" fill="#fff"/><path id="Trazado_1727-5" data-name="Trazado 1727-5" d="M27.21,7.94c.41-.1.17-.47-.14-.38S26.74,8.07,27.21,7.94Z" fill="#fff"/><path id="Trazado_1729-5" data-name="Trazado 1729-5" d="M16.82,4.69c0,.57.65.45.67,0S16.85,4,16.82,4.69Z" fill="#fff"/><path id="Trazado_1730-5" data-name="Trazado 1730-5" d="M11.31,5.27c-.29.41.27.59.5.27S11.66,4.78,11.31,5.27Z" fill="#fff"/><path id="Trazado_1731-4" data-name="Trazado 1731-4" d="M10.54,2.39c.35.27.58-.14.31-.35S10.14,2.07,10.54,2.39Z" fill="#fff"/><path id="Trazado_1732-5" data-name="Trazado 1732-5" d="M5,8.54c.47-.27,0-.66-.33-.45S4.45,8.84,5,8.54Z" fill="#fff"/><path id="Trazado_1734-5" data-name="Trazado 1734-5" d="M5.06,8c.4.08.39-.33.08-.39S4.6,7.9,5.06,8Z" fill="#fff"/><path id="Trazado_1738-5" data-name="Trazado 1738-5" d="M6.59,6.58c.28.11.33-.19.11-.27S6.27,6.46,6.59,6.58Z" fill="#fff"/><path id="Trazado_1741-5" data-name="Trazado 1741-5" d="M8.53,5.79c.26-.28-.14-.45-.34-.23S8.23,6.12,8.53,5.79Z" fill="#fff"/><path id="Trazado_1710-6" data-name="Trazado 1710-6" d="M25.62,13c.52,0,.41-.5,0-.51S25,13,25.62,13Z" fill="#fff"/><path id="Trazado_1712-3" data-name="Trazado 1712-3" d="M10.39,4.59c-.05.52.58.43.61,0S10.45,4,10.39,4.59Z" fill="#fff"/><path id="Trazado_1713-4" data-name="Trazado 1713-4" d="M14,1c.44,0,.31-.43,0-.42S13.45,1,14,1Z" fill="#fff"/><path id="Trazado_1714-5" data-name="Trazado 1714-5" d="M7.78,4.83c-.49,0-.31.52.07.48S8.36,4.78,7.78,4.83Z" fill="#fff"/><path id="Trazado_1715-5" data-name="Trazado 1715-5" d="M7.32,4.72c-.06.62.69.52.74,0S7.39,4,7.32,4.72Z" fill="#fff"/><path id="Trazado_1716-5" data-name="Trazado 1716-5" d="M21.86,5.19c-.13.27.22.33.32.11S22,4.87,21.86,5.19Z" fill="#fff"/><path id="Trazado_1717-5" data-name="Trazado 1717-5" d="M19.74,5.48c.27.47.77.08.55-.29S19.43,4.92,19.74,5.48Z" fill="#fff"/><path id="Trazado_1718-5" data-name="Trazado 1718-5" d="M3.07,6.16c-.21.19.07.35.24.2S3.32,5.93,3.07,6.16Z" fill="#fff"/><path id="Trazado_1719-6" data-name="Trazado 1719-6" d="M7.68,11.57c-.1.44.46.43.53.08S7.8,11.05,7.68,11.57Z" fill="#fff"/><path id="Trazado_1720-5" data-name="Trazado 1720-5" d="M11.23,11.1c.07-.57-.63-.49-.68,0S11.14,11.77,11.23,11.1Z" fill="#fff"/><path id="Trazado_1722-5" data-name="Trazado 1722-5" d="M18.56,4.49c-.27.55.45.67.66.24S18.89,3.85,18.56,4.49Z" fill="#fff"/><path id="Trazado_1723-6" data-name="Trazado 1723-6" d="M22.34,10c-.19.48.43.53.57.16S22.55,9.47,22.34,10Z" fill="#fff"/><path id="Trazado_1724-6" data-name="Trazado 1724-6" d="M23.07,3.07c-.19-.2-.38,0-.24.19S23.28,3.31,23.07,3.07Z" fill="#fff"/><path id="Trazado_1725-6" data-name="Trazado 1725-6" d="M20.78,13.13c.42.19.54-.28.2-.42S20.29,12.91,20.78,13.13Z" fill="#fff"/><path id="Trazado_1726-6" data-name="Trazado 1726-6" d="M20.93,9.06c-.37-.14-.43.26-.15.36S21.35,9.22,20.93,9.06Z" fill="#fff"/><path id="Trazado_1727-6" data-name="Trazado 1727-6" d="M27.21,11.37c.41-.11.17-.47-.14-.39S26.74,11.49,27.21,11.37Z" fill="#fff"/><path id="Trazado_1728-5" data-name="Trazado 1728-5" d="M19.7,4c.19.29.49,0,.33-.21S19.46,3.69,19.7,4Z" fill="#fff"/><path id="Trazado_1731-5" data-name="Trazado 1731-5" d="M10.54,5.81c.35.28.58-.13.31-.34S10.14,5.49,10.54,5.81Z" fill="#fff"/><path id="Trazado_1732-6" data-name="Trazado 1732-6" d="M5,12c.47-.26,0-.66-.33-.45S4.45,12.27,5,12Z" fill="#fff"/><path id="Trazado_1733-5" data-name="Trazado 1733-5" d="M14.78,13.47c.66,0,.53-.62,0-.64S14,13.43,14.78,13.47Z" fill="#fff"/><path id="Trazado_1734-6" data-name="Trazado 1734-6" d="M5.06,11.42c.4.07.39-.33.08-.39S4.6,11.33,5.06,11.42Z" fill="#fff"/><path id="Trazado_1736-5" data-name="Trazado 1736-5" d="M18.11,11.81c-.19.28.2.4.35.17S18.34,11.48,18.11,11.81Z" fill="#fff"/><path id="Trazado_1738-6" data-name="Trazado 1738-6" d="M6.59,10c.28.1.33-.2.11-.28S6.27,9.89,6.59,10Z" fill="#fff"/><path id="Trazado_1739-5" data-name="Trazado 1739-5" d="M6.89,5.24c0-.36-.4-.31-.43,0S6.84,5.66,6.89,5.24Z" fill="#fff"/><path id="Trazado_1740-5" data-name="Trazado 1740-5" d="M11.17,10.87c-.38-.1-.4.29-.1.37S11.6,11,11.17,10.87Z" fill="#fff"/><path id="Trazado_1741-6" data-name="Trazado 1741-6" d="M8.53,9.22c.26-.28-.14-.46-.34-.24S8.23,9.55,8.53,9.22Z" fill="#fff"/><path id="Trazado_1742-5" data-name="Trazado 1742-5" d="M18.11,12.71c.32.18.46-.17.21-.32S17.75,12.49,18.11,12.71Z" fill="#fff"/></g></g></g></g></svg>