<svg xmlns="http://www.w3.org/2000/svg" viewBox="0 0 32 25"><title>Rosquilla_CChocB_TColores</title><g id="Capa_2" data-name="Capa 2"><g id="Capa_1-2" data-name="Capa 1"><g id="Grupo_622" data-name="Grupo 622"><g id="Componente_13" data-name="Componente 13"><g id="Grupo_552" data-name="Grupo 552"><path id="Trazado_357" data-name="Trazado 357" d="M31.18,7.91c-.65-2.1-10.45-6.3-16.85-5.19-2.18.39-4,1.59-5.87,2.25C-1,8.24-.83,14.51,3,19.53c2.15,2.84,8,5.81,14.58,5.44C36.22,23.92,31.18,7.91,31.18,7.91ZM19.53,14.82H16.59c-.8,0-3.12-.21-3.39-.16-.51.29-.92-.16-1.55-.06-1.07-.45-1.32-1.06-2-2.33-.11-1.13,6.83-4.63,9.83-2.57A18.69,18.69,0,0,1,21.86,11l.1.12c1.12.71-1.05-.79,0,0C24.2,12.77,20.57,15.55,19.53,14.82Z" fill="#b9640f"/><path id="Trazado_358" data-name="Trazado 358" d="M2.56,11.71c.07.22.15.44.23.66l.59,0c1.64.11,3.27-.13,4.9,0l1.5.09c0-.06,0-.13-.08-.19-.11-1.13,6.69-4.54,9.7-2.48A21.33,21.33,0,0,1,21.86,11l.1.12c.64.41,1.26.86,1.87,1.32.93-.42,1.86-.86,2.82-1.25a30.83,30.83,0,0,1,4.89-1.7,13.75,13.75,0,0,0-.36-1.54c-.65-2.1-10.45-6.3-16.85-5.19-2.18.39-4,1.59-5.87,2.25-4,1.38-6.28,3.31-7.29,5.45A1.78,1.78,0,0,1,2.56,11.71Z" fill="#9d4a00"/></g></g><g id="Componente_2" data-name="Componente 2"><path id="Trazado_1811" data-name="Trazado 1811" d="M28.12,19.54c.24-.71-.05-1.86.39-2.45s1.58-.74,2.19-1.13c1.05-.68,1.06-2.05,1.2-3.14.57-4.4-1.17-8.43-8.42-11.31C19.72,0,11.72-1.58,4.63,3.2.4,6.05-.42,9.11.17,12.73c.23,1.37,1.56,4.15,3.24,4.73.82.28,1.43.05,2.21.63A4.8,4.8,0,0,1,7,19.74c.9,1.62,2,1.87,3.91,1.79,1.06-.05,1.53-.18,2.39.45a3.7,3.7,0,0,0,2.13.87C17.22,23,18,20.67,20,22c.71.47,1.36,1,2.25.6s.61-1.37,1.33-1.87C25,19.67,27.27,22.06,28.12,19.54ZM11.15,8c5.46-4.11,9.36.73,9.34,1.94C20.44,14.66,5.72,12.12,11.15,8Z" fill="#e2d7cf"/></g><g id="Componente_4" data-name="Componente 4"><path id="Trazado_1744" data-name="Trazado 1744" d="M27,5.82a1.09,1.09,0,0,0-.61-.13L25,5.67l0,.72a4.66,4.66,0,0,1,2.28.27A1,1,0,0,0,27,5.82Z" fill="#cc3131"/><path id="Trazado_1745" data-name="Trazado 1745" d="M30.92,13.62a1.12,1.12,0,0,0-.6-.13l-1.44,0c0,.24,0,.48,0,.73a4.67,4.67,0,0,1,2.28.26A1,1,0,0,0,30.92,13.62Z" fill="#cc3131"/><path id="Trazado_1746" data-name="Trazado 1746" d="M29.64,15.52l-1.1-1a23.93,23.93,0,0,1-2.75.91A3.08,3.08,0,0,1,27,16.83,12.33,12.33,0,0,1,29.64,15.52Z" fill="#ead4af"/><path id="Trazado_1747" data-name="Trazado 1747" d="M6.58,9.27l-1.1-1a23.88,23.88,0,0,1-2.75.9A3.08,3.08,0,0,1,3.9,10.57,12.53,12.53,0,0,1,6.58,9.27Z" fill="#ead4af"/><path id="Trazado_1748" data-name="Trazado 1748" d="M25.31,12a1.34,1.34,0,0,0-.54-.4L23.59,11l-.94,1a7.38,7.38,0,0,1,2.6.94A1.17,1.17,0,0,0,25.31,12Z" fill="#fc0"/><path id="Trazado_1749" data-name="Trazado 1749" d="M8.68,6.3c-.14.35-.29.7-.44,1L11,8a1.5,1.5,0,0,1,.29-.88A12.65,12.65,0,0,1,8.68,6.3Z" fill="#5cb45f"/><path id="Trazado_1750" data-name="Trazado 1750" d="M15.24,3.37l-2.38-.12a2.79,2.79,0,0,0-.55,1,9.54,9.54,0,0,1,2.77.14A1.65,1.65,0,0,1,15.24,3.37Z" fill="#cc3131"/><path id="Trazado_1751" data-name="Trazado 1751" d="M9,10.65l1.18,0A1.26,1.26,0,0,1,10,9.61a2,2,0,0,0,0-1.13l-.83-.19Z" fill="#fc0"/><path id="Trazado_1752" data-name="Trazado 1752" d="M23.29,7.23c-.17-.2-.33-.41-.5-.62L20.86,7c.27.32.55.63.82.94Z" fill="#ead4af"/><path id="Trazado_1753" data-name="Trazado 1753" d="M10.16,17.19c-.16-.2-.32-.41-.49-.61L7.74,17c.27.32.55.63.82.94Z" fill="#ead4af"/><path id="Trazado_1754" data-name="Trazado 1754" d="M27.12,9.2A.55.55,0,0,0,27,8.65a.53.53,0,0,0-.59,0,.7.7,0,0,0-.16.13,3.88,3.88,0,0,0-.94,1.72,1.85,1.85,0,0,1,1,.32,1.67,1.67,0,0,1,.4-1A2,2,0,0,0,27.12,9.2Z" fill="#5cb45f"/><path id="Trazado_1755" data-name="Trazado 1755" d="M16.32,19a.55.55,0,0,0-.17-.55.53.53,0,0,0-.59,0,1.07,1.07,0,0,0-.16.14,3.88,3.88,0,0,0-.94,1.72,1.89,1.89,0,0,1,1,.31,1.72,1.72,0,0,1,.4-1A1.73,1.73,0,0,0,16.32,19Z" fill="#5cb45f"/><path id="Trazado_1756" data-name="Trazado 1756" d="M9.18,14.82l.89.59,1.22-1.62-.88-.09Z" fill="#cc3131"/><path id="Trazado_1757" data-name="Trazado 1757" d="M4.47,11.66a.21.21,0,0,0,.16.11l1.26.48a5.62,5.62,0,0,1,1.29-2,3.25,3.25,0,0,1-1.27-.23L4.57,11.42C4.5,11.49,4.43,11.58,4.47,11.66Z" fill="#fc0"/><path id="Trazado_1758" data-name="Trazado 1758" d="M24.44,19a.31.31,0,0,0,.16.12l1.26.47a5.83,5.83,0,0,1,1.3-2,3.48,3.48,0,0,1-1.28-.22c-.45.45-.89.91-1.34,1.37C24.48,18.8,24.41,18.89,24.44,19Z" fill="#fc0"/><path id="Trazado_1759" data-name="Trazado 1759" d="M22.49,19.47a4.63,4.63,0,0,1,1.33-1.59l-1-.46-1.52,1.35Z" fill="#5cb45f"/><path id="Trazado_1760" data-name="Trazado 1760" d="M10.8,19.21l1.07.56a12.26,12.26,0,0,1,1.37-1.68.45.45,0,0,0-.39-.25Z" fill="#6bc3c3"/><path id="Trazado_1761" data-name="Trazado 1761" d="M5.55,5.61c-.44.46-.88.93-1.33,1.39l.93.52L6.39,5.9Z" fill="#cc3131"/><path id="Trazado_1762" data-name="Trazado 1762" d="M10.08,3.77a1.54,1.54,0,0,0-.71,0l-1.23.15.27,1a4.65,4.65,0,0,1,2.27-.39A1.24,1.24,0,0,0,10.08,3.77Z" fill="#6bc3c3"/><path id="Trazado_1763" data-name="Trazado 1763" d="M29.65,11.76a1.06,1.06,0,0,0,.29.22.54.54,0,0,0,.51-.05.51.51,0,0,0,.21-.46A8.87,8.87,0,0,1,29.47,10l-1.19.44Z" fill="#6bc3c3"/><path id="Trazado_1764" data-name="Trazado 1764" d="M20.64,17.33a.89.89,0,0,0,.29.22.54.54,0,0,0,.52-.05.47.47,0,0,0,.2-.46,8.8,8.8,0,0,1-1.19-1.47L19.28,16Z" fill="#6bc3c3"/><path id="Trazado_1765" data-name="Trazado 1765" d="M23,6.34a.89.89,0,0,0,.29.22.51.51,0,0,0,.52,0,.47.47,0,0,0,.2-.45,8.87,8.87,0,0,1-1.19-1.48L21.63,5Z" fill="#6bc3c3"/><path id="Trazado_1766" data-name="Trazado 1766" d="M14.08,6.9a1,1,0,0,0,.29.22.51.51,0,0,0,.68-.24.41.41,0,0,0,0-.27,8.74,8.74,0,0,1-1.18-1.47l-1.19.44Z" fill="#6bc3c3"/><path id="Trazado_1767" data-name="Trazado 1767" d="M23.87,3.23a4.61,4.61,0,0,1-1.81-.18c-.11.28-.21.57-.31.85a7.86,7.86,0,0,1,2.32.23A1.37,1.37,0,0,1,23.87,3.23Z" fill="#5cb45f"/><path id="Trazado_1768" data-name="Trazado 1768" d="M13.32,13.7a2.25,2.25,0,0,1-1.14-1.49l-1.11.39a8,8,0,0,1,1.4,1.84Z" fill="#ead4af"/><path id="Trazado_1769" data-name="Trazado 1769" d="M17.3,2.68A2.22,2.22,0,0,1,16.17,1.2l-1.11.38a8.61,8.61,0,0,1,1.4,1.84Z" fill="#ead4af"/><path id="Trazado_1770" data-name="Trazado 1770" d="M21.23,20.79A2.24,2.24,0,0,1,20.1,19.3L19,19.69a8.37,8.37,0,0,1,1.4,1.84Z" fill="#ead4af"/><path id="Trazado_1771" data-name="Trazado 1771" d="M20.64,15.18a.49.49,0,0,0,.33.35.51.51,0,0,0,.49-.09l.67-1.56a4.69,4.69,0,0,0-.92-.06A1.86,1.86,0,0,0,20.64,15,.89.89,0,0,0,20.64,15.18Z" fill="#cc3131"/><path id="Trazado_1772" data-name="Trazado 1772" d="M16.51,14.14c0-.1-.15-.13-.26-.15l-.79-.11-1.3,1.48.92.41,1.33-1.41A.24.24,0,0,0,16.51,14.14Z" fill="#5cb45f"/><path id="Trazado_1773" data-name="Trazado 1773" d="M4.35,14.65a6.59,6.59,0,0,1,2,1.22l.81-1A11.83,11.83,0,0,1,5.24,14Z" fill="#5cb45f"/></g></g></g></g></svg>