<svg xmlns="http://www.w3.org/2000/svg" viewBox="0 0 32 25"><title>Rosquilla_CChocB_TCoco</title><g id="Capa_2" data-name="Capa 2"><g id="Capa_1-2" data-name="Capa 1"><g id="Grupo_624" data-name="Grupo 624"><g id="Componente_15" data-name="Componente 15"><g id="Grupo_552-3" data-name="Grupo 552-3"><path id="Trazado_357-3" data-name="Trazado 357-3" d="M31.18,7.91c-.65-2.1-10.45-6.3-16.85-5.19-2.18.39-4,1.59-5.87,2.25C-1,8.24-.83,14.51,3,19.53c2.15,2.84,8,5.81,14.58,5.44C36.22,23.92,31.18,7.91,31.18,7.91ZM19.53,14.82H16.59c-.8,0-3.12-.21-3.39-.16-.51.29-.92-.16-1.55-.06-1.07-.45-1.32-1.06-2-2.33-.11-1.13,6.83-4.63,9.83-2.57A18.69,18.69,0,0,1,21.86,11l.1.12c1.12.71-1.05-.79,0,0C24.2,12.77,20.57,15.55,19.53,14.82Z" fill="#b9640f"/><path id="Trazado_358-3" data-name="Trazado 358-3" d="M2.56,11.71c.07.22.15.44.23.66l.59,0c1.64.11,3.27-.13,4.9,0l1.5.09c0-.06,0-.13-.08-.19-.11-1.13,6.69-4.54,9.7-2.48A21.33,21.33,0,0,1,21.86,11l.1.12c.64.41,1.26.86,1.87,1.32.93-.42,1.86-.86,2.82-1.25a30.83,30.83,0,0,1,4.89-1.7,13.75,13.75,0,0,0-.36-1.54c-.65-2.1-10.45-6.3-16.85-5.19-2.18.39-4,1.59-5.87,2.25-4,1.38-6.28,3.31-7.29,5.45A1.78,1.78,0,0,1,2.56,11.71Z" fill="#9d4a00"/></g></g><g id="Componente_4-3" data-name="Componente 4-3"><path id="Trazado_1811-3" data-name="Trazado 1811-3" d="M28.12,19.54c.24-.71-.05-1.86.39-2.45s1.58-.74,2.19-1.13c1.05-.68,1.06-2.05,1.2-3.14.57-4.4-1.17-8.43-8.42-11.31C19.72,0,11.72-1.58,4.63,3.2.4,6.05-.42,9.11.17,12.73c.23,1.37,1.56,4.15,3.24,4.73.82.28,1.43.05,2.21.63A4.8,4.8,0,0,1,7,19.74c.9,1.62,2,1.87,3.91,1.79,1.06-.05,1.53-.18,2.39.45a3.7,3.7,0,0,0,2.13.87C17.22,23,18,20.67,20,22c.71.47,1.36,1,2.25.6s.61-1.37,1.33-1.87C25,19.67,27.27,22.06,28.12,19.54ZM11.15,8c5.46-4.11,9.36.73,9.34,1.94C20.44,14.66,5.72,12.12,11.15,8Z" fill="#e2d7cf"/></g><g id="Componente_4-4" data-name="Componente 4-4"><g id="Grupo_530" data-name="Grupo 530"><path id="Trazado_1744-3" data-name="Trazado 1744-3" d="M26.15,5.82a1.09,1.09,0,0,0-.61-.13l-1.44,0c0,.24,0,.48,0,.72a4.66,4.66,0,0,1,2.28.27A1,1,0,0,0,26.15,5.82Z" fill="#edeef4"/><path id="Trazado_1745-3" data-name="Trazado 1745-3" d="M30.06,13.62a1.14,1.14,0,0,0-.61-.13l-1.43,0c0,.24,0,.48,0,.73a4.61,4.61,0,0,1,2.27.26A1,1,0,0,0,30.06,13.62Z" fill="#edeef4"/><path id="Trazado_1746-3" data-name="Trazado 1746-3" d="M28,14.94q-.36-.37-.72-.72-1.15.66-2.34,1.2a1.55,1.55,0,0,1,.7,1.06A15,15,0,0,1,28,14.94Z" fill="#edeef4"/><path id="Trazado_1747-3" data-name="Trazado 1747-3" d="M5.72,9.27c-.37-.34-.33-.41-.7-.74a20.91,20.91,0,0,1-2.41,1c.52.34.2.51.43,1.07A12.3,12.3,0,0,1,5.72,9.27Z" fill="#edeef4"/><path id="Trazado_1748-3" data-name="Trazado 1748-3" d="M24.44,12a1.25,1.25,0,0,0-.53-.4L22.73,11l-.94,1a7.45,7.45,0,0,1,2.6.94A1.16,1.16,0,0,0,24.44,12Z" fill="#edeef4"/><path id="Trazado_1749-3" data-name="Trazado 1749-3" d="M7.82,6.3c-.14.35-.29.7-.44,1L10.09,8a1.5,1.5,0,0,1,.29-.88A12.65,12.65,0,0,1,7.82,6.3Z" fill="#edeef4"/><path id="Trazado_1750-3" data-name="Trazado 1750-3" d="M14.38,3.37,12,3.25a2.64,2.64,0,0,0-.55,1,9.54,9.54,0,0,1,2.77.14A1.65,1.65,0,0,1,14.38,3.37Z" fill="#edeef4"/><path id="Trazado_1751-3" data-name="Trazado 1751-3" d="M8.17,10.65l1.17,0a1.33,1.33,0,0,1-.18-1.09,1.81,1.81,0,0,0,0-1.13l-.82-.19Z" fill="#edeef4"/><path id="Trazado_1752-3" data-name="Trazado 1752-3" d="M22.42,7.23l-.49-.62L20,7c.27.32.55.63.82.94Z" fill="#edeef4"/><path id="Trazado_1753-3" data-name="Trazado 1753-3" d="M9.3,17.19c-.16-.2-.32-.41-.49-.61L6.88,17c.27.32.55.63.82.94Z" fill="#edeef4"/><path id="Trazado_1754-3" data-name="Trazado 1754-3" d="M26.26,9.2a.52.52,0,0,0-.77-.59.93.93,0,0,0-.15.13,3.88,3.88,0,0,0-.94,1.72,1.85,1.85,0,0,1,1,.32,1.67,1.67,0,0,1,.4-1A2,2,0,0,0,26.26,9.2Z" fill="#edeef4"/><path id="Trazado_1755-3" data-name="Trazado 1755-3" d="M15.46,19a.52.52,0,0,0-.77-.59,1,1,0,0,0-.15.14,3.88,3.88,0,0,0-.94,1.72,1.92,1.92,0,0,1,1,.31,1.72,1.72,0,0,1,.4-1A1.73,1.73,0,0,0,15.46,19Z" fill="#edeef4"/><path id="Trazado_1756-3" data-name="Trazado 1756-3" d="M8.32,14.82l.89.59,1.22-1.62-.88-.09Z" fill="#edeef4"/><path id="Trazado_1757-3" data-name="Trazado 1757-3" d="M3.61,11.66a.21.21,0,0,0,.16.11L5,12.25a5.48,5.48,0,0,1,1.29-2A3.3,3.3,0,0,1,5,10.05L3.71,11.42C3.64,11.49,3.57,11.58,3.61,11.66Z" fill="#edeef4"/><path id="Trazado_1758-3" data-name="Trazado 1758-3" d="M23.58,19a.28.28,0,0,0,.16.12l1.26.47a5.83,5.83,0,0,1,1.3-2A3.48,3.48,0,0,1,25,17.37c-.45.45-.89.91-1.34,1.37C23.62,18.8,23.55,18.89,23.58,19Z" fill="#edeef4"/><path id="Trazado_1759-3" data-name="Trazado 1759-3" d="M21.63,19.47A4.63,4.63,0,0,1,23,17.88l-1-.46-1.52,1.35Z" fill="#edeef4"/><path id="Trazado_1760-3" data-name="Trazado 1760-3" d="M9.94,19.21l1.07.56a11.56,11.56,0,0,1,1.37-1.68.46.46,0,0,0-.39-.25Z" fill="#edeef4"/><path id="Trazado_1761-3" data-name="Trazado 1761-3" d="M4.69,5.61,3.36,7l.93.52L5.53,5.9Z" fill="#edeef4"/><path id="Trazado_1762-3" data-name="Trazado 1762-3" d="M9.22,3.77a1.55,1.55,0,0,0-.71,0l-1.23.15.27,1a4.65,4.65,0,0,1,2.27-.39A1.28,1.28,0,0,0,9.22,3.77Z" fill="#edeef4"/><path id="Trazado_1763-3" data-name="Trazado 1763-3" d="M28.79,11.76a1,1,0,0,0,.28.22.56.56,0,0,0,.52-.05.51.51,0,0,0,.21-.46A8.87,8.87,0,0,1,28.61,10l-1.19.44Z" fill="#edeef4"/><path id="Trazado_1764-3" data-name="Trazado 1764-3" d="M19.78,17.33a.89.89,0,0,0,.29.22.54.54,0,0,0,.52-.05.49.49,0,0,0,.2-.46,8.8,8.8,0,0,1-1.19-1.47L18.42,16Z" fill="#edeef4"/><path id="Trazado_1765-3" data-name="Trazado 1765-3" d="M22.13,6.34a.89.89,0,0,0,.29.22.51.51,0,0,0,.52,0,.47.47,0,0,0,.2-.45A8.87,8.87,0,0,1,22,4.58L20.76,5Z" fill="#edeef4"/><path id="Trazado_1766-3" data-name="Trazado 1766-3" d="M13.22,6.9a1,1,0,0,0,.29.22.51.51,0,0,0,.68-.24.41.41,0,0,0,0-.27,8.27,8.27,0,0,1-1.18-1.47l-1.19.44Z" fill="#edeef4"/><path id="Trazado_1767-3" data-name="Trazado 1767-3" d="M23,3.23a4.61,4.61,0,0,1-1.81-.18c-.11.28-.21.57-.31.85a7.89,7.89,0,0,1,2.32.23A1.37,1.37,0,0,1,23,3.23Z" fill="#edeef4"/><path id="Trazado_1768-3" data-name="Trazado 1768-3" d="M12.46,13.7a2.25,2.25,0,0,1-1.14-1.49l-1.11.39a8,8,0,0,1,1.4,1.84Z" fill="#edeef4"/><path id="Trazado_1769-3" data-name="Trazado 1769-3" d="M16.44,2.68A2.23,2.23,0,0,1,15.3,1.2l-1.1.38a8.25,8.25,0,0,1,1.39,1.84C15.88,3.18,16.16,2.93,16.44,2.68Z" fill="#edeef4"/><path id="Trazado_1770-3" data-name="Trazado 1770-3" d="M20.37,20.79a2.28,2.28,0,0,1-1.14-1.49l-1.1.39a8,8,0,0,1,1.39,1.84Z" fill="#edeef4"/><path id="Trazado_1771-3" data-name="Trazado 1771-3" d="M19.78,15.18a.49.49,0,0,0,.33.35.49.49,0,0,0,.48-.09l.68-1.56a4.69,4.69,0,0,0-.92-.06A1.86,1.86,0,0,0,19.78,15,.89.89,0,0,0,19.78,15.18Z" fill="#edeef4"/><path id="Trazado_1772-3" data-name="Trazado 1772-3" d="M15.65,14.14c0-.1-.15-.13-.26-.15l-.79-.11c-.43.49-.87,1-1.3,1.48l.92.41,1.33-1.41A.24.24,0,0,0,15.65,14.14Z" fill="#edeef4"/><path id="Trazado_1773-3" data-name="Trazado 1773-3" d="M3.49,14.65a6.59,6.59,0,0,1,2,1.22l.81-1A12.34,12.34,0,0,1,4.37,14Z" fill="#edeef4"/></g><g id="Grupo_535" data-name="Grupo 535"><path id="Trazado_1744-4" data-name="Trazado 1744-4" d="M26.15,5.82a1.09,1.09,0,0,0-.61-.13l-1.44,0c0,.24,0,.48,0,.72a4.66,4.66,0,0,1,2.28.27A1,1,0,0,0,26.15,5.82Z" fill="none"/><path id="Trazado_1745-4" data-name="Trazado 1745-4" d="M30.06,13.62a1.14,1.14,0,0,0-.61-.13l-1.43,0c0,.24,0,.48,0,.73a4.61,4.61,0,0,1,2.27.26A1,1,0,0,0,30.06,13.62Z" fill="none"/><path id="Trazado_1746-4" data-name="Trazado 1746-4" d="M28,14.94q-.36-.37-.72-.72-1.15.66-2.34,1.2a1.55,1.55,0,0,1,.7,1.06A15,15,0,0,1,28,14.94Z" fill="none"/><path id="Trazado_1747-4" data-name="Trazado 1747-4" d="M5.72,9.27c-.37-.34-.33-.41-.7-.74a20.91,20.91,0,0,1-2.41,1c.52.34.2.51.43,1.07A12.3,12.3,0,0,1,5.72,9.27Z" fill="none"/><path id="Trazado_1748-4" data-name="Trazado 1748-4" d="M24.44,12a1.25,1.25,0,0,0-.53-.4L22.73,11l-.94,1a7.45,7.45,0,0,1,2.6.94A1.16,1.16,0,0,0,24.44,12Z" fill="none"/><path id="Trazado_1749-4" data-name="Trazado 1749-4" d="M7.82,6.3c-.14.35-.29.7-.44,1L10.09,8a1.5,1.5,0,0,1,.29-.88A12.65,12.65,0,0,1,7.82,6.3Z" fill="none"/><path id="Trazado_1750-4" data-name="Trazado 1750-4" d="M14.38,3.37,12,3.25a2.64,2.64,0,0,0-.55,1,9.54,9.54,0,0,1,2.77.14A1.65,1.65,0,0,1,14.38,3.37Z" fill="none"/><path id="Trazado_1751-4" data-name="Trazado 1751-4" d="M8.17,10.65l1.17,0a1.33,1.33,0,0,1-.18-1.09,1.81,1.81,0,0,0,0-1.13l-.82-.19Z" fill="none"/><path id="Trazado_1752-4" data-name="Trazado 1752-4" d="M22.42,7.23l-.49-.62L20,7c.27.32.55.63.82.94Z" fill="none"/><path id="Trazado_1753-4" data-name="Trazado 1753-4" d="M9.3,17.19c-.16-.2-.32-.41-.49-.61L6.88,17c.27.32.55.63.82.94Z" fill="none"/><path id="Trazado_1754-4" data-name="Trazado 1754-4" d="M26.26,9.2a.52.52,0,0,0-.77-.59.93.93,0,0,0-.15.13,3.88,3.88,0,0,0-.94,1.72,1.85,1.85,0,0,1,1,.32,1.67,1.67,0,0,1,.4-1A2,2,0,0,0,26.26,9.2Z" fill="none"/><path id="Trazado_1755-4" data-name="Trazado 1755-4" d="M15.46,19a.52.52,0,0,0-.77-.59,1,1,0,0,0-.15.14,3.88,3.88,0,0,0-.94,1.72,1.92,1.92,0,0,1,1,.31,1.72,1.72,0,0,1,.4-1A1.73,1.73,0,0,0,15.46,19Z" fill="none"/><path id="Trazado_1756-4" data-name="Trazado 1756-4" d="M8.32,14.82l.89.59,1.22-1.62-.88-.09Z" fill="none"/><path id="Trazado_1757-4" data-name="Trazado 1757-4" d="M3.61,11.66a.21.21,0,0,0,.16.11L5,12.25a5.48,5.48,0,0,1,1.29-2A3.3,3.3,0,0,1,5,10.05L3.71,11.42C3.64,11.49,3.57,11.58,3.61,11.66Z" fill="none"/><path id="Trazado_1758-4" data-name="Trazado 1758-4" d="M23.58,19a.28.28,0,0,0,.16.12l1.26.47a5.83,5.83,0,0,1,1.3-2A3.48,3.48,0,0,1,25,17.37c-.45.45-.89.91-1.34,1.37C23.62,18.8,23.55,18.89,23.58,19Z" fill="none"/><path id="Trazado_1759-4" data-name="Trazado 1759-4" d="M21.63,19.47A4.63,4.63,0,0,1,23,17.88l-1-.46-1.52,1.35Z" fill="none"/><path id="Trazado_1760-4" data-name="Trazado 1760-4" d="M9.94,19.21l1.07.56a11.56,11.56,0,0,1,1.37-1.68.46.46,0,0,0-.39-.25Z" fill="none"/><path id="Trazado_1761-4" data-name="Trazado 1761-4" d="M4.69,5.61,3.36,7l.93.52L5.53,5.9Z" fill="none"/><path id="Trazado_1762-4" data-name="Trazado 1762-4" d="M9.22,3.77a1.55,1.55,0,0,0-.71,0l-1.23.15.27,1a4.65,4.65,0,0,1,2.27-.39A1.28,1.28,0,0,0,9.22,3.77Z" fill="none"/><path id="Trazado_1763-4" data-name="Trazado 1763-4" d="M28.79,11.76a1,1,0,0,0,.28.22.56.56,0,0,0,.52-.05.51.51,0,0,0,.21-.46A8.87,8.87,0,0,1,28.61,10l-1.19.44Z" fill="none"/><path id="Trazado_1764-4" data-name="Trazado 1764-4" d="M19.78,17.33a.89.89,0,0,0,.29.22.54.54,0,0,0,.52-.05.49.49,0,0,0,.2-.46,8.8,8.8,0,0,1-1.19-1.47L18.42,16Z" fill="none"/><path id="Trazado_1765-4" data-name="Trazado 1765-4" d="M22.13,6.34a.89.89,0,0,0,.29.22.51.51,0,0,0,.52,0,.47.47,0,0,0,.2-.45A8.87,8.87,0,0,1,22,4.58L20.76,5Z" fill="none"/><path id="Trazado_1766-4" data-name="Trazado 1766-4" d="M13.22,6.9a1,1,0,0,0,.29.22.51.51,0,0,0,.68-.24.41.41,0,0,0,0-.27,8.27,8.27,0,0,1-1.18-1.47l-1.19.44Z" fill="none"/><path id="Trazado_1767-4" data-name="Trazado 1767-4" d="M23,3.23a4.61,4.61,0,0,1-1.81-.18c-.11.28-.21.57-.31.85a7.89,7.89,0,0,1,2.32.23A1.37,1.37,0,0,1,23,3.23Z" fill="none"/><path id="Trazado_1768-4" data-name="Trazado 1768-4" d="M12.46,13.7a2.25,2.25,0,0,1-1.14-1.49l-1.11.39a8,8,0,0,1,1.4,1.84Z" fill="none"/><path id="Trazado_1769-4" data-name="Trazado 1769-4" d="M16.44,2.68A2.23,2.23,0,0,1,15.3,1.2l-1.1.38a8.25,8.25,0,0,1,1.39,1.84C15.88,3.18,16.16,2.93,16.44,2.68Z" fill="none"/><path id="Trazado_1770-4" data-name="Trazado 1770-4" d="M20.37,20.79a2.28,2.28,0,0,1-1.14-1.49l-1.1.39a8,8,0,0,1,1.39,1.84Z" fill="none"/><path id="Trazado_1771-4" data-name="Trazado 1771-4" d="M19.78,15.18a.49.49,0,0,0,.33.35.49.49,0,0,0,.48-.09l.68-1.56a4.69,4.69,0,0,0-.92-.06A1.86,1.86,0,0,0,19.78,15,.89.89,0,0,0,19.78,15.18Z" fill="none"/><path id="Trazado_1772-4" data-name="Trazado 1772-4" d="M15.65,14.14c0-.1-.15-.13-.26-.15l-.79-.11c-.43.49-.87,1-1.3,1.48l.92.41,1.33-1.41A.24.24,0,0,0,15.65,14.14Z" fill="none"/><path id="Trazado_1773-4" data-name="Trazado 1773-4" d="M3.49,14.65a6.59,6.59,0,0,1,2,1.22l.81-1A12.34,12.34,0,0,1,4.37,14Z" fill="none"/><path id="Trazado_1778" data-name="Trazado 1778" d="M12.88,16.47a1.32,1.32,0,0,0-.54-.39l-1.18-.58-.94,1.05a7.17,7.17,0,0,1,2.6.93A1.13,1.13,0,0,0,12.88,16.47Z" fill="none"/><path id="Trazado_1779" data-name="Trazado 1779" d="M19.72,2.16a1.2,1.2,0,0,0-.54-.39L18,1.19l-.94,1.05a7.24,7.24,0,0,1,2.6.93A1.16,1.16,0,0,0,19.72,2.16Z" fill="none"/><path id="Trazado_1780" data-name="Trazado 1780" d="M12.88,16.47a1.32,1.32,0,0,0-.54-.39l-1.18-.58-.94,1.05a7.17,7.17,0,0,1,2.6.93A1.13,1.13,0,0,0,12.88,16.47Z" fill="none"/><path id="Trazado_1781" data-name="Trazado 1781" d="M6.19,13.48l.89.59L8.3,12.45l-.88-.09Z" fill="none"/><path id="Trazado_1782" data-name="Trazado 1782" d="M22.61,15.85a.49.49,0,0,0,.33.35.54.54,0,0,0,.49-.08c.22-.53.45-1.05.67-1.57a4.69,4.69,0,0,0-.92-.06,1.86,1.86,0,0,0-.57,1.13A.89.89,0,0,0,22.61,15.85Z" fill="none"/><path id="Trazado_1783" data-name="Trazado 1783" d="M16.71,18.23a1.06,1.06,0,0,0,.29.22.56.56,0,0,0,.52-.05.48.48,0,0,0,.2-.46,8.87,8.87,0,0,1-1.19-1.48l-1.18.44Z" fill="none"/></g></g></g></g></g></svg>