<svg xmlns="http://www.w3.org/2000/svg" viewBox="0 0 79.7 67.27"><title>Dona_Glaseado</title><g id="Capa_2" data-name="Capa 2"><g id="Capa_1-2" data-name="Capa 1"><g id="Grupo_585" data-name="Grupo 585"><g id="Dona"><g id="Grupo_647" data-name="Grupo 647"><path id="Trazado_357" data-name="Trazado 357" d="M77,22.32c-1.62-5.52-26-16.57-42-13.63-5.44,1-9.94,4.18-14.63,5.89C-3.14,23.19-2.71,39.68,6.73,52.88c5.34,7.46,19.83,15.28,36.3,14.3C89.55,64.42,77,22.32,77,22.32Zm-23.23,8c.1.1.18.21.27.31C56.83,32.54,52.89,29.52,53.78,30.35Z" fill="#bf8320"/><path id="Trazado_1814" data-name="Trazado 1814" d="M78.2,34.89C77.06,34.13,56,53.85.77,38.32c-.07.2-.12.41-.17.61.48,2.65,1.63,4.63,2.26,7.15,7.89,8,35.25,11.91,73.06,1.29C77.59,43.85,79.33,35.65,78.2,34.89Z" fill="#b9640f"/></g></g><g id="Cubierta_de_Glaseado" data-name="Cubierta de Glaseado"><path id="Trazado_1775" data-name="Trazado 1775" d="M70,52.57c.6-1.88-.12-4.91,1-6.44s4-1.94,5.47-3c2.61-1.8,2.62-5.4,3-8.25,1.42-11.58-2.93-22.17-21-29.76C49.1,1.21,29.2-3,11.53,9.6,1,17.09-1.06,25.14.43,34.66,1,38.27,4.31,45.57,8.5,47.1c2,.75,3.55.14,5.49,1.66a12.3,12.3,0,0,1,3.4,4.34c2.23,4.26,4.92,4.92,9.73,4.7,2.63-.13,3.82-.49,5.95,1.2a9.12,9.12,0,0,0,5.3,2.27c4.52.25,6.57-5.73,11.41-2.31,1.76,1.24,3.71,1.08,5.93,0s1.2-2,3-3.34C62.36,52.9,67.93,59.18,70,52.57Z" fill="#edeef4"/><g id="Grupo_522" data-name="Grupo 522"><g id="Grupo_479" data-name="Grupo 479"><path id="Trazado_1710" data-name="Trazado 1710" d="M67.33,52.22c1.3,0,1-1.37,0-1.4S65.8,52.17,67.33,52.22Z" fill="#fff"/></g><g id="Grupo_480" data-name="Grupo 480"><path id="Trazado_1711" data-name="Trazado 1711" d="M33.39,39.4c.61-1.19-.83-1.54-1.31-.6S32.68,40.8,33.39,39.4Z" fill="#fff"/></g><g id="Grupo_483" data-name="Grupo 483"><path id="Trazado_1714" data-name="Trazado 1714" d="M22.9,29.74c-1.22.12-.77,1.41.19,1.31S24.34,29.6,22.9,29.74Z" fill="#fff"/></g><g id="Grupo_484" data-name="Grupo 484"><path id="Trazado_1715" data-name="Trazado 1715" d="M21.76,29.43c-.16,1.71,1.72,1.44,1.84.1S21.94,27.43,21.76,29.43Z" fill="#fff"/></g><g id="Grupo_485" data-name="Grupo 485"><path id="Trazado_1716" data-name="Trazado 1716" d="M58,30.73c-.32.74.56.89.81.31S58.34,29.86,58,30.73Z" fill="#fff"/></g><g id="Grupo_486" data-name="Grupo 486"><path id="Trazado_1717" data-name="Trazado 1717" d="M52.7,31.52c.67,1.29,1.9.24,1.36-.78S51.91,30,52.7,31.52Z" fill="#fff"/></g><g id="Grupo_487" data-name="Grupo 487"><path id="Trazado_1718" data-name="Trazado 1718" d="M11.17,33.39c-.53.54.19,1,.6.54S11.79,32.76,11.17,33.39Z" fill="#fff"/></g><g id="Grupo_488" data-name="Grupo 488"><path id="Trazado_1719" data-name="Trazado 1719" d="M22.67,48.26c-.26,1.21,1.12,1.17,1.31.21S23,46.83,22.67,48.26Z" fill="#fff"/></g><g id="Grupo_489" data-name="Grupo 489"><path id="Trazado_1720" data-name="Trazado 1720" d="M31.49,47c.18-1.56-1.56-1.35-1.69-.12S31.28,48.81,31.49,47Z" fill="#fff"/></g><g id="Grupo_490" data-name="Grupo 490"><path id="Trazado_1721" data-name="Trazado 1721" d="M36.69,39.3c.9,1,1.75-.23,1-1S35.63,38.13,36.69,39.3Z" fill="#fff"/></g><g id="Grupo_491" data-name="Grupo 491"><path id="Trazado_1722" data-name="Trazado 1722" d="M49.76,28.81c-.68,1.5,1.11,1.84,1.64.66S50.57,27.05,49.76,28.81Z" fill="#fff"/></g><g id="Grupo_492" data-name="Grupo 492"><path id="Trazado_1723" data-name="Trazado 1723" d="M59.16,44c-.46,1.31,1.07,1.46,1.42.43S59.69,42.48,59.16,44Z" fill="#fff"/></g><g id="Grupo_493" data-name="Grupo 493"><path id="Trazado_1724" data-name="Trazado 1724" d="M61,24.91c-.45-.56-.94.08-.58.52S61.51,25.57,61,24.91Z" fill="#fff"/></g><g id="Grupo_494" data-name="Grupo 494"><path id="Trazado_1725" data-name="Trazado 1725" d="M55.28,52.54c1.06.51,1.34-.76.51-1.16S54.05,51.93,55.28,52.54Z" fill="#fff"/></g><g id="Grupo_495" data-name="Grupo 495"><path id="Trazado_1726" data-name="Trazado 1726" d="M55.64,41.36c-.9-.37-1.07.7-.35,1S56.71,41.79,55.64,41.36Z" fill="#fff"/></g><g id="Grupo_497" data-name="Grupo 497"><path id="Trazado_1728" data-name="Trazado 1728" d="M52.58,27.53c.5.8,1.23.06.84-.56S52,26.6,52.58,27.53Z" fill="#fff"/></g><g id="Grupo_498" data-name="Grupo 498"><path id="Trazado_1729" data-name="Trazado 1729" d="M45.41,38.76c-.07,1.56,1.63,1.24,1.68,0S45.5,36.93,45.41,38.76Z" fill="#fff"/></g><g id="Grupo_499" data-name="Grupo 499"><path id="Trazado_1730" data-name="Trazado 1730" d="M31.7,40.35c-.73,1.13.68,1.63,1.25.74S32.55,39,31.7,40.35Z" fill="#fff"/></g><g id="Grupo_500" data-name="Grupo 500"><path id="Trazado_1731" data-name="Trazado 1731" d="M29.79,32.44c.86.75,1.44-.37.76-.95S28.78,31.57,29.79,32.44Z" fill="#fff"/></g><g id="Grupo_501" data-name="Grupo 501"><path id="Trazado_1732" data-name="Trazado 1732" d="M16,49.33c1.18-.72.1-1.81-.83-1.24S14.61,50.17,16,49.33Z" fill="#fff"/></g><g id="Grupo_502" data-name="Grupo 502"><path id="Trazado_1733" data-name="Trazado 1733" d="M40.35,53.47c1.62.09,1.3-1.69,0-1.74S38.44,53.37,40.35,53.47Z" fill="#fff"/></g><g id="Grupo_503" data-name="Grupo 503"><path id="Trazado_1734" data-name="Trazado 1734" d="M16.14,47.83c1,.22,1-.9.18-1.06S15,47.58,16.14,47.83Z" fill="#fff"/></g><g id="Grupo_504" data-name="Grupo 504"><path id="Trazado_1735" data-name="Trazado 1735" d="M27.51,8.08c-.86,0-.6.95.08.92S28.51,8,27.51,8.08Z" fill="#fff"/></g><g id="Grupo_505" data-name="Grupo 505"><path id="Trazado_1736" data-name="Trazado 1736" d="M48.64,48.92c-.48.78.48,1.09.85.47S49.19,48,48.64,48.92Z" fill="#fff"/></g><g id="Grupo_506" data-name="Grupo 506"><path id="Trazado_1737" data-name="Trazado 1737" d="M44,11.38c.81.66,1.32-.39.67-.91S43.05,10.6,44,11.38Z" fill="#fff"/></g><g id="Grupo_507" data-name="Grupo 507"><path id="Trazado_1738" data-name="Trazado 1738" d="M19.94,44c.69.29.82-.53.27-.75S19.13,43.63,19.94,44Z" fill="#fff"/></g><g id="Grupo_508" data-name="Grupo 508"><path id="Trazado_1739" data-name="Trazado 1739" d="M20.69,30.85c.1-1-1-.84-1.07-.06S20.56,32,20.69,30.85Z" fill="#fff"/></g><g id="Grupo_509" data-name="Grupo 509"><path id="Trazado_1740" data-name="Trazado 1740" d="M31.34,46.33c-.93-.26-1,.81-.25,1S32.42,46.65,31.34,46.33Z" fill="#fff"/></g><g id="Grupo_510" data-name="Grupo 510"><path id="Trazado_1741" data-name="Trazado 1741" d="M24.78,41.79c.63-.77-.36-1.25-.86-.65S24,42.69,24.78,41.79Z" fill="#fff"/></g><g id="Grupo_511" data-name="Grupo 511"><path id="Trazado_1742" data-name="Trazado 1742" d="M48.64,51.37c.78.51,1.12-.46.51-.85S47.73,50.78,48.64,51.37Z" fill="#fff"/></g></g><g id="Grupo_523" data-name="Grupo 523"><g id="Grupo_479-2" data-name="Grupo 479-2"><path id="Trazado_1710-2" data-name="Trazado 1710-2" d="M68.5,44.57c1.31,0,1-1.37,0-1.4S67,44.52,68.5,44.57Z" fill="#fff"/></g><g id="Grupo_480-2" data-name="Grupo 480-2"><path id="Trazado_1711-2" data-name="Trazado 1711-2" d="M34.57,31.76c.6-1.2-.84-1.54-1.31-.6S33.86,33.15,34.57,31.76Z" fill="#fff"/></g><g id="Grupo_481" data-name="Grupo 481"><path id="Trazado_1712" data-name="Trazado 1712" d="M30.58,21.44c-.13,1.42,1.44,1.19,1.53.07S30.72,19.77,30.58,21.44Z" fill="#fff"/></g><g id="Grupo_482" data-name="Grupo 482"><path id="Trazado_1713" data-name="Trazado 1713" d="M39.47,11.66c1.09,0,.78-1.2-.08-1.17S38.2,11.7,39.47,11.66Z" fill="#fff"/></g><g id="Grupo_483-2" data-name="Grupo 483-2"><path id="Trazado_1714-2" data-name="Trazado 1714-2" d="M24.08,22.1c-1.23.12-.78,1.41.18,1.3S25.51,22,24.08,22.1Z" fill="#fff"/></g><g id="Grupo_484-2" data-name="Grupo 484-2"><path id="Trazado_1715-2" data-name="Trazado 1715-2" d="M22.93,21.79c-.15,1.7,1.73,1.43,1.84.1S23.11,19.79,22.93,21.79Z" fill="#fff"/></g><g id="Grupo_487-2" data-name="Grupo 487-2"><path id="Trazado_1718-2" data-name="Trazado 1718-2" d="M12.35,25.74c-.53.54.19,1,.6.55S13,25.11,12.35,25.74Z" fill="#fff"/></g><g id="Grupo_488-2" data-name="Grupo 488-2"><path id="Trazado_1719-2" data-name="Trazado 1719-2" d="M23.84,40.62c-.25,1.21,1.13,1.17,1.32.21S24.14,39.19,23.84,40.62Z" fill="#fff"/></g><g id="Grupo_489-2" data-name="Grupo 489-2"><path id="Trazado_1720-2" data-name="Trazado 1720-2" d="M32.67,39.33c.17-1.57-1.56-1.35-1.7-.12S32.46,41.17,32.67,39.33Z" fill="#fff"/></g><g id="Grupo_490-2" data-name="Grupo 490-2"><path id="Trazado_1721-2" data-name="Trazado 1721-2" d="M37.87,31.66c.9,1,1.75-.24,1-1S36.8,30.48,37.87,31.66Z" fill="#fff"/></g><g id="Grupo_492-2" data-name="Grupo 492-2"><path id="Trazado_1723-2" data-name="Trazado 1723-2" d="M60.34,36.38c-.46,1.31,1.06,1.46,1.42.43S60.87,34.84,60.34,36.38Z" fill="#fff"/></g><g id="Grupo_493-2" data-name="Grupo 493-2"><path id="Trazado_1724-2" data-name="Trazado 1724-2" d="M62.15,17.27c-.46-.56-.95.08-.58.52S62.69,17.93,62.15,17.27Z" fill="#fff"/></g><g id="Grupo_494-2" data-name="Grupo 494-2"><path id="Trazado_1725-2" data-name="Trazado 1725-2" d="M56.46,44.89c1,.52,1.34-.75.5-1.15S55.22,44.29,56.46,44.89Z" fill="#fff"/></g><g id="Grupo_495-2" data-name="Grupo 495-2"><path id="Trazado_1726-2" data-name="Trazado 1726-2" d="M56.82,33.71c-.91-.37-1.07.71-.36,1S57.88,34.15,56.82,33.71Z" fill="#fff"/></g><g id="Grupo_496" data-name="Grupo 496"><path id="Trazado_1727" data-name="Trazado 1727" d="M72.48,40.06c1-.3.42-1.3-.36-1.06S71.31,40.4,72.48,40.06Z" fill="#fff"/></g><g id="Grupo_498-2" data-name="Grupo 498-2"><path id="Trazado_1729-2" data-name="Trazado 1729-2" d="M46.59,31.12c-.08,1.56,1.62,1.24,1.68,0S46.68,29.28,46.59,31.12Z" fill="#fff"/></g><g id="Grupo_499-2" data-name="Grupo 499-2"><path id="Trazado_1730-2" data-name="Trazado 1730-2" d="M32.87,32.71c-.73,1.13.68,1.63,1.26.73S33.73,31.37,32.87,32.71Z" fill="#fff"/></g><g id="Grupo_500-2" data-name="Grupo 500-2"><path id="Trazado_1731-2" data-name="Trazado 1731-2" d="M31,24.8c.86.75,1.45-.37.77-1S30,23.92,31,24.8Z" fill="#fff"/></g><g id="Grupo_502-2" data-name="Grupo 502-2"><path id="Trazado_1733-2" data-name="Trazado 1733-2" d="M41.52,45.83c1.63.08,1.3-1.69,0-1.75S39.62,45.73,41.52,45.83Z" fill="#fff"/></g><g id="Grupo_503-2" data-name="Grupo 503-2"><path id="Trazado_1734-2" data-name="Trazado 1734-2" d="M17.31,40.19c1,.21,1-.9.19-1.07S16.16,39.94,17.31,40.19Z" fill="#fff"/></g><g id="Grupo_505-2" data-name="Grupo 505-2"><path id="Trazado_1736-2" data-name="Trazado 1736-2" d="M49.81,41.27c-.47.78.49,1.09.86.48S50.37,40.36,49.81,41.27Z" fill="#fff"/></g><g id="Grupo_506-2" data-name="Grupo 506-2"><path id="Trazado_1737-2" data-name="Trazado 1737-2" d="M45.19,3.74c.81.66,1.31-.39.67-.91S44.22,3,45.19,3.74Z" fill="#fff"/></g><g id="Grupo_507-2" data-name="Grupo 507-2"><path id="Trazado_1738-2" data-name="Trazado 1738-2" d="M21.12,36.32c.68.28.81-.53.27-.75S20.31,36,21.12,36.32Z" fill="#fff"/></g><g id="Grupo_508-2" data-name="Grupo 508-2"><path id="Trazado_1739-2" data-name="Trazado 1739-2" d="M21.86,23.21c.11-1-1-.84-1.06-.07S21.74,24.37,21.86,23.21Z" fill="#fff"/></g><g id="Grupo_509-2" data-name="Grupo 509-2"><path id="Trazado_1740-2" data-name="Trazado 1740-2" d="M32.51,38.69c-.92-.26-1,.8-.24,1S33.6,39,32.51,38.69Z" fill="#fff"/></g><g id="Grupo_510-2" data-name="Grupo 510-2"><path id="Trazado_1741-2" data-name="Trazado 1741-2" d="M26,34.15c.63-.77-.36-1.26-.85-.65S25.21,35.05,26,34.15Z" fill="#fff"/></g><g id="Grupo_511-2" data-name="Grupo 511-2"><path id="Trazado_1742-2" data-name="Trazado 1742-2" d="M49.82,43.73c.77.51,1.12-.46.51-.86S48.9,43.13,49.82,43.73Z" fill="#fff"/></g></g><g id="Grupo_524" data-name="Grupo 524"><g id="Grupo_480-3" data-name="Grupo 480-3"><path id="Trazado_1711-3" data-name="Trazado 1711-3" d="M48.68,34.7c.6-1.2-.84-1.54-1.31-.6S48,36.09,48.68,34.7Z" fill="#fff"/></g><g id="Grupo_482-2" data-name="Grupo 482-2"><path id="Trazado_1713-2" data-name="Trazado 1713-2" d="M53.59,14.6c1.08,0,.77-1.2-.09-1.17S52.31,14.64,53.59,14.6Z" fill="#fff"/></g><g id="Grupo_485-2" data-name="Grupo 485-2"><path id="Trazado_1716-2" data-name="Trazado 1716-2" d="M73.25,26c-.32.74.56.9.81.32S73.63,25.15,73.25,26Z" fill="#fff"/></g><g id="Grupo_486-2" data-name="Grupo 486-2"><path id="Trazado_1717-2" data-name="Trazado 1717-2" d="M68,26.81c.67,1.3,1.9.24,1.37-.77S67.2,25.29,68,26.81Z" fill="#fff"/></g><g id="Grupo_488-3" data-name="Grupo 488-3"><path id="Trazado_1719-3" data-name="Trazado 1719-3" d="M38,43.55c-.25,1.22,1.13,1.18,1.32.22S38.25,42.13,38,43.55Z" fill="#fff"/></g><g id="Grupo_489-3" data-name="Grupo 489-3"><path id="Trazado_1720-3" data-name="Trazado 1720-3" d="M46.78,42.27c.17-1.57-1.56-1.35-1.69-.12S46.57,44.11,46.78,42.27Z" fill="#fff"/></g><g id="Grupo_490-3" data-name="Grupo 490-3"><path id="Trazado_1721-3" data-name="Trazado 1721-3" d="M52,34.6c.9,1,1.75-.24,1-1S50.91,33.42,52,34.6Z" fill="#fff"/></g><g id="Grupo_491-2" data-name="Grupo 491-2"><path id="Trazado_1722-2" data-name="Trazado 1722-2" d="M65.05,24.1c-.68,1.5,1.11,1.85,1.64.67S65.85,22.35,65.05,24.1Z" fill="#fff"/></g><g id="Grupo_492-3" data-name="Grupo 492-3"><path id="Trazado_1723-3" data-name="Trazado 1723-3" d="M74.45,39.32c-.46,1.31,1.07,1.46,1.42.43S75,37.78,74.45,39.32Z" fill="#fff"/></g><g id="Grupo_493-3" data-name="Grupo 493-3"><path id="Trazado_1724-3" data-name="Trazado 1724-3" d="M76.26,20.21c-.46-.56-.94.08-.58.52S76.8,20.87,76.26,20.21Z" fill="#fff"/></g><g id="Grupo_495-3" data-name="Grupo 495-3"><path id="Trazado_1726-3" data-name="Trazado 1726-3" d="M70.93,36.65c-.9-.37-1.07.71-.36,1S72,37.09,70.93,36.65Z" fill="#fff"/></g><g id="Grupo_497-2" data-name="Grupo 497-2"><path id="Trazado_1728-2" data-name="Trazado 1728-2" d="M67.87,22.83c.49.8,1.22.06.83-.56S67.29,21.89,67.87,22.83Z" fill="#fff"/></g><g id="Grupo_498-3" data-name="Grupo 498-3"><path id="Trazado_1729-3" data-name="Trazado 1729-3" d="M60.7,34.06c-.08,1.56,1.63,1.24,1.68,0S60.79,32.22,60.7,34.06Z" fill="#fff"/></g><g id="Grupo_499-3" data-name="Grupo 499-3"><path id="Trazado_1730-3" data-name="Trazado 1730-3" d="M47,35.65c-.73,1.13.69,1.63,1.26.73S47.84,34.31,47,35.65Z" fill="#fff"/></g><g id="Grupo_501-2" data-name="Grupo 501-2"><path id="Trazado_1732-2" data-name="Trazado 1732-2" d="M31.28,44.62c1.18-.72.11-1.8-.82-1.23S29.9,45.47,31.28,44.62Z" fill="#fff"/></g><g id="Grupo_502-3" data-name="Grupo 502-3"><path id="Trazado_1733-3" data-name="Trazado 1733-3" d="M55.64,48.77c1.62.08,1.29-1.69,0-1.75S53.73,48.67,55.64,48.77Z" fill="#fff"/></g><g id="Grupo_503-3" data-name="Grupo 503-3"><path id="Trazado_1734-3" data-name="Trazado 1734-3" d="M31.42,43.13c1,.21,1-.9.19-1.07S30.27,42.88,31.42,43.13Z" fill="#fff"/></g><g id="Grupo_504-2" data-name="Grupo 504-2"><path id="Trazado_1735-2" data-name="Trazado 1735-2" d="M42.8,3.37c-.86,0-.6,1,.07.92S43.8,3.33,42.8,3.37Z" fill="#fff"/></g><g id="Grupo_505-3" data-name="Grupo 505-3"><path id="Trazado_1736-3" data-name="Trazado 1736-3" d="M63.92,44.21c-.47.78.49,1.09.86.48S64.48,43.3,63.92,44.21Z" fill="#fff"/></g><g id="Grupo_506-3" data-name="Grupo 506-3"><path id="Trazado_1737-3" data-name="Trazado 1737-3" d="M59.3,6.68c.81.66,1.32-.39.67-.91S58.34,5.89,59.3,6.68Z" fill="#fff"/></g><g id="Grupo_507-3" data-name="Grupo 507-3"><path id="Trazado_1738-3" data-name="Trazado 1738-3" d="M35.23,39.26c.68.28.81-.53.27-.75S34.42,38.93,35.23,39.26Z" fill="#fff"/></g><g id="Grupo_509-3" data-name="Grupo 509-3"><path id="Trazado_1740-3" data-name="Trazado 1740-3" d="M46.62,41.63c-.92-.27-1,.8-.24,1S47.71,41.94,46.62,41.63Z" fill="#fff"/></g><g id="Grupo_510-3" data-name="Grupo 510-3"><path id="Trazado_1741-3" data-name="Trazado 1741-3" d="M40.06,37.09c.63-.77-.36-1.26-.85-.65S39.32,38,40.06,37.09Z" fill="#fff"/></g><g id="Grupo_511-3" data-name="Grupo 511-3"><path id="Trazado_1742-3" data-name="Trazado 1742-3" d="M63.93,46.67c.77.51,1.12-.46.51-.86S63,46.07,63.93,46.67Z" fill="#fff"/></g></g><g id="Grupo_525" data-name="Grupo 525"><g id="Grupo_479-3" data-name="Grupo 479-3"><path id="Trazado_1710-3" data-name="Trazado 1710-3" d="M67.33,52.22c1.3,0,1-1.37,0-1.4S65.8,52.17,67.33,52.22Z" fill="#fff"/></g><g id="Grupo_480-4" data-name="Grupo 480-4"><path id="Trazado_1711-4" data-name="Trazado 1711-4" d="M33.39,39.4c.61-1.19-.83-1.54-1.31-.6S32.68,40.8,33.39,39.4Z" fill="#fff"/></g><g id="Grupo_483-3" data-name="Grupo 483-3"><path id="Trazado_1714-3" data-name="Trazado 1714-3" d="M22.9,29.74c-1.22.12-.77,1.41.19,1.31S24.34,29.6,22.9,29.74Z" fill="#fff"/></g><g id="Grupo_484-3" data-name="Grupo 484-3"><path id="Trazado_1715-3" data-name="Trazado 1715-3" d="M21.76,29.43c-.16,1.71,1.72,1.44,1.84.1S21.94,27.43,21.76,29.43Z" fill="#fff"/></g><g id="Grupo_485-3" data-name="Grupo 485-3"><path id="Trazado_1716-3" data-name="Trazado 1716-3" d="M58,30.73c-.32.74.56.89.81.31S58.34,29.86,58,30.73Z" fill="#fff"/></g><g id="Grupo_486-3" data-name="Grupo 486-3"><path id="Trazado_1717-3" data-name="Trazado 1717-3" d="M52.7,31.52c.67,1.29,1.9.24,1.36-.78S51.91,30,52.7,31.52Z" fill="#fff"/></g><g id="Grupo_487-3" data-name="Grupo 487-3"><path id="Trazado_1718-3" data-name="Trazado 1718-3" d="M11.17,33.39c-.53.54.19,1,.6.54S11.79,32.76,11.17,33.39Z" fill="#fff"/></g><g id="Grupo_488-4" data-name="Grupo 488-4"><path id="Trazado_1719-4" data-name="Trazado 1719-4" d="M22.67,48.26c-.26,1.21,1.12,1.17,1.31.21S23,46.83,22.67,48.26Z" fill="#fff"/></g><g id="Grupo_489-4" data-name="Grupo 489-4"><path id="Trazado_1720-4" data-name="Trazado 1720-4" d="M31.49,47c.18-1.56-1.56-1.35-1.69-.12S31.28,48.81,31.49,47Z" fill="#fff"/></g><g id="Grupo_490-4" data-name="Grupo 490-4"><path id="Trazado_1721-4" data-name="Trazado 1721-4" d="M36.69,39.3c.9,1,1.75-.23,1-1S35.63,38.13,36.69,39.3Z" fill="#fff"/></g><g id="Grupo_491-3" data-name="Grupo 491-3"><path id="Trazado_1722-3" data-name="Trazado 1722-3" d="M49.76,28.81c-.68,1.5,1.11,1.84,1.64.66S50.57,27.05,49.76,28.81Z" fill="#fff"/></g><g id="Grupo_492-4" data-name="Grupo 492-4"><path id="Trazado_1723-4" data-name="Trazado 1723-4" d="M59.16,44c-.46,1.31,1.07,1.46,1.42.43S59.69,42.48,59.16,44Z" fill="#fff"/></g><g id="Grupo_493-4" data-name="Grupo 493-4"><path id="Trazado_1724-4" data-name="Trazado 1724-4" d="M61,24.91c-.45-.56-.94.08-.58.52S61.51,25.57,61,24.91Z" fill="#fff"/></g><g id="Grupo_494-3" data-name="Grupo 494-3"><path id="Trazado_1725-3" data-name="Trazado 1725-3" d="M55.28,52.54c1.06.51,1.34-.76.51-1.16S54.05,51.93,55.28,52.54Z" fill="#fff"/></g><g id="Grupo_495-4" data-name="Grupo 495-4"><path id="Trazado_1726-4" data-name="Trazado 1726-4" d="M55.64,41.36c-.9-.37-1.07.7-.35,1S56.71,41.79,55.64,41.36Z" fill="#fff"/></g><g id="Grupo_497-3" data-name="Grupo 497-3"><path id="Trazado_1728-3" data-name="Trazado 1728-3" d="M52.58,27.53c.5.8,1.23.06.84-.56S52,26.6,52.58,27.53Z" fill="#fff"/></g><g id="Grupo_498-4" data-name="Grupo 498-4"><path id="Trazado_1729-4" data-name="Trazado 1729-4" d="M45.41,38.76c-.07,1.56,1.63,1.24,1.68,0S45.5,36.93,45.41,38.76Z" fill="#fff"/></g><g id="Grupo_499-4" data-name="Grupo 499-4"><path id="Trazado_1730-4" data-name="Trazado 1730-4" d="M31.7,40.35c-.73,1.13.68,1.63,1.25.74S32.55,39,31.7,40.35Z" fill="#fff"/></g><g id="Grupo_500-3" data-name="Grupo 500-3"><path id="Trazado_1731-3" data-name="Trazado 1731-3" d="M29.79,32.44c.86.75,1.44-.37.76-.95S28.78,31.57,29.79,32.44Z" fill="#fff"/></g><g id="Grupo_501-3" data-name="Grupo 501-3"><path id="Trazado_1732-3" data-name="Trazado 1732-3" d="M16,49.33c1.18-.72.1-1.81-.83-1.24S14.61,50.17,16,49.33Z" fill="#fff"/></g><g id="Grupo_502-4" data-name="Grupo 502-4"><path id="Trazado_1733-4" data-name="Trazado 1733-4" d="M40.35,53.47c1.62.09,1.3-1.69,0-1.74S38.44,53.37,40.35,53.47Z" fill="#fff"/></g><g id="Grupo_503-4" data-name="Grupo 503-4"><path id="Trazado_1734-4" data-name="Trazado 1734-4" d="M16.14,47.83c1,.22,1-.9.18-1.06S15,47.58,16.14,47.83Z" fill="#fff"/></g><g id="Grupo_504-3" data-name="Grupo 504-3"><path id="Trazado_1735-3" data-name="Trazado 1735-3" d="M27.51,8.08c-.86,0-.6.95.08.92S28.51,8,27.51,8.08Z" fill="#fff"/></g><g id="Grupo_505-4" data-name="Grupo 505-4"><path id="Trazado_1736-4" data-name="Trazado 1736-4" d="M48.64,48.92c-.48.78.48,1.09.85.47S49.19,48,48.64,48.92Z" fill="#fff"/></g><g id="Grupo_506-4" data-name="Grupo 506-4"><path id="Trazado_1737-4" data-name="Trazado 1737-4" d="M44,11.38c.81.66,1.32-.39.67-.91S43.05,10.6,44,11.38Z" fill="#fff"/></g><g id="Grupo_507-4" data-name="Grupo 507-4"><path id="Trazado_1738-4" data-name="Trazado 1738-4" d="M19.94,44c.69.29.82-.53.27-.75S19.13,43.63,19.94,44Z" fill="#fff"/></g><g id="Grupo_508-3" data-name="Grupo 508-3"><path id="Trazado_1739-3" data-name="Trazado 1739-3" d="M20.69,30.85c.1-1-1-.84-1.07-.06S20.56,32,20.69,30.85Z" fill="#fff"/></g><g id="Grupo_509-4" data-name="Grupo 509-4"><path id="Trazado_1740-4" data-name="Trazado 1740-4" d="M31.34,46.33c-.93-.26-1,.81-.25,1S32.42,46.65,31.34,46.33Z" fill="#fff"/></g><g id="Grupo_510-4" data-name="Grupo 510-4"><path id="Trazado_1741-4" data-name="Trazado 1741-4" d="M24.78,41.79c.63-.77-.36-1.25-.86-.65S24,42.69,24.78,41.79Z" fill="#fff"/></g><g id="Grupo_511-4" data-name="Grupo 511-4"><path id="Trazado_1742-4" data-name="Trazado 1742-4" d="M48.64,51.37c.78.51,1.12-.46.51-.85S47.73,50.78,48.64,51.37Z" fill="#fff"/></g></g><g id="Grupo_526" data-name="Grupo 526"><g id="Grupo_479-4" data-name="Grupo 479-4"><path id="Trazado_1710-4" data-name="Trazado 1710-4" d="M63.8,27.52c1.3.05,1-1.37,0-1.4S62.27,27.47,63.8,27.52Z" fill="#fff"/></g><g id="Grupo_480-5" data-name="Grupo 480-5"><path id="Trazado_1711-5" data-name="Trazado 1711-5" d="M29.86,14.71c.61-1.2-.83-1.54-1.3-.6S29.15,16.1,29.86,14.71Z" fill="#fff"/></g><g id="Grupo_481-2" data-name="Grupo 481-2"><path id="Trazado_1712-2" data-name="Trazado 1712-2" d="M25.87,4.39c-.12,1.42,1.44,1.19,1.54.07S26,2.72,25.87,4.39Z" fill="#fff"/></g><g id="Grupo_483-4" data-name="Grupo 483-4"><path id="Trazado_1714-4" data-name="Trazado 1714-4" d="M19.37,5.05c-1.22.12-.77,1.41.19,1.3S20.81,4.9,19.37,5.05Z" fill="#fff"/></g><g id="Grupo_485-4" data-name="Grupo 485-4"><path id="Trazado_1716-4" data-name="Trazado 1716-4" d="M54.44,6c-.33.74.55.9.8.32S54.81,5.16,54.44,6Z" fill="#fff"/></g><g id="Grupo_486-4" data-name="Grupo 486-4"><path id="Trazado_1717-4" data-name="Trazado 1717-4" d="M49.17,6.82c.67,1.3,1.9.24,1.36-.77S48.39,5.3,49.17,6.82Z" fill="#fff"/></g><g id="Grupo_488-5" data-name="Grupo 488-5"><path id="Trazado_1719-5" data-name="Trazado 1719-5" d="M19.14,23.56c-.26,1.22,1.12,1.18,1.31.22S19.44,22.14,19.14,23.56Z" fill="#fff"/></g><g id="Grupo_490-5" data-name="Grupo 490-5"><path id="Trazado_1721-5" data-name="Trazado 1721-5" d="M33.16,14.61c.91,1,1.75-.24,1-1S32.1,13.43,33.16,14.61Z" fill="#fff"/></g><g id="Grupo_491-4" data-name="Grupo 491-4"><path id="Trazado_1722-4" data-name="Trazado 1722-4" d="M46.24,4.11c-.69,1.5,1.1,1.85,1.63.67S47,2.36,46.24,4.11Z" fill="#fff"/></g><g id="Grupo_492-5" data-name="Grupo 492-5"><path id="Trazado_1723-5" data-name="Trazado 1723-5" d="M55.63,19.33c-.46,1.31,1.07,1.46,1.43.43S56.17,17.79,55.63,19.33Z" fill="#fff"/></g><g id="Grupo_493-5" data-name="Grupo 493-5"><path id="Trazado_1724-5" data-name="Trazado 1724-5" d="M57.45.22c-.46-.56-1,.08-.59.52S58,.88,57.45.22Z" fill="#fff"/></g><g id="Grupo_494-4" data-name="Grupo 494-4"><path id="Trazado_1725-4" data-name="Trazado 1725-4" d="M51.76,27.84c1.05.52,1.34-.75.5-1.15S50.52,27.24,51.76,27.84Z" fill="#fff"/></g><g id="Grupo_495-5" data-name="Grupo 495-5"><path id="Trazado_1726-5" data-name="Trazado 1726-5" d="M52.12,16.66c-.91-.37-1.08.71-.36,1S53.18,17.1,52.12,16.66Z" fill="#fff"/></g><g id="Grupo_496-2" data-name="Grupo 496-2"><path id="Trazado_1727-2" data-name="Trazado 1727-2" d="M67.78,23c1-.3.42-1.3-.36-1.06S66.6,23.35,67.78,23Z" fill="#fff"/></g><g id="Grupo_497-4" data-name="Grupo 497-4"><path id="Trazado_1728-4" data-name="Trazado 1728-4" d="M49.05,2.84c.5.8,1.23.06.84-.56S48.47,1.9,49.05,2.84Z" fill="#fff"/></g><g id="Grupo_498-5" data-name="Grupo 498-5"><path id="Trazado_1729-5" data-name="Trazado 1729-5" d="M41.88,14.07c-.07,1.56,1.63,1.24,1.69,0S42,12.23,41.88,14.07Z" fill="#fff"/></g><g id="Grupo_499-5" data-name="Grupo 499-5"><path id="Trazado_1730-5" data-name="Trazado 1730-5" d="M28.17,15.66c-.73,1.13.68,1.63,1.25.73S29,14.32,28.17,15.66Z" fill="#fff"/></g><g id="Grupo_500-4" data-name="Grupo 500-4"><path id="Trazado_1731-4" data-name="Trazado 1731-4" d="M26.26,7.75c.86.75,1.44-.37.76-1S25.25,6.87,26.26,7.75Z" fill="#fff"/></g><g id="Grupo_501-4" data-name="Grupo 501-4"><path id="Trazado_1732-4" data-name="Trazado 1732-4" d="M12.47,24.63c1.18-.72.1-1.8-.82-1.23S11.08,25.48,12.47,24.63Z" fill="#fff"/></g><g id="Grupo_503-5" data-name="Grupo 503-5"><path id="Trazado_1734-5" data-name="Trazado 1734-5" d="M12.61,23.14c1,.21,1-.9.19-1.07S11.46,22.89,12.61,23.14Z" fill="#fff"/></g><g id="Grupo_507-5" data-name="Grupo 507-5"><path id="Trazado_1738-5" data-name="Trazado 1738-5" d="M16.41,19.27c.69.28.82-.53.28-.75S15.61,18.94,16.41,19.27Z" fill="#fff"/></g><g id="Grupo_510-5" data-name="Grupo 510-5"><path id="Trazado_1741-5" data-name="Trazado 1741-5" d="M21.25,17.1c.63-.77-.36-1.26-.86-.65S20.51,18,21.25,17.1Z" fill="#fff"/></g></g><g id="Grupo_527" data-name="Grupo 527"><g id="Grupo_479-5" data-name="Grupo 479-5"><path id="Trazado_1710-5" data-name="Trazado 1710-5" d="M63.8,36.93c1.3,0,1-1.37,0-1.4S62.27,36.88,63.8,36.93Z" fill="#fff"/></g><g id="Grupo_481-3" data-name="Grupo 481-3"><path id="Trazado_1712-3" data-name="Trazado 1712-3" d="M25.87,13.8c-.12,1.42,1.44,1.19,1.54.07S26,12.13,25.87,13.8Z" fill="#fff"/></g><g id="Grupo_482-3" data-name="Grupo 482-3"><path id="Trazado_1713-3" data-name="Trazado 1713-3" d="M34.77,4c1.09,0,.78-1.2-.08-1.17S33.49,4.05,34.77,4Z" fill="#fff"/></g><g id="Grupo_483-5" data-name="Grupo 483-5"><path id="Trazado_1714-5" data-name="Trazado 1714-5" d="M19.37,14.46c-1.22.12-.77,1.41.19,1.3S20.81,14.31,19.37,14.46Z" fill="#fff"/></g><g id="Grupo_484-4" data-name="Grupo 484-4"><path id="Trazado_1715-4" data-name="Trazado 1715-4" d="M18.23,14.15c-.15,1.7,1.73,1.43,1.84.09S18.41,12.15,18.23,14.15Z" fill="#fff"/></g><g id="Grupo_485-5" data-name="Grupo 485-5"><path id="Trazado_1716-5" data-name="Trazado 1716-5" d="M54.44,15.44c-.33.74.55.9.8.31S54.81,14.57,54.44,15.44Z" fill="#fff"/></g><g id="Grupo_486-5" data-name="Grupo 486-5"><path id="Trazado_1717-5" data-name="Trazado 1717-5" d="M49.17,16.23c.67,1.3,1.9.24,1.36-.78S48.39,14.71,49.17,16.23Z" fill="#fff"/></g><g id="Grupo_487-4" data-name="Grupo 487-4"><path id="Trazado_1718-4" data-name="Trazado 1718-4" d="M7.64,18.1c-.53.54.19,1,.61.55S8.26,17.47,7.64,18.1Z" fill="#fff"/></g><g id="Grupo_488-6" data-name="Grupo 488-6"><path id="Trazado_1719-6" data-name="Trazado 1719-6" d="M19.14,33c-.26,1.22,1.12,1.18,1.31.22S19.44,31.54,19.14,33Z" fill="#fff"/></g><g id="Grupo_489-5" data-name="Grupo 489-5"><path id="Trazado_1720-5" data-name="Trazado 1720-5" d="M28,31.69c.18-1.57-1.56-1.36-1.69-.12S27.76,33.53,28,31.69Z" fill="#fff"/></g><g id="Grupo_491-5" data-name="Grupo 491-5"><path id="Trazado_1722-5" data-name="Trazado 1722-5" d="M46.24,13.52c-.69,1.5,1.1,1.85,1.63.67S47,11.76,46.24,13.52Z" fill="#fff"/></g><g id="Grupo_492-6" data-name="Grupo 492-6"><path id="Trazado_1723-6" data-name="Trazado 1723-6" d="M55.63,28.73c-.46,1.31,1.07,1.47,1.43.44S56.17,27.2,55.63,28.73Z" fill="#fff"/></g><g id="Grupo_493-6" data-name="Grupo 493-6"><path id="Trazado_1724-6" data-name="Trazado 1724-6" d="M57.45,9.63c-.46-.56-1,.08-.59.51S58,10.28,57.45,9.63Z" fill="#fff"/></g><g id="Grupo_494-5" data-name="Grupo 494-5"><path id="Trazado_1725-5" data-name="Trazado 1725-5" d="M51.76,37.25c1.05.51,1.34-.75.5-1.15S50.52,36.65,51.76,37.25Z" fill="#fff"/></g><g id="Grupo_495-6" data-name="Grupo 495-6"><path id="Trazado_1726-6" data-name="Trazado 1726-6" d="M52.12,26.07c-.91-.37-1.08.7-.36,1S53.18,26.5,52.12,26.07Z" fill="#fff"/></g><g id="Grupo_496-3" data-name="Grupo 496-3"><path id="Trazado_1727-3" data-name="Trazado 1727-3" d="M67.78,32.41c1-.29.42-1.29-.36-1S66.6,32.76,67.78,32.41Z" fill="#fff"/></g><g id="Grupo_497-5" data-name="Grupo 497-5"><path id="Trazado_1728-5" data-name="Trazado 1728-5" d="M49.05,12.25c.5.8,1.23.06.84-.57S48.47,11.31,49.05,12.25Z" fill="#fff"/></g><g id="Grupo_500-5" data-name="Grupo 500-5"><path id="Trazado_1731-5" data-name="Trazado 1731-5" d="M26.26,17.16c.86.74,1.44-.37.76-1S25.25,16.28,26.26,17.16Z" fill="#fff"/></g><g id="Grupo_501-5" data-name="Grupo 501-5"><path id="Trazado_1732-5" data-name="Trazado 1732-5" d="M12.47,34c1.18-.72.1-1.81-.82-1.23S11.08,34.88,12.47,34Z" fill="#fff"/></g><g id="Grupo_502-5" data-name="Grupo 502-5"><path id="Trazado_1733-5" data-name="Trazado 1733-5" d="M36.82,38.19c1.62.08,1.3-1.7,0-1.75S34.92,38.09,36.82,38.19Z" fill="#fff"/></g><g id="Grupo_503-6" data-name="Grupo 503-6"><path id="Trazado_1734-6" data-name="Trazado 1734-6" d="M12.61,32.55c1,.21,1-.91.19-1.07S11.46,32.3,12.61,32.55Z" fill="#fff"/></g><g id="Grupo_505-5" data-name="Grupo 505-5"><path id="Trazado_1736-5" data-name="Trazado 1736-5" d="M45.11,33.63c-.47.78.49,1.09.86.47S45.66,32.72,45.11,33.63Z" fill="#fff"/></g><g id="Grupo_507-6" data-name="Grupo 507-6"><path id="Trazado_1738-6" data-name="Trazado 1738-6" d="M16.41,28.68c.69.28.82-.54.28-.75S15.61,28.35,16.41,28.68Z" fill="#fff"/></g><g id="Grupo_508-4" data-name="Grupo 508-4"><path id="Trazado_1739-4" data-name="Trazado 1739-4" d="M17.16,15.57c.1-1-1-.85-1.06-.07S17,16.72,17.16,15.57Z" fill="#fff"/></g><g id="Grupo_509-5" data-name="Grupo 509-5"><path id="Trazado_1740-5" data-name="Trazado 1740-5" d="M27.81,31.05c-.93-.27-1,.8-.25,1S28.9,31.36,27.81,31.05Z" fill="#fff"/></g><g id="Grupo_510-6" data-name="Grupo 510-6"><path id="Trazado_1741-6" data-name="Trazado 1741-6" d="M21.25,26.5c.63-.76-.36-1.25-.86-.64S20.51,27.41,21.25,26.5Z" fill="#fff"/></g><g id="Grupo_511-5" data-name="Grupo 511-5"><path id="Trazado_1742-5" data-name="Trazado 1742-5" d="M45.11,36.09c.78.51,1.13-.46.51-.86S44.2,35.49,45.11,36.09Z" fill="#fff"/></g></g></g></g></g></g></svg>