<svg xmlns="http://www.w3.org/2000/svg" viewBox="0 0 79.7 66.67"><title>Dona_CChocB_TCoco</title><g id="Capa_2" data-name="Capa 2"><g id="Capa_1-2" data-name="Capa 1"><g id="Grupo_594" data-name="Grupo 594"><g id="Dona-14"><g id="Grupo_647-14" data-name="Grupo 647-14"><path id="Trazado_357-14" data-name="Trazado 357-14" d="M77,21.73c-1.62-5.52-26-16.57-42-13.64-5.44,1-9.94,4.19-14.63,5.9C-3.14,22.59-2.71,39.09,6.73,52.28,12.07,59.75,26.56,67.57,43,66.59,89.55,63.83,77,21.73,77,21.73Zm-23.23,8c.1.1.18.21.27.31C56.83,32,52.89,28.92,53.78,29.75Z" fill="#bf8320"/><path id="Trazado_1814-14" data-name="Trazado 1814-14" d="M78.2,34.29C77.06,33.54,56,53.25.77,37.73a6.09,6.09,0,0,0-.17.61C1.08,41,2.23,43,2.86,45.48c7.89,8,35.25,11.92,73.06,1.29C77.59,43.25,79.33,35.05,78.2,34.29Z" fill="#b9640f"/></g></g><g id="Cubierta_de_Choc.b-3" data-name="Cubierta de Choc.b-3"><path id="Trazado_1812-3" data-name="Trazado 1812-3" d="M70,51.38c.6-1.88-.12-4.9,1-6.44s4-1.93,5.47-3c2.61-1.8,2.62-5.4,3-8.26,1.42-11.58-2.93-22.17-21-29.75C49.1,0,29.2-4.15,11.53,8.41,1,15.91-1.06,24,.43,33.48,1,37.08,4.31,44.39,8.5,45.92c2,.74,3.55.14,5.49,1.66a12.22,12.22,0,0,1,3.4,4.34c2.23,4.25,4.92,4.92,9.73,4.69,2.63-.12,3.82-.48,5.95,1.2a9.13,9.13,0,0,0,5.3,2.28c4.52.25,6.57-5.73,11.41-2.31,1.76,1.24,3.39,2.65,5.61,1.57s1.52-3.6,3.3-4.91C62.36,51.72,67.93,58,70,51.38Z" fill="#e2d7cf"/></g><g id="Chispa_de_coco-3" data-name="Chispa de coco-3"><g id="Grupo_572-3" data-name="Grupo 572-3"><path id="Trazado_1744-12" data-name="Trazado 1744-12" d="M64.46,12.82A2.63,2.63,0,0,0,63,12.48l-3.57-.05.09,1.9a11,11,0,0,1,5.67.7A2.62,2.62,0,0,0,64.46,12.82Z" fill="#edeef4"/><path id="Trazado_1745-12" data-name="Trazado 1745-12" d="M74.21,33.35A2.56,2.56,0,0,0,72.7,33l-3.57,0,.09,1.9a11.08,11.08,0,0,1,5.67.7A2.54,2.54,0,0,0,74.21,33.35Z" fill="#edeef4"/><path id="Trazado_1746-12" data-name="Trazado 1746-12" d="M54.36,32.68l-1.79-1.89a66.16,66.16,0,0,1-5.83,3.15,4.14,4.14,0,0,1,1.73,2.8A38.51,38.51,0,0,1,54.36,32.68Z" fill="#edeef4"/><path id="Trazado_1747-12" data-name="Trazado 1747-12" d="M13.6,21.89c-.92-.88-.83-1.06-1.75-1.94a50.07,50.07,0,0,1-6,2.54c1.31.91.5,1.35,1.07,2.84A30,30,0,0,1,13.6,21.89Z" fill="#edeef4"/><path id="Trazado_1748-12" data-name="Trazado 1748-12" d="M40.23,27.9a3.13,3.13,0,0,0-1.34-1L36,25.34,33.63,28.1a17.45,17.45,0,0,1,6.46,2.45A3.1,3.1,0,0,0,40.23,27.9Z" fill="#edeef4"/><path id="Trazado_1749-12" data-name="Trazado 1749-12" d="M18.83,14.09l-1.11,2.76,6.76,1.63a4.09,4.09,0,0,1,.71-2.32A29.57,29.57,0,0,1,18.83,14.09Z" fill="#edeef4"/><path id="Trazado_1750-12" data-name="Trazado 1750-12" d="M36.33,1.67,30.4,1.35A7.74,7.74,0,0,0,29,3.87a23.16,23.16,0,0,1,6.9.38A4.76,4.76,0,0,1,36.33,1.67Z" fill="#edeef4"/><path id="Trazado_1751-12" data-name="Trazado 1751-12" d="M19.68,25.52l2.94.15a3.59,3.59,0,0,1-.45-2.88,5.31,5.31,0,0,0-.05-3l-2.05-.5Z" fill="#edeef4"/><path id="Trazado_1752-12" data-name="Trazado 1752-12" d="M55.19,16.53,54,14.91,49.15,16l2.05,2.46C52.53,17.79,53.86,17.17,55.19,16.53Z" fill="#edeef4"/><path id="Trazado_1753-12" data-name="Trazado 1753-12" d="M22.51,42.72l-1.22-1.61-4.82,1,2.05,2.45C19.85,44,21.18,43.35,22.51,42.72Z" fill="#edeef4"/><path id="Trazado_1754-12" data-name="Trazado 1754-12" d="M64.74,21.7a1.45,1.45,0,0,0-.43-1.44,1.26,1.26,0,0,0-1.47-.11,2,2,0,0,0-.39.37A10.34,10.34,0,0,0,60.11,25a4.54,4.54,0,0,1,2.59.84,4.8,4.8,0,0,1,1-2.64A4.47,4.47,0,0,0,64.74,21.7Z" fill="#edeef4"/><path id="Trazado_1755-12" data-name="Trazado 1755-12" d="M37.84,47.49a1.46,1.46,0,0,0-.43-1.44,1.27,1.27,0,0,0-1.47-.12,2,2,0,0,0-.39.37,10.39,10.39,0,0,0-2.34,4.51,4.54,4.54,0,0,1,2.59.84,4.74,4.74,0,0,1,1-2.63A4.67,4.67,0,0,0,37.84,47.49Z" fill="#edeef4"/><path id="Trazado_1756-12" data-name="Trazado 1756-12" d="M20.05,36.5l2.22,1.55,3-4.27-2.18-.22Z" fill="#edeef4"/><path id="Trazado_1757-12" data-name="Trazado 1757-12" d="M8.33,28.18a.61.61,0,0,0,.4.3l3.13,1.24a15.43,15.43,0,0,1,3.23-5.18A7.87,7.87,0,0,1,11.91,24l-3.34,3.6C8.41,27.73,8.24,28,8.33,28.18Z" fill="#edeef4"/><path id="Trazado_1758-12" data-name="Trazado 1758-12" d="M58.08,47.4a.6.6,0,0,0,.39.31L61.61,49a15.38,15.38,0,0,1,3.23-5.19,7.87,7.87,0,0,1-3.18-.58l-3.34,3.6C58.16,47,58,47.19,58.08,47.4Z" fill="#edeef4"/><path id="Trazado_1759-12" data-name="Trazado 1759-12" d="M50.26,55.18A12.38,12.38,0,0,1,53.58,51l-2.43-1.21-3.79,3.56Z" fill="#edeef4"/><path id="Trazado_1760-12" data-name="Trazado 1760-12" d="M24.1,48.05l2.66,1.46a33.24,33.24,0,0,1,3.41-4.43,1.17,1.17,0,0,0-1-.64Z" fill="#edeef4"/><path id="Trazado_1761-12" data-name="Trazado 1761-12" d="M11,12.27Q9.38,14.1,7.71,15.92L10,17.3,13.11,13Z" fill="#edeef4"/><path id="Trazado_1762-12" data-name="Trazado 1762-12" d="M22.32,7.44a3.37,3.37,0,0,0-1.78-.1l-3.06.38c.22.91.45,1.83.67,2.74a10.82,10.82,0,0,1,5.66-1A3.34,3.34,0,0,0,22.32,7.44Z" fill="#edeef4"/><path id="Trazado_1763-12" data-name="Trazado 1763-12" d="M71,28.44a2.66,2.66,0,0,0,.71.58,1.28,1.28,0,0,0,1.8-1.34,23.27,23.27,0,0,1-3-3.88l-3,1.15Z" fill="#edeef4"/><path id="Trazado_1764-12" data-name="Trazado 1764-12" d="M48.61,43.1a2.39,2.39,0,0,0,.72.58A1.28,1.28,0,0,0,51,43.06a1.26,1.26,0,0,0,.1-.72,22.87,22.87,0,0,1-3-3.88l-2.95,1.15Z" fill="#edeef4"/><path id="Trazado_1765-12" data-name="Trazado 1765-12" d="M54.45,14.21a2.71,2.71,0,0,0,.73.57,1.27,1.27,0,0,0,1.69-.62,1.24,1.24,0,0,0,.1-.71,22.82,22.82,0,0,1-3-3.89l-2.95,1.15Z" fill="#edeef4"/><path id="Trazado_1766-12" data-name="Trazado 1766-12" d="M33.45,19.79a2.87,2.87,0,0,0,.72.58,1.29,1.29,0,0,0,1.7-.63A1.33,1.33,0,0,0,36,19a23.15,23.15,0,0,1-3-3.88l-3,1.15C31.19,17.46,32.32,18.63,33.45,19.79Z" fill="#edeef4"/><path id="Trazado_1767-12" data-name="Trazado 1767-12" d="M56.66,6a11.23,11.23,0,0,1-4.53-.46c-.25.75-.5,1.49-.76,2.23a19.48,19.48,0,0,1,5.79.6A3.7,3.7,0,0,1,56.66,6Z" fill="#edeef4"/><path id="Trazado_1768-12" data-name="Trazado 1768-12" d="M30.36,33.55a5.86,5.86,0,0,1-2.82-3.91l-2.77,1a20.8,20.8,0,0,1,3.49,4.83Z" fill="#edeef4"/><path id="Trazado_1769-12" data-name="Trazado 1769-12" d="M45,15.75a5.82,5.82,0,0,1-2.83-3.91c-.93.33-1.85.67-2.77,1a20.8,20.8,0,0,1,3.49,4.83Z" fill="#edeef4"/><path id="Trazado_1770-12" data-name="Trazado 1770-12" d="M44.2,42.2a5.9,5.9,0,0,1-2.83-3.92l-2.77,1a20.78,20.78,0,0,1,3.49,4.84Z" fill="#edeef4"/><path id="Trazado_1771-12" data-name="Trazado 1771-12" d="M59.78,35.67a1.25,1.25,0,0,0,1.46,1,1.27,1.27,0,0,0,.57-.28l1.68-4.11a9.86,9.86,0,0,0-2.3-.16,5,5,0,0,0-1.41,3A2,2,0,0,0,59.78,35.67Z" fill="#edeef4"/><path id="Trazado_1772-12" data-name="Trazado 1772-12" d="M38.33,34.71c-.06-.26-.39-.36-.66-.4l-2-.3q-1.61,2-3.23,3.89L34.77,39q1.65-1.86,3.31-3.7A.76.76,0,0,0,38.33,34.71Z" fill="#edeef4"/><path id="Trazado_1773-12" data-name="Trazado 1773-12" d="M8,36a16.72,16.72,0,0,1,5,3.23c.67-.88,1.33-1.78,2-2.67a29,29,0,0,1-4.78-2.26Z" fill="#edeef4"/><path id="Trazado_1829-3" data-name="Trazado 1829-3" d="M40.23,27.9a3.13,3.13,0,0,0-1.34-1L36,25.34,33.63,28.1a17.45,17.45,0,0,1,6.46,2.45A3.1,3.1,0,0,0,40.23,27.9Z" fill="#edeef4"/><path id="Trazado_1830-3" data-name="Trazado 1830-3" d="M47.88,24.37a3.25,3.25,0,0,0-1.34-1L43.6,21.81l-2.33,2.76A17.34,17.34,0,0,1,47.74,27,3.19,3.19,0,0,0,47.88,24.37Z" fill="#edeef4"/><path id="Trazado_1831-3" data-name="Trazado 1831-3" d="M47.88,24.37a3.25,3.25,0,0,0-1.34-1L43.6,21.81l-2.33,2.76A17.34,17.34,0,0,1,47.74,27,3.19,3.19,0,0,0,47.88,24.37Z" fill="#edeef4"/></g><g id="Grupo_573-3" data-name="Grupo 573-3"><path id="Trazado_1744-13" data-name="Trazado 1744-13" d="M64.46,12.82A2.63,2.63,0,0,0,63,12.48l-3.57-.05.09,1.9a11,11,0,0,1,5.67.7A2.62,2.62,0,0,0,64.46,12.82Z" fill="none"/><path id="Trazado_1745-13" data-name="Trazado 1745-13" d="M74.21,33.35A2.56,2.56,0,0,0,72.7,33l-3.57,0,.09,1.9a11.08,11.08,0,0,1,5.67.7A2.54,2.54,0,0,0,74.21,33.35Z" fill="none"/><path id="Trazado_1746-13" data-name="Trazado 1746-13" d="M69.06,36.8l-1.79-1.9a63.75,63.75,0,0,1-5.83,3.16,4.15,4.15,0,0,1,1.73,2.8A37.14,37.14,0,0,1,69.06,36.8Z" fill="none"/><path id="Trazado_1747-13" data-name="Trazado 1747-13" d="M13.6,21.89c-.92-.88-.83-1.06-1.75-1.94a50.07,50.07,0,0,1-6,2.54c1.31.91.5,1.35,1.07,2.84A30,30,0,0,1,13.6,21.89Z" fill="none"/><path id="Trazado_1748-13" data-name="Trazado 1748-13" d="M60.22,29.08a3,3,0,0,0-1.34-1L56,26.52c-.78.91-1.56,1.83-2.33,2.75a17.46,17.46,0,0,1,6.46,2.46A3.1,3.1,0,0,0,60.22,29.08Z" fill="none"/><path id="Trazado_1749-13" data-name="Trazado 1749-13" d="M18.83,14.09l-1.11,2.76,6.76,1.63a4.09,4.09,0,0,1,.71-2.32A29.57,29.57,0,0,1,18.83,14.09Z" fill="none"/><path id="Trazado_1750-13" data-name="Trazado 1750-13" d="M35.16,6.37l-5.94-.31a7.72,7.72,0,0,0-1.37,2.52A23.22,23.22,0,0,1,34.76,9,4.58,4.58,0,0,1,35.16,6.37Z" fill="none"/><path id="Trazado_1751-13" data-name="Trazado 1751-13" d="M19.68,25.52l2.94.15a3.59,3.59,0,0,1-.45-2.88,5.31,5.31,0,0,0-.05-3l-2.05-.5Z" fill="none"/><path id="Trazado_1752-13" data-name="Trazado 1752-13" d="M55.19,16.53,54,14.91,49.15,16l2.05,2.46C52.53,17.79,53.86,17.17,55.19,16.53Z" fill="none"/><path id="Trazado_1753-13" data-name="Trazado 1753-13" d="M22.51,42.72l-1.22-1.61-4.82,1,2.05,2.45C19.85,44,21.18,43.35,22.51,42.72Z" fill="none"/><path id="Trazado_1754-13" data-name="Trazado 1754-13" d="M64.74,21.7a1.45,1.45,0,0,0-.43-1.44,1.26,1.26,0,0,0-1.47-.11,2,2,0,0,0-.39.37A10.34,10.34,0,0,0,60.11,25a4.54,4.54,0,0,1,2.59.84,4.8,4.8,0,0,1,1-2.64A4.47,4.47,0,0,0,64.74,21.7Z" fill="none"/><path id="Trazado_1755-13" data-name="Trazado 1755-13" d="M37.84,47.49a1.46,1.46,0,0,0-.43-1.44,1.27,1.27,0,0,0-1.47-.12,2,2,0,0,0-.39.37,10.39,10.39,0,0,0-2.34,4.51,4.54,4.54,0,0,1,2.59.84,4.74,4.74,0,0,1,1-2.63A4.67,4.67,0,0,0,37.84,47.49Z" fill="none"/><path id="Trazado_1756-13" data-name="Trazado 1756-13" d="M20.05,36.5l2.22,1.55,3-4.27-2.18-.22Z" fill="none"/><path id="Trazado_1757-13" data-name="Trazado 1757-13" d="M8.33,28.18a.61.61,0,0,0,.4.3l3.13,1.24a15.43,15.43,0,0,1,3.23-5.18A7.87,7.87,0,0,1,11.91,24l-3.34,3.6C8.41,27.73,8.24,28,8.33,28.18Z" fill="none"/><path id="Trazado_1758-13" data-name="Trazado 1758-13" d="M58.08,47.4a.6.6,0,0,0,.39.31L61.61,49a15.38,15.38,0,0,1,3.23-5.19,7.87,7.87,0,0,1-3.18-.58l-3.34,3.6C58.16,47,58,47.19,58.08,47.4Z" fill="none"/><path id="Trazado_1759-13" data-name="Trazado 1759-13" d="M53.2,48.71a12.35,12.35,0,0,1,3.32-4.17l-2.43-1.21L50.3,46.88Z" fill="none"/><path id="Trazado_1760-13" data-name="Trazado 1760-13" d="M24.1,48.05l2.66,1.46a33.24,33.24,0,0,1,3.41-4.43,1.17,1.17,0,0,0-1-.64Z" fill="none"/><path id="Trazado_1761-13" data-name="Trazado 1761-13" d="M11,12.27Q9.38,14.1,7.71,15.92L10,17.3,13.11,13Z" fill="none"/><path id="Trazado_1762-13" data-name="Trazado 1762-13" d="M22.32,7.44a3.37,3.37,0,0,0-1.78-.1l-3.06.38c.22.91.45,1.83.67,2.74a10.82,10.82,0,0,1,5.66-1A3.34,3.34,0,0,0,22.32,7.44Z" fill="none"/><path id="Trazado_1763-13" data-name="Trazado 1763-13" d="M71,28.44a2.66,2.66,0,0,0,.71.58,1.28,1.28,0,0,0,1.8-1.34,23.27,23.27,0,0,1-3-3.88l-3,1.15Z" fill="none"/><path id="Trazado_1764-13" data-name="Trazado 1764-13" d="M48.61,43.1a2.39,2.39,0,0,0,.72.58A1.28,1.28,0,0,0,51,43.06a1.26,1.26,0,0,0,.1-.72,22.87,22.87,0,0,1-3-3.88l-2.95,1.15Z" fill="none"/><path id="Trazado_1765-13" data-name="Trazado 1765-13" d="M54.45,14.21a2.71,2.71,0,0,0,.73.57,1.27,1.27,0,0,0,1.69-.62,1.24,1.24,0,0,0,.1-.71,22.82,22.82,0,0,1-3-3.89l-2.95,1.15Z" fill="none"/><path id="Trazado_1766-13" data-name="Trazado 1766-13" d="M32.28,15.67a2.48,2.48,0,0,0,.71.58,1.28,1.28,0,0,0,1.7-.63,1.24,1.24,0,0,0,.1-.71,22.87,22.87,0,0,1-3-3.88l-2.95,1.15C30,13.34,31.14,14.51,32.28,15.67Z" fill="none"/><path id="Trazado_1767-13" data-name="Trazado 1767-13" d="M56.66,6a11.23,11.23,0,0,1-4.53-.46c-.25.75-.5,1.49-.76,2.23a19.48,19.48,0,0,1,5.79.6A3.7,3.7,0,0,1,56.66,6Z" fill="none"/><path id="Trazado_1768-13" data-name="Trazado 1768-13" d="M30.36,33.55a5.86,5.86,0,0,1-2.82-3.91l-2.77,1a20.8,20.8,0,0,1,3.49,4.83Z" fill="none"/><path id="Trazado_1769-13" data-name="Trazado 1769-13" d="M40.29,4.58A5.87,5.87,0,0,1,37.46.66l-2.76,1a20.74,20.74,0,0,1,3.48,4.84Z" fill="none"/><path id="Trazado_1770-13" data-name="Trazado 1770-13" d="M50.08,52.19a5.88,5.88,0,0,1-2.83-3.91l-2.77,1A20.8,20.8,0,0,1,48,54.13Z" fill="none"/><path id="Trazado_1771-13" data-name="Trazado 1771-13" d="M48.61,37.44a1.24,1.24,0,0,0,1.46,1,1.37,1.37,0,0,0,.57-.27c.56-1.38,1.12-2.75,1.67-4.12A10.31,10.31,0,0,0,50,33.86a5,5,0,0,0-1.41,3A2,2,0,0,0,48.61,37.44Z" fill="none"/><path id="Trazado_1772-13" data-name="Trazado 1772-13" d="M38.33,34.71c-.06-.26-.39-.36-.66-.4l-2-.3q-1.61,2-3.23,3.89L34.77,39q1.65-1.86,3.31-3.7A.76.76,0,0,0,38.33,34.71Z" fill="none"/><path id="Trazado_1773-13" data-name="Trazado 1773-13" d="M8,36a16.72,16.72,0,0,1,5,3.23c.67-.88,1.33-1.78,2-2.67a29,29,0,0,1-4.78-2.26Z" fill="none"/><path id="Trazado_1778-3" data-name="Trazado 1778-3" d="M31.41,40.84a3.08,3.08,0,0,0-1.34-1.05l-2.93-1.51c-.78.91-1.56,1.83-2.33,2.75a17.4,17.4,0,0,1,6.46,2.46A3.1,3.1,0,0,0,31.41,40.84Z" fill="none"/><path id="Trazado_1779-3" data-name="Trazado 1779-3" d="M48.46,3.21a3.09,3.09,0,0,0-1.33-1L44.19.65c-.78.92-1.56,1.83-2.33,2.75a17.51,17.51,0,0,1,6.47,2.46A3.13,3.13,0,0,0,48.46,3.21Z" fill="none"/><path id="Trazado_1780-3" data-name="Trazado 1780-3" d="M31.41,40.84a3.08,3.08,0,0,0-1.34-1.05l-2.93-1.51c-.78.91-1.56,1.83-2.33,2.75a17.4,17.4,0,0,1,6.46,2.46A3.1,3.1,0,0,0,31.41,40.84Z" fill="none"/><path id="Trazado_1781-3" data-name="Trazado 1781-3" d="M14.76,33,17,34.52l3-4.27L17.83,30Z" fill="none"/><path id="Trazado_1782-3" data-name="Trazado 1782-3" d="M55.67,39.2a1.24,1.24,0,0,0,1.45,1,1.33,1.33,0,0,0,.57-.28l1.68-4.12a10.39,10.39,0,0,0-2.29-.16,5.12,5.12,0,0,0-1.42,3A1.73,1.73,0,0,0,55.67,39.2Z" fill="none"/><path id="Trazado_1783-3" data-name="Trazado 1783-3" d="M41,45.45a2.66,2.66,0,0,0,.72.58,1.26,1.26,0,0,0,1.69-.62,1.24,1.24,0,0,0,.11-.71,22.82,22.82,0,0,1-3-3.89l-3,1.15C38.7,43.12,39.83,44.29,41,45.45Z" fill="none"/></g></g></g></g></g></svg>