<svg xmlns="http://www.w3.org/2000/svg" viewBox="0 0 79.7 66.67"><title>Dona_CAreq_TChoc</title><g id="Capa_2" data-name="Capa 2"><g id="Capa_1-2" data-name="Capa 1"><g id="Grupo_587" data-name="Grupo 587"><g id="Dona-11"><g id="Grupo_647-11" data-name="Grupo 647-11"><path id="Trazado_357-11" data-name="Trazado 357-11" d="M77.6,21.73c-1.62-5.52-26-16.57-42-13.64C30.19,9.1,25.69,12.28,21,14-2.55,22.59-2.12,39.09,7.32,52.28c5.34,7.47,19.83,15.29,36.3,14.31C90.13,63.83,77.6,21.73,77.6,21.73Zm-23.23,8c.1.1.18.21.27.31C57.42,32,53.48,28.92,54.37,29.75Z" fill="#bf8320"/><path id="Trazado_1814-11" data-name="Trazado 1814-11" d="M78.78,34.29c-1.13-.75-22.2,19-77.42,3.44a4.24,4.24,0,0,0-.17.61C1.66,41,2.82,43,3.44,45.48c7.9,8,35.25,11.92,73.07,1.29C78.17,43.25,79.92,35.05,78.78,34.29Z" fill="#b9640f"/></g></g><g id="Cubierta_de_Arequipe-5" data-name="Cubierta de Arequipe-5"><path id="Trazado_1777-5" data-name="Trazado 1777-5" d="M70,51.38c.6-1.88-.12-4.9,1-6.44s4-1.93,5.47-3c2.61-1.8,2.62-5.4,3-8.26,1.42-11.58-2.93-22.17-21-29.75C49.1,0,29.2-4.15,11.53,8.41,1,15.91-1.06,24,.43,33.48,1,37.08,4.31,44.39,8.5,45.92c2,.74,3.55.14,5.49,1.66a12.22,12.22,0,0,1,3.4,4.34c2.23,4.25,4.92,4.92,9.73,4.69,2.63-.12,3.82-.48,5.95,1.2a9.13,9.13,0,0,0,5.3,2.28c4.52.25,6.57-5.73,11.41-2.31,1.76,1.24,3.39,2.65,5.61,1.57s1.52-3.6,3.3-4.91C62.36,51.72,67.93,58,70,51.38Z" fill="#804000"/></g><g id="Chispas_de_chocolate-2" data-name="Chispas de chocolate-2"><path id="Trazado_1744-10" data-name="Trazado 1744-10" d="M65.05,13a2.5,2.5,0,0,0-1.51-.34L60,12.56c0,.63.07,1.27.1,1.9a11,11,0,0,1,5.67.7A2.6,2.6,0,0,0,65.05,13Z" fill="#392723"/><path id="Trazado_1745-10" data-name="Trazado 1745-10" d="M74.8,33.48a2.48,2.48,0,0,0-1.51-.34l-3.57-.06.09,1.9a11.2,11.2,0,0,1,5.67.7A2.6,2.6,0,0,0,74.8,33.48Z" fill="#392723"/><path id="Trazado_1746-10" data-name="Trazado 1746-10" d="M69.64,36.93,67.86,35C65.93,36.2,64,37.26,62,38.19A4.18,4.18,0,0,1,63.76,41,38.91,38.91,0,0,1,69.64,36.93Z" fill="#392723"/><path id="Trazado_1747-10" data-name="Trazado 1747-10" d="M14.18,22c-.91-.89-.83-1.07-1.75-2a48.73,48.73,0,0,1-6,2.54c1.31.91.51,1.35,1.08,2.84A29.92,29.92,0,0,1,14.18,22Z" fill="#392723"/><path id="Trazado_1748-10" data-name="Trazado 1748-10" d="M60.81,29.21a3.13,3.13,0,0,0-1.34-1l-2.93-1.52L54.21,29.4a17.53,17.53,0,0,1,6.46,2.46A3.14,3.14,0,0,0,60.81,29.21Z" fill="#392723"/><path id="Trazado_1749-10" data-name="Trazado 1749-10" d="M19.41,14.22c-.36.92-.73,1.84-1.1,2.76l6.76,1.63a4,4,0,0,1,.71-2.31A29.68,29.68,0,0,1,19.41,14.22Z" fill="#392723"/><path id="Trazado_1750-10" data-name="Trazado 1750-10" d="M35.74,6.5l-5.93-.31a7.72,7.72,0,0,0-1.37,2.52,23.16,23.16,0,0,1,6.9.37A4.78,4.78,0,0,1,35.74,6.5Z" fill="#392723"/><path id="Trazado_1751-10" data-name="Trazado 1751-10" d="M20.27,25.65l2.93.15a3.59,3.59,0,0,1-.44-2.88,5.31,5.31,0,0,0-.05-3l-2.05-.5Z" fill="#392723"/><path id="Trazado_1752-10" data-name="Trazado 1752-10" d="M55.78,16.66c-.41-.53-.82-1.07-1.22-1.61l-4.82,1,2,2.46Q53.79,17.62,55.78,16.66Z" fill="#392723"/><path id="Trazado_1753-10" data-name="Trazado 1753-10" d="M23.1,42.86l-1.22-1.62-4.82,1,2.05,2.46Z" fill="#392723"/><path id="Trazado_1754-10" data-name="Trazado 1754-10" d="M65.33,21.83a1.45,1.45,0,0,0-.43-1.43,1.25,1.25,0,0,0-1.47-.11,1.67,1.67,0,0,0-.39.36,10.29,10.29,0,0,0-2.34,4.51,4.51,4.51,0,0,1,2.58.84,4.67,4.67,0,0,1,1-2.63A4.61,4.61,0,0,0,65.33,21.83Z" fill="#392723"/><path id="Trazado_1755-10" data-name="Trazado 1755-10" d="M38.43,47.62A1.46,1.46,0,0,0,38,46.18a1.27,1.27,0,0,0-1.47-.12,2,2,0,0,0-.39.37,10.41,10.41,0,0,0-2.35,4.51,4.52,4.52,0,0,1,2.59.84,4.78,4.78,0,0,1,1-2.63A4.67,4.67,0,0,0,38.43,47.62Z" fill="#392723"/><path id="Trazado_1756-10" data-name="Trazado 1756-10" d="M20.64,36.64l2.22,1.54,3-4.27-2.19-.22Z" fill="#392723"/><path id="Trazado_1757-10" data-name="Trazado 1757-10" d="M8.92,28.31a.64.64,0,0,0,.39.31l3.14,1.24a15.18,15.18,0,0,1,3.23-5.18,7.76,7.76,0,0,1-3.19-.59l-3.33,3.6C9,27.87,8.83,28.09,8.92,28.31Z" fill="#392723"/><path id="Trazado_1758-10" data-name="Trazado 1758-10" d="M58.66,47.54a.64.64,0,0,0,.4.3l3.13,1.25a15.34,15.34,0,0,1,3.24-5.19,7.87,7.87,0,0,1-3.18-.58l-3.34,3.6C58.75,47.09,58.58,47.32,58.66,47.54Z" fill="#392723"/><path id="Trazado_1759-10" data-name="Trazado 1759-10" d="M53.79,48.85a12.38,12.38,0,0,1,3.31-4.18l-2.42-1.21L50.89,47Z" fill="#392723"/><path id="Trazado_1760-10" data-name="Trazado 1760-10" d="M24.68,48.18l2.67,1.46a33.24,33.24,0,0,1,3.41-4.43,1.17,1.17,0,0,0-1-.64Z" fill="#392723"/><path id="Trazado_1761-10" data-name="Trazado 1761-10" d="M11.62,12.4c-1.11,1.22-2.21,2.44-3.32,3.65l2.32,1.38,3.08-4.26Z" fill="#392723"/><path id="Trazado_1762-10" data-name="Trazado 1762-10" d="M22.9,7.57a3.33,3.33,0,0,0-1.77-.1l-3.06.38c.22.91.44,1.83.67,2.74a10.92,10.92,0,0,1,5.66-1A3.38,3.38,0,0,0,22.9,7.57Z" fill="#392723"/><path id="Trazado_1763-10" data-name="Trazado 1763-10" d="M71.62,28.57a2.87,2.87,0,0,0,.72.58,1.28,1.28,0,0,0,1.8-1.34,22.93,22.93,0,0,1-3-3.88l-2.94,1.15Z" fill="#392723"/><path id="Trazado_1764-10" data-name="Trazado 1764-10" d="M49.19,43.23a2.66,2.66,0,0,0,.72.58,1.26,1.26,0,0,0,1.69-.62,1.17,1.17,0,0,0,.11-.71,23.35,23.35,0,0,1-3-3.89l-3,1.15C46.93,40.9,48.06,42.07,49.19,43.23Z" fill="#392723"/><path id="Trazado_1765-10" data-name="Trazado 1765-10" d="M55,14.34a2.83,2.83,0,0,0,.72.57,1.26,1.26,0,0,0,1.69-.62,1.24,1.24,0,0,0,.11-.71,22.82,22.82,0,0,1-3-3.89l-3,1.16Z" fill="#392723"/><path id="Trazado_1766-10" data-name="Trazado 1766-10" d="M32.86,15.8a2.66,2.66,0,0,0,.72.58,1.28,1.28,0,0,0,1.7-.63,1.31,1.31,0,0,0,.1-.71,22.87,22.87,0,0,1-3-3.88l-3,1.15Z" fill="#392723"/><path id="Trazado_1767-10" data-name="Trazado 1767-10" d="M57.25,6.14a11.55,11.55,0,0,1-4.53-.46c-.25.74-.5,1.48-.76,2.22a19.51,19.51,0,0,1,5.79.6A3.62,3.62,0,0,1,57.25,6.14Z" fill="#392723"/><path id="Trazado_1768-10" data-name="Trazado 1768-10" d="M31,33.69a5.92,5.92,0,0,1-2.83-3.92l-2.76,1a20.86,20.86,0,0,1,3.49,4.84Z" fill="#392723"/><path id="Trazado_1769-10" data-name="Trazado 1769-10" d="M40.88,4.71A5.88,5.88,0,0,1,38.05.8l-2.76,1a20.76,20.76,0,0,1,3.48,4.83Z" fill="#392723"/><path id="Trazado_1770-10" data-name="Trazado 1770-10" d="M50.66,52.32a5.94,5.94,0,0,1-2.83-3.91l-2.76,1a21,21,0,0,1,3.49,4.83Z" fill="#392723"/><path id="Trazado_1771-10" data-name="Trazado 1771-10" d="M49.2,37.57a1.23,1.23,0,0,0,1.46,1,1.17,1.17,0,0,0,.56-.27l1.68-4.12A10.31,10.31,0,0,0,50.61,34a5,5,0,0,0-1.41,3A2,2,0,0,0,49.2,37.57Z" fill="#392723"/><path id="Trazado_1772-10" data-name="Trazado 1772-10" d="M38.92,34.84c-.07-.26-.39-.36-.66-.4l-2-.3q-1.6,1.95-3.23,3.89l2.29,1.08,3.32-3.7A.76.76,0,0,0,38.92,34.84Z" fill="#392723"/><path id="Trazado_1773-10" data-name="Trazado 1773-10" d="M8.62,36.16a16.91,16.91,0,0,1,5,3.23l2-2.67a29.44,29.44,0,0,1-4.79-2.25Z" fill="#392723"/><path id="Trazado_1823-2" data-name="Trazado 1823-2" d="M46,25.81l-1.22-1.62-4.82,1,2,2.46Z" fill="#392723"/><path id="Trazado_1824-2" data-name="Trazado 1824-2" d="M33.33,32.28a1.22,1.22,0,0,0,1.45,1,1.21,1.21,0,0,0,.57-.27L37,28.86a10.39,10.39,0,0,0-2.29-.16,5.09,5.09,0,0,0-1.42,3A1.73,1.73,0,0,0,33.33,32.28Z" fill="#392723"/><path id="Trazado_1825-2" data-name="Trazado 1825-2" d="M48,23.24a2.52,2.52,0,0,0,.72.58,1.27,1.27,0,0,0,1.69-.62,1.24,1.24,0,0,0,.1-.71,23.35,23.35,0,0,1-3-3.89l-3,1.15Z" fill="#392723"/><path id="Trazado_1826-2" data-name="Trazado 1826-2" d="M35.53,22.74a3.19,3.19,0,0,0-1.34-1l-2.93-1.52-2.34,2.76a17.49,17.49,0,0,1,6.47,2.45A3.17,3.17,0,0,0,35.53,22.74Z" fill="#392723"/><path id="Trazado_1827-2" data-name="Trazado 1827-2" d="M41,15.23a1.23,1.23,0,0,0,1.45,1,1.31,1.31,0,0,0,.57-.27l1.68-4.12a10.31,10.31,0,0,0-2.29-.16,5.09,5.09,0,0,0-1.42,3A2,2,0,0,0,41,15.23Z" fill="#392723"/><path id="Trazado_1828-2" data-name="Trazado 1828-2" d="M32,39.65a11.37,11.37,0,0,1-4.53-.46l-.77,2.22a19.81,19.81,0,0,1,5.79.6A3.68,3.68,0,0,1,32,39.65Z" fill="#392723"/></g></g></g></g></svg>