<svg xmlns="http://www.w3.org/2000/svg" viewBox="0 0 79.7 66.67"><title>Dona_CChocB_TChoc</title><g id="Capa_2" data-name="Capa 2"><g id="Capa_1-2" data-name="Capa 1"><g id="Grupo_586" data-name="Grupo 586"><g id="Dona-16"><g id="Grupo_647-16" data-name="Grupo 647-16"><path id="Trazado_357-16" data-name="Trazado 357-16" d="M77,21.73c-1.62-5.52-26-16.57-42-13.64-5.44,1-9.94,4.19-14.63,5.9C-3.14,22.59-2.71,39.09,6.73,52.28,12.07,59.75,26.56,67.57,43,66.59,89.55,63.83,77,21.73,77,21.73Zm-23.23,8c.1.1.18.21.27.31C56.83,32,52.89,28.92,53.78,29.75Z" fill="#bf8320"/><path id="Trazado_1814-16" data-name="Trazado 1814-16" d="M78.2,34.29C77.06,33.54,56,53.25.77,37.73a6.09,6.09,0,0,0-.17.61C1.08,41,2.23,43,2.86,45.48c7.89,8,35.25,11.92,73.06,1.29C77.59,43.25,79.33,35.05,78.2,34.29Z" fill="#b9640f"/></g></g><g id="Cubierta_de_Choc.b-5" data-name="Cubierta de Choc.b-5"><path id="Trazado_1812-5" data-name="Trazado 1812-5" d="M70,51.38c.6-1.88-.12-4.9,1-6.44s4-1.93,5.47-3c2.61-1.8,2.62-5.4,3-8.26,1.42-11.58-2.93-22.17-21-29.75C49.1,0,29.2-4.15,11.53,8.41,1,15.91-1.06,24,.43,33.48,1,37.08,4.31,44.39,8.5,45.92c2,.74,3.55.14,5.49,1.66a12.22,12.22,0,0,1,3.4,4.34c2.23,4.25,4.92,4.92,9.73,4.69,2.63-.12,3.82-.48,5.95,1.2a9.13,9.13,0,0,0,5.3,2.28c4.52.25,6.57-5.73,11.41-2.31,1.76,1.24,3.39,2.65,5.61,1.57s1.52-3.6,3.3-4.91C62.36,51.72,67.93,58,70,51.38Z" fill="#e2d7cf"/></g><g id="Chispas_de_chocolate-3" data-name="Chispas de chocolate-3"><path id="Trazado_1744-15" data-name="Trazado 1744-15" d="M64.46,13A2.48,2.48,0,0,0,63,12.62l-3.57-.06.09,1.9a11,11,0,0,1,5.67.7A2.6,2.6,0,0,0,64.46,13Z" fill="#392723"/><path id="Trazado_1745-15" data-name="Trazado 1745-15" d="M74.21,33.48a2.48,2.48,0,0,0-1.51-.34l-3.57-.06.09,1.9a11.19,11.19,0,0,1,5.67.7A2.54,2.54,0,0,0,74.21,33.48Z" fill="#392723"/><path id="Trazado_1746-15" data-name="Trazado 1746-15" d="M69.06,36.93,67.27,35a66.16,66.16,0,0,1-5.83,3.15A4.17,4.17,0,0,1,63.17,41,38.51,38.51,0,0,1,69.06,36.93Z" fill="#392723"/><path id="Trazado_1747-15" data-name="Trazado 1747-15" d="M13.6,22c-.92-.89-.84-1.07-1.75-2a50.07,50.07,0,0,1-6,2.54c1.31.91.5,1.35,1.07,2.84A30,30,0,0,1,13.6,22Z" fill="#392723"/><path id="Trazado_1748-15" data-name="Trazado 1748-15" d="M60.22,29.21a3.13,3.13,0,0,0-1.34-1L56,26.65,53.62,29.4a17.46,17.46,0,0,1,6.46,2.46A3.1,3.1,0,0,0,60.22,29.21Z" fill="#392723"/><path id="Trazado_1749-15" data-name="Trazado 1749-15" d="M18.82,14.22c-.36.92-.73,1.84-1.1,2.76l6.76,1.63a4.06,4.06,0,0,1,.71-2.31A29.86,29.86,0,0,1,18.82,14.22Z" fill="#392723"/><path id="Trazado_1750-15" data-name="Trazado 1750-15" d="M35.16,6.5l-5.94-.31a7.72,7.72,0,0,0-1.37,2.52,23.22,23.22,0,0,1,6.91.37A4.6,4.6,0,0,1,35.16,6.5Z" fill="#392723"/><path id="Trazado_1751-15" data-name="Trazado 1751-15" d="M19.68,25.65l2.94.15a3.59,3.59,0,0,1-.45-2.88,5.31,5.31,0,0,0-.05-3l-2.05-.5Z" fill="#392723"/><path id="Trazado_1752-15" data-name="Trazado 1752-15" d="M55.19,16.66c-.41-.53-.82-1.07-1.22-1.61l-4.82,1,2.05,2.46Q53.2,17.62,55.19,16.66Z" fill="#392723"/><path id="Trazado_1753-15" data-name="Trazado 1753-15" d="M22.51,42.86l-1.22-1.62-4.82,1,2.05,2.46Z" fill="#392723"/><path id="Trazado_1754-15" data-name="Trazado 1754-15" d="M64.74,21.83a1.43,1.43,0,0,0-.43-1.43,1.25,1.25,0,0,0-1.47-.11,1.67,1.67,0,0,0-.39.36,10.39,10.39,0,0,0-2.34,4.51A4.54,4.54,0,0,1,62.7,26a4.74,4.74,0,0,1,1-2.63A4.61,4.61,0,0,0,64.74,21.83Z" fill="#392723"/><path id="Trazado_1755-15" data-name="Trazado 1755-15" d="M37.84,47.62a1.46,1.46,0,0,0-.43-1.44,1.27,1.27,0,0,0-1.47-.12,2,2,0,0,0-.39.37,10.39,10.39,0,0,0-2.34,4.51,4.54,4.54,0,0,1,2.59.84,4.76,4.76,0,0,1,1-2.63A4.67,4.67,0,0,0,37.84,47.62Z" fill="#392723"/><path id="Trazado_1756-15" data-name="Trazado 1756-15" d="M20.05,36.64l2.22,1.54,3-4.27-2.18-.22Z" fill="#392723"/><path id="Trazado_1757-15" data-name="Trazado 1757-15" d="M8.33,28.31a.66.66,0,0,0,.4.31l3.13,1.24a15.33,15.33,0,0,1,3.23-5.18,7.71,7.71,0,0,1-3.18-.59l-3.34,3.6C8.41,27.87,8.24,28.09,8.33,28.31Z" fill="#392723"/><path id="Trazado_1758-15" data-name="Trazado 1758-15" d="M58.08,47.54a.62.62,0,0,0,.39.3l3.14,1.25a15.47,15.47,0,0,1,3.23-5.19,7.87,7.87,0,0,1-3.18-.58l-3.34,3.6C58.16,47.09,58,47.32,58.08,47.54Z" fill="#392723"/><path id="Trazado_1759-15" data-name="Trazado 1759-15" d="M53.2,48.85a12.29,12.29,0,0,1,3.32-4.18l-2.43-1.21L50.3,47Z" fill="#392723"/><path id="Trazado_1760-15" data-name="Trazado 1760-15" d="M24.1,48.18l2.66,1.46a33.24,33.24,0,0,1,3.41-4.43,1.17,1.17,0,0,0-1-.64Z" fill="#392723"/><path id="Trazado_1761-15" data-name="Trazado 1761-15" d="M11,12.4q-1.65,1.83-3.32,3.65L10,17.43l3.07-4.26Z" fill="#392723"/><path id="Trazado_1762-15" data-name="Trazado 1762-15" d="M22.32,7.57a3.37,3.37,0,0,0-1.78-.1l-3.06.38c.22.91.45,1.83.67,2.74a10.92,10.92,0,0,1,5.66-1A3.37,3.37,0,0,0,22.32,7.57Z" fill="#392723"/><path id="Trazado_1763-15" data-name="Trazado 1763-15" d="M71,28.57a2.66,2.66,0,0,0,.71.58,1.28,1.28,0,0,0,1.8-1.34,22.87,22.87,0,0,1-3-3.88l-3,1.15Z" fill="#392723"/><path id="Trazado_1764-15" data-name="Trazado 1764-15" d="M48.61,43.23a2.39,2.39,0,0,0,.72.58A1.27,1.27,0,0,0,51,43.19a1.24,1.24,0,0,0,.1-.71,23.35,23.35,0,0,1-3-3.89l-2.95,1.15C46.34,40.9,47.47,42.07,48.61,43.23Z" fill="#392723"/><path id="Trazado_1765-15" data-name="Trazado 1765-15" d="M54.45,14.34a2.71,2.71,0,0,0,.73.57,1.27,1.27,0,0,0,1.69-.62,1.24,1.24,0,0,0,.1-.71,22.82,22.82,0,0,1-3-3.89l-2.95,1.16Z" fill="#392723"/><path id="Trazado_1766-15" data-name="Trazado 1766-15" d="M32.27,15.8a2.66,2.66,0,0,0,.72.58,1.27,1.27,0,0,0,1.7-.63,1.23,1.23,0,0,0,.1-.71,22.87,22.87,0,0,1-3-3.88l-2.95,1.15Z" fill="#392723"/><path id="Trazado_1767-15" data-name="Trazado 1767-15" d="M56.66,6.14a11.59,11.59,0,0,1-4.53-.46c-.25.74-.5,1.48-.76,2.22a19.48,19.48,0,0,1,5.79.6A3.69,3.69,0,0,1,56.66,6.14Z" fill="#392723"/><path id="Trazado_1768-15" data-name="Trazado 1768-15" d="M30.36,33.69a5.91,5.91,0,0,1-2.82-3.92l-2.77,1a20.86,20.86,0,0,1,3.49,4.84Z" fill="#392723"/><path id="Trazado_1769-15" data-name="Trazado 1769-15" d="M40.29,4.71A5.88,5.88,0,0,1,37.46.8q-1.38.49-2.76,1a20.47,20.47,0,0,1,3.48,4.83Z" fill="#392723"/><path id="Trazado_1770-15" data-name="Trazado 1770-15" d="M50.08,52.32a5.88,5.88,0,0,1-2.83-3.91l-2.77,1A21,21,0,0,1,48,54.26Z" fill="#392723"/><path id="Trazado_1771-15" data-name="Trazado 1771-15" d="M48.61,37.57a1.23,1.23,0,0,0,1.46,1,1.25,1.25,0,0,0,.57-.27c.56-1.38,1.12-2.75,1.67-4.12A10.31,10.31,0,0,0,50,34a5,5,0,0,0-1.41,3A2,2,0,0,0,48.61,37.57Z" fill="#392723"/><path id="Trazado_1772-15" data-name="Trazado 1772-15" d="M38.33,34.84c-.06-.26-.39-.36-.66-.4l-2-.3Q34.1,36.09,32.47,38l2.3,1.08c1.1-1.23,2.2-2.47,3.31-3.7A.76.76,0,0,0,38.33,34.84Z" fill="#392723"/><path id="Trazado_1773-15" data-name="Trazado 1773-15" d="M8,36.16a16.91,16.91,0,0,1,5,3.23c.67-.88,1.33-1.77,2-2.67a29,29,0,0,1-4.78-2.25Z" fill="#392723"/><path id="Trazado_1823-3" data-name="Trazado 1823-3" d="M45.44,25.81l-1.22-1.62-4.82,1,2.05,2.46Z" fill="#392723"/><path id="Trazado_1824-3" data-name="Trazado 1824-3" d="M32.74,32.28a1.22,1.22,0,0,0,1.45,1,1.21,1.21,0,0,0,.57-.27l1.68-4.12a10.35,10.35,0,0,0-2.29-.16,5.09,5.09,0,0,0-1.42,3A1.73,1.73,0,0,0,32.74,32.28Z" fill="#392723"/><path id="Trazado_1825-3" data-name="Trazado 1825-3" d="M47.43,23.24a2.52,2.52,0,0,0,.72.58,1.26,1.26,0,0,0,1.69-.62,1.33,1.33,0,0,0,.11-.71,23.41,23.41,0,0,1-3-3.89L44,19.75Z" fill="#392723"/><path id="Trazado_1826-3" data-name="Trazado 1826-3" d="M34.94,22.74a3.13,3.13,0,0,0-1.34-1l-2.93-1.52-2.33,2.76a17.51,17.51,0,0,1,6.46,2.45A3.1,3.1,0,0,0,34.94,22.74Z" fill="#392723"/><path id="Trazado_1827-3" data-name="Trazado 1827-3" d="M40.38,15.23a1.24,1.24,0,0,0,1.46,1,1.27,1.27,0,0,0,.56-.27l1.68-4.12a10.31,10.31,0,0,0-2.29-.16,5,5,0,0,0-1.41,3A2,2,0,0,0,40.38,15.23Z" fill="#392723"/><path id="Trazado_1828-3" data-name="Trazado 1828-3" d="M31.38,39.65a11.37,11.37,0,0,1-4.53-.46c-.25.74-.5,1.48-.76,2.22a19.81,19.81,0,0,1,5.79.6A3.69,3.69,0,0,1,31.38,39.65Z" fill="#392723"/></g></g></g></g></svg>