<svg xmlns="http://www.w3.org/2000/svg" viewBox="0 0 79.7 66.67"><title>Dona_CAreq_TRosa</title><g id="Capa_2" data-name="Capa 2"><g id="Capa_1-2" data-name="Capa 1"><g id="Grupo_599" data-name="Grupo 599"><g id="Dona-10"><g id="Grupo_647-10" data-name="Grupo 647-10"><path id="Trazado_357-10" data-name="Trazado 357-10" d="M77.6,21.73c-1.62-5.52-26-16.57-42-13.64C30.19,9.1,25.69,12.28,21,14-2.55,22.59-2.12,39.09,7.32,52.28c5.34,7.47,19.83,15.29,36.3,14.31C90.13,63.83,77.6,21.73,77.6,21.73Zm-23.23,8c.1.1.18.21.27.31C57.42,32,53.48,28.92,54.37,29.75Z" fill="#bf8320"/><path id="Trazado_1814-10" data-name="Trazado 1814-10" d="M78.78,34.29c-1.13-.75-22.2,19-77.42,3.44a4.24,4.24,0,0,0-.17.61C1.66,41,2.82,43,3.44,45.48c7.9,8,35.25,11.92,73.07,1.29C78.17,43.25,79.92,35.05,78.78,34.29Z" fill="#b9640f"/></g></g><g id="Cubierta_de_Arequipe-4" data-name="Cubierta de Arequipe-4"><path id="Trazado_1777-4" data-name="Trazado 1777-4" d="M70,51.38c.6-1.88-.12-4.9,1-6.44s4-1.93,5.47-3c2.61-1.8,2.62-5.4,3-8.26,1.42-11.58-2.93-22.17-21-29.75C49.1,0,29.2-4.15,11.53,8.41,1,15.91-1.06,24,.43,33.48,1,37.08,4.31,44.39,8.5,45.92c2,.74,3.55.14,5.49,1.66a12.22,12.22,0,0,1,3.4,4.34c2.23,4.25,4.92,4.92,9.73,4.69,2.63-.12,3.82-.48,5.95,1.2a9.13,9.13,0,0,0,5.3,2.28c4.52.25,6.57-5.73,11.41-2.31,1.76,1.24,3.39,2.65,5.61,1.57s1.52-3.6,3.3-4.91C62.36,51.72,67.93,58,70,51.38Z" fill="#804000"/></g><g id="Chispas_ROsadas-2" data-name="Chispas ROsadas-2"><path id="Trazado_1744-9" data-name="Trazado 1744-9" d="M66,13a2.5,2.5,0,0,0-1.51-.34l-3.58-.06c0,.63.07,1.27.1,1.9a11,11,0,0,1,5.67.7A2.6,2.6,0,0,0,66,13Z" fill="#f729ac"/><path id="Trazado_1745-9" data-name="Trazado 1745-9" d="M75.77,33.48a2.48,2.48,0,0,0-1.51-.34l-3.58-.06c0,.64.07,1.27.1,1.9a11.2,11.2,0,0,1,5.67.7A2.6,2.6,0,0,0,75.77,33.48Z" fill="#f729ac"/><path id="Trazado_1746-9" data-name="Trazado 1746-9" d="M72.58,38.47l-2.76-2.65A58,58,0,0,1,63,38.19a8,8,0,0,1,2.9,3.71A30.21,30.21,0,0,1,72.58,38.47Z" fill="#f729ac"/><path id="Trazado_1747-9" data-name="Trazado 1747-9" d="M15.15,22,12.4,19.37a59.36,59.36,0,0,1-6.83,2.38,8.1,8.1,0,0,1,2.9,3.71A29.92,29.92,0,0,1,15.15,22Z" fill="#f729ac"/><path id="Trazado_1748-9" data-name="Trazado 1748-9" d="M61.78,29.21a3.19,3.19,0,0,0-1.34-1l-2.93-1.52L55.18,29.4a17.53,17.53,0,0,1,6.46,2.46A3.17,3.17,0,0,0,61.78,29.21Z" fill="#f729ac"/><path id="Trazado_1749-9" data-name="Trazado 1749-9" d="M20.38,14.22c-.36.92-.73,1.84-1.1,2.76L26,18.61a4,4,0,0,1,.71-2.31A29.68,29.68,0,0,1,20.38,14.22Z" fill="#f729ac"/><path id="Trazado_1750-9" data-name="Trazado 1750-9" d="M36.71,6.5l-5.93-.31a7.72,7.72,0,0,0-1.37,2.52,23.16,23.16,0,0,1,6.9.37A4.78,4.78,0,0,1,36.71,6.5Z" fill="#f729ac"/><path id="Trazado_1751-9" data-name="Trazado 1751-9" d="M21.24,25.65l2.93.15a3.59,3.59,0,0,1-.44-2.88,5.31,5.31,0,0,0-.06-3l-2-.5Z" fill="#f729ac"/><path id="Trazado_1752-9" data-name="Trazado 1752-9" d="M56.75,16.66c-.41-.53-.82-1.07-1.22-1.61l-4.82,1c.68.82,1.36,1.65,2,2.46Q54.76,17.62,56.75,16.66Z" fill="#f729ac"/><path id="Trazado_1753-9" data-name="Trazado 1753-9" d="M24.07,42.86l-1.22-1.62-4.82,1,2,2.46Z" fill="#f729ac"/><path id="Trazado_1754-9" data-name="Trazado 1754-9" d="M66.3,21.83a1.45,1.45,0,0,0-.43-1.43,1.25,1.25,0,0,0-1.47-.11,1.67,1.67,0,0,0-.39.36,10.29,10.29,0,0,0-2.34,4.51,4.51,4.51,0,0,1,2.58.84,4.67,4.67,0,0,1,1-2.63A4.76,4.76,0,0,0,66.3,21.83Z" fill="#f729ac"/><path id="Trazado_1755-9" data-name="Trazado 1755-9" d="M39.4,47.62A1.46,1.46,0,0,0,39,46.18a1.27,1.27,0,0,0-1.47-.12,2,2,0,0,0-.39.37,10.41,10.41,0,0,0-2.35,4.51,4.52,4.52,0,0,1,2.59.84,4.7,4.7,0,0,1,1-2.63A4.67,4.67,0,0,0,39.4,47.62Z" fill="#f729ac"/><path id="Trazado_1756-9" data-name="Trazado 1756-9" d="M21.61,36.64l2.22,1.54,3-4.27-2.19-.22Z" fill="#f729ac"/><path id="Trazado_1757-9" data-name="Trazado 1757-9" d="M9.88,28.31a.69.69,0,0,0,.4.31l3.14,1.24a15,15,0,0,1,3.23-5.18,7.76,7.76,0,0,1-3.19-.59l-3.33,3.6C10,27.87,9.8,28.09,9.88,28.31Z" fill="#f729ac"/><path id="Trazado_1758-9" data-name="Trazado 1758-9" d="M59.63,47.54a.64.64,0,0,0,.4.3l3.13,1.25A15.34,15.34,0,0,1,66.4,43.9a7.84,7.84,0,0,1-3.18-.58l-3.34,3.6C59.72,47.09,59.55,47.32,59.63,47.54Z" fill="#f729ac"/><path id="Trazado_1759-9" data-name="Trazado 1759-9" d="M54.76,48.85a12.38,12.38,0,0,1,3.31-4.18l-2.42-1.21L51.86,47Z" fill="#f729ac"/><path id="Trazado_1760-9" data-name="Trazado 1760-9" d="M25.65,48.18l2.66,1.46a34.17,34.17,0,0,1,3.42-4.43,1.19,1.19,0,0,0-1-.64Z" fill="#f729ac"/><path id="Trazado_1761-9" data-name="Trazado 1761-9" d="M12.59,12.4c-1.11,1.22-2.21,2.44-3.32,3.65l2.32,1.38,3.08-4.26Z" fill="#f729ac"/><path id="Trazado_1762-9" data-name="Trazado 1762-9" d="M23.87,7.57a3.33,3.33,0,0,0-1.77-.1L19,7.85c.22.91.44,1.83.67,2.74a10.92,10.92,0,0,1,5.66-1A3.38,3.38,0,0,0,23.87,7.57Z" fill="#f729ac"/><path id="Trazado_1763-9" data-name="Trazado 1763-9" d="M72.59,28.57a2.87,2.87,0,0,0,.72.58A1.27,1.27,0,0,0,75,28.53a1.35,1.35,0,0,0,.11-.72,22.93,22.93,0,0,1-3-3.88L69.2,25.08Z" fill="#f729ac"/><path id="Trazado_1764-9" data-name="Trazado 1764-9" d="M50.16,43.23a2.66,2.66,0,0,0,.72.58,1.26,1.26,0,0,0,1.69-.62,1.24,1.24,0,0,0,.11-.71,23.35,23.35,0,0,1-3-3.89l-3,1.15C47.9,40.9,49,42.07,50.16,43.23Z" fill="#f729ac"/><path id="Trazado_1765-9" data-name="Trazado 1765-9" d="M56,14.34a2.83,2.83,0,0,0,.72.57,1.26,1.26,0,0,0,1.69-.62,1.24,1.24,0,0,0,.11-.71,22.32,22.32,0,0,1-3-3.89l-3,1.16Q54.32,12.59,56,14.34Z" fill="#f729ac"/><path id="Trazado_1766-9" data-name="Trazado 1766-9" d="M33.83,15.8a2.66,2.66,0,0,0,.72.58,1.28,1.28,0,0,0,1.7-.63,1.31,1.31,0,0,0,.1-.71,22.87,22.87,0,0,1-3-3.88l-2.95,1.15Z" fill="#f729ac"/><path id="Trazado_1767-9" data-name="Trazado 1767-9" d="M58.22,6.14a11.55,11.55,0,0,1-4.53-.46L52.92,7.9a19.45,19.45,0,0,1,5.79.6A3.68,3.68,0,0,1,58.22,6.14Z" fill="#f729ac"/><path id="Trazado_1768-9" data-name="Trazado 1768-9" d="M31.92,33.69a5.92,5.92,0,0,1-2.83-3.92l-2.76,1a20.86,20.86,0,0,1,3.49,4.84Z" fill="#f729ac"/><path id="Trazado_1769-9" data-name="Trazado 1769-9" d="M41.85,4.71A5.88,5.88,0,0,1,39,.8q-1.38.49-2.76,1a20.76,20.76,0,0,1,3.48,4.83Z" fill="#f729ac"/><path id="Trazado_1770-9" data-name="Trazado 1770-9" d="M51.63,52.32a5.88,5.88,0,0,1-2.83-3.91l-2.76,1a20.68,20.68,0,0,1,3.48,4.83C50.23,53.62,50.93,53,51.63,52.32Z" fill="#f729ac"/><path id="Trazado_1771-9" data-name="Trazado 1771-9" d="M50.17,37.57a1.22,1.22,0,0,0,1.45,1,1.21,1.21,0,0,0,.57-.27l1.68-4.12A10.31,10.31,0,0,0,51.58,34a5.12,5.12,0,0,0-1.42,3A2,2,0,0,0,50.17,37.57Z" fill="#f729ac"/><path id="Trazado_1772-9" data-name="Trazado 1772-9" d="M39.89,34.84c-.07-.26-.39-.36-.66-.4l-2-.3Q35.66,36.09,34,38l2.29,1.08,3.32-3.7A.76.76,0,0,0,39.89,34.84Z" fill="#f729ac"/><path id="Trazado_1773-9" data-name="Trazado 1773-9" d="M9.58,36.16a16.83,16.83,0,0,1,5,3.23l2-2.67a29.44,29.44,0,0,1-4.79-2.25Z" fill="#f729ac"/><path id="Trazado_1832-2" data-name="Trazado 1832-2" d="M49.06,16.13l-2.75-2.66a57.52,57.52,0,0,1-6.83,2.38,8.1,8.1,0,0,1,2.9,3.71A29.92,29.92,0,0,1,49.06,16.13Z" fill="#f729ac"/><path id="Trazado_1833-2" data-name="Trazado 1833-2" d="M49.43,28a3.13,3.13,0,0,0-1.34-1l-2.93-1.52-2.33,2.76a17.29,17.29,0,0,1,6.46,2.46A3.12,3.12,0,0,0,49.43,28Z" fill="#f729ac"/><path id="Trazado_1834-2" data-name="Trazado 1834-2" d="M37.05,24.69a1.46,1.46,0,0,0-.43-1.44,1.25,1.25,0,0,0-1.47-.11,1.67,1.67,0,0,0-.39.36A10.41,10.41,0,0,0,32.41,28a4.59,4.59,0,0,1,2.59.84,4.7,4.7,0,0,1,1-2.63A4.83,4.83,0,0,0,37.05,24.69Z" fill="#f729ac"/></g></g></g></g></svg>