<svg xmlns="http://www.w3.org/2000/svg" viewBox="0 0 79.7 66.67"><title>Dona_CAreq_TCoco</title><g id="Capa_2" data-name="Capa 2"><g id="Capa_1-2" data-name="Capa 1"><g id="Grupo_595" data-name="Grupo 595"><g id="Dona-9"><g id="Grupo_647-9" data-name="Grupo 647-9"><path id="Trazado_357-9" data-name="Trazado 357-9" d="M77.6,21.73c-1.62-5.52-26-16.57-42-13.64C30.19,9.1,25.69,12.28,21,14-2.55,22.59-2.12,39.09,7.32,52.28c5.34,7.47,19.83,15.29,36.3,14.31C90.13,63.83,77.6,21.73,77.6,21.73Zm-23.23,8c.1.1.18.21.27.31C57.42,32,53.48,28.92,54.37,29.75Z" fill="#bf8320"/><path id="Trazado_1814-9" data-name="Trazado 1814-9" d="M78.78,34.29c-1.13-.75-22.2,19-77.42,3.44a4.24,4.24,0,0,0-.17.61C1.66,41,2.82,43,3.44,45.48c7.9,8,35.25,11.92,73.07,1.29C78.17,43.25,79.92,35.05,78.78,34.29Z" fill="#b9640f"/></g></g><g id="Cubierta_de_Arequipe-3" data-name="Cubierta de Arequipe-3"><path id="Trazado_1777-3" data-name="Trazado 1777-3" d="M70,51.38c.6-1.88-.12-4.9,1-6.44s4-1.93,5.47-3c2.61-1.8,2.62-5.4,3-8.26,1.42-11.58-2.93-22.17-21-29.75C49.1,0,29.2-4.15,11.53,8.41,1,15.91-1.06,24,.43,33.48,1,37.08,4.31,44.39,8.5,45.92c2,.74,3.55.14,5.49,1.66a12.22,12.22,0,0,1,3.4,4.34c2.23,4.25,4.92,4.92,9.73,4.69,2.63-.12,3.82-.48,5.95,1.2a9.13,9.13,0,0,0,5.3,2.28c4.52.25,6.57-5.73,11.41-2.31,1.76,1.24,3.39,2.65,5.61,1.57s1.52-3.6,3.3-4.91C62.36,51.72,67.93,58,70,51.38Z" fill="#804000"/></g><g id="Chispa_de_coco-2" data-name="Chispa de coco-2"><g id="Grupo_572-2" data-name="Grupo 572-2"><path id="Trazado_1744-7" data-name="Trazado 1744-7" d="M65.05,12.82a2.65,2.65,0,0,0-1.51-.34L60,12.43c0,.63.07,1.27.1,1.9a11,11,0,0,1,5.67.7A2.62,2.62,0,0,0,65.05,12.82Z" fill="#edeef4"/><path id="Trazado_1745-7" data-name="Trazado 1745-7" d="M74.8,33.35A2.56,2.56,0,0,0,73.29,33l-3.57,0,.09,1.9a11.1,11.1,0,0,1,5.67.7A2.6,2.6,0,0,0,74.8,33.35Z" fill="#edeef4"/><path id="Trazado_1746-7" data-name="Trazado 1746-7" d="M55,32.68l-1.79-1.89a66.16,66.16,0,0,1-5.83,3.15,4.17,4.17,0,0,1,1.73,2.8A38.51,38.51,0,0,1,55,32.68Z" fill="#edeef4"/><path id="Trazado_1747-7" data-name="Trazado 1747-7" d="M14.19,21.89c-.92-.88-.84-1.06-1.75-1.94a49.53,49.53,0,0,1-6,2.54c1.31.91.51,1.35,1.08,2.84A29.82,29.82,0,0,1,14.19,21.89Z" fill="#edeef4"/><path id="Trazado_1748-7" data-name="Trazado 1748-7" d="M40.82,27.9a3.13,3.13,0,0,0-1.34-1l-2.93-1.52L34.22,28.1a17.51,17.51,0,0,1,6.46,2.45A3.17,3.17,0,0,0,40.82,27.9Z" fill="#edeef4"/><path id="Trazado_1749-7" data-name="Trazado 1749-7" d="M19.41,14.09c-.36.92-.73,1.84-1.1,2.76l6.76,1.63a4,4,0,0,1,.71-2.32A29.65,29.65,0,0,1,19.41,14.09Z" fill="#edeef4"/><path id="Trazado_1750-7" data-name="Trazado 1750-7" d="M36.92,1.67,31,1.35a7.74,7.74,0,0,0-1.37,2.52,23.18,23.18,0,0,1,6.9.38A4.58,4.58,0,0,1,36.92,1.67Z" fill="#edeef4"/><path id="Trazado_1751-7" data-name="Trazado 1751-7" d="M20.27,25.52l2.93.15a3.59,3.59,0,0,1-.44-2.88,5.31,5.31,0,0,0-.05-3l-2.05-.5Z" fill="#edeef4"/><path id="Trazado_1752-7" data-name="Trazado 1752-7" d="M55.78,16.53l-1.22-1.62L49.74,16l2,2.46C53.12,17.79,54.45,17.17,55.78,16.53Z" fill="#edeef4"/><path id="Trazado_1753-7" data-name="Trazado 1753-7" d="M23.1,42.72c-.41-.53-.81-1.07-1.22-1.61l-4.82,1,2.05,2.45C20.44,44,21.77,43.35,23.1,42.72Z" fill="#edeef4"/><path id="Trazado_1754-7" data-name="Trazado 1754-7" d="M65.33,21.7a1.47,1.47,0,0,0-.43-1.44,1.27,1.27,0,0,0-1.47-.11,2,2,0,0,0-.39.37A10.23,10.23,0,0,0,60.7,25a4.51,4.51,0,0,1,2.58.84,4.73,4.73,0,0,1,1-2.64A4.47,4.47,0,0,0,65.33,21.7Z" fill="#edeef4"/><path id="Trazado_1755-7" data-name="Trazado 1755-7" d="M38.43,47.49A1.46,1.46,0,0,0,38,46.05a1.27,1.27,0,0,0-1.47-.12,2,2,0,0,0-.39.37,10.41,10.41,0,0,0-2.35,4.51,4.52,4.52,0,0,1,2.59.84,4.75,4.75,0,0,1,1-2.63A4.67,4.67,0,0,0,38.43,47.49Z" fill="#edeef4"/><path id="Trazado_1756-7" data-name="Trazado 1756-7" d="M20.64,36.5l2.22,1.55,3-4.27-2.19-.22Z" fill="#edeef4"/><path id="Trazado_1757-7" data-name="Trazado 1757-7" d="M8.92,28.18a.59.59,0,0,0,.39.3l3.14,1.24a15.27,15.27,0,0,1,3.23-5.18A7.92,7.92,0,0,1,12.49,24l-3.33,3.6C9,27.73,8.83,28,8.92,28.18Z" fill="#edeef4"/><path id="Trazado_1758-7" data-name="Trazado 1758-7" d="M58.66,47.4a.62.62,0,0,0,.4.31L62.19,49a15.25,15.25,0,0,1,3.24-5.19,7.87,7.87,0,0,1-3.18-.58l-3.34,3.6C58.75,47,58.58,47.19,58.66,47.4Z" fill="#edeef4"/><path id="Trazado_1759-7" data-name="Trazado 1759-7" d="M50.85,55.18A12.48,12.48,0,0,1,54.16,51l-2.42-1.21L48,53.35Z" fill="#edeef4"/><path id="Trazado_1760-7" data-name="Trazado 1760-7" d="M24.68,48.05l2.67,1.46a33.24,33.24,0,0,1,3.41-4.43,1.17,1.17,0,0,0-1-.64Z" fill="#edeef4"/><path id="Trazado_1761-7" data-name="Trazado 1761-7" d="M11.62,12.27c-1.11,1.22-2.21,2.44-3.32,3.65l2.32,1.38L13.7,13Z" fill="#edeef4"/><path id="Trazado_1762-7" data-name="Trazado 1762-7" d="M22.9,7.44a3.33,3.33,0,0,0-1.77-.1l-3.06.38c.22.91.44,1.83.67,2.74a10.82,10.82,0,0,1,5.66-1A3.35,3.35,0,0,0,22.9,7.44Z" fill="#edeef4"/><path id="Trazado_1763-7" data-name="Trazado 1763-7" d="M71.62,28.44a2.87,2.87,0,0,0,.72.58,1.28,1.28,0,0,0,1.8-1.34,23.33,23.33,0,0,1-3-3.88L68.23,25Z" fill="#edeef4"/><path id="Trazado_1764-7" data-name="Trazado 1764-7" d="M49.19,43.1a2.66,2.66,0,0,0,.72.58,1.27,1.27,0,0,0,1.69-.62,1.19,1.19,0,0,0,.11-.72,22.87,22.87,0,0,1-3-3.88l-3,1.15Q47.5,41.35,49.19,43.1Z" fill="#edeef4"/><path id="Trazado_1765-7" data-name="Trazado 1765-7" d="M55,14.21a2.83,2.83,0,0,0,.72.57,1.26,1.26,0,0,0,1.69-.62,1.24,1.24,0,0,0,.11-.71,22.82,22.82,0,0,1-3-3.89l-3,1.15Z" fill="#edeef4"/><path id="Trazado_1766-7" data-name="Trazado 1766-7" d="M34,19.79a2.7,2.7,0,0,0,.72.58,1.28,1.28,0,0,0,1.69-.63,1.33,1.33,0,0,0,.11-.71,22.63,22.63,0,0,1-3-3.88l-3,1.15C31.78,17.46,32.91,18.63,34,19.79Z" fill="#edeef4"/><path id="Trazado_1767-7" data-name="Trazado 1767-7" d="M57.25,6a11.19,11.19,0,0,1-4.53-.46c-.25.75-.5,1.49-.76,2.23a19.51,19.51,0,0,1,5.79.6A3.64,3.64,0,0,1,57.25,6Z" fill="#edeef4"/><path id="Trazado_1768-7" data-name="Trazado 1768-7" d="M31,33.55a5.88,5.88,0,0,1-2.83-3.91l-2.76,1a20.8,20.8,0,0,1,3.49,4.83Z" fill="#edeef4"/><path id="Trazado_1769-7" data-name="Trazado 1769-7" d="M45.58,15.75a5.88,5.88,0,0,1-2.83-3.91q-1.38.5-2.76,1a20.47,20.47,0,0,1,3.48,4.83Z" fill="#edeef4"/><path id="Trazado_1770-7" data-name="Trazado 1770-7" d="M44.79,42.2A5.9,5.9,0,0,1,42,38.28l-2.77,1a21.07,21.07,0,0,1,3.49,4.84C43.38,43.49,44.08,42.84,44.79,42.2Z" fill="#edeef4"/><path id="Trazado_1771-7" data-name="Trazado 1771-7" d="M60.37,35.67a1.24,1.24,0,0,0,1.46,1,1.19,1.19,0,0,0,.56-.28l1.68-4.11a9.74,9.74,0,0,0-2.29-.16,5,5,0,0,0-1.41,3A2,2,0,0,0,60.37,35.67Z" fill="#edeef4"/><path id="Trazado_1772-7" data-name="Trazado 1772-7" d="M38.92,34.71c-.07-.26-.39-.36-.66-.4l-2-.3q-1.6,2-3.23,3.89L35.35,39l3.32-3.7A.76.76,0,0,0,38.92,34.71Z" fill="#edeef4"/><path id="Trazado_1773-7" data-name="Trazado 1773-7" d="M8.62,36a16.72,16.72,0,0,1,5,3.23l2-2.67a29.49,29.49,0,0,1-4.79-2.26Z" fill="#edeef4"/><path id="Trazado_1829-2" data-name="Trazado 1829-2" d="M40.82,27.9a3.13,3.13,0,0,0-1.34-1l-2.93-1.52L34.22,28.1a17.51,17.51,0,0,1,6.46,2.45A3.17,3.17,0,0,0,40.82,27.9Z" fill="#edeef4"/><path id="Trazado_1830-2" data-name="Trazado 1830-2" d="M48.46,24.37a3.16,3.16,0,0,0-1.33-1l-2.94-1.52-2.33,2.76A17.34,17.34,0,0,1,48.33,27,3.16,3.16,0,0,0,48.46,24.37Z" fill="#edeef4"/><path id="Trazado_1831-2" data-name="Trazado 1831-2" d="M48.46,24.37a3.16,3.16,0,0,0-1.33-1l-2.94-1.52-2.33,2.76A17.34,17.34,0,0,1,48.33,27,3.16,3.16,0,0,0,48.46,24.37Z" fill="#edeef4"/></g><g id="Grupo_573-2" data-name="Grupo 573-2"><path id="Trazado_1744-8" data-name="Trazado 1744-8" d="M65.05,12.82a2.65,2.65,0,0,0-1.51-.34L60,12.43c0,.63.07,1.27.1,1.9a11,11,0,0,1,5.67.7A2.62,2.62,0,0,0,65.05,12.82Z" fill="none"/><path id="Trazado_1745-8" data-name="Trazado 1745-8" d="M74.8,33.35A2.56,2.56,0,0,0,73.29,33l-3.57,0,.09,1.9a11.1,11.1,0,0,1,5.67.7A2.6,2.6,0,0,0,74.8,33.35Z" fill="none"/><path id="Trazado_1746-8" data-name="Trazado 1746-8" d="M69.64,36.8c-.59-.64-1.19-1.27-1.78-1.9A65.25,65.25,0,0,1,62,38.06a4.16,4.16,0,0,1,1.74,2.8A37.51,37.51,0,0,1,69.64,36.8Z" fill="none"/><path id="Trazado_1747-8" data-name="Trazado 1747-8" d="M14.19,21.89c-.92-.88-.84-1.06-1.75-1.94a49.53,49.53,0,0,1-6,2.54c1.31.91.51,1.35,1.08,2.84A29.82,29.82,0,0,1,14.19,21.89Z" fill="none"/><path id="Trazado_1748-8" data-name="Trazado 1748-8" d="M60.81,29.08a3,3,0,0,0-1.34-1l-2.93-1.52c-.78.91-1.56,1.83-2.33,2.75a17.53,17.53,0,0,1,6.46,2.46A3.14,3.14,0,0,0,60.81,29.08Z" fill="none"/><path id="Trazado_1749-8" data-name="Trazado 1749-8" d="M19.41,14.09c-.36.92-.73,1.84-1.1,2.76l6.76,1.63a4,4,0,0,1,.71-2.32A29.65,29.65,0,0,1,19.41,14.09Z" fill="none"/><path id="Trazado_1750-8" data-name="Trazado 1750-8" d="M35.74,6.37l-5.93-.31a7.72,7.72,0,0,0-1.37,2.52,23.16,23.16,0,0,1,6.9.37A4.76,4.76,0,0,1,35.74,6.37Z" fill="none"/><path id="Trazado_1751-8" data-name="Trazado 1751-8" d="M20.27,25.52l2.93.15a3.59,3.59,0,0,1-.44-2.88,5.31,5.31,0,0,0-.05-3l-2.05-.5Z" fill="none"/><path id="Trazado_1752-8" data-name="Trazado 1752-8" d="M55.78,16.53l-1.22-1.62L49.74,16l2,2.46C53.12,17.79,54.45,17.17,55.78,16.53Z" fill="none"/><path id="Trazado_1753-8" data-name="Trazado 1753-8" d="M23.1,42.72c-.41-.53-.81-1.07-1.22-1.61l-4.82,1,2.05,2.45C20.44,44,21.77,43.35,23.1,42.72Z" fill="none"/><path id="Trazado_1754-8" data-name="Trazado 1754-8" d="M65.33,21.7a1.47,1.47,0,0,0-.43-1.44,1.27,1.27,0,0,0-1.47-.11,2,2,0,0,0-.39.37A10.23,10.23,0,0,0,60.7,25a4.51,4.51,0,0,1,2.58.84,4.73,4.73,0,0,1,1-2.64A4.47,4.47,0,0,0,65.33,21.7Z" fill="none"/><path id="Trazado_1755-8" data-name="Trazado 1755-8" d="M38.43,47.49A1.46,1.46,0,0,0,38,46.05a1.27,1.27,0,0,0-1.47-.12,2,2,0,0,0-.39.37,10.41,10.41,0,0,0-2.35,4.51,4.52,4.52,0,0,1,2.59.84,4.75,4.75,0,0,1,1-2.63A4.67,4.67,0,0,0,38.43,47.49Z" fill="none"/><path id="Trazado_1756-8" data-name="Trazado 1756-8" d="M20.64,36.5l2.22,1.55,3-4.27-2.19-.22Z" fill="none"/><path id="Trazado_1757-8" data-name="Trazado 1757-8" d="M8.92,28.18a.59.59,0,0,0,.39.3l3.14,1.24a15.27,15.27,0,0,1,3.23-5.18A7.92,7.92,0,0,1,12.49,24l-3.33,3.6C9,27.73,8.83,28,8.92,28.18Z" fill="none"/><path id="Trazado_1758-8" data-name="Trazado 1758-8" d="M58.66,47.4a.62.62,0,0,0,.4.31L62.19,49a15.25,15.25,0,0,1,3.24-5.19,7.87,7.87,0,0,1-3.18-.58l-3.34,3.6C58.75,47,58.58,47.19,58.66,47.4Z" fill="none"/><path id="Trazado_1759-8" data-name="Trazado 1759-8" d="M53.79,48.71a12.44,12.44,0,0,1,3.31-4.17l-2.42-1.21-3.79,3.55Z" fill="none"/><path id="Trazado_1760-8" data-name="Trazado 1760-8" d="M24.68,48.05l2.67,1.46a33.24,33.24,0,0,1,3.41-4.43,1.17,1.17,0,0,0-1-.64Z" fill="none"/><path id="Trazado_1761-8" data-name="Trazado 1761-8" d="M11.62,12.27c-1.11,1.22-2.21,2.44-3.32,3.65l2.32,1.38L13.7,13Z" fill="none"/><path id="Trazado_1762-8" data-name="Trazado 1762-8" d="M22.9,7.44a3.33,3.33,0,0,0-1.77-.1l-3.06.38c.22.91.44,1.83.67,2.74a10.82,10.82,0,0,1,5.66-1A3.35,3.35,0,0,0,22.9,7.44Z" fill="none"/><path id="Trazado_1763-8" data-name="Trazado 1763-8" d="M71.62,28.44a2.87,2.87,0,0,0,.72.58,1.28,1.28,0,0,0,1.8-1.34,23.33,23.33,0,0,1-3-3.88L68.23,25Z" fill="none"/><path id="Trazado_1764-8" data-name="Trazado 1764-8" d="M49.19,43.1a2.66,2.66,0,0,0,.72.58,1.27,1.27,0,0,0,1.69-.62,1.19,1.19,0,0,0,.11-.72,22.87,22.87,0,0,1-3-3.88l-3,1.15Q47.5,41.35,49.19,43.1Z" fill="none"/><path id="Trazado_1765-8" data-name="Trazado 1765-8" d="M55,14.21a2.83,2.83,0,0,0,.72.57,1.26,1.26,0,0,0,1.69-.62,1.24,1.24,0,0,0,.11-.71,22.82,22.82,0,0,1-3-3.89l-3,1.15Z" fill="none"/><path id="Trazado_1766-8" data-name="Trazado 1766-8" d="M32.86,15.67a2.66,2.66,0,0,0,.72.58,1.28,1.28,0,0,0,1.7-.63,1.33,1.33,0,0,0,.1-.71,22.87,22.87,0,0,1-3-3.88l-3,1.15Z" fill="none"/><path id="Trazado_1767-8" data-name="Trazado 1767-8" d="M57.25,6a11.19,11.19,0,0,1-4.53-.46c-.25.75-.5,1.49-.76,2.23a19.51,19.51,0,0,1,5.79.6A3.64,3.64,0,0,1,57.25,6Z" fill="none"/><path id="Trazado_1768-8" data-name="Trazado 1768-8" d="M31,33.55a5.88,5.88,0,0,1-2.83-3.91l-2.76,1a20.8,20.8,0,0,1,3.49,4.83Z" fill="none"/><path id="Trazado_1769-8" data-name="Trazado 1769-8" d="M40.88,4.58A5.87,5.87,0,0,1,38.05.66l-2.76,1a21,21,0,0,1,3.48,4.84Z" fill="none"/><path id="Trazado_1770-8" data-name="Trazado 1770-8" d="M50.67,52.19a5.88,5.88,0,0,1-2.83-3.91l-2.77,1a20.8,20.8,0,0,1,3.49,4.83Z" fill="none"/><path id="Trazado_1771-8" data-name="Trazado 1771-8" d="M49.2,37.44a1.24,1.24,0,0,0,1.46,1,1.27,1.27,0,0,0,.56-.27L52.9,34a10.31,10.31,0,0,0-2.29-.16,5,5,0,0,0-1.41,3A2,2,0,0,0,49.2,37.44Z" fill="none"/><path id="Trazado_1772-8" data-name="Trazado 1772-8" d="M38.92,34.71c-.07-.26-.39-.36-.66-.4l-2-.3q-1.6,2-3.23,3.89L35.35,39l3.32-3.7A.76.76,0,0,0,38.92,34.71Z" fill="none"/><path id="Trazado_1773-8" data-name="Trazado 1773-8" d="M8.62,36a16.72,16.72,0,0,1,5,3.23l2-2.67a29.49,29.49,0,0,1-4.79-2.26Z" fill="none"/><path id="Trazado_1778-2" data-name="Trazado 1778-2" d="M32,40.84a3.08,3.08,0,0,0-1.34-1.05l-2.93-1.51c-.78.91-1.56,1.83-2.33,2.75a17.53,17.53,0,0,1,6.46,2.46A3.1,3.1,0,0,0,32,40.84Z" fill="none"/><path id="Trazado_1779-2" data-name="Trazado 1779-2" d="M49.05,3.21a3.06,3.06,0,0,0-1.34-1L44.78.65c-.78.92-1.56,1.83-2.33,2.75a17.53,17.53,0,0,1,6.46,2.46A3.1,3.1,0,0,0,49.05,3.21Z" fill="none"/><path id="Trazado_1780-2" data-name="Trazado 1780-2" d="M32,40.84a3.08,3.08,0,0,0-1.34-1.05l-2.93-1.51c-.78.91-1.56,1.83-2.33,2.75a17.53,17.53,0,0,1,6.46,2.46A3.1,3.1,0,0,0,32,40.84Z" fill="none"/><path id="Trazado_1781-2" data-name="Trazado 1781-2" d="M15.35,33l2.22,1.54,3-4.27L18.42,30Z" fill="none"/><path id="Trazado_1782-2" data-name="Trazado 1782-2" d="M56.26,39.2a1.24,1.24,0,0,0,1.45,1,1.33,1.33,0,0,0,.57-.28L60,35.78a10.44,10.44,0,0,0-2.3-.16,5.17,5.17,0,0,0-1.41,3A1.73,1.73,0,0,0,56.26,39.2Z" fill="none"/><path id="Trazado_1783-2" data-name="Trazado 1783-2" d="M41.55,45.45a2.52,2.52,0,0,0,.72.58A1.26,1.26,0,0,0,44,45.41a1.24,1.24,0,0,0,.11-.71,22.82,22.82,0,0,1-3-3.89l-3,1.15C39.29,43.12,40.42,44.29,41.55,45.45Z" fill="none"/></g></g></g></g></g></svg>