<svg xmlns="http://www.w3.org/2000/svg" viewBox="0 0 79.7 66.67"><title>Dona_CChocB_TRosa</title><g id="Capa_2" data-name="Capa 2"><g id="Capa_1-2" data-name="Capa 1"><g id="Grupo_592" data-name="Grupo 592"><g id="Dona-15"><g id="Grupo_647-15" data-name="Grupo 647-15"><path id="Trazado_357-15" data-name="Trazado 357-15" d="M77,21.73c-1.62-5.52-26-16.57-42-13.64-5.44,1-9.94,4.19-14.63,5.9C-3.14,22.59-2.71,39.09,6.73,52.28,12.07,59.75,26.56,67.57,43,66.59,89.55,63.83,77,21.73,77,21.73Zm-23.23,8c.1.1.18.21.27.31C56.83,32,52.89,28.92,53.78,29.75Z" fill="#bf8320"/><path id="Trazado_1814-15" data-name="Trazado 1814-15" d="M78.2,34.29C77.06,33.54,56,53.25.77,37.73a6.09,6.09,0,0,0-.17.61C1.08,41,2.23,43,2.86,45.48c7.89,8,35.25,11.92,73.06,1.29C77.59,43.25,79.33,35.05,78.2,34.29Z" fill="#b9640f"/></g></g><g id="Cubierta_de_Choc.b-4" data-name="Cubierta de Choc.b-4"><path id="Trazado_1812-4" data-name="Trazado 1812-4" d="M70,51.38c.6-1.88-.12-4.9,1-6.44s4-1.93,5.47-3c2.61-1.8,2.62-5.4,3-8.26,1.42-11.58-2.93-22.17-21-29.75C49.1,0,29.2-4.15,11.53,8.41,1,15.91-1.06,24,.43,33.48,1,37.08,4.31,44.39,8.5,45.92c2,.74,3.55.14,5.49,1.66a12.22,12.22,0,0,1,3.4,4.34c2.23,4.25,4.92,4.92,9.73,4.69,2.63-.12,3.82-.48,5.95,1.2a9.13,9.13,0,0,0,5.3,2.28c4.52.25,6.57-5.73,11.41-2.31,1.76,1.24,3.39,2.65,5.61,1.57s1.52-3.6,3.3-4.91C62.36,51.72,67.93,58,70,51.38Z" fill="#e2d7cf"/></g><g id="Chispas_ROsadas-3" data-name="Chispas ROsadas-3"><path id="Trazado_1744-14" data-name="Trazado 1744-14" d="M65.43,13a2.48,2.48,0,0,0-1.51-.34l-3.57-.06.09,1.9a11,11,0,0,1,5.67.7A2.6,2.6,0,0,0,65.43,13Z" fill="#f729ac"/><path id="Trazado_1745-14" data-name="Trazado 1745-14" d="M75.18,33.48a2.48,2.48,0,0,0-1.51-.34l-3.57-.06.09,1.9a11.2,11.2,0,0,1,5.67.7A2.57,2.57,0,0,0,75.18,33.48Z" fill="#f729ac"/><path id="Trazado_1746-14" data-name="Trazado 1746-14" d="M72,38.47l-2.75-2.65a59.31,59.31,0,0,1-6.83,2.37,8.1,8.1,0,0,1,2.9,3.71A29.92,29.92,0,0,1,72,38.47Z" fill="#f729ac"/><path id="Trazado_1747-14" data-name="Trazado 1747-14" d="M14.57,22l-2.76-2.66A59.36,59.36,0,0,1,5,21.75a8.1,8.1,0,0,1,2.9,3.71A30,30,0,0,1,14.57,22Z" fill="#f729ac"/><path id="Trazado_1748-14" data-name="Trazado 1748-14" d="M61.19,29.21a3.13,3.13,0,0,0-1.34-1l-2.93-1.52L54.59,29.4a17.46,17.46,0,0,1,6.46,2.46A3.1,3.1,0,0,0,61.19,29.21Z" fill="#f729ac"/><path id="Trazado_1749-14" data-name="Trazado 1749-14" d="M19.79,14.22c-.36.92-.73,1.84-1.1,2.76l6.76,1.63a4.06,4.06,0,0,1,.71-2.31A29.68,29.68,0,0,1,19.79,14.22Z" fill="#f729ac"/><path id="Trazado_1750-14" data-name="Trazado 1750-14" d="M36.13,6.5l-5.94-.31a7.72,7.72,0,0,0-1.37,2.52,23.22,23.22,0,0,1,6.91.37A4.6,4.6,0,0,1,36.13,6.5Z" fill="#f729ac"/><path id="Trazado_1751-14" data-name="Trazado 1751-14" d="M20.65,25.65l2.93.15a3.63,3.63,0,0,1-.44-2.88,5.31,5.31,0,0,0-.05-3L21,19.46Z" fill="#f729ac"/><path id="Trazado_1752-14" data-name="Trazado 1752-14" d="M56.16,16.66c-.41-.53-.82-1.07-1.22-1.61l-4.82,1,2.05,2.46Q54.17,17.62,56.16,16.66Z" fill="#f729ac"/><path id="Trazado_1753-14" data-name="Trazado 1753-14" d="M23.48,42.86l-1.22-1.62-4.82,1,2,2.46Z" fill="#f729ac"/><path id="Trazado_1754-14" data-name="Trazado 1754-14" d="M65.71,21.83a1.43,1.43,0,0,0-.43-1.43,1.25,1.25,0,0,0-1.47-.11,1.67,1.67,0,0,0-.39.36,10.29,10.29,0,0,0-2.34,4.51,4.49,4.49,0,0,1,2.58.84,4.67,4.67,0,0,1,1-2.63A4.61,4.61,0,0,0,65.71,21.83Z" fill="#f729ac"/><path id="Trazado_1755-14" data-name="Trazado 1755-14" d="M38.81,47.62a1.46,1.46,0,0,0-.43-1.44,1.27,1.27,0,0,0-1.47-.12,2,2,0,0,0-.39.37,10.39,10.39,0,0,0-2.34,4.51,4.54,4.54,0,0,1,2.59.84,4.76,4.76,0,0,1,1-2.63A4.67,4.67,0,0,0,38.81,47.62Z" fill="#f729ac"/><path id="Trazado_1756-14" data-name="Trazado 1756-14" d="M21,36.64l2.22,1.54,3-4.27-2.19-.22Z" fill="#f729ac"/><path id="Trazado_1757-14" data-name="Trazado 1757-14" d="M9.3,28.31a.66.66,0,0,0,.4.31l3.13,1.24a15.18,15.18,0,0,1,3.23-5.18,7.68,7.68,0,0,1-3.18-.59l-3.34,3.6C9.38,27.87,9.21,28.09,9.3,28.31Z" fill="#f729ac"/><path id="Trazado_1758-14" data-name="Trazado 1758-14" d="M59,47.54a.67.67,0,0,0,.4.3l3.14,1.25a15.47,15.47,0,0,1,3.23-5.19,7.87,7.87,0,0,1-3.18-.58l-3.34,3.6C59.13,47.09,59,47.32,59,47.54Z" fill="#f729ac"/><path id="Trazado_1759-14" data-name="Trazado 1759-14" d="M54.17,48.85a12.29,12.29,0,0,1,3.32-4.18l-2.43-1.21L51.27,47Z" fill="#f729ac"/><path id="Trazado_1760-14" data-name="Trazado 1760-14" d="M25.06,48.18l2.67,1.46a33.24,33.24,0,0,1,3.41-4.43,1.17,1.17,0,0,0-1-.64Z" fill="#f729ac"/><path id="Trazado_1761-14" data-name="Trazado 1761-14" d="M12,12.4q-1.65,1.83-3.32,3.65L11,17.43l3.07-4.26Z" fill="#f729ac"/><path id="Trazado_1762-14" data-name="Trazado 1762-14" d="M23.28,7.57a3.33,3.33,0,0,0-1.77-.1l-3.06.38c.22.91.45,1.83.67,2.74a10.92,10.92,0,0,1,5.66-1A3.34,3.34,0,0,0,23.28,7.57Z" fill="#f729ac"/><path id="Trazado_1763-14" data-name="Trazado 1763-14" d="M72,28.57a2.66,2.66,0,0,0,.71.58,1.28,1.28,0,0,0,1.8-1.34,22.87,22.87,0,0,1-3-3.88l-3,1.15Z" fill="#f729ac"/><path id="Trazado_1764-14" data-name="Trazado 1764-14" d="M49.58,43.23a2.39,2.39,0,0,0,.72.58A1.27,1.27,0,0,0,52,43.19a1.24,1.24,0,0,0,.1-.71,23.35,23.35,0,0,1-3-3.89l-3,1.15C47.31,40.9,48.44,42.07,49.58,43.23Z" fill="#f729ac"/><path id="Trazado_1765-14" data-name="Trazado 1765-14" d="M55.42,14.34a2.83,2.83,0,0,0,.72.57,1.28,1.28,0,0,0,1.7-.62,1.24,1.24,0,0,0,.1-.71,22.82,22.82,0,0,1-3-3.89L52,10.85Z" fill="#f729ac"/><path id="Trazado_1766-14" data-name="Trazado 1766-14" d="M33.24,15.8a2.66,2.66,0,0,0,.72.58,1.28,1.28,0,0,0,1.7-.63,1.23,1.23,0,0,0,.1-.71,22.87,22.87,0,0,1-3-3.88l-2.95,1.15Z" fill="#f729ac"/><path id="Trazado_1767-14" data-name="Trazado 1767-14" d="M57.63,6.14a11.57,11.57,0,0,1-4.53-.46c-.25.74-.5,1.48-.76,2.22a19.48,19.48,0,0,1,5.79.6A3.69,3.69,0,0,1,57.63,6.14Z" fill="#f729ac"/><path id="Trazado_1768-14" data-name="Trazado 1768-14" d="M31.33,33.69a5.91,5.91,0,0,1-2.82-3.92l-2.77,1a20.86,20.86,0,0,1,3.49,4.84Z" fill="#f729ac"/><path id="Trazado_1769-14" data-name="Trazado 1769-14" d="M41.26,4.71A5.88,5.88,0,0,1,38.43.8q-1.38.49-2.76,1a20.76,20.76,0,0,1,3.48,4.83Z" fill="#f729ac"/><path id="Trazado_1770-14" data-name="Trazado 1770-14" d="M51.05,52.32a5.88,5.88,0,0,1-2.83-3.91l-2.77,1a21,21,0,0,1,3.49,4.83Z" fill="#f729ac"/><path id="Trazado_1771-14" data-name="Trazado 1771-14" d="M49.58,37.57a1.23,1.23,0,0,0,1.46,1,1.17,1.17,0,0,0,.56-.27c.57-1.38,1.12-2.75,1.68-4.12A10.31,10.31,0,0,0,51,34a5,5,0,0,0-1.41,3A2,2,0,0,0,49.58,37.57Z" fill="#f729ac"/><path id="Trazado_1772-14" data-name="Trazado 1772-14" d="M39.3,34.84c-.06-.26-.39-.36-.66-.4l-2-.3Q35.07,36.09,33.44,38l2.3,1.08c1.1-1.23,2.2-2.47,3.31-3.7A.76.76,0,0,0,39.3,34.84Z" fill="#f729ac"/><path id="Trazado_1773-14" data-name="Trazado 1773-14" d="M9,36.16a16.91,16.91,0,0,1,5,3.23l2-2.67a29,29,0,0,1-4.78-2.25Z" fill="#f729ac"/><path id="Trazado_1832-3" data-name="Trazado 1832-3" d="M48.47,16.13l-2.75-2.66a57.52,57.52,0,0,1-6.83,2.38,8.1,8.1,0,0,1,2.9,3.71A29.92,29.92,0,0,1,48.47,16.13Z" fill="#f729ac"/><path id="Trazado_1833-3" data-name="Trazado 1833-3" d="M48.85,28a3.25,3.25,0,0,0-1.34-1l-2.94-1.52-2.33,2.76a17.34,17.34,0,0,1,6.47,2.46A3.19,3.19,0,0,0,48.85,28Z" fill="#f729ac"/><path id="Trazado_1834-3" data-name="Trazado 1834-3" d="M36.46,24.69A1.46,1.46,0,0,0,36,23.25a1.25,1.25,0,0,0-1.47-.11,1.67,1.67,0,0,0-.39.36A10.41,10.41,0,0,0,31.82,28a4.59,4.59,0,0,1,2.59.84,4.78,4.78,0,0,1,1-2.63A4.67,4.67,0,0,0,36.46,24.69Z" fill="#f729ac"/></g></g></g></g></svg>