<svg xmlns="http://www.w3.org/2000/svg" xmlns:xlink="http://www.w3.org/1999/xlink" viewBox="0 0 79.7 66.67"><defs><linearGradient id="Degradado_sin_nombre_101" x1="-183.31" y1="263.39" x2="-182.93" y2="263.21" gradientTransform="matrix(13.62, 0, 0, -13.85, 3296.9, 4034.93)" gradientUnits="userSpaceOnUse"><stop offset="0" stop-color="#f4dfba"/><stop offset="1" stop-color="#f0d19c"/></linearGradient><linearGradient id="Degradado_sin_nombre_102" x1="-230.51" y1="292.02" x2="-230.03" y2="292.02" gradientTransform="matrix(11.27, 0, 0, -11.53, 2730.99, 3374.77)" gradientUnits="userSpaceOnUse"><stop offset="0" stop-color="#f4dfba"/><stop offset="1" stop-color="#deb878"/></linearGradient><linearGradient id="Degradado_sin_nombre_101-2" x1="-214.63" y1="280.66" x2="-214.2" y2="280.48" gradientTransform="matrix(12.21, 0, 0, -14.54, 3008.86, 4277.69)" xlink:href="#Degradado_sin_nombre_101"/><linearGradient id="Degradado_sin_nombre_102-2" x1="-271.57" y1="292.6" x2="-270.98" y2="292.6" gradientTransform="matrix(9.17, 0, 0, -13.06, 2276.24, 3858.21)" xlink:href="#Degradado_sin_nombre_102"/><linearGradient id="Degradado_sin_nombre_101-3" x1="-289.27" y1="324.95" x2="-288.93" y2="324.73" gradientTransform="matrix(15.1, 0, 0, -11.66, 3683.52, 3478.29)" xlink:href="#Degradado_sin_nombre_101"/><linearGradient id="Degradado_sin_nombre_102-3" x1="-343.19" y1="298.68" x2="-342.82" y2="298.68" gradientTransform="matrix(14.53, 0, 0, -8.22, 3544.65, 2503.88)" xlink:href="#Degradado_sin_nombre_102"/><linearGradient id="Degradado_sin_nombre_101-4" x1="-186.69" y1="264.95" x2="-186.31" y2="264.77" gradientTransform="matrix(13.62, 0, 0, -13.85, 3348.35, 4057.58)" xlink:href="#Degradado_sin_nombre_101"/><linearGradient id="Degradado_sin_nombre_102-4" x1="-235.19" y1="292.84" x2="-234.71" y2="292.84" gradientTransform="matrix(11.27, 0, 0, -11.53, 2782.2, 3397.7)" xlink:href="#Degradado_sin_nombre_102"/><linearGradient id="Degradado_sin_nombre_101-5" x1="-183.21" y1="264.99" x2="-182.83" y2="264.81" gradientTransform="matrix(13.62, 0, 0, -13.85, 3267.06, 4072.5)" xlink:href="#Degradado_sin_nombre_101"/><linearGradient id="Degradado_sin_nombre_102-5" x1="-229.28" y1="293.37" x2="-228.8" y2="293.37" gradientTransform="matrix(11.27, 0, 0, -11.53, 2701.04, 3412.65)" xlink:href="#Degradado_sin_nombre_102"/><linearGradient id="Degradado_sin_nombre_101-6" x1="-239.42" y1="291.3" x2="-239" y2="291.13" gradientTransform="matrix(11.21, 0, 0, -13.55, 2699.45, 3961.76)" xlink:href="#Degradado_sin_nombre_101"/><linearGradient id="Degradado_sin_nombre_102-6" x1="-238.94" y1="291.59" x2="-238.35" y2="291.59" gradientTransform="matrix(8.31, 0, 0, -12.79, 2003.64, 3743.34)" xlink:href="#Degradado_sin_nombre_102"/><linearGradient id="Degradado_sin_nombre_101-7" x1="-267.32" y1="312.59" x2="-266.97" y2="312.35" gradientTransform="matrix(16.05, 0, 0, -11.66, 3874.29, 3471.34)" xlink:href="#Degradado_sin_nombre_101"/><linearGradient id="Degradado_sin_nombre_102-7" x1="-323.99" y1="298.78" x2="-323.62" y2="298.78" gradientTransform="matrix(15.37, 0, 0, -8.01, 3708.43, 2438.03)" xlink:href="#Degradado_sin_nombre_102"/><linearGradient id="Degradado_sin_nombre_101-8" x1="-282.26" y1="324.89" x2="-281.91" y2="324.68" gradientTransform="matrix(8.68, 0, 0, -6.74, 2135.51, 2032.12)" xlink:href="#Degradado_sin_nombre_101"/><linearGradient id="Degradado_sin_nombre_102-8" x1="-328.13" y1="305.03" x2="-327.76" y2="305.03" gradientTransform="matrix(8.34, 0, 0, -4.78, 2054.13, 1474.9)" xlink:href="#Degradado_sin_nombre_102"/><linearGradient id="Degradado_sin_nombre_101-9" x1="-195.18" y1="273.25" x2="-194.8" y2="273.06" gradientTransform="matrix(9.91, 0, 0, -10.08, 2401.06, 2996.26)" xlink:href="#Degradado_sin_nombre_101"/><linearGradient id="Degradado_sin_nombre_102-9" x1="-233.49" y1="296.61" x2="-233.02" y2="296.61" gradientTransform="matrix(8.2, 0, 0, -8.39, 1988.8, 2515.38)" xlink:href="#Degradado_sin_nombre_102"/><linearGradient id="Degradado_sin_nombre_101-10" x1="-195.77" y1="273.6" x2="-195.39" y2="273.42" gradientTransform="matrix(10.91, 0, 0, -11.1, 2655.04, 3321.32)" xlink:href="#Degradado_sin_nombre_101"/><linearGradient id="Degradado_sin_nombre_102-10" x1="-234.21" y1="297.03" x2="-233.73" y2="297.03" gradientTransform="matrix(9.03, 0, 0, -9.24, 2201.44, 2792.49)" xlink:href="#Degradado_sin_nombre_102"/><linearGradient id="Degradado_sin_nombre_101-11" x1="-186.02" y1="270.99" x2="-185.64" y2="270.81" gradientTransform="matrix(6.31, -5.88, -5.98, -6.41, 3222.34, 556.09)" xlink:href="#Degradado_sin_nombre_101"/><linearGradient id="Degradado_sin_nombre_102-11" x1="-222.47" y1="293.91" x2="-221.99" y2="293.91" gradientTransform="matrix(5.23, -4.88, -4.98, -5.34, 2679.13, 491.33)" xlink:href="#Degradado_sin_nombre_102"/><linearGradient id="Degradado_sin_nombre_101-12" x1="-289.33" y1="306.41" x2="-288.99" y2="306.2" gradientTransform="matrix(-15.09, 0.53, 0.41, 11.65, -3706.34, -3074.98)" xlink:href="#Degradado_sin_nombre_101"/><linearGradient id="Degradado_sin_nombre_102-12" x1="-343.25" y1="272.4" x2="-342.88" y2="272.4" gradientTransform="matrix(-14.51, 0.51, 0.29, 8.22, -3532.66, -2108.06)" xlink:href="#Degradado_sin_nombre_102"/><linearGradient id="Degradado_sin_nombre_101-13" x1="-267.38" y1="294.06" x2="-267.03" y2="293.83" gradientTransform="matrix(-16.04, 0.56, 0.41, 11.65, -3896.82, -3062.74)" xlink:href="#Degradado_sin_nombre_101"/><linearGradient id="Degradado_sin_nombre_102-13" x1="-324.05" y1="271.82" x2="-323.68" y2="271.82" gradientTransform="matrix(-15.35, 0.54, 0.28, 8, -3694.81, -2036.43)" xlink:href="#Degradado_sin_nombre_102"/><linearGradient id="Degradado_sin_nombre_101-14" x1="-195.85" y1="254.14" x2="-195.47" y2="253.95" gradientTransform="matrix(-10.9, 0.38, 0.39, 11.09, -2673.23, -2954.99)" xlink:href="#Degradado_sin_nombre_101"/><linearGradient id="Degradado_sin_nombre_102-14" x1="-234.3" y1="273.66" x2="-233.82" y2="273.66" gradientTransform="matrix(-9.02, 0.32, 0.32, 9.23, -2201.16, -2443.21)" xlink:href="#Degradado_sin_nombre_102"/><linearGradient id="Degradado_sin_nombre_101-15" x1="-282.41" y1="326.91" x2="-282.07" y2="326.69" gradientTransform="matrix(8.68, 0, 0, -6.74, 2138.79, 2065.1)" xlink:href="#Degradado_sin_nombre_101"/><linearGradient id="Degradado_sin_nombre_102-15" x1="-328.29" y1="307.88" x2="-327.92" y2="307.88" gradientTransform="matrix(8.34, 0, 0, -4.78, 2057.41, 1507.88)" xlink:href="#Degradado_sin_nombre_102"/><linearGradient id="Degradado_sin_nombre_101-16" x1="-281.36" y1="326.91" x2="-281.02" y2="326.69" gradientTransform="matrix(8.68, 0, 0, -6.74, 2116.64, 2065.1)" xlink:href="#Degradado_sin_nombre_101"/><linearGradient id="Degradado_sin_nombre_102-16" x1="-327.2" y1="307.88" x2="-326.82" y2="307.88" gradientTransform="matrix(8.34, 0, 0, -4.78, 2035.26, 1507.88)" xlink:href="#Degradado_sin_nombre_102"/><linearGradient id="Degradado_sin_nombre_101-17" x1="-196.2" y1="272.33" x2="-195.82" y2="272.14" gradientTransform="matrix(10.91, 0, 0, -11.1, 2666.48, 3287.06)" xlink:href="#Degradado_sin_nombre_101"/><linearGradient id="Degradado_sin_nombre_102-17" x1="-234.73" y1="295.51" x2="-234.25" y2="295.51" gradientTransform="matrix(9.03, 0, 0, -9.24, 2212.88, 2758.23)" xlink:href="#Degradado_sin_nombre_102"/></defs><title>Dona_CChocB_TMani</title><g id="Capa_2" data-name="Capa 2"><g id="Capa_1-2" data-name="Capa 1"><g id="Grupo_591" data-name="Grupo 591"><g id="Dona-12"><g id="Grupo_647-12" data-name="Grupo 647-12"><path id="Trazado_357-12" data-name="Trazado 357-12" d="M77,21.73c-1.62-5.52-26-16.57-42-13.64-5.44,1-9.94,4.19-14.63,5.9C-3.14,22.59-2.71,39.09,6.73,52.28,12.07,59.75,26.56,67.57,43,66.59,89.55,63.83,77,21.73,77,21.73Zm-23.23,8c.1.1.18.21.27.31C56.83,32,52.89,28.92,53.78,29.75Z" fill="#bf8320"/><path id="Trazado_1814-12" data-name="Trazado 1814-12" d="M78.2,34.29C77.06,33.54,56,53.25.77,37.73a6.09,6.09,0,0,0-.17.61C1.08,41,2.23,43,2.86,45.48c7.89,8,35.25,11.92,73.06,1.29C77.59,43.25,79.33,35.05,78.2,34.29Z" fill="#b9640f"/></g></g><g id="Cubierta_de_Choc.b" data-name="Cubierta de Choc.b"><path id="Trazado_1812" data-name="Trazado 1812" d="M70,51.38c.6-1.88-.12-4.9,1-6.44s4-1.93,5.47-3c2.61-1.8,2.62-5.4,3-8.26,1.42-11.58-2.93-22.17-21-29.75C49.1,0,29.2-4.15,11.53,8.41,1,15.91-1.06,24,.43,33.48,1,37.08,4.31,44.39,8.5,45.92c2,.74,3.55.14,5.49,1.66a12.22,12.22,0,0,1,3.4,4.34c2.23,4.25,4.92,4.92,9.73,4.69,2.63-.12,3.82-.48,5.95,1.2a9.13,9.13,0,0,0,5.3,2.28c4.52.25,6.57-5.73,11.41-2.31,1.76,1.24,3.39,2.65,5.61,1.57s1.52-3.6,3.3-4.91C62.36,51.72,67.93,58,70,51.38Z" fill="#e2d7cf"/></g><g id="Mani-3"><g id="Grupo_536-3" data-name="Grupo 536-3"><path id="Trazado_1784-3" data-name="Trazado 1784-3" d="M26.46,11.88a4.68,4.68,0,0,0,5.89.34c2.32-1.62,2.12-5.92-.2-7s-3,.84-2.71,2S28.47,9,27.6,9.16,25.22,10.5,26.46,11.88Z" fill="url(#Degradado_sin_nombre_101)"/><path id="Trazado_1785-3" data-name="Trazado 1785-3" d="M29.44,7.22c.3,1.13-1,1.82-1.84,1.94s-1.87.95-1.56,2c2.26.87,3.86.91,5.65-1.12a5,5,0,0,0,.59-4.74l-.13-.06C30,4.25,29.14,6.09,29.44,7.22Z" fill="url(#Degradado_sin_nombre_102)"/><path id="Trazado_1786-3" data-name="Trazado 1786-3" d="M29.23,8.76a1.06,1.06,0,0,0,.23-1,1.73,1.73,0,0,1-1,1.15A.83.83,0,0,0,29.23,8.76Z" fill="#bd896e"/></g><g id="Grupo_537-3" data-name="Grupo 537-3"><path id="Trazado_1787-3" data-name="Trazado 1787-3" d="M57.26,41.36a4.68,4.68,0,0,0,5.65-1.7c1.62-2.33,0-6.29-2.59-6.48S57.78,35,58.45,36s-.27,2-1.05,2.46S55.62,40.5,57.26,41.36Z" fill="url(#Degradado_sin_nombre_101-2)"/><path id="Trazado_1788-3" data-name="Trazado 1788-3" d="M58.45,36c.68,1-.28,2-1.05,2.46S56,40,56.62,40.84c2.43,0,3.94-.47,4.91-3a4.9,4.9,0,0,0-1.07-4.65l-.14,0C57.92,33,57.78,35,58.45,36Z" fill="url(#Degradado_sin_nombre_102-2)"/><path id="Trazado_1789-3" data-name="Trazado 1789-3" d="M58.79,37.49a1.09,1.09,0,0,0-.13-1,1.7,1.7,0,0,1-.58,1.43A.84.84,0,0,0,58.79,37.49Z" fill="#bd896e"/></g><g id="Grupo_538-3" data-name="Grupo 538-3"><path id="Trazado_1790-5" data-name="Trazado 1790-5" d="M51.7,47.39a4.69,4.69,0,0,0-4.34-4c-2.83-.22-5.39,3.24-4.27,5.52s2.87,1.26,3.35.2,1.9-.8,2.65-.34S51.79,49.25,51.7,47.39Z" fill="url(#Degradado_sin_nombre_101-3)"/><path id="Trazado_1791-5" data-name="Trazado 1791-5" d="M46.44,49.11c.48-1.07,1.9-.8,2.65-.34s2,.46,2.48-.57c-1.19-2.1-2.4-3.15-5.07-2.7A4.94,4.94,0,0,0,43,48.78l.06.13C44.15,51.07,46,50.17,46.44,49.11Z" fill="url(#Degradado_sin_nombre_102-3)"/><path id="Trazado_1792-5" data-name="Trazado 1792-5" d="M47.58,48.05a1.06,1.06,0,0,0-.81.62,1.71,1.71,0,0,1,1.53-.22A.79.79,0,0,0,47.58,48.05Z" fill="#bd896e"/></g><g id="Grupo_539-3" data-name="Grupo 539-3"><path id="Trazado_1793-3" data-name="Trazado 1793-3" d="M56.66,25.32a4.69,4.69,0,0,0,5.89.34c2.32-1.62,2.11-5.92-.2-7s-3,.84-2.71,2-1,1.82-1.84,1.94S55.41,23.94,56.66,25.32Z" fill="url(#Degradado_sin_nombre_101-4)"/><path id="Trazado_1794-3" data-name="Trazado 1794-3" d="M59.64,20.66c.3,1.13-1,1.82-1.84,1.94-.72.1-1.87.95-1.56,2,2.26.88,3.86.91,5.64-1.12a4.91,4.91,0,0,0,.6-4.73l-.13-.07C60.16,17.69,59.34,19.53,59.64,20.66Z" fill="url(#Degradado_sin_nombre_102-4)"/><path id="Trazado_1795-3" data-name="Trazado 1795-3" d="M59.43,22.21a1.08,1.08,0,0,0,.23-1,1.75,1.75,0,0,1-1,1.14A.84.84,0,0,0,59.43,22.21Z" fill="#bd896e"/></g><g id="Grupo_540-3" data-name="Grupo 540-3"><path id="Trazado_1796-3" data-name="Trazado 1796-3" d="M8.94,34.13a4.68,4.68,0,0,0,5.89.35c2.32-1.62,2.11-5.92-.2-7s-3,.85-2.71,2-1,1.82-1.84,1.94S7.69,32.76,8.94,34.13Z" fill="url(#Degradado_sin_nombre_101-5)"/><path id="Trazado_1797-3" data-name="Trazado 1797-3" d="M11.92,29.48c.3,1.12-1,1.82-1.84,1.94s-1.87.94-1.56,2c2.26.87,3.86.91,5.64-1.13a4.9,4.9,0,0,0,.6-4.73l-.13-.07C12.44,26.51,11.61,28.35,11.92,29.48Z" fill="url(#Degradado_sin_nombre_102-5)"/><path id="Trazado_1798-3" data-name="Trazado 1798-3" d="M11.71,31a1.1,1.1,0,0,0,.23-1,1.75,1.75,0,0,1-1,1.15A.84.84,0,0,0,11.71,31Z" fill="#bd896e"/></g><g id="Grupo_541-3" data-name="Grupo 541-3"><path id="Trazado_1799-3" data-name="Trazado 1799-3" d="M18.46,11.39a4.26,4.26,0,0,0-2.84,4.55c.28,2.55,3.79,4.26,5.64,2.87s.64-2.77-.39-3-1-1.57-.75-2.31S20.09,11,18.46,11.39Z" fill="url(#Degradado_sin_nombre_101-6)"/><path id="Trazado_1800-3" data-name="Trazado 1800-3" d="M20.87,15.8c-1-.25-1-1.57-.74-2.31s.05-1.9-.93-2.12c-1.68,1.42-2.4,2.68-1.56,5a4.46,4.46,0,0,0,3.51,2.54l.11-.08C23,17.5,21.9,16,20.87,15.8Z" fill="url(#Degradado_sin_nombre_102-6)"/><path id="Trazado_1801-3" data-name="Trazado 1801-3" d="M19.73,15a1,1,0,0,0,.69.62A1.56,1.56,0,0,1,20,14.24.76.76,0,0,0,19.73,15Z" fill="#bd896e"/></g><g id="Grupo_542-3" data-name="Grupo 542-3"><path id="Trazado_1802-5" data-name="Trazado 1802-5" d="M29.67,45.45a5,5,0,0,0-3.46-5.31c-2.88-1-6.46,2-5.89,4.63.54,2.52,2.65,2.06,3.43,1.08s2.19-.33,2.85.34S29.28,47.39,29.67,45.45Z" fill="url(#Degradado_sin_nombre_101-7)"/><path id="Trazado_1803-5" data-name="Trazado 1803-5" d="M23.75,45.85c.78-1,2.19-.33,2.85.34s2,1,2.73.07c-.69-2.51-1.68-3.91-4.57-4.15a5.29,5.29,0,0,0-4.47,2.5l0,.16C20.86,47.29,23,46.83,23.75,45.85Z" fill="url(#Degradado_sin_nombre_102-7)"/><path id="Trazado_1804-5" data-name="Trazado 1804-5" d="M25.22,45a1.16,1.16,0,0,0-1,.44,1.82,1.82,0,0,1,1.65.17A.91.91,0,0,0,25.22,45Z" fill="#bd896e"/></g><g id="Grupo_543-3" data-name="Grupo 543-3"><path id="Trazado_1805-7" data-name="Trazado 1805-7" d="M47.85,17.77a2.72,2.72,0,0,0-2.54-2.27c-1.62-.09-3.06,1.92-2.4,3.22a1,1,0,0,0,1.93.08c.26-.62,1.08-.48,1.52-.22S47.91,18.83,47.85,17.77Z" fill="url(#Degradado_sin_nombre_101-8)"/><path id="Trazado_1806-7" data-name="Trazado 1806-7" d="M44.84,18.8c.26-.62,1.08-.47,1.52-.22a1,1,0,0,0,1.42-.35,2.47,2.47,0,0,0-2.94-1.51,2.81,2.81,0,0,0-2,1.92l0,.08A1,1,0,0,0,44.84,18.8Z" fill="url(#Degradado_sin_nombre_102-8)"/><path id="Trazado_1807-7" data-name="Trazado 1807-7" d="M45.48,18.18a.64.64,0,0,0-.46.37,1,1,0,0,1,.88-.15A.47.47,0,0,0,45.48,18.18Z" fill="#bd896e"/></g><g id="Grupo_544-3" data-name="Grupo 544-3"><path id="Trazado_1808-11" data-name="Trazado 1808-11" d="M24.63,29.22a3.42,3.42,0,0,0,4.29.25c1.69-1.18,1.54-4.31-.14-5.08s-2.2.61-2,1.44-.7,1.32-1.34,1.41S23.73,28.22,24.63,29.22Z" fill="url(#Degradado_sin_nombre_101-9)"/><path id="Trazado_1809-11" data-name="Trazado 1809-11" d="M26.8,25.83c.22.82-.7,1.32-1.34,1.41s-1.36.69-1.13,1.46c1.64.64,2.81.66,4.11-.82a3.58,3.58,0,0,0,.43-3.44l-.09-.05C27.18,23.66,26.58,25,26.8,25.83Z" fill="url(#Degradado_sin_nombre_102-9)"/><path id="Trazado_1810-11" data-name="Trazado 1810-11" d="M26.65,27a.8.8,0,0,0,.17-.73,1.28,1.28,0,0,1-.76.84A.61.61,0,0,0,26.65,27Z" fill="#bd896e"/></g><g id="Grupo_545-3" data-name="Grupo 545-3"><path id="Trazado_1808-12" data-name="Trazado 1808-12" d="M32.09,50.53a3.77,3.77,0,0,0,4.73.28c1.86-1.31,1.69-4.75-.16-5.6s-2.42.68-2.18,1.58-.77,1.46-1.47,1.56S31.1,49.43,32.09,50.53Z" fill="url(#Degradado_sin_nombre_101-10)"/><path id="Trazado_1809-12" data-name="Trazado 1809-12" d="M34.49,46.79c.24.91-.78,1.46-1.48,1.56s-1.5.76-1.25,1.61c1.81.7,3.09.73,4.52-.9a3.92,3.92,0,0,0,.48-3.79l-.1-.06C34.9,44.41,34.24,45.89,34.49,46.79Z" fill="url(#Degradado_sin_nombre_102-10)"/><path id="Trazado_1810-12" data-name="Trazado 1810-12" d="M34.32,48a.86.86,0,0,0,.18-.8,1.41,1.41,0,0,1-.83.92A.64.64,0,0,0,34.32,48Z" fill="#bd896e"/></g><g id="Grupo_546-3" data-name="Grupo 546-3"><path id="Trazado_1808-13" data-name="Trazado 1808-13" d="M21.7,39.07a3,3,0,0,0,2.88-2.38C25,34.93,23,33,21.47,33.54a1.12,1.12,0,0,0-.4,2.09c.63.39.34,1.26,0,1.69S20.53,39,21.7,39.07Z" fill="url(#Degradado_sin_nombre_101-11)"/><path id="Trazado_1809-13" data-name="Trazado 1809-13" d="M21.07,35.63c.63.39.34,1.26,0,1.69s-.46,1.25.14,1.61c1.43-.58,2.18-1.25,2.13-3a3.09,3.09,0,0,0-1.77-2.45l-.09,0A1.12,1.12,0,0,0,21.07,35.63Z" fill="url(#Degradado_sin_nombre_102-11)"/><path id="Trazado_1810-13" data-name="Trazado 1810-13" d="M21.64,36.44a.72.72,0,0,0-.32-.57,1.09,1.09,0,0,1,0,1A.51.51,0,0,0,21.64,36.44Z" fill="#bd896e"/></g><g id="Grupo_547-3" data-name="Grupo 547-3"><path id="Trazado_1790-6" data-name="Trazado 1790-6" d="M35.66,8.28a4.7,4.7,0,0,0,4.48,3.85c2.83.12,5.27-3.42,4.07-5.67s-2.91-1.15-3.35-.07-1.87.86-2.64.43S35.51,6.44,35.66,8.28Z" fill="url(#Degradado_sin_nombre_101-12)"/><path id="Trazado_1791-6" data-name="Trazado 1791-6" d="M40.86,6.39c-.44,1.08-1.87.86-2.64.43s-2.06-.39-2.46.65C37,9.53,38.28,10.53,40.93,10a4.92,4.92,0,0,0,3.34-3.4l-.06-.13C43.07,4.34,41.3,5.31,40.86,6.39Z" fill="url(#Degradado_sin_nombre_102-12)"/><path id="Trazado_1792-6" data-name="Trazado 1792-6" d="M39.75,7.49a1.1,1.1,0,0,0,.8-.65A1.74,1.74,0,0,1,39,7.11.83.83,0,0,0,39.75,7.49Z" fill="#bd896e"/></g><g id="Grupo_548-3" data-name="Grupo 548-3"><path id="Trazado_1802-6" data-name="Trazado 1802-6" d="M57.67,9.23a5,5,0,0,0,3.64,5.18c2.91.86,6.38-2.18,5.72-4.83s-2.72-2-3.46-1-2.18.41-2.86-.25S58,7.27,57.67,9.23Z" fill="url(#Degradado_sin_nombre_101-13)"/><path id="Trazado_1803-6" data-name="Trazado 1803-6" d="M63.57,8.62c-.75,1-2.18.41-2.86-.25s-2-.93-2.73,0c.78,2.48,1.81,3.84,4.71,4a5.25,5.25,0,0,0,4.37-2.66l0-.15C66.41,7.07,64.31,7.61,63.57,8.62Z" fill="url(#Degradado_sin_nombre_102-13)"/><path id="Trazado_1804-6" data-name="Trazado 1804-6" d="M62.13,9.47a1.15,1.15,0,0,0,1-.46,1.87,1.87,0,0,1-1.66-.12A.88.88,0,0,0,62.13,9.47Z" fill="#bd896e"/></g><g id="Grupo_549-3" data-name="Grupo 549-3"><path id="Trazado_1808-14" data-name="Trazado 1808-14" d="M55.27,4.34a3.75,3.75,0,0,0-4.73-.11C48.73,5.59,49,9,50.9,9.81S53.29,9.05,53,8.15s.73-1.48,1.42-1.6S56.3,5.4,55.27,4.34Z" fill="url(#Degradado_sin_nombre_101-14)"/><path id="Trazado_1809-14" data-name="Trazado 1809-14" d="M53,8.15c-.28-.89.72-1.48,1.41-1.6s1.47-.81,1.19-1.66c-1.83-.63-3.11-.62-4.48,1.06a4,4,0,0,0-.35,3.81l.11.05C52.68,10.54,53.29,9.05,53,8.15Z" fill="url(#Degradado_sin_nombre_102-14)"/><path id="Trazado_1810-14" data-name="Trazado 1810-14" d="M53.14,6.91a.89.89,0,0,0-.16.8,1.36,1.36,0,0,1,.81-.94A.67.67,0,0,0,53.14,6.91Z" fill="#bd896e"/></g><g id="Grupo_551-3" data-name="Grupo 551-3"><path id="Trazado_1805-8" data-name="Trazado 1805-8" d="M49.78,37.16a2.72,2.72,0,0,0-2.54-2.27c-1.62-.09-3.06,1.92-2.4,3.22a1,1,0,0,0,1.93.08c.26-.61,1.08-.47,1.52-.22S49.84,38.22,49.78,37.16Z" fill="url(#Degradado_sin_nombre_101-15)"/><path id="Trazado_1806-8" data-name="Trazado 1806-8" d="M46.77,38.19c.26-.61,1.08-.47,1.52-.22s1.18.25,1.42-.35c-.71-1.2-1.41-1.78-2.94-1.5a2.78,2.78,0,0,0-2,1.91l0,.08A1,1,0,0,0,46.77,38.19Z" fill="url(#Degradado_sin_nombre_102-15)"/><path id="Trazado_1807-8" data-name="Trazado 1807-8" d="M47.41,37.57a.66.66,0,0,0-.46.37,1,1,0,0,1,.88-.14A.48.48,0,0,0,47.41,37.57Z" fill="#bd896e"/></g><g id="Grupo_576-3" data-name="Grupo 576-3"><path id="Trazado_1805-9" data-name="Trazado 1805-9" d="M36.75,37.16a2.71,2.71,0,0,0-2.53-2.27c-1.63-.09-3.07,1.92-2.4,3.22a1,1,0,0,0,1.93.08c.26-.61,1.08-.47,1.52-.22S36.82,38.22,36.75,37.16Z" fill="url(#Degradado_sin_nombre_101-16)"/><path id="Trazado_1806-9" data-name="Trazado 1806-9" d="M33.74,38.19c.27-.61,1.09-.47,1.53-.22s1.18.25,1.42-.35c-.71-1.2-1.41-1.78-2.95-1.5a2.81,2.81,0,0,0-2,1.91.59.59,0,0,0,0,.08C32.45,39.34,33.48,38.81,33.74,38.19Z" fill="url(#Degradado_sin_nombre_102-16)"/><path id="Trazado_1807-9" data-name="Trazado 1807-9" d="M34.39,37.57a.64.64,0,0,0-.46.37,1,1,0,0,1,.88-.14A.48.48,0,0,0,34.39,37.57Z" fill="#bd896e"/></g><g id="Grupo_577-3" data-name="Grupo 577-3"><path id="Trazado_1808-15" data-name="Trazado 1808-15" d="M38.81,30.39a3.77,3.77,0,0,0,4.73.27c1.86-1.3,1.69-4.74-.16-5.59s-2.42.68-2.18,1.58-.77,1.46-1.47,1.56S37.82,29.28,38.81,30.39Z" fill="url(#Degradado_sin_nombre_101-17)"/><path id="Trazado_1809-15" data-name="Trazado 1809-15" d="M41.21,26.65c.24.9-.78,1.46-1.48,1.56s-1.5.76-1.25,1.61c1.81.7,3.1.73,4.53-.9a4,4,0,0,0,.48-3.8l-.11-.05C41.62,24.27,41,25.75,41.21,26.65Z" fill="url(#Degradado_sin_nombre_102-17)"/><path id="Trazado_1810-15" data-name="Trazado 1810-15" d="M41,27.89a.89.89,0,0,0,.19-.8,1.4,1.4,0,0,1-.84.92A.67.67,0,0,0,41,27.89Z" fill="#bd896e"/></g></g></g></g></g></svg>