<svg xmlns="http://www.w3.org/2000/svg" viewBox="0 0 79.7 67.26"><title>Dona_CChoc_TColores</title><g id="Capa_2" data-name="Capa 2"><g id="Capa_1-2" data-name="Capa 1"><g id="Grupo_597" data-name="Grupo 597"><g id="Dona-3"><g id="Grupo_647-3" data-name="Grupo 647-3"><path id="Trazado_357-3" data-name="Trazado 357-3" d="M77.6,22.32c-1.62-5.53-26-16.57-42-13.64-5.44,1-9.94,4.18-14.62,5.9C-2.55,23.18-2.12,39.67,7.32,52.87c5.34,7.46,19.83,15.29,36.3,14.3C90.13,64.41,77.6,22.32,77.6,22.32Zm-23.23,8c.1.1.18.21.27.31C57.42,32.53,53.48,29.51,54.37,30.34Z" fill="#bf8320"/><path id="Trazado_1814-3" data-name="Trazado 1814-3" d="M78.78,34.88c-1.13-.76-22.2,19-77.42,3.43a4.63,4.63,0,0,0-.17.61c.47,2.65,1.63,4.63,2.25,7.15,7.9,8,35.25,11.92,73.07,1.29C78.17,43.84,79.92,35.64,78.78,34.88Z" fill="#b9640f"/></g></g><g id="Cubierta_de_chocolate-2" data-name="Cubierta de chocolate-2"><path id="Trazado_1776-2" data-name="Trazado 1776-2" d="M70,51.38c.6-1.88-.12-4.9,1-6.44s4-1.93,5.47-3c2.61-1.8,2.62-5.4,3-8.26,1.42-11.58-2.93-22.17-21-29.75C49.1,0,29.2-4.15,11.53,8.41,1,15.91-1.06,24,.43,33.48,1,37.08,4.31,44.39,8.5,45.92c2,.74,3.55.14,5.49,1.66a12.22,12.22,0,0,1,3.4,4.34c2.23,4.25,4.92,4.92,9.73,4.69,2.63-.12,3.82-.48,5.95,1.2a9.13,9.13,0,0,0,5.3,2.28c4.52.25,6.57-5.73,11.41-2.31,1.76,1.24,3.39,2.65,5.61,1.57s1.52-3.6,3.3-4.91C62.36,51.72,67.93,58,70,51.38Z" fill="#45322e"/></g><g id="Chispas_de_colores" data-name="Chispas de colores"><path id="Trazado_1744" data-name="Trazado 1744" d="M66,13.54a2.65,2.65,0,0,0-1.51-.34l-3.58,0c0,.63.07,1.27.1,1.9a11,11,0,0,1,5.67.7A2.63,2.63,0,0,0,66,13.54Z" fill="#cc3131"/><path id="Trazado_1745" data-name="Trazado 1745" d="M75.77,34.07a2.56,2.56,0,0,0-1.51-.35l-3.58,0c0,.63.07,1.27.1,1.9a11.1,11.1,0,0,1,5.67.7A2.6,2.6,0,0,0,75.77,34.07Z" fill="#cc3131"/><path id="Trazado_1746" data-name="Trazado 1746" d="M72.58,39.06,69.82,36.4A56.3,56.3,0,0,1,63,38.78a8,8,0,0,1,2.9,3.71A30.21,30.21,0,0,1,72.58,39.06Z" fill="#ead4af"/><path id="Trazado_1747" data-name="Trazado 1747" d="M15.15,22.61,12.4,20a59.36,59.36,0,0,1-6.83,2.38,8.1,8.1,0,0,1,2.9,3.71A30,30,0,0,1,15.15,22.61Z" fill="#ead4af"/><path id="Trazado_1748" data-name="Trazado 1748" d="M61.78,29.8a3,3,0,0,0-1.34-1l-2.93-1.52c-.78.91-1.56,1.83-2.33,2.75a17.53,17.53,0,0,1,6.46,2.46A3.17,3.17,0,0,0,61.78,29.8Z" fill="#fc0"/><path id="Trazado_1749" data-name="Trazado 1749" d="M20.38,14.81c-.36.92-.73,1.84-1.1,2.76L26,19.2a4,4,0,0,1,.71-2.32A29.65,29.65,0,0,1,20.38,14.81Z" fill="#5cb45f"/><path id="Trazado_1750" data-name="Trazado 1750" d="M36.71,7.09l-5.93-.31A7.72,7.72,0,0,0,29.41,9.3a23.16,23.16,0,0,1,6.9.37A4.76,4.76,0,0,1,36.71,7.09Z" fill="#cc3131"/><path id="Trazado_1751" data-name="Trazado 1751" d="M21.24,26.24l2.93.15a3.59,3.59,0,0,1-.44-2.88,5.31,5.31,0,0,0-.06-3l-2-.5Z" fill="#fc0"/><path id="Trazado_1752" data-name="Trazado 1752" d="M56.75,17.25l-1.22-1.62-4.82,1,2,2.46Z" fill="#ead4af"/><path id="Trazado_1753" data-name="Trazado 1753" d="M24.07,43.44c-.41-.53-.81-1.07-1.22-1.61L18,42.88l2,2.45C21.41,44.71,22.74,44.07,24.07,43.44Z" fill="#ead4af"/><path id="Trazado_1754" data-name="Trazado 1754" d="M66.3,22.42A1.47,1.47,0,0,0,65.87,21a1.27,1.27,0,0,0-1.47-.11,2,2,0,0,0-.39.37,10.23,10.23,0,0,0-2.34,4.51,4.51,4.51,0,0,1,2.58.84,4.73,4.73,0,0,1,1-2.64A4.61,4.61,0,0,0,66.3,22.42Z" fill="#5cb45f"/><path id="Trazado_1755" data-name="Trazado 1755" d="M39.4,48.2A1.45,1.45,0,0,0,39,46.77a1.25,1.25,0,0,0-1.47-.12,2,2,0,0,0-.39.37,10.41,10.41,0,0,0-2.35,4.51,4.52,4.52,0,0,1,2.59.84,4.67,4.67,0,0,1,1-2.63A4.61,4.61,0,0,0,39.4,48.2Z" fill="#5cb45f"/><path id="Trazado_1756" data-name="Trazado 1756" d="M21.61,37.22l2.22,1.55,3-4.27-2.19-.22Z" fill="#cc3131"/><path id="Trazado_1757" data-name="Trazado 1757" d="M9.88,28.9a.64.64,0,0,0,.4.3l3.14,1.24a15.12,15.12,0,0,1,3.23-5.18,7.92,7.92,0,0,1-3.19-.58l-3.33,3.6C10,28.46,9.8,28.68,9.88,28.9Z" fill="#fc0"/><path id="Trazado_1758" data-name="Trazado 1758" d="M59.63,48.12a.62.62,0,0,0,.4.31l3.13,1.25a15.25,15.25,0,0,1,3.24-5.19,7.84,7.84,0,0,1-3.18-.58l-3.34,3.6C59.72,47.68,59.55,47.91,59.63,48.12Z" fill="#fc0"/><path id="Trazado_1759" data-name="Trazado 1759" d="M54.76,49.43a12.44,12.44,0,0,1,3.31-4.17l-2.42-1.21L51.86,47.6Z" fill="#5cb45f"/><path id="Trazado_1760" data-name="Trazado 1760" d="M25.65,48.77l2.66,1.46a34.17,34.17,0,0,1,3.42-4.43,1.19,1.19,0,0,0-1-.64Z" fill="#6bc3c3"/><path id="Trazado_1761" data-name="Trazado 1761" d="M12.59,13c-1.11,1.22-2.21,2.44-3.32,3.65L11.59,18l3.08-4.26Z" fill="#cc3131"/><path id="Trazado_1762" data-name="Trazado 1762" d="M23.87,8.16a3.33,3.33,0,0,0-1.77-.1L19,8.44c.22.91.44,1.83.67,2.74a10.82,10.82,0,0,1,5.66-1A3.35,3.35,0,0,0,23.87,8.16Z" fill="#6bc3c3"/><path id="Trazado_1763" data-name="Trazado 1763" d="M72.59,29.16a2.87,2.87,0,0,0,.72.58A1.27,1.27,0,0,0,75,29.12a1.35,1.35,0,0,0,.11-.72,23.33,23.33,0,0,1-3-3.88L69.2,25.67Z" fill="#6bc3c3"/><path id="Trazado_1764" data-name="Trazado 1764" d="M50.16,43.82a2.66,2.66,0,0,0,.72.58,1.28,1.28,0,0,0,1.8-1.34,22.87,22.87,0,0,1-3-3.88l-3,1.15Q48.47,42.07,50.16,43.82Z" fill="#6bc3c3"/><path id="Trazado_1765" data-name="Trazado 1765" d="M56,14.93a2.83,2.83,0,0,0,.72.57,1.26,1.26,0,0,0,1.69-.62,1.24,1.24,0,0,0,.11-.71,22.32,22.32,0,0,1-3-3.89l-3,1.15Z" fill="#6bc3c3"/><path id="Trazado_1766" data-name="Trazado 1766" d="M33.83,16.39a2.87,2.87,0,0,0,.72.58,1.28,1.28,0,0,0,1.7-.63,1.33,1.33,0,0,0,.1-.71,22.87,22.87,0,0,1-3-3.88L30.44,12.9Z" fill="#6bc3c3"/><path id="Trazado_1767" data-name="Trazado 1767" d="M58.22,6.72a11.19,11.19,0,0,1-4.53-.46c-.26.75-.51,1.49-.77,2.23a19.45,19.45,0,0,1,5.79.6A3.7,3.7,0,0,1,58.22,6.72Z" fill="#5cb45f"/><path id="Trazado_1768" data-name="Trazado 1768" d="M31.92,34.27a5.88,5.88,0,0,1-2.83-3.91l-2.76,1a20.8,20.8,0,0,1,3.49,4.83Z" fill="#ead4af"/><path id="Trazado_1769" data-name="Trazado 1769" d="M41.85,5.3A5.87,5.87,0,0,1,39,1.38l-2.76,1a21,21,0,0,1,3.48,4.84Z" fill="#ead4af"/><path id="Trazado_1770" data-name="Trazado 1770" d="M51.63,52.91A5.88,5.88,0,0,1,48.8,49L46,50a20.47,20.47,0,0,1,3.48,4.83Z" fill="#ead4af"/><path id="Trazado_1771" data-name="Trazado 1771" d="M50.17,38.16a1.23,1.23,0,0,0,2,.69l1.68-4.11a10.31,10.31,0,0,0-2.29-.16,5.09,5.09,0,0,0-1.42,3A2,2,0,0,0,50.17,38.16Z" fill="#cc3131"/><path id="Trazado_1772" data-name="Trazado 1772" d="M39.89,35.43c-.07-.26-.39-.36-.66-.4l-2-.3q-1.6,2-3.23,3.89l2.29,1.08L39.64,36A.77.77,0,0,0,39.89,35.43Z" fill="#5cb45f"/><path id="Trazado_1773" data-name="Trazado 1773" d="M9.58,36.75a16.64,16.64,0,0,1,5,3.23l2-2.67a29.49,29.49,0,0,1-4.79-2.26Z" fill="#5cb45f"/><path id="Trazado_1819" data-name="Trazado 1819" d="M37.82,29.12a2.39,2.39,0,0,0,.72.58,1.27,1.27,0,0,0,1.69-.62,1.24,1.24,0,0,0,.1-.71,23.35,23.35,0,0,1-3-3.89l-2.95,1.15C35.55,26.79,36.68,28,37.82,29.12Z" fill="#6bc3c3"/><path id="Trazado_1820" data-name="Trazado 1820" d="M47.82,28.75a1.22,1.22,0,0,0,1.45,1,1.21,1.21,0,0,0,.57-.27l1.68-4.12a10.35,10.35,0,0,0-2.29-.16,5.12,5.12,0,0,0-1.42,3A1.73,1.73,0,0,0,47.82,28.75Z" fill="#cc3131"/><path id="Trazado_1821" data-name="Trazado 1821" d="M46.17,21.37,45,19.75,40.13,20.8l2,2.46Z" fill="#ead4af"/><path id="Trazado_1822" data-name="Trazado 1822" d="M41.63,15.37a.62.62,0,0,0,.4.31l3.14,1.24a15,15,0,0,1,3.23-5.18,7.92,7.92,0,0,1-3.19-.58l-3.33,3.6C41.72,14.93,41.55,15.16,41.63,15.37Z" fill="#fc0"/></g></g></g></g></svg>