<svg xmlns="http://www.w3.org/2000/svg" xmlns:xlink="http://www.w3.org/1999/xlink" viewBox="0 0 79.7 66.67"><defs><linearGradient id="Degradado_sin_nombre_101" x1="-182.72" y1="368.33" x2="-182.34" y2="368.15" gradientTransform="matrix(13.62, 0, 0, -13.85, 3289.48, 5488.34)" gradientUnits="userSpaceOnUse"><stop offset="0" stop-color="#f4dfba"/><stop offset="1" stop-color="#f0d19c"/></linearGradient><linearGradient id="Degradado_sin_nombre_102" x1="-229.92" y1="395.83" x2="-229.44" y2="395.83" gradientTransform="matrix(11.27, 0, 0, -11.53, 2724.95, 4571.54)" gradientUnits="userSpaceOnUse"><stop offset="0" stop-color="#f4dfba"/><stop offset="1" stop-color="#deb878"/></linearGradient><linearGradient id="Degradado_sin_nombre_101-2" x1="-214.04" y1="385.86" x2="-213.62" y2="385.69" gradientTransform="matrix(12.21, 0, 0, -14.54, 3002.27, 5806.83)" xlink:href="#Degradado_sin_nombre_101"/><linearGradient id="Degradado_sin_nombre_102-2" x1="-270.98" y1="397.2" x2="-270.4" y2="397.2" gradientTransform="matrix(9.17, 0, 0, -13.06, 2271.44, 5224.27)" xlink:href="#Degradado_sin_nombre_102"/><linearGradient id="Degradado_sin_nombre_101-3" x1="-288.68" y1="428.84" x2="-288.34" y2="428.62" gradientTransform="matrix(15.1, 0, 0, -11.66, 3675.22, 4689.9)" xlink:href="#Degradado_sin_nombre_101"/><linearGradient id="Degradado_sin_nombre_102-3" x1="-342.6" y1="399.79" x2="-342.23" y2="399.79" gradientTransform="matrix(14.53, 0, 0, -8.22, 3536.69, 3335.34)" xlink:href="#Degradado_sin_nombre_102"/><linearGradient id="Degradado_sin_nombre_101-4" x1="-186.1" y1="369.89" x2="-185.72" y2="369.71" gradientTransform="matrix(13.62, 0, 0, -13.85, 3340.93, 5510.91)" xlink:href="#Degradado_sin_nombre_101"/><linearGradient id="Degradado_sin_nombre_102-4" x1="-234.6" y1="396.65" x2="-234.12" y2="396.65" gradientTransform="matrix(11.27, 0, 0, -11.53, 2776.16, 4594.5)" xlink:href="#Degradado_sin_nombre_102"/><linearGradient id="Degradado_sin_nombre_101-5" x1="-182.62" y1="369.93" x2="-182.24" y2="369.75" gradientTransform="matrix(13.62, 0, 0, -13.85, 3259.64, 5525.8)" xlink:href="#Degradado_sin_nombre_101"/><linearGradient id="Degradado_sin_nombre_102-5" x1="-228.69" y1="397.19" x2="-228.21" y2="397.19" gradientTransform="matrix(11.27, 0, 0, -11.53, 2695, 4609.43)" xlink:href="#Degradado_sin_nombre_102"/><linearGradient id="Degradado_sin_nombre_101-6" x1="-238.83" y1="396.11" x2="-238.41" y2="395.94" gradientTransform="matrix(11.21, 0, 0, -13.55, 2693.44, 5382.51)" xlink:href="#Degradado_sin_nombre_101"/><linearGradient id="Degradado_sin_nombre_102-6" x1="-238.35" y1="396.06" x2="-237.77" y2="396.06" gradientTransform="matrix(8.31, 0, 0, -12.79, 1999.34, 5079.16)" xlink:href="#Degradado_sin_nombre_102"/><linearGradient id="Degradado_sin_nombre_101-7" x1="-266.73" y1="416.47" x2="-266.38" y2="416.24" gradientTransform="matrix(16.05, 0, 0, -11.66, 3865.44, 4682.52)" xlink:href="#Degradado_sin_nombre_101"/><linearGradient id="Degradado_sin_nombre_102-7" x1="-323.4" y1="399.64" x2="-323.03" y2="399.64" gradientTransform="matrix(15.37, 0, 0, -8.01, 3699.98, 3246.08)" xlink:href="#Degradado_sin_nombre_102"/><linearGradient id="Degradado_sin_nombre_101-8" x1="-281.67" y1="423.94" x2="-281.33" y2="423.72" gradientTransform="matrix(8.68, 0, 0, -6.74, 2131, 2699.95)" xlink:href="#Degradado_sin_nombre_101"/><linearGradient id="Degradado_sin_nombre_102-8" x1="-327.54" y1="399.35" x2="-327.17" y2="399.35" gradientTransform="matrix(8.34, 0, 0, -4.78, 2049.81, 1925.34)" xlink:href="#Degradado_sin_nombre_102"/><linearGradient id="Degradado_sin_nombre_101-9" x1="-194.59" y1="376.1" x2="-194.21" y2="375.91" gradientTransform="matrix(9.91, 0, 0, -10.08, 2395.82, 4033.18)" xlink:href="#Degradado_sin_nombre_101"/><linearGradient id="Degradado_sin_nombre_102-9" x1="-232.91" y1="397.91" x2="-232.43" y2="397.91" gradientTransform="matrix(8.2, 0, 0, -8.39, 1984.56, 3365.35)" xlink:href="#Degradado_sin_nombre_102"/><linearGradient id="Degradado_sin_nombre_101-10" x1="-195.18" y1="377.15" x2="-194.8" y2="376.97" gradientTransform="matrix(10.91, 0, 0, -11.1, 2649.22, 4470.84)" xlink:href="#Degradado_sin_nombre_101"/><linearGradient id="Degradado_sin_nombre_102-10" x1="-233.62" y1="399.18" x2="-233.14" y2="399.18" gradientTransform="matrix(9.03, 0, 0, -9.24, 2196.72, 3736.42)" xlink:href="#Degradado_sin_nombre_102"/><linearGradient id="Degradado_sin_nombre_101-11" x1="-191.56" y1="375.07" x2="-191.18" y2="374.88" gradientTransform="matrix(6.31, -5.88, -5.98, -6.41, 3880.26, 1190.96)" xlink:href="#Degradado_sin_nombre_101"/><linearGradient id="Degradado_sin_nombre_102-11" x1="-229.26" y1="396.68" x2="-228.79" y2="396.68" gradientTransform="matrix(5.23, -4.88, -4.98, -5.34, 3226.9, 1006.81)" xlink:href="#Degradado_sin_nombre_102"/><linearGradient id="Degradado_sin_nombre_101-12" x1="-288.57" y1="423.59" x2="-288.22" y2="423.37" gradientTransform="matrix(-15.09, 0.53, 0.41, 11.65, -3741.99, -4440.11)" xlink:href="#Degradado_sin_nombre_101"/><linearGradient id="Degradado_sin_nombre_102-12" x1="-342.48" y1="392.35" x2="-342.11" y2="392.35" gradientTransform="matrix(-14.51, 0.51, 0.29, 8.22, -3555.36, -3094.04)" xlink:href="#Degradado_sin_nombre_102"/><linearGradient id="Degradado_sin_nombre_101-13" x1="-266.62" y1="411.24" x2="-266.27" y2="411.01" gradientTransform="matrix(-16.04, 0.56, 0.41, 11.65, -3931.9, -4427.84)" xlink:href="#Degradado_sin_nombre_101"/><linearGradient id="Degradado_sin_nombre_102-13" x1="-323.29" y1="392.02" x2="-322.91" y2="392.02" gradientTransform="matrix(-15.35, 0.54, 0.28, 8, -3716.19, -2998.85)" xlink:href="#Degradado_sin_nombre_102"/><linearGradient id="Degradado_sin_nombre_101-14" x1="-195.01" y1="371.65" x2="-194.63" y2="371.47" gradientTransform="matrix(-10.9, 0.38, 0.39, 11.09, -2709.16, -4258.25)" xlink:href="#Degradado_sin_nombre_101"/><linearGradient id="Degradado_sin_nombre_102-14" x1="-233.41" y1="392.57" x2="-232.94" y2="392.57" gradientTransform="matrix(-9.02, 0.32, 0.32, 9.23, -2231.01, -3541.29)" xlink:href="#Degradado_sin_nombre_102"/><linearGradient id="Degradado_sin_nombre_101-15" x1="-281.82" y1="425.95" x2="-281.48" y2="425.74" gradientTransform="matrix(8.68, 0, 0, -6.74, 2134.28, 2732.93)" xlink:href="#Degradado_sin_nombre_101"/><linearGradient id="Degradado_sin_nombre_102-15" x1="-327.7" y1="402.19" x2="-327.33" y2="402.19" gradientTransform="matrix(8.34, 0, 0, -4.78, 2053.09, 1958.32)" xlink:href="#Degradado_sin_nombre_102"/><linearGradient id="Degradado_sin_nombre_101-16" x1="-280.77" y1="425.95" x2="-280.43" y2="425.74" gradientTransform="matrix(8.68, 0, 0, -6.74, 2112.13, 2732.93)" xlink:href="#Degradado_sin_nombre_101"/><linearGradient id="Degradado_sin_nombre_102-16" x1="-326.61" y1="402.19" x2="-326.24" y2="402.19" gradientTransform="matrix(8.34, 0, 0, -4.78, 2030.94, 1958.32)" xlink:href="#Degradado_sin_nombre_102"/><linearGradient id="Degradado_sin_nombre_101-17" x1="-195.61" y1="375.88" x2="-195.23" y2="375.7" gradientTransform="matrix(10.91, 0, 0, -11.1, 2660.65, 4436.58)" xlink:href="#Degradado_sin_nombre_101"/><linearGradient id="Degradado_sin_nombre_102-17" x1="-234.14" y1="397.66" x2="-233.67" y2="397.66" gradientTransform="matrix(9.03, 0, 0, -9.24, 2208.15, 3702.16)" xlink:href="#Degradado_sin_nombre_102"/></defs><title>Dona_CAreq_TMani</title><g id="Capa_2" data-name="Capa 2"><g id="Capa_1-2" data-name="Capa 1"><g id="Grupo_590" data-name="Grupo 590"><g id="Dona-7"><g id="Grupo_647-7" data-name="Grupo 647-7"><path id="Trazado_357-7" data-name="Trazado 357-7" d="M77.6,21.73c-1.62-5.52-26-16.57-42-13.64C30.19,9.1,25.69,12.28,21,14-2.55,22.59-2.12,39.09,7.32,52.28c5.34,7.47,19.83,15.29,36.3,14.31C90.13,63.83,77.6,21.73,77.6,21.73Zm-23.23,8c.1.1.18.21.27.31C57.42,32,53.48,28.92,54.37,29.75Z" fill="#bf8320"/><path id="Trazado_1814-7" data-name="Trazado 1814-7" d="M78.78,34.29c-1.13-.75-22.2,19-77.42,3.44a4.24,4.24,0,0,0-.17.61C1.66,41,2.82,43,3.44,45.48c7.9,8,35.25,11.92,73.07,1.29C78.17,43.25,79.92,35.05,78.78,34.29Z" fill="#b9640f"/></g></g><g id="Cubierta_de_Arequipe" data-name="Cubierta de Arequipe"><path id="Trazado_1777" data-name="Trazado 1777" d="M70,51.38c.6-1.88-.12-4.9,1-6.44s4-1.93,5.47-3c2.61-1.8,2.62-5.4,3-8.26,1.42-11.58-2.93-22.17-21-29.75C49.1,0,29.2-4.15,11.53,8.41,1,15.91-1.06,24,.43,33.48,1,37.08,4.31,44.39,8.5,45.92c2,.74,3.55.14,5.49,1.66a12.22,12.22,0,0,1,3.4,4.34c2.23,4.25,4.92,4.92,9.73,4.69,2.63-.12,3.82-.48,5.95,1.2a9.13,9.13,0,0,0,5.3,2.28c4.52.25,6.57-5.73,11.41-2.31,1.76,1.24,3.39,2.65,5.61,1.57s1.52-3.6,3.3-4.91C62.36,51.72,67.93,58,70,51.38Z" fill="#804000"/></g><g id="Mani-2"><g id="Grupo_536-2" data-name="Grupo 536-2"><path id="Trazado_1784-2" data-name="Trazado 1784-2" d="M27.05,11.88a4.68,4.68,0,0,0,5.89.34c2.32-1.62,2.11-5.92-.2-7s-3,.84-2.71,2-1,1.82-1.84,1.94S25.8,10.5,27.05,11.88Z" fill="url(#Degradado_sin_nombre_101)"/><path id="Trazado_1785-2" data-name="Trazado 1785-2" d="M30,7.22c.3,1.13-1,1.82-1.84,1.94s-1.87.95-1.56,2c2.26.87,3.86.91,5.64-1.12a4.92,4.92,0,0,0,.6-4.74l-.13-.06C30.55,4.25,29.72,6.09,30,7.22Z" fill="url(#Degradado_sin_nombre_102)"/><path id="Trazado_1786-2" data-name="Trazado 1786-2" d="M29.82,8.76a1.09,1.09,0,0,0,.23-1A1.75,1.75,0,0,1,29,8.91.84.84,0,0,0,29.82,8.76Z" fill="#bd896e"/></g><g id="Grupo_537-2" data-name="Grupo 537-2"><path id="Trazado_1787-2" data-name="Trazado 1787-2" d="M57.85,41.36a4.68,4.68,0,0,0,5.65-1.7c1.62-2.33-.06-6.29-2.59-6.48S58.37,35,59,36s-.28,2-1.06,2.46S56.21,40.5,57.85,41.36Z" fill="url(#Degradado_sin_nombre_101-2)"/><path id="Trazado_1788-2" data-name="Trazado 1788-2" d="M59,36c.67,1-.28,2-1.06,2.46s-1.43,1.53-.77,2.42c2.42,0,3.94-.47,4.91-3a4.9,4.9,0,0,0-1.07-4.65l-.14,0C58.51,33,58.37,35,59,36Z" fill="url(#Degradado_sin_nombre_102-2)"/><path id="Trazado_1789-2" data-name="Trazado 1789-2" d="M59.37,37.49a1.06,1.06,0,0,0-.12-1,1.71,1.71,0,0,1-.59,1.43A.81.81,0,0,0,59.37,37.49Z" fill="#bd896e"/></g><g id="Grupo_538-2" data-name="Grupo 538-2"><path id="Trazado_1790-3" data-name="Trazado 1790-3" d="M52.29,47.39a4.69,4.69,0,0,0-4.34-4c-2.83-.22-5.39,3.24-4.27,5.52s2.87,1.26,3.35.2,1.9-.8,2.65-.34S52.38,49.25,52.29,47.39Z" fill="url(#Degradado_sin_nombre_101-3)"/><path id="Trazado_1791-3" data-name="Trazado 1791-3" d="M47,49.11c.48-1.07,1.9-.8,2.65-.34s2,.46,2.48-.57c-1.19-2.1-2.4-3.15-5.08-2.7a4.94,4.94,0,0,0-3.46,3.28l.06.13C44.74,51.07,46.55,50.17,47,49.11Z" fill="url(#Degradado_sin_nombre_102-3)"/><path id="Trazado_1792-3" data-name="Trazado 1792-3" d="M48.17,48.05a1.06,1.06,0,0,0-.81.62,1.7,1.7,0,0,1,1.53-.22A.79.79,0,0,0,48.17,48.05Z" fill="#bd896e"/></g><g id="Grupo_539-2" data-name="Grupo 539-2"><path id="Trazado_1793-2" data-name="Trazado 1793-2" d="M57.24,25.32a4.7,4.7,0,0,0,5.9.34c2.32-1.62,2.11-5.92-.2-7s-3,.84-2.71,2-1,1.82-1.84,1.94S56,23.94,57.24,25.32Z" fill="url(#Degradado_sin_nombre_101-4)"/><path id="Trazado_1794-2" data-name="Trazado 1794-2" d="M60.23,20.66c.3,1.13-1,1.82-1.84,1.94s-1.87.95-1.56,2c2.26.88,3.86.91,5.64-1.12a4.91,4.91,0,0,0,.6-4.73l-.13-.07C60.75,17.69,59.92,19.53,60.23,20.66Z" fill="url(#Degradado_sin_nombre_102-4)"/><path id="Trazado_1795-2" data-name="Trazado 1795-2" d="M60,22.21a1.11,1.11,0,0,0,.24-1,1.75,1.75,0,0,1-1,1.14A.82.82,0,0,0,60,22.21Z" fill="#bd896e"/></g><g id="Grupo_540-2" data-name="Grupo 540-2"><path id="Trazado_1796-2" data-name="Trazado 1796-2" d="M9.52,34.13a4.69,4.69,0,0,0,5.9.35c2.32-1.62,2.11-5.92-.2-7s-3,.85-2.71,2-1,1.82-1.84,1.94S8.28,32.76,9.52,34.13Z" fill="url(#Degradado_sin_nombre_101-5)"/><path id="Trazado_1797-2" data-name="Trazado 1797-2" d="M12.51,29.48c.3,1.12-1,1.82-1.84,1.94s-1.87.94-1.56,2c2.26.87,3.86.91,5.64-1.13a4.9,4.9,0,0,0,.6-4.73l-.13-.07C13,26.51,12.2,28.35,12.51,29.48Z" fill="url(#Degradado_sin_nombre_102-5)"/><path id="Trazado_1798-2" data-name="Trazado 1798-2" d="M12.29,31a1.1,1.1,0,0,0,.24-1,1.75,1.75,0,0,1-1,1.15A.82.82,0,0,0,12.29,31Z" fill="#bd896e"/></g><g id="Grupo_541-2" data-name="Grupo 541-2"><path id="Trazado_1799-2" data-name="Trazado 1799-2" d="M19.05,11.39a4.28,4.28,0,0,0-2.85,4.55c.29,2.55,3.8,4.26,5.65,2.87s.64-2.77-.39-3-1-1.57-.75-2.31S20.68,11,19.05,11.39Z" fill="url(#Degradado_sin_nombre_101-6)"/><path id="Trazado_1800-2" data-name="Trazado 1800-2" d="M21.46,15.8c-1-.25-1-1.57-.75-2.31s.06-1.9-.92-2.12c-1.68,1.42-2.4,2.68-1.56,5a4.46,4.46,0,0,0,3.51,2.54l.11-.08C23.6,17.5,22.49,16,21.46,15.8Z" fill="url(#Degradado_sin_nombre_102-6)"/><path id="Trazado_1801-2" data-name="Trazado 1801-2" d="M20.32,15a1,1,0,0,0,.69.62,1.56,1.56,0,0,1-.45-1.33A.76.76,0,0,0,20.32,15Z" fill="#bd896e"/></g><g id="Grupo_542-2" data-name="Grupo 542-2"><path id="Trazado_1802-3" data-name="Trazado 1802-3" d="M30.26,45.45a5,5,0,0,0-3.47-5.31c-2.88-1-6.45,2-5.88,4.63.53,2.52,2.65,2.06,3.43,1.08s2.18-.33,2.84.34S29.86,47.39,30.26,45.45Z" fill="url(#Degradado_sin_nombre_101-7)"/><path id="Trazado_1803-3" data-name="Trazado 1803-3" d="M24.34,45.85c.78-1,2.18-.33,2.84.34s2,1,2.73.07c-.68-2.51-1.67-3.91-4.57-4.15a5.28,5.28,0,0,0-4.46,2.5l0,.16C21.44,47.29,23.56,46.83,24.34,45.85Z" fill="url(#Degradado_sin_nombre_102-7)"/><path id="Trazado_1804-3" data-name="Trazado 1804-3" d="M25.81,45a1.19,1.19,0,0,0-1,.44,1.84,1.84,0,0,1,1.66.17A.91.91,0,0,0,25.81,45Z" fill="#bd896e"/></g><g id="Grupo_543-2" data-name="Grupo 543-2"><path id="Trazado_1805-4" data-name="Trazado 1805-4" d="M48.43,17.77A2.71,2.71,0,0,0,45.9,15.5c-1.63-.09-3.07,1.92-2.4,3.22a1,1,0,0,0,1.93.08c.26-.62,1.08-.48,1.52-.22S48.5,18.83,48.43,17.77Z" fill="url(#Degradado_sin_nombre_101-8)"/><path id="Trazado_1806-4" data-name="Trazado 1806-4" d="M45.43,18.8c.26-.62,1.08-.47,1.52-.22a1,1,0,0,0,1.42-.35c-.71-1.2-1.41-1.78-2.95-1.51a2.84,2.84,0,0,0-2,1.92l0,.08A1,1,0,0,0,45.43,18.8Z" fill="url(#Degradado_sin_nombre_102-8)"/><path id="Trazado_1807-4" data-name="Trazado 1807-4" d="M46.07,18.18a.62.62,0,0,0-.46.37,1,1,0,0,1,.88-.15A.47.47,0,0,0,46.07,18.18Z" fill="#bd896e"/></g><g id="Grupo_544-2" data-name="Grupo 544-2"><path id="Trazado_1808-6" data-name="Trazado 1808-6" d="M25.22,29.22a3.42,3.42,0,0,0,4.29.25c1.69-1.18,1.54-4.31-.15-5.08s-2.19.61-2,1.44-.71,1.32-1.34,1.41S24.31,28.22,25.22,29.22Z" fill="url(#Degradado_sin_nombre_101-9)"/><path id="Trazado_1809-6" data-name="Trazado 1809-6" d="M27.39,25.83c.22.82-.71,1.32-1.34,1.41s-1.36.69-1.13,1.46c1.64.64,2.8.66,4.1-.82a3.56,3.56,0,0,0,.44-3.44.31.31,0,0,0-.1-.05C27.77,23.66,27.17,25,27.39,25.83Z" fill="url(#Degradado_sin_nombre_102-9)"/><path id="Trazado_1810-6" data-name="Trazado 1810-6" d="M27.24,27a.8.8,0,0,0,.17-.73,1.29,1.29,0,0,1-.77.84A.62.62,0,0,0,27.24,27Z" fill="#bd896e"/></g><g id="Grupo_545-2" data-name="Grupo 545-2"><path id="Trazado_1808-7" data-name="Trazado 1808-7" d="M32.68,50.53a3.77,3.77,0,0,0,4.73.28c1.86-1.31,1.69-4.75-.17-5.6s-2.41.68-2.17,1.58-.78,1.46-1.47,1.56S31.69,49.43,32.68,50.53Z" fill="url(#Degradado_sin_nombre_101-10)"/><path id="Trazado_1809-7" data-name="Trazado 1809-7" d="M35.07,46.79c.25.91-.77,1.46-1.47,1.56s-1.5.76-1.25,1.61c1.81.7,3.09.73,4.52-.9a3.92,3.92,0,0,0,.48-3.79l-.1-.06C35.49,44.41,34.83,45.89,35.07,46.79Z" fill="url(#Degradado_sin_nombre_102-10)"/><path id="Trazado_1810-7" data-name="Trazado 1810-7" d="M34.9,48a.84.84,0,0,0,.19-.8,1.4,1.4,0,0,1-.84.92A.64.64,0,0,0,34.9,48Z" fill="#bd896e"/></g><g id="Grupo_546-2" data-name="Grupo 546-2"><path id="Trazado_1808-8" data-name="Trazado 1808-8" d="M22.29,39.07a3,3,0,0,0,2.88-2.38c.37-1.76-1.58-3.66-3.11-3.15a1.12,1.12,0,0,0-.4,2.09c.63.39.34,1.26,0,1.69S21.12,39,22.29,39.07Z" fill="url(#Degradado_sin_nombre_101-11)"/><path id="Trazado_1809-8" data-name="Trazado 1809-8" d="M21.66,35.63c.63.39.34,1.26,0,1.69s-.46,1.25.14,1.61c1.42-.58,2.18-1.25,2.13-3a3.11,3.11,0,0,0-1.77-2.45l-.09,0A1.12,1.12,0,0,0,21.66,35.63Z" fill="url(#Degradado_sin_nombre_102-11)"/><path id="Trazado_1810-8" data-name="Trazado 1810-8" d="M22.23,36.44a.72.72,0,0,0-.32-.57,1.09,1.09,0,0,1,0,1A.52.52,0,0,0,22.23,36.44Z" fill="#bd896e"/></g><g id="Grupo_547-2" data-name="Grupo 547-2"><path id="Trazado_1790-4" data-name="Trazado 1790-4" d="M36.25,8.28a4.69,4.69,0,0,0,4.48,3.85c2.83.12,5.27-3.42,4.07-5.67s-2.91-1.15-3.35-.07-1.87.86-2.64.43S36.1,6.44,36.25,8.28Z" fill="url(#Degradado_sin_nombre_101-12)"/><path id="Trazado_1791-4" data-name="Trazado 1791-4" d="M41.45,6.39c-.44,1.08-1.87.86-2.64.43s-2.06-.39-2.46.65c1.27,2.06,2.52,3.06,5.17,2.53a4.92,4.92,0,0,0,3.34-3.4l-.06-.13C43.66,4.34,41.89,5.31,41.45,6.39Z" fill="url(#Degradado_sin_nombre_102-12)"/><path id="Trazado_1792-4" data-name="Trazado 1792-4" d="M40.34,7.49a1.1,1.1,0,0,0,.8-.65,1.74,1.74,0,0,1-1.53.27A.83.83,0,0,0,40.34,7.49Z" fill="#bd896e"/></g><g id="Grupo_548-2" data-name="Grupo 548-2"><path id="Trazado_1802-4" data-name="Trazado 1802-4" d="M58.25,9.23a5,5,0,0,0,3.65,5.18c2.91.86,6.38-2.18,5.72-4.83s-2.72-2-3.46-1S62,9,61.3,8.37,58.58,7.27,58.25,9.23Z" fill="url(#Degradado_sin_nombre_101-13)"/><path id="Trazado_1803-4" data-name="Trazado 1803-4" d="M64.15,8.62c-.74,1-2.17.41-2.85-.25s-2-.93-2.73,0c.77,2.48,1.81,3.84,4.71,4a5.25,5.25,0,0,0,4.37-2.66l0-.15C67,7.07,64.9,7.61,64.15,8.62Z" fill="url(#Degradado_sin_nombre_102-13)"/><path id="Trazado_1804-4" data-name="Trazado 1804-4" d="M62.72,9.47a1.15,1.15,0,0,0,1-.46,1.87,1.87,0,0,1-1.66-.12A.88.88,0,0,0,62.72,9.47Z" fill="#bd896e"/></g><g id="Grupo_549-2" data-name="Grupo 549-2"><path id="Trazado_1808-9" data-name="Trazado 1808-9" d="M55.86,4.34a3.75,3.75,0,0,0-4.73-.11c-1.82,1.36-1.53,4.8.36,5.58s2.39-.76,2.11-1.66.72-1.48,1.42-1.6S56.89,5.4,55.86,4.34Z" fill="url(#Degradado_sin_nombre_101-14)"/><path id="Trazado_1809-9" data-name="Trazado 1809-9" d="M53.6,8.15c-.27-.89.73-1.48,1.42-1.6s1.47-.81,1.19-1.66C54.38,4.26,53.1,4.27,51.73,6a3.92,3.92,0,0,0-.35,3.81l.11.05C53.27,10.54,53.88,9.05,53.6,8.15Z" fill="url(#Degradado_sin_nombre_102-14)"/><path id="Trazado_1810-9" data-name="Trazado 1810-9" d="M53.73,6.91a.83.83,0,0,0-.16.8,1.37,1.37,0,0,1,.8-.94A.65.65,0,0,0,53.73,6.91Z" fill="#bd896e"/></g><g id="Grupo_551-2" data-name="Grupo 551-2"><path id="Trazado_1805-5" data-name="Trazado 1805-5" d="M50.36,37.16a2.71,2.71,0,0,0-2.53-2.27c-1.63-.09-3.07,1.92-2.4,3.22a1,1,0,0,0,1.93.08c.26-.61,1.08-.47,1.52-.22S50.43,38.22,50.36,37.16Z" fill="url(#Degradado_sin_nombre_101-15)"/><path id="Trazado_1806-5" data-name="Trazado 1806-5" d="M47.36,38.19c.26-.61,1.08-.47,1.52-.22s1.18.25,1.42-.35c-.71-1.2-1.41-1.78-2.95-1.5a2.81,2.81,0,0,0-2,1.91.59.59,0,0,0,0,.08A1,1,0,0,0,47.36,38.19Z" fill="url(#Degradado_sin_nombre_102-15)"/><path id="Trazado_1807-5" data-name="Trazado 1807-5" d="M48,37.57a.64.64,0,0,0-.46.37,1,1,0,0,1,.88-.14A.48.48,0,0,0,48,37.57Z" fill="#bd896e"/></g><g id="Grupo_576-2" data-name="Grupo 576-2"><path id="Trazado_1805-6" data-name="Trazado 1805-6" d="M37.34,37.16a2.71,2.71,0,0,0-2.53-2.27c-1.63-.09-3.07,1.92-2.4,3.22s1.66.7,1.92.08,1.09-.47,1.52-.22S37.41,38.22,37.34,37.16Z" fill="url(#Degradado_sin_nombre_101-16)"/><path id="Trazado_1806-6" data-name="Trazado 1806-6" d="M34.33,38.19c.27-.61,1.09-.47,1.52-.22a1,1,0,0,0,1.43-.35c-.71-1.2-1.42-1.78-3-1.5a2.81,2.81,0,0,0-2,1.91.2.2,0,0,0,0,.08C33,39.34,34.07,38.81,34.33,38.19Z" fill="url(#Degradado_sin_nombre_102-16)"/><path id="Trazado_1807-6" data-name="Trazado 1807-6" d="M35,37.57a.62.62,0,0,0-.46.37,1,1,0,0,1,.88-.14A.48.48,0,0,0,35,37.57Z" fill="#bd896e"/></g><g id="Grupo_577-2" data-name="Grupo 577-2"><path id="Trazado_1808-10" data-name="Trazado 1808-10" d="M39.4,30.39a3.77,3.77,0,0,0,4.73.27c1.86-1.3,1.69-4.74-.16-5.59s-2.42.68-2.18,1.58-.77,1.46-1.47,1.56S38.41,29.28,39.4,30.39Z" fill="url(#Degradado_sin_nombre_101-17)"/><path id="Trazado_1809-10" data-name="Trazado 1809-10" d="M41.8,26.65c.24.9-.78,1.46-1.48,1.56s-1.5.76-1.25,1.61c1.81.7,3.09.73,4.52-.9a3.94,3.94,0,0,0,.48-3.8l-.1-.05C42.21,24.27,41.55,25.75,41.8,26.65Z" fill="url(#Degradado_sin_nombre_102-17)"/><path id="Trazado_1810-10" data-name="Trazado 1810-10" d="M41.63,27.89a.86.86,0,0,0,.18-.8A1.41,1.41,0,0,1,41,28,.67.67,0,0,0,41.63,27.89Z" fill="#bd896e"/></g></g></g></g></g></svg>