<svg xmlns="http://www.w3.org/2000/svg" viewBox="0 0 79.7 67.26"><title>Dona_CChoc_TCoco</title><g id="Capa_2" data-name="Capa 2"><g id="Capa_1-2" data-name="Capa 1"><g id="Grupo_596" data-name="Grupo 596"><g id="Dona-4"><g id="Grupo_647-4" data-name="Grupo 647-4"><path id="Trazado_357-4" data-name="Trazado 357-4" d="M77.6,22.32c-1.62-5.53-26-16.57-42-13.64-5.44,1-9.94,4.18-14.62,5.9C-2.55,23.18-2.12,39.67,7.32,52.87c5.34,7.46,19.83,15.29,36.3,14.3C90.13,64.41,77.6,22.32,77.6,22.32Zm-23.23,8c.1.1.18.21.27.31C57.42,32.53,53.48,29.51,54.37,30.34Z" fill="#bf8320"/><path id="Trazado_1814-4" data-name="Trazado 1814-4" d="M78.78,34.88c-1.13-.76-22.2,19-77.42,3.43a4.63,4.63,0,0,0-.17.61c.47,2.65,1.63,4.63,2.25,7.15,7.9,8,35.25,11.92,73.07,1.29C78.17,43.84,79.92,35.64,78.78,34.88Z" fill="#b9640f"/></g></g><g id="Cubierta_de_chocolate-3" data-name="Cubierta de chocolate-3"><path id="Trazado_1776-3" data-name="Trazado 1776-3" d="M70,51.38c.6-1.88-.12-4.9,1-6.44s4-1.93,5.47-3c2.61-1.8,2.62-5.4,3-8.26,1.42-11.58-2.93-22.17-21-29.75C49.1,0,29.2-4.15,11.53,8.41,1,15.91-1.06,24,.43,33.48,1,37.08,4.31,44.39,8.5,45.92c2,.74,3.55.14,5.49,1.66a12.22,12.22,0,0,1,3.4,4.34c2.23,4.25,4.92,4.92,9.73,4.69,2.63-.12,3.82-.48,5.95,1.2a9.13,9.13,0,0,0,5.3,2.28c4.52.25,6.57-5.73,11.41-2.31,1.76,1.24,3.39,2.65,5.61,1.57s1.52-3.6,3.3-4.91C62.36,51.72,67.93,58,70,51.38Z" fill="#45322e"/></g><g id="Chispa_de_coco" data-name="Chispa de coco"><g id="Grupo_572" data-name="Grupo 572"><path id="Trazado_1744-2" data-name="Trazado 1744-2" d="M65.05,13.41a2.65,2.65,0,0,0-1.51-.34L60,13c0,.63.07,1.27.1,1.9a11,11,0,0,1,5.67.7A2.62,2.62,0,0,0,65.05,13.41Z" fill="#edeef4"/><path id="Trazado_1745-2" data-name="Trazado 1745-2" d="M74.8,33.94a2.56,2.56,0,0,0-1.51-.35l-3.57-.05.09,1.9a11,11,0,0,1,5.67.7A2.59,2.59,0,0,0,74.8,33.94Z" fill="#edeef4"/><path id="Trazado_1746-2" data-name="Trazado 1746-2" d="M55,33.27l-1.79-1.89a66.16,66.16,0,0,1-5.83,3.15,4.17,4.17,0,0,1,1.73,2.8A38.51,38.51,0,0,1,55,33.27Z" fill="#edeef4"/><path id="Trazado_1747-2" data-name="Trazado 1747-2" d="M14.19,22.48c-.92-.88-.84-1.06-1.75-1.95a48.06,48.06,0,0,1-6,2.55c1.31.91.51,1.35,1.08,2.83A30.2,30.2,0,0,1,14.19,22.48Z" fill="#edeef4"/><path id="Trazado_1748-2" data-name="Trazado 1748-2" d="M40.82,28.49a3.13,3.13,0,0,0-1.34-1l-2.93-1.52-2.33,2.75a17.53,17.53,0,0,1,6.46,2.46A3.17,3.17,0,0,0,40.82,28.49Z" fill="#edeef4"/><path id="Trazado_1749-2" data-name="Trazado 1749-2" d="M19.41,14.67c-.36.93-.73,1.85-1.1,2.77l6.76,1.63a4,4,0,0,1,.71-2.32A29.13,29.13,0,0,1,19.41,14.67Z" fill="#edeef4"/><path id="Trazado_1750-2" data-name="Trazado 1750-2" d="M36.92,2.25,31,1.94a7.64,7.64,0,0,0-1.37,2.52,23.51,23.51,0,0,1,6.9.37A4.6,4.6,0,0,1,36.92,2.25Z" fill="#edeef4"/><path id="Trazado_1751-2" data-name="Trazado 1751-2" d="M20.27,26.1l2.93.15a3.56,3.56,0,0,1-.44-2.87,5.31,5.31,0,0,0-.05-3l-2.05-.5Z" fill="#edeef4"/><path id="Trazado_1752-2" data-name="Trazado 1752-2" d="M55.78,17.12,54.56,15.5l-4.82,1.05,2,2.46Z" fill="#edeef4"/><path id="Trazado_1753-2" data-name="Trazado 1753-2" d="M23.1,43.31c-.41-.53-.81-1.08-1.22-1.61l-4.82,1,2.05,2.45Z" fill="#edeef4"/><path id="Trazado_1754-2" data-name="Trazado 1754-2" d="M65.33,22.29a1.46,1.46,0,0,0-.43-1.44,1.27,1.27,0,0,0-1.47-.11,1.92,1.92,0,0,0-.39.36,10.27,10.27,0,0,0-2.34,4.52,4.51,4.51,0,0,1,2.58.84,4.73,4.73,0,0,1,1-2.64A4.47,4.47,0,0,0,65.33,22.29Z" fill="#edeef4"/><path id="Trazado_1755-2" data-name="Trazado 1755-2" d="M38.43,48.07A1.47,1.47,0,0,0,38,46.63a1.26,1.26,0,0,0-1.47-.11,2,2,0,0,0-.39.37,10.36,10.36,0,0,0-2.35,4.51,4.52,4.52,0,0,1,2.59.84,4.81,4.81,0,0,1,1-2.64A4.47,4.47,0,0,0,38.43,48.07Z" fill="#edeef4"/><path id="Trazado_1756-2" data-name="Trazado 1756-2" d="M20.64,37.09l2.22,1.54,3-4.26-2.19-.23Z" fill="#edeef4"/><path id="Trazado_1757-2" data-name="Trazado 1757-2" d="M8.92,28.76a.58.58,0,0,0,.39.31l3.14,1.24a15.18,15.18,0,0,1,3.23-5.18,7.92,7.92,0,0,1-3.19-.58l-3.33,3.6C9,28.32,8.83,28.55,8.92,28.76Z" fill="#edeef4"/><path id="Trazado_1758-2" data-name="Trazado 1758-2" d="M58.66,48a.69.69,0,0,0,.4.31l3.13,1.24a15.3,15.3,0,0,1,3.24-5.18,7.87,7.87,0,0,1-3.18-.58l-3.34,3.6C58.75,47.55,58.58,47.77,58.66,48Z" fill="#edeef4"/><path id="Trazado_1759-2" data-name="Trazado 1759-2" d="M50.85,55.77a12.48,12.48,0,0,1,3.31-4.18l-2.42-1.21L48,53.93Z" fill="#edeef4"/><path id="Trazado_1760-2" data-name="Trazado 1760-2" d="M24.68,48.64l2.67,1.46a34,34,0,0,1,3.41-4.44,1.16,1.16,0,0,0-1-.63Z" fill="#edeef4"/><path id="Trazado_1761-2" data-name="Trazado 1761-2" d="M11.62,12.85,8.3,16.51l2.32,1.38,3.08-4.27Z" fill="#edeef4"/><path id="Trazado_1762-2" data-name="Trazado 1762-2" d="M22.9,8a3.23,3.23,0,0,0-1.77-.1l-3.06.38c.22.91.44,1.83.67,2.74a10.82,10.82,0,0,1,5.66-1A3.35,3.35,0,0,0,22.9,8Z" fill="#edeef4"/><path id="Trazado_1763-2" data-name="Trazado 1763-2" d="M71.62,29a2.87,2.87,0,0,0,.72.58,1.28,1.28,0,0,0,1.8-1.34,23.75,23.75,0,0,1-3-3.88l-2.94,1.14Z" fill="#edeef4"/><path id="Trazado_1764-2" data-name="Trazado 1764-2" d="M49.19,43.69a2.87,2.87,0,0,0,.72.58,1.27,1.27,0,0,0,1.69-.62,1.2,1.2,0,0,0,.11-.72,23.27,23.27,0,0,1-3-3.88l-3,1.15Q47.5,41.94,49.19,43.69Z" fill="#edeef4"/><path id="Trazado_1765-2" data-name="Trazado 1765-2" d="M55,14.79a2.66,2.66,0,0,0,.72.58A1.28,1.28,0,0,0,57.56,14a22.36,22.36,0,0,1-3-3.88l-3,1.15Z" fill="#edeef4"/><path id="Trazado_1766-2" data-name="Trazado 1766-2" d="M34,20.38a2.91,2.91,0,0,0,.72.58,1.28,1.28,0,0,0,1.69-.63,1.35,1.35,0,0,0,.11-.71,22.63,22.63,0,0,1-3-3.88l-3,1.15Q32.35,18.63,34,20.38Z" fill="#edeef4"/><path id="Trazado_1767-2" data-name="Trazado 1767-2" d="M57.25,6.59a11.19,11.19,0,0,1-4.53-.46c-.25.75-.5,1.49-.76,2.22A19.86,19.86,0,0,1,57.75,9,3.65,3.65,0,0,1,57.25,6.59Z" fill="#edeef4"/><path id="Trazado_1768-2" data-name="Trazado 1768-2" d="M31,34.14a5.9,5.9,0,0,1-2.83-3.92q-1.38.53-2.76,1a21.07,21.07,0,0,1,3.49,4.84Z" fill="#edeef4"/><path id="Trazado_1769-2" data-name="Trazado 1769-2" d="M45.58,16.34a5.9,5.9,0,0,1-2.83-3.92l-2.76,1a20.74,20.74,0,0,1,3.48,4.84Z" fill="#edeef4"/><path id="Trazado_1770-2" data-name="Trazado 1770-2" d="M44.79,42.79A5.92,5.92,0,0,1,42,38.87l-2.77,1a21.07,21.07,0,0,1,3.49,4.84C43.38,44.08,44.08,43.43,44.79,42.79Z" fill="#edeef4"/><path id="Trazado_1771-2" data-name="Trazado 1771-2" d="M60.37,36.26a1.25,1.25,0,0,0,1.46,1,1.29,1.29,0,0,0,.56-.28l1.68-4.12a10.31,10.31,0,0,0-2.29-.16,5,5,0,0,0-1.41,3A2,2,0,0,0,60.37,36.26Z" fill="#edeef4"/><path id="Trazado_1772-2" data-name="Trazado 1772-2" d="M38.92,35.3c-.07-.27-.39-.36-.66-.4l-2-.3c-1.07,1.3-2.15,2.59-3.23,3.89l2.29,1.08,3.32-3.71A.73.73,0,0,0,38.92,35.3Z" fill="#edeef4"/><path id="Trazado_1773-2" data-name="Trazado 1773-2" d="M8.62,36.62a16.72,16.72,0,0,1,5,3.23l2-2.67a29.49,29.49,0,0,1-4.79-2.26Z" fill="#edeef4"/><path id="Trazado_1829" data-name="Trazado 1829" d="M40.82,28.49a3.13,3.13,0,0,0-1.34-1l-2.93-1.52-2.33,2.75a17.53,17.53,0,0,1,6.46,2.46A3.17,3.17,0,0,0,40.82,28.49Z" fill="#edeef4"/><path id="Trazado_1830" data-name="Trazado 1830" d="M48.46,25a3.16,3.16,0,0,0-1.33-1L44.19,22.4l-2.33,2.76a17.34,17.34,0,0,1,6.47,2.46A3.16,3.16,0,0,0,48.46,25Z" fill="#edeef4"/><path id="Trazado_1831" data-name="Trazado 1831" d="M48.46,25a3.16,3.16,0,0,0-1.33-1L44.19,22.4l-2.33,2.76a17.34,17.34,0,0,1,6.47,2.46A3.16,3.16,0,0,0,48.46,25Z" fill="#edeef4"/></g><g id="Grupo_573" data-name="Grupo 573"><path id="Trazado_1744-3" data-name="Trazado 1744-3" d="M65.05,13.41a2.65,2.65,0,0,0-1.51-.34L60,13c0,.63.07,1.27.1,1.9a11,11,0,0,1,5.67.7A2.62,2.62,0,0,0,65.05,13.41Z" fill="none"/><path id="Trazado_1745-3" data-name="Trazado 1745-3" d="M74.8,33.94a2.56,2.56,0,0,0-1.51-.35l-3.57-.05.09,1.9a11,11,0,0,1,5.67.7A2.59,2.59,0,0,0,74.8,33.94Z" fill="none"/><path id="Trazado_1746-3" data-name="Trazado 1746-3" d="M69.64,37.39c-.59-.64-1.19-1.27-1.78-1.9Q65,37.24,62,38.65a4.16,4.16,0,0,1,1.74,2.8A37.51,37.51,0,0,1,69.64,37.39Z" fill="none"/><path id="Trazado_1747-3" data-name="Trazado 1747-3" d="M14.19,22.48c-.92-.88-.84-1.06-1.75-1.95a48.06,48.06,0,0,1-6,2.55c1.31.91.51,1.35,1.08,2.83A30.2,30.2,0,0,1,14.19,22.48Z" fill="none"/><path id="Trazado_1748-3" data-name="Trazado 1748-3" d="M60.81,29.67a3.08,3.08,0,0,0-1.34-1.05l-2.93-1.51c-.78.91-1.56,1.83-2.33,2.75a17.53,17.53,0,0,1,6.46,2.46A3.14,3.14,0,0,0,60.81,29.67Z" fill="none"/><path id="Trazado_1749-3" data-name="Trazado 1749-3" d="M19.41,14.67c-.36.93-.73,1.85-1.1,2.77l6.76,1.63a4,4,0,0,1,.71-2.32A29.13,29.13,0,0,1,19.41,14.67Z" fill="none"/><path id="Trazado_1750-3" data-name="Trazado 1750-3" d="M35.74,7l-5.93-.32a7.87,7.87,0,0,0-1.37,2.53,23.16,23.16,0,0,1,6.9.37A4.76,4.76,0,0,1,35.74,7Z" fill="none"/><path id="Trazado_1751-3" data-name="Trazado 1751-3" d="M20.27,26.1l2.93.15a3.56,3.56,0,0,1-.44-2.87,5.31,5.31,0,0,0-.05-3l-2.05-.5Z" fill="none"/><path id="Trazado_1752-3" data-name="Trazado 1752-3" d="M55.78,17.12,54.56,15.5l-4.82,1.05,2,2.46Z" fill="none"/><path id="Trazado_1753-3" data-name="Trazado 1753-3" d="M23.1,43.31c-.41-.53-.81-1.08-1.22-1.61l-4.82,1,2.05,2.45Z" fill="none"/><path id="Trazado_1754-3" data-name="Trazado 1754-3" d="M65.33,22.29a1.46,1.46,0,0,0-.43-1.44,1.27,1.27,0,0,0-1.47-.11,1.92,1.92,0,0,0-.39.36,10.27,10.27,0,0,0-2.34,4.52,4.51,4.51,0,0,1,2.58.84,4.73,4.73,0,0,1,1-2.64A4.47,4.47,0,0,0,65.33,22.29Z" fill="none"/><path id="Trazado_1755-3" data-name="Trazado 1755-3" d="M38.43,48.07A1.47,1.47,0,0,0,38,46.63a1.26,1.26,0,0,0-1.47-.11,2,2,0,0,0-.39.37,10.36,10.36,0,0,0-2.35,4.51,4.52,4.52,0,0,1,2.59.84,4.81,4.81,0,0,1,1-2.64A4.47,4.47,0,0,0,38.43,48.07Z" fill="none"/><path id="Trazado_1756-3" data-name="Trazado 1756-3" d="M20.64,37.09l2.22,1.54,3-4.26-2.19-.23Z" fill="none"/><path id="Trazado_1757-3" data-name="Trazado 1757-3" d="M8.92,28.76a.58.58,0,0,0,.39.31l3.14,1.24a15.18,15.18,0,0,1,3.23-5.18,7.92,7.92,0,0,1-3.19-.58l-3.33,3.6C9,28.32,8.83,28.55,8.92,28.76Z" fill="none"/><path id="Trazado_1758-3" data-name="Trazado 1758-3" d="M58.66,48a.69.69,0,0,0,.4.31l3.13,1.24a15.3,15.3,0,0,1,3.24-5.18,7.87,7.87,0,0,1-3.18-.58l-3.34,3.6C58.75,47.55,58.58,47.77,58.66,48Z" fill="none"/><path id="Trazado_1759-3" data-name="Trazado 1759-3" d="M53.79,49.3a12.48,12.48,0,0,1,3.31-4.18l-2.42-1.2-3.79,3.55Z" fill="none"/><path id="Trazado_1760-3" data-name="Trazado 1760-3" d="M24.68,48.64l2.67,1.46a34,34,0,0,1,3.41-4.44,1.16,1.16,0,0,0-1-.63Z" fill="none"/><path id="Trazado_1761-3" data-name="Trazado 1761-3" d="M11.62,12.85,8.3,16.51l2.32,1.38,3.08-4.27Z" fill="none"/><path id="Trazado_1762-3" data-name="Trazado 1762-3" d="M22.9,8a3.23,3.23,0,0,0-1.77-.1l-3.06.38c.22.91.44,1.83.67,2.74a10.82,10.82,0,0,1,5.66-1A3.35,3.35,0,0,0,22.9,8Z" fill="none"/><path id="Trazado_1763-3" data-name="Trazado 1763-3" d="M71.62,29a2.87,2.87,0,0,0,.72.58,1.28,1.28,0,0,0,1.8-1.34,23.75,23.75,0,0,1-3-3.88l-2.94,1.14Z" fill="none"/><path id="Trazado_1764-3" data-name="Trazado 1764-3" d="M49.19,43.69a2.87,2.87,0,0,0,.72.58,1.27,1.27,0,0,0,1.69-.62,1.2,1.2,0,0,0,.11-.72,23.27,23.27,0,0,1-3-3.88l-3,1.15Q47.5,41.94,49.19,43.69Z" fill="none"/><path id="Trazado_1765-3" data-name="Trazado 1765-3" d="M55,14.79a2.66,2.66,0,0,0,.72.58A1.28,1.28,0,0,0,57.56,14a22.36,22.36,0,0,1-3-3.88l-3,1.15Z" fill="none"/><path id="Trazado_1766-3" data-name="Trazado 1766-3" d="M32.86,16.26a2.87,2.87,0,0,0,.72.58,1.28,1.28,0,0,0,1.7-.63,1.33,1.33,0,0,0,.1-.71,22.87,22.87,0,0,1-3-3.88l-3,1.15Z" fill="none"/><path id="Trazado_1767-3" data-name="Trazado 1767-3" d="M57.25,6.59a11.19,11.19,0,0,1-4.53-.46c-.25.75-.5,1.49-.76,2.22A19.86,19.86,0,0,1,57.75,9,3.65,3.65,0,0,1,57.25,6.59Z" fill="none"/><path id="Trazado_1768-3" data-name="Trazado 1768-3" d="M31,34.14a5.9,5.9,0,0,1-2.83-3.92q-1.38.53-2.76,1a21.07,21.07,0,0,1,3.49,4.84Z" fill="none"/><path id="Trazado_1769-3" data-name="Trazado 1769-3" d="M40.88,5.17a5.9,5.9,0,0,1-2.83-3.92l-2.76,1a21,21,0,0,1,3.48,4.84Z" fill="none"/><path id="Trazado_1770-3" data-name="Trazado 1770-3" d="M50.67,52.78a5.88,5.88,0,0,1-2.83-3.91c-.92.33-1.85.67-2.77,1a20.8,20.8,0,0,1,3.49,4.83Z" fill="none"/><path id="Trazado_1771-3" data-name="Trazado 1771-3" d="M49.2,38a1.24,1.24,0,0,0,1.46,1,1.19,1.19,0,0,0,.56-.28l1.68-4.11a9.74,9.74,0,0,0-2.29-.16,5,5,0,0,0-1.41,3A2.08,2.08,0,0,0,49.2,38Z" fill="none"/><path id="Trazado_1772-3" data-name="Trazado 1772-3" d="M38.92,35.3c-.07-.27-.39-.36-.66-.4l-2-.3c-1.07,1.3-2.15,2.59-3.23,3.89l2.29,1.08,3.32-3.71A.73.73,0,0,0,38.92,35.3Z" fill="none"/><path id="Trazado_1773-3" data-name="Trazado 1773-3" d="M8.62,36.62a16.72,16.72,0,0,1,5,3.23l2-2.67a29.49,29.49,0,0,1-4.79-2.26Z" fill="none"/><path id="Trazado_1778" data-name="Trazado 1778" d="M32,41.43a3.08,3.08,0,0,0-1.34-1c-1-.51-1.95-1-2.93-1.51-.78.91-1.56,1.83-2.33,2.75a17.36,17.36,0,0,1,6.46,2.46A3.1,3.1,0,0,0,32,41.43Z" fill="none"/><path id="Trazado_1779" data-name="Trazado 1779" d="M49.05,3.8a3.08,3.08,0,0,0-1.34-1L44.78,1.24C44,2.15,43.22,3.07,42.45,4a17.53,17.53,0,0,1,6.46,2.46A3.1,3.1,0,0,0,49.05,3.8Z" fill="none"/><path id="Trazado_1780" data-name="Trazado 1780" d="M32,41.43a3.08,3.08,0,0,0-1.34-1c-1-.51-1.95-1-2.93-1.51-.78.91-1.56,1.83-2.33,2.75a17.36,17.36,0,0,1,6.46,2.46A3.1,3.1,0,0,0,32,41.43Z" fill="none"/><path id="Trazado_1781" data-name="Trazado 1781" d="M15.35,33.56l2.22,1.55,3-4.27-2.19-.22Z" fill="none"/><path id="Trazado_1782" data-name="Trazado 1782" d="M56.26,39.79a1.22,1.22,0,0,0,1.45,1,1.21,1.21,0,0,0,.57-.27L60,36.37a10.44,10.44,0,0,0-2.3-.16,5.17,5.17,0,0,0-1.41,3A1.73,1.73,0,0,0,56.26,39.79Z" fill="none"/><path id="Trazado_1783" data-name="Trazado 1783" d="M41.55,46a2.52,2.52,0,0,0,.72.58,1.28,1.28,0,0,0,1.8-1.34,22.36,22.36,0,0,1-3-3.88l-3,1.15Q39.86,44.29,41.55,46Z" fill="none"/></g></g></g></g></g></svg>