<svg xmlns="http://www.w3.org/2000/svg" viewBox="0 0 79.7 67.26"><title>Recurso 5</title><g id="Capa_2" data-name="Capa 2"><g id="Capa_1-2" data-name="Capa 1"><g id="Grupo_588" data-name="Grupo 588"><g id="Dona-6"><g id="Grupo_647-6" data-name="Grupo 647-6"><path id="Trazado_357-6" data-name="Trazado 357-6" d="M77.6,22.32c-1.62-5.53-26-16.57-42-13.64-5.44,1-9.94,4.18-14.62,5.9C-2.55,23.18-2.12,39.67,7.32,52.87c5.34,7.46,19.83,15.29,36.3,14.3C90.13,64.41,77.6,22.32,77.6,22.32Zm-23.23,8c.1.1.18.21.27.31C57.42,32.53,53.48,29.51,54.37,30.34Z" fill="#bf8320"/><path id="Trazado_1814-6" data-name="Trazado 1814-6" d="M78.78,34.88c-1.13-.76-22.2,19-77.42,3.43a4.63,4.63,0,0,0-.17.61c.47,2.65,1.63,4.63,2.25,7.15,7.9,8,35.25,11.92,73.07,1.29C78.17,43.84,79.92,35.64,78.78,34.88Z" fill="#b9640f"/></g></g><g id="Cubierta_de_chocolate-5" data-name="Cubierta de chocolate-5"><path id="Trazado_1776-5" data-name="Trazado 1776-5" d="M70,51.38c.6-1.88-.12-4.9,1-6.44s4-1.93,5.47-3c2.61-1.8,2.62-5.4,3-8.26,1.42-11.58-2.93-22.17-21-29.75C49.1,0,29.2-4.15,11.53,8.41,1,15.91-1.06,24,.43,33.48,1,37.08,4.31,44.39,8.5,45.92c2,.74,3.55.14,5.49,1.66a12.22,12.22,0,0,1,3.4,4.34c2.23,4.25,4.92,4.92,9.73,4.69,2.63-.12,3.82-.48,5.95,1.2a9.13,9.13,0,0,0,5.3,2.28c4.52.25,6.57-5.73,11.41-2.31,1.76,1.24,3.39,2.65,5.61,1.57s1.52-3.6,3.3-4.91C62.36,51.72,67.93,58,70,51.38Z" fill="#45322e"/></g><g id="Chispas_de_chocolate" data-name="Chispas de chocolate"><path id="Trazado_1744-5" data-name="Trazado 1744-5" d="M65.05,13.54a2.65,2.65,0,0,0-1.51-.34l-3.58,0c0,.63.07,1.27.1,1.9a11,11,0,0,1,5.67.7A2.63,2.63,0,0,0,65.05,13.54Z" fill="#392723"/><path id="Trazado_1745-5" data-name="Trazado 1745-5" d="M74.8,34.07a2.56,2.56,0,0,0-1.51-.35l-3.57,0,.09,1.9a11.1,11.1,0,0,1,5.67.7A2.6,2.6,0,0,0,74.8,34.07Z" fill="#392723"/><path id="Trazado_1746-5" data-name="Trazado 1746-5" d="M69.64,37.52c-.59-.64-1.19-1.27-1.78-1.9A65.25,65.25,0,0,1,62,38.78a4.16,4.16,0,0,1,1.74,2.8A37.51,37.51,0,0,1,69.64,37.52Z" fill="#392723"/><path id="Trazado_1747-5" data-name="Trazado 1747-5" d="M14.18,22.61c-.91-.88-.83-1.06-1.75-1.94a48.73,48.73,0,0,1-6,2.54c1.31.91.51,1.35,1.08,2.84A30,30,0,0,1,14.18,22.61Z" fill="#392723"/><path id="Trazado_1748-5" data-name="Trazado 1748-5" d="M60.81,29.8a3,3,0,0,0-1.34-1l-2.93-1.52c-.78.91-1.56,1.83-2.33,2.75a17.53,17.53,0,0,1,6.46,2.46A3.14,3.14,0,0,0,60.81,29.8Z" fill="#392723"/><path id="Trazado_1749-5" data-name="Trazado 1749-5" d="M19.41,14.81c-.36.92-.73,1.84-1.1,2.76l6.76,1.63a4,4,0,0,1,.71-2.32A29.65,29.65,0,0,1,19.41,14.81Z" fill="#392723"/><path id="Trazado_1750-5" data-name="Trazado 1750-5" d="M35.74,7.09l-5.93-.31A7.72,7.72,0,0,0,28.44,9.3a23.16,23.16,0,0,1,6.9.37A4.76,4.76,0,0,1,35.74,7.09Z" fill="#392723"/><path id="Trazado_1751-5" data-name="Trazado 1751-5" d="M20.27,26.24l2.93.15a3.59,3.59,0,0,1-.44-2.88,5.31,5.31,0,0,0-.05-3l-2.05-.5Z" fill="#392723"/><path id="Trazado_1752-5" data-name="Trazado 1752-5" d="M55.78,17.25l-1.22-1.62-4.82,1,2,2.46Z" fill="#392723"/><path id="Trazado_1753-5" data-name="Trazado 1753-5" d="M23.1,43.44c-.41-.53-.81-1.07-1.22-1.61l-4.82,1.05,2.05,2.45C20.44,44.71,21.77,44.07,23.1,43.44Z" fill="#392723"/><path id="Trazado_1754-5" data-name="Trazado 1754-5" d="M65.33,22.42A1.47,1.47,0,0,0,64.9,21a1.27,1.27,0,0,0-1.47-.11,2,2,0,0,0-.39.37,10.23,10.23,0,0,0-2.34,4.51,4.51,4.51,0,0,1,2.58.84,4.73,4.73,0,0,1,1-2.64A4.47,4.47,0,0,0,65.33,22.42Z" fill="#392723"/><path id="Trazado_1755-5" data-name="Trazado 1755-5" d="M38.43,48.2A1.45,1.45,0,0,0,38,46.77a1.25,1.25,0,0,0-1.47-.12,2,2,0,0,0-.39.37,10.41,10.41,0,0,0-2.35,4.51,4.52,4.52,0,0,1,2.59.84,4.75,4.75,0,0,1,1-2.63A4.61,4.61,0,0,0,38.43,48.2Z" fill="#392723"/><path id="Trazado_1756-5" data-name="Trazado 1756-5" d="M20.64,37.22l2.22,1.55,3-4.27-2.19-.22Z" fill="#392723"/><path id="Trazado_1757-5" data-name="Trazado 1757-5" d="M8.92,28.9a.59.59,0,0,0,.39.3l3.14,1.24a15.27,15.27,0,0,1,3.23-5.18,7.92,7.92,0,0,1-3.19-.58l-3.33,3.6C9,28.46,8.83,28.68,8.92,28.9Z" fill="#392723"/><path id="Trazado_1758-5" data-name="Trazado 1758-5" d="M58.66,48.12a.62.62,0,0,0,.4.31l3.13,1.25a15.25,15.25,0,0,1,3.24-5.19,7.87,7.87,0,0,1-3.18-.58l-3.34,3.6C58.75,47.68,58.58,47.91,58.66,48.12Z" fill="#392723"/><path id="Trazado_1759-5" data-name="Trazado 1759-5" d="M53.79,49.43a12.44,12.44,0,0,1,3.31-4.17l-2.42-1.21L50.89,47.6Z" fill="#392723"/><path id="Trazado_1760-5" data-name="Trazado 1760-5" d="M24.68,48.77l2.67,1.46a33.24,33.24,0,0,1,3.41-4.43,1.17,1.17,0,0,0-1-.64Z" fill="#392723"/><path id="Trazado_1761-5" data-name="Trazado 1761-5" d="M11.62,13c-1.11,1.22-2.21,2.44-3.32,3.65L10.62,18l3.08-4.26Z" fill="#392723"/><path id="Trazado_1762-5" data-name="Trazado 1762-5" d="M22.9,8.16a3.33,3.33,0,0,0-1.77-.1l-3.06.38c.22.91.44,1.83.67,2.74a10.82,10.82,0,0,1,5.66-1A3.35,3.35,0,0,0,22.9,8.16Z" fill="#392723"/><path id="Trazado_1763-5" data-name="Trazado 1763-5" d="M71.62,29.16a2.87,2.87,0,0,0,.72.58,1.28,1.28,0,0,0,1.8-1.34,23.33,23.33,0,0,1-3-3.88l-2.94,1.15Z" fill="#392723"/><path id="Trazado_1764-5" data-name="Trazado 1764-5" d="M49.19,43.82a2.66,2.66,0,0,0,.72.58,1.27,1.27,0,0,0,1.69-.62,1.19,1.19,0,0,0,.11-.72,22.87,22.87,0,0,1-3-3.88l-3,1.15Q47.5,42.07,49.19,43.82Z" fill="#392723"/><path id="Trazado_1765-5" data-name="Trazado 1765-5" d="M55,14.93a2.83,2.83,0,0,0,.72.57,1.26,1.26,0,0,0,1.69-.62,1.24,1.24,0,0,0,.11-.71,22.82,22.82,0,0,1-3-3.89l-3,1.15Z" fill="#392723"/><path id="Trazado_1766-5" data-name="Trazado 1766-5" d="M32.86,16.39a2.87,2.87,0,0,0,.72.58,1.28,1.28,0,0,0,1.7-.63,1.33,1.33,0,0,0,.1-.71,22.87,22.87,0,0,1-3-3.88l-3,1.15Z" fill="#392723"/><path id="Trazado_1767-5" data-name="Trazado 1767-5" d="M57.25,6.72a11.19,11.19,0,0,1-4.53-.46c-.25.75-.5,1.49-.76,2.23a19.51,19.51,0,0,1,5.79.6A3.64,3.64,0,0,1,57.25,6.72Z" fill="#392723"/><path id="Trazado_1768-5" data-name="Trazado 1768-5" d="M31,34.27a5.88,5.88,0,0,1-2.83-3.91l-2.76,1a20.8,20.8,0,0,1,3.49,4.83Z" fill="#392723"/><path id="Trazado_1769-5" data-name="Trazado 1769-5" d="M40.88,5.3a5.87,5.87,0,0,1-2.83-3.92l-2.76,1a21,21,0,0,1,3.48,4.84Z" fill="#392723"/><path id="Trazado_1770-5" data-name="Trazado 1770-5" d="M50.66,52.91A5.94,5.94,0,0,1,47.83,49l-2.76,1a20.8,20.8,0,0,1,3.49,4.83Z" fill="#392723"/><path id="Trazado_1771-5" data-name="Trazado 1771-5" d="M49.2,38.16a1.24,1.24,0,0,0,1.46,1,1.19,1.19,0,0,0,.56-.28l1.68-4.11a10.31,10.31,0,0,0-2.29-.16,5,5,0,0,0-1.41,3A2,2,0,0,0,49.2,38.16Z" fill="#392723"/><path id="Trazado_1772-5" data-name="Trazado 1772-5" d="M38.92,35.43c-.07-.26-.39-.36-.66-.4l-2-.3q-1.6,2-3.23,3.89l2.29,1.08L38.67,36A.77.77,0,0,0,38.92,35.43Z" fill="#392723"/><path id="Trazado_1773-5" data-name="Trazado 1773-5" d="M8.62,36.75a16.72,16.72,0,0,1,5,3.23l2-2.67a29.49,29.49,0,0,1-4.79-2.26Z" fill="#392723"/><path id="Trazado_1823" data-name="Trazado 1823" d="M46,26.39c-.41-.53-.81-1.07-1.22-1.61l-4.82,1,2,2.45Z" fill="#392723"/><path id="Trazado_1824" data-name="Trazado 1824" d="M33.33,32.87a1.23,1.23,0,0,0,2,.69L37,29.45a9.82,9.82,0,0,0-2.29-.16,5.09,5.09,0,0,0-1.42,3A1.79,1.79,0,0,0,33.33,32.87Z" fill="#392723"/><path id="Trazado_1825" data-name="Trazado 1825" d="M48,23.83a2.7,2.7,0,0,0,.72.58,1.28,1.28,0,0,0,1.69-.62,1.26,1.26,0,0,0,.1-.72,22.87,22.87,0,0,1-3-3.88l-3,1.15C45.75,21.5,46.89,22.66,48,23.83Z" fill="#392723"/><path id="Trazado_1826" data-name="Trazado 1826" d="M35.53,23.33a3.19,3.19,0,0,0-1.34-1l-2.93-1.52-2.34,2.76A17.32,17.32,0,0,1,35.39,26,3.17,3.17,0,0,0,35.53,23.33Z" fill="#392723"/><path id="Trazado_1827" data-name="Trazado 1827" d="M41,15.82a1.23,1.23,0,0,0,2,.69l1.68-4.11a9.74,9.74,0,0,0-2.29-.16,5.06,5.06,0,0,0-1.42,3A2.08,2.08,0,0,0,41,15.82Z" fill="#392723"/><path id="Trazado_1828" data-name="Trazado 1828" d="M32,40.24a11.55,11.55,0,0,1-4.53-.46L26.67,42a19.48,19.48,0,0,1,5.79.6A3.68,3.68,0,0,1,32,40.24Z" fill="#392723"/></g></g></g></g></svg>