<svg xmlns="http://www.w3.org/2000/svg" xmlns:xlink="http://www.w3.org/1999/xlink" viewBox="0 0 79.7 67.26"><defs><linearGradient id="Degradado_sin_nombre_101" x1="-182.72" y1="473.86" x2="-182.34" y2="473.68" gradientTransform="matrix(13.62, 0, 0, -13.85, 3289.48, 6950.49)" gradientUnits="userSpaceOnUse"><stop offset="0" stop-color="#f4dfba"/><stop offset="1" stop-color="#f0d19c"/></linearGradient><linearGradient id="Degradado_sin_nombre_102" x1="-229.92" y1="500.24" x2="-229.44" y2="500.24" gradientTransform="matrix(11.27, 0, 0, -11.53, 2724.95, 5775.67)" gradientUnits="userSpaceOnUse"><stop offset="0" stop-color="#f4dfba"/><stop offset="1" stop-color="#deb878"/></linearGradient><linearGradient id="Degradado_sin_nombre_101-2" x1="-214.04" y1="491.65" x2="-213.62" y2="491.48" gradientTransform="matrix(12.21, 0, 0, -14.54, 3002.27, 7345.1)" xlink:href="#Degradado_sin_nombre_101"/><linearGradient id="Degradado_sin_nombre_102-2" x1="-270.98" y1="502.39" x2="-270.4" y2="502.39" gradientTransform="matrix(9.17, 0, 0, -13.06, 2271.44, 6598.6)" xlink:href="#Degradado_sin_nombre_102"/><linearGradient id="Degradado_sin_nombre_101-3" x1="-288.68" y1="533.32" x2="-288.34" y2="533.1" gradientTransform="matrix(15.1, 0, 0, -11.66, 3675.22, 5908.95)" xlink:href="#Degradado_sin_nombre_101"/><linearGradient id="Degradado_sin_nombre_102-3" x1="-342.6" y1="501.49" x2="-342.23" y2="501.49" gradientTransform="matrix(14.53, 0, 0, -8.22, 3536.69, 4172.22)" xlink:href="#Degradado_sin_nombre_102"/><linearGradient id="Degradado_sin_nombre_101-4" x1="-186.1" y1="475.42" x2="-185.72" y2="475.24" gradientTransform="matrix(13.62, 0, 0, -13.85, 3340.93, 6972.97)" xlink:href="#Degradado_sin_nombre_101"/><linearGradient id="Degradado_sin_nombre_102-4" x1="-234.6" y1="501.05" x2="-234.12" y2="501.05" gradientTransform="matrix(11.27, 0, 0, -11.53, 2776.16, 5798.66)" xlink:href="#Degradado_sin_nombre_102"/><linearGradient id="Degradado_sin_nombre_101-5" x1="-182.62" y1="475.46" x2="-182.24" y2="475.28" gradientTransform="matrix(13.62, 0, 0, -13.85, 3259.64, 6987.83)" xlink:href="#Degradado_sin_nombre_101"/><linearGradient id="Degradado_sin_nombre_102-5" x1="-228.69" y1="501.59" x2="-228.21" y2="501.59" gradientTransform="matrix(11.27, 0, 0, -11.53, 2695, 5813.57)" xlink:href="#Degradado_sin_nombre_102"/><linearGradient id="Degradado_sin_nombre_101-6" x1="-238.83" y1="501.52" x2="-238.41" y2="501.35" gradientTransform="matrix(11.21, 0, 0, -13.55, 2693.44, 6811.82)" xlink:href="#Degradado_sin_nombre_101"/><linearGradient id="Degradado_sin_nombre_102-6" x1="-238.35" y1="501.12" x2="-237.77" y2="501.12" gradientTransform="matrix(8.31, 0, 0, -12.79, 1999.34, 6423.08)" xlink:href="#Degradado_sin_nombre_102"/><linearGradient id="Degradado_sin_nombre_101-7" x1="-266.73" y1="520.95" x2="-266.38" y2="520.72" gradientTransform="matrix(16.05, 0, 0, -11.66, 3865.44, 5901.13)" xlink:href="#Degradado_sin_nombre_101"/><linearGradient id="Degradado_sin_nombre_102-7" x1="-323.4" y1="501.09" x2="-323.03" y2="501.09" gradientTransform="matrix(15.37, 0, 0, -8.01, 3699.98, 4059.43)" xlink:href="#Degradado_sin_nombre_102"/><linearGradient id="Degradado_sin_nombre_101-8" x1="-281.67" y1="523.57" x2="-281.33" y2="523.35" gradientTransform="matrix(8.68, 0, 0, -6.74, 2131, 3372.33)" xlink:href="#Degradado_sin_nombre_101"/><linearGradient id="Degradado_sin_nombre_102-8" x1="-327.54" y1="494.25" x2="-327.17" y2="494.25" gradientTransform="matrix(8.34, 0, 0, -4.78, 2049.81, 2379.17)" xlink:href="#Degradado_sin_nombre_102"/><linearGradient id="Degradado_sin_nombre_101-9" x1="-194.59" y1="479.53" x2="-194.21" y2="479.35" gradientTransform="matrix(9.91, 0, 0, -10.08, 2395.82, 5076.6)" xlink:href="#Degradado_sin_nombre_101"/><linearGradient id="Degradado_sin_nombre_102-9" x1="-232.91" y1="499.8" x2="-232.43" y2="499.8" gradientTransform="matrix(8.2, 0, 0, -8.39, 1984.56, 4220.83)" xlink:href="#Degradado_sin_nombre_102"/><linearGradient id="Degradado_sin_nombre_101-10" x1="-195.18" y1="481.3" x2="-194.8" y2="481.11" gradientTransform="matrix(10.91, 0, 0, -11.1, 2649.22, 5627.48)" xlink:href="#Degradado_sin_nombre_101"/><linearGradient id="Degradado_sin_nombre_102-10" x1="-233.62" y1="501.92" x2="-233.14" y2="501.92" gradientTransform="matrix(9.03, 0, 0, -9.24, 2196.72, 4686.38)" xlink:href="#Degradado_sin_nombre_102"/><linearGradient id="Degradado_sin_nombre_101-11" x1="-197.69" y1="479.73" x2="-197.31" y2="479.55" gradientTransform="matrix(6.31, -5.88, -5.98, -6.41, 4544.82, 1826.74)" xlink:href="#Degradado_sin_nombre_101"/><linearGradient id="Degradado_sin_nombre_102-11" x1="-236.64" y1="500.04" x2="-236.17" y2="500.04" gradientTransform="matrix(5.23, -4.88, -4.98, -5.34, 3780.08, 1523.15)" xlink:href="#Degradado_sin_nombre_102"/><linearGradient id="Degradado_sin_nombre_101-12" x1="-288.39" y1="541.35" x2="-288.04" y2="541.14" gradientTransform="matrix(-15.09, 0.53, 0.41, 11.65, -3787.33, -5811.18)" xlink:href="#Degradado_sin_nombre_101"/><linearGradient id="Degradado_sin_nombre_102-12" x1="-342.29" y1="512.89" x2="-341.92" y2="512.89" gradientTransform="matrix(-14.51, 0.51, 0.29, 8.22, -3587.35, -4083.96)" xlink:href="#Degradado_sin_nombre_102"/><linearGradient id="Degradado_sin_nombre_101-13" x1="-266.45" y1="529" x2="-266.11" y2="528.77" gradientTransform="matrix(-16.04, 0.56, 0.41, 11.65, -3977.24, -5798.86)" xlink:href="#Degradado_sin_nombre_101"/><linearGradient id="Degradado_sin_nombre_102-13" x1="-323.11" y1="512.81" x2="-322.74" y2="512.81" gradientTransform="matrix(-15.35, 0.54, 0.28, 8, -3747.34, -3965.07)" xlink:href="#Degradado_sin_nombre_102"/><linearGradient id="Degradado_sin_nombre_101-14" x1="-194.76" y1="489.75" x2="-194.38" y2="489.56" gradientTransform="matrix(-10.9, 0.38, 0.39, 11.09, -2752.33, -5567.2)" xlink:href="#Degradado_sin_nombre_101"/><linearGradient id="Degradado_sin_nombre_102-14" x1="-233.11" y1="512.07" x2="-232.64" y2="512.07" gradientTransform="matrix(-9.02, 0.32, 0.32, 9.23, -2266.95, -4644.01)" xlink:href="#Degradado_sin_nombre_102"/><linearGradient id="Degradado_sin_nombre_101-15" x1="-281.82" y1="525.59" x2="-281.48" y2="525.37" gradientTransform="matrix(8.68, 0, 0, -6.74, 2134.28, 3405.32)" xlink:href="#Degradado_sin_nombre_101"/><linearGradient id="Degradado_sin_nombre_102-15" x1="-327.7" y1="497.09" x2="-327.33" y2="497.09" gradientTransform="matrix(8.34, 0, 0, -4.78, 2053.09, 2412.16)" xlink:href="#Degradado_sin_nombre_102"/><linearGradient id="Degradado_sin_nombre_101-16" x1="-280.77" y1="525.59" x2="-280.43" y2="525.37" gradientTransform="matrix(8.68, 0, 0, -6.74, 2112.13, 3405.32)" xlink:href="#Degradado_sin_nombre_101"/><linearGradient id="Degradado_sin_nombre_102-16" x1="-326.61" y1="497.09" x2="-326.24" y2="497.09" gradientTransform="matrix(8.34, 0, 0, -4.78, 2030.94, 2412.16)" xlink:href="#Degradado_sin_nombre_102"/><linearGradient id="Degradado_sin_nombre_101-17" x1="-195.61" y1="480.02" x2="-195.23" y2="479.84" gradientTransform="matrix(10.91, 0, 0, -11.1, 2660.65, 5593.22)" xlink:href="#Degradado_sin_nombre_101"/><linearGradient id="Degradado_sin_nombre_102-17" x1="-234.14" y1="500.39" x2="-233.67" y2="500.39" gradientTransform="matrix(9.03, 0, 0, -9.24, 2208.15, 4652.12)" xlink:href="#Degradado_sin_nombre_102"/></defs><title>Recurso 6</title><g id="Capa_2" data-name="Capa 2"><g id="Capa_1-2" data-name="Capa 1"><g id="Grupo_589" data-name="Grupo 589"><g id="Dona-2"><g id="Grupo_647-2" data-name="Grupo 647-2"><path id="Trazado_357-2" data-name="Trazado 357-2" d="M77.6,22.32c-1.62-5.53-26-16.57-42-13.64-5.44,1-9.94,4.18-14.62,5.9C-2.55,23.18-2.12,39.67,7.32,52.87c5.34,7.46,19.83,15.29,36.3,14.3C90.13,64.41,77.6,22.32,77.6,22.32Zm-23.23,8c.1.1.18.21.27.31C57.42,32.53,53.48,29.51,54.37,30.34Z" fill="#bf8320"/><path id="Trazado_1814-2" data-name="Trazado 1814-2" d="M78.78,34.88c-1.13-.76-22.2,19-77.42,3.43a4.63,4.63,0,0,0-.17.61c.47,2.65,1.63,4.63,2.25,7.15,7.9,8,35.25,11.92,73.07,1.29C78.17,43.84,79.92,35.64,78.78,34.88Z" fill="#b9640f"/></g></g><g id="Cubierta_de_chocolate" data-name="Cubierta de chocolate"><path id="Trazado_1776" data-name="Trazado 1776" d="M70,51.38c.6-1.88-.12-4.9,1-6.44s4-1.93,5.47-3c2.61-1.8,2.62-5.4,3-8.26,1.42-11.58-2.93-22.17-21-29.75C49.1,0,29.2-4.15,11.53,8.41,1,15.91-1.06,24,.43,33.48,1,37.08,4.31,44.39,8.5,45.92c2,.74,3.55.14,5.49,1.66a12.22,12.22,0,0,1,3.4,4.34c2.23,4.25,4.92,4.92,9.73,4.69,2.63-.12,3.82-.48,5.95,1.2a9.13,9.13,0,0,0,5.3,2.28c4.52.25,6.57-5.73,11.41-2.31,1.76,1.24,3.39,2.65,5.61,1.57s1.52-3.6,3.3-4.91C62.36,51.72,67.93,58,70,51.38Z" fill="#45322e"/></g><g id="Mani"><g id="Grupo_536" data-name="Grupo 536"><path id="Trazado_1784" data-name="Trazado 1784" d="M27.05,12.47a4.69,4.69,0,0,0,5.89.34c2.32-1.62,2.11-5.92-.2-7s-3,.84-2.71,2-1,1.82-1.84,1.94S25.8,11.09,27.05,12.47Z" fill="url(#Degradado_sin_nombre_101)"/><path id="Trazado_1785" data-name="Trazado 1785" d="M30,7.81c.3,1.12-1,1.82-1.84,1.94s-1.87.94-1.56,2c2.26.87,3.86.91,5.64-1.13a4.9,4.9,0,0,0,.6-4.73l-.13-.06C30.55,4.84,29.72,6.68,30,7.81Z" fill="url(#Degradado_sin_nombre_102)"/><path id="Trazado_1786" data-name="Trazado 1786" d="M29.82,9.35a1.1,1.1,0,0,0,.23-1A1.75,1.75,0,0,1,29,9.5.84.84,0,0,0,29.82,9.35Z" fill="#bd896e"/></g><g id="Grupo_537" data-name="Grupo 537"><path id="Trazado_1787" data-name="Trazado 1787" d="M57.85,42a4.68,4.68,0,0,0,5.65-1.7c1.62-2.33-.06-6.29-2.59-6.48S58.37,35.6,59,36.55s-.28,2-1.06,2.46S56.21,41.09,57.85,42Z" fill="url(#Degradado_sin_nombre_101-2)"/><path id="Trazado_1788" data-name="Trazado 1788" d="M59,36.55c.67,1-.28,2-1.06,2.46s-1.43,1.53-.77,2.42c2.42,0,3.94-.47,4.91-3a4.88,4.88,0,0,0-1.07-4.64l-.14,0C58.51,33.58,58.37,35.6,59,36.55Z" fill="url(#Degradado_sin_nombre_102-2)"/><path id="Trazado_1789" data-name="Trazado 1789" d="M59.37,38.07a1,1,0,0,0-.12-1,1.71,1.71,0,0,1-.59,1.43A.8.8,0,0,0,59.37,38.07Z" fill="#bd896e"/></g><g id="Grupo_538" data-name="Grupo 538"><path id="Trazado_1790" data-name="Trazado 1790" d="M52.29,48A4.69,4.69,0,0,0,48,44c-2.83-.22-5.39,3.24-4.27,5.52s2.87,1.26,3.35.2,1.9-.8,2.65-.34S52.38,49.83,52.29,48Z" fill="url(#Degradado_sin_nombre_101-3)"/><path id="Trazado_1791" data-name="Trazado 1791" d="M47,49.69c.48-1.06,1.9-.79,2.65-.33s2,.45,2.48-.57c-1.19-2.11-2.4-3.15-5.08-2.7a4.9,4.9,0,0,0-3.46,3.28l.06.13C44.74,51.66,46.55,50.76,47,49.69Z" fill="url(#Degradado_sin_nombre_102-3)"/><path id="Trazado_1792" data-name="Trazado 1792" d="M48.17,48.64a1.06,1.06,0,0,0-.81.62A1.67,1.67,0,0,1,48.89,49,.79.79,0,0,0,48.17,48.64Z" fill="#bd896e"/></g><g id="Grupo_539" data-name="Grupo 539"><path id="Trazado_1793" data-name="Trazado 1793" d="M57.24,25.9a4.69,4.69,0,0,0,5.9.35c2.32-1.62,2.11-5.92-.2-7s-3,.85-2.71,2-1,1.82-1.84,1.94S56,24.53,57.24,25.9Z" fill="url(#Degradado_sin_nombre_101-4)"/><path id="Trazado_1794" data-name="Trazado 1794" d="M60.23,21.25c.3,1.13-1,1.82-1.84,1.94s-1.87.95-1.56,2c2.26.87,3.86.91,5.64-1.12a4.92,4.92,0,0,0,.6-4.74l-.13-.06C60.75,18.28,59.92,20.12,60.23,21.25Z" fill="url(#Degradado_sin_nombre_102-4)"/><path id="Trazado_1795" data-name="Trazado 1795" d="M60,22.79a1.1,1.1,0,0,0,.24-1,1.75,1.75,0,0,1-1,1.15A.82.82,0,0,0,60,22.79Z" fill="#bd896e"/></g><g id="Grupo_540" data-name="Grupo 540"><path id="Trazado_1796" data-name="Trazado 1796" d="M9.52,34.72a4.69,4.69,0,0,0,5.9.35c2.32-1.63,2.11-5.92-.2-7s-3,.85-2.71,2-1,1.83-1.84,1.95S8.28,33.35,9.52,34.72Z" fill="url(#Degradado_sin_nombre_101-5)"/><path id="Trazado_1797" data-name="Trazado 1797" d="M12.51,30.06c.3,1.13-1,1.83-1.84,1.95S8.8,33,9.11,34c2.26.87,3.86.91,5.64-1.13a4.9,4.9,0,0,0,.6-4.73l-.13-.07C13,27.1,12.2,28.94,12.51,30.06Z" fill="url(#Degradado_sin_nombre_102-5)"/><path id="Trazado_1798" data-name="Trazado 1798" d="M12.29,31.61a1.1,1.1,0,0,0,.24-1,1.71,1.71,0,0,1-1,1.14A.79.79,0,0,0,12.29,31.61Z" fill="#bd896e"/></g><g id="Grupo_541" data-name="Grupo 541"><path id="Trazado_1799" data-name="Trazado 1799" d="M19.05,12a4.28,4.28,0,0,0-2.85,4.55c.29,2.55,3.8,4.25,5.65,2.87s.64-2.77-.39-3-1-1.56-.75-2.3S20.68,11.59,19.05,12Z" fill="url(#Degradado_sin_nombre_101-6)"/><path id="Trazado_1800" data-name="Trazado 1800" d="M21.46,16.38c-1-.25-1-1.56-.75-2.3s.06-1.91-.92-2.12c-1.68,1.42-2.4,2.68-1.56,5a4.46,4.46,0,0,0,3.51,2.54l.11-.08C23.6,18.09,22.49,16.63,21.46,16.38Z" fill="url(#Degradado_sin_nombre_102-6)"/><path id="Trazado_1801" data-name="Trazado 1801" d="M20.32,15.54a1,1,0,0,0,.69.62,1.56,1.56,0,0,1-.45-1.33A.76.76,0,0,0,20.32,15.54Z" fill="#bd896e"/></g><g id="Grupo_542" data-name="Grupo 542"><path id="Trazado_1802" data-name="Trazado 1802" d="M30.26,46a5,5,0,0,0-3.47-5.3c-2.88-1-6.45,2-5.88,4.62s2.65,2.07,3.43,1.08,2.18-.32,2.84.35S29.86,48,30.26,46Z" fill="url(#Degradado_sin_nombre_101-7)"/><path id="Trazado_1803" data-name="Trazado 1803" d="M24.34,46.43c.78-1,2.18-.32,2.84.35s2,1,2.73.06c-.68-2.5-1.67-3.9-4.57-4.15a5.26,5.26,0,0,0-4.46,2.51l0,.15C21.44,47.88,23.56,47.42,24.34,46.43Z" fill="url(#Degradado_sin_nombre_102-7)"/><path id="Trazado_1804" data-name="Trazado 1804" d="M25.81,45.63a1.19,1.19,0,0,0-1,.44,1.84,1.84,0,0,1,1.66.17A.88.88,0,0,0,25.81,45.63Z" fill="#bd896e"/></g><g id="Grupo_543" data-name="Grupo 543"><path id="Trazado_1805" data-name="Trazado 1805" d="M48.43,18.35a2.7,2.7,0,0,0-2.53-2.26c-1.63-.1-3.07,1.92-2.4,3.22a1,1,0,0,0,1.93.08c.26-.62,1.08-.48,1.52-.22S48.5,19.42,48.43,18.35Z" fill="url(#Degradado_sin_nombre_101-8)"/><path id="Trazado_1806" data-name="Trazado 1806" d="M45.43,19.39c.26-.62,1.08-.48,1.52-.22s1.18.24,1.42-.35c-.71-1.2-1.41-1.79-2.95-1.51a2.84,2.84,0,0,0-2,1.92.3.3,0,0,1,0,.08A1,1,0,0,0,45.43,19.39Z" fill="url(#Degradado_sin_nombre_102-8)"/><path id="Trazado_1807" data-name="Trazado 1807" d="M46.07,18.77a.63.63,0,0,0-.46.36,1,1,0,0,1,.88-.14A.47.47,0,0,0,46.07,18.77Z" fill="#bd896e"/></g><g id="Grupo_544" data-name="Grupo 544"><path id="Trazado_1808" data-name="Trazado 1808" d="M25.22,29.8a3.41,3.41,0,0,0,4.29.26c1.69-1.19,1.54-4.32-.15-5.08s-2.19.61-2,1.43-.71,1.33-1.34,1.41S24.31,28.8,25.22,29.8Z" fill="url(#Degradado_sin_nombre_101-9)"/><path id="Trazado_1809" data-name="Trazado 1809" d="M27.39,26.41c.22.83-.71,1.33-1.34,1.41s-1.36.69-1.13,1.47c1.64.63,2.8.66,4.1-.82A3.57,3.57,0,0,0,29.46,25l-.1,0C27.77,24.25,27.17,25.59,27.39,26.41Z" fill="url(#Degradado_sin_nombre_102-9)"/><path id="Trazado_1810" data-name="Trazado 1810" d="M27.24,27.54a.8.8,0,0,0,.17-.73,1.27,1.27,0,0,1-.77.83A.59.59,0,0,0,27.24,27.54Z" fill="#bd896e"/></g><g id="Grupo_545" data-name="Grupo 545"><path id="Trazado_1808-2" data-name="Trazado 1808-2" d="M32.68,51.12a3.78,3.78,0,0,0,4.73.28c1.86-1.31,1.69-4.75-.17-5.6s-2.41.68-2.17,1.58-.78,1.46-1.47,1.56S31.69,50,32.68,51.12Z" fill="url(#Degradado_sin_nombre_101-10)"/><path id="Trazado_1809-2" data-name="Trazado 1809-2" d="M35.07,47.38c.25.91-.77,1.46-1.47,1.56s-1.5.76-1.25,1.61c1.81.7,3.09.73,4.52-.9a3.92,3.92,0,0,0,.48-3.79l-.1-.06C35.49,45,34.83,46.48,35.07,47.38Z" fill="url(#Degradado_sin_nombre_102-10)"/><path id="Trazado_1810-2" data-name="Trazado 1810-2" d="M34.9,48.62a.84.84,0,0,0,.19-.8,1.4,1.4,0,0,1-.84.92A.66.66,0,0,0,34.9,48.62Z" fill="#bd896e"/></g><g id="Grupo_546" data-name="Grupo 546"><path id="Trazado_1808-3" data-name="Trazado 1808-3" d="M22.29,39.66a3,3,0,0,0,2.88-2.38c.37-1.76-1.58-3.66-3.11-3.15a1.12,1.12,0,0,0-.4,2.09c.63.39.34,1.26,0,1.69S21.12,39.56,22.29,39.66Z" fill="url(#Degradado_sin_nombre_101-11)"/><path id="Trazado_1809-3" data-name="Trazado 1809-3" d="M21.66,36.22c.63.39.34,1.26,0,1.69s-.46,1.25.14,1.6c1.42-.57,2.18-1.24,2.13-2.95a3.11,3.11,0,0,0-1.77-2.45l-.09,0A1.12,1.12,0,0,0,21.66,36.22Z" fill="url(#Degradado_sin_nombre_102-11)"/><path id="Trazado_1810-3" data-name="Trazado 1810-3" d="M22.23,37a.7.7,0,0,0-.32-.56,1.09,1.09,0,0,1,0,1A.52.52,0,0,0,22.23,37Z" fill="#bd896e"/></g><g id="Grupo_547" data-name="Grupo 547"><path id="Trazado_1790-2" data-name="Trazado 1790-2" d="M36.25,8.87a4.69,4.69,0,0,0,4.48,3.85c2.83.12,5.27-3.43,4.07-5.67S41.89,5.9,41.45,7s-1.87.86-2.64.42S36.1,7,36.25,8.87Z" fill="url(#Degradado_sin_nombre_101-12)"/><path id="Trazado_1791-2" data-name="Trazado 1791-2" d="M41.45,7c-.44,1.08-1.87.86-2.64.42s-2.06-.38-2.46.66c1.27,2.06,2.52,3.06,5.17,2.52a4.89,4.89,0,0,0,3.34-3.39l-.06-.14C43.66,4.93,41.89,5.9,41.45,7Z" fill="url(#Degradado_sin_nombre_102-12)"/><path id="Trazado_1792-2" data-name="Trazado 1792-2" d="M40.34,8.07a1.08,1.08,0,0,0,.8-.65,1.75,1.75,0,0,1-1.53.28A.8.8,0,0,0,40.34,8.07Z" fill="#bd896e"/></g><g id="Grupo_548" data-name="Grupo 548"><path id="Trazado_1802-2" data-name="Trazado 1802-2" d="M58.25,9.82A5,5,0,0,0,61.9,15c2.91.86,6.38-2.19,5.72-4.83s-2.72-2-3.46-1S62,9.61,61.3,9,58.58,7.86,58.25,9.82Z" fill="url(#Degradado_sin_nombre_101-13)"/><path id="Trazado_1803-2" data-name="Trazado 1803-2" d="M64.15,9.21c-.74,1-2.17.4-2.85-.25s-2-.94-2.73,0c.77,2.47,1.81,3.84,4.71,4a5.25,5.25,0,0,0,4.37-2.66l0-.15C67,7.66,64.9,8.2,64.15,9.21Z" fill="url(#Degradado_sin_nombre_102-13)"/><path id="Trazado_1804-2" data-name="Trazado 1804-2" d="M62.72,10.06a1.14,1.14,0,0,0,1-.47,1.84,1.84,0,0,1-1.66-.11A.88.88,0,0,0,62.72,10.06Z" fill="#bd896e"/></g><g id="Grupo_549" data-name="Grupo 549"><path id="Trazado_1808-4" data-name="Trazado 1808-4" d="M55.86,4.93a3.75,3.75,0,0,0-4.73-.11c-1.82,1.36-1.53,4.8.36,5.58s2.39-.77,2.11-1.66S54.32,7.26,55,7.13,56.89,6,55.86,4.93Z" fill="url(#Degradado_sin_nombre_101-14)"/><path id="Trazado_1809-4" data-name="Trazado 1809-4" d="M53.6,8.74c-.27-.89.73-1.48,1.42-1.61s1.47-.81,1.19-1.65c-1.83-.64-3.11-.62-4.48,1.06a3.92,3.92,0,0,0-.35,3.81l.11.05C53.27,11.13,53.88,9.63,53.6,8.74Z" fill="url(#Degradado_sin_nombre_102-14)"/><path id="Trazado_1810-4" data-name="Trazado 1810-4" d="M53.73,7.5a.83.83,0,0,0-.16.8,1.37,1.37,0,0,1,.8-.94A.63.63,0,0,0,53.73,7.5Z" fill="#bd896e"/></g><g id="Grupo_551" data-name="Grupo 551"><path id="Trazado_1805-2" data-name="Trazado 1805-2" d="M50.36,37.75a2.7,2.7,0,0,0-2.53-2.27c-1.63-.09-3.07,1.92-2.4,3.22a1,1,0,0,0,1.93.08c.26-.62,1.08-.48,1.52-.22S50.43,38.81,50.36,37.75Z" fill="url(#Degradado_sin_nombre_101-15)"/><path id="Trazado_1806-2" data-name="Trazado 1806-2" d="M47.36,38.78c.26-.62,1.08-.48,1.52-.22s1.18.24,1.42-.35c-.71-1.2-1.41-1.79-2.95-1.51a2.84,2.84,0,0,0-2,1.92s0,.05,0,.08A1,1,0,0,0,47.36,38.78Z" fill="url(#Degradado_sin_nombre_102-15)"/><path id="Trazado_1807-2" data-name="Trazado 1807-2" d="M48,38.16a.63.63,0,0,0-.46.36,1,1,0,0,1,.88-.14A.47.47,0,0,0,48,38.16Z" fill="#bd896e"/></g><g id="Grupo_576" data-name="Grupo 576"><path id="Trazado_1805-3" data-name="Trazado 1805-3" d="M37.34,37.75a2.7,2.7,0,0,0-2.53-2.27c-1.63-.09-3.07,1.92-2.4,3.22s1.66.7,1.92.08,1.09-.48,1.52-.22S37.41,38.81,37.34,37.75Z" fill="url(#Degradado_sin_nombre_101-16)"/><path id="Trazado_1806-3" data-name="Trazado 1806-3" d="M34.33,38.78c.27-.62,1.09-.48,1.52-.22s1.18.24,1.43-.35c-.71-1.2-1.42-1.79-3-1.51a2.84,2.84,0,0,0-2,1.92l0,.08C33,39.93,34.07,39.4,34.33,38.78Z" fill="url(#Degradado_sin_nombre_102-16)"/><path id="Trazado_1807-3" data-name="Trazado 1807-3" d="M35,38.16a.61.61,0,0,0-.46.36,1,1,0,0,1,.88-.14A.47.47,0,0,0,35,38.16Z" fill="#bd896e"/></g><g id="Grupo_577" data-name="Grupo 577"><path id="Trazado_1808-5" data-name="Trazado 1808-5" d="M39.4,31a3.76,3.76,0,0,0,4.73.28C46,30,45.82,26.5,44,25.66s-2.42.68-2.18,1.58S41,28.7,40.32,28.79,38.41,29.87,39.4,31Z" fill="url(#Degradado_sin_nombre_101-17)"/><path id="Trazado_1809-5" data-name="Trazado 1809-5" d="M41.8,27.24c.24.9-.78,1.46-1.48,1.55s-1.5.76-1.25,1.62c1.81.7,3.09.73,4.52-.9a3.94,3.94,0,0,0,.48-3.8l-.1-.05C42.21,24.86,41.55,26.34,41.8,27.24Z" fill="url(#Degradado_sin_nombre_102-17)"/><path id="Trazado_1810-5" data-name="Trazado 1810-5" d="M41.63,28.48a.86.86,0,0,0,.18-.8,1.41,1.41,0,0,1-.83.92A.67.67,0,0,0,41.63,28.48Z" fill="#bd896e"/></g></g></g></g></g></svg>